G04 #@! TF.FileFunction,Legend,Top*
%FSLAX46Y46*%
G04 Gerber Fmt 4.6, Leading zero omitted, Abs format (unit mm)*
G04 Created by KiCad (PCBNEW 4.0.1-stable) date 2/4/2016 5:34:23 PM*
%MOMM*%
G01*
G04 APERTURE LIST*
%ADD10C,0.100000*%
%ADD11C,0.150000*%
G04 APERTURE END LIST*
D10*
D11*
X201141010Y-101597294D02*
X200672618Y-101077093D01*
X201564392Y-100274136D02*
X202032784Y-100794337D01*
X189463398Y-41660639D02*
X189247086Y-42326379D01*
X188105818Y-41955559D02*
X188322130Y-41289819D01*
X196144540Y-44772561D02*
X195794540Y-45378779D01*
X194755310Y-44778779D02*
X195105310Y-44172561D01*
X202032679Y-49205568D02*
X201564287Y-49725769D01*
X200672513Y-48922812D02*
X201140905Y-48402611D01*
X206870473Y-54765915D02*
X206304161Y-55177365D01*
X205598819Y-54206545D02*
X206165131Y-53795095D01*
X210446488Y-61210590D02*
X209807006Y-61495306D01*
X209318922Y-60399052D02*
X209958404Y-60114336D01*
X212604434Y-68257928D02*
X211919730Y-68403467D01*
X211670236Y-67229690D02*
X212354940Y-67084151D01*
X213249999Y-75599929D02*
X212549999Y-75599929D01*
X212549999Y-74399929D02*
X213249999Y-74399929D01*
X212354970Y-82915710D02*
X211670266Y-82770171D01*
X211919760Y-81596394D02*
X212604464Y-81741933D01*
X209958461Y-89885535D02*
X209318979Y-89600819D01*
X209807063Y-88504565D02*
X210446545Y-88789281D01*
X206165214Y-96204790D02*
X205598902Y-95793340D01*
X206304244Y-94822520D02*
X206870556Y-95233970D01*
X195105432Y-105827368D02*
X194755432Y-105221150D01*
X195794662Y-104621150D02*
X196144662Y-105227368D01*
X188322264Y-108710136D02*
X188105952Y-108044396D01*
X189247220Y-107673576D02*
X189463532Y-108339316D01*
X181087963Y-110119609D02*
X181014793Y-109423443D01*
X182208219Y-109298009D02*
X182281389Y-109994175D01*
X173718703Y-109994184D02*
X173791873Y-109298018D01*
X174985299Y-109423452D02*
X174912129Y-110119618D01*
X166536557Y-108339345D02*
X166752869Y-107673605D01*
X167894137Y-108044425D02*
X167677825Y-108710165D01*
X159855418Y-105227415D02*
X160205418Y-104621197D01*
X161244648Y-105221197D02*
X160894648Y-105827415D01*
X153967285Y-100794400D02*
X154435677Y-100274199D01*
X155327451Y-101077156D02*
X154859059Y-101597357D01*
X149129499Y-95234046D02*
X149695811Y-94822596D01*
X150401153Y-95793416D02*
X149834841Y-96204866D01*
X145553492Y-88789367D02*
X146192974Y-88504651D01*
X146681058Y-89600905D02*
X146041576Y-89885621D01*
X143395555Y-81742025D02*
X144080259Y-81596486D01*
X144329753Y-82770263D02*
X143645049Y-82915802D01*
X142750000Y-74400023D02*
X143450000Y-74400023D01*
X143450000Y-75600023D02*
X142750000Y-75600023D01*
X143645039Y-67084243D02*
X144329743Y-67229782D01*
X144080249Y-68403559D02*
X143395545Y-68258020D01*
X146041557Y-60114421D02*
X146681039Y-60399137D01*
X146192955Y-61495391D02*
X145553473Y-61210675D01*
X149834813Y-53795171D02*
X150401125Y-54206621D01*
X149695783Y-55177441D02*
X149129471Y-54765991D01*
X154859024Y-48402673D02*
X155327416Y-48922874D01*
X154435642Y-49725831D02*
X153967250Y-49205630D01*
X160894608Y-44172608D02*
X161244608Y-44778826D01*
X160205378Y-45378826D02*
X159855378Y-44772608D01*
X167677780Y-41289849D02*
X167894092Y-41955589D01*
X166752824Y-42326409D02*
X166536512Y-41660669D01*
X174912083Y-39880386D02*
X174985253Y-40576552D01*
X173791827Y-40701986D02*
X173718657Y-40005820D01*
X141650000Y-67060000D02*
G75*
G03X141650000Y-67060000I-1000000J0D01*
G01*
X183000000Y-36820000D02*
G75*
G03X183000000Y-36820000I-1000000J0D01*
G01*
X140980000Y-75050000D02*
G75*
G03X140980000Y-75050000I-1000000J0D01*
G01*
X217200000Y-75030000D02*
G75*
G03X217200000Y-75030000I-1000000J0D01*
G01*
X216320000Y-82940000D02*
G75*
G03X216320000Y-82940000I-1000000J0D01*
G01*
X175010000Y-36940000D02*
G75*
G03X175010000Y-36940000I-1000000J0D01*
G01*
X182393567Y-39693296D02*
X182289038Y-40687818D01*
X180946433Y-40546704D02*
X181050962Y-39552182D01*
X165508277Y-42569138D02*
G75*
G03X165508277Y-42569138I-1947434J0D01*
G01*
X164965219Y-39699865D02*
X164508124Y-39410791D01*
X164508124Y-39410791D02*
X164528461Y-39456468D01*
X160260138Y-41302116D02*
X162293821Y-45869843D01*
X162293821Y-45869843D02*
X166861548Y-43836160D01*
X166861548Y-43836160D02*
X164827865Y-39268433D01*
X164827865Y-39268433D02*
X160260138Y-41302116D01*
X159081050Y-46279902D02*
G75*
G03X159081050Y-46279902I-1947435J0D01*
G01*
X157910747Y-43181343D02*
X157403538Y-42993621D01*
X157403538Y-42993621D02*
X157432928Y-43034072D01*
X153641609Y-45726823D02*
X156580536Y-49771908D01*
X156580536Y-49771908D02*
X160625621Y-46832981D01*
X160625621Y-46832981D02*
X157686694Y-42787896D01*
X157686694Y-42787896D02*
X153641609Y-45726823D01*
X153565784Y-51245872D02*
G75*
G03X153565784Y-51245872I-1947434J0D01*
G01*
X151734273Y-48053449D02*
X151199119Y-47975284D01*
X151199119Y-47975284D02*
X151236276Y-48008741D01*
X148087661Y-51430908D02*
X151803386Y-54776561D01*
X151803386Y-54776561D02*
X155149039Y-51060836D01*
X155149039Y-51060836D02*
X151433314Y-47715183D01*
X151433314Y-47715183D02*
X148087661Y-51430908D01*
X149203524Y-57250013D02*
G75*
G03X149203524Y-57250013I-1947434J0D01*
G01*
X146705738Y-54103251D02*
X146166026Y-54138058D01*
X146166026Y-54138058D02*
X146209328Y-54163058D01*
X143841026Y-58165077D02*
X148171154Y-60665077D01*
X148171154Y-60665077D02*
X150671154Y-56334949D01*
X150671154Y-56334949D02*
X146341026Y-53834949D01*
X146341026Y-53834949D02*
X143841026Y-58165077D01*
X146184921Y-64029914D02*
G75*
G03X146184921Y-64029914I-1947434J0D01*
G01*
X143044913Y-61066341D02*
X142524232Y-61212600D01*
X142524232Y-61212600D02*
X142571785Y-61228051D01*
X141087303Y-65635013D02*
X145842586Y-67180098D01*
X145842586Y-67180098D02*
X147387671Y-62424815D01*
X147387671Y-62424815D02*
X142632388Y-60879730D01*
X142632388Y-60879730D02*
X141087303Y-65635013D01*
X144641904Y-71289261D02*
G75*
G03X144641904Y-71289261I-1947434J0D01*
G01*
X140911795Y-68638399D02*
X140432901Y-68889718D01*
X140432901Y-68889718D02*
X140482628Y-68894944D01*
X139946844Y-73514245D02*
X144919454Y-74036887D01*
X144919454Y-74036887D02*
X145442096Y-69064277D01*
X145442096Y-69064277D02*
X140469486Y-68541635D01*
X140469486Y-68541635D02*
X139946844Y-73514245D01*
X144641910Y-78710785D02*
G75*
G03X144641910Y-78710785I-1947435J0D01*
G01*
X140399610Y-76488490D02*
X139983434Y-76833884D01*
X139983434Y-76833884D02*
X140033160Y-76828658D01*
X140469491Y-81458411D02*
X145442101Y-80935769D01*
X145442101Y-80935769D02*
X144919459Y-75963159D01*
X144919459Y-75963159D02*
X139946849Y-76485801D01*
X139946849Y-76485801D02*
X140469491Y-81458411D01*
X146184936Y-85970130D02*
G75*
G03X146184936Y-85970130I-1947434J0D01*
G01*
X141530745Y-84273526D02*
X141195474Y-84697901D01*
X141195474Y-84697901D02*
X141243027Y-84682450D01*
X142632403Y-89120314D02*
X147387686Y-87575229D01*
X147387686Y-87575229D02*
X145842601Y-82819946D01*
X145842601Y-82819946D02*
X141087318Y-84365031D01*
X141087318Y-84365031D02*
X142632403Y-89120314D01*
X149203548Y-92750027D02*
G75*
G03X149203548Y-92750027I-1947434J0D01*
G01*
X144255762Y-91653265D02*
X144016050Y-92138072D01*
X144016050Y-92138072D02*
X144059352Y-92113072D01*
X146341050Y-96165091D02*
X150671178Y-93665091D01*
X150671178Y-93665091D02*
X148171178Y-89334963D01*
X148171178Y-89334963D02*
X143841050Y-91834963D01*
X143841050Y-91834963D02*
X146341050Y-96165091D01*
X153565817Y-98754162D02*
G75*
G03X153565817Y-98754162I-1947435J0D01*
G01*
X148455565Y-98305175D02*
X148321889Y-98829227D01*
X148321889Y-98829227D02*
X148359046Y-98795771D01*
X151433346Y-102284851D02*
X155149071Y-98939198D01*
X155149071Y-98939198D02*
X151803418Y-95223473D01*
X151803418Y-95223473D02*
X148087693Y-98569126D01*
X148087693Y-98569126D02*
X151433346Y-102284851D01*
X159081088Y-103720125D02*
G75*
G03X159081088Y-103720125I-1947434J0D01*
G01*
X153946603Y-103938536D02*
X153924804Y-104478929D01*
X153924804Y-104478929D02*
X153954194Y-104438478D01*
X157686733Y-107212131D02*
X160625660Y-103167046D01*
X160625660Y-103167046D02*
X156580575Y-100228119D01*
X156580575Y-100228119D02*
X153641648Y-104273204D01*
X153641648Y-104273204D02*
X157686733Y-107212131D01*
X165508322Y-107430880D02*
G75*
G03X165508322Y-107430880I-1947435J0D01*
G01*
X160488891Y-108307143D02*
X160579923Y-108840260D01*
X160579923Y-108840260D02*
X160600259Y-108794583D01*
X164827909Y-110731585D02*
X166861592Y-106163858D01*
X166861592Y-106163858D02*
X162293865Y-104130175D01*
X162293865Y-104130175D02*
X160260182Y-108697902D01*
X160260182Y-108697902D02*
X164827909Y-110731585D01*
X172566612Y-109724249D02*
G75*
G03X172566612Y-109724249I-1947434J0D01*
G01*
X167796497Y-111220068D02*
X167996381Y-111722608D01*
X167996381Y-111722608D02*
X168006777Y-111673700D01*
X172544768Y-112689397D02*
X173584326Y-107798659D01*
X173584326Y-107798659D02*
X168693588Y-106759101D01*
X168693588Y-106759101D02*
X167654030Y-111649839D01*
X167654030Y-111649839D02*
X172544768Y-112689397D01*
X179947481Y-110499999D02*
G75*
G03X179947481Y-110499999I-1947434J0D01*
G01*
X175550047Y-112549999D02*
X175850047Y-112999999D01*
X175850047Y-112999999D02*
X175850047Y-112949999D01*
X180500047Y-112999999D02*
X180500047Y-107999999D01*
X180500047Y-107999999D02*
X175500047Y-107999999D01*
X175500047Y-107999999D02*
X175500047Y-112999999D01*
X175500047Y-112999999D02*
X180500047Y-112999999D01*
X187328348Y-109724229D02*
G75*
G03X187328348Y-109724229I-1947434J0D01*
G01*
X183410671Y-112238815D02*
X183797676Y-112616608D01*
X183797676Y-112616608D02*
X183787280Y-112567701D01*
X188346062Y-111649819D02*
X187306504Y-106759081D01*
X187306504Y-106759081D02*
X182415766Y-107798639D01*
X182415766Y-107798639D02*
X183455324Y-112689377D01*
X183455324Y-112689377D02*
X188346062Y-111649819D01*
X194386634Y-107430841D02*
G75*
G03X194386634Y-107430841I-1947434J0D01*
G01*
X191034824Y-110300114D02*
X191491919Y-110589188D01*
X191491919Y-110589188D02*
X191471582Y-110543511D01*
X195739905Y-108697863D02*
X193706222Y-104130136D01*
X193706222Y-104130136D02*
X189138495Y-106163819D01*
X189138495Y-106163819D02*
X191172178Y-110731546D01*
X191172178Y-110731546D02*
X195739905Y-108697863D01*
X206329115Y-98754091D02*
G75*
G03X206329115Y-98754091I-1947434J0D01*
G01*
X204265758Y-101946514D02*
X204800912Y-102024679D01*
X204800912Y-102024679D02*
X204763755Y-101991222D01*
X207912370Y-98569055D02*
X204196645Y-95223402D01*
X204196645Y-95223402D02*
X200850992Y-98939127D01*
X200850992Y-98939127D02*
X204566717Y-102284780D01*
X204566717Y-102284780D02*
X207912370Y-98569055D01*
X210691367Y-92749944D02*
G75*
G03X210691367Y-92749944I-1947434J0D01*
G01*
X209294285Y-95896706D02*
X209833997Y-95861899D01*
X209833997Y-95861899D02*
X209790695Y-95836899D01*
X212158997Y-91834880D02*
X207828869Y-89334880D01*
X207828869Y-89334880D02*
X205328869Y-93665008D01*
X205328869Y-93665008D02*
X209658997Y-96165008D01*
X209658997Y-96165008D02*
X212158997Y-91834880D01*
X213709961Y-85970039D02*
G75*
G03X213709961Y-85970039I-1947434J0D01*
G01*
X212955101Y-88933612D02*
X213475782Y-88787353D01*
X213475782Y-88787353D02*
X213428229Y-88771902D01*
X214912711Y-84364940D02*
X210157428Y-82819855D01*
X210157428Y-82819855D02*
X208612343Y-87575138D01*
X208612343Y-87575138D02*
X213367626Y-89120223D01*
X213367626Y-89120223D02*
X214912711Y-84364940D01*
X215252968Y-78710690D02*
G75*
G03X215252968Y-78710690I-1947434J0D01*
G01*
X215088209Y-81361552D02*
X215567103Y-81110233D01*
X215567103Y-81110233D02*
X215517376Y-81105007D01*
X216053160Y-76485706D02*
X211080550Y-75963064D01*
X211080550Y-75963064D02*
X210557908Y-80935674D01*
X210557908Y-80935674D02*
X215530518Y-81458316D01*
X215530518Y-81458316D02*
X216053160Y-76485706D01*
X215252954Y-71289166D02*
G75*
G03X215252954Y-71289166I-1947435J0D01*
G01*
X215600384Y-73511461D02*
X216016560Y-73166067D01*
X216016560Y-73166067D02*
X215966834Y-73171293D01*
X215530503Y-68541540D02*
X210557893Y-69064182D01*
X210557893Y-69064182D02*
X211080535Y-74036792D01*
X211080535Y-74036792D02*
X216053145Y-73514150D01*
X216053145Y-73514150D02*
X215530503Y-68541540D01*
X213709916Y-64029823D02*
G75*
G03X213709916Y-64029823I-1947434J0D01*
G01*
X214469239Y-65726427D02*
X214804510Y-65302052D01*
X214804510Y-65302052D02*
X214756957Y-65317503D01*
X213367581Y-60879639D02*
X208612298Y-62424724D01*
X208612298Y-62424724D02*
X210157383Y-67180007D01*
X210157383Y-67180007D02*
X214912666Y-65634922D01*
X214912666Y-65634922D02*
X213367581Y-60879639D01*
X206329020Y-51245801D02*
G75*
G03X206329020Y-51245801I-1947435J0D01*
G01*
X207544402Y-51694788D02*
X207678078Y-51170736D01*
X207678078Y-51170736D02*
X207640921Y-51204192D01*
X204566621Y-47715112D02*
X200850896Y-51060765D01*
X200850896Y-51060765D02*
X204196549Y-54776490D01*
X204196549Y-54776490D02*
X207912274Y-51430837D01*
X207912274Y-51430837D02*
X204566621Y-47715112D01*
X200813740Y-46279846D02*
G75*
G03X200813740Y-46279846I-1947434J0D01*
G01*
X202053357Y-46061435D02*
X202075156Y-45521042D01*
X202075156Y-45521042D02*
X202045766Y-45561493D01*
X198313227Y-42787840D02*
X195374300Y-46832925D01*
X195374300Y-46832925D02*
X199419385Y-49771852D01*
X199419385Y-49771852D02*
X202358312Y-45726767D01*
X202358312Y-45726767D02*
X198313227Y-42787840D01*
X194386504Y-42569099D02*
G75*
G03X194386504Y-42569099I-1947435J0D01*
G01*
X195511065Y-41692836D02*
X195420033Y-41159719D01*
X195420033Y-41159719D02*
X195399697Y-41205396D01*
X191172047Y-39268394D02*
X189138364Y-43836121D01*
X189138364Y-43836121D02*
X193706091Y-45869804D01*
X193706091Y-45869804D02*
X195739774Y-41302077D01*
X195739774Y-41302077D02*
X191172047Y-39268394D01*
X187328208Y-40275740D02*
G75*
G03X187328208Y-40275740I-1947434J0D01*
G01*
X188203455Y-38779921D02*
X188003571Y-38277381D01*
X188003571Y-38277381D02*
X187993175Y-38326289D01*
X183455184Y-37310592D02*
X182415626Y-42201330D01*
X182415626Y-42201330D02*
X187306364Y-43240888D01*
X187306364Y-43240888D02*
X188345922Y-38350150D01*
X188345922Y-38350150D02*
X183455184Y-37310592D01*
X200813857Y-103720069D02*
G75*
G03X200813857Y-103720069I-1947435J0D01*
G01*
X198089290Y-106818628D02*
X198596499Y-107006350D01*
X198596499Y-107006350D02*
X198567109Y-106965899D01*
X202358428Y-104273148D02*
X199419501Y-100228063D01*
X199419501Y-100228063D02*
X195374416Y-103166990D01*
X195374416Y-103166990D02*
X198313343Y-107212075D01*
X198313343Y-107212075D02*
X202358428Y-104273148D01*
X210691296Y-57249931D02*
G75*
G03X210691296Y-57249931I-1947434J0D01*
G01*
X211744214Y-58346693D02*
X211983926Y-57861886D01*
X211983926Y-57861886D02*
X211940624Y-57886886D01*
X209658926Y-53834867D02*
X205328798Y-56334867D01*
X205328798Y-56334867D02*
X207828798Y-60664995D01*
X207828798Y-60664995D02*
X212158926Y-58164995D01*
X212158926Y-58164995D02*
X209658926Y-53834867D01*
X179947434Y-39500000D02*
G75*
G03X179947434Y-39500000I-1947434J0D01*
G01*
X180450000Y-37450000D02*
X180150000Y-37000000D01*
X180150000Y-37000000D02*
X180150000Y-37050000D01*
X175500000Y-37000000D02*
X175500000Y-42000000D01*
X175500000Y-42000000D02*
X180500000Y-42000000D01*
X180500000Y-42000000D02*
X180500000Y-37000000D01*
X180500000Y-37000000D02*
X175500000Y-37000000D01*
X172566565Y-40275760D02*
G75*
G03X172566565Y-40275760I-1947434J0D01*
G01*
X172589374Y-37761174D02*
X172202369Y-37383381D01*
X172202369Y-37383381D02*
X172212765Y-37432288D01*
X167653983Y-38350170D02*
X168693541Y-43240908D01*
X168693541Y-43240908D02*
X173584279Y-42201350D01*
X173584279Y-42201350D02*
X172544721Y-37310612D01*
X172544721Y-37310612D02*
X167653983Y-38350170D01*
X181216960Y-43372481D02*
X180935228Y-42864056D01*
X180648662Y-43312751D02*
X180753190Y-42318229D01*
X181132056Y-42358049D01*
X181221795Y-42415363D01*
X181264176Y-42467698D01*
X181301579Y-42567392D01*
X181286646Y-42709467D01*
X181229333Y-42799205D01*
X181176997Y-42841586D01*
X181077303Y-42878989D01*
X180698437Y-42839168D01*
X182164124Y-43472032D02*
X181595825Y-43412302D01*
X181879974Y-43442167D02*
X181984503Y-42447645D01*
X181874854Y-42579764D01*
X181770182Y-42664526D01*
X181670489Y-42701929D01*
X162952113Y-42191199D02*
X162758429Y-41756177D01*
X163671974Y-41349440D01*
X163894864Y-42084212D02*
X163957735Y-42108345D01*
X164039974Y-42175981D01*
X164136816Y-42393493D01*
X164132051Y-42499865D01*
X164107917Y-42562736D01*
X164040281Y-42644975D01*
X163953277Y-42683712D01*
X163803402Y-42698315D01*
X163048955Y-42408709D01*
X163300744Y-42974238D01*
X163494428Y-43409259D02*
X163571902Y-43583268D01*
X163654141Y-43650904D01*
X163717012Y-43675038D01*
X163886255Y-43703937D01*
X164079632Y-43669966D01*
X164427650Y-43515018D01*
X164495285Y-43432779D01*
X164519419Y-43369909D01*
X164524185Y-43263536D01*
X164446711Y-43089527D01*
X164364472Y-43021891D01*
X164301601Y-42997757D01*
X164195228Y-42992992D01*
X163977718Y-43089834D01*
X163910082Y-43172073D01*
X163885947Y-43234944D01*
X163881182Y-43341316D01*
X163958656Y-43515326D01*
X164040895Y-43582961D01*
X164103766Y-43607095D01*
X164210139Y-43611860D01*
X156459609Y-46036785D02*
X156179711Y-45651538D01*
X156988728Y-45063753D01*
X157359516Y-45736126D02*
X157426030Y-45746661D01*
X157520534Y-45795721D01*
X157660483Y-45988344D01*
X157677938Y-46093383D01*
X157667403Y-46159898D01*
X157618344Y-46254402D01*
X157541295Y-46310381D01*
X157397731Y-46355826D01*
X156599558Y-46229408D01*
X156963425Y-46730228D01*
X157761598Y-46856645D02*
X157744143Y-46751606D01*
X157754678Y-46685092D01*
X157803737Y-46590588D01*
X157842262Y-46562598D01*
X157947301Y-46545143D01*
X158013815Y-46555678D01*
X158108319Y-46604738D01*
X158220279Y-46758837D01*
X158237734Y-46863876D01*
X158227199Y-46930390D01*
X158178139Y-47024894D01*
X158139615Y-47052884D01*
X158034576Y-47070339D01*
X157968062Y-47059804D01*
X157873558Y-47010744D01*
X157761598Y-46856645D01*
X157667094Y-46807586D01*
X157600580Y-46797051D01*
X157495540Y-46814507D01*
X157341442Y-46926466D01*
X157292382Y-47020970D01*
X157281847Y-47087484D01*
X157299302Y-47192523D01*
X157411262Y-47346622D01*
X157505766Y-47395681D01*
X157572280Y-47406216D01*
X157677319Y-47388761D01*
X157831417Y-47276802D01*
X157880478Y-47182298D01*
X157891012Y-47115783D01*
X157873558Y-47010744D01*
X150908526Y-51148200D02*
X150554647Y-50829566D01*
X151223778Y-50086422D01*
X151726257Y-50667011D02*
X151793508Y-50663487D01*
X151896147Y-50691825D01*
X152073087Y-50851143D01*
X152111999Y-50950257D01*
X152115524Y-51017508D01*
X152087185Y-51120147D01*
X152023458Y-51190923D01*
X151892480Y-51265223D01*
X151085465Y-51307517D01*
X151545508Y-51721741D01*
X152462353Y-51201639D02*
X152957783Y-51647727D01*
X151970161Y-52104101D01*
X146541470Y-57302057D02*
X146129077Y-57063961D01*
X146629077Y-56197936D01*
X147241287Y-56661367D02*
X147306335Y-56643937D01*
X147412623Y-56650317D01*
X147618821Y-56769365D01*
X147677490Y-56858223D01*
X147694919Y-56923272D01*
X147688540Y-57029560D01*
X147640921Y-57112039D01*
X147528253Y-57211947D01*
X146747666Y-57421104D01*
X147283778Y-57730628D01*
X148526085Y-57293175D02*
X148361127Y-57197936D01*
X148254839Y-57191556D01*
X148189791Y-57208986D01*
X148035883Y-57285085D01*
X147899406Y-57426232D01*
X147708930Y-57756147D01*
X147702550Y-57862435D01*
X147719980Y-57927484D01*
X147778649Y-58016342D01*
X147943607Y-58111581D01*
X148049895Y-58117961D01*
X148114943Y-58100531D01*
X148203802Y-58041862D01*
X148322849Y-57835666D01*
X148329229Y-57729377D01*
X148311800Y-57664328D01*
X148253131Y-57575470D01*
X148088173Y-57480231D01*
X147981885Y-57473851D01*
X147916836Y-57491281D01*
X147827977Y-57549951D01*
X143549304Y-64229398D02*
X143096420Y-64082247D01*
X143405437Y-63131191D01*
X144100621Y-63457209D02*
X144160625Y-63426636D01*
X144265916Y-63410777D01*
X144492359Y-63484353D01*
X144568221Y-63559072D01*
X144598794Y-63619075D01*
X144614652Y-63724367D01*
X144585222Y-63814944D01*
X144495789Y-63936094D01*
X143775746Y-64302974D01*
X144364496Y-64494270D01*
X145533992Y-63822800D02*
X145081108Y-63675649D01*
X144888669Y-64113818D01*
X144948672Y-64083244D01*
X145053964Y-64067386D01*
X145280407Y-64140962D01*
X145356268Y-64215680D01*
X145386842Y-64275684D01*
X145402700Y-64380977D01*
X145329124Y-64607418D01*
X145254406Y-64683280D01*
X145194402Y-64713853D01*
X145089110Y-64729712D01*
X144862668Y-64656136D01*
X144786806Y-64581417D01*
X144756233Y-64521414D01*
X142062801Y-71627467D02*
X141589219Y-71577691D01*
X141693747Y-70583170D01*
X142441523Y-70757527D02*
X142493859Y-70715146D01*
X142593553Y-70677743D01*
X142830344Y-70702631D01*
X142920083Y-70759944D01*
X142962464Y-70812280D01*
X142999867Y-70911973D01*
X142989912Y-71006690D01*
X142927621Y-71143787D01*
X142299592Y-71652355D01*
X142915248Y-71717063D01*
X143837382Y-71143644D02*
X143767696Y-71806659D01*
X143640410Y-70739891D02*
X143328956Y-71425376D01*
X143944613Y-71490084D01*
X142146926Y-79172932D02*
X141673344Y-79222707D01*
X141568815Y-78228185D01*
X142336502Y-78243261D02*
X142378882Y-78190925D01*
X142468621Y-78133612D01*
X142705413Y-78108724D01*
X142805107Y-78146127D01*
X142857442Y-78188508D01*
X142914756Y-78278246D01*
X142924711Y-78372963D01*
X142892285Y-78520015D01*
X142383717Y-79148044D01*
X142999374Y-79083336D01*
X143226352Y-78053971D02*
X143842009Y-77989263D01*
X143550321Y-78402971D01*
X143692397Y-78388038D01*
X143792091Y-78425441D01*
X143844426Y-78467822D01*
X143901740Y-78557562D01*
X143926627Y-78794352D01*
X143889224Y-78894046D01*
X143846844Y-78946382D01*
X143757105Y-79003695D01*
X143472955Y-79033560D01*
X143373261Y-78996157D01*
X143320926Y-78953777D01*
X143798004Y-86536020D02*
X143345120Y-86683171D01*
X143036103Y-85732114D01*
X143790147Y-85587249D02*
X143820721Y-85527246D01*
X143896582Y-85452527D01*
X144123025Y-85378952D01*
X144228317Y-85394810D01*
X144288320Y-85425383D01*
X144363039Y-85501245D01*
X144392469Y-85591822D01*
X144391326Y-85742402D01*
X144024446Y-86462444D01*
X144613196Y-86271148D01*
X144695916Y-85292947D02*
X144726489Y-85232944D01*
X144802350Y-85158225D01*
X145028793Y-85084650D01*
X145134085Y-85100508D01*
X145194088Y-85131081D01*
X145268807Y-85206943D01*
X145298237Y-85297520D01*
X145297094Y-85448100D01*
X144930214Y-86168142D01*
X145518964Y-85976846D01*
X146943875Y-93394928D02*
X146531482Y-93633023D01*
X146031482Y-92766998D01*
X146738930Y-92468524D02*
X146756359Y-92403475D01*
X146815028Y-92314617D01*
X147021226Y-92195569D01*
X147127514Y-92189189D01*
X147192562Y-92206619D01*
X147281421Y-92265288D01*
X147329040Y-92347767D01*
X147359229Y-92495294D01*
X147150071Y-93275880D01*
X147686183Y-92966356D01*
X148510969Y-92490166D02*
X148016097Y-92775880D01*
X148263532Y-92633023D02*
X147763532Y-91766998D01*
X147752482Y-91938335D01*
X147717623Y-92068432D01*
X147658954Y-92157291D01*
X151447049Y-99449888D02*
X151093170Y-99768522D01*
X150424040Y-99025377D01*
X151053972Y-98586339D02*
X151057497Y-98519088D01*
X151096409Y-98419973D01*
X151273349Y-98260656D01*
X151375988Y-98232317D01*
X151443239Y-98235841D01*
X151542353Y-98274754D01*
X151606080Y-98345529D01*
X151666282Y-98483556D01*
X151623988Y-99290571D01*
X152084031Y-98876347D01*
X151874941Y-97718979D02*
X151945718Y-97655252D01*
X152048357Y-97626913D01*
X152115608Y-97630437D01*
X152214722Y-97669350D01*
X152377564Y-97779038D01*
X152536881Y-97955977D01*
X152628946Y-98129392D01*
X152657285Y-98232031D01*
X152653761Y-98299282D01*
X152614848Y-98398397D01*
X152544072Y-98462124D01*
X152441433Y-98490463D01*
X152374182Y-98486938D01*
X152275068Y-98448026D01*
X152112226Y-98338338D01*
X151952909Y-98161398D01*
X151860844Y-97987984D01*
X151832505Y-97885345D01*
X151836029Y-97818094D01*
X151874941Y-97718979D01*
X157110714Y-104436270D02*
X156830816Y-104821517D01*
X156021799Y-104233731D01*
X157614530Y-103742827D02*
X157278653Y-104205123D01*
X157446591Y-103973975D02*
X156637574Y-103386190D01*
X156697168Y-103547208D01*
X156718238Y-103680237D01*
X156700783Y-103785276D01*
X157894428Y-103357581D02*
X158006387Y-103203483D01*
X158023842Y-103098443D01*
X158013307Y-103031929D01*
X157953713Y-102870910D01*
X157827604Y-102720427D01*
X157519407Y-102496508D01*
X157414368Y-102479053D01*
X157347854Y-102489588D01*
X157253350Y-102538648D01*
X157141390Y-102692747D01*
X157123935Y-102797786D01*
X157134470Y-102864300D01*
X157183529Y-102958804D01*
X157376152Y-103098753D01*
X157481191Y-103116208D01*
X157547706Y-103105673D01*
X157642210Y-103056614D01*
X157754170Y-102902515D01*
X157771625Y-102797476D01*
X157761089Y-102730961D01*
X157712030Y-102636457D01*
X163687344Y-108136145D02*
X163493660Y-108571167D01*
X162580114Y-108164431D01*
X164035976Y-107353106D02*
X163803554Y-107875132D01*
X163919765Y-107614120D02*
X163006219Y-107207383D01*
X163097989Y-107352492D01*
X163146256Y-107478233D01*
X163151022Y-107584606D01*
X163746370Y-106598659D02*
X163664131Y-106666295D01*
X163601260Y-106690429D01*
X163494888Y-106695194D01*
X163451386Y-106675826D01*
X163383750Y-106593587D01*
X163359616Y-106530716D01*
X163354851Y-106424344D01*
X163432325Y-106250334D01*
X163514564Y-106182699D01*
X163577434Y-106158565D01*
X163683807Y-106153800D01*
X163727309Y-106173168D01*
X163794945Y-106255407D01*
X163819079Y-106318277D01*
X163823844Y-106424650D01*
X163746370Y-106598659D01*
X163751135Y-106705032D01*
X163775269Y-106767903D01*
X163842906Y-106850142D01*
X164016914Y-106927615D01*
X164123287Y-106922850D01*
X164186157Y-106898716D01*
X164268396Y-106831080D01*
X164345870Y-106657071D01*
X164341105Y-106550698D01*
X164316971Y-106487828D01*
X164249335Y-106405589D01*
X164075327Y-106328115D01*
X163968953Y-106332880D01*
X163906083Y-106357014D01*
X163823844Y-106424650D01*
X170889504Y-110387810D02*
X170790498Y-110853595D01*
X169812351Y-110645684D01*
X171067714Y-109549398D02*
X170948907Y-110108340D01*
X171008310Y-109828869D02*
X170030163Y-109620958D01*
X170150097Y-109743816D01*
X170223453Y-109856774D01*
X170250230Y-109959831D01*
X170158870Y-109015437D02*
X170297478Y-108363339D01*
X171186521Y-108990457D01*
X178402428Y-111092856D02*
X178402428Y-111569047D01*
X177402428Y-111569047D01*
X178402428Y-110235713D02*
X178402428Y-110807142D01*
X178402428Y-110521428D02*
X177402428Y-110521428D01*
X177545285Y-110616666D01*
X177640523Y-110711904D01*
X177688142Y-110807142D01*
X177402428Y-109378570D02*
X177402428Y-109569047D01*
X177450047Y-109664285D01*
X177497666Y-109711904D01*
X177640523Y-109807142D01*
X177830999Y-109854761D01*
X178211952Y-109854761D01*
X178307190Y-109807142D01*
X178354809Y-109759523D01*
X178402428Y-109664285D01*
X178402428Y-109473808D01*
X178354809Y-109378570D01*
X178307190Y-109330951D01*
X178211952Y-109283332D01*
X177973857Y-109283332D01*
X177878618Y-109330951D01*
X177830999Y-109378570D01*
X177783380Y-109473808D01*
X177783380Y-109664285D01*
X177830999Y-109759523D01*
X177878618Y-109807142D01*
X177973857Y-109854761D01*
X184745458Y-109150963D02*
X184646452Y-108685178D01*
X185624600Y-108477266D01*
X184923668Y-109989376D02*
X184804861Y-109430434D01*
X184864265Y-109709904D02*
X185842412Y-109501993D01*
X185682876Y-109438537D01*
X185569918Y-109365182D01*
X185503539Y-109281925D01*
X186089926Y-110666455D02*
X185990921Y-110200670D01*
X185515236Y-110253097D01*
X185571715Y-110289775D01*
X185638095Y-110373031D01*
X185687597Y-110605924D01*
X185660820Y-110708981D01*
X185624142Y-110765460D01*
X185540885Y-110831840D01*
X185307993Y-110881343D01*
X185204936Y-110854565D01*
X185148457Y-110817887D01*
X185082077Y-110734631D01*
X185032574Y-110501738D01*
X185059352Y-110398681D01*
X185096029Y-110342202D01*
X191698442Y-107002222D02*
X191504758Y-106567200D01*
X192418303Y-106160463D01*
X192047073Y-107785261D02*
X191814652Y-107263235D01*
X191930863Y-107524247D02*
X192844408Y-107117511D01*
X192675165Y-107088612D01*
X192549424Y-107040344D01*
X192467185Y-106972708D01*
X193004735Y-108297142D02*
X192395705Y-108568300D01*
X193255910Y-107924683D02*
X192506535Y-107997699D01*
X192758325Y-108563228D01*
X203530629Y-98663821D02*
X203176750Y-98345187D01*
X203845881Y-97602043D01*
X204167611Y-99237362D02*
X203742956Y-98855001D01*
X203955283Y-99046181D02*
X204624414Y-98303036D01*
X204458048Y-98345473D01*
X204323546Y-98352522D01*
X204220907Y-98324183D01*
X205056117Y-98819899D02*
X205123368Y-98816375D01*
X205226007Y-98844714D01*
X205402947Y-99004031D01*
X205441859Y-99103146D01*
X205445384Y-99170397D01*
X205417045Y-99273036D01*
X205353318Y-99343811D01*
X205222340Y-99418111D01*
X204415325Y-99460405D01*
X204875368Y-99874629D01*
X207892711Y-92838590D02*
X207480318Y-92600494D01*
X207980318Y-91734469D01*
X208635019Y-93267161D02*
X208140147Y-92981447D01*
X208387582Y-93124304D02*
X208887582Y-92258279D01*
X208733675Y-92334377D01*
X208603578Y-92369237D01*
X208497290Y-92362857D01*
X209459805Y-93743352D02*
X208964933Y-93457637D01*
X209212368Y-93600494D02*
X209712368Y-92734469D01*
X209558461Y-92810568D01*
X209428364Y-92845427D01*
X209322076Y-92839048D01*
X210948336Y-86233727D02*
X210495452Y-86086576D01*
X210804469Y-85135520D01*
X211763528Y-86498599D02*
X211220066Y-86322018D01*
X211491797Y-86410308D02*
X211800814Y-85459252D01*
X211666092Y-85565687D01*
X211546085Y-85626833D01*
X211440793Y-85642691D01*
X212661293Y-85738838D02*
X212751871Y-85768269D01*
X212827733Y-85842987D01*
X212858306Y-85902991D01*
X212874164Y-86008283D01*
X212860592Y-86204151D01*
X212787016Y-86430594D01*
X212682868Y-86597032D01*
X212608149Y-86672894D01*
X212548146Y-86703467D01*
X212442854Y-86719325D01*
X212352276Y-86689895D01*
X212276415Y-86615176D01*
X212245841Y-86555173D01*
X212229983Y-86449881D01*
X212243555Y-86254013D01*
X212317131Y-86027570D01*
X212421280Y-85861132D01*
X212495998Y-85785270D01*
X212556002Y-85754697D01*
X212661293Y-85738838D01*
X213037541Y-79187671D02*
X212563959Y-79137896D01*
X212668487Y-78143374D01*
X213416406Y-79227492D02*
X213605839Y-79247402D01*
X213705534Y-79209999D01*
X213757869Y-79167618D01*
X213867518Y-79035499D01*
X213934787Y-78851044D01*
X213974607Y-78472178D01*
X213937204Y-78372484D01*
X213894823Y-78320148D01*
X213805085Y-78262835D01*
X213615651Y-78242925D01*
X213515957Y-78280328D01*
X213463622Y-78322709D01*
X213406308Y-78412447D01*
X213381421Y-78649238D01*
X213418824Y-78748932D01*
X213461204Y-78801269D01*
X213550943Y-78858582D01*
X213740377Y-78878492D01*
X213840070Y-78841089D01*
X213892406Y-78798707D01*
X213949719Y-78708969D01*
X213142553Y-71811443D02*
X212668970Y-71861219D01*
X212564442Y-70866697D01*
X213556403Y-71193369D02*
X213456710Y-71155966D01*
X213404374Y-71113585D01*
X213347061Y-71023847D01*
X213342083Y-70976489D01*
X213379486Y-70876795D01*
X213421867Y-70824459D01*
X213511606Y-70767146D01*
X213701039Y-70747236D01*
X213800733Y-70784639D01*
X213853069Y-70827019D01*
X213910382Y-70916758D01*
X213915359Y-70964116D01*
X213877956Y-71063810D01*
X213835576Y-71116146D01*
X213745837Y-71173459D01*
X213556403Y-71193369D01*
X213466665Y-71250682D01*
X213424284Y-71303018D01*
X213386881Y-71402713D01*
X213406791Y-71592145D01*
X213464105Y-71681884D01*
X213516440Y-71724265D01*
X213616134Y-71761668D01*
X213805568Y-71741757D01*
X213895306Y-71684444D01*
X213937687Y-71632109D01*
X213975090Y-71532415D01*
X213955180Y-71342982D01*
X213897867Y-71253242D01*
X213845531Y-71210862D01*
X213745837Y-71173459D01*
X211711665Y-64574570D02*
X211258780Y-64721721D01*
X210949763Y-63770664D01*
X211629089Y-63549938D02*
X212263127Y-63343926D01*
X212164548Y-64427419D01*
X204556729Y-51764121D02*
X204202850Y-52082755D01*
X203533720Y-51339610D01*
X204489192Y-50479299D02*
X204135313Y-50797933D01*
X204418559Y-51183674D01*
X204422083Y-51116423D01*
X204460995Y-51017309D01*
X204637935Y-50857991D01*
X204740574Y-50829652D01*
X204807825Y-50833177D01*
X204906940Y-50872090D01*
X205066257Y-51049029D01*
X205094596Y-51151668D01*
X205091071Y-51218919D01*
X205052159Y-51318034D01*
X204875219Y-51477351D01*
X204772580Y-51505690D01*
X204705329Y-51502165D01*
X199145388Y-46750425D02*
X198865490Y-47135671D01*
X198056473Y-46547886D01*
X199053880Y-45742173D02*
X199593225Y-46134030D01*
X198605734Y-45710879D02*
X199043655Y-46323349D01*
X199407522Y-45822528D01*
X192809890Y-42971370D02*
X192616206Y-43406392D01*
X191702661Y-42999655D01*
X191993187Y-42347123D02*
X192244976Y-41781594D01*
X192457414Y-42241057D01*
X192515520Y-42110550D01*
X192597759Y-42042914D01*
X192660629Y-42018780D01*
X192767003Y-42014015D01*
X192984513Y-42110857D01*
X193052149Y-42193096D01*
X193076283Y-42255967D01*
X193081048Y-42362339D01*
X192964838Y-42623353D01*
X192882599Y-42690989D01*
X192819728Y-42715123D01*
X185827130Y-40592122D02*
X185728124Y-41057907D01*
X184749976Y-40849996D01*
X185001542Y-40124541D02*
X184964864Y-40068062D01*
X184938087Y-39965005D01*
X184987590Y-39732112D01*
X185053969Y-39648856D01*
X185110448Y-39612178D01*
X185213506Y-39585400D01*
X185306662Y-39605201D01*
X185436497Y-39681482D01*
X185876632Y-40359230D01*
X186005340Y-39753710D01*
X198052736Y-103454828D02*
X197772838Y-103069581D01*
X198581855Y-102481796D01*
X198556552Y-104148271D02*
X198220675Y-103685975D01*
X198388613Y-103917123D02*
X199197630Y-103329337D01*
X199026077Y-103336257D01*
X198893048Y-103315188D01*
X198798544Y-103266128D01*
X199561497Y-103830158D02*
X199925365Y-104330978D01*
X199421239Y-104285223D01*
X199505209Y-104400798D01*
X199522664Y-104505837D01*
X199512129Y-104572351D01*
X199463069Y-104666856D01*
X199270446Y-104806804D01*
X199165407Y-104824259D01*
X199098893Y-104813724D01*
X199004389Y-104764665D01*
X198836450Y-104533517D01*
X198818995Y-104428478D01*
X198829530Y-104361963D01*
X208807415Y-57793338D02*
X208395021Y-58031434D01*
X207895021Y-57165409D01*
X208967244Y-56546361D02*
X208802286Y-56641599D01*
X208743617Y-56730457D01*
X208726187Y-56795506D01*
X208715137Y-56966843D01*
X208769136Y-57155609D01*
X208959612Y-57485524D01*
X209048470Y-57544193D01*
X209113519Y-57561623D01*
X209219807Y-57555243D01*
X209384765Y-57460005D01*
X209443434Y-57371147D01*
X209460864Y-57306098D01*
X209454484Y-57199810D01*
X209335437Y-56993614D01*
X209246578Y-56934944D01*
X209181529Y-56917514D01*
X209075241Y-56923894D01*
X208910283Y-57019132D01*
X208851614Y-57107990D01*
X208834184Y-57173039D01*
X208840565Y-57279328D01*
X178502381Y-39716666D02*
X178502381Y-40192857D01*
X177502381Y-40192857D01*
X178502381Y-38859523D02*
X178502381Y-39430952D01*
X178502381Y-39145238D02*
X177502381Y-39145238D01*
X177645238Y-39240476D01*
X177740476Y-39335714D01*
X177788095Y-39430952D01*
X170102281Y-39779518D02*
X170003275Y-39313733D01*
X170981423Y-39105821D01*
X171129931Y-39804499D02*
X171258639Y-40410019D01*
X170816707Y-40163173D01*
X170846409Y-40302910D01*
X170819632Y-40405967D01*
X170782954Y-40462446D01*
X170699697Y-40528826D01*
X170466805Y-40578328D01*
X170363747Y-40551551D01*
X170307268Y-40514873D01*
X170240889Y-40431617D01*
X170181485Y-40152146D01*
X170208263Y-40049088D01*
X170244941Y-39992609D01*
X171387346Y-41015538D02*
X171407147Y-41108696D01*
X171380370Y-41211753D01*
X171343692Y-41268232D01*
X171260436Y-41334612D01*
X171084023Y-41420793D01*
X170851130Y-41470295D01*
X170654915Y-41463319D01*
X170551858Y-41436542D01*
X170495379Y-41399864D01*
X170429000Y-41316608D01*
X170409198Y-41223450D01*
X170435976Y-41120393D01*
X170472653Y-41063914D01*
X170555910Y-40997534D01*
X170732323Y-40911354D01*
X170965216Y-40861851D01*
X171161430Y-40868827D01*
X171264487Y-40895604D01*
X171320966Y-40932282D01*
X171387346Y-41015538D01*
M02*
