M48
;DRILL file {KiCad 4.0.1-stable} date 2/4/2016 5:34:31 PM
;FORMAT={-:-/ absolute / inch / decimal}
FMAT,2
INCH,TZ
T1C0.024
T2C0.030
%
G90
G05
M72
T1
X5.5839Y-3.0409
X5.5953Y-2.7457
X5.6079Y-2.8736
X5.6264Y-3.1665
X5.6331Y-3.3374
X5.6496Y-3.0551
X5.6583Y-2.5846
X5.6591Y-2.772
X5.6705Y-2.4559
X5.6976Y-3.4496
X5.7055Y-3.3378
X5.724Y-2.4913
X5.7425Y-3.6118
X5.7622Y-2.3094
X5.8031Y-2.189
X5.8185Y-3.6016
X5.8287Y-3.7102
X5.8496Y-2.2366
X5.9102Y-3.8559
X5.9256Y-2.065
X5.9846Y-3.8358
X5.989Y-1.9535
X6.013Y-3.9394
X6.024Y-2.0154
X6.1201Y-4.0697
X6.1343Y-1.8606
X6.1882Y-4.0303
X6.2193Y-1.7634
X6.235Y-4.1295
X6.2417Y-1.8272
X6.3713Y-4.2287
X6.3807Y-1.7016
X6.428Y-4.176
X6.4882Y-1.6256
X6.4937Y-1.6882
X6.5Y-4.2606
X6.6528Y-4.3327
X6.6535Y-1.5984
X6.6961Y-4.2705
X6.7744Y-1.5449
X6.7846Y-4.3374
X6.9409Y-1.565
X6.9472Y-4.3776
X6.9791Y-4.3031
X7.0472Y-1.5921
X7.0728Y-1.5256
X7.0764Y-4.3516
X7.2327Y-1.5713
X7.2465Y-4.3614
X7.2591Y-4.2839
X7.3319Y-1.628
X7.3614Y-1.5697
X7.3646Y-4.302
X7.515Y-1.65
X7.5295Y-4.2008
X7.5343Y-4.2807
X7.5854Y-1.7295
X7.6374Y-4.1988
X7.6425Y-1.6783
X7.7744Y-1.7835
X7.7776Y-4.0665
X7.8016Y-4.1409
X7.8295Y-1.8752
X7.8839Y-4.0437
X7.8953Y-1.8386
X7.9921Y-3.8815
X8.0039Y-1.965
X8.0311Y-3.952
X8.0358Y-2.072
X8.0925Y-3.839
X8.1039Y-2.0504
X8.1634Y-3.6551
X8.1854Y-2.1945
X8.1961Y-2.3031
X8.2102Y-3.7161
X8.2531Y-3.5937
X8.2689Y-2.2976
X8.2846Y-3.4008
X8.3047Y-2.5642
X8.3173Y-2.4571
X8.3425Y-3.4512
X8.3496Y-3.1232
X8.3559Y-2.8433
X8.3594Y-3.3224
X8.3799Y-2.572
X8.3909Y-2.739
X8.4059Y-3.0331
X8.4161Y-3.1614
X8.4256Y-2.8657
T2
X5.511Y-2.9547
X5.5374Y-2.6402
X6.8508Y-1.4543
X7.1654Y-1.4496
X8.4772Y-3.2654
X8.5118Y-2.9539
T0
M30
