G04 #@! TF.FileFunction,Soldermask,Top*
%FSLAX46Y46*%
G04 Gerber Fmt 4.6, Leading zero omitted, Abs format (unit mm)*
G04 Created by KiCad (PCBNEW 4.0.1-stable) date 2/4/2016 5:34:24 PM*
%MOMM*%
G01*
G04 APERTURE LIST*
%ADD10C,0.100000*%
%ADD11R,1.600000X1.150000*%
%ADD12C,1.924000*%
%ADD13R,1.300000X1.900000*%
G04 APERTURE END LIST*
D10*
G36*
X202950988Y-101851469D02*
X202096371Y-102620969D01*
X201025762Y-101431937D01*
X201880379Y-100662437D01*
X202950988Y-101851469D01*
X202950988Y-101851469D01*
G37*
G36*
X201679640Y-100439493D02*
X200825023Y-101208993D01*
X199754414Y-100019961D01*
X200609031Y-99250461D01*
X201679640Y-100439493D01*
X201679640Y-100439493D01*
G37*
G36*
X188778530Y-39966065D02*
X189872245Y-40321435D01*
X189377818Y-41843125D01*
X188284103Y-41487755D01*
X188778530Y-39966065D01*
X188778530Y-39966065D01*
G37*
G36*
X188191398Y-41773073D02*
X189285113Y-42128443D01*
X188790686Y-43650133D01*
X187696971Y-43294763D01*
X188191398Y-41773073D01*
X188191398Y-41773073D01*
G37*
G36*
X195826960Y-42972626D02*
X196822890Y-43547626D01*
X196022890Y-44933266D01*
X195026960Y-44358266D01*
X195826960Y-42972626D01*
X195826960Y-42972626D01*
G37*
G36*
X194876960Y-44618074D02*
X195872890Y-45193074D01*
X195072890Y-46578714D01*
X194076960Y-46003714D01*
X194876960Y-44618074D01*
X194876960Y-44618074D01*
G37*
G36*
X202096266Y-47378936D02*
X202950883Y-48148436D01*
X201880274Y-49337468D01*
X201025657Y-48567968D01*
X202096266Y-47378936D01*
X202096266Y-47378936D01*
G37*
G36*
X200824918Y-48790912D02*
X201679535Y-49560412D01*
X200608926Y-50749444D01*
X199754309Y-49979944D01*
X200824918Y-48790912D01*
X200824918Y-48790912D01*
G37*
G36*
X207312449Y-52992421D02*
X207988402Y-53922791D01*
X206693975Y-54863247D01*
X206018022Y-53932877D01*
X207312449Y-52992421D01*
X207312449Y-52992421D01*
G37*
G36*
X205775317Y-54109213D02*
X206451270Y-55039583D01*
X205156843Y-55980039D01*
X204480890Y-55049669D01*
X205775317Y-54109213D01*
X205775317Y-54109213D01*
G37*
G36*
X211247536Y-59567743D02*
X211715283Y-60618320D01*
X210253610Y-61269099D01*
X209785863Y-60218522D01*
X211247536Y-59567743D01*
X211247536Y-59567743D01*
G37*
G36*
X209511800Y-60340543D02*
X209979547Y-61391120D01*
X208517874Y-62041899D01*
X208050127Y-60991322D01*
X209511800Y-60340543D01*
X209511800Y-60340543D01*
G37*
G36*
X213729544Y-66817529D02*
X213968642Y-67942399D01*
X212403606Y-68275057D01*
X212164508Y-67150187D01*
X213729544Y-66817529D01*
X213729544Y-66817529D01*
G37*
G36*
X211871064Y-67212561D02*
X212110162Y-68337431D01*
X210545126Y-68670089D01*
X210306028Y-67545219D01*
X211871064Y-67212561D01*
X211871064Y-67212561D01*
G37*
D11*
X213849999Y-74999929D03*
X211949999Y-74999929D03*
D10*
G36*
X213968672Y-82057462D02*
X213729574Y-83182332D01*
X212164538Y-82849674D01*
X212403636Y-81724804D01*
X213968672Y-82057462D01*
X213968672Y-82057462D01*
G37*
G36*
X212110192Y-81662430D02*
X211871094Y-82787300D01*
X210306058Y-82454642D01*
X210545156Y-81329772D01*
X212110192Y-81662430D01*
X212110192Y-81662430D01*
G37*
G36*
X211715340Y-89381551D02*
X211247593Y-90432128D01*
X209785920Y-89781349D01*
X210253667Y-88730772D01*
X211715340Y-89381551D01*
X211715340Y-89381551D01*
G37*
G36*
X209979604Y-88608751D02*
X209511857Y-89659328D01*
X208050184Y-89008549D01*
X208517931Y-87957972D01*
X209979604Y-88608751D01*
X209979604Y-88608751D01*
G37*
G36*
X207988485Y-96077094D02*
X207312532Y-97007464D01*
X206018105Y-96067008D01*
X206694058Y-95136638D01*
X207988485Y-96077094D01*
X207988485Y-96077094D01*
G37*
G36*
X206451353Y-94960302D02*
X205775400Y-95890672D01*
X204480973Y-94950216D01*
X205156926Y-94019846D01*
X206451353Y-94960302D01*
X206451353Y-94960302D01*
G37*
G36*
X196823012Y-106452303D02*
X195827082Y-107027303D01*
X195027082Y-105641663D01*
X196023012Y-105066663D01*
X196823012Y-106452303D01*
X196823012Y-106452303D01*
G37*
G36*
X195873012Y-104806855D02*
X194877082Y-105381855D01*
X194077082Y-103996215D01*
X195073012Y-103421215D01*
X195873012Y-104806855D01*
X195873012Y-104806855D01*
G37*
G36*
X189872379Y-109678520D02*
X188778664Y-110033890D01*
X188284237Y-108512200D01*
X189377952Y-108156830D01*
X189872379Y-109678520D01*
X189872379Y-109678520D01*
G37*
G36*
X189285247Y-107871512D02*
X188191532Y-108226882D01*
X187697105Y-106705192D01*
X188790820Y-106349822D01*
X189285247Y-107871512D01*
X189285247Y-107871512D01*
G37*
G36*
X182402866Y-111389119D02*
X181259166Y-111509326D01*
X181091920Y-109918091D01*
X182235620Y-109797884D01*
X182402866Y-111389119D01*
X182402866Y-111389119D01*
G37*
G36*
X182204262Y-109499527D02*
X181060562Y-109619734D01*
X180893316Y-108028499D01*
X182037016Y-107908292D01*
X182204262Y-109499527D01*
X182204262Y-109499527D01*
G37*
G36*
X174740926Y-111509335D02*
X173597226Y-111389128D01*
X173764472Y-109797893D01*
X174908172Y-109918100D01*
X174740926Y-111509335D01*
X174740926Y-111509335D01*
G37*
G36*
X174939530Y-109619743D02*
X173795830Y-109499536D01*
X173963076Y-107908301D01*
X175106776Y-108028508D01*
X174939530Y-109619743D01*
X174939530Y-109619743D01*
G37*
G36*
X167221425Y-110033919D02*
X166127710Y-109678549D01*
X166622137Y-108156859D01*
X167715852Y-108512229D01*
X167221425Y-110033919D01*
X167221425Y-110033919D01*
G37*
G36*
X167808557Y-108226911D02*
X166714842Y-107871541D01*
X167209269Y-106349851D01*
X168302984Y-106705221D01*
X167808557Y-108226911D01*
X167808557Y-108226911D01*
G37*
G36*
X160172998Y-107027350D02*
X159177068Y-106452350D01*
X159977068Y-105066710D01*
X160972998Y-105641710D01*
X160172998Y-107027350D01*
X160172998Y-107027350D01*
G37*
G36*
X161122998Y-105381902D02*
X160127068Y-104806902D01*
X160927068Y-103421262D01*
X161922998Y-103996262D01*
X161122998Y-105381902D01*
X161122998Y-105381902D01*
G37*
G36*
X153903698Y-102621032D02*
X153049081Y-101851532D01*
X154119690Y-100662500D01*
X154974307Y-101432000D01*
X153903698Y-102621032D01*
X153903698Y-102621032D01*
G37*
G36*
X155175046Y-101209056D02*
X154320429Y-100439556D01*
X155391038Y-99250524D01*
X156245655Y-100020024D01*
X155175046Y-101209056D01*
X155175046Y-101209056D01*
G37*
G36*
X148687523Y-97007540D02*
X148011570Y-96077170D01*
X149305997Y-95136714D01*
X149981950Y-96067084D01*
X148687523Y-97007540D01*
X148687523Y-97007540D01*
G37*
G36*
X150224655Y-95890748D02*
X149548702Y-94960378D01*
X150843129Y-94019922D01*
X151519082Y-94950292D01*
X150224655Y-95890748D01*
X150224655Y-95890748D01*
G37*
G36*
X144752444Y-90432214D02*
X144284697Y-89381637D01*
X145746370Y-88730858D01*
X146214117Y-89781435D01*
X144752444Y-90432214D01*
X144752444Y-90432214D01*
G37*
G36*
X146488180Y-89659414D02*
X146020433Y-88608837D01*
X147482106Y-87958058D01*
X147949853Y-89008635D01*
X146488180Y-89659414D01*
X146488180Y-89659414D01*
G37*
G36*
X142270445Y-83182424D02*
X142031347Y-82057554D01*
X143596383Y-81724896D01*
X143835481Y-82849766D01*
X142270445Y-83182424D01*
X142270445Y-83182424D01*
G37*
G36*
X144128925Y-82787392D02*
X143889827Y-81662522D01*
X145454863Y-81329864D01*
X145693961Y-82454734D01*
X144128925Y-82787392D01*
X144128925Y-82787392D01*
G37*
D11*
X142150000Y-75000023D03*
X144050000Y-75000023D03*
D10*
G36*
X142031337Y-67942491D02*
X142270435Y-66817621D01*
X143835471Y-67150279D01*
X143596373Y-68275149D01*
X142031337Y-67942491D01*
X142031337Y-67942491D01*
G37*
G36*
X143889817Y-68337523D02*
X144128915Y-67212653D01*
X145693951Y-67545311D01*
X145454853Y-68670181D01*
X143889817Y-68337523D01*
X143889817Y-68337523D01*
G37*
G36*
X144284678Y-60618405D02*
X144752425Y-59567828D01*
X146214098Y-60218607D01*
X145746351Y-61269184D01*
X144284678Y-60618405D01*
X144284678Y-60618405D01*
G37*
G36*
X146020414Y-61391205D02*
X146488161Y-60340628D01*
X147949834Y-60991407D01*
X147482087Y-62041984D01*
X146020414Y-61391205D01*
X146020414Y-61391205D01*
G37*
G36*
X148011542Y-53922867D02*
X148687495Y-52992497D01*
X149981922Y-53932953D01*
X149305969Y-54863323D01*
X148011542Y-53922867D01*
X148011542Y-53922867D01*
G37*
G36*
X149548674Y-55039659D02*
X150224627Y-54109289D01*
X151519054Y-55049745D01*
X150843101Y-55980115D01*
X149548674Y-55039659D01*
X149548674Y-55039659D01*
G37*
G36*
X153049046Y-48148498D02*
X153903663Y-47378998D01*
X154974272Y-48568030D01*
X154119655Y-49337530D01*
X153049046Y-48148498D01*
X153049046Y-48148498D01*
G37*
G36*
X154320394Y-49560474D02*
X155175011Y-48790974D01*
X156245620Y-49980006D01*
X155391003Y-50749506D01*
X154320394Y-49560474D01*
X154320394Y-49560474D01*
G37*
G36*
X159177028Y-43547673D02*
X160172958Y-42972673D01*
X160972958Y-44358313D01*
X159977028Y-44933313D01*
X159177028Y-43547673D01*
X159177028Y-43547673D01*
G37*
G36*
X160127028Y-45193121D02*
X161122958Y-44618121D01*
X161922958Y-46003761D01*
X160927028Y-46578761D01*
X160127028Y-45193121D01*
X160127028Y-45193121D01*
G37*
G36*
X166127665Y-40321465D02*
X167221380Y-39966095D01*
X167715807Y-41487785D01*
X166622092Y-41843155D01*
X166127665Y-40321465D01*
X166127665Y-40321465D01*
G37*
G36*
X166714797Y-42128473D02*
X167808512Y-41773103D01*
X168302939Y-43294793D01*
X167209224Y-43650163D01*
X166714797Y-42128473D01*
X166714797Y-42128473D01*
G37*
G36*
X173597180Y-38610876D02*
X174740880Y-38490669D01*
X174908126Y-40081904D01*
X173764426Y-40202111D01*
X173597180Y-38610876D01*
X173597180Y-38610876D01*
G37*
G36*
X173795784Y-40500468D02*
X174939484Y-40380261D01*
X175106730Y-41971496D01*
X173963030Y-42091703D01*
X173795784Y-40500468D01*
X173795784Y-40500468D01*
G37*
D12*
X140650000Y-67060000D03*
X182000000Y-36820000D03*
X139980000Y-75050000D03*
X216200000Y-75030000D03*
X215320000Y-82940000D03*
X174010000Y-36940000D03*
D10*
G36*
X182117835Y-42077535D02*
X180824957Y-41941648D01*
X180992203Y-40350413D01*
X182285081Y-40486300D01*
X182117835Y-42077535D01*
X182117835Y-42077535D01*
G37*
G36*
X182347797Y-39889587D02*
X181054919Y-39753700D01*
X181222165Y-38162465D01*
X182515043Y-38298352D01*
X182347797Y-39889587D01*
X182347797Y-39889587D01*
G37*
G36*
X162037192Y-41605556D02*
X160849583Y-42134314D01*
X160076784Y-40398578D01*
X161264393Y-39869820D01*
X162037192Y-41605556D01*
X162037192Y-41605556D01*
G37*
G36*
X165051892Y-40263325D02*
X163864283Y-40792083D01*
X163091484Y-39056347D01*
X164279093Y-38527589D01*
X165051892Y-40263325D01*
X165051892Y-40263325D01*
G37*
G36*
X164030202Y-46081929D02*
X162842593Y-46610687D01*
X162069794Y-44874951D01*
X163257403Y-44346193D01*
X164030202Y-46081929D01*
X164030202Y-46081929D01*
G37*
G36*
X167044902Y-44739698D02*
X165857293Y-45268456D01*
X165084494Y-43532720D01*
X166272103Y-43003962D01*
X167044902Y-44739698D01*
X167044902Y-44739698D01*
G37*
G36*
X155442920Y-45654162D02*
X154391198Y-46418283D01*
X153274406Y-44881150D01*
X154326128Y-44117029D01*
X155442920Y-45654162D01*
X155442920Y-45654162D01*
G37*
G36*
X158112676Y-43714471D02*
X157060954Y-44478592D01*
X155944162Y-42941459D01*
X156995884Y-42177338D01*
X158112676Y-43714471D01*
X158112676Y-43714471D01*
G37*
G36*
X158323068Y-49618345D02*
X157271346Y-50382466D01*
X156154554Y-48845333D01*
X157206276Y-48081212D01*
X158323068Y-49618345D01*
X158323068Y-49618345D01*
G37*
G36*
X160992824Y-47678654D02*
X159941102Y-48442775D01*
X158824310Y-46905642D01*
X159876032Y-46141521D01*
X160992824Y-47678654D01*
X160992824Y-47678654D01*
G37*
G36*
X149834502Y-50985321D02*
X148964633Y-51951409D01*
X147552658Y-50680061D01*
X148422527Y-49713973D01*
X149834502Y-50985321D01*
X149834502Y-50985321D01*
G37*
G36*
X152042633Y-48532943D02*
X151172764Y-49499031D01*
X149760789Y-48227683D01*
X150630658Y-47261595D01*
X152042633Y-48532943D01*
X152042633Y-48532943D01*
G37*
G36*
X153475911Y-54264061D02*
X152606042Y-55230149D01*
X151194067Y-53958801D01*
X152063936Y-52992713D01*
X153475911Y-54264061D01*
X153475911Y-54264061D01*
G37*
G36*
X155684042Y-51811683D02*
X154814173Y-52777771D01*
X153402198Y-51506423D01*
X154272067Y-50540335D01*
X155684042Y-51811683D01*
X155684042Y-51811683D01*
G37*
G36*
X145457052Y-57366038D02*
X144807052Y-58491872D01*
X143161604Y-57541872D01*
X143811604Y-56416038D01*
X145457052Y-57366038D01*
X145457052Y-57366038D01*
G37*
G36*
X147107052Y-54508154D02*
X146457052Y-55633988D01*
X144811604Y-54683988D01*
X145461604Y-53558154D01*
X147107052Y-54508154D01*
X147107052Y-54508154D01*
G37*
G36*
X149700576Y-59816038D02*
X149050576Y-60941872D01*
X147405128Y-59991872D01*
X148055128Y-58866038D01*
X149700576Y-59816038D01*
X149700576Y-59816038D01*
G37*
G36*
X151350576Y-56958154D02*
X150700576Y-58083988D01*
X149055128Y-57133988D01*
X149705128Y-56008154D01*
X151350576Y-56958154D01*
X151350576Y-56958154D01*
G37*
G36*
X142501885Y-64517445D02*
X142100163Y-65753819D01*
X140293155Y-65166687D01*
X140694877Y-63930313D01*
X142501885Y-64517445D01*
X142501885Y-64517445D01*
G37*
G36*
X143521642Y-61378958D02*
X143119920Y-62615332D01*
X141312912Y-62028200D01*
X141714634Y-60791826D01*
X143521642Y-61378958D01*
X143521642Y-61378958D01*
G37*
G36*
X147162062Y-66031628D02*
X146760340Y-67268002D01*
X144953332Y-66680870D01*
X145355054Y-65444496D01*
X147162062Y-66031628D01*
X147162062Y-66031628D01*
G37*
G36*
X148181819Y-62893141D02*
X147780097Y-64129515D01*
X145973089Y-63542383D01*
X146374811Y-62306009D01*
X148181819Y-62893141D01*
X148181819Y-62893141D01*
G37*
G36*
X141098158Y-72126990D02*
X140962271Y-73419868D01*
X139072680Y-73221264D01*
X139208567Y-71928386D01*
X141098158Y-72126990D01*
X141098158Y-72126990D01*
G37*
G36*
X141443102Y-68845068D02*
X141307215Y-70137946D01*
X139417624Y-69939342D01*
X139553511Y-68646464D01*
X141443102Y-68845068D01*
X141443102Y-68845068D01*
G37*
G36*
X145971316Y-72639180D02*
X145835429Y-73932058D01*
X143945838Y-73733454D01*
X144081725Y-72440576D01*
X145971316Y-72639180D01*
X145971316Y-72639180D01*
G37*
G36*
X146316260Y-69357258D02*
X146180373Y-70650136D01*
X144290782Y-70451532D01*
X144426669Y-69158654D01*
X146316260Y-69357258D01*
X146316260Y-69357258D01*
G37*
G36*
X141307220Y-79862100D02*
X141443107Y-81154978D01*
X139553516Y-81353582D01*
X139417629Y-80060704D01*
X141307220Y-79862100D01*
X141307220Y-79862100D01*
G37*
G36*
X140962276Y-76580178D02*
X141098163Y-77873056D01*
X139208572Y-78071660D01*
X139072685Y-76778782D01*
X140962276Y-76580178D01*
X140962276Y-76580178D01*
G37*
G36*
X146180378Y-79349910D02*
X146316265Y-80642788D01*
X144426674Y-80841392D01*
X144290787Y-79548514D01*
X146180378Y-79349910D01*
X146180378Y-79349910D01*
G37*
G36*
X145835434Y-76067988D02*
X145971321Y-77360866D01*
X144081730Y-77559470D01*
X143945843Y-76266592D01*
X145835434Y-76067988D01*
X145835434Y-76067988D01*
G37*
G36*
X143119935Y-87384712D02*
X143521657Y-88621086D01*
X141714649Y-89208218D01*
X141312927Y-87971844D01*
X143119935Y-87384712D01*
X143119935Y-87384712D01*
G37*
G36*
X142100178Y-84246225D02*
X142501900Y-85482599D01*
X140694892Y-86069731D01*
X140293170Y-84833357D01*
X142100178Y-84246225D01*
X142100178Y-84246225D01*
G37*
G36*
X147780112Y-85870529D02*
X148181834Y-87106903D01*
X146374826Y-87694035D01*
X145973104Y-86457661D01*
X147780112Y-85870529D01*
X147780112Y-85870529D01*
G37*
G36*
X146760355Y-82732042D02*
X147162077Y-83968416D01*
X145355069Y-84555548D01*
X144953347Y-83319174D01*
X146760355Y-82732042D01*
X146760355Y-82732042D01*
G37*
G36*
X146457076Y-94366052D02*
X147107076Y-95491886D01*
X145461628Y-96441886D01*
X144811628Y-95316052D01*
X146457076Y-94366052D01*
X146457076Y-94366052D01*
G37*
G36*
X144807076Y-91508168D02*
X145457076Y-92634002D01*
X143811628Y-93584002D01*
X143161628Y-92458168D01*
X144807076Y-91508168D01*
X144807076Y-91508168D01*
G37*
G36*
X150700600Y-91916052D02*
X151350600Y-93041886D01*
X149705152Y-93991886D01*
X149055152Y-92866052D01*
X150700600Y-91916052D01*
X150700600Y-91916052D01*
G37*
G36*
X149050600Y-89058168D02*
X149700600Y-90184002D01*
X148055152Y-91134002D01*
X147405152Y-90008168D01*
X149050600Y-89058168D01*
X149050600Y-89058168D01*
G37*
G36*
X151172796Y-100501003D02*
X152042665Y-101467091D01*
X150630690Y-102738439D01*
X149760821Y-101772351D01*
X151172796Y-100501003D01*
X151172796Y-100501003D01*
G37*
G36*
X148964665Y-98048625D02*
X149834534Y-99014713D01*
X148422559Y-100286061D01*
X147552690Y-99319973D01*
X148964665Y-98048625D01*
X148964665Y-98048625D01*
G37*
G36*
X154814205Y-97222263D02*
X155684074Y-98188351D01*
X154272099Y-99459699D01*
X153402230Y-98493611D01*
X154814205Y-97222263D01*
X154814205Y-97222263D01*
G37*
G36*
X152606074Y-94769885D02*
X153475943Y-95735973D01*
X152063968Y-97007321D01*
X151194099Y-96041233D01*
X152606074Y-94769885D01*
X152606074Y-94769885D01*
G37*
G36*
X157060993Y-105521435D02*
X158112715Y-106285556D01*
X156995923Y-107822689D01*
X155944201Y-107058568D01*
X157060993Y-105521435D01*
X157060993Y-105521435D01*
G37*
G36*
X154391237Y-103581744D02*
X155442959Y-104345865D01*
X154326167Y-105882998D01*
X153274445Y-105118877D01*
X154391237Y-103581744D01*
X154391237Y-103581744D01*
G37*
G36*
X159941141Y-101557252D02*
X160992863Y-102321373D01*
X159876071Y-103858506D01*
X158824349Y-103094385D01*
X159941141Y-101557252D01*
X159941141Y-101557252D01*
G37*
G36*
X157271385Y-99617561D02*
X158323107Y-100381682D01*
X157206315Y-101918815D01*
X156154593Y-101154694D01*
X157271385Y-99617561D01*
X157271385Y-99617561D01*
G37*
G36*
X163864327Y-109207935D02*
X165051936Y-109736693D01*
X164279137Y-111472429D01*
X163091528Y-110943671D01*
X163864327Y-109207935D01*
X163864327Y-109207935D01*
G37*
G36*
X160849627Y-107865704D02*
X162037236Y-108394462D01*
X161264437Y-110130198D01*
X160076828Y-109601440D01*
X160849627Y-107865704D01*
X160849627Y-107865704D01*
G37*
G36*
X165857337Y-104731562D02*
X167044946Y-105260320D01*
X166272147Y-106996056D01*
X165084538Y-106467298D01*
X165857337Y-104731562D01*
X165857337Y-104731562D01*
G37*
G36*
X162842637Y-103389331D02*
X164030246Y-103918089D01*
X163257447Y-105653825D01*
X162069838Y-105125067D01*
X162842637Y-103389331D01*
X162842637Y-103389331D01*
G37*
G36*
X171285458Y-111399382D02*
X172557050Y-111669667D01*
X172162018Y-113528148D01*
X170890426Y-113257863D01*
X171285458Y-111399382D01*
X171285458Y-111399382D01*
G37*
G36*
X168057571Y-110713273D02*
X169329163Y-110983558D01*
X168934131Y-112842039D01*
X167662539Y-112571754D01*
X168057571Y-110713273D01*
X168057571Y-110713273D01*
G37*
G36*
X172304225Y-106606459D02*
X173575817Y-106876744D01*
X173180785Y-108735225D01*
X171909193Y-108464940D01*
X172304225Y-106606459D01*
X172304225Y-106606459D01*
G37*
G36*
X169076338Y-105920350D02*
X170347930Y-106190635D01*
X169952898Y-108049116D01*
X168681306Y-107778831D01*
X169076338Y-105920350D01*
X169076338Y-105920350D01*
G37*
D13*
X179650047Y-112949999D03*
X176350047Y-112949999D03*
X179650047Y-108049999D03*
X176350047Y-108049999D03*
D10*
G36*
X186670929Y-110983538D02*
X187942521Y-110713253D01*
X188337553Y-112571734D01*
X187065961Y-112842019D01*
X186670929Y-110983538D01*
X186670929Y-110983538D01*
G37*
G36*
X183443042Y-111669647D02*
X184714634Y-111399362D01*
X185109666Y-113257843D01*
X183838074Y-113528128D01*
X183443042Y-111669647D01*
X183443042Y-111669647D01*
G37*
G36*
X185652162Y-106190615D02*
X186923754Y-105920330D01*
X187318786Y-107778811D01*
X186047194Y-108049096D01*
X185652162Y-106190615D01*
X185652162Y-106190615D01*
G37*
G36*
X182424275Y-106876724D02*
X183695867Y-106606439D01*
X184090899Y-108464920D01*
X182819307Y-108735205D01*
X182424275Y-106876724D01*
X182424275Y-106876724D01*
G37*
G36*
X193962851Y-108394423D02*
X195150460Y-107865665D01*
X195923259Y-109601401D01*
X194735650Y-110130159D01*
X193962851Y-108394423D01*
X193962851Y-108394423D01*
G37*
G36*
X190948151Y-109736654D02*
X192135760Y-109207896D01*
X192908559Y-110943632D01*
X191720950Y-111472390D01*
X190948151Y-109736654D01*
X190948151Y-109736654D01*
G37*
G36*
X191969841Y-103918050D02*
X193157450Y-103389292D01*
X193930249Y-105125028D01*
X192742640Y-105653786D01*
X191969841Y-103918050D01*
X191969841Y-103918050D01*
G37*
G36*
X188955141Y-105260281D02*
X190142750Y-104731523D01*
X190915549Y-106467259D01*
X189727940Y-106996017D01*
X188955141Y-105260281D01*
X188955141Y-105260281D01*
G37*
G36*
X206165529Y-99014642D02*
X207035398Y-98048554D01*
X208447373Y-99319902D01*
X207577504Y-100285990D01*
X206165529Y-99014642D01*
X206165529Y-99014642D01*
G37*
G36*
X203957398Y-101467020D02*
X204827267Y-100500932D01*
X206239242Y-101772280D01*
X205369373Y-102738368D01*
X203957398Y-101467020D01*
X203957398Y-101467020D01*
G37*
G36*
X202524120Y-95735902D02*
X203393989Y-94769814D01*
X204805964Y-96041162D01*
X203936095Y-97007250D01*
X202524120Y-95735902D01*
X202524120Y-95735902D01*
G37*
G36*
X200315989Y-98188280D02*
X201185858Y-97222192D01*
X202597833Y-98493540D01*
X201727964Y-99459628D01*
X200315989Y-98188280D01*
X200315989Y-98188280D01*
G37*
G36*
X210542971Y-92633919D02*
X211192971Y-91508085D01*
X212838419Y-92458085D01*
X212188419Y-93583919D01*
X210542971Y-92633919D01*
X210542971Y-92633919D01*
G37*
G36*
X208892971Y-95491803D02*
X209542971Y-94365969D01*
X211188419Y-95315969D01*
X210538419Y-96441803D01*
X208892971Y-95491803D01*
X208892971Y-95491803D01*
G37*
G36*
X206299447Y-90183919D02*
X206949447Y-89058085D01*
X208594895Y-90008085D01*
X207944895Y-91133919D01*
X206299447Y-90183919D01*
X206299447Y-90183919D01*
G37*
G36*
X204649447Y-93041803D02*
X205299447Y-91915969D01*
X206944895Y-92865969D01*
X206294895Y-93991803D01*
X204649447Y-93041803D01*
X204649447Y-93041803D01*
G37*
G36*
X213498129Y-85482508D02*
X213899851Y-84246134D01*
X215706859Y-84833266D01*
X215305137Y-86069640D01*
X213498129Y-85482508D01*
X213498129Y-85482508D01*
G37*
G36*
X212478372Y-88620995D02*
X212880094Y-87384621D01*
X214687102Y-87971753D01*
X214285380Y-89208127D01*
X212478372Y-88620995D01*
X212478372Y-88620995D01*
G37*
G36*
X208837952Y-83968325D02*
X209239674Y-82731951D01*
X211046682Y-83319083D01*
X210644960Y-84555457D01*
X208837952Y-83968325D01*
X208837952Y-83968325D01*
G37*
G36*
X207818195Y-87106812D02*
X208219917Y-85870438D01*
X210026925Y-86457570D01*
X209625203Y-87693944D01*
X207818195Y-87106812D01*
X207818195Y-87106812D01*
G37*
G36*
X214901846Y-77872961D02*
X215037733Y-76580083D01*
X216927324Y-76778687D01*
X216791437Y-78071565D01*
X214901846Y-77872961D01*
X214901846Y-77872961D01*
G37*
G36*
X214556902Y-81154883D02*
X214692789Y-79862005D01*
X216582380Y-80060609D01*
X216446493Y-81353487D01*
X214556902Y-81154883D01*
X214556902Y-81154883D01*
G37*
G36*
X210028688Y-77360771D02*
X210164575Y-76067893D01*
X212054166Y-76266497D01*
X211918279Y-77559375D01*
X210028688Y-77360771D01*
X210028688Y-77360771D01*
G37*
G36*
X209683744Y-80642693D02*
X209819631Y-79349815D01*
X211709222Y-79548419D01*
X211573335Y-80841297D01*
X209683744Y-80642693D01*
X209683744Y-80642693D01*
G37*
G36*
X214692774Y-70137851D02*
X214556887Y-68844973D01*
X216446478Y-68646369D01*
X216582365Y-69939247D01*
X214692774Y-70137851D01*
X214692774Y-70137851D01*
G37*
G36*
X215037718Y-73419773D02*
X214901831Y-72126895D01*
X216791422Y-71928291D01*
X216927309Y-73221169D01*
X215037718Y-73419773D01*
X215037718Y-73419773D01*
G37*
G36*
X209819616Y-70650041D02*
X209683729Y-69357163D01*
X211573320Y-69158559D01*
X211709207Y-70451437D01*
X209819616Y-70650041D01*
X209819616Y-70650041D01*
G37*
G36*
X210164560Y-73931963D02*
X210028673Y-72639085D01*
X211918264Y-72440481D01*
X212054151Y-73733359D01*
X210164560Y-73931963D01*
X210164560Y-73931963D01*
G37*
G36*
X212880049Y-62615241D02*
X212478327Y-61378867D01*
X214285335Y-60791735D01*
X214687057Y-62028109D01*
X212880049Y-62615241D01*
X212880049Y-62615241D01*
G37*
G36*
X213899806Y-65753728D02*
X213498084Y-64517354D01*
X215305092Y-63930222D01*
X215706814Y-65166596D01*
X213899806Y-65753728D01*
X213899806Y-65753728D01*
G37*
G36*
X208219872Y-64129424D02*
X207818150Y-62893050D01*
X209625158Y-62305918D01*
X210026880Y-63542292D01*
X208219872Y-64129424D01*
X208219872Y-64129424D01*
G37*
G36*
X209239629Y-67267911D02*
X208837907Y-66031537D01*
X210644915Y-65444405D01*
X211046637Y-66680779D01*
X209239629Y-67267911D01*
X209239629Y-67267911D01*
G37*
G36*
X204827171Y-49498960D02*
X203957302Y-48532872D01*
X205369277Y-47261524D01*
X206239146Y-48227612D01*
X204827171Y-49498960D01*
X204827171Y-49498960D01*
G37*
G36*
X207035302Y-51951338D02*
X206165433Y-50985250D01*
X207577408Y-49713902D01*
X208447277Y-50679990D01*
X207035302Y-51951338D01*
X207035302Y-51951338D01*
G37*
G36*
X201185762Y-52777700D02*
X200315893Y-51811612D01*
X201727868Y-50540264D01*
X202597737Y-51506352D01*
X201185762Y-52777700D01*
X201185762Y-52777700D01*
G37*
G36*
X203393893Y-55230078D02*
X202524024Y-54263990D01*
X203935999Y-52992642D01*
X204805868Y-53958730D01*
X203393893Y-55230078D01*
X203393893Y-55230078D01*
G37*
G36*
X198938967Y-44478536D02*
X197887245Y-43714415D01*
X199004037Y-42177282D01*
X200055759Y-42941403D01*
X198938967Y-44478536D01*
X198938967Y-44478536D01*
G37*
G36*
X201608723Y-46418227D02*
X200557001Y-45654106D01*
X201673793Y-44116973D01*
X202725515Y-44881094D01*
X201608723Y-46418227D01*
X201608723Y-46418227D01*
G37*
G36*
X196058819Y-48442719D02*
X195007097Y-47678598D01*
X196123889Y-46141465D01*
X197175611Y-46905586D01*
X196058819Y-48442719D01*
X196058819Y-48442719D01*
G37*
G36*
X198728575Y-50382410D02*
X197676853Y-49618289D01*
X198793645Y-48081156D01*
X199845367Y-48845277D01*
X198728575Y-50382410D01*
X198728575Y-50382410D01*
G37*
G36*
X192135629Y-40792044D02*
X190948020Y-40263286D01*
X191720819Y-38527550D01*
X192908428Y-39056308D01*
X192135629Y-40792044D01*
X192135629Y-40792044D01*
G37*
G36*
X195150329Y-42134275D02*
X193962720Y-41605517D01*
X194735519Y-39869781D01*
X195923128Y-40398539D01*
X195150329Y-42134275D01*
X195150329Y-42134275D01*
G37*
G36*
X190142619Y-45268417D02*
X188955010Y-44739659D01*
X189727809Y-43003923D01*
X190915418Y-43532681D01*
X190142619Y-45268417D01*
X190142619Y-45268417D01*
G37*
G36*
X193157319Y-46610648D02*
X191969710Y-46081890D01*
X192742509Y-44346154D01*
X193930118Y-44874912D01*
X193157319Y-46610648D01*
X193157319Y-46610648D01*
G37*
G36*
X184714494Y-38600607D02*
X183442902Y-38330322D01*
X183837934Y-36471841D01*
X185109526Y-36742126D01*
X184714494Y-38600607D01*
X184714494Y-38600607D01*
G37*
G36*
X187942381Y-39286716D02*
X186670789Y-39016431D01*
X187065821Y-37157950D01*
X188337413Y-37428235D01*
X187942381Y-39286716D01*
X187942381Y-39286716D01*
G37*
G36*
X183695727Y-43393530D02*
X182424135Y-43123245D01*
X182819167Y-41264764D01*
X184090759Y-41535049D01*
X183695727Y-43393530D01*
X183695727Y-43393530D01*
G37*
G36*
X186923614Y-44079639D02*
X185652022Y-43809354D01*
X186047054Y-41950873D01*
X187318646Y-42221158D01*
X186923614Y-44079639D01*
X186923614Y-44079639D01*
G37*
G36*
X200557117Y-104345809D02*
X201608839Y-103581688D01*
X202725631Y-105118821D01*
X201673909Y-105882942D01*
X200557117Y-104345809D01*
X200557117Y-104345809D01*
G37*
G36*
X197887361Y-106285500D02*
X198939083Y-105521379D01*
X200055875Y-107058512D01*
X199004153Y-107822633D01*
X197887361Y-106285500D01*
X197887361Y-106285500D01*
G37*
G36*
X197676969Y-100381626D02*
X198728691Y-99617505D01*
X199845483Y-101154638D01*
X198793761Y-101918759D01*
X197676969Y-100381626D01*
X197676969Y-100381626D01*
G37*
G36*
X195007213Y-102321317D02*
X196058935Y-101557196D01*
X197175727Y-103094329D01*
X196124005Y-103858450D01*
X195007213Y-102321317D01*
X195007213Y-102321317D01*
G37*
G36*
X209542900Y-55633906D02*
X208892900Y-54508072D01*
X210538348Y-53558072D01*
X211188348Y-54683906D01*
X209542900Y-55633906D01*
X209542900Y-55633906D01*
G37*
G36*
X211192900Y-58491790D02*
X210542900Y-57365956D01*
X212188348Y-56415956D01*
X212838348Y-57541790D01*
X211192900Y-58491790D01*
X211192900Y-58491790D01*
G37*
G36*
X205299376Y-58083906D02*
X204649376Y-56958072D01*
X206294824Y-56008072D01*
X206944824Y-57133906D01*
X205299376Y-58083906D01*
X205299376Y-58083906D01*
G37*
G36*
X206949376Y-60941790D02*
X206299376Y-59815956D01*
X207944824Y-58865956D01*
X208594824Y-59991790D01*
X206949376Y-60941790D01*
X206949376Y-60941790D01*
G37*
D13*
X176350000Y-37050000D03*
X179650000Y-37050000D03*
X176350000Y-41950000D03*
X179650000Y-41950000D03*
D10*
G36*
X169329116Y-39016451D02*
X168057524Y-39286736D01*
X167662492Y-37428255D01*
X168934084Y-37157970D01*
X169329116Y-39016451D01*
X169329116Y-39016451D01*
G37*
G36*
X172557003Y-38330342D02*
X171285411Y-38600627D01*
X170890379Y-36742146D01*
X172161971Y-36471861D01*
X172557003Y-38330342D01*
X172557003Y-38330342D01*
G37*
G36*
X170347883Y-43809374D02*
X169076291Y-44079659D01*
X168681259Y-42221178D01*
X169952851Y-41950893D01*
X170347883Y-43809374D01*
X170347883Y-43809374D01*
G37*
G36*
X173575770Y-43123265D02*
X172304178Y-43393550D01*
X171909146Y-41535069D01*
X173180738Y-41264784D01*
X173575770Y-43123265D01*
X173575770Y-43123265D01*
G37*
M02*
