G04 #@! TF.FileFunction,Copper,L1,Top,Signal*
%FSLAX46Y46*%
G04 Gerber Fmt 4.6, Leading zero omitted, Abs format (unit mm)*
G04 Created by KiCad (PCBNEW 4.0.1-stable) date 2/4/2016 11:49:25 AM*
%MOMM*%
G01*
G04 APERTURE LIST*
%ADD10C,0.100000*%
%ADD11R,0.750000X1.200000*%
%ADD12R,1.727200X2.032000*%
%ADD13O,1.727200X2.032000*%
%ADD14R,0.900000X1.200000*%
%ADD15R,1.500000X0.900000*%
%ADD16C,0.600000*%
%ADD17C,0.250000*%
G04 APERTURE END LIST*
D10*
D11*
X146130000Y-96730000D03*
X146130000Y-98630000D03*
D12*
X147100000Y-101720000D03*
D13*
X149640000Y-101720000D03*
X152180000Y-101720000D03*
X154720000Y-101720000D03*
D14*
X155680000Y-98890000D03*
X155680000Y-96690000D03*
D15*
X153300000Y-95670000D03*
X153300000Y-98970000D03*
X148400000Y-95670000D03*
X148400000Y-98970000D03*
D16*
X149170000Y-97570000D03*
X151200000Y-99000000D03*
D17*
X155680000Y-96690000D02*
X154320000Y-96690000D01*
X154320000Y-96690000D02*
X153300000Y-95670000D01*
X146130000Y-98630000D02*
X146510000Y-98630000D01*
X147750000Y-97570000D02*
X149170000Y-97570000D01*
X146510000Y-98630000D02*
X147750000Y-97570000D01*
X153300000Y-98970000D02*
X151230000Y-98970000D01*
X151230000Y-98970000D02*
X151200000Y-99000000D01*
X148400000Y-98970000D02*
X148470000Y-98970000D01*
X148470000Y-98970000D02*
X149640000Y-100140000D01*
X149640000Y-100140000D02*
X149640000Y-101790000D01*
X155680000Y-98890000D02*
X154410000Y-97620000D01*
X150330000Y-99870000D02*
X152180000Y-101720000D01*
X150330000Y-97680000D02*
X150330000Y-99870000D01*
X154410000Y-97620000D02*
X150270000Y-97620000D01*
X155680000Y-98890000D02*
X155390000Y-98890000D01*
D10*
G36*
X156975000Y-103475000D02*
X145025000Y-103475000D01*
X145025000Y-102063500D01*
X145678400Y-102063500D01*
X145678400Y-102846993D01*
X145763350Y-103052082D01*
X145920318Y-103209049D01*
X146125407Y-103294000D01*
X146756500Y-103294000D01*
X146896000Y-103154500D01*
X146896000Y-101924000D01*
X145817900Y-101924000D01*
X145678400Y-102063500D01*
X145025000Y-102063500D01*
X145025000Y-100593007D01*
X145678400Y-100593007D01*
X145678400Y-101376500D01*
X145817900Y-101516000D01*
X146896000Y-101516000D01*
X146896000Y-100285500D01*
X146756500Y-100146000D01*
X146125407Y-100146000D01*
X145920318Y-100230951D01*
X145763350Y-100387918D01*
X145678400Y-100593007D01*
X145025000Y-100593007D01*
X145025000Y-97073500D01*
X145197000Y-97073500D01*
X145197000Y-97440993D01*
X145281950Y-97646082D01*
X145395262Y-97759394D01*
X145332332Y-97851495D01*
X145296184Y-98030000D01*
X145296184Y-99230000D01*
X145327562Y-99396760D01*
X145426117Y-99549919D01*
X145576495Y-99652668D01*
X145755000Y-99688816D01*
X146505000Y-99688816D01*
X146671760Y-99657438D01*
X146824919Y-99558883D01*
X146927668Y-99408505D01*
X146963816Y-99230000D01*
X146963816Y-98998519D01*
X147191184Y-98804156D01*
X147191184Y-99420000D01*
X147222562Y-99586760D01*
X147321117Y-99739919D01*
X147471495Y-99842668D01*
X147650000Y-99878816D01*
X148565644Y-99878816D01*
X149062250Y-100375422D01*
X148711145Y-100610024D01*
X148521600Y-100893697D01*
X148521600Y-100593007D01*
X148436650Y-100387918D01*
X148279682Y-100230951D01*
X148074593Y-100146000D01*
X147443500Y-100146000D01*
X147304000Y-100285500D01*
X147304000Y-101516000D01*
X147324000Y-101516000D01*
X147324000Y-101924000D01*
X147304000Y-101924000D01*
X147304000Y-103154500D01*
X147443500Y-103294000D01*
X148074593Y-103294000D01*
X148279682Y-103209049D01*
X148436650Y-103052082D01*
X148521600Y-102846993D01*
X148521600Y-102546303D01*
X148711145Y-102829976D01*
X149137307Y-103114729D01*
X149640000Y-103214721D01*
X150142693Y-103114729D01*
X150568855Y-102829976D01*
X150853608Y-102403814D01*
X150910000Y-102120313D01*
X150966392Y-102403814D01*
X151251145Y-102829976D01*
X151677307Y-103114729D01*
X152180000Y-103214721D01*
X152682693Y-103114729D01*
X153108855Y-102829976D01*
X153393608Y-102403814D01*
X153450000Y-102120313D01*
X153506392Y-102403814D01*
X153791145Y-102829976D01*
X154217307Y-103114729D01*
X154720000Y-103214721D01*
X155222693Y-103114729D01*
X155648855Y-102829976D01*
X155933608Y-102403814D01*
X156033600Y-101901121D01*
X156033600Y-101538879D01*
X155933608Y-101036186D01*
X155648855Y-100610024D01*
X155222693Y-100325271D01*
X154720000Y-100225279D01*
X154217307Y-100325271D01*
X153791145Y-100610024D01*
X153506392Y-101036186D01*
X153450000Y-101319687D01*
X153393608Y-101036186D01*
X153108855Y-100610024D01*
X152682693Y-100325271D01*
X152180000Y-100225279D01*
X151677307Y-100325271D01*
X151630032Y-100356860D01*
X151003783Y-99730611D01*
X151050161Y-99749869D01*
X151348530Y-99750130D01*
X151624286Y-99636189D01*
X151715634Y-99545000D01*
X152114704Y-99545000D01*
X152122562Y-99586760D01*
X152221117Y-99739919D01*
X152371495Y-99842668D01*
X152550000Y-99878816D01*
X154050000Y-99878816D01*
X154216760Y-99847438D01*
X154369919Y-99748883D01*
X154472668Y-99598505D01*
X154508816Y-99420000D01*
X154508816Y-98531988D01*
X154771184Y-98794357D01*
X154771184Y-99490000D01*
X154802562Y-99656760D01*
X154901117Y-99809919D01*
X155051495Y-99912668D01*
X155230000Y-99948816D01*
X156130000Y-99948816D01*
X156296760Y-99917438D01*
X156449919Y-99818883D01*
X156552668Y-99668505D01*
X156588816Y-99490000D01*
X156588816Y-98290000D01*
X156557438Y-98123240D01*
X156458883Y-97970081D01*
X156308505Y-97867332D01*
X156130000Y-97831184D01*
X155434356Y-97831184D01*
X155351988Y-97748816D01*
X156130000Y-97748816D01*
X156296760Y-97717438D01*
X156449919Y-97618883D01*
X156552668Y-97468505D01*
X156588816Y-97290000D01*
X156588816Y-96090000D01*
X156557438Y-95923240D01*
X156458883Y-95770081D01*
X156308505Y-95667332D01*
X156130000Y-95631184D01*
X155230000Y-95631184D01*
X155063240Y-95662562D01*
X154910081Y-95761117D01*
X154807332Y-95911495D01*
X154771184Y-96090000D01*
X154771184Y-96115000D01*
X154558173Y-96115000D01*
X154508816Y-96065643D01*
X154508816Y-95220000D01*
X154477438Y-95053240D01*
X154378883Y-94900081D01*
X154228505Y-94797332D01*
X154050000Y-94761184D01*
X152550000Y-94761184D01*
X152383240Y-94792562D01*
X152230081Y-94891117D01*
X152127332Y-95041495D01*
X152091184Y-95220000D01*
X152091184Y-96120000D01*
X152122562Y-96286760D01*
X152221117Y-96439919D01*
X152371495Y-96542668D01*
X152550000Y-96578816D01*
X153395644Y-96578816D01*
X153861827Y-97045000D01*
X150270000Y-97045000D01*
X150049957Y-97088769D01*
X149863414Y-97213414D01*
X149845339Y-97240464D01*
X149806189Y-97145714D01*
X149595395Y-96934552D01*
X149319839Y-96820131D01*
X149021470Y-96819870D01*
X148745714Y-96933811D01*
X148684418Y-96995000D01*
X147750000Y-96995000D01*
X147661586Y-97012587D01*
X147572075Y-97023220D01*
X147552248Y-97034335D01*
X147529957Y-97038769D01*
X147455008Y-97088849D01*
X147376375Y-97132931D01*
X147063000Y-97400816D01*
X147063000Y-97073500D01*
X146923500Y-96934000D01*
X146317500Y-96934000D01*
X146317500Y-96954000D01*
X145942500Y-96954000D01*
X145942500Y-96934000D01*
X145336500Y-96934000D01*
X145197000Y-97073500D01*
X145025000Y-97073500D01*
X145025000Y-96019007D01*
X145197000Y-96019007D01*
X145197000Y-96386500D01*
X145336500Y-96526000D01*
X145942500Y-96526000D01*
X145942500Y-95711500D01*
X146317500Y-95711500D01*
X146317500Y-96526000D01*
X146923500Y-96526000D01*
X147063000Y-96386500D01*
X147063000Y-96019007D01*
X147060719Y-96013500D01*
X147092000Y-96013500D01*
X147092000Y-96230993D01*
X147176951Y-96436082D01*
X147333918Y-96593050D01*
X147539007Y-96678000D01*
X148056500Y-96678000D01*
X148196000Y-96538500D01*
X148196000Y-95874000D01*
X148604000Y-95874000D01*
X148604000Y-96538500D01*
X148743500Y-96678000D01*
X149260993Y-96678000D01*
X149466082Y-96593050D01*
X149623049Y-96436082D01*
X149708000Y-96230993D01*
X149708000Y-96013500D01*
X149568500Y-95874000D01*
X148604000Y-95874000D01*
X148196000Y-95874000D01*
X147231500Y-95874000D01*
X147092000Y-96013500D01*
X147060719Y-96013500D01*
X146978050Y-95813918D01*
X146821082Y-95656951D01*
X146615993Y-95572000D01*
X146457000Y-95572000D01*
X146317500Y-95711500D01*
X145942500Y-95711500D01*
X145803000Y-95572000D01*
X145644007Y-95572000D01*
X145438918Y-95656951D01*
X145281950Y-95813918D01*
X145197000Y-96019007D01*
X145025000Y-96019007D01*
X145025000Y-95109007D01*
X147092000Y-95109007D01*
X147092000Y-95326500D01*
X147231500Y-95466000D01*
X148196000Y-95466000D01*
X148196000Y-94801500D01*
X148604000Y-94801500D01*
X148604000Y-95466000D01*
X149568500Y-95466000D01*
X149708000Y-95326500D01*
X149708000Y-95109007D01*
X149623049Y-94903918D01*
X149466082Y-94746950D01*
X149260993Y-94662000D01*
X148743500Y-94662000D01*
X148604000Y-94801500D01*
X148196000Y-94801500D01*
X148056500Y-94662000D01*
X147539007Y-94662000D01*
X147333918Y-94746950D01*
X147176951Y-94903918D01*
X147092000Y-95109007D01*
X145025000Y-95109007D01*
X145025000Y-94525000D01*
X156975000Y-94525000D01*
X156975000Y-103475000D01*
X156975000Y-103475000D01*
G37*
X156975000Y-103475000D02*
X145025000Y-103475000D01*
X145025000Y-102063500D01*
X145678400Y-102063500D01*
X145678400Y-102846993D01*
X145763350Y-103052082D01*
X145920318Y-103209049D01*
X146125407Y-103294000D01*
X146756500Y-103294000D01*
X146896000Y-103154500D01*
X146896000Y-101924000D01*
X145817900Y-101924000D01*
X145678400Y-102063500D01*
X145025000Y-102063500D01*
X145025000Y-100593007D01*
X145678400Y-100593007D01*
X145678400Y-101376500D01*
X145817900Y-101516000D01*
X146896000Y-101516000D01*
X146896000Y-100285500D01*
X146756500Y-100146000D01*
X146125407Y-100146000D01*
X145920318Y-100230951D01*
X145763350Y-100387918D01*
X145678400Y-100593007D01*
X145025000Y-100593007D01*
X145025000Y-97073500D01*
X145197000Y-97073500D01*
X145197000Y-97440993D01*
X145281950Y-97646082D01*
X145395262Y-97759394D01*
X145332332Y-97851495D01*
X145296184Y-98030000D01*
X145296184Y-99230000D01*
X145327562Y-99396760D01*
X145426117Y-99549919D01*
X145576495Y-99652668D01*
X145755000Y-99688816D01*
X146505000Y-99688816D01*
X146671760Y-99657438D01*
X146824919Y-99558883D01*
X146927668Y-99408505D01*
X146963816Y-99230000D01*
X146963816Y-98998519D01*
X147191184Y-98804156D01*
X147191184Y-99420000D01*
X147222562Y-99586760D01*
X147321117Y-99739919D01*
X147471495Y-99842668D01*
X147650000Y-99878816D01*
X148565644Y-99878816D01*
X149062250Y-100375422D01*
X148711145Y-100610024D01*
X148521600Y-100893697D01*
X148521600Y-100593007D01*
X148436650Y-100387918D01*
X148279682Y-100230951D01*
X148074593Y-100146000D01*
X147443500Y-100146000D01*
X147304000Y-100285500D01*
X147304000Y-101516000D01*
X147324000Y-101516000D01*
X147324000Y-101924000D01*
X147304000Y-101924000D01*
X147304000Y-103154500D01*
X147443500Y-103294000D01*
X148074593Y-103294000D01*
X148279682Y-103209049D01*
X148436650Y-103052082D01*
X148521600Y-102846993D01*
X148521600Y-102546303D01*
X148711145Y-102829976D01*
X149137307Y-103114729D01*
X149640000Y-103214721D01*
X150142693Y-103114729D01*
X150568855Y-102829976D01*
X150853608Y-102403814D01*
X150910000Y-102120313D01*
X150966392Y-102403814D01*
X151251145Y-102829976D01*
X151677307Y-103114729D01*
X152180000Y-103214721D01*
X152682693Y-103114729D01*
X153108855Y-102829976D01*
X153393608Y-102403814D01*
X153450000Y-102120313D01*
X153506392Y-102403814D01*
X153791145Y-102829976D01*
X154217307Y-103114729D01*
X154720000Y-103214721D01*
X155222693Y-103114729D01*
X155648855Y-102829976D01*
X155933608Y-102403814D01*
X156033600Y-101901121D01*
X156033600Y-101538879D01*
X155933608Y-101036186D01*
X155648855Y-100610024D01*
X155222693Y-100325271D01*
X154720000Y-100225279D01*
X154217307Y-100325271D01*
X153791145Y-100610024D01*
X153506392Y-101036186D01*
X153450000Y-101319687D01*
X153393608Y-101036186D01*
X153108855Y-100610024D01*
X152682693Y-100325271D01*
X152180000Y-100225279D01*
X151677307Y-100325271D01*
X151630032Y-100356860D01*
X151003783Y-99730611D01*
X151050161Y-99749869D01*
X151348530Y-99750130D01*
X151624286Y-99636189D01*
X151715634Y-99545000D01*
X152114704Y-99545000D01*
X152122562Y-99586760D01*
X152221117Y-99739919D01*
X152371495Y-99842668D01*
X152550000Y-99878816D01*
X154050000Y-99878816D01*
X154216760Y-99847438D01*
X154369919Y-99748883D01*
X154472668Y-99598505D01*
X154508816Y-99420000D01*
X154508816Y-98531988D01*
X154771184Y-98794357D01*
X154771184Y-99490000D01*
X154802562Y-99656760D01*
X154901117Y-99809919D01*
X155051495Y-99912668D01*
X155230000Y-99948816D01*
X156130000Y-99948816D01*
X156296760Y-99917438D01*
X156449919Y-99818883D01*
X156552668Y-99668505D01*
X156588816Y-99490000D01*
X156588816Y-98290000D01*
X156557438Y-98123240D01*
X156458883Y-97970081D01*
X156308505Y-97867332D01*
X156130000Y-97831184D01*
X155434356Y-97831184D01*
X155351988Y-97748816D01*
X156130000Y-97748816D01*
X156296760Y-97717438D01*
X156449919Y-97618883D01*
X156552668Y-97468505D01*
X156588816Y-97290000D01*
X156588816Y-96090000D01*
X156557438Y-95923240D01*
X156458883Y-95770081D01*
X156308505Y-95667332D01*
X156130000Y-95631184D01*
X155230000Y-95631184D01*
X155063240Y-95662562D01*
X154910081Y-95761117D01*
X154807332Y-95911495D01*
X154771184Y-96090000D01*
X154771184Y-96115000D01*
X154558173Y-96115000D01*
X154508816Y-96065643D01*
X154508816Y-95220000D01*
X154477438Y-95053240D01*
X154378883Y-94900081D01*
X154228505Y-94797332D01*
X154050000Y-94761184D01*
X152550000Y-94761184D01*
X152383240Y-94792562D01*
X152230081Y-94891117D01*
X152127332Y-95041495D01*
X152091184Y-95220000D01*
X152091184Y-96120000D01*
X152122562Y-96286760D01*
X152221117Y-96439919D01*
X152371495Y-96542668D01*
X152550000Y-96578816D01*
X153395644Y-96578816D01*
X153861827Y-97045000D01*
X150270000Y-97045000D01*
X150049957Y-97088769D01*
X149863414Y-97213414D01*
X149845339Y-97240464D01*
X149806189Y-97145714D01*
X149595395Y-96934552D01*
X149319839Y-96820131D01*
X149021470Y-96819870D01*
X148745714Y-96933811D01*
X148684418Y-96995000D01*
X147750000Y-96995000D01*
X147661586Y-97012587D01*
X147572075Y-97023220D01*
X147552248Y-97034335D01*
X147529957Y-97038769D01*
X147455008Y-97088849D01*
X147376375Y-97132931D01*
X147063000Y-97400816D01*
X147063000Y-97073500D01*
X146923500Y-96934000D01*
X146317500Y-96934000D01*
X146317500Y-96954000D01*
X145942500Y-96954000D01*
X145942500Y-96934000D01*
X145336500Y-96934000D01*
X145197000Y-97073500D01*
X145025000Y-97073500D01*
X145025000Y-96019007D01*
X145197000Y-96019007D01*
X145197000Y-96386500D01*
X145336500Y-96526000D01*
X145942500Y-96526000D01*
X145942500Y-95711500D01*
X146317500Y-95711500D01*
X146317500Y-96526000D01*
X146923500Y-96526000D01*
X147063000Y-96386500D01*
X147063000Y-96019007D01*
X147060719Y-96013500D01*
X147092000Y-96013500D01*
X147092000Y-96230993D01*
X147176951Y-96436082D01*
X147333918Y-96593050D01*
X147539007Y-96678000D01*
X148056500Y-96678000D01*
X148196000Y-96538500D01*
X148196000Y-95874000D01*
X148604000Y-95874000D01*
X148604000Y-96538500D01*
X148743500Y-96678000D01*
X149260993Y-96678000D01*
X149466082Y-96593050D01*
X149623049Y-96436082D01*
X149708000Y-96230993D01*
X149708000Y-96013500D01*
X149568500Y-95874000D01*
X148604000Y-95874000D01*
X148196000Y-95874000D01*
X147231500Y-95874000D01*
X147092000Y-96013500D01*
X147060719Y-96013500D01*
X146978050Y-95813918D01*
X146821082Y-95656951D01*
X146615993Y-95572000D01*
X146457000Y-95572000D01*
X146317500Y-95711500D01*
X145942500Y-95711500D01*
X145803000Y-95572000D01*
X145644007Y-95572000D01*
X145438918Y-95656951D01*
X145281950Y-95813918D01*
X145197000Y-96019007D01*
X145025000Y-96019007D01*
X145025000Y-95109007D01*
X147092000Y-95109007D01*
X147092000Y-95326500D01*
X147231500Y-95466000D01*
X148196000Y-95466000D01*
X148196000Y-94801500D01*
X148604000Y-94801500D01*
X148604000Y-95466000D01*
X149568500Y-95466000D01*
X149708000Y-95326500D01*
X149708000Y-95109007D01*
X149623049Y-94903918D01*
X149466082Y-94746950D01*
X149260993Y-94662000D01*
X148743500Y-94662000D01*
X148604000Y-94801500D01*
X148196000Y-94801500D01*
X148056500Y-94662000D01*
X147539007Y-94662000D01*
X147333918Y-94746950D01*
X147176951Y-94903918D01*
X147092000Y-95109007D01*
X145025000Y-95109007D01*
X145025000Y-94525000D01*
X156975000Y-94525000D01*
X156975000Y-103475000D01*
M02*
