G04 #@! TF.FileFunction,Legend,Top*
%FSLAX46Y46*%
G04 Gerber Fmt 4.6, Leading zero omitted, Abs format (unit mm)*
G04 Created by KiCad (PCBNEW 4.0.1-stable) date 2/4/2016 11:49:26 AM*
%MOMM*%
G01*
G04 APERTURE LIST*
%ADD10C,0.100000*%
%ADD11C,0.150000*%
G04 APERTURE END LIST*
D10*
D11*
X146730000Y-97330000D02*
X146730000Y-98030000D01*
X145530000Y-98030000D02*
X145530000Y-97330000D01*
X148370000Y-102990000D02*
X155990000Y-102990000D01*
X148370000Y-100450000D02*
X155990000Y-100450000D01*
X145550000Y-100170000D02*
X147100000Y-100170000D01*
X155990000Y-102990000D02*
X155990000Y-100450000D01*
X148370000Y-100450000D02*
X148370000Y-102990000D01*
X147100000Y-103270000D02*
X145550000Y-103270000D01*
X145550000Y-103270000D02*
X145550000Y-100170000D01*
X156355000Y-97290000D02*
X156355000Y-98290000D01*
X155005000Y-98290000D02*
X155005000Y-97290000D01*
X152797434Y-97320000D02*
G75*
G03X152797434Y-97320000I-1947434J0D01*
G01*
X152900000Y-99770000D02*
X153350000Y-99470000D01*
X153350000Y-99470000D02*
X153300000Y-99470000D01*
X153350000Y-94820000D02*
X148350000Y-94820000D01*
X148350000Y-94820000D02*
X148350000Y-99820000D01*
X148350000Y-99820000D02*
X153350000Y-99820000D01*
X153350000Y-99820000D02*
X153350000Y-94820000D01*
X145903334Y-95417143D02*
X145855715Y-95464762D01*
X145712858Y-95512381D01*
X145617620Y-95512381D01*
X145474762Y-95464762D01*
X145379524Y-95369524D01*
X145331905Y-95274286D01*
X145284286Y-95083810D01*
X145284286Y-94940952D01*
X145331905Y-94750476D01*
X145379524Y-94655238D01*
X145474762Y-94560000D01*
X145617620Y-94512381D01*
X145712858Y-94512381D01*
X145855715Y-94560000D01*
X145903334Y-94607619D01*
X146855715Y-95512381D02*
X146284286Y-95512381D01*
X146570000Y-95512381D02*
X146570000Y-94512381D01*
X146474762Y-94655238D01*
X146379524Y-94750476D01*
X146284286Y-94798095D01*
X155483334Y-95502381D02*
X155150000Y-95026190D01*
X154911905Y-95502381D02*
X154911905Y-94502381D01*
X155292858Y-94502381D01*
X155388096Y-94550000D01*
X155435715Y-94597619D01*
X155483334Y-94692857D01*
X155483334Y-94835714D01*
X155435715Y-94930952D01*
X155388096Y-94978571D01*
X155292858Y-95026190D01*
X154911905Y-95026190D01*
X156435715Y-95502381D02*
X155864286Y-95502381D01*
X156150000Y-95502381D02*
X156150000Y-94502381D01*
X156054762Y-94645238D01*
X155959524Y-94740476D01*
X155864286Y-94788095D01*
X150633334Y-97822381D02*
X150157143Y-97822381D01*
X150157143Y-96822381D01*
X151490477Y-97822381D02*
X150919048Y-97822381D01*
X151204762Y-97822381D02*
X151204762Y-96822381D01*
X151109524Y-96965238D01*
X151014286Y-97060476D01*
X150919048Y-97108095D01*
M02*
