G04 #@! TF.FileFunction,Legend,Bot*
%FSLAX46Y46*%
G04 Gerber Fmt 4.6, Leading zero omitted, Abs format (unit mm)*
G04 Created by KiCad (PCBNEW 4.0.1-stable) date 2/4/2016 11:49:25 AM*
%MOMM*%
G01*
G04 APERTURE LIST*
%ADD10C,0.100000*%
%ADD11C,0.150000*%
G04 APERTURE END LIST*
D10*
D11*
X150095238Y-98452381D02*
X150666667Y-98452381D01*
X150380953Y-98452381D02*
X150380953Y-97452381D01*
X150476191Y-97595238D01*
X150571429Y-97690476D01*
X150666667Y-97738095D01*
X149238095Y-97452381D02*
X149428572Y-97452381D01*
X149523810Y-97500000D01*
X149571429Y-97547619D01*
X149666667Y-97690476D01*
X149714286Y-97880952D01*
X149714286Y-98261905D01*
X149666667Y-98357143D01*
X149619048Y-98404762D01*
X149523810Y-98452381D01*
X149333333Y-98452381D01*
X149238095Y-98404762D01*
X149190476Y-98357143D01*
X149142857Y-98261905D01*
X149142857Y-98023810D01*
X149190476Y-97928571D01*
X149238095Y-97880952D01*
X149333333Y-97833333D01*
X149523810Y-97833333D01*
X149619048Y-97880952D01*
X149666667Y-97928571D01*
X149714286Y-98023810D01*
X148523810Y-97452381D02*
X148428571Y-97452381D01*
X148333333Y-97500000D01*
X148285714Y-97547619D01*
X148238095Y-97642857D01*
X148190476Y-97833333D01*
X148190476Y-98071429D01*
X148238095Y-98261905D01*
X148285714Y-98357143D01*
X148333333Y-98404762D01*
X148428571Y-98452381D01*
X148523810Y-98452381D01*
X148619048Y-98404762D01*
X148666667Y-98357143D01*
X148714286Y-98261905D01*
X148761905Y-98071429D01*
X148761905Y-97833333D01*
X148714286Y-97642857D01*
X148666667Y-97547619D01*
X148619048Y-97500000D01*
X148523810Y-97452381D01*
X147809524Y-97547619D02*
X147761905Y-97500000D01*
X147666667Y-97452381D01*
X147428571Y-97452381D01*
X147333333Y-97500000D01*
X147285714Y-97547619D01*
X147238095Y-97642857D01*
X147238095Y-97738095D01*
X147285714Y-97880952D01*
X147857143Y-98452381D01*
X147238095Y-98452381D01*
X146619048Y-97452381D02*
X146523809Y-97452381D01*
X146428571Y-97500000D01*
X146380952Y-97547619D01*
X146333333Y-97642857D01*
X146285714Y-97833333D01*
X146285714Y-98071429D01*
X146333333Y-98261905D01*
X146380952Y-98357143D01*
X146428571Y-98404762D01*
X146523809Y-98452381D01*
X146619048Y-98452381D01*
X146714286Y-98404762D01*
X146761905Y-98357143D01*
X146809524Y-98261905D01*
X146857143Y-98071429D01*
X146857143Y-97833333D01*
X146809524Y-97642857D01*
X146761905Y-97547619D01*
X146714286Y-97500000D01*
X146619048Y-97452381D01*
X145428571Y-97785714D02*
X145428571Y-98452381D01*
X145666667Y-97404762D02*
X145904762Y-98119048D01*
X145285714Y-98119048D01*
X156285714Y-98404762D02*
X156142857Y-98452381D01*
X155904761Y-98452381D01*
X155809523Y-98404762D01*
X155761904Y-98357143D01*
X155714285Y-98261905D01*
X155714285Y-98166667D01*
X155761904Y-98071429D01*
X155809523Y-98023810D01*
X155904761Y-97976190D01*
X156095238Y-97928571D01*
X156190476Y-97880952D01*
X156238095Y-97833333D01*
X156285714Y-97738095D01*
X156285714Y-97642857D01*
X156238095Y-97547619D01*
X156190476Y-97500000D01*
X156095238Y-97452381D01*
X155857142Y-97452381D01*
X155714285Y-97500000D01*
X155285714Y-98452381D02*
X155285714Y-97452381D01*
X155047619Y-97452381D01*
X154904761Y-97500000D01*
X154809523Y-97595238D01*
X154761904Y-97690476D01*
X154714285Y-97880952D01*
X154714285Y-98023810D01*
X154761904Y-98214286D01*
X154809523Y-98309524D01*
X154904761Y-98404762D01*
X155047619Y-98452381D01*
X155285714Y-98452381D01*
X153714285Y-98357143D02*
X153761904Y-98404762D01*
X153904761Y-98452381D01*
X153999999Y-98452381D01*
X154142857Y-98404762D01*
X154238095Y-98309524D01*
X154285714Y-98214286D01*
X154333333Y-98023810D01*
X154333333Y-97880952D01*
X154285714Y-97690476D01*
X154238095Y-97595238D01*
X154142857Y-97500000D01*
X153999999Y-97452381D01*
X153904761Y-97452381D01*
X153761904Y-97500000D01*
X153714285Y-97547619D01*
X155976191Y-95952381D02*
X155738096Y-96952381D01*
X155547619Y-96238095D01*
X155357143Y-96952381D01*
X155119048Y-95952381D01*
X154785715Y-96904762D02*
X154642858Y-96952381D01*
X154404762Y-96952381D01*
X154309524Y-96904762D01*
X154261905Y-96857143D01*
X154214286Y-96761905D01*
X154214286Y-96666667D01*
X154261905Y-96571429D01*
X154309524Y-96523810D01*
X154404762Y-96476190D01*
X154595239Y-96428571D01*
X154690477Y-96380952D01*
X154738096Y-96333333D01*
X154785715Y-96238095D01*
X154785715Y-96142857D01*
X154738096Y-96047619D01*
X154690477Y-96000000D01*
X154595239Y-95952381D01*
X154357143Y-95952381D01*
X154214286Y-96000000D01*
X153833334Y-96047619D02*
X153785715Y-96000000D01*
X153690477Y-95952381D01*
X153452381Y-95952381D01*
X153357143Y-96000000D01*
X153309524Y-96047619D01*
X153261905Y-96142857D01*
X153261905Y-96238095D01*
X153309524Y-96380952D01*
X153880953Y-96952381D01*
X153261905Y-96952381D01*
X152690477Y-96380952D02*
X152785715Y-96333333D01*
X152833334Y-96285714D01*
X152880953Y-96190476D01*
X152880953Y-96142857D01*
X152833334Y-96047619D01*
X152785715Y-96000000D01*
X152690477Y-95952381D01*
X152500000Y-95952381D01*
X152404762Y-96000000D01*
X152357143Y-96047619D01*
X152309524Y-96142857D01*
X152309524Y-96190476D01*
X152357143Y-96285714D01*
X152404762Y-96333333D01*
X152500000Y-96380952D01*
X152690477Y-96380952D01*
X152785715Y-96428571D01*
X152833334Y-96476190D01*
X152880953Y-96571429D01*
X152880953Y-96761905D01*
X152833334Y-96857143D01*
X152785715Y-96904762D01*
X152690477Y-96952381D01*
X152500000Y-96952381D01*
X152404762Y-96904762D01*
X152357143Y-96857143D01*
X152309524Y-96761905D01*
X152309524Y-96571429D01*
X152357143Y-96476190D01*
X152404762Y-96428571D01*
X152500000Y-96380952D01*
X151357143Y-96952381D02*
X151928572Y-96952381D01*
X151642858Y-96952381D02*
X151642858Y-95952381D01*
X151738096Y-96095238D01*
X151833334Y-96190476D01*
X151928572Y-96238095D01*
X150976191Y-96047619D02*
X150928572Y-96000000D01*
X150833334Y-95952381D01*
X150595238Y-95952381D01*
X150500000Y-96000000D01*
X150452381Y-96047619D01*
X150404762Y-96142857D01*
X150404762Y-96238095D01*
X150452381Y-96380952D01*
X151023810Y-96952381D01*
X150404762Y-96952381D01*
X149642857Y-96428571D02*
X149500000Y-96476190D01*
X149452381Y-96523810D01*
X149404762Y-96619048D01*
X149404762Y-96761905D01*
X149452381Y-96857143D01*
X149500000Y-96904762D01*
X149595238Y-96952381D01*
X149976191Y-96952381D01*
X149976191Y-95952381D01*
X149642857Y-95952381D01*
X149547619Y-96000000D01*
X149500000Y-96047619D01*
X149452381Y-96142857D01*
X149452381Y-96238095D01*
X149500000Y-96333333D01*
X149547619Y-96380952D01*
X149642857Y-96428571D01*
X149976191Y-96428571D01*
X148214286Y-96952381D02*
X148214286Y-96285714D01*
X148214286Y-96476190D02*
X148166667Y-96380952D01*
X148119048Y-96333333D01*
X148023810Y-96285714D01*
X147928571Y-96285714D01*
X147071428Y-96952381D02*
X147642857Y-96952381D01*
X147357143Y-96952381D02*
X147357143Y-95952381D01*
X147452381Y-96095238D01*
X147547619Y-96190476D01*
X147642857Y-96238095D01*
X146309523Y-96428571D02*
X146166666Y-96476190D01*
X146119047Y-96523810D01*
X146071428Y-96619048D01*
X146071428Y-96761905D01*
X146119047Y-96857143D01*
X146166666Y-96904762D01*
X146261904Y-96952381D01*
X146642857Y-96952381D01*
X146642857Y-95952381D01*
X146309523Y-95952381D01*
X146214285Y-96000000D01*
X146166666Y-96047619D01*
X146119047Y-96142857D01*
X146119047Y-96238095D01*
X146166666Y-96333333D01*
X146214285Y-96380952D01*
X146309523Y-96428571D01*
X146642857Y-96428571D01*
X153595238Y-94928571D02*
X153261904Y-94928571D01*
X153119047Y-95452381D02*
X153595238Y-95452381D01*
X153595238Y-94452381D01*
X153119047Y-94452381D01*
X152785714Y-94452381D02*
X152119047Y-95452381D01*
X152119047Y-94452381D02*
X152785714Y-95452381D01*
X151738095Y-94928571D02*
X151404761Y-94928571D01*
X151261904Y-95452381D02*
X151738095Y-95452381D01*
X151738095Y-94452381D01*
X151261904Y-94452381D01*
X150357142Y-95452381D02*
X150833333Y-95452381D01*
X150833333Y-94452381D01*
X149833333Y-94452381D02*
X149642856Y-94452381D01*
X149547618Y-94500000D01*
X149452380Y-94595238D01*
X149404761Y-94785714D01*
X149404761Y-95119048D01*
X149452380Y-95309524D01*
X149547618Y-95404762D01*
X149642856Y-95452381D01*
X149833333Y-95452381D01*
X149928571Y-95404762D01*
X150023809Y-95309524D01*
X150071428Y-95119048D01*
X150071428Y-94785714D01*
X150023809Y-94595238D01*
X149928571Y-94500000D01*
X149833333Y-94452381D01*
X148976190Y-95452381D02*
X148976190Y-94452381D01*
X148404761Y-95452381D01*
X148404761Y-94452381D01*
X155501904Y-99290000D02*
X155597142Y-99242381D01*
X155739999Y-99242381D01*
X155882857Y-99290000D01*
X155978095Y-99385238D01*
X156025714Y-99480476D01*
X156073333Y-99670952D01*
X156073333Y-99813810D01*
X156025714Y-100004286D01*
X155978095Y-100099524D01*
X155882857Y-100194762D01*
X155739999Y-100242381D01*
X155644761Y-100242381D01*
X155501904Y-100194762D01*
X155454285Y-100147143D01*
X155454285Y-99813810D01*
X155644761Y-99813810D01*
X155025714Y-100242381D02*
X155025714Y-99242381D01*
X154454285Y-100242381D01*
X154454285Y-99242381D01*
X153978095Y-100242381D02*
X153978095Y-99242381D01*
X153740000Y-99242381D01*
X153597142Y-99290000D01*
X153501904Y-99385238D01*
X153454285Y-99480476D01*
X153406666Y-99670952D01*
X153406666Y-99813810D01*
X153454285Y-100004286D01*
X153501904Y-100099524D01*
X153597142Y-100194762D01*
X153740000Y-100242381D01*
X153978095Y-100242381D01*
X152660000Y-100242381D02*
X152660000Y-99242381D01*
X152421905Y-99242381D01*
X152279047Y-99290000D01*
X152183809Y-99385238D01*
X152136190Y-99480476D01*
X152088571Y-99670952D01*
X152088571Y-99813810D01*
X152136190Y-100004286D01*
X152183809Y-100099524D01*
X152279047Y-100194762D01*
X152421905Y-100242381D01*
X152660000Y-100242381D01*
X151660000Y-100242381D02*
X151660000Y-99242381D01*
X150405714Y-100202381D02*
X150405714Y-99202381D01*
X150167619Y-99202381D01*
X150024761Y-99250000D01*
X149929523Y-99345238D01*
X149881904Y-99440476D01*
X149834285Y-99630952D01*
X149834285Y-99773810D01*
X149881904Y-99964286D01*
X149929523Y-100059524D01*
X150024761Y-100154762D01*
X150167619Y-100202381D01*
X150405714Y-100202381D01*
X149215238Y-99202381D02*
X149024761Y-99202381D01*
X148929523Y-99250000D01*
X148834285Y-99345238D01*
X148786666Y-99535714D01*
X148786666Y-99869048D01*
X148834285Y-100059524D01*
X148929523Y-100154762D01*
X149024761Y-100202381D01*
X149215238Y-100202381D01*
X149310476Y-100154762D01*
X149405714Y-100059524D01*
X149453333Y-99869048D01*
X149453333Y-99535714D01*
X149405714Y-99345238D01*
X149310476Y-99250000D01*
X149215238Y-99202381D01*
X147290476Y-99282381D02*
X147766667Y-99282381D01*
X147814286Y-99758571D01*
X147766667Y-99710952D01*
X147671429Y-99663333D01*
X147433333Y-99663333D01*
X147338095Y-99710952D01*
X147290476Y-99758571D01*
X147242857Y-99853810D01*
X147242857Y-100091905D01*
X147290476Y-100187143D01*
X147338095Y-100234762D01*
X147433333Y-100282381D01*
X147671429Y-100282381D01*
X147766667Y-100234762D01*
X147814286Y-100187143D01*
X146957143Y-99282381D02*
X146623810Y-100282381D01*
X146290476Y-99282381D01*
M02*
