G04 #@! TF.FileFunction,Legend,Bot*
%FSLAX46Y46*%
G04 Gerber Fmt 4.6, Leading zero omitted, Abs format (unit mm)*
G04 Created by KiCad (PCBNEW 4.0.1-stable) date 2/4/2016 5:51:54 PM*
%MOMM*%
G01*
G04 APERTURE LIST*
%ADD10C,0.100000*%
%ADD11C,0.300000*%
%ADD12C,0.500000*%
%ADD13C,0.150000*%
G04 APERTURE END LIST*
D10*
X189461889Y-57756392D02*
X188900451Y-57906912D01*
X189024149Y-57389084D02*
X188381362Y-58155129D01*
X188673189Y-58400001D01*
X188776754Y-58424740D01*
X188843841Y-58418871D01*
X188941537Y-58376523D01*
X189033364Y-58267088D01*
X189058104Y-58163523D01*
X189052234Y-58096436D01*
X189009887Y-57998740D01*
X188718060Y-57753868D01*
X190051412Y-58313222D02*
X190009064Y-58215526D01*
X189863150Y-58093090D01*
X189759585Y-58068350D01*
X189661889Y-58110698D01*
X189417017Y-58402525D01*
X189392277Y-58506090D01*
X189434625Y-58603786D01*
X189580539Y-58726223D01*
X189684104Y-58750962D01*
X189781800Y-58708615D01*
X189843019Y-58635657D01*
X189539453Y-58256611D01*
X189945322Y-59032312D02*
X190556238Y-58674660D01*
X190310105Y-59338401D01*
X192015371Y-59899018D02*
X191577631Y-59531710D01*
X191796501Y-59715364D02*
X191153713Y-60481408D01*
X191172583Y-60310755D01*
X191160845Y-60176581D01*
X191118497Y-60078885D01*
X192123544Y-60362759D02*
X192488328Y-60668848D01*
X192234241Y-60082671D02*
X191846801Y-61062978D01*
X192744938Y-60511196D01*
X192965890Y-61877681D02*
X192971760Y-61944768D01*
X193014107Y-62042464D01*
X193196500Y-62195509D01*
X193300065Y-62220249D01*
X193367152Y-62214379D01*
X193464848Y-62172032D01*
X193526066Y-62099075D01*
X193581414Y-61959032D01*
X193510982Y-61153984D01*
X193985200Y-61551900D01*
X193816630Y-62715861D02*
X193889587Y-62777079D01*
X193993153Y-62801819D01*
X194060240Y-62795949D01*
X194157936Y-62753602D01*
X194316850Y-62638297D01*
X194469895Y-62455905D01*
X194555853Y-62279383D01*
X194580592Y-62175818D01*
X194574723Y-62108731D01*
X194532375Y-62011035D01*
X194459418Y-61949816D01*
X194355852Y-61925077D01*
X194288765Y-61930946D01*
X194191069Y-61973294D01*
X194032155Y-62088598D01*
X193879110Y-62270990D01*
X193793153Y-62447512D01*
X193768413Y-62551077D01*
X193774282Y-62618165D01*
X193816630Y-62715861D01*
X195444333Y-62776258D02*
X195006593Y-62408950D01*
X195225462Y-62592604D02*
X194582675Y-63358648D01*
X194601545Y-63187996D01*
X194589806Y-63053821D01*
X194547458Y-62956125D01*
X195458155Y-64093263D02*
X195312241Y-63970827D01*
X195269893Y-63873131D01*
X195264024Y-63806044D01*
X195282894Y-63635391D01*
X195368851Y-63458869D01*
X195613723Y-63167042D01*
X195711419Y-63124695D01*
X195778506Y-63118825D01*
X195882072Y-63143565D01*
X196027986Y-63266001D01*
X196070333Y-63363697D01*
X196076203Y-63430784D01*
X196051463Y-63534350D01*
X195898419Y-63716741D01*
X195800722Y-63759089D01*
X195733635Y-63764959D01*
X195630069Y-63740219D01*
X195484155Y-63617783D01*
X195441808Y-63520087D01*
X195435938Y-63453000D01*
X195460679Y-63349433D01*
X185190968Y-57924074D02*
X186016147Y-57311074D01*
X185702927Y-57980685D01*
X186307974Y-57555945D01*
X185847578Y-58475034D01*
X186715105Y-57959731D02*
X186855148Y-58015079D01*
X187037540Y-58168124D01*
X187079888Y-58265820D01*
X187085757Y-58332907D01*
X187061018Y-58436473D01*
X186999800Y-58509429D01*
X186902104Y-58551777D01*
X186835017Y-58557646D01*
X186731451Y-58532908D01*
X186554928Y-58446950D01*
X186451363Y-58422210D01*
X186384275Y-58428080D01*
X186286579Y-58470427D01*
X186225362Y-58543384D01*
X186200622Y-58646949D01*
X186206491Y-58714036D01*
X186248839Y-58811732D01*
X186431231Y-58964778D01*
X186571275Y-59020126D01*
X186893710Y-59228519D02*
X186899579Y-59295606D01*
X186941927Y-59393302D01*
X187124319Y-59546347D01*
X187227884Y-59571087D01*
X187294972Y-59565218D01*
X187392668Y-59522870D01*
X187453886Y-59449913D01*
X187509234Y-59309870D01*
X187438801Y-58504822D01*
X187913020Y-58902739D01*
X187983451Y-59707785D02*
X187879886Y-59683046D01*
X187812799Y-59688915D01*
X187715103Y-59731263D01*
X187684494Y-59767741D01*
X187659754Y-59871307D01*
X187665624Y-59938394D01*
X187707971Y-60036090D01*
X187853885Y-60158526D01*
X187957451Y-60183266D01*
X188024538Y-60177396D01*
X188122234Y-60135049D01*
X188152843Y-60098570D01*
X188177582Y-59995005D01*
X188171713Y-59927918D01*
X188129365Y-59830222D01*
X187983451Y-59707785D01*
X187941104Y-59610089D01*
X187935234Y-59543002D01*
X187959975Y-59439436D01*
X188082410Y-59293523D01*
X188180106Y-59251175D01*
X188247194Y-59245306D01*
X188350759Y-59270045D01*
X188496673Y-59392482D01*
X188539020Y-59490178D01*
X188544890Y-59557265D01*
X188520150Y-59660830D01*
X188397715Y-59806743D01*
X188300018Y-59849092D01*
X188232931Y-59854961D01*
X188129365Y-59830222D01*
X189372152Y-60127096D02*
X188934412Y-59759788D01*
X189153282Y-59943442D02*
X188510494Y-60709486D01*
X188529364Y-60538834D01*
X188517626Y-60404659D01*
X188475278Y-60306963D01*
X189082408Y-61065055D02*
X189088278Y-61132142D01*
X189130625Y-61229838D01*
X189313018Y-61382883D01*
X189416583Y-61407623D01*
X189483670Y-61401754D01*
X189581366Y-61359406D01*
X189642584Y-61286449D01*
X189697932Y-61146406D01*
X189627500Y-60341358D01*
X190101718Y-60739275D01*
X190348673Y-61630279D02*
X190488716Y-61685628D01*
X190555804Y-61679758D01*
X190653500Y-61637410D01*
X190745327Y-61527975D01*
X190770067Y-61424410D01*
X190764197Y-61357323D01*
X190721850Y-61259627D01*
X190430023Y-61014755D01*
X189787235Y-61780799D01*
X190042584Y-61995062D01*
X190146149Y-62019802D01*
X190213236Y-62013932D01*
X190310932Y-61971585D01*
X190372150Y-61898628D01*
X190396890Y-61795063D01*
X190391020Y-61727976D01*
X190348673Y-61630279D01*
X190093324Y-61416017D01*
X192144504Y-62453375D02*
X191779720Y-62147285D01*
X191136933Y-62913330D01*
X192063153Y-63068899D02*
X192318502Y-63283162D01*
X192764635Y-62973727D02*
X192399852Y-62667637D01*
X191757064Y-63433682D01*
X192121847Y-63739772D01*
X193092939Y-63249207D02*
X192450152Y-64015252D01*
X192632543Y-64168296D01*
X192772588Y-64223645D01*
X192906762Y-64211907D01*
X193004458Y-64169559D01*
X193163372Y-64054255D01*
X193255199Y-63944819D01*
X193341157Y-63768297D01*
X193365896Y-63664732D01*
X193354157Y-63530557D01*
X193275331Y-63402252D01*
X193092939Y-63249207D01*
X194880377Y-64749045D02*
X194318939Y-64899566D01*
X194442637Y-64381738D02*
X193799849Y-65147782D01*
X194091676Y-65392654D01*
X194195242Y-65417394D01*
X194262329Y-65411524D01*
X194360025Y-65369177D01*
X194451852Y-65259742D01*
X194476591Y-65156177D01*
X194470722Y-65089089D01*
X194428374Y-64991393D01*
X194136547Y-64746521D01*
X195208681Y-65024526D02*
X194780156Y-65535222D01*
X194565894Y-65790570D02*
X194560024Y-65723483D01*
X194627112Y-65717613D01*
X194632981Y-65784701D01*
X194565894Y-65790570D01*
X194627112Y-65717613D01*
X195144939Y-65841311D02*
X195573464Y-65330615D01*
X195206157Y-65768355D02*
X195212026Y-65835442D01*
X195254374Y-65933138D01*
X195363809Y-66024965D01*
X195467375Y-66049705D01*
X195565071Y-66007357D01*
X195901769Y-65606095D01*
X196166332Y-66698362D02*
X196686684Y-66078230D01*
X196711423Y-65974665D01*
X196705554Y-65907578D01*
X196663206Y-65809881D01*
X196553771Y-65718054D01*
X196450205Y-65693315D01*
X196564248Y-66224143D02*
X196521901Y-66126447D01*
X196375987Y-66004011D01*
X196272421Y-65979272D01*
X196205334Y-65985141D01*
X196107638Y-66027489D01*
X195923984Y-66246359D01*
X195899245Y-66349924D01*
X195905114Y-66417012D01*
X195947462Y-66514708D01*
X196093375Y-66637144D01*
X196196941Y-66661883D01*
D11*
X157112073Y-69078289D02*
X157195096Y-68868223D01*
X157424663Y-68594636D01*
X157571207Y-68531114D01*
X157671838Y-68522310D01*
X157827186Y-68559419D01*
X157936621Y-68651246D01*
X158000143Y-68797790D01*
X158008947Y-68898421D01*
X157971837Y-69053769D01*
X157842901Y-69318552D01*
X157805791Y-69473901D01*
X157814596Y-69574532D01*
X157878117Y-69721076D01*
X157987552Y-69812903D01*
X158142900Y-69850012D01*
X158243531Y-69841208D01*
X158390076Y-69777687D01*
X158619643Y-69504100D01*
X158702665Y-69294034D01*
X158489475Y-67436765D02*
X158342931Y-67500287D01*
X158159277Y-67719156D01*
X158122167Y-67874505D01*
X158130972Y-67975136D01*
X158194493Y-68121680D01*
X158522797Y-68397160D01*
X158678146Y-68434269D01*
X158778777Y-68425466D01*
X158925322Y-68361944D01*
X159108975Y-68143074D01*
X159146084Y-67987726D01*
X158985718Y-66734242D02*
X158948608Y-66889591D01*
X158957413Y-66990222D01*
X159020934Y-67136766D01*
X159349238Y-67412246D01*
X159504587Y-67449355D01*
X159605218Y-67440552D01*
X159751763Y-67377030D01*
X159889503Y-67212878D01*
X159926612Y-67057530D01*
X159917807Y-66956898D01*
X159854286Y-66810354D01*
X159525982Y-66534873D01*
X159370633Y-66497765D01*
X159270002Y-66506569D01*
X159123458Y-66570090D01*
X158985718Y-66734242D01*
X160348637Y-66665703D02*
X160715944Y-66227963D01*
X160869399Y-66822944D02*
X159884485Y-65996503D01*
X159820963Y-65849959D01*
X159858073Y-65694610D01*
X159949900Y-65585176D01*
X160899598Y-66009094D02*
X161266905Y-65571354D01*
X161420360Y-66166335D02*
X160435445Y-65339893D01*
X160371924Y-65193349D01*
X160409034Y-65038001D01*
X160500861Y-64928566D01*
X162217265Y-63105282D02*
X162116633Y-63114086D01*
X161924176Y-63232325D01*
X161832349Y-63341760D01*
X161749326Y-63551825D01*
X161766934Y-63753087D01*
X161830455Y-63899631D01*
X162003412Y-64138003D01*
X162167564Y-64275743D01*
X162432348Y-64404679D01*
X162587696Y-64441788D01*
X162788958Y-64424180D01*
X162981416Y-64305941D01*
X163073242Y-64196507D01*
X163156265Y-63986440D01*
X163147461Y-63885809D01*
X162521050Y-62520998D02*
X163670117Y-63485179D01*
X162934271Y-62028541D02*
X163536163Y-62533588D01*
X163599684Y-62680132D01*
X163562575Y-62835481D01*
X163424835Y-62999633D01*
X163278290Y-63063155D01*
X163177659Y-63071958D01*
X163815429Y-61089540D02*
X163668885Y-61153062D01*
X163485232Y-61371931D01*
X163448122Y-61527279D01*
X163511643Y-61673823D01*
X163949383Y-62041131D01*
X164104732Y-62078240D01*
X164251276Y-62014719D01*
X164434930Y-61795849D01*
X164472038Y-61640501D01*
X164408517Y-61493956D01*
X164299083Y-61402129D01*
X163730514Y-61857478D01*
X164219846Y-60496452D02*
X164985890Y-61139239D01*
X164767020Y-60955585D02*
X164922368Y-60992695D01*
X165022999Y-60983891D01*
X165169544Y-60920370D01*
X165261371Y-60810935D01*
X164816720Y-59785125D02*
X165965787Y-60749307D01*
X165346286Y-60042997D02*
X165184027Y-59347386D01*
X165950071Y-59990174D02*
X165145024Y-60060605D01*
X165734988Y-58690776D02*
X165697878Y-58846124D01*
X165706683Y-58946755D01*
X165770204Y-59093299D01*
X166098508Y-59368780D01*
X166253857Y-59405888D01*
X166354488Y-59397085D01*
X166501033Y-59333563D01*
X166638773Y-59169411D01*
X166675881Y-59014063D01*
X166667077Y-58913431D01*
X166603556Y-58766887D01*
X166275252Y-58491407D01*
X166119903Y-58454298D01*
X166019272Y-58463102D01*
X165872728Y-58526624D01*
X165734988Y-58690776D01*
X167097907Y-58622237D02*
X167465214Y-58184497D01*
X166469603Y-57815296D02*
X167454517Y-58641737D01*
X167609865Y-58678847D01*
X167756410Y-58615325D01*
X167848236Y-58505890D01*
X167029367Y-57259318D02*
X167066477Y-57103970D01*
X167250131Y-56885099D01*
X167396674Y-56821577D01*
X167552022Y-56858687D01*
X167606740Y-56904601D01*
X167670262Y-57051145D01*
X167633153Y-57206493D01*
X167495412Y-57370646D01*
X167458303Y-57525994D01*
X167521824Y-57672538D01*
X167576542Y-57718452D01*
X167731890Y-57755561D01*
X167878435Y-57692039D01*
X168016175Y-57527887D01*
X168053284Y-57372538D01*
X167801092Y-56228490D02*
X168950158Y-57192671D01*
X168330657Y-56486362D02*
X168168398Y-55790750D01*
X168934443Y-56433538D02*
X168129396Y-56503970D01*
X169255837Y-56050515D02*
X168719360Y-55134140D01*
X169714971Y-55503341D02*
X168719360Y-55134140D01*
X168353945Y-55014008D01*
X168253314Y-55022812D01*
X168106771Y-55086334D01*
D12*
X184212857Y-94105714D02*
X183212857Y-94105714D01*
X182784286Y-95677143D02*
X184212857Y-95677143D01*
X184212857Y-92677143D01*
X182784286Y-92677143D01*
X181784286Y-95677143D02*
X180212857Y-93677143D01*
X181784286Y-93677143D02*
X180212857Y-95677143D01*
X177927143Y-95534286D02*
X178212857Y-95677143D01*
X178784286Y-95677143D01*
X179070000Y-95534286D01*
X179212857Y-95248571D01*
X179212857Y-94105714D01*
X179070000Y-93820000D01*
X178784286Y-93677143D01*
X178212857Y-93677143D01*
X177927143Y-93820000D01*
X177784286Y-94105714D01*
X177784286Y-94391429D01*
X179212857Y-94677143D01*
X176070000Y-95677143D02*
X176355714Y-95534286D01*
X176498571Y-95248571D01*
X176498571Y-92677143D01*
X174498571Y-95677143D02*
X174784285Y-95534286D01*
X174927142Y-95391429D01*
X175069999Y-95105714D01*
X175069999Y-94248571D01*
X174927142Y-93962857D01*
X174784285Y-93820000D01*
X174498571Y-93677143D01*
X174069999Y-93677143D01*
X173784285Y-93820000D01*
X173641428Y-93962857D01*
X173498571Y-94248571D01*
X173498571Y-95105714D01*
X173641428Y-95391429D01*
X173784285Y-95534286D01*
X174069999Y-95677143D01*
X174498571Y-95677143D01*
X172212856Y-93677143D02*
X172212856Y-95677143D01*
X172212856Y-93962857D02*
X172069999Y-93820000D01*
X171784285Y-93677143D01*
X171355713Y-93677143D01*
X171069999Y-93820000D01*
X170927142Y-94105714D01*
X170927142Y-95677143D01*
D13*
X160039408Y-83768639D02*
X160089051Y-83706084D01*
X160186156Y-83660803D01*
X160298354Y-83647890D01*
X160393276Y-83682440D01*
X160455832Y-83732082D01*
X160548574Y-83846461D01*
X160593854Y-83943566D01*
X160621861Y-84088131D01*
X160619679Y-84167962D01*
X160585130Y-84262884D01*
X160503119Y-84340534D01*
X160438383Y-84370721D01*
X160326184Y-84383633D01*
X160278723Y-84366358D01*
X160173068Y-84139781D01*
X160302541Y-84079407D01*
X160017598Y-84566936D02*
X159700634Y-83887206D01*
X159629179Y-84748059D01*
X159312216Y-84068328D01*
X159305499Y-84898993D02*
X158988535Y-84219263D01*
X158826694Y-84294730D01*
X158744683Y-84372379D01*
X158710134Y-84467302D01*
X158707952Y-84547132D01*
X158735958Y-84691698D01*
X158781239Y-84788802D01*
X158873981Y-84903181D01*
X158936537Y-84952824D01*
X159031459Y-84987373D01*
X159143658Y-84974461D01*
X159305499Y-84898993D01*
X158777724Y-78392483D02*
X158647488Y-77653877D01*
X158366114Y-77703491D01*
X158301972Y-77751066D01*
X158273002Y-77792439D01*
X158250234Y-77868985D01*
X158268839Y-77974500D01*
X158316414Y-78038641D01*
X158357788Y-78067612D01*
X158434333Y-78090380D01*
X158715707Y-78040766D01*
X157979225Y-77771710D02*
X157933603Y-78541325D01*
X157699890Y-78038555D01*
X157652229Y-78590939D01*
X157346134Y-77883341D01*
X156772936Y-78745982D02*
X156957121Y-78350852D01*
X157194997Y-78671561D02*
X157064761Y-77932955D01*
X156783387Y-77982569D01*
X156719246Y-78030144D01*
X156690275Y-78071517D01*
X156667507Y-78148062D01*
X156686112Y-78253578D01*
X156733687Y-78317719D01*
X156775061Y-78346689D01*
X156851606Y-78369457D01*
X157132980Y-78319844D01*
X199001865Y-77961925D02*
X199078410Y-77939157D01*
X199183926Y-77957762D01*
X199283239Y-78011538D01*
X199341178Y-78094286D01*
X199363948Y-78170830D01*
X199374312Y-78317719D01*
X199355707Y-78423234D01*
X199295729Y-78557719D01*
X199248153Y-78621861D01*
X199165407Y-78679800D01*
X199053689Y-78696368D01*
X198983346Y-78683964D01*
X198884032Y-78630187D01*
X198855062Y-78588813D01*
X198898474Y-78342611D01*
X199039161Y-78367418D01*
X198526114Y-78603342D02*
X198656350Y-77864736D01*
X198104053Y-78528921D01*
X198234289Y-77790315D01*
X197752337Y-78466904D02*
X197882573Y-77728298D01*
X197706714Y-77697290D01*
X197594997Y-77713856D01*
X197512251Y-77771796D01*
X197464675Y-77835937D01*
X197404697Y-77970422D01*
X197386091Y-78075938D01*
X197396456Y-78222826D01*
X197419225Y-78299372D01*
X197477164Y-78382118D01*
X197576478Y-78435895D01*
X197752337Y-78466904D01*
X199413166Y-72069750D02*
X199302308Y-71327988D01*
X199019732Y-71370219D01*
X198954367Y-71416099D01*
X198924323Y-71456699D01*
X198899560Y-71532623D01*
X198915396Y-71638589D01*
X198961276Y-71703953D01*
X199001877Y-71733997D01*
X199077800Y-71758761D01*
X199360376Y-71716530D01*
X198631190Y-71428287D02*
X198565438Y-72196444D01*
X198344966Y-71687729D01*
X198282861Y-72238675D01*
X197995394Y-71523308D01*
X197399811Y-72370648D02*
X197594276Y-71980475D01*
X197823676Y-72307301D02*
X197712819Y-71565539D01*
X197430242Y-71607770D01*
X197364877Y-71653650D01*
X197334833Y-71694250D01*
X197310070Y-71770174D01*
X197325906Y-71876140D01*
X197371786Y-71941504D01*
X197412388Y-71971548D01*
X197488310Y-71996312D01*
X197770887Y-71954081D01*
X180817650Y-54247972D02*
X181556255Y-54378208D01*
X180879667Y-53896255D02*
X181618273Y-54026491D01*
X180954088Y-53474194D01*
X181692693Y-53604430D01*
X175214518Y-55031349D02*
X175202067Y-54889036D01*
X175160264Y-54820992D01*
X175082881Y-54756060D01*
X174937455Y-54732933D01*
X174688406Y-54754722D01*
X174549205Y-54802751D01*
X174484275Y-54880133D01*
X174454921Y-54954402D01*
X174467372Y-55096716D01*
X174509176Y-55164760D01*
X174586558Y-55229692D01*
X174731984Y-55252819D01*
X174981033Y-55231030D01*
X175120233Y-55183001D01*
X175185165Y-55105619D01*
X175214518Y-55031349D01*
X175158489Y-54390939D02*
X174553657Y-54443855D01*
X174479388Y-54414501D01*
X174440697Y-54382036D01*
X174398892Y-54313992D01*
X174386442Y-54171678D01*
X174415795Y-54097409D01*
X174448261Y-54058718D01*
X174516304Y-54016914D01*
X175121137Y-53963998D01*
X175099348Y-53714949D02*
X175061995Y-53288009D01*
X174333526Y-53566847D02*
X175080672Y-53501480D01*
M02*
