M48
;DRILL file {KiCad 4.0.1-stable} date 2/4/2016 5:52:01 PM
;FORMAT={-:-/ absolute / inch / decimal}
FMAT,2
INCH,TZ
T1C0.024
T2C0.030
%
G90
G05
M72
T1
X6.126Y-2.9602
X6.1689Y-3.2264
X6.1709Y-2.6819
X6.2776Y-2.9535
X6.2961Y-3.4713
X6.2984Y-2.4323
X6.313Y-2.7315
X6.313Y-3.1768
X6.4154Y-2.5268
X6.4169Y-3.3823
X6.4945Y-3.6689
X6.4957Y-2.2374
X6.5768Y-2.3638
X6.5783Y-3.5457
X6.7354Y-2.113
X6.7378Y-3.7937
X6.7827Y-2.2594
X6.7831Y-3.6488
X7.0071Y-3.6839
X7.0083Y-2.0693
X7.0087Y-3.8358
X7.2327Y-3.6504
X7.2346Y-2.2583
X7.2787Y-2.1118
X7.2823Y-3.7921
X7.4386Y-3.5457
X7.4413Y-2.3661
X7.5264Y-3.6673
X7.5272Y-2.2362
X7.6016Y-3.3831
X7.6031Y-2.5248
X7.7039Y-3.1791
X7.7047Y-2.7272
X7.7217Y-2.4343
X7.7217Y-3.4736
X7.7402Y-2.9543
X7.8465Y-3.224
X7.848Y-2.6791
X7.8921Y-2.9543
T2
X6.1118Y-3.0953
X6.2024Y-3.3642
X6.8657Y-2.0504
X7.1512Y-2.048
X7.9063Y-3.0953
X7.9071Y-2.8102
T0
M30
