G04 #@! TF.FileFunction,Legend,Bot*
%FSLAX46Y46*%
G04 Gerber Fmt 4.6, Leading zero omitted, Abs format (unit mm)*
G04 Created by KiCad (PCBNEW 4.0.1-stable) date 2/5/2016 11:19:16 AM*
%MOMM*%
G01*
G04 APERTURE LIST*
%ADD10C,0.100000*%
%ADD11C,0.500000*%
%ADD12C,0.300000*%
%ADD13C,0.150000*%
G04 APERTURE END LIST*
D10*
D11*
X180002195Y-75044728D02*
X180458222Y-76297651D01*
X182622542Y-76118005D02*
X181971075Y-74328114D01*
X178212305Y-75696195D01*
X178863772Y-77486086D01*
X183078569Y-77370929D02*
X181289335Y-80251863D01*
X180572722Y-78282983D02*
X183795183Y-79339809D01*
X184658541Y-82268780D02*
X184707236Y-81845655D01*
X184446649Y-81129699D01*
X184137367Y-80836868D01*
X183714242Y-80788172D01*
X182282330Y-81309346D01*
X181989498Y-81618628D01*
X181940802Y-82041753D01*
X182201389Y-82757709D01*
X182510671Y-83050540D01*
X182933797Y-83099237D01*
X183291775Y-82968943D01*
X182998285Y-81048759D01*
X185684437Y-84530492D02*
X185375154Y-84237659D01*
X184952029Y-84188964D01*
X181730226Y-85361605D01*
X186401050Y-86499371D02*
X186091768Y-86206539D01*
X185847631Y-86092697D01*
X185424507Y-86044002D01*
X184350573Y-86434882D01*
X184057741Y-86744164D01*
X183943898Y-86988300D01*
X183895203Y-87411425D01*
X184090643Y-87948392D01*
X184399925Y-88241223D01*
X184644062Y-88355066D01*
X185067186Y-88403761D01*
X186141120Y-88012881D01*
X186433952Y-87703599D01*
X186547794Y-87459462D01*
X186596490Y-87036338D01*
X186401050Y-86499371D01*
X184937550Y-90275250D02*
X187443397Y-89363196D01*
X185295529Y-90144957D02*
X185181686Y-90389092D01*
X185132990Y-90812218D01*
X185328430Y-91349184D01*
X185637712Y-91642016D01*
X186060838Y-91690712D01*
X188029718Y-90974098D01*
D12*
X122013374Y-115537636D02*
X122039519Y-115440063D01*
X122029949Y-115280630D01*
X121851378Y-114971335D01*
X121718090Y-114883332D01*
X121620516Y-114857187D01*
X121461084Y-114866757D01*
X121337367Y-114938186D01*
X121187504Y-115107187D01*
X120873768Y-116278066D01*
X120409483Y-115473900D01*
X121244235Y-113919734D02*
X121172807Y-113796016D01*
X121039519Y-113708013D01*
X120941945Y-113681868D01*
X120782513Y-113691437D01*
X120499363Y-113772436D01*
X120190068Y-113951007D01*
X119978347Y-114155723D01*
X119890344Y-114289010D01*
X119864199Y-114386584D01*
X119873769Y-114546016D01*
X119945197Y-114669734D01*
X120078484Y-114757738D01*
X120176058Y-114783882D01*
X120335490Y-114774312D01*
X120618640Y-114693315D01*
X120927935Y-114514743D01*
X121139656Y-114310027D01*
X121227660Y-114176740D01*
X121253805Y-114079166D01*
X121244235Y-113919734D01*
X118980912Y-112999542D02*
X119409483Y-113741850D01*
X119195197Y-113370696D02*
X120494235Y-112620696D01*
X120380087Y-112851556D01*
X120327798Y-113046704D01*
X120337367Y-113206136D01*
X119637093Y-111136081D02*
X119779950Y-111383517D01*
X119789519Y-111542949D01*
X119763374Y-111640523D01*
X119649226Y-111871383D01*
X119437505Y-112076100D01*
X118942633Y-112361814D01*
X118783201Y-112371383D01*
X118685628Y-112345239D01*
X118552340Y-112257235D01*
X118409483Y-112009799D01*
X118399913Y-111850367D01*
X118426058Y-111752793D01*
X118514062Y-111619507D01*
X118823357Y-111440935D01*
X118982789Y-111431365D01*
X119080362Y-111457510D01*
X119213649Y-111545514D01*
X119356506Y-111792949D01*
X119366076Y-111952382D01*
X119339932Y-112049955D01*
X119251928Y-112183243D01*
X175985502Y-122569437D02*
X176085274Y-122585240D01*
X176300620Y-122517072D01*
X176416193Y-122433103D01*
X176547569Y-122249363D01*
X176579174Y-122049819D01*
X176552992Y-121892261D01*
X176442840Y-121619128D01*
X176316886Y-121445768D01*
X176091160Y-121256604D01*
X175949404Y-121183015D01*
X175749860Y-121151411D01*
X175534515Y-121219577D01*
X175418942Y-121303547D01*
X175287566Y-121487288D01*
X175271763Y-121587060D01*
X175549389Y-123062873D02*
X174667711Y-121849348D01*
X175029307Y-123440735D02*
X174567476Y-122805079D01*
X174541294Y-122647520D01*
X174614883Y-122505764D01*
X174788243Y-122379810D01*
X174945802Y-122353628D01*
X175045574Y-122369431D01*
X173947158Y-124138672D02*
X174104716Y-124112489D01*
X174335863Y-123944551D01*
X174409453Y-123802795D01*
X174383271Y-123645237D01*
X174047393Y-123182941D01*
X173905637Y-123109352D01*
X173748078Y-123135534D01*
X173516931Y-123303472D01*
X173443342Y-123445229D01*
X173469524Y-123602788D01*
X173553493Y-123718361D01*
X174215332Y-123414088D01*
X173411273Y-124616305D02*
X172823487Y-123807288D01*
X172991427Y-124038437D02*
X172849671Y-123964847D01*
X172749899Y-123949045D01*
X172592340Y-123975227D01*
X172476766Y-124059196D01*
X172660043Y-125162106D02*
X171778365Y-123948580D01*
X172208592Y-124783780D02*
X172197748Y-125497983D01*
X171609963Y-124688966D02*
X172408135Y-124815385D01*
X171504304Y-126001799D02*
X171577894Y-125860043D01*
X171593696Y-125760271D01*
X171567514Y-125602713D01*
X171315606Y-125255992D01*
X171173850Y-125182403D01*
X171074078Y-125166600D01*
X170916519Y-125192782D01*
X170743159Y-125318736D01*
X170669570Y-125460492D01*
X170653767Y-125560265D01*
X170679949Y-125717823D01*
X170931857Y-126064544D01*
X171073614Y-126138133D01*
X171173386Y-126153936D01*
X171330944Y-126127753D01*
X171504304Y-126001799D01*
X170165289Y-125738583D02*
X169702993Y-126074460D01*
X170579713Y-126673554D02*
X169823990Y-125633389D01*
X169682234Y-125559800D01*
X169524674Y-125585982D01*
X169409101Y-125669952D01*
X169902073Y-127077598D02*
X169828484Y-127219354D01*
X169597335Y-127387293D01*
X169439777Y-127413476D01*
X169298021Y-127339887D01*
X169256037Y-127282099D01*
X169229854Y-127124541D01*
X169303443Y-126982785D01*
X169476804Y-126856831D01*
X169550393Y-126715075D01*
X169524211Y-126557516D01*
X169482226Y-126499729D01*
X169340470Y-126426140D01*
X169182911Y-126452322D01*
X169009550Y-126578276D01*
X168935961Y-126720033D01*
X168903892Y-127891109D02*
X168022214Y-126677584D01*
X168452441Y-127512784D02*
X168441597Y-128226986D01*
X167853812Y-127417969D02*
X168651984Y-127544388D01*
X167449302Y-127711862D02*
X167748153Y-128730803D01*
X166871434Y-128131709D02*
X167748153Y-128730803D01*
X168073651Y-128935768D01*
X168173422Y-128951571D01*
X168330980Y-128925388D01*
X181813553Y-116089338D02*
X181737911Y-116302173D01*
X181518032Y-116583605D01*
X181373794Y-116652203D01*
X181273531Y-116664514D01*
X181116983Y-116632848D01*
X181004410Y-116544897D01*
X180935813Y-116400659D01*
X180923502Y-116300396D01*
X180955168Y-116143848D01*
X181074784Y-115874726D01*
X181106450Y-115718177D01*
X181094139Y-115617915D01*
X181025542Y-115473676D01*
X180912969Y-115385725D01*
X180756420Y-115354060D01*
X180656158Y-115366370D01*
X180511919Y-115434968D01*
X180292040Y-115716399D01*
X180216400Y-115929235D01*
X180494278Y-117777932D02*
X180638516Y-117709335D01*
X180814419Y-117484189D01*
X180846085Y-117327640D01*
X180833774Y-117227378D01*
X180765177Y-117083140D01*
X180427458Y-116819285D01*
X180270909Y-116787620D01*
X180170647Y-116799930D01*
X180026408Y-116868528D01*
X179850505Y-117093673D01*
X179818840Y-117250222D01*
X180022854Y-118497346D02*
X180054520Y-118340796D01*
X180042209Y-118240534D01*
X179973612Y-118096296D01*
X179635894Y-117832441D01*
X179479345Y-117800777D01*
X179379083Y-117813087D01*
X179234844Y-117881684D01*
X179102917Y-118050543D01*
X179071252Y-118207092D01*
X179083563Y-118307355D01*
X179152159Y-118451593D01*
X179489878Y-118715448D01*
X179646427Y-118747113D01*
X179746690Y-118734802D01*
X179890927Y-118666204D01*
X180022854Y-118497346D01*
X178663158Y-118613408D02*
X178311351Y-119063700D01*
X178137225Y-118474437D02*
X179150382Y-119266002D01*
X179218980Y-119410240D01*
X179187314Y-119566789D01*
X179099362Y-119679362D01*
X178135448Y-119288846D02*
X177783641Y-119739138D01*
X177609515Y-119149875D02*
X178622672Y-119941440D01*
X178691270Y-120085678D01*
X178659604Y-120242227D01*
X178571652Y-120354800D01*
X127298705Y-123679650D02*
X128164087Y-123573272D01*
X127872245Y-124316631D02*
X128986962Y-123312935D01*
X128604603Y-122888282D01*
X128455930Y-122829913D01*
X128355053Y-122824627D01*
X128201094Y-122867135D01*
X128041849Y-123010519D01*
X127983481Y-123159192D01*
X127978194Y-123260068D01*
X128020702Y-123414027D01*
X128403062Y-123838681D01*
X126539271Y-122729466D02*
X126581779Y-122883424D01*
X126772959Y-123095751D01*
X126921631Y-123154119D01*
X127075589Y-123111611D01*
X127500244Y-122729251D01*
X127558612Y-122580579D01*
X127516104Y-122426620D01*
X127324924Y-122214293D01*
X127176252Y-122155925D01*
X127022293Y-122198433D01*
X126916130Y-122294023D01*
X127287917Y-122920431D01*
X126846974Y-121683475D02*
X125864853Y-122087197D01*
X126369024Y-121152658D01*
X125349682Y-121301544D02*
X125248805Y-121296258D01*
X125243518Y-121397134D01*
X125344395Y-121402421D01*
X125349682Y-121301544D01*
X125243518Y-121397134D01*
X125933581Y-120775799D02*
X125832704Y-120770513D01*
X125827417Y-120871389D01*
X125928294Y-120876676D01*
X125933581Y-120775799D01*
X125827417Y-120871389D01*
X123475102Y-119433108D02*
X124048642Y-120070090D01*
X123761872Y-119751599D02*
X124876589Y-118747903D01*
X124812933Y-118997452D01*
X124802361Y-119199206D01*
X124844868Y-119353165D01*
X123294280Y-118058055D02*
X123097813Y-117946605D01*
X122996937Y-117941318D01*
X122842978Y-117983826D01*
X122683733Y-118127211D01*
X122625364Y-118275883D01*
X122620077Y-118376760D01*
X122662586Y-118530719D01*
X123044946Y-118955373D01*
X124159664Y-117951677D01*
X123825098Y-117580104D01*
X123676426Y-117521736D01*
X123575549Y-117516449D01*
X123421591Y-117558958D01*
X123315427Y-117654548D01*
X123257058Y-117803219D01*
X123251772Y-117904097D01*
X123294280Y-118058055D01*
X123628846Y-118429627D01*
X134033246Y-128082660D02*
X134823401Y-127714071D01*
X134775554Y-128511231D02*
X135525554Y-127212193D01*
X135030683Y-126926479D01*
X134871250Y-126916909D01*
X134773677Y-126943055D01*
X134640389Y-127031058D01*
X134533246Y-127216634D01*
X134523677Y-127376067D01*
X134549821Y-127473640D01*
X134637825Y-127606928D01*
X135132696Y-127892642D01*
X133476516Y-127761231D02*
X133976516Y-126895206D01*
X134226516Y-126462193D02*
X134252661Y-126559767D01*
X134155087Y-126585912D01*
X134128943Y-126488338D01*
X134226516Y-126462193D01*
X134155087Y-126585912D01*
X133357926Y-126538063D02*
X132857926Y-127404088D01*
X133286497Y-126661781D02*
X133260353Y-126564208D01*
X133172349Y-126430920D01*
X132986773Y-126323777D01*
X132827340Y-126314208D01*
X132694052Y-126402211D01*
X132301195Y-127082660D01*
X131625875Y-125538063D02*
X131018732Y-126589665D01*
X131009163Y-126749098D01*
X131035307Y-126846671D01*
X131123311Y-126979958D01*
X131308888Y-127087101D01*
X131468320Y-127096671D01*
X131161589Y-126342230D02*
X131249593Y-126475517D01*
X131497029Y-126618374D01*
X131656461Y-126627944D01*
X131754034Y-126601799D01*
X131887322Y-126513796D01*
X132101607Y-126142642D01*
X132111177Y-125983210D01*
X132085033Y-125885637D01*
X131997029Y-125752348D01*
X131749593Y-125609491D01*
X131590161Y-125599922D01*
X146105150Y-130712823D02*
X145301961Y-132029044D01*
X145361321Y-130921765D01*
X144758501Y-131852463D01*
X144882363Y-130315515D01*
X143965382Y-131519659D02*
X143739512Y-131521374D01*
X143399848Y-131411010D01*
X143286056Y-131298933D01*
X143240196Y-131208927D01*
X143216409Y-131050990D01*
X143260554Y-130915125D01*
X143372631Y-130801332D01*
X143462637Y-130755472D01*
X143620575Y-130731685D01*
X143914378Y-130752042D01*
X144072316Y-130728256D01*
X144162321Y-130682395D01*
X144274399Y-130568603D01*
X144318544Y-130432738D01*
X144294757Y-130274800D01*
X144248897Y-130184795D01*
X144135104Y-130072716D01*
X143795442Y-129962353D01*
X143569571Y-129964068D01*
X143004038Y-129855420D02*
X142958178Y-129765414D01*
X142844385Y-129653336D01*
X142504722Y-129542973D01*
X142346784Y-129566761D01*
X142256779Y-129612621D01*
X142144701Y-129726413D01*
X142100556Y-129862278D01*
X142102270Y-130088149D01*
X142652590Y-131168211D01*
X141769467Y-130881267D01*
X141219147Y-129801205D02*
X141377085Y-129777417D01*
X141467090Y-129731557D01*
X141579168Y-129617764D01*
X141601241Y-129549832D01*
X141577453Y-129391895D01*
X141531594Y-129301889D01*
X141417801Y-129189811D01*
X141146070Y-129101520D01*
X140988133Y-129125308D01*
X140898127Y-129171168D01*
X140786049Y-129284961D01*
X140763977Y-129352893D01*
X140787764Y-129510830D01*
X140833624Y-129600836D01*
X140947416Y-129712914D01*
X141219147Y-129801205D01*
X141332940Y-129913282D01*
X141378799Y-130003288D01*
X141402587Y-130161226D01*
X141314297Y-130432956D01*
X141202218Y-130546748D01*
X141112214Y-130592609D01*
X140954275Y-130616395D01*
X140682545Y-130528105D01*
X140568752Y-130416028D01*
X140522892Y-130326022D01*
X140499105Y-130168084D01*
X140587396Y-129896354D01*
X140699473Y-129782561D01*
X140789479Y-129736701D01*
X140947416Y-129712914D01*
X139052163Y-129998362D02*
X139867354Y-130263233D01*
X139459758Y-130130797D02*
X139923284Y-128704213D01*
X139992931Y-128952156D01*
X140084652Y-129132167D01*
X140198444Y-129244245D01*
X138928083Y-128531062D02*
X138882222Y-128441056D01*
X138768430Y-128328978D01*
X138428767Y-128218615D01*
X138270829Y-128242402D01*
X138180823Y-128288263D01*
X138068746Y-128402055D01*
X138024601Y-128537920D01*
X138026315Y-128763791D01*
X138576635Y-129843853D01*
X137693511Y-129556909D01*
X136849389Y-128456488D02*
X136623518Y-128458203D01*
X136533513Y-128504063D01*
X136421435Y-128617855D01*
X136355217Y-128821653D01*
X136379005Y-128979591D01*
X136424864Y-129069597D01*
X136538658Y-129181674D01*
X137082118Y-129358255D01*
X137545643Y-127931670D01*
X137070115Y-127777162D01*
X136912177Y-127800950D01*
X136822172Y-127846810D01*
X136710094Y-127960603D01*
X136665949Y-128096468D01*
X136689736Y-128254405D01*
X136735596Y-128344411D01*
X136849389Y-128456488D01*
X137324917Y-128610997D01*
X156495713Y-130778571D02*
X155567142Y-130778571D01*
X156067142Y-131350000D01*
X155852856Y-131350000D01*
X155709999Y-131421429D01*
X155638570Y-131492857D01*
X155567142Y-131635714D01*
X155567142Y-131992857D01*
X155638570Y-132135714D01*
X155709999Y-132207143D01*
X155852856Y-132278571D01*
X156281428Y-132278571D01*
X156424285Y-132207143D01*
X156495713Y-132135714D01*
X154638571Y-130778571D02*
X154495714Y-130778571D01*
X154352857Y-130850000D01*
X154281428Y-130921429D01*
X154209999Y-131064286D01*
X154138571Y-131350000D01*
X154138571Y-131707143D01*
X154209999Y-131992857D01*
X154281428Y-132135714D01*
X154352857Y-132207143D01*
X154495714Y-132278571D01*
X154638571Y-132278571D01*
X154781428Y-132207143D01*
X154852857Y-132135714D01*
X154924285Y-131992857D01*
X154995714Y-131707143D01*
X154995714Y-131350000D01*
X154924285Y-131064286D01*
X154852857Y-130921429D01*
X154781428Y-130850000D01*
X154638571Y-130778571D01*
X152352857Y-132278571D02*
X152352857Y-130778571D01*
X151781429Y-130778571D01*
X151638571Y-130850000D01*
X151567143Y-130921429D01*
X151495714Y-131064286D01*
X151495714Y-131278571D01*
X151567143Y-131421429D01*
X151638571Y-131492857D01*
X151781429Y-131564286D01*
X152352857Y-131564286D01*
X150852857Y-132278571D02*
X150852857Y-131278571D01*
X150852857Y-130778571D02*
X150924286Y-130850000D01*
X150852857Y-130921429D01*
X150781429Y-130850000D01*
X150852857Y-130778571D01*
X150852857Y-130921429D01*
X150281428Y-132278571D02*
X149495714Y-131278571D01*
X150281428Y-131278571D02*
X149495714Y-132278571D01*
X148352857Y-132207143D02*
X148495714Y-132278571D01*
X148781428Y-132278571D01*
X148924285Y-132207143D01*
X148995714Y-132064286D01*
X148995714Y-131492857D01*
X148924285Y-131350000D01*
X148781428Y-131278571D01*
X148495714Y-131278571D01*
X148352857Y-131350000D01*
X148281428Y-131492857D01*
X148281428Y-131635714D01*
X148995714Y-131778571D01*
X147424285Y-132278571D02*
X147567143Y-132207143D01*
X147638571Y-132064286D01*
X147638571Y-130778571D01*
D13*
X146062488Y-58906030D02*
X146192724Y-59644635D01*
X146368583Y-59613627D01*
X146467897Y-59559850D01*
X146525836Y-59477103D01*
X146548605Y-59400558D01*
X146558970Y-59253670D01*
X146540365Y-59148155D01*
X146480387Y-59013670D01*
X146432811Y-58949528D01*
X146350064Y-58891588D01*
X146238347Y-58875021D01*
X146062488Y-58906030D01*
X147072018Y-59489592D02*
X147212704Y-59464785D01*
X147276846Y-59417211D01*
X147334786Y-59334463D01*
X147345151Y-59187575D01*
X147301739Y-58941373D01*
X147241760Y-58806888D01*
X147159013Y-58748949D01*
X147082468Y-58726180D01*
X146941782Y-58750986D01*
X146877640Y-58798562D01*
X146819699Y-58881309D01*
X146809335Y-59028197D01*
X146852747Y-59274399D01*
X146912725Y-59408884D01*
X146995472Y-59466824D01*
X147072018Y-59489592D01*
X147705107Y-59377961D02*
X147599678Y-58780042D01*
X147622447Y-58703498D01*
X147651417Y-58662125D01*
X147715559Y-58614549D01*
X147856246Y-58589742D01*
X147932790Y-58612511D01*
X147974164Y-58641480D01*
X148021739Y-58705622D01*
X148127168Y-59303541D01*
X148373370Y-59260129D02*
X148795430Y-59185708D01*
X148454164Y-58484313D02*
X148584400Y-59222918D01*
X154322725Y-58492532D02*
X154192489Y-59231137D01*
X154368348Y-59262146D01*
X154480065Y-59245580D01*
X154562811Y-59187639D01*
X154610387Y-59123498D01*
X154670365Y-58989013D01*
X154688970Y-58883498D01*
X154678606Y-58736610D01*
X154655837Y-58660064D01*
X154597897Y-58577318D01*
X154498584Y-58523540D01*
X154322725Y-58492532D01*
X155061331Y-58622768D02*
X154931095Y-59361373D01*
X155413048Y-58684785D02*
X155282812Y-59423391D01*
X155835109Y-58759206D01*
X155704873Y-59497811D01*
X116077780Y-86984109D02*
X115339174Y-86853873D01*
X115289560Y-87135247D01*
X115312328Y-87211791D01*
X115341298Y-87253165D01*
X115405440Y-87300740D01*
X115510955Y-87319346D01*
X115587500Y-87296578D01*
X115628874Y-87267607D01*
X115676449Y-87203466D01*
X115726062Y-86922091D01*
X115221341Y-87522135D02*
X115928938Y-87828230D01*
X115376555Y-87875890D01*
X115879324Y-88109604D01*
X115109710Y-88155226D01*
X115724281Y-88988897D02*
X115415976Y-88680677D01*
X115798702Y-88566836D02*
X115060096Y-88436599D01*
X115010483Y-88717974D01*
X115033251Y-88794518D01*
X115062220Y-88835892D01*
X115126362Y-88883467D01*
X115231878Y-88902072D01*
X115308422Y-88879304D01*
X115349796Y-88850334D01*
X115397371Y-88786193D01*
X115446985Y-88504818D01*
X114585000Y-94938572D02*
X114549286Y-94867143D01*
X114549286Y-94760000D01*
X114585000Y-94652857D01*
X114656429Y-94581429D01*
X114727857Y-94545714D01*
X114870714Y-94510000D01*
X114977857Y-94510000D01*
X115120714Y-94545714D01*
X115192143Y-94581429D01*
X115263571Y-94652857D01*
X115299286Y-94760000D01*
X115299286Y-94831429D01*
X115263571Y-94938572D01*
X115227857Y-94974286D01*
X114977857Y-94974286D01*
X114977857Y-94831429D01*
X115299286Y-95295714D02*
X114549286Y-95295714D01*
X115299286Y-95724286D01*
X114549286Y-95724286D01*
X115299286Y-96081428D02*
X114549286Y-96081428D01*
X114549286Y-96260000D01*
X114585000Y-96367143D01*
X114656429Y-96438571D01*
X114727857Y-96474286D01*
X114870714Y-96510000D01*
X114977857Y-96510000D01*
X115120714Y-96474286D01*
X115192143Y-96438571D01*
X115263571Y-96367143D01*
X115299286Y-96260000D01*
X115299286Y-96081428D01*
X186769925Y-102502135D02*
X186747157Y-102425590D01*
X186765762Y-102320074D01*
X186819538Y-102220761D01*
X186902286Y-102162822D01*
X186978830Y-102140052D01*
X187125719Y-102129688D01*
X187231234Y-102148293D01*
X187365719Y-102208271D01*
X187429861Y-102255847D01*
X187487800Y-102338593D01*
X187504368Y-102450311D01*
X187491964Y-102520654D01*
X187438187Y-102619968D01*
X187396813Y-102648938D01*
X187150611Y-102605526D01*
X187175418Y-102464839D01*
X187411342Y-102977886D02*
X186672736Y-102847650D01*
X187336921Y-103399947D01*
X186598315Y-103269711D01*
X187274904Y-103751663D02*
X186536298Y-103621427D01*
X186505290Y-103797286D01*
X186521856Y-103909003D01*
X186579796Y-103991749D01*
X186643937Y-104039325D01*
X186778422Y-104099303D01*
X186883938Y-104117909D01*
X187030826Y-104107544D01*
X187107372Y-104084775D01*
X187190118Y-104026836D01*
X187243895Y-103927522D01*
X187274904Y-103751663D01*
X188189286Y-94450000D02*
X187439286Y-94450000D01*
X187439286Y-94735715D01*
X187475000Y-94807143D01*
X187510714Y-94842858D01*
X187582143Y-94878572D01*
X187689286Y-94878572D01*
X187760714Y-94842858D01*
X187796429Y-94807143D01*
X187832143Y-94735715D01*
X187832143Y-94450000D01*
X187439286Y-95128572D02*
X188189286Y-95307143D01*
X187653571Y-95450000D01*
X188189286Y-95592858D01*
X187439286Y-95771429D01*
X188189286Y-96485715D02*
X187832143Y-96235715D01*
X188189286Y-96057143D02*
X187439286Y-96057143D01*
X187439286Y-96342858D01*
X187475000Y-96414286D01*
X187510714Y-96450001D01*
X187582143Y-96485715D01*
X187689286Y-96485715D01*
X187760714Y-96450001D01*
X187796429Y-96414286D01*
X187832143Y-96342858D01*
X187832143Y-96057143D01*
D10*
X162641889Y-78246392D02*
X162080451Y-78396912D01*
X162204149Y-77879084D02*
X161561362Y-78645129D01*
X161853189Y-78890001D01*
X161956754Y-78914740D01*
X162023841Y-78908871D01*
X162121537Y-78866523D01*
X162213364Y-78757088D01*
X162238104Y-78653523D01*
X162232234Y-78586436D01*
X162189887Y-78488740D01*
X161898060Y-78243868D01*
X163231412Y-78803222D02*
X163189064Y-78705526D01*
X163043150Y-78583090D01*
X162939585Y-78558350D01*
X162841889Y-78600698D01*
X162597017Y-78892525D01*
X162572277Y-78996090D01*
X162614625Y-79093786D01*
X162760539Y-79216223D01*
X162864104Y-79240962D01*
X162961800Y-79198615D01*
X163023019Y-79125657D01*
X162719453Y-78746611D01*
X163125322Y-79522312D02*
X163736238Y-79164660D01*
X163490105Y-79828401D01*
X165195371Y-80389018D02*
X164757631Y-80021710D01*
X164976501Y-80205364D02*
X164333713Y-80971408D01*
X164352583Y-80800755D01*
X164340845Y-80666581D01*
X164298497Y-80568885D01*
X165303544Y-80852759D02*
X165668328Y-81158848D01*
X165414241Y-80572671D02*
X165026801Y-81552978D01*
X165924938Y-81001196D01*
X166145890Y-82367681D02*
X166151760Y-82434768D01*
X166194107Y-82532464D01*
X166376500Y-82685509D01*
X166480065Y-82710249D01*
X166547152Y-82704379D01*
X166644848Y-82662032D01*
X166706066Y-82589075D01*
X166761414Y-82449032D01*
X166690982Y-81643984D01*
X167165200Y-82041900D01*
X166996630Y-83205861D02*
X167069587Y-83267079D01*
X167173153Y-83291819D01*
X167240240Y-83285949D01*
X167337936Y-83243602D01*
X167496850Y-83128297D01*
X167649895Y-82945905D01*
X167735853Y-82769383D01*
X167760592Y-82665818D01*
X167754723Y-82598731D01*
X167712375Y-82501035D01*
X167639418Y-82439816D01*
X167535852Y-82415077D01*
X167468765Y-82420946D01*
X167371069Y-82463294D01*
X167212155Y-82578598D01*
X167059110Y-82760990D01*
X166973153Y-82937512D01*
X166948413Y-83041077D01*
X166954282Y-83108165D01*
X166996630Y-83205861D01*
X168624333Y-83266258D02*
X168186593Y-82898950D01*
X168405462Y-83082604D02*
X167762675Y-83848648D01*
X167781545Y-83677996D01*
X167769806Y-83543821D01*
X167727458Y-83446125D01*
X168638155Y-84583263D02*
X168492241Y-84460827D01*
X168449893Y-84363131D01*
X168444024Y-84296044D01*
X168462894Y-84125391D01*
X168548851Y-83948869D01*
X168793723Y-83657042D01*
X168891419Y-83614695D01*
X168958506Y-83608825D01*
X169062072Y-83633565D01*
X169207986Y-83756001D01*
X169250333Y-83853697D01*
X169256203Y-83920784D01*
X169231463Y-84024350D01*
X169078419Y-84206741D01*
X168980722Y-84249089D01*
X168913635Y-84254959D01*
X168810069Y-84230219D01*
X168664155Y-84107783D01*
X168621808Y-84010087D01*
X168615938Y-83943000D01*
X168640679Y-83839433D01*
X158370968Y-78414074D02*
X159196147Y-77801074D01*
X158882927Y-78470685D01*
X159487974Y-78045945D01*
X159027578Y-78965034D01*
X159895105Y-78449731D02*
X160035148Y-78505079D01*
X160217540Y-78658124D01*
X160259888Y-78755820D01*
X160265757Y-78822907D01*
X160241018Y-78926473D01*
X160179800Y-78999429D01*
X160082104Y-79041777D01*
X160015017Y-79047646D01*
X159911451Y-79022908D01*
X159734928Y-78936950D01*
X159631363Y-78912210D01*
X159564275Y-78918080D01*
X159466579Y-78960427D01*
X159405362Y-79033384D01*
X159380622Y-79136949D01*
X159386491Y-79204036D01*
X159428839Y-79301732D01*
X159611231Y-79454778D01*
X159751275Y-79510126D01*
X160073710Y-79718519D02*
X160079579Y-79785606D01*
X160121927Y-79883302D01*
X160304319Y-80036347D01*
X160407884Y-80061087D01*
X160474972Y-80055218D01*
X160572668Y-80012870D01*
X160633886Y-79939913D01*
X160689234Y-79799870D01*
X160618801Y-78994822D01*
X161093020Y-79392739D01*
X161163451Y-80197785D02*
X161059886Y-80173046D01*
X160992799Y-80178915D01*
X160895103Y-80221263D01*
X160864494Y-80257741D01*
X160839754Y-80361307D01*
X160845624Y-80428394D01*
X160887971Y-80526090D01*
X161033885Y-80648526D01*
X161137451Y-80673266D01*
X161204538Y-80667396D01*
X161302234Y-80625049D01*
X161332843Y-80588570D01*
X161357582Y-80485005D01*
X161351713Y-80417918D01*
X161309365Y-80320222D01*
X161163451Y-80197785D01*
X161121104Y-80100089D01*
X161115234Y-80033002D01*
X161139975Y-79929436D01*
X161262410Y-79783523D01*
X161360106Y-79741175D01*
X161427194Y-79735306D01*
X161530759Y-79760045D01*
X161676673Y-79882482D01*
X161719020Y-79980178D01*
X161724890Y-80047265D01*
X161700150Y-80150830D01*
X161577715Y-80296743D01*
X161480018Y-80339092D01*
X161412931Y-80344961D01*
X161309365Y-80320222D01*
X162552152Y-80617096D02*
X162114412Y-80249788D01*
X162333282Y-80433442D02*
X161690494Y-81199486D01*
X161709364Y-81028834D01*
X161697626Y-80894659D01*
X161655278Y-80796963D01*
X162262408Y-81555055D02*
X162268278Y-81622142D01*
X162310625Y-81719838D01*
X162493018Y-81872883D01*
X162596583Y-81897623D01*
X162663670Y-81891754D01*
X162761366Y-81849406D01*
X162822584Y-81776449D01*
X162877932Y-81636406D01*
X162807500Y-80831358D01*
X163281718Y-81229275D01*
X163528673Y-82120279D02*
X163668716Y-82175628D01*
X163735804Y-82169758D01*
X163833500Y-82127410D01*
X163925327Y-82017975D01*
X163950067Y-81914410D01*
X163944197Y-81847323D01*
X163901850Y-81749627D01*
X163610023Y-81504755D01*
X162967235Y-82270799D01*
X163222584Y-82485062D01*
X163326149Y-82509802D01*
X163393236Y-82503932D01*
X163490932Y-82461585D01*
X163552150Y-82388628D01*
X163576890Y-82285063D01*
X163571020Y-82217976D01*
X163528673Y-82120279D01*
X163273324Y-81906017D01*
X165324504Y-82943375D02*
X164959720Y-82637285D01*
X164316933Y-83403330D01*
X165243153Y-83558899D02*
X165498502Y-83773162D01*
X165944635Y-83463727D02*
X165579852Y-83157637D01*
X164937064Y-83923682D01*
X165301847Y-84229772D01*
X166272939Y-83739207D02*
X165630152Y-84505252D01*
X165812543Y-84658296D01*
X165952588Y-84713645D01*
X166086762Y-84701907D01*
X166184458Y-84659559D01*
X166343372Y-84544255D01*
X166435199Y-84434819D01*
X166521157Y-84258297D01*
X166545896Y-84154732D01*
X166534157Y-84020557D01*
X166455331Y-83892252D01*
X166272939Y-83739207D01*
X168060377Y-85239045D02*
X167498939Y-85389566D01*
X167622637Y-84871738D02*
X166979849Y-85637782D01*
X167271676Y-85882654D01*
X167375242Y-85907394D01*
X167442329Y-85901524D01*
X167540025Y-85859177D01*
X167631852Y-85749742D01*
X167656591Y-85646177D01*
X167650722Y-85579089D01*
X167608374Y-85481393D01*
X167316547Y-85236521D01*
X168388681Y-85514526D02*
X167960156Y-86025222D01*
X167745894Y-86280570D02*
X167740024Y-86213483D01*
X167807112Y-86207613D01*
X167812981Y-86274701D01*
X167745894Y-86280570D01*
X167807112Y-86207613D01*
X168324939Y-86331311D02*
X168753464Y-85820615D01*
X168386157Y-86258355D02*
X168392026Y-86325442D01*
X168434374Y-86423138D01*
X168543809Y-86514965D01*
X168647375Y-86539705D01*
X168745071Y-86497357D01*
X169081769Y-86096095D01*
X169346332Y-87188362D02*
X169866684Y-86568230D01*
X169891423Y-86464665D01*
X169885554Y-86397578D01*
X169843206Y-86299881D01*
X169733771Y-86208054D01*
X169630205Y-86183315D01*
X169744248Y-86714143D02*
X169701901Y-86616447D01*
X169555987Y-86494011D01*
X169452421Y-86469272D01*
X169385334Y-86475141D01*
X169287638Y-86517489D01*
X169103984Y-86736359D01*
X169079245Y-86839924D01*
X169085114Y-86907012D01*
X169127462Y-87004708D01*
X169273375Y-87127144D01*
X169376941Y-87151883D01*
D12*
X130292073Y-89568289D02*
X130375096Y-89358223D01*
X130604663Y-89084636D01*
X130751207Y-89021114D01*
X130851838Y-89012310D01*
X131007186Y-89049419D01*
X131116621Y-89141246D01*
X131180143Y-89287790D01*
X131188947Y-89388421D01*
X131151837Y-89543769D01*
X131022901Y-89808552D01*
X130985791Y-89963901D01*
X130994596Y-90064532D01*
X131058117Y-90211076D01*
X131167552Y-90302903D01*
X131322900Y-90340012D01*
X131423531Y-90331208D01*
X131570076Y-90267687D01*
X131799643Y-89994100D01*
X131882665Y-89784034D01*
X131669475Y-87926765D02*
X131522931Y-87990287D01*
X131339277Y-88209156D01*
X131302167Y-88364505D01*
X131310972Y-88465136D01*
X131374493Y-88611680D01*
X131702797Y-88887160D01*
X131858146Y-88924269D01*
X131958777Y-88915466D01*
X132105322Y-88851944D01*
X132288975Y-88633074D01*
X132326084Y-88477726D01*
X132165718Y-87224242D02*
X132128608Y-87379591D01*
X132137413Y-87480222D01*
X132200934Y-87626766D01*
X132529238Y-87902246D01*
X132684587Y-87939355D01*
X132785218Y-87930552D01*
X132931763Y-87867030D01*
X133069503Y-87702878D01*
X133106612Y-87547530D01*
X133097807Y-87446898D01*
X133034286Y-87300354D01*
X132705982Y-87024873D01*
X132550633Y-86987765D01*
X132450002Y-86996569D01*
X132303458Y-87060090D01*
X132165718Y-87224242D01*
X133528637Y-87155703D02*
X133895944Y-86717963D01*
X134049399Y-87312944D02*
X133064485Y-86486503D01*
X133000963Y-86339959D01*
X133038073Y-86184610D01*
X133129900Y-86075176D01*
X134079598Y-86499094D02*
X134446905Y-86061354D01*
X134600360Y-86656335D02*
X133615445Y-85829893D01*
X133551924Y-85683349D01*
X133589034Y-85528001D01*
X133680861Y-85418566D01*
X135397265Y-83595282D02*
X135296633Y-83604086D01*
X135104176Y-83722325D01*
X135012349Y-83831760D01*
X134929326Y-84041825D01*
X134946934Y-84243087D01*
X135010455Y-84389631D01*
X135183412Y-84628003D01*
X135347564Y-84765743D01*
X135612348Y-84894679D01*
X135767696Y-84931788D01*
X135968958Y-84914180D01*
X136161416Y-84795941D01*
X136253242Y-84686507D01*
X136336265Y-84476440D01*
X136327461Y-84375809D01*
X135701050Y-83010998D02*
X136850117Y-83975179D01*
X136114271Y-82518541D02*
X136716163Y-83023588D01*
X136779684Y-83170132D01*
X136742575Y-83325481D01*
X136604835Y-83489633D01*
X136458290Y-83553155D01*
X136357659Y-83561958D01*
X136995429Y-81579540D02*
X136848885Y-81643062D01*
X136665232Y-81861931D01*
X136628122Y-82017279D01*
X136691643Y-82163823D01*
X137129383Y-82531131D01*
X137284732Y-82568240D01*
X137431276Y-82504719D01*
X137614930Y-82285849D01*
X137652038Y-82130501D01*
X137588517Y-81983956D01*
X137479083Y-81892129D01*
X136910514Y-82347478D01*
X137399846Y-80986452D02*
X138165890Y-81629239D01*
X137947020Y-81445585D02*
X138102368Y-81482695D01*
X138202999Y-81473891D01*
X138349544Y-81410370D01*
X138441371Y-81300935D01*
X137996720Y-80275125D02*
X139145787Y-81239307D01*
X138526286Y-80532997D02*
X138364027Y-79837386D01*
X139130071Y-80480174D02*
X138325024Y-80550605D01*
X138914988Y-79180776D02*
X138877878Y-79336124D01*
X138886683Y-79436755D01*
X138950204Y-79583299D01*
X139278508Y-79858780D01*
X139433857Y-79895888D01*
X139534488Y-79887085D01*
X139681033Y-79823563D01*
X139818773Y-79659411D01*
X139855881Y-79504063D01*
X139847077Y-79403431D01*
X139783556Y-79256887D01*
X139455252Y-78981407D01*
X139299903Y-78944298D01*
X139199272Y-78953102D01*
X139052728Y-79016624D01*
X138914988Y-79180776D01*
X140277907Y-79112237D02*
X140645214Y-78674497D01*
X139649603Y-78305296D02*
X140634517Y-79131737D01*
X140789865Y-79168847D01*
X140936410Y-79105325D01*
X141028236Y-78995890D01*
X140209367Y-77749318D02*
X140246477Y-77593970D01*
X140430131Y-77375099D01*
X140576674Y-77311577D01*
X140732022Y-77348687D01*
X140786740Y-77394601D01*
X140850262Y-77541145D01*
X140813153Y-77696493D01*
X140675412Y-77860646D01*
X140638303Y-78015994D01*
X140701824Y-78162538D01*
X140756542Y-78208452D01*
X140911890Y-78245561D01*
X141058435Y-78182039D01*
X141196175Y-78017887D01*
X141233284Y-77862538D01*
X140981092Y-76718490D02*
X142130158Y-77682671D01*
X141510657Y-76976362D02*
X141348398Y-76280750D01*
X142114443Y-76923538D02*
X141309396Y-76993970D01*
X142435837Y-76540515D02*
X141899360Y-75624140D01*
X142894971Y-75993341D02*
X141899360Y-75624140D01*
X141533945Y-75504008D01*
X141433314Y-75512812D01*
X141286771Y-75576334D01*
D11*
X157392857Y-114595714D02*
X156392857Y-114595714D01*
X155964286Y-116167143D02*
X157392857Y-116167143D01*
X157392857Y-113167143D01*
X155964286Y-113167143D01*
X154964286Y-116167143D02*
X153392857Y-114167143D01*
X154964286Y-114167143D02*
X153392857Y-116167143D01*
X151107143Y-116024286D02*
X151392857Y-116167143D01*
X151964286Y-116167143D01*
X152250000Y-116024286D01*
X152392857Y-115738571D01*
X152392857Y-114595714D01*
X152250000Y-114310000D01*
X151964286Y-114167143D01*
X151392857Y-114167143D01*
X151107143Y-114310000D01*
X150964286Y-114595714D01*
X150964286Y-114881429D01*
X152392857Y-115167143D01*
X149250000Y-116167143D02*
X149535714Y-116024286D01*
X149678571Y-115738571D01*
X149678571Y-113167143D01*
X147678571Y-116167143D02*
X147964285Y-116024286D01*
X148107142Y-115881429D01*
X148249999Y-115595714D01*
X148249999Y-114738571D01*
X148107142Y-114452857D01*
X147964285Y-114310000D01*
X147678571Y-114167143D01*
X147249999Y-114167143D01*
X146964285Y-114310000D01*
X146821428Y-114452857D01*
X146678571Y-114738571D01*
X146678571Y-115595714D01*
X146821428Y-115881429D01*
X146964285Y-116024286D01*
X147249999Y-116167143D01*
X147678571Y-116167143D01*
X145392856Y-114167143D02*
X145392856Y-116167143D01*
X145392856Y-114452857D02*
X145249999Y-114310000D01*
X144964285Y-114167143D01*
X144535713Y-114167143D01*
X144249999Y-114310000D01*
X144107142Y-114595714D01*
X144107142Y-116167143D01*
D13*
X133219408Y-104258639D02*
X133269051Y-104196084D01*
X133366156Y-104150803D01*
X133478354Y-104137890D01*
X133573276Y-104172440D01*
X133635832Y-104222082D01*
X133728574Y-104336461D01*
X133773854Y-104433566D01*
X133801861Y-104578131D01*
X133799679Y-104657962D01*
X133765130Y-104752884D01*
X133683119Y-104830534D01*
X133618383Y-104860721D01*
X133506184Y-104873633D01*
X133458723Y-104856358D01*
X133353068Y-104629781D01*
X133482541Y-104569407D01*
X133197598Y-105056936D02*
X132880634Y-104377206D01*
X132809179Y-105238059D01*
X132492216Y-104558328D01*
X132485499Y-105388993D02*
X132168535Y-104709263D01*
X132006694Y-104784730D01*
X131924683Y-104862379D01*
X131890134Y-104957302D01*
X131887952Y-105037132D01*
X131915958Y-105181698D01*
X131961239Y-105278802D01*
X132053981Y-105393181D01*
X132116537Y-105442824D01*
X132211459Y-105477373D01*
X132323658Y-105464461D01*
X132485499Y-105388993D01*
X131957724Y-98882483D02*
X131827488Y-98143877D01*
X131546114Y-98193491D01*
X131481972Y-98241066D01*
X131453002Y-98282439D01*
X131430234Y-98358985D01*
X131448839Y-98464500D01*
X131496414Y-98528641D01*
X131537788Y-98557612D01*
X131614333Y-98580380D01*
X131895707Y-98530766D01*
X131159225Y-98261710D02*
X131113603Y-99031325D01*
X130879890Y-98528555D01*
X130832229Y-99080939D01*
X130526134Y-98373341D01*
X129952936Y-99235982D02*
X130137121Y-98840852D01*
X130374997Y-99161561D02*
X130244761Y-98422955D01*
X129963387Y-98472569D01*
X129899246Y-98520144D01*
X129870275Y-98561517D01*
X129847507Y-98638062D01*
X129866112Y-98743578D01*
X129913687Y-98807719D01*
X129955061Y-98836689D01*
X130031606Y-98859457D01*
X130312980Y-98809844D01*
X172181865Y-98451925D02*
X172258410Y-98429157D01*
X172363926Y-98447762D01*
X172463239Y-98501538D01*
X172521178Y-98584286D01*
X172543948Y-98660830D01*
X172554312Y-98807719D01*
X172535707Y-98913234D01*
X172475729Y-99047719D01*
X172428153Y-99111861D01*
X172345407Y-99169800D01*
X172233689Y-99186368D01*
X172163346Y-99173964D01*
X172064032Y-99120187D01*
X172035062Y-99078813D01*
X172078474Y-98832611D01*
X172219161Y-98857418D01*
X171706114Y-99093342D02*
X171836350Y-98354736D01*
X171284053Y-99018921D01*
X171414289Y-98280315D01*
X170932337Y-98956904D02*
X171062573Y-98218298D01*
X170886714Y-98187290D01*
X170774997Y-98203856D01*
X170692251Y-98261796D01*
X170644675Y-98325937D01*
X170584697Y-98460422D01*
X170566091Y-98565938D01*
X170576456Y-98712826D01*
X170599225Y-98789372D01*
X170657164Y-98872118D01*
X170756478Y-98925895D01*
X170932337Y-98956904D01*
X172593166Y-92559750D02*
X172482308Y-91817988D01*
X172199732Y-91860219D01*
X172134367Y-91906099D01*
X172104323Y-91946699D01*
X172079560Y-92022623D01*
X172095396Y-92128589D01*
X172141276Y-92193953D01*
X172181877Y-92223997D01*
X172257800Y-92248761D01*
X172540376Y-92206530D01*
X171811190Y-91918287D02*
X171745438Y-92686444D01*
X171524966Y-92177729D01*
X171462861Y-92728675D01*
X171175394Y-92013308D01*
X170579811Y-92860648D02*
X170774276Y-92470475D01*
X171003676Y-92797301D02*
X170892819Y-92055539D01*
X170610242Y-92097770D01*
X170544877Y-92143650D01*
X170514833Y-92184250D01*
X170490070Y-92260174D01*
X170505906Y-92366140D01*
X170551786Y-92431504D01*
X170592388Y-92461548D01*
X170668310Y-92486312D01*
X170950887Y-92444081D01*
X153997650Y-74737972D02*
X154736255Y-74868208D01*
X154059667Y-74386255D02*
X154798273Y-74516491D01*
X154134088Y-73964194D01*
X154872693Y-74094430D01*
X148394518Y-75521349D02*
X148382067Y-75379036D01*
X148340264Y-75310992D01*
X148262881Y-75246060D01*
X148117455Y-75222933D01*
X147868406Y-75244722D01*
X147729205Y-75292751D01*
X147664275Y-75370133D01*
X147634921Y-75444402D01*
X147647372Y-75586716D01*
X147689176Y-75654760D01*
X147766558Y-75719692D01*
X147911984Y-75742819D01*
X148161033Y-75721030D01*
X148300233Y-75673001D01*
X148365165Y-75595619D01*
X148394518Y-75521349D01*
X148338489Y-74880939D02*
X147733657Y-74933855D01*
X147659388Y-74904501D01*
X147620697Y-74872036D01*
X147578892Y-74803992D01*
X147566442Y-74661678D01*
X147595795Y-74587409D01*
X147628261Y-74548718D01*
X147696304Y-74506914D01*
X148301137Y-74453998D01*
X148279348Y-74204949D02*
X148241995Y-73778009D01*
X147513526Y-74056847D02*
X148260672Y-73991480D01*
M02*
