M48
;DRILL file {KiCad 4.0.1-stable} date 2/5/2016 11:19:27 AM
;FORMAT={-:-/ absolute / inch / decimal}
FMAT,2
INCH,TZ
T1C0.024
T2C0.030
%
G90
G05
M72
T1
X4.5283Y-3.8465
X4.5398Y-3.5512
X4.5524Y-3.6791
X4.5709Y-3.972
X4.5776Y-4.1429
X4.5941Y-3.8606
X4.6028Y-3.3902
X4.6035Y-3.5776
X4.615Y-3.2614
X4.6421Y-4.2551
X4.65Y-4.1433
X4.6685Y-3.2969
X4.687Y-4.4173
X4.7067Y-3.115
X4.7476Y-2.9945
X4.763Y-4.4071
X4.7732Y-4.5157
X4.7941Y-3.0421
X4.8547Y-4.6614
X4.8701Y-2.8705
X4.9291Y-4.6413
X4.9335Y-2.7591
X4.9575Y-4.7449
X4.9685Y-2.8209
X5.0646Y-4.8752
X5.0701Y-3.7669
X5.0787Y-2.6661
X5.113Y-4.0331
X5.115Y-3.4886
X5.1327Y-4.8358
X5.1638Y-2.5689
X5.1795Y-4.935
X5.1862Y-2.6327
X5.2217Y-3.7602
X5.2402Y-4.278
X5.2425Y-3.239
X5.2571Y-3.5382
X5.2571Y-3.9835
X5.3157Y-5.0343
X5.3252Y-2.5071
X5.3594Y-3.3335
X5.361Y-4.189
X5.3724Y-4.9815
X5.4327Y-2.4311
X5.4382Y-2.4937
X5.4386Y-4.4756
X5.4398Y-3.0441
X5.4445Y-5.0661
X5.5209Y-3.1705
X5.5224Y-4.3524
X5.5972Y-5.1382
X5.598Y-2.4039
X5.6406Y-5.076
X5.6795Y-2.9197
X5.6819Y-4.6004
X5.7189Y-2.3504
X5.7268Y-3.0661
X5.7272Y-4.4555
X5.7291Y-5.1429
X5.8854Y-2.3705
X5.8917Y-5.1831
X5.9236Y-5.1087
X5.9512Y-4.4906
X5.9524Y-2.876
X5.9528Y-4.6425
X5.9917Y-2.3976
X6.0173Y-2.3311
X6.0209Y-5.1571
X6.1768Y-4.4571
X6.1772Y-2.3768
X6.1787Y-3.065
X6.1909Y-5.1669
X6.2035Y-5.0894
X6.2228Y-2.9185
X6.2264Y-4.5988
X6.2764Y-2.4335
X6.3059Y-2.3752
X6.3091Y-5.1075
X6.3827Y-4.3524
X6.3854Y-3.1728
X6.4594Y-2.4555
X6.4705Y-4.474
X6.4713Y-3.0429
X6.474Y-5.0063
X6.4787Y-5.0862
X6.5299Y-2.535
X6.5457Y-4.1898
X6.5472Y-3.3315
X6.5819Y-5.0043
X6.587Y-2.4839
X6.648Y-3.9858
X6.6488Y-3.5339
X6.6657Y-3.2409
X6.6657Y-4.2803
X6.6843Y-3.761
X6.7189Y-2.589
X6.722Y-4.872
X6.7461Y-4.9465
X6.774Y-2.6807
X6.7906Y-4.0307
X6.7921Y-3.4858
X6.8283Y-4.8492
X6.8362Y-3.761
X6.8398Y-2.6441
X6.9366Y-4.687
X6.9484Y-2.7705
X6.9756Y-4.7575
X6.9803Y-2.8776
X7.037Y-4.6445
X7.0484Y-2.8559
X7.1079Y-4.4606
X7.1299Y-3.
X7.1406Y-3.1087
X7.1547Y-4.5217
X7.1976Y-4.3992
X7.2134Y-3.1031
X7.2291Y-4.2063
X7.2492Y-3.3697
X7.2618Y-3.2626
X7.287Y-4.2567
X7.2941Y-3.9287
X7.3004Y-3.6488
X7.3039Y-4.128
X7.3244Y-3.3776
X7.3354Y-3.5445
X7.3504Y-3.8386
X7.3606Y-3.9669
X7.3701Y-3.6713
T2
X4.4555Y-3.7602
X4.4819Y-3.4457
X5.0559Y-3.902
X5.1465Y-4.1709
X5.7953Y-2.2598
X5.8098Y-2.8571
X6.0953Y-2.8547
X6.1098Y-2.2551
X6.8504Y-3.902
X6.8512Y-3.6169
X7.4217Y-4.0709
X7.4563Y-3.7594
T0
M30
