G04 #@! TF.FileFunction,Copper,L2,Bot,Signal*
%FSLAX46Y46*%
G04 Gerber Fmt 4.6, Leading zero omitted, Abs format (unit mm)*
G04 Created by KiCad (PCBNEW 4.0.1-stable) date 2/5/2016 11:19:15 AM*
%MOMM*%
G01*
G04 APERTURE LIST*
%ADD10C,0.100000*%
%ADD11C,1.524000*%
%ADD12C,0.900000*%
%ADD13C,0.400000*%
%ADD14C,0.250000*%
G04 APERTURE END LIST*
D10*
D11*
X113840000Y-87520000D03*
X155190000Y-57280000D03*
X113170000Y-95510000D03*
X189390000Y-95490000D03*
X188510000Y-103400000D03*
X147200000Y-57400000D03*
X154820000Y-72510000D03*
X130720000Y-105940000D03*
X128420000Y-99110000D03*
X147570000Y-72570000D03*
X174000000Y-99110000D03*
X174020000Y-91870000D03*
D12*
X160170000Y-60330000D03*
X167310000Y-63090000D03*
X173730000Y-67160000D03*
X183220000Y-78820000D03*
X186040000Y-85790000D03*
X186960000Y-100760000D03*
X185090000Y-108120000D03*
X181730000Y-114850000D03*
X177180000Y-120840000D03*
X171350000Y-125640000D03*
X164560000Y-129190000D03*
X157250000Y-131240000D03*
X142170000Y-130510000D03*
X135020000Y-127870000D03*
X128640000Y-123830000D03*
X123310000Y-118400000D03*
X119050000Y-112200000D03*
X116270000Y-105230000D03*
X115020000Y-97700000D03*
X115310000Y-90200000D03*
X117220000Y-82840000D03*
X125310000Y-70080000D03*
X131160000Y-65250000D03*
X149490000Y-60210000D03*
X179030000Y-72540000D03*
X187200000Y-93250000D03*
X149650000Y-131650000D03*
X137990000Y-61750000D03*
X145260000Y-59700000D03*
X152840000Y-59210000D03*
X120590000Y-76060000D03*
X166300000Y-84620000D03*
X169310000Y-82320000D03*
X168880000Y-89760000D03*
X172520000Y-88540000D03*
X169780000Y-95530000D03*
X173640000Y-95530000D03*
X168860000Y-101240000D03*
X172480000Y-102380000D03*
X169310000Y-108720000D03*
X166260000Y-106420000D03*
X164350000Y-113640000D03*
X162120000Y-110550000D03*
X158150000Y-116810000D03*
X156890000Y-113210000D03*
X151200000Y-117920000D03*
X151160000Y-114060000D03*
X144320000Y-116850000D03*
X145470000Y-113170000D03*
X138140000Y-113680000D03*
X140270000Y-110550000D03*
X133100000Y-108660000D03*
X136170000Y-106400000D03*
X133530000Y-101180000D03*
X129870000Y-102440000D03*
X132630000Y-95510000D03*
X128780000Y-95680000D03*
X129920000Y-88610000D03*
X133530000Y-89870000D03*
X136130000Y-84670000D03*
X133160000Y-82270000D03*
X138170000Y-77320000D03*
X140230000Y-80530000D03*
X145460000Y-77880000D03*
X144260000Y-74160000D03*
X151190000Y-73050000D03*
X162190000Y-80590000D03*
X164370000Y-77290000D03*
X158060000Y-74130000D03*
X156940000Y-77850000D03*
X156900000Y-60370000D03*
X152190000Y-60900000D03*
X164070000Y-62370000D03*
X159420000Y-61810000D03*
X129000000Y-67720000D03*
X126200000Y-71650000D03*
X185520000Y-104850000D03*
X185270000Y-99790000D03*
X135260000Y-63680000D03*
X131730000Y-66870000D03*
X142190000Y-61060000D03*
X138130000Y-63340000D03*
X121240000Y-114700000D03*
X125200000Y-117890000D03*
X182820000Y-111740000D03*
X183620000Y-106840000D03*
X178740000Y-117970000D03*
X180540000Y-113300000D03*
X173440000Y-123170000D03*
X176190000Y-119050000D03*
X167180000Y-127110000D03*
X170740000Y-123750000D03*
X160250000Y-129730000D03*
X164440000Y-127160000D03*
X152930000Y-130990000D03*
X157570000Y-129270000D03*
X145520000Y-130630000D03*
X150460000Y-129760000D03*
X138290000Y-128680000D03*
X143270000Y-128930000D03*
X131560000Y-125350000D03*
X136460000Y-126530000D03*
X125920000Y-120520000D03*
X130370000Y-122830000D03*
X117910000Y-108080000D03*
X120980000Y-111940000D03*
X116100000Y-100890000D03*
X118110000Y-105240000D03*
X115630000Y-93450000D03*
X116690000Y-98060000D03*
X116910000Y-86110000D03*
X116930000Y-90870000D03*
X119550000Y-79120000D03*
X118580000Y-83740000D03*
X170660000Y-65760000D03*
X165860000Y-64390000D03*
X176490000Y-70370000D03*
X172060000Y-68090000D03*
X181100000Y-76200000D03*
X177300000Y-73090000D03*
X184450000Y-82870000D03*
X181370000Y-78960000D03*
X186320000Y-90030000D03*
X184130000Y-85590000D03*
X186700000Y-97500000D03*
X185430000Y-92680000D03*
X123700000Y-72910000D03*
X121770000Y-77270000D03*
D13*
X179030000Y-72540000D02*
X179010000Y-72540000D01*
X187200000Y-93250000D02*
X187220000Y-93250000D01*
X149650000Y-131650000D02*
X149650000Y-131630000D01*
X137990000Y-61750000D02*
X137960000Y-61770000D01*
X169310000Y-82320000D02*
X169290000Y-82320000D01*
X169780000Y-95530000D02*
X169780000Y-95510000D01*
X173640000Y-95530000D02*
X173640000Y-95550000D01*
X168860000Y-101240000D02*
X168880000Y-101240000D01*
X156940000Y-77850000D02*
X156970000Y-77850000D01*
D14*
X152190000Y-60900000D02*
X156900000Y-60370000D01*
X159420000Y-61810000D02*
X164070000Y-62370000D01*
X126200000Y-71650000D02*
X129000000Y-67720000D01*
X185270000Y-99790000D02*
X185520000Y-104850000D01*
X131730000Y-66870000D02*
X135260000Y-63680000D01*
X138130000Y-63340000D02*
X142190000Y-61060000D01*
X125200000Y-117890000D02*
X121240000Y-114700000D01*
X183620000Y-106840000D02*
X182820000Y-111740000D01*
X180540000Y-113300000D02*
X178740000Y-117970000D01*
X176190000Y-119050000D02*
X173440000Y-123170000D01*
X170740000Y-123750000D02*
X167180000Y-127110000D01*
X164440000Y-127160000D02*
X160250000Y-129730000D01*
X157570000Y-129270000D02*
X152930000Y-130990000D01*
X150460000Y-129760000D02*
X145520000Y-130630000D01*
X143270000Y-128930000D02*
X138290000Y-128680000D01*
X136460000Y-126530000D02*
X131560000Y-125350000D01*
X130370000Y-122830000D02*
X125920000Y-120520000D01*
X120980000Y-111940000D02*
X117910000Y-108080000D01*
X118110000Y-105240000D02*
X116100000Y-100890000D01*
X116690000Y-98060000D02*
X115630000Y-93450000D01*
X116930000Y-90870000D02*
X116910000Y-86110000D01*
X118580000Y-83740000D02*
X119550000Y-79120000D01*
X165860000Y-64390000D02*
X170660000Y-65760000D01*
X172060000Y-68090000D02*
X176490000Y-70370000D01*
X177300000Y-73090000D02*
X181100000Y-76200000D01*
X181370000Y-78960000D02*
X184450000Y-82870000D01*
X184130000Y-85590000D02*
X186320000Y-90030000D01*
X185430000Y-92680000D02*
X186700000Y-97500000D01*
X121770000Y-77270000D02*
X123700000Y-72910000D01*
D10*
G36*
X154471208Y-56301866D02*
X154426882Y-56330872D01*
X154257062Y-56497172D01*
X154122778Y-56693290D01*
X154029143Y-56911755D01*
X153979726Y-57144246D01*
X153976407Y-57381908D01*
X154019314Y-57615689D01*
X154106812Y-57836683D01*
X154235568Y-58036474D01*
X154400678Y-58207450D01*
X154595853Y-58343100D01*
X154813659Y-58438257D01*
X155045800Y-58489297D01*
X155283433Y-58494275D01*
X155517508Y-58453001D01*
X155739108Y-58367048D01*
X155939792Y-58239690D01*
X156111917Y-58075777D01*
X156248927Y-57881554D01*
X156345602Y-57664418D01*
X156398261Y-57432639D01*
X156402052Y-57161157D01*
X156355885Y-56927999D01*
X156265310Y-56708247D01*
X156133777Y-56510274D01*
X156096450Y-56472685D01*
X159127551Y-56791267D01*
X166487178Y-59069452D01*
X173264140Y-62733742D01*
X179200305Y-67644565D01*
X184069566Y-73614869D01*
X187686455Y-80417247D01*
X189913205Y-87792599D01*
X190665000Y-95460000D01*
X190649609Y-96562207D01*
X189813356Y-103181834D01*
X189772558Y-102993487D01*
X189690210Y-102794685D01*
X189481016Y-102717484D01*
X188798500Y-103400000D01*
X189481016Y-104082516D01*
X189690210Y-104005315D01*
X189718332Y-103934023D01*
X189684021Y-104205627D01*
X187252207Y-111515929D01*
X183446795Y-118214666D01*
X178412731Y-124046684D01*
X172341763Y-128789845D01*
X165465130Y-132263482D01*
X158044762Y-134335286D01*
X150363298Y-134926342D01*
X142713323Y-134014138D01*
X135386222Y-131633419D01*
X133726219Y-130705674D01*
X144618817Y-130705674D01*
X144650678Y-130879274D01*
X144715652Y-131043379D01*
X144811263Y-131191738D01*
X144933870Y-131318701D01*
X145078802Y-131419431D01*
X145240539Y-131490093D01*
X145412921Y-131527993D01*
X145589381Y-131531690D01*
X145763199Y-131501041D01*
X145927753Y-131437214D01*
X146076777Y-131342641D01*
X146204592Y-131220924D01*
X146306332Y-131076699D01*
X146306976Y-131075252D01*
X146361361Y-131065674D01*
X152028817Y-131065674D01*
X152060678Y-131239274D01*
X152125652Y-131403379D01*
X152221263Y-131551738D01*
X152343870Y-131678701D01*
X152488802Y-131779431D01*
X152650539Y-131850093D01*
X152822921Y-131887993D01*
X152999381Y-131891690D01*
X153173199Y-131861041D01*
X153337753Y-131797214D01*
X153486777Y-131702641D01*
X153614592Y-131580924D01*
X153716332Y-131436699D01*
X153782960Y-131287050D01*
X157116932Y-130051181D01*
X157128802Y-130059431D01*
X157290539Y-130130093D01*
X157462921Y-130167993D01*
X157639381Y-130171690D01*
X157813199Y-130141041D01*
X157977753Y-130077214D01*
X158126777Y-129982641D01*
X158254592Y-129860924D01*
X158293566Y-129805674D01*
X159348817Y-129805674D01*
X159380678Y-129979274D01*
X159445652Y-130143379D01*
X159541263Y-130291738D01*
X159663870Y-130418701D01*
X159808802Y-130519431D01*
X159970539Y-130590093D01*
X160142921Y-130627993D01*
X160319381Y-130631690D01*
X160493199Y-130601041D01*
X160657753Y-130537214D01*
X160806777Y-130442641D01*
X160934592Y-130320924D01*
X161036332Y-130176699D01*
X161108121Y-130015459D01*
X161144353Y-129855981D01*
X164147080Y-128014213D01*
X164160539Y-128020093D01*
X164332921Y-128057993D01*
X164509381Y-128061690D01*
X164683199Y-128031041D01*
X164847753Y-127967214D01*
X164996777Y-127872641D01*
X165124592Y-127750924D01*
X165226332Y-127606699D01*
X165298121Y-127445459D01*
X165337224Y-127273346D01*
X165338448Y-127185674D01*
X166278817Y-127185674D01*
X166310678Y-127359274D01*
X166375652Y-127523379D01*
X166471263Y-127671738D01*
X166593870Y-127798701D01*
X166738802Y-127899431D01*
X166900539Y-127970093D01*
X167072921Y-128007993D01*
X167249381Y-128011690D01*
X167423199Y-127981041D01*
X167587753Y-127917214D01*
X167736777Y-127822641D01*
X167864592Y-127700924D01*
X167966332Y-127556699D01*
X168038121Y-127395459D01*
X168077224Y-127223346D01*
X168079622Y-127051579D01*
X170627534Y-124646809D01*
X170632921Y-124647993D01*
X170809381Y-124651690D01*
X170983199Y-124621041D01*
X171147753Y-124557214D01*
X171296777Y-124462641D01*
X171424592Y-124340924D01*
X171526332Y-124196699D01*
X171598121Y-124035459D01*
X171637224Y-123863346D01*
X171640039Y-123661750D01*
X171605757Y-123488613D01*
X171538498Y-123325431D01*
X171485508Y-123245674D01*
X172538817Y-123245674D01*
X172570678Y-123419274D01*
X172635652Y-123583379D01*
X172731263Y-123731738D01*
X172853870Y-123858701D01*
X172998802Y-123959431D01*
X173160539Y-124030093D01*
X173332921Y-124067993D01*
X173509381Y-124071690D01*
X173683199Y-124041041D01*
X173847753Y-123977214D01*
X173996777Y-123882641D01*
X174124592Y-123760924D01*
X174226332Y-123616699D01*
X174298121Y-123455459D01*
X174337224Y-123283346D01*
X174340039Y-123081750D01*
X174305765Y-122908653D01*
X176282146Y-119947676D01*
X176433199Y-119921041D01*
X176597753Y-119857214D01*
X176746777Y-119762641D01*
X176874592Y-119640924D01*
X176976332Y-119496699D01*
X177048121Y-119335459D01*
X177087224Y-119163346D01*
X177090039Y-118961750D01*
X177055757Y-118788613D01*
X176988498Y-118625431D01*
X176890825Y-118478421D01*
X176766458Y-118353182D01*
X176620133Y-118254485D01*
X176457425Y-118186089D01*
X176284531Y-118150599D01*
X176108036Y-118149367D01*
X175934663Y-118182440D01*
X175771016Y-118248557D01*
X175623328Y-118345202D01*
X175497224Y-118468692D01*
X175397508Y-118614324D01*
X175327977Y-118776550D01*
X175291281Y-118949193D01*
X175288817Y-119125674D01*
X175320678Y-119299274D01*
X175325003Y-119310197D01*
X173348632Y-122271161D01*
X173184663Y-122302440D01*
X173021016Y-122368557D01*
X172873328Y-122465202D01*
X172747224Y-122588692D01*
X172647508Y-122734324D01*
X172577977Y-122896550D01*
X172541281Y-123069193D01*
X172538817Y-123245674D01*
X171485508Y-123245674D01*
X171440825Y-123178421D01*
X171316458Y-123053182D01*
X171170133Y-122954485D01*
X171007425Y-122886089D01*
X170834531Y-122850599D01*
X170658036Y-122849367D01*
X170484663Y-122882440D01*
X170321016Y-122948557D01*
X170173328Y-123045202D01*
X170047224Y-123168692D01*
X169947508Y-123314324D01*
X169877977Y-123476550D01*
X169841281Y-123649193D01*
X169839040Y-123809683D01*
X167291518Y-126214086D01*
X167274531Y-126210599D01*
X167098036Y-126209367D01*
X166924663Y-126242440D01*
X166761016Y-126308557D01*
X166613328Y-126405202D01*
X166487224Y-126528692D01*
X166387508Y-126674324D01*
X166317977Y-126836550D01*
X166281281Y-127009193D01*
X166278817Y-127185674D01*
X165338448Y-127185674D01*
X165340039Y-127071750D01*
X165305757Y-126898613D01*
X165238498Y-126735431D01*
X165140825Y-126588421D01*
X165016458Y-126463182D01*
X164870133Y-126364485D01*
X164707425Y-126296089D01*
X164534531Y-126260599D01*
X164358036Y-126259367D01*
X164184663Y-126292440D01*
X164021016Y-126358557D01*
X163873328Y-126455202D01*
X163747224Y-126578692D01*
X163647508Y-126724324D01*
X163577977Y-126886550D01*
X163546779Y-127033324D01*
X160541934Y-128876392D01*
X160517425Y-128866089D01*
X160344531Y-128830599D01*
X160168036Y-128829367D01*
X159994663Y-128862440D01*
X159831016Y-128928557D01*
X159683328Y-129025202D01*
X159557224Y-129148692D01*
X159457508Y-129294324D01*
X159387977Y-129456550D01*
X159351281Y-129629193D01*
X159348817Y-129805674D01*
X158293566Y-129805674D01*
X158356332Y-129716699D01*
X158428121Y-129555459D01*
X158467224Y-129383346D01*
X158470039Y-129181750D01*
X158435757Y-129008613D01*
X158368498Y-128845431D01*
X158270825Y-128698421D01*
X158146458Y-128573182D01*
X158000133Y-128474485D01*
X157837425Y-128406089D01*
X157664531Y-128370599D01*
X157488036Y-128369367D01*
X157314663Y-128402440D01*
X157151016Y-128468557D01*
X157003328Y-128565202D01*
X156877224Y-128688692D01*
X156777508Y-128834324D01*
X156718291Y-128972486D01*
X153381981Y-130209221D01*
X153360133Y-130194485D01*
X153197425Y-130126089D01*
X153024531Y-130090599D01*
X152848036Y-130089367D01*
X152674663Y-130122440D01*
X152511016Y-130188557D01*
X152363328Y-130285202D01*
X152237224Y-130408692D01*
X152137508Y-130554324D01*
X152067977Y-130716550D01*
X152031281Y-130889193D01*
X152028817Y-131065674D01*
X146361361Y-131065674D01*
X149872527Y-130447311D01*
X149873870Y-130448701D01*
X150018802Y-130549431D01*
X150180539Y-130620093D01*
X150352921Y-130657993D01*
X150529381Y-130661690D01*
X150703199Y-130631041D01*
X150867753Y-130567214D01*
X151016777Y-130472641D01*
X151144592Y-130350924D01*
X151246332Y-130206699D01*
X151318121Y-130045459D01*
X151357224Y-129873346D01*
X151360039Y-129671750D01*
X151325757Y-129498613D01*
X151258498Y-129335431D01*
X151160825Y-129188421D01*
X151036458Y-129063182D01*
X150890133Y-128964485D01*
X150727425Y-128896089D01*
X150554531Y-128860599D01*
X150378036Y-128859367D01*
X150204663Y-128892440D01*
X150041016Y-128958557D01*
X149893328Y-129055202D01*
X149767224Y-129178692D01*
X149674207Y-129314540D01*
X146106133Y-129942925D01*
X146096458Y-129933182D01*
X145950133Y-129834485D01*
X145787425Y-129766089D01*
X145614531Y-129730599D01*
X145438036Y-129729367D01*
X145264663Y-129762440D01*
X145101016Y-129828557D01*
X144953328Y-129925202D01*
X144827224Y-130048692D01*
X144727508Y-130194324D01*
X144657977Y-130356550D01*
X144621281Y-130529193D01*
X144618817Y-130705674D01*
X133726219Y-130705674D01*
X130237105Y-128755674D01*
X137388817Y-128755674D01*
X137420678Y-128929274D01*
X137485652Y-129093379D01*
X137581263Y-129241738D01*
X137703870Y-129368701D01*
X137848802Y-129469431D01*
X138010539Y-129540093D01*
X138182921Y-129577993D01*
X138359381Y-129581690D01*
X138533199Y-129551041D01*
X138697753Y-129487214D01*
X138846777Y-129392641D01*
X138955472Y-129289131D01*
X142546882Y-129469423D01*
X142561263Y-129491738D01*
X142683870Y-129618701D01*
X142828802Y-129719431D01*
X142990539Y-129790093D01*
X143162921Y-129827993D01*
X143339381Y-129831690D01*
X143513199Y-129801041D01*
X143677753Y-129737214D01*
X143826777Y-129642641D01*
X143954592Y-129520924D01*
X144056332Y-129376699D01*
X144128121Y-129215459D01*
X144167224Y-129043346D01*
X144170039Y-128841750D01*
X144135757Y-128668613D01*
X144068498Y-128505431D01*
X143970825Y-128358421D01*
X143846458Y-128233182D01*
X143700133Y-128134485D01*
X143537425Y-128066089D01*
X143364531Y-128030599D01*
X143188036Y-128029367D01*
X143014663Y-128062440D01*
X142851016Y-128128557D01*
X142703328Y-128225202D01*
X142605582Y-128320921D01*
X139012157Y-128140529D01*
X138990825Y-128108421D01*
X138866458Y-127983182D01*
X138720133Y-127884485D01*
X138557425Y-127816089D01*
X138384531Y-127780599D01*
X138208036Y-127779367D01*
X138034663Y-127812440D01*
X137871016Y-127878557D01*
X137723328Y-127975202D01*
X137597224Y-128098692D01*
X137497508Y-128244324D01*
X137427977Y-128406550D01*
X137391281Y-128579193D01*
X137388817Y-128755674D01*
X130237105Y-128755674D01*
X128661082Y-127874865D01*
X125783293Y-125425674D01*
X130658817Y-125425674D01*
X130690678Y-125599274D01*
X130755652Y-125763379D01*
X130851263Y-125911738D01*
X130973870Y-126038701D01*
X131118802Y-126139431D01*
X131280539Y-126210093D01*
X131452921Y-126247993D01*
X131629381Y-126251690D01*
X131803199Y-126221041D01*
X131967753Y-126157214D01*
X132102067Y-126071976D01*
X135648806Y-126926089D01*
X135655652Y-126943379D01*
X135751263Y-127091738D01*
X135873870Y-127218701D01*
X136018802Y-127319431D01*
X136180539Y-127390093D01*
X136352921Y-127427993D01*
X136529381Y-127431690D01*
X136703199Y-127401041D01*
X136867753Y-127337214D01*
X137016777Y-127242641D01*
X137144592Y-127120924D01*
X137246332Y-126976699D01*
X137318121Y-126815459D01*
X137357224Y-126643346D01*
X137360039Y-126441750D01*
X137325757Y-126268613D01*
X137258498Y-126105431D01*
X137160825Y-125958421D01*
X137036458Y-125833182D01*
X136890133Y-125734485D01*
X136727425Y-125666089D01*
X136554531Y-125630599D01*
X136378036Y-125629367D01*
X136204663Y-125662440D01*
X136041016Y-125728557D01*
X135919136Y-125808313D01*
X132370131Y-124953655D01*
X132358498Y-124925431D01*
X132260825Y-124778421D01*
X132136458Y-124653182D01*
X131990133Y-124554485D01*
X131827425Y-124486089D01*
X131654531Y-124450599D01*
X131478036Y-124449367D01*
X131304663Y-124482440D01*
X131141016Y-124548557D01*
X130993328Y-124645202D01*
X130867224Y-124768692D01*
X130767508Y-124914324D01*
X130697977Y-125076550D01*
X130661281Y-125249193D01*
X130658817Y-125425674D01*
X125783293Y-125425674D01*
X122794061Y-122881639D01*
X120982228Y-120595674D01*
X125018817Y-120595674D01*
X125050678Y-120769274D01*
X125115652Y-120933379D01*
X125211263Y-121081738D01*
X125333870Y-121208701D01*
X125478802Y-121309431D01*
X125640539Y-121380093D01*
X125812921Y-121417993D01*
X125989381Y-121421690D01*
X126163199Y-121391041D01*
X126270082Y-121349583D01*
X129489991Y-123021042D01*
X129500678Y-123079274D01*
X129565652Y-123243379D01*
X129661263Y-123391738D01*
X129783870Y-123518701D01*
X129928802Y-123619431D01*
X130090539Y-123690093D01*
X130262921Y-123727993D01*
X130439381Y-123731690D01*
X130613199Y-123701041D01*
X130777753Y-123637214D01*
X130926777Y-123542641D01*
X131054592Y-123420924D01*
X131156332Y-123276699D01*
X131228121Y-123115459D01*
X131267224Y-122943346D01*
X131270039Y-122741750D01*
X131235757Y-122568613D01*
X131168498Y-122405431D01*
X131070825Y-122258421D01*
X130946458Y-122133182D01*
X130800133Y-122034485D01*
X130637425Y-121966089D01*
X130464531Y-121930599D01*
X130288036Y-121929367D01*
X130114663Y-121962440D01*
X130020246Y-122000587D01*
X126799649Y-120328771D01*
X126785757Y-120258613D01*
X126718498Y-120095431D01*
X126620825Y-119948421D01*
X126496458Y-119823182D01*
X126350133Y-119724485D01*
X126187425Y-119656089D01*
X126014531Y-119620599D01*
X125838036Y-119619367D01*
X125664663Y-119652440D01*
X125501016Y-119718557D01*
X125353328Y-119815202D01*
X125227224Y-119938692D01*
X125127508Y-120084324D01*
X125057977Y-120246550D01*
X125021281Y-120419193D01*
X125018817Y-120595674D01*
X120982228Y-120595674D01*
X118008633Y-116843932D01*
X116945693Y-114775674D01*
X120338817Y-114775674D01*
X120370678Y-114949274D01*
X120435652Y-115113379D01*
X120531263Y-115261738D01*
X120653870Y-115388701D01*
X120798802Y-115489431D01*
X120960539Y-115560093D01*
X121132921Y-115597993D01*
X121309381Y-115601690D01*
X121418805Y-115582396D01*
X124299691Y-117903110D01*
X124298817Y-117965674D01*
X124330678Y-118139274D01*
X124395652Y-118303379D01*
X124491263Y-118451738D01*
X124613870Y-118578701D01*
X124758802Y-118679431D01*
X124920539Y-118750093D01*
X125092921Y-118787993D01*
X125269381Y-118791690D01*
X125443199Y-118761041D01*
X125607753Y-118697214D01*
X125756777Y-118602641D01*
X125884592Y-118480924D01*
X125986332Y-118336699D01*
X126058121Y-118175459D01*
X126097224Y-118003346D01*
X126100039Y-117801750D01*
X126065757Y-117628613D01*
X125998498Y-117465431D01*
X125900825Y-117318421D01*
X125776458Y-117193182D01*
X125630133Y-117094485D01*
X125467425Y-117026089D01*
X125294531Y-116990599D01*
X125118036Y-116989367D01*
X125021433Y-117007795D01*
X122139004Y-114685840D01*
X122140039Y-114611750D01*
X122105757Y-114438613D01*
X122038498Y-114275431D01*
X121940825Y-114128421D01*
X121816458Y-114003182D01*
X121670133Y-113904485D01*
X121507425Y-113836089D01*
X121334531Y-113800599D01*
X121158036Y-113799367D01*
X120984663Y-113832440D01*
X120821016Y-113898557D01*
X120673328Y-113995202D01*
X120547224Y-114118692D01*
X120447508Y-114264324D01*
X120377977Y-114426550D01*
X120341281Y-114599193D01*
X120338817Y-114775674D01*
X116945693Y-114775674D01*
X114487073Y-109991717D01*
X113960597Y-108155674D01*
X117008817Y-108155674D01*
X117040678Y-108329274D01*
X117105652Y-108493379D01*
X117201263Y-108641738D01*
X117323870Y-108768701D01*
X117468802Y-108869431D01*
X117630539Y-108940093D01*
X117802921Y-108977993D01*
X117890987Y-108979838D01*
X120098965Y-111755993D01*
X120081281Y-111839193D01*
X120078817Y-112015674D01*
X120110678Y-112189274D01*
X120175652Y-112353379D01*
X120271263Y-112501738D01*
X120393870Y-112628701D01*
X120538802Y-112729431D01*
X120700539Y-112800093D01*
X120872921Y-112837993D01*
X121049381Y-112841690D01*
X121223199Y-112811041D01*
X121387753Y-112747214D01*
X121536777Y-112652641D01*
X121664592Y-112530924D01*
X121766332Y-112386699D01*
X121838121Y-112225459D01*
X121877224Y-112053346D01*
X121880039Y-111851750D01*
X121845757Y-111678613D01*
X121778498Y-111515431D01*
X121680825Y-111368421D01*
X121556458Y-111243182D01*
X121410133Y-111144485D01*
X121247425Y-111076089D01*
X121074531Y-111040599D01*
X120998941Y-111040071D01*
X118791140Y-108264140D01*
X118807224Y-108193346D01*
X118810039Y-107991750D01*
X118775757Y-107818613D01*
X118708498Y-107655431D01*
X118610825Y-107508421D01*
X118486458Y-107383182D01*
X118340133Y-107284485D01*
X118177425Y-107216089D01*
X118004531Y-107180599D01*
X117828036Y-107179367D01*
X117654663Y-107212440D01*
X117491016Y-107278557D01*
X117343328Y-107375202D01*
X117217224Y-107498692D01*
X117117508Y-107644324D01*
X117047977Y-107806550D01*
X117011281Y-107979193D01*
X117008817Y-108155674D01*
X113960597Y-108155674D01*
X112363516Y-102585993D01*
X112227455Y-100965674D01*
X115198817Y-100965674D01*
X115230678Y-101139274D01*
X115295652Y-101303379D01*
X115391263Y-101451738D01*
X115513870Y-101578701D01*
X115658802Y-101679431D01*
X115820539Y-101750093D01*
X115868921Y-101760730D01*
X117297183Y-104851745D01*
X117247977Y-104966550D01*
X117211281Y-105139193D01*
X117208817Y-105315674D01*
X117240678Y-105489274D01*
X117305652Y-105653379D01*
X117401263Y-105801738D01*
X117523870Y-105928701D01*
X117668802Y-106029431D01*
X117830539Y-106100093D01*
X118002921Y-106137993D01*
X118179381Y-106141690D01*
X118353199Y-106111041D01*
X118517753Y-106047214D01*
X118666777Y-105952641D01*
X118794592Y-105830924D01*
X118896332Y-105686699D01*
X118968121Y-105525459D01*
X119007224Y-105353346D01*
X119010039Y-105151750D01*
X118975757Y-104978613D01*
X118908498Y-104815431D01*
X118810825Y-104668421D01*
X118686458Y-104543182D01*
X118540133Y-104444485D01*
X118377425Y-104376089D01*
X118340751Y-104368561D01*
X116912581Y-101277744D01*
X116958121Y-101175459D01*
X116997224Y-101003346D01*
X117000039Y-100801750D01*
X116965757Y-100628613D01*
X116898498Y-100465431D01*
X116800825Y-100318421D01*
X116676458Y-100193182D01*
X116530133Y-100094485D01*
X116367425Y-100026089D01*
X116194531Y-99990599D01*
X116018036Y-99989367D01*
X115844663Y-100022440D01*
X115681016Y-100088557D01*
X115533328Y-100185202D01*
X115407224Y-100308692D01*
X115307508Y-100454324D01*
X115237977Y-100616550D01*
X115201281Y-100789193D01*
X115198817Y-100965674D01*
X112227455Y-100965674D01*
X111850868Y-96481016D01*
X112487484Y-96481016D01*
X112564685Y-96690210D01*
X112806563Y-96785624D01*
X113062409Y-96832016D01*
X113322389Y-96827604D01*
X113576513Y-96772558D01*
X113775315Y-96690210D01*
X113852516Y-96481016D01*
X113170000Y-95798500D01*
X112487484Y-96481016D01*
X111850868Y-96481016D01*
X111760294Y-95402409D01*
X111847984Y-95402409D01*
X111852396Y-95662389D01*
X111907442Y-95916513D01*
X111989790Y-96115315D01*
X112198984Y-96192516D01*
X112881500Y-95510000D01*
X113458500Y-95510000D01*
X114141016Y-96192516D01*
X114350210Y-96115315D01*
X114445624Y-95873437D01*
X114492016Y-95617591D01*
X114487604Y-95357611D01*
X114432558Y-95103487D01*
X114350210Y-94904685D01*
X114141016Y-94827484D01*
X113458500Y-95510000D01*
X112881500Y-95510000D01*
X112198984Y-94827484D01*
X111989790Y-94904685D01*
X111894376Y-95146563D01*
X111847984Y-95402409D01*
X111760294Y-95402409D01*
X111718848Y-94908843D01*
X111760334Y-94538984D01*
X112487484Y-94538984D01*
X113170000Y-95221500D01*
X113852516Y-94538984D01*
X113775315Y-94329790D01*
X113533437Y-94234376D01*
X113277591Y-94187984D01*
X113017611Y-94192396D01*
X112763487Y-94247442D01*
X112564685Y-94329790D01*
X112487484Y-94538984D01*
X111760334Y-94538984D01*
X111873994Y-93525674D01*
X114728817Y-93525674D01*
X114760678Y-93699274D01*
X114825652Y-93863379D01*
X114921263Y-94011738D01*
X115043870Y-94138701D01*
X115188802Y-94239431D01*
X115225167Y-94255319D01*
X115974099Y-97512466D01*
X115897508Y-97624324D01*
X115827977Y-97786550D01*
X115791281Y-97959193D01*
X115788817Y-98135674D01*
X115820678Y-98309274D01*
X115885652Y-98473379D01*
X115981263Y-98621738D01*
X116103870Y-98748701D01*
X116248802Y-98849431D01*
X116410539Y-98920093D01*
X116582921Y-98957993D01*
X116759381Y-98961690D01*
X116933199Y-98931041D01*
X117097753Y-98867214D01*
X117246777Y-98772641D01*
X117374592Y-98650924D01*
X117476332Y-98506699D01*
X117548121Y-98345459D01*
X117587224Y-98173346D01*
X117590039Y-97971750D01*
X117555757Y-97798613D01*
X117488498Y-97635431D01*
X117390825Y-97488421D01*
X117266458Y-97363182D01*
X117120133Y-97264485D01*
X117094622Y-97253761D01*
X116783382Y-95900158D01*
X119668073Y-95900158D01*
X120353897Y-102014416D01*
X122214258Y-107879019D01*
X125178297Y-113270585D01*
X129133113Y-117983751D01*
X133928069Y-121838995D01*
X139380527Y-124689471D01*
X145282804Y-126426606D01*
X151410084Y-126984232D01*
X157528981Y-126341110D01*
X163406429Y-124521736D01*
X168818556Y-121595409D01*
X173109448Y-118045674D01*
X177838817Y-118045674D01*
X177870678Y-118219274D01*
X177935652Y-118383379D01*
X178031263Y-118531738D01*
X178153870Y-118658701D01*
X178298802Y-118759431D01*
X178460539Y-118830093D01*
X178632921Y-118867993D01*
X178809381Y-118871690D01*
X178983199Y-118841041D01*
X179147753Y-118777214D01*
X179296777Y-118682641D01*
X179424592Y-118560924D01*
X179526332Y-118416699D01*
X179598121Y-118255459D01*
X179637224Y-118083346D01*
X179640039Y-117881750D01*
X179605757Y-117708613D01*
X179538498Y-117545431D01*
X179526715Y-117527696D01*
X180827058Y-114154029D01*
X180947753Y-114107214D01*
X181096777Y-114012641D01*
X181224592Y-113890924D01*
X181326332Y-113746699D01*
X181398121Y-113585459D01*
X181437224Y-113413346D01*
X181440039Y-113211750D01*
X181405757Y-113038613D01*
X181338498Y-112875431D01*
X181240825Y-112728421D01*
X181116458Y-112603182D01*
X180970133Y-112504485D01*
X180807425Y-112436089D01*
X180634531Y-112400599D01*
X180458036Y-112399367D01*
X180284663Y-112432440D01*
X180121016Y-112498557D01*
X179973328Y-112595202D01*
X179847224Y-112718692D01*
X179747508Y-112864324D01*
X179677977Y-113026550D01*
X179641281Y-113199193D01*
X179638817Y-113375674D01*
X179670678Y-113549274D01*
X179735652Y-113713379D01*
X179753663Y-113741326D01*
X178453269Y-117115124D01*
X178321016Y-117168557D01*
X178173328Y-117265202D01*
X178047224Y-117388692D01*
X177947508Y-117534324D01*
X177877977Y-117696550D01*
X177841281Y-117869193D01*
X177838817Y-118045674D01*
X173109448Y-118045674D01*
X173559217Y-117673593D01*
X177447842Y-112905669D01*
X178027402Y-111815674D01*
X181918817Y-111815674D01*
X181950678Y-111989274D01*
X182015652Y-112153379D01*
X182111263Y-112301738D01*
X182233870Y-112428701D01*
X182378802Y-112529431D01*
X182540539Y-112600093D01*
X182712921Y-112637993D01*
X182889381Y-112641690D01*
X183063199Y-112611041D01*
X183227753Y-112547214D01*
X183376777Y-112452641D01*
X183504592Y-112330924D01*
X183606332Y-112186699D01*
X183678121Y-112025459D01*
X183717224Y-111853346D01*
X183720039Y-111651750D01*
X183685757Y-111478613D01*
X183618498Y-111315431D01*
X183520825Y-111168421D01*
X183499447Y-111146893D01*
X184075801Y-107616722D01*
X184176777Y-107552641D01*
X184304592Y-107430924D01*
X184406332Y-107286699D01*
X184478121Y-107125459D01*
X184517224Y-106953346D01*
X184520039Y-106751750D01*
X184485757Y-106578613D01*
X184418498Y-106415431D01*
X184320825Y-106268421D01*
X184196458Y-106143182D01*
X184050133Y-106044485D01*
X183887425Y-105976089D01*
X183714531Y-105940599D01*
X183538036Y-105939367D01*
X183364663Y-105972440D01*
X183201016Y-106038557D01*
X183053328Y-106135202D01*
X182927224Y-106258692D01*
X182827508Y-106404324D01*
X182757977Y-106566550D01*
X182721281Y-106739193D01*
X182718817Y-106915674D01*
X182750678Y-107089274D01*
X182815652Y-107253379D01*
X182911263Y-107401738D01*
X182940698Y-107432219D01*
X182364314Y-110962574D01*
X182253328Y-111035202D01*
X182127224Y-111158692D01*
X182027508Y-111304324D01*
X181957977Y-111466550D01*
X181921281Y-111639193D01*
X181918817Y-111815674D01*
X178027402Y-111815674D01*
X180336314Y-107473244D01*
X182114611Y-101583238D01*
X182283019Y-99865674D01*
X184368817Y-99865674D01*
X184400678Y-100039274D01*
X184465652Y-100203379D01*
X184561263Y-100351738D01*
X184683870Y-100478701D01*
X184729907Y-100510697D01*
X184911501Y-104186162D01*
X184827224Y-104268692D01*
X184727508Y-104414324D01*
X184657977Y-104576550D01*
X184621281Y-104749193D01*
X184618817Y-104925674D01*
X184650678Y-105099274D01*
X184715652Y-105263379D01*
X184811263Y-105411738D01*
X184933870Y-105538701D01*
X185078802Y-105639431D01*
X185240539Y-105710093D01*
X185412921Y-105747993D01*
X185589381Y-105751690D01*
X185763199Y-105721041D01*
X185927753Y-105657214D01*
X186076777Y-105562641D01*
X186204592Y-105440924D01*
X186306332Y-105296699D01*
X186378121Y-105135459D01*
X186417224Y-104963346D01*
X186420039Y-104761750D01*
X186385757Y-104588613D01*
X186318498Y-104425431D01*
X186282345Y-104371016D01*
X187827484Y-104371016D01*
X187904685Y-104580210D01*
X188146563Y-104675624D01*
X188402409Y-104722016D01*
X188662389Y-104717604D01*
X188916513Y-104662558D01*
X189115315Y-104580210D01*
X189192516Y-104371016D01*
X188510000Y-103688500D01*
X187827484Y-104371016D01*
X186282345Y-104371016D01*
X186220825Y-104278421D01*
X186096458Y-104153182D01*
X186060060Y-104128631D01*
X186018745Y-103292409D01*
X187187984Y-103292409D01*
X187192396Y-103552389D01*
X187247442Y-103806513D01*
X187329790Y-104005315D01*
X187538984Y-104082516D01*
X188221500Y-103400000D01*
X187538984Y-102717484D01*
X187329790Y-102794685D01*
X187234376Y-103036563D01*
X187187984Y-103292409D01*
X186018745Y-103292409D01*
X185976086Y-102428984D01*
X187827484Y-102428984D01*
X188510000Y-103111500D01*
X189192516Y-102428984D01*
X189115315Y-102219790D01*
X188873437Y-102124376D01*
X188617591Y-102077984D01*
X188357611Y-102082396D01*
X188103487Y-102137442D01*
X187904685Y-102219790D01*
X187827484Y-102428984D01*
X185976086Y-102428984D01*
X185878478Y-100453407D01*
X185954592Y-100380924D01*
X186056332Y-100236699D01*
X186128121Y-100075459D01*
X186167224Y-99903346D01*
X186170039Y-99701750D01*
X186135757Y-99528613D01*
X186068498Y-99365431D01*
X185970825Y-99218421D01*
X185846458Y-99093182D01*
X185700133Y-98994485D01*
X185537425Y-98926089D01*
X185364531Y-98890599D01*
X185188036Y-98889367D01*
X185014663Y-98922440D01*
X184851016Y-98988557D01*
X184703328Y-99085202D01*
X184577224Y-99208692D01*
X184477508Y-99354324D01*
X184407977Y-99516550D01*
X184371281Y-99689193D01*
X184368817Y-99865674D01*
X182283019Y-99865674D01*
X182715000Y-95460000D01*
X182702709Y-94579770D01*
X182472272Y-92755674D01*
X184528817Y-92755674D01*
X184560678Y-92929274D01*
X184625652Y-93093379D01*
X184721263Y-93241738D01*
X184843870Y-93368701D01*
X184988802Y-93469431D01*
X185050479Y-93496377D01*
X185967497Y-96976712D01*
X185907508Y-97064324D01*
X185837977Y-97226550D01*
X185801281Y-97399193D01*
X185798817Y-97575674D01*
X185830678Y-97749274D01*
X185895652Y-97913379D01*
X185991263Y-98061738D01*
X186113870Y-98188701D01*
X186258802Y-98289431D01*
X186420539Y-98360093D01*
X186592921Y-98397993D01*
X186769381Y-98401690D01*
X186943199Y-98371041D01*
X187107753Y-98307214D01*
X187256777Y-98212641D01*
X187384592Y-98090924D01*
X187486332Y-97946699D01*
X187558121Y-97785459D01*
X187597224Y-97613346D01*
X187600039Y-97411750D01*
X187565757Y-97238613D01*
X187498498Y-97075431D01*
X187400825Y-96928421D01*
X187276458Y-96803182D01*
X187130133Y-96704485D01*
X187079399Y-96683158D01*
X186791871Y-95591908D01*
X188176407Y-95591908D01*
X188219314Y-95825689D01*
X188306812Y-96046683D01*
X188435568Y-96246474D01*
X188600678Y-96417450D01*
X188795853Y-96553100D01*
X189013659Y-96648257D01*
X189245800Y-96699297D01*
X189483433Y-96704275D01*
X189717508Y-96663001D01*
X189939108Y-96577048D01*
X190139792Y-96449690D01*
X190311917Y-96285777D01*
X190448927Y-96091554D01*
X190545602Y-95874418D01*
X190598261Y-95642639D01*
X190602052Y-95371157D01*
X190555885Y-95137999D01*
X190465310Y-94918247D01*
X190333777Y-94720274D01*
X190166296Y-94551620D01*
X189969246Y-94418708D01*
X189750132Y-94326601D01*
X189517301Y-94278808D01*
X189279622Y-94277148D01*
X189046147Y-94321686D01*
X188825768Y-94410725D01*
X188626882Y-94540872D01*
X188457062Y-94707172D01*
X188322778Y-94903290D01*
X188229143Y-95121755D01*
X188179726Y-95354246D01*
X188176407Y-95591908D01*
X186791871Y-95591908D01*
X186162449Y-93203082D01*
X186216332Y-93126699D01*
X186288121Y-92965459D01*
X186327224Y-92793346D01*
X186330039Y-92591750D01*
X186295757Y-92418613D01*
X186228498Y-92255431D01*
X186130825Y-92108421D01*
X186006458Y-91983182D01*
X185860133Y-91884485D01*
X185697425Y-91816089D01*
X185524531Y-91780599D01*
X185348036Y-91779367D01*
X185174663Y-91812440D01*
X185011016Y-91878557D01*
X184863328Y-91975202D01*
X184737224Y-92098692D01*
X184637508Y-92244324D01*
X184567977Y-92406550D01*
X184531281Y-92579193D01*
X184528817Y-92755674D01*
X182472272Y-92755674D01*
X181931583Y-88475684D01*
X180996818Y-85665674D01*
X183228817Y-85665674D01*
X183260678Y-85839274D01*
X183325652Y-86003379D01*
X183421263Y-86151738D01*
X183543870Y-86278701D01*
X183688802Y-86379431D01*
X183850539Y-86450093D01*
X183920702Y-86465519D01*
X185497964Y-89663255D01*
X185457977Y-89756550D01*
X185421281Y-89929193D01*
X185418817Y-90105674D01*
X185450678Y-90279274D01*
X185515652Y-90443379D01*
X185611263Y-90591738D01*
X185733870Y-90718701D01*
X185878802Y-90819431D01*
X186040539Y-90890093D01*
X186212921Y-90927993D01*
X186389381Y-90931690D01*
X186563199Y-90901041D01*
X186727753Y-90837214D01*
X186876777Y-90742641D01*
X187004592Y-90620924D01*
X187106332Y-90476699D01*
X187178121Y-90315459D01*
X187217224Y-90143346D01*
X187220039Y-89941750D01*
X187185757Y-89768613D01*
X187118498Y-89605431D01*
X187020825Y-89458421D01*
X186896458Y-89333182D01*
X186750133Y-89234485D01*
X186587425Y-89166089D01*
X186529120Y-89154121D01*
X184951980Y-85956632D01*
X184988121Y-85875459D01*
X185027224Y-85703346D01*
X185030039Y-85501750D01*
X184995757Y-85328613D01*
X184928498Y-85165431D01*
X184830825Y-85018421D01*
X184706458Y-84893182D01*
X184560133Y-84794485D01*
X184397425Y-84726089D01*
X184224531Y-84690599D01*
X184048036Y-84689367D01*
X183874663Y-84722440D01*
X183711016Y-84788557D01*
X183563328Y-84885202D01*
X183437224Y-85008692D01*
X183337508Y-85154324D01*
X183267977Y-85316550D01*
X183231281Y-85489193D01*
X183228817Y-85665674D01*
X180996818Y-85665674D01*
X179989521Y-82637627D01*
X177943327Y-79035674D01*
X180468817Y-79035674D01*
X180500678Y-79209274D01*
X180565652Y-79373379D01*
X180661263Y-79521738D01*
X180783870Y-79648701D01*
X180928802Y-79749431D01*
X181090539Y-79820093D01*
X181262921Y-79857993D01*
X181346784Y-79859750D01*
X183569840Y-82681877D01*
X183551281Y-82769193D01*
X183548817Y-82945674D01*
X183580678Y-83119274D01*
X183645652Y-83283379D01*
X183741263Y-83431738D01*
X183863870Y-83558701D01*
X184008802Y-83659431D01*
X184170539Y-83730093D01*
X184342921Y-83767993D01*
X184519381Y-83771690D01*
X184693199Y-83741041D01*
X184857753Y-83677214D01*
X185006777Y-83582641D01*
X185134592Y-83460924D01*
X185236332Y-83316699D01*
X185308121Y-83155459D01*
X185347224Y-82983346D01*
X185350039Y-82781750D01*
X185315757Y-82608613D01*
X185248498Y-82445431D01*
X185150825Y-82298421D01*
X185026458Y-82173182D01*
X184880133Y-82074485D01*
X184717425Y-82006089D01*
X184544531Y-81970599D01*
X184473098Y-81970100D01*
X182250218Y-79148198D01*
X182267224Y-79073346D01*
X182270039Y-78871750D01*
X182235757Y-78698613D01*
X182168498Y-78535431D01*
X182070825Y-78388421D01*
X181946458Y-78263182D01*
X181800133Y-78164485D01*
X181637425Y-78096089D01*
X181464531Y-78060599D01*
X181288036Y-78059367D01*
X181114663Y-78092440D01*
X180951016Y-78158557D01*
X180803328Y-78255202D01*
X180677224Y-78378692D01*
X180577508Y-78524324D01*
X180507977Y-78686550D01*
X180471281Y-78859193D01*
X180468817Y-79035674D01*
X177943327Y-79035674D01*
X176950493Y-77287971D01*
X173392222Y-73165674D01*
X176398817Y-73165674D01*
X176430678Y-73339274D01*
X176495652Y-73503379D01*
X176591263Y-73651738D01*
X176713870Y-73778701D01*
X176858802Y-73879431D01*
X177020539Y-73950093D01*
X177192921Y-73987993D01*
X177369381Y-73991690D01*
X177471804Y-73973630D01*
X180199786Y-76206268D01*
X180198817Y-76275674D01*
X180230678Y-76449274D01*
X180295652Y-76613379D01*
X180391263Y-76761738D01*
X180513870Y-76888701D01*
X180658802Y-76989431D01*
X180820539Y-77060093D01*
X180992921Y-77097993D01*
X181169381Y-77101690D01*
X181343199Y-77071041D01*
X181507753Y-77007214D01*
X181656777Y-76912641D01*
X181784592Y-76790924D01*
X181886332Y-76646699D01*
X181958121Y-76485459D01*
X181997224Y-76313346D01*
X182000039Y-76111750D01*
X181965757Y-75938613D01*
X181898498Y-75775431D01*
X181800825Y-75628421D01*
X181676458Y-75503182D01*
X181530133Y-75404485D01*
X181367425Y-75336089D01*
X181194531Y-75300599D01*
X181018036Y-75299367D01*
X180928329Y-75316480D01*
X178198909Y-73082665D01*
X178200039Y-73001750D01*
X178165757Y-72828613D01*
X178098498Y-72665431D01*
X178000825Y-72518421D01*
X177876458Y-72393182D01*
X177730133Y-72294485D01*
X177567425Y-72226089D01*
X177394531Y-72190599D01*
X177218036Y-72189367D01*
X177044663Y-72222440D01*
X176881016Y-72288557D01*
X176733328Y-72385202D01*
X176607224Y-72508692D01*
X176507508Y-72654324D01*
X176437977Y-72816550D01*
X176401281Y-72989193D01*
X176398817Y-73165674D01*
X173392222Y-73165674D01*
X172930256Y-72630482D01*
X168081940Y-68842562D01*
X166741930Y-68165674D01*
X171158817Y-68165674D01*
X171190678Y-68339274D01*
X171255652Y-68503379D01*
X171351263Y-68651738D01*
X171473870Y-68778701D01*
X171618802Y-68879431D01*
X171780539Y-68950093D01*
X171952921Y-68987993D01*
X172129381Y-68991690D01*
X172303199Y-68961041D01*
X172413094Y-68918415D01*
X175610543Y-70564054D01*
X175620678Y-70619274D01*
X175685652Y-70783379D01*
X175781263Y-70931738D01*
X175903870Y-71058701D01*
X176048802Y-71159431D01*
X176210539Y-71230093D01*
X176382921Y-71267993D01*
X176559381Y-71271690D01*
X176733199Y-71241041D01*
X176897753Y-71177214D01*
X177046777Y-71082641D01*
X177174592Y-70960924D01*
X177276332Y-70816699D01*
X177348121Y-70655459D01*
X177387224Y-70483346D01*
X177390039Y-70281750D01*
X177355757Y-70108613D01*
X177288498Y-69945431D01*
X177190825Y-69798421D01*
X177066458Y-69673182D01*
X176920133Y-69574485D01*
X176757425Y-69506089D01*
X176584531Y-69470599D01*
X176408036Y-69469367D01*
X176234663Y-69502440D01*
X176137288Y-69541782D01*
X172939047Y-67895735D01*
X172925757Y-67828613D01*
X172858498Y-67665431D01*
X172760825Y-67518421D01*
X172636458Y-67393182D01*
X172490133Y-67294485D01*
X172327425Y-67226089D01*
X172154531Y-67190599D01*
X171978036Y-67189367D01*
X171804663Y-67222440D01*
X171641016Y-67288557D01*
X171493328Y-67385202D01*
X171367224Y-67508692D01*
X171267508Y-67654324D01*
X171197977Y-67816550D01*
X171161281Y-67989193D01*
X171158817Y-68165674D01*
X166741930Y-68165674D01*
X162590215Y-66068492D01*
X156849564Y-64465674D01*
X164958817Y-64465674D01*
X164990678Y-64639274D01*
X165055652Y-64803379D01*
X165151263Y-64951738D01*
X165273870Y-65078701D01*
X165418802Y-65179431D01*
X165580539Y-65250093D01*
X165752921Y-65287993D01*
X165929381Y-65291690D01*
X166103199Y-65261041D01*
X166267753Y-65197214D01*
X166368697Y-65133153D01*
X169835569Y-66122656D01*
X169855652Y-66173379D01*
X169951263Y-66321738D01*
X170073870Y-66448701D01*
X170218802Y-66549431D01*
X170380539Y-66620093D01*
X170552921Y-66657993D01*
X170729381Y-66661690D01*
X170903199Y-66631041D01*
X171067753Y-66567214D01*
X171216777Y-66472641D01*
X171344592Y-66350924D01*
X171446332Y-66206699D01*
X171518121Y-66045459D01*
X171557224Y-65873346D01*
X171560039Y-65671750D01*
X171525757Y-65498613D01*
X171458498Y-65335431D01*
X171360825Y-65188421D01*
X171236458Y-65063182D01*
X171090133Y-64964485D01*
X170927425Y-64896089D01*
X170754531Y-64860599D01*
X170578036Y-64859367D01*
X170404663Y-64892440D01*
X170241016Y-64958557D01*
X170151746Y-65016974D01*
X166683962Y-64027210D01*
X166658498Y-63965431D01*
X166560825Y-63818421D01*
X166436458Y-63693182D01*
X166290133Y-63594485D01*
X166127425Y-63526089D01*
X165954531Y-63490599D01*
X165778036Y-63489367D01*
X165604663Y-63522440D01*
X165441016Y-63588557D01*
X165293328Y-63685202D01*
X165167224Y-63808692D01*
X165067508Y-63954324D01*
X164997977Y-64116550D01*
X164961281Y-64289193D01*
X164958817Y-64465674D01*
X156849564Y-64465674D01*
X156664259Y-64413936D01*
X150529790Y-63941914D01*
X144420469Y-64670406D01*
X138568997Y-66571665D01*
X133198255Y-69573271D01*
X128512813Y-73560895D01*
X124691138Y-78382649D01*
X121878796Y-83854873D01*
X120182909Y-89769134D01*
X119668073Y-95900158D01*
X116783382Y-95900158D01*
X116345729Y-93996785D01*
X116416332Y-93896699D01*
X116488121Y-93735459D01*
X116527224Y-93563346D01*
X116530039Y-93361750D01*
X116495757Y-93188613D01*
X116428498Y-93025431D01*
X116330825Y-92878421D01*
X116206458Y-92753182D01*
X116060133Y-92654485D01*
X115897425Y-92586089D01*
X115724531Y-92550599D01*
X115548036Y-92549367D01*
X115374663Y-92582440D01*
X115211016Y-92648557D01*
X115063328Y-92745202D01*
X114937224Y-92868692D01*
X114837508Y-93014324D01*
X114767977Y-93176550D01*
X114731281Y-93349193D01*
X114728817Y-93525674D01*
X111873994Y-93525674D01*
X112536208Y-87621908D01*
X112626407Y-87621908D01*
X112669314Y-87855689D01*
X112756812Y-88076683D01*
X112885568Y-88276474D01*
X113050678Y-88447450D01*
X113245853Y-88583100D01*
X113463659Y-88678257D01*
X113695800Y-88729297D01*
X113933433Y-88734275D01*
X114167508Y-88693001D01*
X114389108Y-88607048D01*
X114589792Y-88479690D01*
X114761917Y-88315777D01*
X114898927Y-88121554D01*
X114995602Y-87904418D01*
X115048261Y-87672639D01*
X115052052Y-87401157D01*
X115005885Y-87167999D01*
X114915310Y-86948247D01*
X114783777Y-86750274D01*
X114616296Y-86581620D01*
X114419246Y-86448708D01*
X114200132Y-86356601D01*
X113967301Y-86308808D01*
X113729622Y-86307148D01*
X113496147Y-86351686D01*
X113275768Y-86440725D01*
X113076882Y-86570872D01*
X112907062Y-86737172D01*
X112772778Y-86933290D01*
X112679143Y-87151755D01*
X112629726Y-87384246D01*
X112626407Y-87621908D01*
X112536208Y-87621908D01*
X112577623Y-87252686D01*
X112916099Y-86185674D01*
X116008817Y-86185674D01*
X116040678Y-86359274D01*
X116105652Y-86523379D01*
X116201263Y-86671738D01*
X116323870Y-86798701D01*
X116337930Y-86808473D01*
X116352080Y-90176217D01*
X116237224Y-90288692D01*
X116137508Y-90434324D01*
X116067977Y-90596550D01*
X116031281Y-90769193D01*
X116028817Y-90945674D01*
X116060678Y-91119274D01*
X116125652Y-91283379D01*
X116221263Y-91431738D01*
X116343870Y-91558701D01*
X116488802Y-91659431D01*
X116650539Y-91730093D01*
X116822921Y-91767993D01*
X116999381Y-91771690D01*
X117173199Y-91741041D01*
X117337753Y-91677214D01*
X117486777Y-91582641D01*
X117614592Y-91460924D01*
X117716332Y-91316699D01*
X117788121Y-91155459D01*
X117827224Y-90983346D01*
X117830039Y-90781750D01*
X117795757Y-90608613D01*
X117728498Y-90445431D01*
X117630825Y-90298421D01*
X117506458Y-90173182D01*
X117502065Y-90170219D01*
X117487915Y-86802512D01*
X117594592Y-86700924D01*
X117696332Y-86556699D01*
X117768121Y-86395459D01*
X117807224Y-86223346D01*
X117810039Y-86021750D01*
X117775757Y-85848613D01*
X117708498Y-85685431D01*
X117610825Y-85538421D01*
X117486458Y-85413182D01*
X117340133Y-85314485D01*
X117177425Y-85246089D01*
X117004531Y-85210599D01*
X116828036Y-85209367D01*
X116654663Y-85242440D01*
X116491016Y-85308557D01*
X116343328Y-85405202D01*
X116217224Y-85528692D01*
X116117508Y-85674324D01*
X116047977Y-85836550D01*
X116011281Y-86009193D01*
X116008817Y-86185674D01*
X112916099Y-86185674D01*
X113667907Y-83815674D01*
X117678817Y-83815674D01*
X117710678Y-83989274D01*
X117775652Y-84153379D01*
X117871263Y-84301738D01*
X117993870Y-84428701D01*
X118138802Y-84529431D01*
X118300539Y-84600093D01*
X118472921Y-84637993D01*
X118649381Y-84641690D01*
X118823199Y-84611041D01*
X118987753Y-84547214D01*
X119136777Y-84452641D01*
X119264592Y-84330924D01*
X119366332Y-84186699D01*
X119438121Y-84025459D01*
X119477224Y-83853346D01*
X119480039Y-83651750D01*
X119445757Y-83478613D01*
X119378498Y-83315431D01*
X119285931Y-83176106D01*
X119969641Y-79919670D01*
X120106777Y-79832641D01*
X120234592Y-79710924D01*
X120336332Y-79566699D01*
X120408121Y-79405459D01*
X120447224Y-79233346D01*
X120450039Y-79031750D01*
X120415757Y-78858613D01*
X120348498Y-78695431D01*
X120250825Y-78548421D01*
X120126458Y-78423182D01*
X119980133Y-78324485D01*
X119817425Y-78256089D01*
X119644531Y-78220599D01*
X119468036Y-78219367D01*
X119294663Y-78252440D01*
X119131016Y-78318557D01*
X118983328Y-78415202D01*
X118857224Y-78538692D01*
X118757508Y-78684324D01*
X118687977Y-78846550D01*
X118651281Y-79019193D01*
X118648817Y-79195674D01*
X118680678Y-79369274D01*
X118745652Y-79533379D01*
X118841263Y-79681738D01*
X118843940Y-79684510D01*
X118160686Y-82938773D01*
X118013328Y-83035202D01*
X117887224Y-83158692D01*
X117787508Y-83304324D01*
X117717977Y-83466550D01*
X117681281Y-83639193D01*
X117678817Y-83815674D01*
X113667907Y-83815674D01*
X114907132Y-79909143D01*
X116316411Y-77345674D01*
X120868817Y-77345674D01*
X120900678Y-77519274D01*
X120965652Y-77683379D01*
X121061263Y-77831738D01*
X121183870Y-77958701D01*
X121328802Y-78059431D01*
X121490539Y-78130093D01*
X121662921Y-78167993D01*
X121839381Y-78171690D01*
X122013199Y-78141041D01*
X122177753Y-78077214D01*
X122326777Y-77982641D01*
X122454592Y-77860924D01*
X122556332Y-77716699D01*
X122628121Y-77555459D01*
X122667224Y-77383346D01*
X122670039Y-77181750D01*
X122635757Y-77008613D01*
X122577302Y-76866790D01*
X123943250Y-73781021D01*
X124107753Y-73717214D01*
X124256777Y-73622641D01*
X124384592Y-73500924D01*
X124486332Y-73356699D01*
X124558121Y-73195459D01*
X124597224Y-73023346D01*
X124600039Y-72821750D01*
X124565757Y-72648613D01*
X124498498Y-72485431D01*
X124400825Y-72338421D01*
X124276458Y-72213182D01*
X124130133Y-72114485D01*
X123967425Y-72046089D01*
X123794531Y-72010599D01*
X123618036Y-72009367D01*
X123444663Y-72042440D01*
X123281016Y-72108557D01*
X123133328Y-72205202D01*
X123007224Y-72328692D01*
X122907508Y-72474324D01*
X122837977Y-72636550D01*
X122801281Y-72809193D01*
X122798817Y-72985674D01*
X122830678Y-73159274D01*
X122892132Y-73314489D01*
X121526192Y-76400241D01*
X121514663Y-76402440D01*
X121351016Y-76468557D01*
X121203328Y-76565202D01*
X121077224Y-76688692D01*
X120977508Y-76834324D01*
X120907977Y-76996550D01*
X120871281Y-77169193D01*
X120868817Y-77345674D01*
X116316411Y-77345674D01*
X118618645Y-73157928D01*
X119820448Y-71725674D01*
X125298817Y-71725674D01*
X125330678Y-71899274D01*
X125395652Y-72063379D01*
X125491263Y-72211738D01*
X125613870Y-72338701D01*
X125758802Y-72439431D01*
X125920539Y-72510093D01*
X126092921Y-72547993D01*
X126269381Y-72551690D01*
X126443199Y-72521041D01*
X126607753Y-72457214D01*
X126756777Y-72362641D01*
X126884592Y-72240924D01*
X126986332Y-72096699D01*
X127058121Y-71935459D01*
X127097224Y-71763346D01*
X127100039Y-71561750D01*
X127071517Y-71417703D01*
X129063672Y-68621570D01*
X129069381Y-68621690D01*
X129243199Y-68591041D01*
X129407753Y-68527214D01*
X129556777Y-68432641D01*
X129684592Y-68310924D01*
X129786332Y-68166699D01*
X129858121Y-68005459D01*
X129897224Y-67833346D01*
X129900039Y-67631750D01*
X129865757Y-67458613D01*
X129798498Y-67295431D01*
X129700825Y-67148421D01*
X129576458Y-67023182D01*
X129461548Y-66945674D01*
X130828817Y-66945674D01*
X130860678Y-67119274D01*
X130925652Y-67283379D01*
X131021263Y-67431738D01*
X131143870Y-67558701D01*
X131288802Y-67659431D01*
X131450539Y-67730093D01*
X131622921Y-67767993D01*
X131799381Y-67771690D01*
X131973199Y-67741041D01*
X132137753Y-67677214D01*
X132286777Y-67582641D01*
X132414592Y-67460924D01*
X132516332Y-67316699D01*
X132588121Y-67155459D01*
X132627224Y-66983346D01*
X132629333Y-66832290D01*
X135129579Y-64572861D01*
X135152921Y-64577993D01*
X135329381Y-64581690D01*
X135503199Y-64551041D01*
X135667753Y-64487214D01*
X135816777Y-64392641D01*
X135944592Y-64270924D01*
X136046332Y-64126699D01*
X136118121Y-63965459D01*
X136157224Y-63793346D01*
X136160039Y-63591750D01*
X136125757Y-63418613D01*
X136124546Y-63415674D01*
X137228817Y-63415674D01*
X137260678Y-63589274D01*
X137325652Y-63753379D01*
X137421263Y-63901738D01*
X137543870Y-64028701D01*
X137688802Y-64129431D01*
X137850539Y-64200093D01*
X138022921Y-64237993D01*
X138199381Y-64241690D01*
X138373199Y-64211041D01*
X138537753Y-64147214D01*
X138686777Y-64052641D01*
X138814592Y-63930924D01*
X138916332Y-63786699D01*
X138988121Y-63625459D01*
X139016219Y-63501785D01*
X141866782Y-61900976D01*
X141910539Y-61920093D01*
X142082921Y-61957993D01*
X142259381Y-61961690D01*
X142433199Y-61931041D01*
X142550160Y-61885674D01*
X158518817Y-61885674D01*
X158550678Y-62059274D01*
X158615652Y-62223379D01*
X158711263Y-62371738D01*
X158833870Y-62498701D01*
X158978802Y-62599431D01*
X159140539Y-62670093D01*
X159312921Y-62707993D01*
X159489381Y-62711690D01*
X159663199Y-62681041D01*
X159827753Y-62617214D01*
X159976777Y-62522641D01*
X160038707Y-62463666D01*
X163313797Y-62858085D01*
X163361263Y-62931738D01*
X163483870Y-63058701D01*
X163628802Y-63159431D01*
X163790539Y-63230093D01*
X163962921Y-63267993D01*
X164139381Y-63271690D01*
X164313199Y-63241041D01*
X164477753Y-63177214D01*
X164626777Y-63082641D01*
X164754592Y-62960924D01*
X164856332Y-62816699D01*
X164928121Y-62655459D01*
X164967224Y-62483346D01*
X164970039Y-62281750D01*
X164935757Y-62108613D01*
X164868498Y-61945431D01*
X164770825Y-61798421D01*
X164646458Y-61673182D01*
X164500133Y-61574485D01*
X164337425Y-61506089D01*
X164164531Y-61470599D01*
X163988036Y-61469367D01*
X163814663Y-61502440D01*
X163651016Y-61568557D01*
X163503328Y-61665202D01*
X163451133Y-61716315D01*
X160176306Y-61321927D01*
X160120825Y-61238421D01*
X159996458Y-61113182D01*
X159850133Y-61014485D01*
X159687425Y-60946089D01*
X159514531Y-60910599D01*
X159338036Y-60909367D01*
X159164663Y-60942440D01*
X159001016Y-61008557D01*
X158853328Y-61105202D01*
X158727224Y-61228692D01*
X158627508Y-61374324D01*
X158557977Y-61536550D01*
X158521281Y-61709193D01*
X158518817Y-61885674D01*
X142550160Y-61885674D01*
X142597753Y-61867214D01*
X142746777Y-61772641D01*
X142874592Y-61650924D01*
X142976332Y-61506699D01*
X143048121Y-61345459D01*
X143087224Y-61173346D01*
X143089984Y-60975674D01*
X151288817Y-60975674D01*
X151320678Y-61149274D01*
X151385652Y-61313379D01*
X151481263Y-61461738D01*
X151603870Y-61588701D01*
X151748802Y-61689431D01*
X151910539Y-61760093D01*
X152082921Y-61797993D01*
X152259381Y-61801690D01*
X152433199Y-61771041D01*
X152597753Y-61707214D01*
X152746777Y-61612641D01*
X152874592Y-61490924D01*
X152943041Y-61393892D01*
X156275443Y-61018908D01*
X156313870Y-61058701D01*
X156458802Y-61159431D01*
X156620539Y-61230093D01*
X156792921Y-61267993D01*
X156969381Y-61271690D01*
X157143199Y-61241041D01*
X157307753Y-61177214D01*
X157456777Y-61082641D01*
X157584592Y-60960924D01*
X157686332Y-60816699D01*
X157758121Y-60655459D01*
X157797224Y-60483346D01*
X157800039Y-60281750D01*
X157765757Y-60108613D01*
X157698498Y-59945431D01*
X157600825Y-59798421D01*
X157476458Y-59673182D01*
X157330133Y-59574485D01*
X157167425Y-59506089D01*
X156994531Y-59470599D01*
X156818036Y-59469367D01*
X156644663Y-59502440D01*
X156481016Y-59568557D01*
X156333328Y-59665202D01*
X156207224Y-59788692D01*
X156147403Y-59876058D01*
X152814087Y-60251145D01*
X152766458Y-60203182D01*
X152620133Y-60104485D01*
X152457425Y-60036089D01*
X152284531Y-60000599D01*
X152108036Y-59999367D01*
X151934663Y-60032440D01*
X151771016Y-60098557D01*
X151623328Y-60195202D01*
X151497224Y-60318692D01*
X151397508Y-60464324D01*
X151327977Y-60626550D01*
X151291281Y-60799193D01*
X151288817Y-60975674D01*
X143089984Y-60975674D01*
X143090039Y-60971750D01*
X143055757Y-60798613D01*
X142988498Y-60635431D01*
X142890825Y-60488421D01*
X142766458Y-60363182D01*
X142620133Y-60264485D01*
X142457425Y-60196089D01*
X142284531Y-60160599D01*
X142108036Y-60159367D01*
X141934663Y-60192440D01*
X141771016Y-60258557D01*
X141623328Y-60355202D01*
X141497224Y-60478692D01*
X141397508Y-60624324D01*
X141327977Y-60786550D01*
X141304305Y-60897921D01*
X138452690Y-62499320D01*
X138397425Y-62476089D01*
X138224531Y-62440599D01*
X138048036Y-62439367D01*
X137874663Y-62472440D01*
X137711016Y-62538557D01*
X137563328Y-62635202D01*
X137437224Y-62758692D01*
X137337508Y-62904324D01*
X137267977Y-63066550D01*
X137231281Y-63239193D01*
X137228817Y-63415674D01*
X136124546Y-63415674D01*
X136058498Y-63255431D01*
X135960825Y-63108421D01*
X135836458Y-62983182D01*
X135690133Y-62884485D01*
X135527425Y-62816089D01*
X135354531Y-62780599D01*
X135178036Y-62779367D01*
X135004663Y-62812440D01*
X134841016Y-62878557D01*
X134693328Y-62975202D01*
X134567224Y-63098692D01*
X134467508Y-63244324D01*
X134397977Y-63406550D01*
X134361281Y-63579193D01*
X134359330Y-63718918D01*
X131859675Y-65977813D01*
X131824531Y-65970599D01*
X131648036Y-65969367D01*
X131474663Y-66002440D01*
X131311016Y-66068557D01*
X131163328Y-66165202D01*
X131037224Y-66288692D01*
X130937508Y-66434324D01*
X130867977Y-66596550D01*
X130831281Y-66769193D01*
X130828817Y-66945674D01*
X129461548Y-66945674D01*
X129430133Y-66924485D01*
X129267425Y-66856089D01*
X129094531Y-66820599D01*
X128918036Y-66819367D01*
X128744663Y-66852440D01*
X128581016Y-66918557D01*
X128433328Y-67015202D01*
X128307224Y-67138692D01*
X128207508Y-67284324D01*
X128137977Y-67446550D01*
X128101281Y-67619193D01*
X128098817Y-67795674D01*
X128127751Y-67953325D01*
X126135573Y-70749489D01*
X126118036Y-70749367D01*
X125944663Y-70782440D01*
X125781016Y-70848557D01*
X125633328Y-70945202D01*
X125507224Y-71068692D01*
X125407508Y-71214324D01*
X125337977Y-71376550D01*
X125301281Y-71549193D01*
X125298817Y-71725674D01*
X119820448Y-71725674D01*
X123570790Y-67256191D01*
X129574942Y-62428729D01*
X136402405Y-58859417D01*
X143793123Y-56684211D01*
X146449772Y-56442437D01*
X146436882Y-56450872D01*
X146267062Y-56617172D01*
X146132778Y-56813290D01*
X146039143Y-57031755D01*
X145989726Y-57264246D01*
X145986407Y-57501908D01*
X146029314Y-57735689D01*
X146116812Y-57956683D01*
X146245568Y-58156474D01*
X146410678Y-58327450D01*
X146605853Y-58463100D01*
X146823659Y-58558257D01*
X147055800Y-58609297D01*
X147293433Y-58614275D01*
X147527508Y-58573001D01*
X147749108Y-58487048D01*
X147949792Y-58359690D01*
X148121917Y-58195777D01*
X148258927Y-58001554D01*
X148355602Y-57784418D01*
X148408261Y-57552639D01*
X148412052Y-57281157D01*
X148365885Y-57047999D01*
X148275310Y-56828247D01*
X148143777Y-56630274D01*
X147976296Y-56461620D01*
X147779246Y-56328708D01*
X147765043Y-56322738D01*
X151465585Y-55985962D01*
X154471208Y-56301866D01*
X154471208Y-56301866D01*
G37*
X154471208Y-56301866D02*
X154426882Y-56330872D01*
X154257062Y-56497172D01*
X154122778Y-56693290D01*
X154029143Y-56911755D01*
X153979726Y-57144246D01*
X153976407Y-57381908D01*
X154019314Y-57615689D01*
X154106812Y-57836683D01*
X154235568Y-58036474D01*
X154400678Y-58207450D01*
X154595853Y-58343100D01*
X154813659Y-58438257D01*
X155045800Y-58489297D01*
X155283433Y-58494275D01*
X155517508Y-58453001D01*
X155739108Y-58367048D01*
X155939792Y-58239690D01*
X156111917Y-58075777D01*
X156248927Y-57881554D01*
X156345602Y-57664418D01*
X156398261Y-57432639D01*
X156402052Y-57161157D01*
X156355885Y-56927999D01*
X156265310Y-56708247D01*
X156133777Y-56510274D01*
X156096450Y-56472685D01*
X159127551Y-56791267D01*
X166487178Y-59069452D01*
X173264140Y-62733742D01*
X179200305Y-67644565D01*
X184069566Y-73614869D01*
X187686455Y-80417247D01*
X189913205Y-87792599D01*
X190665000Y-95460000D01*
X190649609Y-96562207D01*
X189813356Y-103181834D01*
X189772558Y-102993487D01*
X189690210Y-102794685D01*
X189481016Y-102717484D01*
X188798500Y-103400000D01*
X189481016Y-104082516D01*
X189690210Y-104005315D01*
X189718332Y-103934023D01*
X189684021Y-104205627D01*
X187252207Y-111515929D01*
X183446795Y-118214666D01*
X178412731Y-124046684D01*
X172341763Y-128789845D01*
X165465130Y-132263482D01*
X158044762Y-134335286D01*
X150363298Y-134926342D01*
X142713323Y-134014138D01*
X135386222Y-131633419D01*
X133726219Y-130705674D01*
X144618817Y-130705674D01*
X144650678Y-130879274D01*
X144715652Y-131043379D01*
X144811263Y-131191738D01*
X144933870Y-131318701D01*
X145078802Y-131419431D01*
X145240539Y-131490093D01*
X145412921Y-131527993D01*
X145589381Y-131531690D01*
X145763199Y-131501041D01*
X145927753Y-131437214D01*
X146076777Y-131342641D01*
X146204592Y-131220924D01*
X146306332Y-131076699D01*
X146306976Y-131075252D01*
X146361361Y-131065674D01*
X152028817Y-131065674D01*
X152060678Y-131239274D01*
X152125652Y-131403379D01*
X152221263Y-131551738D01*
X152343870Y-131678701D01*
X152488802Y-131779431D01*
X152650539Y-131850093D01*
X152822921Y-131887993D01*
X152999381Y-131891690D01*
X153173199Y-131861041D01*
X153337753Y-131797214D01*
X153486777Y-131702641D01*
X153614592Y-131580924D01*
X153716332Y-131436699D01*
X153782960Y-131287050D01*
X157116932Y-130051181D01*
X157128802Y-130059431D01*
X157290539Y-130130093D01*
X157462921Y-130167993D01*
X157639381Y-130171690D01*
X157813199Y-130141041D01*
X157977753Y-130077214D01*
X158126777Y-129982641D01*
X158254592Y-129860924D01*
X158293566Y-129805674D01*
X159348817Y-129805674D01*
X159380678Y-129979274D01*
X159445652Y-130143379D01*
X159541263Y-130291738D01*
X159663870Y-130418701D01*
X159808802Y-130519431D01*
X159970539Y-130590093D01*
X160142921Y-130627993D01*
X160319381Y-130631690D01*
X160493199Y-130601041D01*
X160657753Y-130537214D01*
X160806777Y-130442641D01*
X160934592Y-130320924D01*
X161036332Y-130176699D01*
X161108121Y-130015459D01*
X161144353Y-129855981D01*
X164147080Y-128014213D01*
X164160539Y-128020093D01*
X164332921Y-128057993D01*
X164509381Y-128061690D01*
X164683199Y-128031041D01*
X164847753Y-127967214D01*
X164996777Y-127872641D01*
X165124592Y-127750924D01*
X165226332Y-127606699D01*
X165298121Y-127445459D01*
X165337224Y-127273346D01*
X165338448Y-127185674D01*
X166278817Y-127185674D01*
X166310678Y-127359274D01*
X166375652Y-127523379D01*
X166471263Y-127671738D01*
X166593870Y-127798701D01*
X166738802Y-127899431D01*
X166900539Y-127970093D01*
X167072921Y-128007993D01*
X167249381Y-128011690D01*
X167423199Y-127981041D01*
X167587753Y-127917214D01*
X167736777Y-127822641D01*
X167864592Y-127700924D01*
X167966332Y-127556699D01*
X168038121Y-127395459D01*
X168077224Y-127223346D01*
X168079622Y-127051579D01*
X170627534Y-124646809D01*
X170632921Y-124647993D01*
X170809381Y-124651690D01*
X170983199Y-124621041D01*
X171147753Y-124557214D01*
X171296777Y-124462641D01*
X171424592Y-124340924D01*
X171526332Y-124196699D01*
X171598121Y-124035459D01*
X171637224Y-123863346D01*
X171640039Y-123661750D01*
X171605757Y-123488613D01*
X171538498Y-123325431D01*
X171485508Y-123245674D01*
X172538817Y-123245674D01*
X172570678Y-123419274D01*
X172635652Y-123583379D01*
X172731263Y-123731738D01*
X172853870Y-123858701D01*
X172998802Y-123959431D01*
X173160539Y-124030093D01*
X173332921Y-124067993D01*
X173509381Y-124071690D01*
X173683199Y-124041041D01*
X173847753Y-123977214D01*
X173996777Y-123882641D01*
X174124592Y-123760924D01*
X174226332Y-123616699D01*
X174298121Y-123455459D01*
X174337224Y-123283346D01*
X174340039Y-123081750D01*
X174305765Y-122908653D01*
X176282146Y-119947676D01*
X176433199Y-119921041D01*
X176597753Y-119857214D01*
X176746777Y-119762641D01*
X176874592Y-119640924D01*
X176976332Y-119496699D01*
X177048121Y-119335459D01*
X177087224Y-119163346D01*
X177090039Y-118961750D01*
X177055757Y-118788613D01*
X176988498Y-118625431D01*
X176890825Y-118478421D01*
X176766458Y-118353182D01*
X176620133Y-118254485D01*
X176457425Y-118186089D01*
X176284531Y-118150599D01*
X176108036Y-118149367D01*
X175934663Y-118182440D01*
X175771016Y-118248557D01*
X175623328Y-118345202D01*
X175497224Y-118468692D01*
X175397508Y-118614324D01*
X175327977Y-118776550D01*
X175291281Y-118949193D01*
X175288817Y-119125674D01*
X175320678Y-119299274D01*
X175325003Y-119310197D01*
X173348632Y-122271161D01*
X173184663Y-122302440D01*
X173021016Y-122368557D01*
X172873328Y-122465202D01*
X172747224Y-122588692D01*
X172647508Y-122734324D01*
X172577977Y-122896550D01*
X172541281Y-123069193D01*
X172538817Y-123245674D01*
X171485508Y-123245674D01*
X171440825Y-123178421D01*
X171316458Y-123053182D01*
X171170133Y-122954485D01*
X171007425Y-122886089D01*
X170834531Y-122850599D01*
X170658036Y-122849367D01*
X170484663Y-122882440D01*
X170321016Y-122948557D01*
X170173328Y-123045202D01*
X170047224Y-123168692D01*
X169947508Y-123314324D01*
X169877977Y-123476550D01*
X169841281Y-123649193D01*
X169839040Y-123809683D01*
X167291518Y-126214086D01*
X167274531Y-126210599D01*
X167098036Y-126209367D01*
X166924663Y-126242440D01*
X166761016Y-126308557D01*
X166613328Y-126405202D01*
X166487224Y-126528692D01*
X166387508Y-126674324D01*
X166317977Y-126836550D01*
X166281281Y-127009193D01*
X166278817Y-127185674D01*
X165338448Y-127185674D01*
X165340039Y-127071750D01*
X165305757Y-126898613D01*
X165238498Y-126735431D01*
X165140825Y-126588421D01*
X165016458Y-126463182D01*
X164870133Y-126364485D01*
X164707425Y-126296089D01*
X164534531Y-126260599D01*
X164358036Y-126259367D01*
X164184663Y-126292440D01*
X164021016Y-126358557D01*
X163873328Y-126455202D01*
X163747224Y-126578692D01*
X163647508Y-126724324D01*
X163577977Y-126886550D01*
X163546779Y-127033324D01*
X160541934Y-128876392D01*
X160517425Y-128866089D01*
X160344531Y-128830599D01*
X160168036Y-128829367D01*
X159994663Y-128862440D01*
X159831016Y-128928557D01*
X159683328Y-129025202D01*
X159557224Y-129148692D01*
X159457508Y-129294324D01*
X159387977Y-129456550D01*
X159351281Y-129629193D01*
X159348817Y-129805674D01*
X158293566Y-129805674D01*
X158356332Y-129716699D01*
X158428121Y-129555459D01*
X158467224Y-129383346D01*
X158470039Y-129181750D01*
X158435757Y-129008613D01*
X158368498Y-128845431D01*
X158270825Y-128698421D01*
X158146458Y-128573182D01*
X158000133Y-128474485D01*
X157837425Y-128406089D01*
X157664531Y-128370599D01*
X157488036Y-128369367D01*
X157314663Y-128402440D01*
X157151016Y-128468557D01*
X157003328Y-128565202D01*
X156877224Y-128688692D01*
X156777508Y-128834324D01*
X156718291Y-128972486D01*
X153381981Y-130209221D01*
X153360133Y-130194485D01*
X153197425Y-130126089D01*
X153024531Y-130090599D01*
X152848036Y-130089367D01*
X152674663Y-130122440D01*
X152511016Y-130188557D01*
X152363328Y-130285202D01*
X152237224Y-130408692D01*
X152137508Y-130554324D01*
X152067977Y-130716550D01*
X152031281Y-130889193D01*
X152028817Y-131065674D01*
X146361361Y-131065674D01*
X149872527Y-130447311D01*
X149873870Y-130448701D01*
X150018802Y-130549431D01*
X150180539Y-130620093D01*
X150352921Y-130657993D01*
X150529381Y-130661690D01*
X150703199Y-130631041D01*
X150867753Y-130567214D01*
X151016777Y-130472641D01*
X151144592Y-130350924D01*
X151246332Y-130206699D01*
X151318121Y-130045459D01*
X151357224Y-129873346D01*
X151360039Y-129671750D01*
X151325757Y-129498613D01*
X151258498Y-129335431D01*
X151160825Y-129188421D01*
X151036458Y-129063182D01*
X150890133Y-128964485D01*
X150727425Y-128896089D01*
X150554531Y-128860599D01*
X150378036Y-128859367D01*
X150204663Y-128892440D01*
X150041016Y-128958557D01*
X149893328Y-129055202D01*
X149767224Y-129178692D01*
X149674207Y-129314540D01*
X146106133Y-129942925D01*
X146096458Y-129933182D01*
X145950133Y-129834485D01*
X145787425Y-129766089D01*
X145614531Y-129730599D01*
X145438036Y-129729367D01*
X145264663Y-129762440D01*
X145101016Y-129828557D01*
X144953328Y-129925202D01*
X144827224Y-130048692D01*
X144727508Y-130194324D01*
X144657977Y-130356550D01*
X144621281Y-130529193D01*
X144618817Y-130705674D01*
X133726219Y-130705674D01*
X130237105Y-128755674D01*
X137388817Y-128755674D01*
X137420678Y-128929274D01*
X137485652Y-129093379D01*
X137581263Y-129241738D01*
X137703870Y-129368701D01*
X137848802Y-129469431D01*
X138010539Y-129540093D01*
X138182921Y-129577993D01*
X138359381Y-129581690D01*
X138533199Y-129551041D01*
X138697753Y-129487214D01*
X138846777Y-129392641D01*
X138955472Y-129289131D01*
X142546882Y-129469423D01*
X142561263Y-129491738D01*
X142683870Y-129618701D01*
X142828802Y-129719431D01*
X142990539Y-129790093D01*
X143162921Y-129827993D01*
X143339381Y-129831690D01*
X143513199Y-129801041D01*
X143677753Y-129737214D01*
X143826777Y-129642641D01*
X143954592Y-129520924D01*
X144056332Y-129376699D01*
X144128121Y-129215459D01*
X144167224Y-129043346D01*
X144170039Y-128841750D01*
X144135757Y-128668613D01*
X144068498Y-128505431D01*
X143970825Y-128358421D01*
X143846458Y-128233182D01*
X143700133Y-128134485D01*
X143537425Y-128066089D01*
X143364531Y-128030599D01*
X143188036Y-128029367D01*
X143014663Y-128062440D01*
X142851016Y-128128557D01*
X142703328Y-128225202D01*
X142605582Y-128320921D01*
X139012157Y-128140529D01*
X138990825Y-128108421D01*
X138866458Y-127983182D01*
X138720133Y-127884485D01*
X138557425Y-127816089D01*
X138384531Y-127780599D01*
X138208036Y-127779367D01*
X138034663Y-127812440D01*
X137871016Y-127878557D01*
X137723328Y-127975202D01*
X137597224Y-128098692D01*
X137497508Y-128244324D01*
X137427977Y-128406550D01*
X137391281Y-128579193D01*
X137388817Y-128755674D01*
X130237105Y-128755674D01*
X128661082Y-127874865D01*
X125783293Y-125425674D01*
X130658817Y-125425674D01*
X130690678Y-125599274D01*
X130755652Y-125763379D01*
X130851263Y-125911738D01*
X130973870Y-126038701D01*
X131118802Y-126139431D01*
X131280539Y-126210093D01*
X131452921Y-126247993D01*
X131629381Y-126251690D01*
X131803199Y-126221041D01*
X131967753Y-126157214D01*
X132102067Y-126071976D01*
X135648806Y-126926089D01*
X135655652Y-126943379D01*
X135751263Y-127091738D01*
X135873870Y-127218701D01*
X136018802Y-127319431D01*
X136180539Y-127390093D01*
X136352921Y-127427993D01*
X136529381Y-127431690D01*
X136703199Y-127401041D01*
X136867753Y-127337214D01*
X137016777Y-127242641D01*
X137144592Y-127120924D01*
X137246332Y-126976699D01*
X137318121Y-126815459D01*
X137357224Y-126643346D01*
X137360039Y-126441750D01*
X137325757Y-126268613D01*
X137258498Y-126105431D01*
X137160825Y-125958421D01*
X137036458Y-125833182D01*
X136890133Y-125734485D01*
X136727425Y-125666089D01*
X136554531Y-125630599D01*
X136378036Y-125629367D01*
X136204663Y-125662440D01*
X136041016Y-125728557D01*
X135919136Y-125808313D01*
X132370131Y-124953655D01*
X132358498Y-124925431D01*
X132260825Y-124778421D01*
X132136458Y-124653182D01*
X131990133Y-124554485D01*
X131827425Y-124486089D01*
X131654531Y-124450599D01*
X131478036Y-124449367D01*
X131304663Y-124482440D01*
X131141016Y-124548557D01*
X130993328Y-124645202D01*
X130867224Y-124768692D01*
X130767508Y-124914324D01*
X130697977Y-125076550D01*
X130661281Y-125249193D01*
X130658817Y-125425674D01*
X125783293Y-125425674D01*
X122794061Y-122881639D01*
X120982228Y-120595674D01*
X125018817Y-120595674D01*
X125050678Y-120769274D01*
X125115652Y-120933379D01*
X125211263Y-121081738D01*
X125333870Y-121208701D01*
X125478802Y-121309431D01*
X125640539Y-121380093D01*
X125812921Y-121417993D01*
X125989381Y-121421690D01*
X126163199Y-121391041D01*
X126270082Y-121349583D01*
X129489991Y-123021042D01*
X129500678Y-123079274D01*
X129565652Y-123243379D01*
X129661263Y-123391738D01*
X129783870Y-123518701D01*
X129928802Y-123619431D01*
X130090539Y-123690093D01*
X130262921Y-123727993D01*
X130439381Y-123731690D01*
X130613199Y-123701041D01*
X130777753Y-123637214D01*
X130926777Y-123542641D01*
X131054592Y-123420924D01*
X131156332Y-123276699D01*
X131228121Y-123115459D01*
X131267224Y-122943346D01*
X131270039Y-122741750D01*
X131235757Y-122568613D01*
X131168498Y-122405431D01*
X131070825Y-122258421D01*
X130946458Y-122133182D01*
X130800133Y-122034485D01*
X130637425Y-121966089D01*
X130464531Y-121930599D01*
X130288036Y-121929367D01*
X130114663Y-121962440D01*
X130020246Y-122000587D01*
X126799649Y-120328771D01*
X126785757Y-120258613D01*
X126718498Y-120095431D01*
X126620825Y-119948421D01*
X126496458Y-119823182D01*
X126350133Y-119724485D01*
X126187425Y-119656089D01*
X126014531Y-119620599D01*
X125838036Y-119619367D01*
X125664663Y-119652440D01*
X125501016Y-119718557D01*
X125353328Y-119815202D01*
X125227224Y-119938692D01*
X125127508Y-120084324D01*
X125057977Y-120246550D01*
X125021281Y-120419193D01*
X125018817Y-120595674D01*
X120982228Y-120595674D01*
X118008633Y-116843932D01*
X116945693Y-114775674D01*
X120338817Y-114775674D01*
X120370678Y-114949274D01*
X120435652Y-115113379D01*
X120531263Y-115261738D01*
X120653870Y-115388701D01*
X120798802Y-115489431D01*
X120960539Y-115560093D01*
X121132921Y-115597993D01*
X121309381Y-115601690D01*
X121418805Y-115582396D01*
X124299691Y-117903110D01*
X124298817Y-117965674D01*
X124330678Y-118139274D01*
X124395652Y-118303379D01*
X124491263Y-118451738D01*
X124613870Y-118578701D01*
X124758802Y-118679431D01*
X124920539Y-118750093D01*
X125092921Y-118787993D01*
X125269381Y-118791690D01*
X125443199Y-118761041D01*
X125607753Y-118697214D01*
X125756777Y-118602641D01*
X125884592Y-118480924D01*
X125986332Y-118336699D01*
X126058121Y-118175459D01*
X126097224Y-118003346D01*
X126100039Y-117801750D01*
X126065757Y-117628613D01*
X125998498Y-117465431D01*
X125900825Y-117318421D01*
X125776458Y-117193182D01*
X125630133Y-117094485D01*
X125467425Y-117026089D01*
X125294531Y-116990599D01*
X125118036Y-116989367D01*
X125021433Y-117007795D01*
X122139004Y-114685840D01*
X122140039Y-114611750D01*
X122105757Y-114438613D01*
X122038498Y-114275431D01*
X121940825Y-114128421D01*
X121816458Y-114003182D01*
X121670133Y-113904485D01*
X121507425Y-113836089D01*
X121334531Y-113800599D01*
X121158036Y-113799367D01*
X120984663Y-113832440D01*
X120821016Y-113898557D01*
X120673328Y-113995202D01*
X120547224Y-114118692D01*
X120447508Y-114264324D01*
X120377977Y-114426550D01*
X120341281Y-114599193D01*
X120338817Y-114775674D01*
X116945693Y-114775674D01*
X114487073Y-109991717D01*
X113960597Y-108155674D01*
X117008817Y-108155674D01*
X117040678Y-108329274D01*
X117105652Y-108493379D01*
X117201263Y-108641738D01*
X117323870Y-108768701D01*
X117468802Y-108869431D01*
X117630539Y-108940093D01*
X117802921Y-108977993D01*
X117890987Y-108979838D01*
X120098965Y-111755993D01*
X120081281Y-111839193D01*
X120078817Y-112015674D01*
X120110678Y-112189274D01*
X120175652Y-112353379D01*
X120271263Y-112501738D01*
X120393870Y-112628701D01*
X120538802Y-112729431D01*
X120700539Y-112800093D01*
X120872921Y-112837993D01*
X121049381Y-112841690D01*
X121223199Y-112811041D01*
X121387753Y-112747214D01*
X121536777Y-112652641D01*
X121664592Y-112530924D01*
X121766332Y-112386699D01*
X121838121Y-112225459D01*
X121877224Y-112053346D01*
X121880039Y-111851750D01*
X121845757Y-111678613D01*
X121778498Y-111515431D01*
X121680825Y-111368421D01*
X121556458Y-111243182D01*
X121410133Y-111144485D01*
X121247425Y-111076089D01*
X121074531Y-111040599D01*
X120998941Y-111040071D01*
X118791140Y-108264140D01*
X118807224Y-108193346D01*
X118810039Y-107991750D01*
X118775757Y-107818613D01*
X118708498Y-107655431D01*
X118610825Y-107508421D01*
X118486458Y-107383182D01*
X118340133Y-107284485D01*
X118177425Y-107216089D01*
X118004531Y-107180599D01*
X117828036Y-107179367D01*
X117654663Y-107212440D01*
X117491016Y-107278557D01*
X117343328Y-107375202D01*
X117217224Y-107498692D01*
X117117508Y-107644324D01*
X117047977Y-107806550D01*
X117011281Y-107979193D01*
X117008817Y-108155674D01*
X113960597Y-108155674D01*
X112363516Y-102585993D01*
X112227455Y-100965674D01*
X115198817Y-100965674D01*
X115230678Y-101139274D01*
X115295652Y-101303379D01*
X115391263Y-101451738D01*
X115513870Y-101578701D01*
X115658802Y-101679431D01*
X115820539Y-101750093D01*
X115868921Y-101760730D01*
X117297183Y-104851745D01*
X117247977Y-104966550D01*
X117211281Y-105139193D01*
X117208817Y-105315674D01*
X117240678Y-105489274D01*
X117305652Y-105653379D01*
X117401263Y-105801738D01*
X117523870Y-105928701D01*
X117668802Y-106029431D01*
X117830539Y-106100093D01*
X118002921Y-106137993D01*
X118179381Y-106141690D01*
X118353199Y-106111041D01*
X118517753Y-106047214D01*
X118666777Y-105952641D01*
X118794592Y-105830924D01*
X118896332Y-105686699D01*
X118968121Y-105525459D01*
X119007224Y-105353346D01*
X119010039Y-105151750D01*
X118975757Y-104978613D01*
X118908498Y-104815431D01*
X118810825Y-104668421D01*
X118686458Y-104543182D01*
X118540133Y-104444485D01*
X118377425Y-104376089D01*
X118340751Y-104368561D01*
X116912581Y-101277744D01*
X116958121Y-101175459D01*
X116997224Y-101003346D01*
X117000039Y-100801750D01*
X116965757Y-100628613D01*
X116898498Y-100465431D01*
X116800825Y-100318421D01*
X116676458Y-100193182D01*
X116530133Y-100094485D01*
X116367425Y-100026089D01*
X116194531Y-99990599D01*
X116018036Y-99989367D01*
X115844663Y-100022440D01*
X115681016Y-100088557D01*
X115533328Y-100185202D01*
X115407224Y-100308692D01*
X115307508Y-100454324D01*
X115237977Y-100616550D01*
X115201281Y-100789193D01*
X115198817Y-100965674D01*
X112227455Y-100965674D01*
X111850868Y-96481016D01*
X112487484Y-96481016D01*
X112564685Y-96690210D01*
X112806563Y-96785624D01*
X113062409Y-96832016D01*
X113322389Y-96827604D01*
X113576513Y-96772558D01*
X113775315Y-96690210D01*
X113852516Y-96481016D01*
X113170000Y-95798500D01*
X112487484Y-96481016D01*
X111850868Y-96481016D01*
X111760294Y-95402409D01*
X111847984Y-95402409D01*
X111852396Y-95662389D01*
X111907442Y-95916513D01*
X111989790Y-96115315D01*
X112198984Y-96192516D01*
X112881500Y-95510000D01*
X113458500Y-95510000D01*
X114141016Y-96192516D01*
X114350210Y-96115315D01*
X114445624Y-95873437D01*
X114492016Y-95617591D01*
X114487604Y-95357611D01*
X114432558Y-95103487D01*
X114350210Y-94904685D01*
X114141016Y-94827484D01*
X113458500Y-95510000D01*
X112881500Y-95510000D01*
X112198984Y-94827484D01*
X111989790Y-94904685D01*
X111894376Y-95146563D01*
X111847984Y-95402409D01*
X111760294Y-95402409D01*
X111718848Y-94908843D01*
X111760334Y-94538984D01*
X112487484Y-94538984D01*
X113170000Y-95221500D01*
X113852516Y-94538984D01*
X113775315Y-94329790D01*
X113533437Y-94234376D01*
X113277591Y-94187984D01*
X113017611Y-94192396D01*
X112763487Y-94247442D01*
X112564685Y-94329790D01*
X112487484Y-94538984D01*
X111760334Y-94538984D01*
X111873994Y-93525674D01*
X114728817Y-93525674D01*
X114760678Y-93699274D01*
X114825652Y-93863379D01*
X114921263Y-94011738D01*
X115043870Y-94138701D01*
X115188802Y-94239431D01*
X115225167Y-94255319D01*
X115974099Y-97512466D01*
X115897508Y-97624324D01*
X115827977Y-97786550D01*
X115791281Y-97959193D01*
X115788817Y-98135674D01*
X115820678Y-98309274D01*
X115885652Y-98473379D01*
X115981263Y-98621738D01*
X116103870Y-98748701D01*
X116248802Y-98849431D01*
X116410539Y-98920093D01*
X116582921Y-98957993D01*
X116759381Y-98961690D01*
X116933199Y-98931041D01*
X117097753Y-98867214D01*
X117246777Y-98772641D01*
X117374592Y-98650924D01*
X117476332Y-98506699D01*
X117548121Y-98345459D01*
X117587224Y-98173346D01*
X117590039Y-97971750D01*
X117555757Y-97798613D01*
X117488498Y-97635431D01*
X117390825Y-97488421D01*
X117266458Y-97363182D01*
X117120133Y-97264485D01*
X117094622Y-97253761D01*
X116783382Y-95900158D01*
X119668073Y-95900158D01*
X120353897Y-102014416D01*
X122214258Y-107879019D01*
X125178297Y-113270585D01*
X129133113Y-117983751D01*
X133928069Y-121838995D01*
X139380527Y-124689471D01*
X145282804Y-126426606D01*
X151410084Y-126984232D01*
X157528981Y-126341110D01*
X163406429Y-124521736D01*
X168818556Y-121595409D01*
X173109448Y-118045674D01*
X177838817Y-118045674D01*
X177870678Y-118219274D01*
X177935652Y-118383379D01*
X178031263Y-118531738D01*
X178153870Y-118658701D01*
X178298802Y-118759431D01*
X178460539Y-118830093D01*
X178632921Y-118867993D01*
X178809381Y-118871690D01*
X178983199Y-118841041D01*
X179147753Y-118777214D01*
X179296777Y-118682641D01*
X179424592Y-118560924D01*
X179526332Y-118416699D01*
X179598121Y-118255459D01*
X179637224Y-118083346D01*
X179640039Y-117881750D01*
X179605757Y-117708613D01*
X179538498Y-117545431D01*
X179526715Y-117527696D01*
X180827058Y-114154029D01*
X180947753Y-114107214D01*
X181096777Y-114012641D01*
X181224592Y-113890924D01*
X181326332Y-113746699D01*
X181398121Y-113585459D01*
X181437224Y-113413346D01*
X181440039Y-113211750D01*
X181405757Y-113038613D01*
X181338498Y-112875431D01*
X181240825Y-112728421D01*
X181116458Y-112603182D01*
X180970133Y-112504485D01*
X180807425Y-112436089D01*
X180634531Y-112400599D01*
X180458036Y-112399367D01*
X180284663Y-112432440D01*
X180121016Y-112498557D01*
X179973328Y-112595202D01*
X179847224Y-112718692D01*
X179747508Y-112864324D01*
X179677977Y-113026550D01*
X179641281Y-113199193D01*
X179638817Y-113375674D01*
X179670678Y-113549274D01*
X179735652Y-113713379D01*
X179753663Y-113741326D01*
X178453269Y-117115124D01*
X178321016Y-117168557D01*
X178173328Y-117265202D01*
X178047224Y-117388692D01*
X177947508Y-117534324D01*
X177877977Y-117696550D01*
X177841281Y-117869193D01*
X177838817Y-118045674D01*
X173109448Y-118045674D01*
X173559217Y-117673593D01*
X177447842Y-112905669D01*
X178027402Y-111815674D01*
X181918817Y-111815674D01*
X181950678Y-111989274D01*
X182015652Y-112153379D01*
X182111263Y-112301738D01*
X182233870Y-112428701D01*
X182378802Y-112529431D01*
X182540539Y-112600093D01*
X182712921Y-112637993D01*
X182889381Y-112641690D01*
X183063199Y-112611041D01*
X183227753Y-112547214D01*
X183376777Y-112452641D01*
X183504592Y-112330924D01*
X183606332Y-112186699D01*
X183678121Y-112025459D01*
X183717224Y-111853346D01*
X183720039Y-111651750D01*
X183685757Y-111478613D01*
X183618498Y-111315431D01*
X183520825Y-111168421D01*
X183499447Y-111146893D01*
X184075801Y-107616722D01*
X184176777Y-107552641D01*
X184304592Y-107430924D01*
X184406332Y-107286699D01*
X184478121Y-107125459D01*
X184517224Y-106953346D01*
X184520039Y-106751750D01*
X184485757Y-106578613D01*
X184418498Y-106415431D01*
X184320825Y-106268421D01*
X184196458Y-106143182D01*
X184050133Y-106044485D01*
X183887425Y-105976089D01*
X183714531Y-105940599D01*
X183538036Y-105939367D01*
X183364663Y-105972440D01*
X183201016Y-106038557D01*
X183053328Y-106135202D01*
X182927224Y-106258692D01*
X182827508Y-106404324D01*
X182757977Y-106566550D01*
X182721281Y-106739193D01*
X182718817Y-106915674D01*
X182750678Y-107089274D01*
X182815652Y-107253379D01*
X182911263Y-107401738D01*
X182940698Y-107432219D01*
X182364314Y-110962574D01*
X182253328Y-111035202D01*
X182127224Y-111158692D01*
X182027508Y-111304324D01*
X181957977Y-111466550D01*
X181921281Y-111639193D01*
X181918817Y-111815674D01*
X178027402Y-111815674D01*
X180336314Y-107473244D01*
X182114611Y-101583238D01*
X182283019Y-99865674D01*
X184368817Y-99865674D01*
X184400678Y-100039274D01*
X184465652Y-100203379D01*
X184561263Y-100351738D01*
X184683870Y-100478701D01*
X184729907Y-100510697D01*
X184911501Y-104186162D01*
X184827224Y-104268692D01*
X184727508Y-104414324D01*
X184657977Y-104576550D01*
X184621281Y-104749193D01*
X184618817Y-104925674D01*
X184650678Y-105099274D01*
X184715652Y-105263379D01*
X184811263Y-105411738D01*
X184933870Y-105538701D01*
X185078802Y-105639431D01*
X185240539Y-105710093D01*
X185412921Y-105747993D01*
X185589381Y-105751690D01*
X185763199Y-105721041D01*
X185927753Y-105657214D01*
X186076777Y-105562641D01*
X186204592Y-105440924D01*
X186306332Y-105296699D01*
X186378121Y-105135459D01*
X186417224Y-104963346D01*
X186420039Y-104761750D01*
X186385757Y-104588613D01*
X186318498Y-104425431D01*
X186282345Y-104371016D01*
X187827484Y-104371016D01*
X187904685Y-104580210D01*
X188146563Y-104675624D01*
X188402409Y-104722016D01*
X188662389Y-104717604D01*
X188916513Y-104662558D01*
X189115315Y-104580210D01*
X189192516Y-104371016D01*
X188510000Y-103688500D01*
X187827484Y-104371016D01*
X186282345Y-104371016D01*
X186220825Y-104278421D01*
X186096458Y-104153182D01*
X186060060Y-104128631D01*
X186018745Y-103292409D01*
X187187984Y-103292409D01*
X187192396Y-103552389D01*
X187247442Y-103806513D01*
X187329790Y-104005315D01*
X187538984Y-104082516D01*
X188221500Y-103400000D01*
X187538984Y-102717484D01*
X187329790Y-102794685D01*
X187234376Y-103036563D01*
X187187984Y-103292409D01*
X186018745Y-103292409D01*
X185976086Y-102428984D01*
X187827484Y-102428984D01*
X188510000Y-103111500D01*
X189192516Y-102428984D01*
X189115315Y-102219790D01*
X188873437Y-102124376D01*
X188617591Y-102077984D01*
X188357611Y-102082396D01*
X188103487Y-102137442D01*
X187904685Y-102219790D01*
X187827484Y-102428984D01*
X185976086Y-102428984D01*
X185878478Y-100453407D01*
X185954592Y-100380924D01*
X186056332Y-100236699D01*
X186128121Y-100075459D01*
X186167224Y-99903346D01*
X186170039Y-99701750D01*
X186135757Y-99528613D01*
X186068498Y-99365431D01*
X185970825Y-99218421D01*
X185846458Y-99093182D01*
X185700133Y-98994485D01*
X185537425Y-98926089D01*
X185364531Y-98890599D01*
X185188036Y-98889367D01*
X185014663Y-98922440D01*
X184851016Y-98988557D01*
X184703328Y-99085202D01*
X184577224Y-99208692D01*
X184477508Y-99354324D01*
X184407977Y-99516550D01*
X184371281Y-99689193D01*
X184368817Y-99865674D01*
X182283019Y-99865674D01*
X182715000Y-95460000D01*
X182702709Y-94579770D01*
X182472272Y-92755674D01*
X184528817Y-92755674D01*
X184560678Y-92929274D01*
X184625652Y-93093379D01*
X184721263Y-93241738D01*
X184843870Y-93368701D01*
X184988802Y-93469431D01*
X185050479Y-93496377D01*
X185967497Y-96976712D01*
X185907508Y-97064324D01*
X185837977Y-97226550D01*
X185801281Y-97399193D01*
X185798817Y-97575674D01*
X185830678Y-97749274D01*
X185895652Y-97913379D01*
X185991263Y-98061738D01*
X186113870Y-98188701D01*
X186258802Y-98289431D01*
X186420539Y-98360093D01*
X186592921Y-98397993D01*
X186769381Y-98401690D01*
X186943199Y-98371041D01*
X187107753Y-98307214D01*
X187256777Y-98212641D01*
X187384592Y-98090924D01*
X187486332Y-97946699D01*
X187558121Y-97785459D01*
X187597224Y-97613346D01*
X187600039Y-97411750D01*
X187565757Y-97238613D01*
X187498498Y-97075431D01*
X187400825Y-96928421D01*
X187276458Y-96803182D01*
X187130133Y-96704485D01*
X187079399Y-96683158D01*
X186791871Y-95591908D01*
X188176407Y-95591908D01*
X188219314Y-95825689D01*
X188306812Y-96046683D01*
X188435568Y-96246474D01*
X188600678Y-96417450D01*
X188795853Y-96553100D01*
X189013659Y-96648257D01*
X189245800Y-96699297D01*
X189483433Y-96704275D01*
X189717508Y-96663001D01*
X189939108Y-96577048D01*
X190139792Y-96449690D01*
X190311917Y-96285777D01*
X190448927Y-96091554D01*
X190545602Y-95874418D01*
X190598261Y-95642639D01*
X190602052Y-95371157D01*
X190555885Y-95137999D01*
X190465310Y-94918247D01*
X190333777Y-94720274D01*
X190166296Y-94551620D01*
X189969246Y-94418708D01*
X189750132Y-94326601D01*
X189517301Y-94278808D01*
X189279622Y-94277148D01*
X189046147Y-94321686D01*
X188825768Y-94410725D01*
X188626882Y-94540872D01*
X188457062Y-94707172D01*
X188322778Y-94903290D01*
X188229143Y-95121755D01*
X188179726Y-95354246D01*
X188176407Y-95591908D01*
X186791871Y-95591908D01*
X186162449Y-93203082D01*
X186216332Y-93126699D01*
X186288121Y-92965459D01*
X186327224Y-92793346D01*
X186330039Y-92591750D01*
X186295757Y-92418613D01*
X186228498Y-92255431D01*
X186130825Y-92108421D01*
X186006458Y-91983182D01*
X185860133Y-91884485D01*
X185697425Y-91816089D01*
X185524531Y-91780599D01*
X185348036Y-91779367D01*
X185174663Y-91812440D01*
X185011016Y-91878557D01*
X184863328Y-91975202D01*
X184737224Y-92098692D01*
X184637508Y-92244324D01*
X184567977Y-92406550D01*
X184531281Y-92579193D01*
X184528817Y-92755674D01*
X182472272Y-92755674D01*
X181931583Y-88475684D01*
X180996818Y-85665674D01*
X183228817Y-85665674D01*
X183260678Y-85839274D01*
X183325652Y-86003379D01*
X183421263Y-86151738D01*
X183543870Y-86278701D01*
X183688802Y-86379431D01*
X183850539Y-86450093D01*
X183920702Y-86465519D01*
X185497964Y-89663255D01*
X185457977Y-89756550D01*
X185421281Y-89929193D01*
X185418817Y-90105674D01*
X185450678Y-90279274D01*
X185515652Y-90443379D01*
X185611263Y-90591738D01*
X185733870Y-90718701D01*
X185878802Y-90819431D01*
X186040539Y-90890093D01*
X186212921Y-90927993D01*
X186389381Y-90931690D01*
X186563199Y-90901041D01*
X186727753Y-90837214D01*
X186876777Y-90742641D01*
X187004592Y-90620924D01*
X187106332Y-90476699D01*
X187178121Y-90315459D01*
X187217224Y-90143346D01*
X187220039Y-89941750D01*
X187185757Y-89768613D01*
X187118498Y-89605431D01*
X187020825Y-89458421D01*
X186896458Y-89333182D01*
X186750133Y-89234485D01*
X186587425Y-89166089D01*
X186529120Y-89154121D01*
X184951980Y-85956632D01*
X184988121Y-85875459D01*
X185027224Y-85703346D01*
X185030039Y-85501750D01*
X184995757Y-85328613D01*
X184928498Y-85165431D01*
X184830825Y-85018421D01*
X184706458Y-84893182D01*
X184560133Y-84794485D01*
X184397425Y-84726089D01*
X184224531Y-84690599D01*
X184048036Y-84689367D01*
X183874663Y-84722440D01*
X183711016Y-84788557D01*
X183563328Y-84885202D01*
X183437224Y-85008692D01*
X183337508Y-85154324D01*
X183267977Y-85316550D01*
X183231281Y-85489193D01*
X183228817Y-85665674D01*
X180996818Y-85665674D01*
X179989521Y-82637627D01*
X177943327Y-79035674D01*
X180468817Y-79035674D01*
X180500678Y-79209274D01*
X180565652Y-79373379D01*
X180661263Y-79521738D01*
X180783870Y-79648701D01*
X180928802Y-79749431D01*
X181090539Y-79820093D01*
X181262921Y-79857993D01*
X181346784Y-79859750D01*
X183569840Y-82681877D01*
X183551281Y-82769193D01*
X183548817Y-82945674D01*
X183580678Y-83119274D01*
X183645652Y-83283379D01*
X183741263Y-83431738D01*
X183863870Y-83558701D01*
X184008802Y-83659431D01*
X184170539Y-83730093D01*
X184342921Y-83767993D01*
X184519381Y-83771690D01*
X184693199Y-83741041D01*
X184857753Y-83677214D01*
X185006777Y-83582641D01*
X185134592Y-83460924D01*
X185236332Y-83316699D01*
X185308121Y-83155459D01*
X185347224Y-82983346D01*
X185350039Y-82781750D01*
X185315757Y-82608613D01*
X185248498Y-82445431D01*
X185150825Y-82298421D01*
X185026458Y-82173182D01*
X184880133Y-82074485D01*
X184717425Y-82006089D01*
X184544531Y-81970599D01*
X184473098Y-81970100D01*
X182250218Y-79148198D01*
X182267224Y-79073346D01*
X182270039Y-78871750D01*
X182235757Y-78698613D01*
X182168498Y-78535431D01*
X182070825Y-78388421D01*
X181946458Y-78263182D01*
X181800133Y-78164485D01*
X181637425Y-78096089D01*
X181464531Y-78060599D01*
X181288036Y-78059367D01*
X181114663Y-78092440D01*
X180951016Y-78158557D01*
X180803328Y-78255202D01*
X180677224Y-78378692D01*
X180577508Y-78524324D01*
X180507977Y-78686550D01*
X180471281Y-78859193D01*
X180468817Y-79035674D01*
X177943327Y-79035674D01*
X176950493Y-77287971D01*
X173392222Y-73165674D01*
X176398817Y-73165674D01*
X176430678Y-73339274D01*
X176495652Y-73503379D01*
X176591263Y-73651738D01*
X176713870Y-73778701D01*
X176858802Y-73879431D01*
X177020539Y-73950093D01*
X177192921Y-73987993D01*
X177369381Y-73991690D01*
X177471804Y-73973630D01*
X180199786Y-76206268D01*
X180198817Y-76275674D01*
X180230678Y-76449274D01*
X180295652Y-76613379D01*
X180391263Y-76761738D01*
X180513870Y-76888701D01*
X180658802Y-76989431D01*
X180820539Y-77060093D01*
X180992921Y-77097993D01*
X181169381Y-77101690D01*
X181343199Y-77071041D01*
X181507753Y-77007214D01*
X181656777Y-76912641D01*
X181784592Y-76790924D01*
X181886332Y-76646699D01*
X181958121Y-76485459D01*
X181997224Y-76313346D01*
X182000039Y-76111750D01*
X181965757Y-75938613D01*
X181898498Y-75775431D01*
X181800825Y-75628421D01*
X181676458Y-75503182D01*
X181530133Y-75404485D01*
X181367425Y-75336089D01*
X181194531Y-75300599D01*
X181018036Y-75299367D01*
X180928329Y-75316480D01*
X178198909Y-73082665D01*
X178200039Y-73001750D01*
X178165757Y-72828613D01*
X178098498Y-72665431D01*
X178000825Y-72518421D01*
X177876458Y-72393182D01*
X177730133Y-72294485D01*
X177567425Y-72226089D01*
X177394531Y-72190599D01*
X177218036Y-72189367D01*
X177044663Y-72222440D01*
X176881016Y-72288557D01*
X176733328Y-72385202D01*
X176607224Y-72508692D01*
X176507508Y-72654324D01*
X176437977Y-72816550D01*
X176401281Y-72989193D01*
X176398817Y-73165674D01*
X173392222Y-73165674D01*
X172930256Y-72630482D01*
X168081940Y-68842562D01*
X166741930Y-68165674D01*
X171158817Y-68165674D01*
X171190678Y-68339274D01*
X171255652Y-68503379D01*
X171351263Y-68651738D01*
X171473870Y-68778701D01*
X171618802Y-68879431D01*
X171780539Y-68950093D01*
X171952921Y-68987993D01*
X172129381Y-68991690D01*
X172303199Y-68961041D01*
X172413094Y-68918415D01*
X175610543Y-70564054D01*
X175620678Y-70619274D01*
X175685652Y-70783379D01*
X175781263Y-70931738D01*
X175903870Y-71058701D01*
X176048802Y-71159431D01*
X176210539Y-71230093D01*
X176382921Y-71267993D01*
X176559381Y-71271690D01*
X176733199Y-71241041D01*
X176897753Y-71177214D01*
X177046777Y-71082641D01*
X177174592Y-70960924D01*
X177276332Y-70816699D01*
X177348121Y-70655459D01*
X177387224Y-70483346D01*
X177390039Y-70281750D01*
X177355757Y-70108613D01*
X177288498Y-69945431D01*
X177190825Y-69798421D01*
X177066458Y-69673182D01*
X176920133Y-69574485D01*
X176757425Y-69506089D01*
X176584531Y-69470599D01*
X176408036Y-69469367D01*
X176234663Y-69502440D01*
X176137288Y-69541782D01*
X172939047Y-67895735D01*
X172925757Y-67828613D01*
X172858498Y-67665431D01*
X172760825Y-67518421D01*
X172636458Y-67393182D01*
X172490133Y-67294485D01*
X172327425Y-67226089D01*
X172154531Y-67190599D01*
X171978036Y-67189367D01*
X171804663Y-67222440D01*
X171641016Y-67288557D01*
X171493328Y-67385202D01*
X171367224Y-67508692D01*
X171267508Y-67654324D01*
X171197977Y-67816550D01*
X171161281Y-67989193D01*
X171158817Y-68165674D01*
X166741930Y-68165674D01*
X162590215Y-66068492D01*
X156849564Y-64465674D01*
X164958817Y-64465674D01*
X164990678Y-64639274D01*
X165055652Y-64803379D01*
X165151263Y-64951738D01*
X165273870Y-65078701D01*
X165418802Y-65179431D01*
X165580539Y-65250093D01*
X165752921Y-65287993D01*
X165929381Y-65291690D01*
X166103199Y-65261041D01*
X166267753Y-65197214D01*
X166368697Y-65133153D01*
X169835569Y-66122656D01*
X169855652Y-66173379D01*
X169951263Y-66321738D01*
X170073870Y-66448701D01*
X170218802Y-66549431D01*
X170380539Y-66620093D01*
X170552921Y-66657993D01*
X170729381Y-66661690D01*
X170903199Y-66631041D01*
X171067753Y-66567214D01*
X171216777Y-66472641D01*
X171344592Y-66350924D01*
X171446332Y-66206699D01*
X171518121Y-66045459D01*
X171557224Y-65873346D01*
X171560039Y-65671750D01*
X171525757Y-65498613D01*
X171458498Y-65335431D01*
X171360825Y-65188421D01*
X171236458Y-65063182D01*
X171090133Y-64964485D01*
X170927425Y-64896089D01*
X170754531Y-64860599D01*
X170578036Y-64859367D01*
X170404663Y-64892440D01*
X170241016Y-64958557D01*
X170151746Y-65016974D01*
X166683962Y-64027210D01*
X166658498Y-63965431D01*
X166560825Y-63818421D01*
X166436458Y-63693182D01*
X166290133Y-63594485D01*
X166127425Y-63526089D01*
X165954531Y-63490599D01*
X165778036Y-63489367D01*
X165604663Y-63522440D01*
X165441016Y-63588557D01*
X165293328Y-63685202D01*
X165167224Y-63808692D01*
X165067508Y-63954324D01*
X164997977Y-64116550D01*
X164961281Y-64289193D01*
X164958817Y-64465674D01*
X156849564Y-64465674D01*
X156664259Y-64413936D01*
X150529790Y-63941914D01*
X144420469Y-64670406D01*
X138568997Y-66571665D01*
X133198255Y-69573271D01*
X128512813Y-73560895D01*
X124691138Y-78382649D01*
X121878796Y-83854873D01*
X120182909Y-89769134D01*
X119668073Y-95900158D01*
X116783382Y-95900158D01*
X116345729Y-93996785D01*
X116416332Y-93896699D01*
X116488121Y-93735459D01*
X116527224Y-93563346D01*
X116530039Y-93361750D01*
X116495757Y-93188613D01*
X116428498Y-93025431D01*
X116330825Y-92878421D01*
X116206458Y-92753182D01*
X116060133Y-92654485D01*
X115897425Y-92586089D01*
X115724531Y-92550599D01*
X115548036Y-92549367D01*
X115374663Y-92582440D01*
X115211016Y-92648557D01*
X115063328Y-92745202D01*
X114937224Y-92868692D01*
X114837508Y-93014324D01*
X114767977Y-93176550D01*
X114731281Y-93349193D01*
X114728817Y-93525674D01*
X111873994Y-93525674D01*
X112536208Y-87621908D01*
X112626407Y-87621908D01*
X112669314Y-87855689D01*
X112756812Y-88076683D01*
X112885568Y-88276474D01*
X113050678Y-88447450D01*
X113245853Y-88583100D01*
X113463659Y-88678257D01*
X113695800Y-88729297D01*
X113933433Y-88734275D01*
X114167508Y-88693001D01*
X114389108Y-88607048D01*
X114589792Y-88479690D01*
X114761917Y-88315777D01*
X114898927Y-88121554D01*
X114995602Y-87904418D01*
X115048261Y-87672639D01*
X115052052Y-87401157D01*
X115005885Y-87167999D01*
X114915310Y-86948247D01*
X114783777Y-86750274D01*
X114616296Y-86581620D01*
X114419246Y-86448708D01*
X114200132Y-86356601D01*
X113967301Y-86308808D01*
X113729622Y-86307148D01*
X113496147Y-86351686D01*
X113275768Y-86440725D01*
X113076882Y-86570872D01*
X112907062Y-86737172D01*
X112772778Y-86933290D01*
X112679143Y-87151755D01*
X112629726Y-87384246D01*
X112626407Y-87621908D01*
X112536208Y-87621908D01*
X112577623Y-87252686D01*
X112916099Y-86185674D01*
X116008817Y-86185674D01*
X116040678Y-86359274D01*
X116105652Y-86523379D01*
X116201263Y-86671738D01*
X116323870Y-86798701D01*
X116337930Y-86808473D01*
X116352080Y-90176217D01*
X116237224Y-90288692D01*
X116137508Y-90434324D01*
X116067977Y-90596550D01*
X116031281Y-90769193D01*
X116028817Y-90945674D01*
X116060678Y-91119274D01*
X116125652Y-91283379D01*
X116221263Y-91431738D01*
X116343870Y-91558701D01*
X116488802Y-91659431D01*
X116650539Y-91730093D01*
X116822921Y-91767993D01*
X116999381Y-91771690D01*
X117173199Y-91741041D01*
X117337753Y-91677214D01*
X117486777Y-91582641D01*
X117614592Y-91460924D01*
X117716332Y-91316699D01*
X117788121Y-91155459D01*
X117827224Y-90983346D01*
X117830039Y-90781750D01*
X117795757Y-90608613D01*
X117728498Y-90445431D01*
X117630825Y-90298421D01*
X117506458Y-90173182D01*
X117502065Y-90170219D01*
X117487915Y-86802512D01*
X117594592Y-86700924D01*
X117696332Y-86556699D01*
X117768121Y-86395459D01*
X117807224Y-86223346D01*
X117810039Y-86021750D01*
X117775757Y-85848613D01*
X117708498Y-85685431D01*
X117610825Y-85538421D01*
X117486458Y-85413182D01*
X117340133Y-85314485D01*
X117177425Y-85246089D01*
X117004531Y-85210599D01*
X116828036Y-85209367D01*
X116654663Y-85242440D01*
X116491016Y-85308557D01*
X116343328Y-85405202D01*
X116217224Y-85528692D01*
X116117508Y-85674324D01*
X116047977Y-85836550D01*
X116011281Y-86009193D01*
X116008817Y-86185674D01*
X112916099Y-86185674D01*
X113667907Y-83815674D01*
X117678817Y-83815674D01*
X117710678Y-83989274D01*
X117775652Y-84153379D01*
X117871263Y-84301738D01*
X117993870Y-84428701D01*
X118138802Y-84529431D01*
X118300539Y-84600093D01*
X118472921Y-84637993D01*
X118649381Y-84641690D01*
X118823199Y-84611041D01*
X118987753Y-84547214D01*
X119136777Y-84452641D01*
X119264592Y-84330924D01*
X119366332Y-84186699D01*
X119438121Y-84025459D01*
X119477224Y-83853346D01*
X119480039Y-83651750D01*
X119445757Y-83478613D01*
X119378498Y-83315431D01*
X119285931Y-83176106D01*
X119969641Y-79919670D01*
X120106777Y-79832641D01*
X120234592Y-79710924D01*
X120336332Y-79566699D01*
X120408121Y-79405459D01*
X120447224Y-79233346D01*
X120450039Y-79031750D01*
X120415757Y-78858613D01*
X120348498Y-78695431D01*
X120250825Y-78548421D01*
X120126458Y-78423182D01*
X119980133Y-78324485D01*
X119817425Y-78256089D01*
X119644531Y-78220599D01*
X119468036Y-78219367D01*
X119294663Y-78252440D01*
X119131016Y-78318557D01*
X118983328Y-78415202D01*
X118857224Y-78538692D01*
X118757508Y-78684324D01*
X118687977Y-78846550D01*
X118651281Y-79019193D01*
X118648817Y-79195674D01*
X118680678Y-79369274D01*
X118745652Y-79533379D01*
X118841263Y-79681738D01*
X118843940Y-79684510D01*
X118160686Y-82938773D01*
X118013328Y-83035202D01*
X117887224Y-83158692D01*
X117787508Y-83304324D01*
X117717977Y-83466550D01*
X117681281Y-83639193D01*
X117678817Y-83815674D01*
X113667907Y-83815674D01*
X114907132Y-79909143D01*
X116316411Y-77345674D01*
X120868817Y-77345674D01*
X120900678Y-77519274D01*
X120965652Y-77683379D01*
X121061263Y-77831738D01*
X121183870Y-77958701D01*
X121328802Y-78059431D01*
X121490539Y-78130093D01*
X121662921Y-78167993D01*
X121839381Y-78171690D01*
X122013199Y-78141041D01*
X122177753Y-78077214D01*
X122326777Y-77982641D01*
X122454592Y-77860924D01*
X122556332Y-77716699D01*
X122628121Y-77555459D01*
X122667224Y-77383346D01*
X122670039Y-77181750D01*
X122635757Y-77008613D01*
X122577302Y-76866790D01*
X123943250Y-73781021D01*
X124107753Y-73717214D01*
X124256777Y-73622641D01*
X124384592Y-73500924D01*
X124486332Y-73356699D01*
X124558121Y-73195459D01*
X124597224Y-73023346D01*
X124600039Y-72821750D01*
X124565757Y-72648613D01*
X124498498Y-72485431D01*
X124400825Y-72338421D01*
X124276458Y-72213182D01*
X124130133Y-72114485D01*
X123967425Y-72046089D01*
X123794531Y-72010599D01*
X123618036Y-72009367D01*
X123444663Y-72042440D01*
X123281016Y-72108557D01*
X123133328Y-72205202D01*
X123007224Y-72328692D01*
X122907508Y-72474324D01*
X122837977Y-72636550D01*
X122801281Y-72809193D01*
X122798817Y-72985674D01*
X122830678Y-73159274D01*
X122892132Y-73314489D01*
X121526192Y-76400241D01*
X121514663Y-76402440D01*
X121351016Y-76468557D01*
X121203328Y-76565202D01*
X121077224Y-76688692D01*
X120977508Y-76834324D01*
X120907977Y-76996550D01*
X120871281Y-77169193D01*
X120868817Y-77345674D01*
X116316411Y-77345674D01*
X118618645Y-73157928D01*
X119820448Y-71725674D01*
X125298817Y-71725674D01*
X125330678Y-71899274D01*
X125395652Y-72063379D01*
X125491263Y-72211738D01*
X125613870Y-72338701D01*
X125758802Y-72439431D01*
X125920539Y-72510093D01*
X126092921Y-72547993D01*
X126269381Y-72551690D01*
X126443199Y-72521041D01*
X126607753Y-72457214D01*
X126756777Y-72362641D01*
X126884592Y-72240924D01*
X126986332Y-72096699D01*
X127058121Y-71935459D01*
X127097224Y-71763346D01*
X127100039Y-71561750D01*
X127071517Y-71417703D01*
X129063672Y-68621570D01*
X129069381Y-68621690D01*
X129243199Y-68591041D01*
X129407753Y-68527214D01*
X129556777Y-68432641D01*
X129684592Y-68310924D01*
X129786332Y-68166699D01*
X129858121Y-68005459D01*
X129897224Y-67833346D01*
X129900039Y-67631750D01*
X129865757Y-67458613D01*
X129798498Y-67295431D01*
X129700825Y-67148421D01*
X129576458Y-67023182D01*
X129461548Y-66945674D01*
X130828817Y-66945674D01*
X130860678Y-67119274D01*
X130925652Y-67283379D01*
X131021263Y-67431738D01*
X131143870Y-67558701D01*
X131288802Y-67659431D01*
X131450539Y-67730093D01*
X131622921Y-67767993D01*
X131799381Y-67771690D01*
X131973199Y-67741041D01*
X132137753Y-67677214D01*
X132286777Y-67582641D01*
X132414592Y-67460924D01*
X132516332Y-67316699D01*
X132588121Y-67155459D01*
X132627224Y-66983346D01*
X132629333Y-66832290D01*
X135129579Y-64572861D01*
X135152921Y-64577993D01*
X135329381Y-64581690D01*
X135503199Y-64551041D01*
X135667753Y-64487214D01*
X135816777Y-64392641D01*
X135944592Y-64270924D01*
X136046332Y-64126699D01*
X136118121Y-63965459D01*
X136157224Y-63793346D01*
X136160039Y-63591750D01*
X136125757Y-63418613D01*
X136124546Y-63415674D01*
X137228817Y-63415674D01*
X137260678Y-63589274D01*
X137325652Y-63753379D01*
X137421263Y-63901738D01*
X137543870Y-64028701D01*
X137688802Y-64129431D01*
X137850539Y-64200093D01*
X138022921Y-64237993D01*
X138199381Y-64241690D01*
X138373199Y-64211041D01*
X138537753Y-64147214D01*
X138686777Y-64052641D01*
X138814592Y-63930924D01*
X138916332Y-63786699D01*
X138988121Y-63625459D01*
X139016219Y-63501785D01*
X141866782Y-61900976D01*
X141910539Y-61920093D01*
X142082921Y-61957993D01*
X142259381Y-61961690D01*
X142433199Y-61931041D01*
X142550160Y-61885674D01*
X158518817Y-61885674D01*
X158550678Y-62059274D01*
X158615652Y-62223379D01*
X158711263Y-62371738D01*
X158833870Y-62498701D01*
X158978802Y-62599431D01*
X159140539Y-62670093D01*
X159312921Y-62707993D01*
X159489381Y-62711690D01*
X159663199Y-62681041D01*
X159827753Y-62617214D01*
X159976777Y-62522641D01*
X160038707Y-62463666D01*
X163313797Y-62858085D01*
X163361263Y-62931738D01*
X163483870Y-63058701D01*
X163628802Y-63159431D01*
X163790539Y-63230093D01*
X163962921Y-63267993D01*
X164139381Y-63271690D01*
X164313199Y-63241041D01*
X164477753Y-63177214D01*
X164626777Y-63082641D01*
X164754592Y-62960924D01*
X164856332Y-62816699D01*
X164928121Y-62655459D01*
X164967224Y-62483346D01*
X164970039Y-62281750D01*
X164935757Y-62108613D01*
X164868498Y-61945431D01*
X164770825Y-61798421D01*
X164646458Y-61673182D01*
X164500133Y-61574485D01*
X164337425Y-61506089D01*
X164164531Y-61470599D01*
X163988036Y-61469367D01*
X163814663Y-61502440D01*
X163651016Y-61568557D01*
X163503328Y-61665202D01*
X163451133Y-61716315D01*
X160176306Y-61321927D01*
X160120825Y-61238421D01*
X159996458Y-61113182D01*
X159850133Y-61014485D01*
X159687425Y-60946089D01*
X159514531Y-60910599D01*
X159338036Y-60909367D01*
X159164663Y-60942440D01*
X159001016Y-61008557D01*
X158853328Y-61105202D01*
X158727224Y-61228692D01*
X158627508Y-61374324D01*
X158557977Y-61536550D01*
X158521281Y-61709193D01*
X158518817Y-61885674D01*
X142550160Y-61885674D01*
X142597753Y-61867214D01*
X142746777Y-61772641D01*
X142874592Y-61650924D01*
X142976332Y-61506699D01*
X143048121Y-61345459D01*
X143087224Y-61173346D01*
X143089984Y-60975674D01*
X151288817Y-60975674D01*
X151320678Y-61149274D01*
X151385652Y-61313379D01*
X151481263Y-61461738D01*
X151603870Y-61588701D01*
X151748802Y-61689431D01*
X151910539Y-61760093D01*
X152082921Y-61797993D01*
X152259381Y-61801690D01*
X152433199Y-61771041D01*
X152597753Y-61707214D01*
X152746777Y-61612641D01*
X152874592Y-61490924D01*
X152943041Y-61393892D01*
X156275443Y-61018908D01*
X156313870Y-61058701D01*
X156458802Y-61159431D01*
X156620539Y-61230093D01*
X156792921Y-61267993D01*
X156969381Y-61271690D01*
X157143199Y-61241041D01*
X157307753Y-61177214D01*
X157456777Y-61082641D01*
X157584592Y-60960924D01*
X157686332Y-60816699D01*
X157758121Y-60655459D01*
X157797224Y-60483346D01*
X157800039Y-60281750D01*
X157765757Y-60108613D01*
X157698498Y-59945431D01*
X157600825Y-59798421D01*
X157476458Y-59673182D01*
X157330133Y-59574485D01*
X157167425Y-59506089D01*
X156994531Y-59470599D01*
X156818036Y-59469367D01*
X156644663Y-59502440D01*
X156481016Y-59568557D01*
X156333328Y-59665202D01*
X156207224Y-59788692D01*
X156147403Y-59876058D01*
X152814087Y-60251145D01*
X152766458Y-60203182D01*
X152620133Y-60104485D01*
X152457425Y-60036089D01*
X152284531Y-60000599D01*
X152108036Y-59999367D01*
X151934663Y-60032440D01*
X151771016Y-60098557D01*
X151623328Y-60195202D01*
X151497224Y-60318692D01*
X151397508Y-60464324D01*
X151327977Y-60626550D01*
X151291281Y-60799193D01*
X151288817Y-60975674D01*
X143089984Y-60975674D01*
X143090039Y-60971750D01*
X143055757Y-60798613D01*
X142988498Y-60635431D01*
X142890825Y-60488421D01*
X142766458Y-60363182D01*
X142620133Y-60264485D01*
X142457425Y-60196089D01*
X142284531Y-60160599D01*
X142108036Y-60159367D01*
X141934663Y-60192440D01*
X141771016Y-60258557D01*
X141623328Y-60355202D01*
X141497224Y-60478692D01*
X141397508Y-60624324D01*
X141327977Y-60786550D01*
X141304305Y-60897921D01*
X138452690Y-62499320D01*
X138397425Y-62476089D01*
X138224531Y-62440599D01*
X138048036Y-62439367D01*
X137874663Y-62472440D01*
X137711016Y-62538557D01*
X137563328Y-62635202D01*
X137437224Y-62758692D01*
X137337508Y-62904324D01*
X137267977Y-63066550D01*
X137231281Y-63239193D01*
X137228817Y-63415674D01*
X136124546Y-63415674D01*
X136058498Y-63255431D01*
X135960825Y-63108421D01*
X135836458Y-62983182D01*
X135690133Y-62884485D01*
X135527425Y-62816089D01*
X135354531Y-62780599D01*
X135178036Y-62779367D01*
X135004663Y-62812440D01*
X134841016Y-62878557D01*
X134693328Y-62975202D01*
X134567224Y-63098692D01*
X134467508Y-63244324D01*
X134397977Y-63406550D01*
X134361281Y-63579193D01*
X134359330Y-63718918D01*
X131859675Y-65977813D01*
X131824531Y-65970599D01*
X131648036Y-65969367D01*
X131474663Y-66002440D01*
X131311016Y-66068557D01*
X131163328Y-66165202D01*
X131037224Y-66288692D01*
X130937508Y-66434324D01*
X130867977Y-66596550D01*
X130831281Y-66769193D01*
X130828817Y-66945674D01*
X129461548Y-66945674D01*
X129430133Y-66924485D01*
X129267425Y-66856089D01*
X129094531Y-66820599D01*
X128918036Y-66819367D01*
X128744663Y-66852440D01*
X128581016Y-66918557D01*
X128433328Y-67015202D01*
X128307224Y-67138692D01*
X128207508Y-67284324D01*
X128137977Y-67446550D01*
X128101281Y-67619193D01*
X128098817Y-67795674D01*
X128127751Y-67953325D01*
X126135573Y-70749489D01*
X126118036Y-70749367D01*
X125944663Y-70782440D01*
X125781016Y-70848557D01*
X125633328Y-70945202D01*
X125507224Y-71068692D01*
X125407508Y-71214324D01*
X125337977Y-71376550D01*
X125301281Y-71549193D01*
X125298817Y-71725674D01*
X119820448Y-71725674D01*
X123570790Y-67256191D01*
X129574942Y-62428729D01*
X136402405Y-58859417D01*
X143793123Y-56684211D01*
X146449772Y-56442437D01*
X146436882Y-56450872D01*
X146267062Y-56617172D01*
X146132778Y-56813290D01*
X146039143Y-57031755D01*
X145989726Y-57264246D01*
X145986407Y-57501908D01*
X146029314Y-57735689D01*
X146116812Y-57956683D01*
X146245568Y-58156474D01*
X146410678Y-58327450D01*
X146605853Y-58463100D01*
X146823659Y-58558257D01*
X147055800Y-58609297D01*
X147293433Y-58614275D01*
X147527508Y-58573001D01*
X147749108Y-58487048D01*
X147949792Y-58359690D01*
X148121917Y-58195777D01*
X148258927Y-58001554D01*
X148355602Y-57784418D01*
X148408261Y-57552639D01*
X148412052Y-57281157D01*
X148365885Y-57047999D01*
X148275310Y-56828247D01*
X148143777Y-56630274D01*
X147976296Y-56461620D01*
X147779246Y-56328708D01*
X147765043Y-56322738D01*
X151465585Y-55985962D01*
X154471208Y-56301866D01*
G36*
X154471451Y-71343583D02*
X154255768Y-71430725D01*
X154056882Y-71560872D01*
X153887062Y-71727172D01*
X153752778Y-71923290D01*
X153659143Y-72141755D01*
X153609726Y-72374246D01*
X153606407Y-72611908D01*
X153649314Y-72845689D01*
X153736812Y-73066683D01*
X153865568Y-73266474D01*
X154030678Y-73437450D01*
X154225853Y-73573100D01*
X154443659Y-73668257D01*
X154675800Y-73719297D01*
X154913433Y-73724275D01*
X155147508Y-73683001D01*
X155369108Y-73597048D01*
X155569792Y-73469690D01*
X155741917Y-73305777D01*
X155878927Y-73111554D01*
X155975602Y-72894418D01*
X156028261Y-72662639D01*
X156032052Y-72391157D01*
X155985885Y-72157999D01*
X155895310Y-71938247D01*
X155763777Y-71740274D01*
X155596296Y-71571620D01*
X155403444Y-71441540D01*
X156101382Y-71514896D01*
X160664444Y-72927399D01*
X164866246Y-75199305D01*
X168546744Y-78244078D01*
X171565747Y-81945742D01*
X173808264Y-86163303D01*
X175188877Y-90736114D01*
X175655000Y-95490000D01*
X175645458Y-96173382D01*
X175302523Y-98887988D01*
X175262558Y-98703487D01*
X175180210Y-98504685D01*
X174971016Y-98427484D01*
X174288500Y-99110000D01*
X174971016Y-99792516D01*
X175180210Y-99715315D01*
X175206392Y-99648943D01*
X175046780Y-100912399D01*
X173539025Y-105444879D01*
X171179621Y-109598181D01*
X168058438Y-113214106D01*
X164294361Y-116154926D01*
X160030761Y-118308625D01*
X155430039Y-119593170D01*
X150667434Y-119959632D01*
X145924353Y-119394054D01*
X141381457Y-117917978D01*
X137211785Y-115587627D01*
X133574158Y-112491764D01*
X130607132Y-108748308D01*
X129662894Y-106911016D01*
X130037484Y-106911016D01*
X130114685Y-107120210D01*
X130356563Y-107215624D01*
X130612409Y-107262016D01*
X130872389Y-107257604D01*
X131126513Y-107202558D01*
X131325315Y-107120210D01*
X131402516Y-106911016D01*
X130720000Y-106228500D01*
X130037484Y-106911016D01*
X129662894Y-106911016D01*
X129108565Y-105832409D01*
X129397984Y-105832409D01*
X129402396Y-106092389D01*
X129457442Y-106346513D01*
X129539790Y-106545315D01*
X129748984Y-106622516D01*
X130431500Y-105940000D01*
X131008500Y-105940000D01*
X131691016Y-106622516D01*
X131900210Y-106545315D01*
X131995624Y-106303437D01*
X132042016Y-106047591D01*
X132037604Y-105787611D01*
X131982558Y-105533487D01*
X131900210Y-105334685D01*
X131691016Y-105257484D01*
X131008500Y-105940000D01*
X130431500Y-105940000D01*
X129748984Y-105257484D01*
X129539790Y-105334685D01*
X129444376Y-105576563D01*
X129397984Y-105832409D01*
X129108565Y-105832409D01*
X128664825Y-104968984D01*
X130037484Y-104968984D01*
X130720000Y-105651500D01*
X131402516Y-104968984D01*
X131325315Y-104759790D01*
X131083437Y-104664376D01*
X130827591Y-104617984D01*
X130567611Y-104622396D01*
X130313487Y-104677442D01*
X130114685Y-104759790D01*
X130037484Y-104968984D01*
X128664825Y-104968984D01*
X128423721Y-104499848D01*
X127107088Y-99908206D01*
X127048619Y-99211908D01*
X127206407Y-99211908D01*
X127249314Y-99445689D01*
X127336812Y-99666683D01*
X127465568Y-99866474D01*
X127630678Y-100037450D01*
X127825853Y-100173100D01*
X128043659Y-100268257D01*
X128275800Y-100319297D01*
X128513433Y-100324275D01*
X128747508Y-100283001D01*
X128969108Y-100197048D01*
X129169792Y-100069690D01*
X129341917Y-99905777D01*
X129478927Y-99711554D01*
X129575602Y-99494418D01*
X129628261Y-99262639D01*
X129632052Y-98991157D01*
X129585885Y-98757999D01*
X129495310Y-98538247D01*
X129363777Y-98340274D01*
X129196296Y-98171620D01*
X128999246Y-98038708D01*
X128780132Y-97946601D01*
X128547301Y-97898808D01*
X128309622Y-97897148D01*
X128076147Y-97941686D01*
X127855768Y-98030725D01*
X127656882Y-98160872D01*
X127487062Y-98327172D01*
X127352778Y-98523290D01*
X127259143Y-98741755D01*
X127209726Y-98974246D01*
X127206407Y-99211908D01*
X127048619Y-99211908D01*
X126753698Y-95699782D01*
X136156465Y-95699782D01*
X136483332Y-98613873D01*
X137369992Y-101408977D01*
X138782670Y-103978629D01*
X140667558Y-106224952D01*
X142952863Y-108062384D01*
X145551536Y-109420937D01*
X148364596Y-110248866D01*
X151284893Y-110514634D01*
X154201196Y-110208118D01*
X157002422Y-109340994D01*
X159581873Y-107946290D01*
X161841300Y-106077129D01*
X163694642Y-103804708D01*
X165071304Y-101215582D01*
X165413849Y-100081016D01*
X173317484Y-100081016D01*
X173394685Y-100290210D01*
X173636563Y-100385624D01*
X173892409Y-100432016D01*
X174152389Y-100427604D01*
X174406513Y-100372558D01*
X174605315Y-100290210D01*
X174682516Y-100081016D01*
X174000000Y-99398500D01*
X173317484Y-100081016D01*
X165413849Y-100081016D01*
X165739500Y-99002409D01*
X172677984Y-99002409D01*
X172682396Y-99262389D01*
X172737442Y-99516513D01*
X172819790Y-99715315D01*
X173028984Y-99792516D01*
X173711500Y-99110000D01*
X173028984Y-98427484D01*
X172819790Y-98504685D01*
X172724376Y-98746563D01*
X172677984Y-99002409D01*
X165739500Y-99002409D01*
X165918851Y-98408371D01*
X165945264Y-98138984D01*
X173317484Y-98138984D01*
X174000000Y-98821500D01*
X174682516Y-98138984D01*
X174605315Y-97929790D01*
X174363437Y-97834376D01*
X174107591Y-97787984D01*
X173847611Y-97792396D01*
X173593487Y-97847442D01*
X173394685Y-97929790D01*
X173317484Y-98138984D01*
X165945264Y-98138984D01*
X166205000Y-95490000D01*
X166199142Y-95070477D01*
X165831619Y-92161234D01*
X165768639Y-91971908D01*
X172806407Y-91971908D01*
X172849314Y-92205689D01*
X172936812Y-92426683D01*
X173065568Y-92626474D01*
X173230678Y-92797450D01*
X173425853Y-92933100D01*
X173643659Y-93028257D01*
X173875800Y-93079297D01*
X174113433Y-93084275D01*
X174347508Y-93043001D01*
X174569108Y-92957048D01*
X174769792Y-92829690D01*
X174941917Y-92665777D01*
X175078927Y-92471554D01*
X175175602Y-92254418D01*
X175228261Y-92022639D01*
X175232052Y-91751157D01*
X175185885Y-91517999D01*
X175095310Y-91298247D01*
X174963777Y-91100274D01*
X174796296Y-90931620D01*
X174599246Y-90798708D01*
X174380132Y-90706601D01*
X174147301Y-90658808D01*
X173909622Y-90657148D01*
X173676147Y-90701686D01*
X173455768Y-90790725D01*
X173256882Y-90920872D01*
X173087062Y-91087172D01*
X172952778Y-91283290D01*
X172859143Y-91501755D01*
X172809726Y-91734246D01*
X172806407Y-91971908D01*
X165768639Y-91971908D01*
X164906021Y-89378782D01*
X163457602Y-86829104D01*
X161541534Y-84609318D01*
X159230798Y-82803973D01*
X156613409Y-81481835D01*
X153789064Y-80693264D01*
X150865340Y-80468295D01*
X147953602Y-80815499D01*
X145164756Y-81721650D01*
X142605029Y-83152233D01*
X140371919Y-85052758D01*
X138550487Y-87350834D01*
X137210108Y-89958929D01*
X136401839Y-92777700D01*
X136156465Y-95699782D01*
X126753698Y-95699782D01*
X126707386Y-95148276D01*
X127239837Y-90401361D01*
X128684163Y-85848272D01*
X130985347Y-81662433D01*
X134055740Y-78003281D01*
X137778390Y-75010193D01*
X142011504Y-72797175D01*
X146593842Y-71448520D01*
X147333515Y-71381204D01*
X147226147Y-71401686D01*
X147005768Y-71490725D01*
X146806882Y-71620872D01*
X146637062Y-71787172D01*
X146502778Y-71983290D01*
X146409143Y-72201755D01*
X146359726Y-72434246D01*
X146356407Y-72671908D01*
X146399314Y-72905689D01*
X146486812Y-73126683D01*
X146615568Y-73326474D01*
X146780678Y-73497450D01*
X146975853Y-73633100D01*
X147193659Y-73728257D01*
X147425800Y-73779297D01*
X147663433Y-73784275D01*
X147897508Y-73743001D01*
X148119108Y-73657048D01*
X148319792Y-73529690D01*
X148491917Y-73365777D01*
X148628927Y-73171554D01*
X148725602Y-72954418D01*
X148778261Y-72722639D01*
X148782052Y-72451157D01*
X148735885Y-72217999D01*
X148645310Y-71998247D01*
X148513777Y-71800274D01*
X148346296Y-71631620D01*
X148149246Y-71498708D01*
X147930132Y-71406601D01*
X147697301Y-71358808D01*
X147587997Y-71358045D01*
X151350866Y-71015596D01*
X154471451Y-71343583D01*
X154471451Y-71343583D01*
G37*
X154471451Y-71343583D02*
X154255768Y-71430725D01*
X154056882Y-71560872D01*
X153887062Y-71727172D01*
X153752778Y-71923290D01*
X153659143Y-72141755D01*
X153609726Y-72374246D01*
X153606407Y-72611908D01*
X153649314Y-72845689D01*
X153736812Y-73066683D01*
X153865568Y-73266474D01*
X154030678Y-73437450D01*
X154225853Y-73573100D01*
X154443659Y-73668257D01*
X154675800Y-73719297D01*
X154913433Y-73724275D01*
X155147508Y-73683001D01*
X155369108Y-73597048D01*
X155569792Y-73469690D01*
X155741917Y-73305777D01*
X155878927Y-73111554D01*
X155975602Y-72894418D01*
X156028261Y-72662639D01*
X156032052Y-72391157D01*
X155985885Y-72157999D01*
X155895310Y-71938247D01*
X155763777Y-71740274D01*
X155596296Y-71571620D01*
X155403444Y-71441540D01*
X156101382Y-71514896D01*
X160664444Y-72927399D01*
X164866246Y-75199305D01*
X168546744Y-78244078D01*
X171565747Y-81945742D01*
X173808264Y-86163303D01*
X175188877Y-90736114D01*
X175655000Y-95490000D01*
X175645458Y-96173382D01*
X175302523Y-98887988D01*
X175262558Y-98703487D01*
X175180210Y-98504685D01*
X174971016Y-98427484D01*
X174288500Y-99110000D01*
X174971016Y-99792516D01*
X175180210Y-99715315D01*
X175206392Y-99648943D01*
X175046780Y-100912399D01*
X173539025Y-105444879D01*
X171179621Y-109598181D01*
X168058438Y-113214106D01*
X164294361Y-116154926D01*
X160030761Y-118308625D01*
X155430039Y-119593170D01*
X150667434Y-119959632D01*
X145924353Y-119394054D01*
X141381457Y-117917978D01*
X137211785Y-115587627D01*
X133574158Y-112491764D01*
X130607132Y-108748308D01*
X129662894Y-106911016D01*
X130037484Y-106911016D01*
X130114685Y-107120210D01*
X130356563Y-107215624D01*
X130612409Y-107262016D01*
X130872389Y-107257604D01*
X131126513Y-107202558D01*
X131325315Y-107120210D01*
X131402516Y-106911016D01*
X130720000Y-106228500D01*
X130037484Y-106911016D01*
X129662894Y-106911016D01*
X129108565Y-105832409D01*
X129397984Y-105832409D01*
X129402396Y-106092389D01*
X129457442Y-106346513D01*
X129539790Y-106545315D01*
X129748984Y-106622516D01*
X130431500Y-105940000D01*
X131008500Y-105940000D01*
X131691016Y-106622516D01*
X131900210Y-106545315D01*
X131995624Y-106303437D01*
X132042016Y-106047591D01*
X132037604Y-105787611D01*
X131982558Y-105533487D01*
X131900210Y-105334685D01*
X131691016Y-105257484D01*
X131008500Y-105940000D01*
X130431500Y-105940000D01*
X129748984Y-105257484D01*
X129539790Y-105334685D01*
X129444376Y-105576563D01*
X129397984Y-105832409D01*
X129108565Y-105832409D01*
X128664825Y-104968984D01*
X130037484Y-104968984D01*
X130720000Y-105651500D01*
X131402516Y-104968984D01*
X131325315Y-104759790D01*
X131083437Y-104664376D01*
X130827591Y-104617984D01*
X130567611Y-104622396D01*
X130313487Y-104677442D01*
X130114685Y-104759790D01*
X130037484Y-104968984D01*
X128664825Y-104968984D01*
X128423721Y-104499848D01*
X127107088Y-99908206D01*
X127048619Y-99211908D01*
X127206407Y-99211908D01*
X127249314Y-99445689D01*
X127336812Y-99666683D01*
X127465568Y-99866474D01*
X127630678Y-100037450D01*
X127825853Y-100173100D01*
X128043659Y-100268257D01*
X128275800Y-100319297D01*
X128513433Y-100324275D01*
X128747508Y-100283001D01*
X128969108Y-100197048D01*
X129169792Y-100069690D01*
X129341917Y-99905777D01*
X129478927Y-99711554D01*
X129575602Y-99494418D01*
X129628261Y-99262639D01*
X129632052Y-98991157D01*
X129585885Y-98757999D01*
X129495310Y-98538247D01*
X129363777Y-98340274D01*
X129196296Y-98171620D01*
X128999246Y-98038708D01*
X128780132Y-97946601D01*
X128547301Y-97898808D01*
X128309622Y-97897148D01*
X128076147Y-97941686D01*
X127855768Y-98030725D01*
X127656882Y-98160872D01*
X127487062Y-98327172D01*
X127352778Y-98523290D01*
X127259143Y-98741755D01*
X127209726Y-98974246D01*
X127206407Y-99211908D01*
X127048619Y-99211908D01*
X126753698Y-95699782D01*
X136156465Y-95699782D01*
X136483332Y-98613873D01*
X137369992Y-101408977D01*
X138782670Y-103978629D01*
X140667558Y-106224952D01*
X142952863Y-108062384D01*
X145551536Y-109420937D01*
X148364596Y-110248866D01*
X151284893Y-110514634D01*
X154201196Y-110208118D01*
X157002422Y-109340994D01*
X159581873Y-107946290D01*
X161841300Y-106077129D01*
X163694642Y-103804708D01*
X165071304Y-101215582D01*
X165413849Y-100081016D01*
X173317484Y-100081016D01*
X173394685Y-100290210D01*
X173636563Y-100385624D01*
X173892409Y-100432016D01*
X174152389Y-100427604D01*
X174406513Y-100372558D01*
X174605315Y-100290210D01*
X174682516Y-100081016D01*
X174000000Y-99398500D01*
X173317484Y-100081016D01*
X165413849Y-100081016D01*
X165739500Y-99002409D01*
X172677984Y-99002409D01*
X172682396Y-99262389D01*
X172737442Y-99516513D01*
X172819790Y-99715315D01*
X173028984Y-99792516D01*
X173711500Y-99110000D01*
X173028984Y-98427484D01*
X172819790Y-98504685D01*
X172724376Y-98746563D01*
X172677984Y-99002409D01*
X165739500Y-99002409D01*
X165918851Y-98408371D01*
X165945264Y-98138984D01*
X173317484Y-98138984D01*
X174000000Y-98821500D01*
X174682516Y-98138984D01*
X174605315Y-97929790D01*
X174363437Y-97834376D01*
X174107591Y-97787984D01*
X173847611Y-97792396D01*
X173593487Y-97847442D01*
X173394685Y-97929790D01*
X173317484Y-98138984D01*
X165945264Y-98138984D01*
X166205000Y-95490000D01*
X166199142Y-95070477D01*
X165831619Y-92161234D01*
X165768639Y-91971908D01*
X172806407Y-91971908D01*
X172849314Y-92205689D01*
X172936812Y-92426683D01*
X173065568Y-92626474D01*
X173230678Y-92797450D01*
X173425853Y-92933100D01*
X173643659Y-93028257D01*
X173875800Y-93079297D01*
X174113433Y-93084275D01*
X174347508Y-93043001D01*
X174569108Y-92957048D01*
X174769792Y-92829690D01*
X174941917Y-92665777D01*
X175078927Y-92471554D01*
X175175602Y-92254418D01*
X175228261Y-92022639D01*
X175232052Y-91751157D01*
X175185885Y-91517999D01*
X175095310Y-91298247D01*
X174963777Y-91100274D01*
X174796296Y-90931620D01*
X174599246Y-90798708D01*
X174380132Y-90706601D01*
X174147301Y-90658808D01*
X173909622Y-90657148D01*
X173676147Y-90701686D01*
X173455768Y-90790725D01*
X173256882Y-90920872D01*
X173087062Y-91087172D01*
X172952778Y-91283290D01*
X172859143Y-91501755D01*
X172809726Y-91734246D01*
X172806407Y-91971908D01*
X165768639Y-91971908D01*
X164906021Y-89378782D01*
X163457602Y-86829104D01*
X161541534Y-84609318D01*
X159230798Y-82803973D01*
X156613409Y-81481835D01*
X153789064Y-80693264D01*
X150865340Y-80468295D01*
X147953602Y-80815499D01*
X145164756Y-81721650D01*
X142605029Y-83152233D01*
X140371919Y-85052758D01*
X138550487Y-87350834D01*
X137210108Y-89958929D01*
X136401839Y-92777700D01*
X136156465Y-95699782D01*
X126753698Y-95699782D01*
X126707386Y-95148276D01*
X127239837Y-90401361D01*
X128684163Y-85848272D01*
X130985347Y-81662433D01*
X134055740Y-78003281D01*
X137778390Y-75010193D01*
X142011504Y-72797175D01*
X146593842Y-71448520D01*
X147333515Y-71381204D01*
X147226147Y-71401686D01*
X147005768Y-71490725D01*
X146806882Y-71620872D01*
X146637062Y-71787172D01*
X146502778Y-71983290D01*
X146409143Y-72201755D01*
X146359726Y-72434246D01*
X146356407Y-72671908D01*
X146399314Y-72905689D01*
X146486812Y-73126683D01*
X146615568Y-73326474D01*
X146780678Y-73497450D01*
X146975853Y-73633100D01*
X147193659Y-73728257D01*
X147425800Y-73779297D01*
X147663433Y-73784275D01*
X147897508Y-73743001D01*
X148119108Y-73657048D01*
X148319792Y-73529690D01*
X148491917Y-73365777D01*
X148628927Y-73171554D01*
X148725602Y-72954418D01*
X148778261Y-72722639D01*
X148782052Y-72451157D01*
X148735885Y-72217999D01*
X148645310Y-71998247D01*
X148513777Y-71800274D01*
X148346296Y-71631620D01*
X148149246Y-71498708D01*
X147930132Y-71406601D01*
X147697301Y-71358808D01*
X147587997Y-71358045D01*
X151350866Y-71015596D01*
X154471451Y-71343583D01*
M02*
