G04 #@! TF.FileFunction,Legend,Top*
%FSLAX46Y46*%
G04 Gerber Fmt 4.6, Leading zero omitted, Abs format (unit mm)*
G04 Created by KiCad (PCBNEW 4.0.1-stable) date 2/5/2016 11:19:16 AM*
%MOMM*%
G01*
G04 APERTURE LIST*
%ADD10C,0.100000*%
%ADD11C,0.300000*%
%ADD12C,0.150000*%
G04 APERTURE END LIST*
D10*
D11*
X148162418Y-93371754D02*
X148061786Y-93380558D01*
X147851721Y-93297535D01*
X147742286Y-93205708D01*
X147624047Y-93013251D01*
X147606438Y-92811989D01*
X147643548Y-92656641D01*
X147772484Y-92391857D01*
X147910224Y-92227705D01*
X148148596Y-92054749D01*
X148295140Y-91991227D01*
X148496402Y-91973619D01*
X148706467Y-92056641D01*
X148815902Y-92148468D01*
X148934141Y-92340926D01*
X148942945Y-92441558D01*
X149527230Y-92745343D02*
X148746702Y-93675540D01*
X148709592Y-93830887D01*
X148718396Y-93931519D01*
X148781918Y-94078063D01*
X149000787Y-94261716D01*
X149156136Y-94298826D01*
X149256767Y-94290022D01*
X149403311Y-94226501D01*
X150183839Y-93296303D01*
X150566861Y-93617697D02*
X151223471Y-94168658D01*
X149930985Y-95042245D02*
X150895167Y-93893178D01*
X152700842Y-95408320D02*
X152919712Y-95591973D01*
X152983234Y-95738518D01*
X153000842Y-95939780D01*
X152871905Y-96204562D01*
X152550512Y-96587585D01*
X152312140Y-96760542D01*
X152110879Y-96778150D01*
X151955530Y-96741040D01*
X151736661Y-96557386D01*
X151673139Y-96410843D01*
X151655531Y-96209581D01*
X151784467Y-95944797D01*
X152105861Y-95561775D01*
X152344232Y-95388819D01*
X152545494Y-95371211D01*
X152700842Y-95408320D01*
X153685757Y-96234761D02*
X152905229Y-97164958D01*
X152868119Y-97320306D01*
X152876923Y-97420938D01*
X152940445Y-97567481D01*
X153159315Y-97751135D01*
X153314663Y-97788245D01*
X153415294Y-97779440D01*
X153561839Y-97715919D01*
X154342367Y-96785722D01*
X154725389Y-97107116D02*
X155381998Y-97658077D01*
X154089513Y-98531664D02*
X155053694Y-97382597D01*
X134677582Y-116948246D02*
X134778214Y-116939442D01*
X134988279Y-117022465D01*
X135097714Y-117114292D01*
X135215953Y-117306749D01*
X135233562Y-117508011D01*
X135196452Y-117663359D01*
X135067516Y-117928143D01*
X134929776Y-118092295D01*
X134691404Y-118265251D01*
X134544860Y-118328773D01*
X134343598Y-118346381D01*
X134133533Y-118263359D01*
X134024098Y-118171532D01*
X133905859Y-117979074D01*
X133897055Y-117878442D01*
X133312770Y-117574657D02*
X134093298Y-116644460D01*
X134130408Y-116489113D01*
X134121604Y-116388481D01*
X134058082Y-116241937D01*
X133839213Y-116058284D01*
X133683864Y-116021174D01*
X133583233Y-116029978D01*
X133436689Y-116093499D01*
X132656161Y-117023697D01*
X132273139Y-116702303D02*
X131616529Y-116151342D01*
X132909015Y-115277755D02*
X131944833Y-116426822D01*
X130139158Y-114911680D02*
X129920288Y-114728027D01*
X129856766Y-114581482D01*
X129839158Y-114380220D01*
X129968095Y-114115438D01*
X130289488Y-113732415D01*
X130527860Y-113559458D01*
X130729121Y-113541850D01*
X130884470Y-113578960D01*
X131103339Y-113762614D01*
X131166861Y-113909157D01*
X131184469Y-114110419D01*
X131055533Y-114375203D01*
X130734139Y-114758225D01*
X130495768Y-114931181D01*
X130294506Y-114948789D01*
X130139158Y-114911680D01*
X129154243Y-114085239D02*
X129934771Y-113155042D01*
X129971881Y-112999694D01*
X129963077Y-112899062D01*
X129899555Y-112752519D01*
X129680685Y-112568865D01*
X129525337Y-112531755D01*
X129424706Y-112540560D01*
X129278161Y-112604081D01*
X128497633Y-113534278D01*
X128114611Y-113212884D02*
X127458002Y-112661923D01*
X128750487Y-111788336D02*
X127786306Y-112937403D01*
X170201754Y-116717582D02*
X170210558Y-116818214D01*
X170127535Y-117028279D01*
X170035708Y-117137714D01*
X169843251Y-117255953D01*
X169641989Y-117273562D01*
X169486641Y-117236452D01*
X169221857Y-117107516D01*
X169057705Y-116969776D01*
X168884749Y-116731404D01*
X168821227Y-116584860D01*
X168803619Y-116383598D01*
X168886641Y-116173533D01*
X168978468Y-116064098D01*
X169170926Y-115945859D01*
X169271558Y-115937055D01*
X169575343Y-115352770D02*
X170505540Y-116133298D01*
X170660887Y-116170408D01*
X170761519Y-116161604D01*
X170908063Y-116098082D01*
X171091716Y-115879213D01*
X171128826Y-115723864D01*
X171120022Y-115623233D01*
X171056501Y-115476689D01*
X170126303Y-114696161D01*
X170447697Y-114313139D02*
X170998658Y-113656529D01*
X171872245Y-114949015D02*
X170723178Y-113984833D01*
X172238320Y-112179158D02*
X172421973Y-111960288D01*
X172568518Y-111896766D01*
X172769780Y-111879158D01*
X173034562Y-112008095D01*
X173417585Y-112329488D01*
X173590542Y-112567860D01*
X173608150Y-112769121D01*
X173571040Y-112924470D01*
X173387386Y-113143339D01*
X173240843Y-113206861D01*
X173039581Y-113224469D01*
X172774797Y-113095533D01*
X172391775Y-112774139D01*
X172218819Y-112535768D01*
X172201211Y-112334506D01*
X172238320Y-112179158D01*
X173064761Y-111194243D02*
X173994958Y-111974771D01*
X174150306Y-112011881D01*
X174250938Y-112003077D01*
X174397481Y-111939555D01*
X174581135Y-111720685D01*
X174618245Y-111565337D01*
X174609440Y-111464706D01*
X174545919Y-111318161D01*
X173615722Y-110537633D01*
X173937116Y-110154611D02*
X174488077Y-109498002D01*
X175361664Y-110790487D02*
X174212597Y-109826306D01*
X128151754Y-80537582D02*
X128160558Y-80638214D01*
X128077535Y-80848279D01*
X127985708Y-80957714D01*
X127793251Y-81075953D01*
X127591989Y-81093562D01*
X127436641Y-81056452D01*
X127171857Y-80927516D01*
X127007705Y-80789776D01*
X126834749Y-80551404D01*
X126771227Y-80404860D01*
X126753619Y-80203598D01*
X126836641Y-79993533D01*
X126928468Y-79884098D01*
X127120926Y-79765859D01*
X127221558Y-79757055D01*
X127525343Y-79172770D02*
X128455540Y-79953298D01*
X128610887Y-79990408D01*
X128711519Y-79981604D01*
X128858063Y-79918082D01*
X129041716Y-79699213D01*
X129078826Y-79543864D01*
X129070022Y-79443233D01*
X129006501Y-79296689D01*
X128076303Y-78516161D01*
X128397697Y-78133139D02*
X128948658Y-77476529D01*
X129822245Y-78769015D02*
X128673178Y-77804833D01*
X130188320Y-75999158D02*
X130371973Y-75780288D01*
X130518518Y-75716766D01*
X130719780Y-75699158D01*
X130984562Y-75828095D01*
X131367585Y-76149488D01*
X131540542Y-76387860D01*
X131558150Y-76589121D01*
X131521040Y-76744470D01*
X131337386Y-76963339D01*
X131190843Y-77026861D01*
X130989581Y-77044469D01*
X130724797Y-76915533D01*
X130341775Y-76594139D01*
X130168819Y-76355768D01*
X130151211Y-76154506D01*
X130188320Y-75999158D01*
X131014761Y-75014243D02*
X131944958Y-75794771D01*
X132100306Y-75831881D01*
X132200938Y-75823077D01*
X132347481Y-75759555D01*
X132531135Y-75540685D01*
X132568245Y-75385337D01*
X132559440Y-75284706D01*
X132495919Y-75138161D01*
X131565722Y-74357633D01*
X131887116Y-73974611D02*
X132438077Y-73318002D01*
X133311664Y-74610487D02*
X132162597Y-73646306D01*
X165802418Y-71881754D02*
X165701786Y-71890558D01*
X165491721Y-71807535D01*
X165382286Y-71715708D01*
X165264047Y-71523251D01*
X165246438Y-71321989D01*
X165283548Y-71166641D01*
X165412484Y-70901857D01*
X165550224Y-70737705D01*
X165788596Y-70564749D01*
X165935140Y-70501227D01*
X166136402Y-70483619D01*
X166346467Y-70566641D01*
X166455902Y-70658468D01*
X166574141Y-70850926D01*
X166582945Y-70951558D01*
X167167230Y-71255343D02*
X166386702Y-72185540D01*
X166349592Y-72340887D01*
X166358396Y-72441519D01*
X166421918Y-72588063D01*
X166640787Y-72771716D01*
X166796136Y-72808826D01*
X166896767Y-72800022D01*
X167043311Y-72736501D01*
X167823839Y-71806303D01*
X168206861Y-72127697D02*
X168863471Y-72678658D01*
X167570985Y-73552245D02*
X168535167Y-72403178D01*
X170340842Y-73918320D02*
X170559712Y-74101973D01*
X170623234Y-74248518D01*
X170640842Y-74449780D01*
X170511905Y-74714562D01*
X170190512Y-75097585D01*
X169952140Y-75270542D01*
X169750879Y-75288150D01*
X169595530Y-75251040D01*
X169376661Y-75067386D01*
X169313139Y-74920843D01*
X169295531Y-74719581D01*
X169424467Y-74454797D01*
X169745861Y-74071775D01*
X169984232Y-73898819D01*
X170185494Y-73881211D01*
X170340842Y-73918320D01*
X171325757Y-74744761D02*
X170545229Y-75674958D01*
X170508119Y-75830306D01*
X170516923Y-75930938D01*
X170580445Y-76077481D01*
X170799315Y-76261135D01*
X170954663Y-76298245D01*
X171055294Y-76289440D01*
X171201839Y-76225919D01*
X171982367Y-75295722D01*
X172365389Y-75617116D02*
X173021998Y-76168077D01*
X171729513Y-77041664D02*
X172693694Y-75892597D01*
D12*
X174331010Y-122057294D02*
X173862618Y-121537093D01*
X174754392Y-120734136D02*
X175222784Y-121254337D01*
X162653398Y-62120639D02*
X162437086Y-62786379D01*
X161295818Y-62415559D02*
X161512130Y-61749819D01*
X169334540Y-65232561D02*
X168984540Y-65838779D01*
X167945310Y-65238779D02*
X168295310Y-64632561D01*
X175222679Y-69665568D02*
X174754287Y-70185769D01*
X173862513Y-69382812D02*
X174330905Y-68862611D01*
X180060473Y-75225915D02*
X179494161Y-75637365D01*
X178788819Y-74666545D02*
X179355131Y-74255095D01*
X183636488Y-81670590D02*
X182997006Y-81955306D01*
X182508922Y-80859052D02*
X183148404Y-80574336D01*
X185794434Y-88717928D02*
X185109730Y-88863467D01*
X184860236Y-87689690D02*
X185544940Y-87544151D01*
X186439999Y-96059929D02*
X185739999Y-96059929D01*
X185739999Y-94859929D02*
X186439999Y-94859929D01*
X185544970Y-103375710D02*
X184860266Y-103230171D01*
X185109760Y-102056394D02*
X185794464Y-102201933D01*
X183148461Y-110345535D02*
X182508979Y-110060819D01*
X182997063Y-108964565D02*
X183636545Y-109249281D01*
X179355214Y-116664790D02*
X178788902Y-116253340D01*
X179494244Y-115282520D02*
X180060556Y-115693970D01*
X168295432Y-126287368D02*
X167945432Y-125681150D01*
X168984662Y-125081150D02*
X169334662Y-125687368D01*
X161512264Y-129170136D02*
X161295952Y-128504396D01*
X162437220Y-128133576D02*
X162653532Y-128799316D01*
X154277963Y-130579609D02*
X154204793Y-129883443D01*
X155398219Y-129758009D02*
X155471389Y-130454175D01*
X146908703Y-130454184D02*
X146981873Y-129758018D01*
X148175299Y-129883452D02*
X148102129Y-130579618D01*
X139726557Y-128799345D02*
X139942869Y-128133605D01*
X141084137Y-128504425D02*
X140867825Y-129170165D01*
X133045418Y-125687415D02*
X133395418Y-125081197D01*
X134434648Y-125681197D02*
X134084648Y-126287415D01*
X127157285Y-121254400D02*
X127625677Y-120734199D01*
X128517451Y-121537156D02*
X128049059Y-122057357D01*
X122319499Y-115694046D02*
X122885811Y-115282596D01*
X123591153Y-116253416D02*
X123024841Y-116664866D01*
X118743492Y-109249367D02*
X119382974Y-108964651D01*
X119871058Y-110060905D02*
X119231576Y-110345621D01*
X116585555Y-102202025D02*
X117270259Y-102056486D01*
X117519753Y-103230263D02*
X116835049Y-103375802D01*
X115940000Y-94860023D02*
X116640000Y-94860023D01*
X116640000Y-96060023D02*
X115940000Y-96060023D01*
X116835039Y-87544243D02*
X117519743Y-87689782D01*
X117270249Y-88863559D02*
X116585545Y-88718020D01*
X119231557Y-80574421D02*
X119871039Y-80859137D01*
X119382955Y-81955391D02*
X118743473Y-81670675D01*
X123024813Y-74255171D02*
X123591125Y-74666621D01*
X122885783Y-75637441D02*
X122319471Y-75225991D01*
X128049024Y-68862673D02*
X128517416Y-69382874D01*
X127625642Y-70185831D02*
X127157250Y-69665630D01*
X134084608Y-64632608D02*
X134434608Y-65238826D01*
X133395378Y-65838826D02*
X133045378Y-65232608D01*
X140867780Y-61749849D02*
X141084092Y-62415589D01*
X139942824Y-62786409D02*
X139726512Y-62120669D01*
X148102083Y-60340386D02*
X148175253Y-61036552D01*
X146981827Y-61161986D02*
X146908657Y-60465820D01*
X114840000Y-87520000D02*
G75*
G03X114840000Y-87520000I-1000000J0D01*
G01*
X156190000Y-57280000D02*
G75*
G03X156190000Y-57280000I-1000000J0D01*
G01*
X114170000Y-95510000D02*
G75*
G03X114170000Y-95510000I-1000000J0D01*
G01*
X190390000Y-95490000D02*
G75*
G03X190390000Y-95490000I-1000000J0D01*
G01*
X189510000Y-103400000D02*
G75*
G03X189510000Y-103400000I-1000000J0D01*
G01*
X148200000Y-57400000D02*
G75*
G03X148200000Y-57400000I-1000000J0D01*
G01*
X155583567Y-60153296D02*
X155479038Y-61147818D01*
X154136433Y-61006704D02*
X154240962Y-60012182D01*
X138698277Y-63029138D02*
G75*
G03X138698277Y-63029138I-1947434J0D01*
G01*
X138155219Y-60159865D02*
X137698124Y-59870791D01*
X137698124Y-59870791D02*
X137718461Y-59916468D01*
X133450138Y-61762116D02*
X135483821Y-66329843D01*
X135483821Y-66329843D02*
X140051548Y-64296160D01*
X140051548Y-64296160D02*
X138017865Y-59728433D01*
X138017865Y-59728433D02*
X133450138Y-61762116D01*
X132271050Y-66739902D02*
G75*
G03X132271050Y-66739902I-1947435J0D01*
G01*
X131100747Y-63641343D02*
X130593538Y-63453621D01*
X130593538Y-63453621D02*
X130622928Y-63494072D01*
X126831609Y-66186823D02*
X129770536Y-70231908D01*
X129770536Y-70231908D02*
X133815621Y-67292981D01*
X133815621Y-67292981D02*
X130876694Y-63247896D01*
X130876694Y-63247896D02*
X126831609Y-66186823D01*
X126755784Y-71705872D02*
G75*
G03X126755784Y-71705872I-1947434J0D01*
G01*
X124924273Y-68513449D02*
X124389119Y-68435284D01*
X124389119Y-68435284D02*
X124426276Y-68468741D01*
X121277661Y-71890908D02*
X124993386Y-75236561D01*
X124993386Y-75236561D02*
X128339039Y-71520836D01*
X128339039Y-71520836D02*
X124623314Y-68175183D01*
X124623314Y-68175183D02*
X121277661Y-71890908D01*
X122393524Y-77710013D02*
G75*
G03X122393524Y-77710013I-1947434J0D01*
G01*
X119895738Y-74563251D02*
X119356026Y-74598058D01*
X119356026Y-74598058D02*
X119399328Y-74623058D01*
X117031026Y-78625077D02*
X121361154Y-81125077D01*
X121361154Y-81125077D02*
X123861154Y-76794949D01*
X123861154Y-76794949D02*
X119531026Y-74294949D01*
X119531026Y-74294949D02*
X117031026Y-78625077D01*
X119374921Y-84489914D02*
G75*
G03X119374921Y-84489914I-1947434J0D01*
G01*
X116234913Y-81526341D02*
X115714232Y-81672600D01*
X115714232Y-81672600D02*
X115761785Y-81688051D01*
X114277303Y-86095013D02*
X119032586Y-87640098D01*
X119032586Y-87640098D02*
X120577671Y-82884815D01*
X120577671Y-82884815D02*
X115822388Y-81339730D01*
X115822388Y-81339730D02*
X114277303Y-86095013D01*
X117831904Y-91749261D02*
G75*
G03X117831904Y-91749261I-1947434J0D01*
G01*
X114101795Y-89098399D02*
X113622901Y-89349718D01*
X113622901Y-89349718D02*
X113672628Y-89354944D01*
X113136844Y-93974245D02*
X118109454Y-94496887D01*
X118109454Y-94496887D02*
X118632096Y-89524277D01*
X118632096Y-89524277D02*
X113659486Y-89001635D01*
X113659486Y-89001635D02*
X113136844Y-93974245D01*
X117831910Y-99170785D02*
G75*
G03X117831910Y-99170785I-1947435J0D01*
G01*
X113589610Y-96948490D02*
X113173434Y-97293884D01*
X113173434Y-97293884D02*
X113223160Y-97288658D01*
X113659491Y-101918411D02*
X118632101Y-101395769D01*
X118632101Y-101395769D02*
X118109459Y-96423159D01*
X118109459Y-96423159D02*
X113136849Y-96945801D01*
X113136849Y-96945801D02*
X113659491Y-101918411D01*
X119374936Y-106430130D02*
G75*
G03X119374936Y-106430130I-1947434J0D01*
G01*
X114720745Y-104733526D02*
X114385474Y-105157901D01*
X114385474Y-105157901D02*
X114433027Y-105142450D01*
X115822403Y-109580314D02*
X120577686Y-108035229D01*
X120577686Y-108035229D02*
X119032601Y-103279946D01*
X119032601Y-103279946D02*
X114277318Y-104825031D01*
X114277318Y-104825031D02*
X115822403Y-109580314D01*
X122393548Y-113210027D02*
G75*
G03X122393548Y-113210027I-1947434J0D01*
G01*
X117445762Y-112113265D02*
X117206050Y-112598072D01*
X117206050Y-112598072D02*
X117249352Y-112573072D01*
X119531050Y-116625091D02*
X123861178Y-114125091D01*
X123861178Y-114125091D02*
X121361178Y-109794963D01*
X121361178Y-109794963D02*
X117031050Y-112294963D01*
X117031050Y-112294963D02*
X119531050Y-116625091D01*
X126755817Y-119214162D02*
G75*
G03X126755817Y-119214162I-1947435J0D01*
G01*
X121645565Y-118765175D02*
X121511889Y-119289227D01*
X121511889Y-119289227D02*
X121549046Y-119255771D01*
X124623346Y-122744851D02*
X128339071Y-119399198D01*
X128339071Y-119399198D02*
X124993418Y-115683473D01*
X124993418Y-115683473D02*
X121277693Y-119029126D01*
X121277693Y-119029126D02*
X124623346Y-122744851D01*
X132271088Y-124180125D02*
G75*
G03X132271088Y-124180125I-1947434J0D01*
G01*
X127136603Y-124398536D02*
X127114804Y-124938929D01*
X127114804Y-124938929D02*
X127144194Y-124898478D01*
X130876733Y-127672131D02*
X133815660Y-123627046D01*
X133815660Y-123627046D02*
X129770575Y-120688119D01*
X129770575Y-120688119D02*
X126831648Y-124733204D01*
X126831648Y-124733204D02*
X130876733Y-127672131D01*
X138698322Y-127890880D02*
G75*
G03X138698322Y-127890880I-1947435J0D01*
G01*
X133678891Y-128767143D02*
X133769923Y-129300260D01*
X133769923Y-129300260D02*
X133790259Y-129254583D01*
X138017909Y-131191585D02*
X140051592Y-126623858D01*
X140051592Y-126623858D02*
X135483865Y-124590175D01*
X135483865Y-124590175D02*
X133450182Y-129157902D01*
X133450182Y-129157902D02*
X138017909Y-131191585D01*
X145756612Y-130184249D02*
G75*
G03X145756612Y-130184249I-1947434J0D01*
G01*
X140986497Y-131680068D02*
X141186381Y-132182608D01*
X141186381Y-132182608D02*
X141196777Y-132133700D01*
X145734768Y-133149397D02*
X146774326Y-128258659D01*
X146774326Y-128258659D02*
X141883588Y-127219101D01*
X141883588Y-127219101D02*
X140844030Y-132109839D01*
X140844030Y-132109839D02*
X145734768Y-133149397D01*
X153137481Y-130959999D02*
G75*
G03X153137481Y-130959999I-1947434J0D01*
G01*
X148740047Y-133009999D02*
X149040047Y-133459999D01*
X149040047Y-133459999D02*
X149040047Y-133409999D01*
X153690047Y-133459999D02*
X153690047Y-128459999D01*
X153690047Y-128459999D02*
X148690047Y-128459999D01*
X148690047Y-128459999D02*
X148690047Y-133459999D01*
X148690047Y-133459999D02*
X153690047Y-133459999D01*
X160518348Y-130184229D02*
G75*
G03X160518348Y-130184229I-1947434J0D01*
G01*
X156600671Y-132698815D02*
X156987676Y-133076608D01*
X156987676Y-133076608D02*
X156977280Y-133027701D01*
X161536062Y-132109819D02*
X160496504Y-127219081D01*
X160496504Y-127219081D02*
X155605766Y-128258639D01*
X155605766Y-128258639D02*
X156645324Y-133149377D01*
X156645324Y-133149377D02*
X161536062Y-132109819D01*
X167576634Y-127890841D02*
G75*
G03X167576634Y-127890841I-1947434J0D01*
G01*
X164224824Y-130760114D02*
X164681919Y-131049188D01*
X164681919Y-131049188D02*
X164661582Y-131003511D01*
X168929905Y-129157863D02*
X166896222Y-124590136D01*
X166896222Y-124590136D02*
X162328495Y-126623819D01*
X162328495Y-126623819D02*
X164362178Y-131191546D01*
X164362178Y-131191546D02*
X168929905Y-129157863D01*
X179519115Y-119214091D02*
G75*
G03X179519115Y-119214091I-1947434J0D01*
G01*
X177455758Y-122406514D02*
X177990912Y-122484679D01*
X177990912Y-122484679D02*
X177953755Y-122451222D01*
X181102370Y-119029055D02*
X177386645Y-115683402D01*
X177386645Y-115683402D02*
X174040992Y-119399127D01*
X174040992Y-119399127D02*
X177756717Y-122744780D01*
X177756717Y-122744780D02*
X181102370Y-119029055D01*
X183881367Y-113209944D02*
G75*
G03X183881367Y-113209944I-1947434J0D01*
G01*
X182484285Y-116356706D02*
X183023997Y-116321899D01*
X183023997Y-116321899D02*
X182980695Y-116296899D01*
X185348997Y-112294880D02*
X181018869Y-109794880D01*
X181018869Y-109794880D02*
X178518869Y-114125008D01*
X178518869Y-114125008D02*
X182848997Y-116625008D01*
X182848997Y-116625008D02*
X185348997Y-112294880D01*
X186899961Y-106430039D02*
G75*
G03X186899961Y-106430039I-1947434J0D01*
G01*
X186145101Y-109393612D02*
X186665782Y-109247353D01*
X186665782Y-109247353D02*
X186618229Y-109231902D01*
X188102711Y-104824940D02*
X183347428Y-103279855D01*
X183347428Y-103279855D02*
X181802343Y-108035138D01*
X181802343Y-108035138D02*
X186557626Y-109580223D01*
X186557626Y-109580223D02*
X188102711Y-104824940D01*
X188442968Y-99170690D02*
G75*
G03X188442968Y-99170690I-1947434J0D01*
G01*
X188278209Y-101821552D02*
X188757103Y-101570233D01*
X188757103Y-101570233D02*
X188707376Y-101565007D01*
X189243160Y-96945706D02*
X184270550Y-96423064D01*
X184270550Y-96423064D02*
X183747908Y-101395674D01*
X183747908Y-101395674D02*
X188720518Y-101918316D01*
X188720518Y-101918316D02*
X189243160Y-96945706D01*
X188442954Y-91749166D02*
G75*
G03X188442954Y-91749166I-1947435J0D01*
G01*
X188790384Y-93971461D02*
X189206560Y-93626067D01*
X189206560Y-93626067D02*
X189156834Y-93631293D01*
X188720503Y-89001540D02*
X183747893Y-89524182D01*
X183747893Y-89524182D02*
X184270535Y-94496792D01*
X184270535Y-94496792D02*
X189243145Y-93974150D01*
X189243145Y-93974150D02*
X188720503Y-89001540D01*
X186899916Y-84489823D02*
G75*
G03X186899916Y-84489823I-1947434J0D01*
G01*
X187659239Y-86186427D02*
X187994510Y-85762052D01*
X187994510Y-85762052D02*
X187946957Y-85777503D01*
X186557581Y-81339639D02*
X181802298Y-82884724D01*
X181802298Y-82884724D02*
X183347383Y-87640007D01*
X183347383Y-87640007D02*
X188102666Y-86094922D01*
X188102666Y-86094922D02*
X186557581Y-81339639D01*
X179519020Y-71705801D02*
G75*
G03X179519020Y-71705801I-1947435J0D01*
G01*
X180734402Y-72154788D02*
X180868078Y-71630736D01*
X180868078Y-71630736D02*
X180830921Y-71664192D01*
X177756621Y-68175112D02*
X174040896Y-71520765D01*
X174040896Y-71520765D02*
X177386549Y-75236490D01*
X177386549Y-75236490D02*
X181102274Y-71890837D01*
X181102274Y-71890837D02*
X177756621Y-68175112D01*
X174003740Y-66739846D02*
G75*
G03X174003740Y-66739846I-1947434J0D01*
G01*
X175243357Y-66521435D02*
X175265156Y-65981042D01*
X175265156Y-65981042D02*
X175235766Y-66021493D01*
X171503227Y-63247840D02*
X168564300Y-67292925D01*
X168564300Y-67292925D02*
X172609385Y-70231852D01*
X172609385Y-70231852D02*
X175548312Y-66186767D01*
X175548312Y-66186767D02*
X171503227Y-63247840D01*
X167576504Y-63029099D02*
G75*
G03X167576504Y-63029099I-1947435J0D01*
G01*
X168701065Y-62152836D02*
X168610033Y-61619719D01*
X168610033Y-61619719D02*
X168589697Y-61665396D01*
X164362047Y-59728394D02*
X162328364Y-64296121D01*
X162328364Y-64296121D02*
X166896091Y-66329804D01*
X166896091Y-66329804D02*
X168929774Y-61762077D01*
X168929774Y-61762077D02*
X164362047Y-59728394D01*
X160518208Y-60735740D02*
G75*
G03X160518208Y-60735740I-1947434J0D01*
G01*
X161393455Y-59239921D02*
X161193571Y-58737381D01*
X161193571Y-58737381D02*
X161183175Y-58786289D01*
X156645184Y-57770592D02*
X155605626Y-62661330D01*
X155605626Y-62661330D02*
X160496364Y-63700888D01*
X160496364Y-63700888D02*
X161535922Y-58810150D01*
X161535922Y-58810150D02*
X156645184Y-57770592D01*
X174003857Y-124180069D02*
G75*
G03X174003857Y-124180069I-1947435J0D01*
G01*
X171279290Y-127278628D02*
X171786499Y-127466350D01*
X171786499Y-127466350D02*
X171757109Y-127425899D01*
X175548428Y-124733148D02*
X172609501Y-120688063D01*
X172609501Y-120688063D02*
X168564416Y-123626990D01*
X168564416Y-123626990D02*
X171503343Y-127672075D01*
X171503343Y-127672075D02*
X175548428Y-124733148D01*
X183881296Y-77709931D02*
G75*
G03X183881296Y-77709931I-1947434J0D01*
G01*
X184934214Y-78806693D02*
X185173926Y-78321886D01*
X185173926Y-78321886D02*
X185130624Y-78346886D01*
X182848926Y-74294867D02*
X178518798Y-76794867D01*
X178518798Y-76794867D02*
X181018798Y-81124995D01*
X181018798Y-81124995D02*
X185348926Y-78624995D01*
X185348926Y-78624995D02*
X182848926Y-74294867D01*
X153137434Y-59960000D02*
G75*
G03X153137434Y-59960000I-1947434J0D01*
G01*
X153640000Y-57910000D02*
X153340000Y-57460000D01*
X153340000Y-57460000D02*
X153340000Y-57510000D01*
X148690000Y-57460000D02*
X148690000Y-62460000D01*
X148690000Y-62460000D02*
X153690000Y-62460000D01*
X153690000Y-62460000D02*
X153690000Y-57460000D01*
X153690000Y-57460000D02*
X148690000Y-57460000D01*
X145756565Y-60735760D02*
G75*
G03X145756565Y-60735760I-1947434J0D01*
G01*
X145779374Y-58221174D02*
X145392369Y-57843381D01*
X145392369Y-57843381D02*
X145402765Y-57892288D01*
X140843983Y-58810170D02*
X141883541Y-63700908D01*
X141883541Y-63700908D02*
X146774279Y-62661350D01*
X146774279Y-62661350D02*
X145734721Y-57770612D01*
X145734721Y-57770612D02*
X140843983Y-58810170D01*
X156052540Y-79361210D02*
X156718280Y-79577522D01*
X156347460Y-80718790D02*
X155681720Y-80502478D01*
X160799515Y-81648865D02*
X161365827Y-82060315D01*
X160660485Y-83031135D02*
X160094173Y-82619685D01*
X164609685Y-85304173D02*
X165021135Y-85870485D01*
X164050315Y-86575827D02*
X163638865Y-86009515D01*
X167092478Y-89951720D02*
X167308790Y-90617460D01*
X166167522Y-90988280D02*
X165951210Y-90322540D01*
X168030000Y-95140000D02*
X168030000Y-95840000D01*
X166830000Y-95840000D02*
X166830000Y-95140000D01*
X167308790Y-100362540D02*
X167092478Y-101028280D01*
X165951210Y-100657460D02*
X166167522Y-99991720D01*
X165011135Y-105099515D02*
X164599685Y-105665827D01*
X163628865Y-104960485D02*
X164040315Y-104394173D01*
X161365827Y-108919685D02*
X160799515Y-109331135D01*
X160094173Y-108360315D02*
X160660485Y-107948865D01*
X156718280Y-111402478D02*
X156052540Y-111618790D01*
X155681720Y-110477522D02*
X156347460Y-110261210D01*
X151530000Y-112340000D02*
X150830000Y-112340000D01*
X150830000Y-111140000D02*
X151530000Y-111140000D01*
X146307460Y-111618790D02*
X145641720Y-111402478D01*
X146012540Y-110261210D02*
X146678280Y-110477522D01*
X141560485Y-109331135D02*
X140994173Y-108919685D01*
X141699515Y-107948865D02*
X142265827Y-108360315D01*
X137750315Y-105675827D02*
X137338865Y-105109515D01*
X138309685Y-104404173D02*
X138721135Y-104970485D01*
X135267522Y-101028280D02*
X135051210Y-100362540D01*
X136192478Y-99991720D02*
X136408790Y-100657460D01*
X134330000Y-95840000D02*
X134330000Y-95140000D01*
X135530000Y-95140000D02*
X135530000Y-95840000D01*
X135051210Y-90617460D02*
X135267522Y-89951720D01*
X136408790Y-90322540D02*
X136192478Y-90988280D01*
X137338865Y-85870485D02*
X137750315Y-85304173D01*
X138721135Y-86009515D02*
X138309685Y-86575827D01*
X140994173Y-82060315D02*
X141560485Y-81648865D01*
X142265827Y-82619685D02*
X141699515Y-83031135D01*
X145641720Y-79577522D02*
X146307460Y-79361210D01*
X146678280Y-80502478D02*
X146012540Y-80718790D01*
X155820000Y-72510000D02*
G75*
G03X155820000Y-72510000I-1000000J0D01*
G01*
X131720000Y-105940000D02*
G75*
G03X131720000Y-105940000I-1000000J0D01*
G01*
X129420000Y-99110000D02*
G75*
G03X129420000Y-99110000I-1000000J0D01*
G01*
X148570000Y-72570000D02*
G75*
G03X148570000Y-72570000I-1000000J0D01*
G01*
X175000000Y-99110000D02*
G75*
G03X175000000Y-99110000I-1000000J0D01*
G01*
X175020000Y-91870000D02*
G75*
G03X175020000Y-91870000I-1000000J0D01*
G01*
X151680000Y-79915000D02*
X150680000Y-79915000D01*
X150680000Y-78565000D02*
X151680000Y-78565000D01*
X153127434Y-74990000D02*
G75*
G03X153127434Y-74990000I-1947434J0D01*
G01*
X153630000Y-72940000D02*
X153330000Y-72490000D01*
X153330000Y-72490000D02*
X153330000Y-72540000D01*
X148680000Y-72490000D02*
X148680000Y-77490000D01*
X148680000Y-77490000D02*
X153680000Y-77490000D01*
X153680000Y-77490000D02*
X153680000Y-72490000D01*
X153680000Y-72490000D02*
X148680000Y-72490000D01*
X159457434Y-75990000D02*
G75*
G03X159457434Y-75990000I-1947434J0D01*
G01*
X160473573Y-74797426D02*
X160327314Y-74276745D01*
X160327314Y-74276745D02*
X160311863Y-74324298D01*
X155904901Y-72839816D02*
X154359816Y-77595099D01*
X154359816Y-77595099D02*
X159115099Y-79140184D01*
X159115099Y-79140184D02*
X160660184Y-74384901D01*
X160660184Y-74384901D02*
X155904901Y-72839816D01*
X165177434Y-78910000D02*
G75*
G03X165177434Y-78910000I-1947434J0D01*
G01*
X166417051Y-78691589D02*
X166438850Y-78151196D01*
X166438850Y-78151196D02*
X166409460Y-78191647D01*
X162676921Y-75417994D02*
X159737994Y-79463079D01*
X159737994Y-79463079D02*
X163783079Y-82402006D01*
X163783079Y-82402006D02*
X166722006Y-78356921D01*
X166722006Y-78356921D02*
X162676921Y-75417994D01*
X169707435Y-83440000D02*
G75*
G03X169707435Y-83440000I-1947435J0D01*
G01*
X170858559Y-84217132D02*
X171046281Y-83709923D01*
X171046281Y-83709923D02*
X171005830Y-83739313D01*
X168313079Y-79947994D02*
X164267994Y-82886921D01*
X164267994Y-82886921D02*
X167206921Y-86932006D01*
X167206921Y-86932006D02*
X171252006Y-83993079D01*
X171252006Y-83993079D02*
X168313079Y-79947994D01*
X172627434Y-89160000D02*
G75*
G03X172627434Y-89160000I-1947434J0D01*
G01*
X173386757Y-90856604D02*
X173722028Y-90432229D01*
X173722028Y-90432229D02*
X173674475Y-90447680D01*
X172285099Y-86009816D02*
X167529816Y-87554901D01*
X167529816Y-87554901D02*
X169074901Y-92310184D01*
X169074901Y-92310184D02*
X173830184Y-90765099D01*
X173830184Y-90765099D02*
X172285099Y-86009816D01*
X173627434Y-95490000D02*
G75*
G03X173627434Y-95490000I-1947434J0D01*
G01*
X173730000Y-97940000D02*
X174180000Y-97640000D01*
X174180000Y-97640000D02*
X174130000Y-97640000D01*
X174180000Y-92990000D02*
X169180000Y-92990000D01*
X169180000Y-92990000D02*
X169180000Y-97990000D01*
X169180000Y-97990000D02*
X174180000Y-97990000D01*
X174180000Y-97990000D02*
X174180000Y-92990000D01*
X172627434Y-101820000D02*
G75*
G03X172627434Y-101820000I-1947434J0D01*
G01*
X171872574Y-104783573D02*
X172393255Y-104637314D01*
X172393255Y-104637314D02*
X172345702Y-104621863D01*
X173830184Y-100214901D02*
X169074901Y-98669816D01*
X169074901Y-98669816D02*
X167529816Y-103425099D01*
X167529816Y-103425099D02*
X172285099Y-104970184D01*
X172285099Y-104970184D02*
X173830184Y-100214901D01*
X169707434Y-107540000D02*
G75*
G03X169707434Y-107540000I-1947434J0D01*
G01*
X167978411Y-110727051D02*
X168518804Y-110748850D01*
X168518804Y-110748850D02*
X168478353Y-110719460D01*
X171252006Y-106986921D02*
X167206921Y-104047994D01*
X167206921Y-104047994D02*
X164267994Y-108093079D01*
X164267994Y-108093079D02*
X168313079Y-111032006D01*
X168313079Y-111032006D02*
X171252006Y-106986921D01*
X165177435Y-112070000D02*
G75*
G03X165177435Y-112070000I-1947435J0D01*
G01*
X162452868Y-115168559D02*
X162960077Y-115356281D01*
X162960077Y-115356281D02*
X162930687Y-115315830D01*
X166722006Y-112623079D02*
X163783079Y-108577994D01*
X163783079Y-108577994D02*
X159737994Y-111516921D01*
X159737994Y-111516921D02*
X162676921Y-115562006D01*
X162676921Y-115562006D02*
X166722006Y-112623079D01*
X159457434Y-114990000D02*
G75*
G03X159457434Y-114990000I-1947434J0D01*
G01*
X155813396Y-117696757D02*
X156237771Y-118032028D01*
X156237771Y-118032028D02*
X156222320Y-117984475D01*
X160660184Y-116595099D02*
X159115099Y-111839816D01*
X159115099Y-111839816D02*
X154359816Y-113384901D01*
X154359816Y-113384901D02*
X155904901Y-118140184D01*
X155904901Y-118140184D02*
X160660184Y-116595099D01*
X153127434Y-115990000D02*
G75*
G03X153127434Y-115990000I-1947434J0D01*
G01*
X148730000Y-118040000D02*
X149030000Y-118490000D01*
X149030000Y-118490000D02*
X149030000Y-118440000D01*
X153680000Y-118490000D02*
X153680000Y-113490000D01*
X153680000Y-113490000D02*
X148680000Y-113490000D01*
X148680000Y-113490000D02*
X148680000Y-118490000D01*
X148680000Y-118490000D02*
X153680000Y-118490000D01*
X146797434Y-114990000D02*
G75*
G03X146797434Y-114990000I-1947434J0D01*
G01*
X141886427Y-116182574D02*
X142032686Y-116703255D01*
X142032686Y-116703255D02*
X142048137Y-116655702D01*
X146455099Y-118140184D02*
X148000184Y-113384901D01*
X148000184Y-113384901D02*
X143244901Y-111839816D01*
X143244901Y-111839816D02*
X141699816Y-116595099D01*
X141699816Y-116595099D02*
X146455099Y-118140184D01*
X141077434Y-112070000D02*
G75*
G03X141077434Y-112070000I-1947434J0D01*
G01*
X135942949Y-112288411D02*
X135921150Y-112828804D01*
X135921150Y-112828804D02*
X135950540Y-112788353D01*
X139683079Y-115562006D02*
X142622006Y-111516921D01*
X142622006Y-111516921D02*
X138576921Y-108577994D01*
X138576921Y-108577994D02*
X135637994Y-112623079D01*
X135637994Y-112623079D02*
X139683079Y-115562006D01*
X136547435Y-107540000D02*
G75*
G03X136547435Y-107540000I-1947435J0D01*
G01*
X131501441Y-106762868D02*
X131313719Y-107270077D01*
X131313719Y-107270077D02*
X131354170Y-107240687D01*
X134046921Y-111032006D02*
X138092006Y-108093079D01*
X138092006Y-108093079D02*
X135153079Y-104047994D01*
X135153079Y-104047994D02*
X131107994Y-106986921D01*
X131107994Y-106986921D02*
X134046921Y-111032006D01*
X133627434Y-101820000D02*
G75*
G03X133627434Y-101820000I-1947434J0D01*
G01*
X128973243Y-100123396D02*
X128637972Y-100547771D01*
X128637972Y-100547771D02*
X128685525Y-100532320D01*
X130074901Y-104970184D02*
X134830184Y-103425099D01*
X134830184Y-103425099D02*
X133285099Y-98669816D01*
X133285099Y-98669816D02*
X128529816Y-100214901D01*
X128529816Y-100214901D02*
X130074901Y-104970184D01*
X132627434Y-95490000D02*
G75*
G03X132627434Y-95490000I-1947434J0D01*
G01*
X128630000Y-93040000D02*
X128180000Y-93340000D01*
X128180000Y-93340000D02*
X128230000Y-93340000D01*
X128180000Y-97990000D02*
X133180000Y-97990000D01*
X133180000Y-97990000D02*
X133180000Y-92990000D01*
X133180000Y-92990000D02*
X128180000Y-92990000D01*
X128180000Y-92990000D02*
X128180000Y-97990000D01*
X133627434Y-89160000D02*
G75*
G03X133627434Y-89160000I-1947434J0D01*
G01*
X130487426Y-86196427D02*
X129966745Y-86342686D01*
X129966745Y-86342686D02*
X130014298Y-86358137D01*
X128529816Y-90765099D02*
X133285099Y-92310184D01*
X133285099Y-92310184D02*
X134830184Y-87554901D01*
X134830184Y-87554901D02*
X130074901Y-86009816D01*
X130074901Y-86009816D02*
X128529816Y-90765099D01*
X136547434Y-83440000D02*
G75*
G03X136547434Y-83440000I-1947434J0D01*
G01*
X134381589Y-80252949D02*
X133841196Y-80231150D01*
X133841196Y-80231150D02*
X133881647Y-80260540D01*
X131107994Y-83993079D02*
X135153079Y-86932006D01*
X135153079Y-86932006D02*
X138092006Y-82886921D01*
X138092006Y-82886921D02*
X134046921Y-79947994D01*
X134046921Y-79947994D02*
X131107994Y-83993079D01*
X141077435Y-78910000D02*
G75*
G03X141077435Y-78910000I-1947435J0D01*
G01*
X139907132Y-75811441D02*
X139399923Y-75623719D01*
X139399923Y-75623719D02*
X139429313Y-75664170D01*
X135637994Y-78356921D02*
X138576921Y-82402006D01*
X138576921Y-82402006D02*
X142622006Y-79463079D01*
X142622006Y-79463079D02*
X139683079Y-75417994D01*
X139683079Y-75417994D02*
X135637994Y-78356921D01*
X146797434Y-75990000D02*
G75*
G03X146797434Y-75990000I-1947434J0D01*
G01*
X146546604Y-73283243D02*
X146122229Y-72947972D01*
X146122229Y-72947972D02*
X146137680Y-72995525D01*
X141699816Y-74384901D02*
X143244901Y-79140184D01*
X143244901Y-79140184D02*
X148000184Y-77595099D01*
X148000184Y-77595099D02*
X146455099Y-72839816D01*
X146455099Y-72839816D02*
X141699816Y-74384901D01*
X154406960Y-63832481D02*
X154125228Y-63324056D01*
X153838662Y-63772751D02*
X153943190Y-62778229D01*
X154322056Y-62818049D01*
X154411795Y-62875363D01*
X154454176Y-62927698D01*
X154491579Y-63027392D01*
X154476646Y-63169467D01*
X154419333Y-63259205D01*
X154366997Y-63301586D01*
X154267303Y-63338989D01*
X153888437Y-63299168D01*
X155354124Y-63932032D02*
X154785825Y-63872302D01*
X155069974Y-63902167D02*
X155174503Y-62907645D01*
X155064854Y-63039764D01*
X154960182Y-63124526D01*
X154860489Y-63161929D01*
X136142113Y-62651199D02*
X135948429Y-62216177D01*
X136861974Y-61809440D01*
X137084864Y-62544212D02*
X137147735Y-62568345D01*
X137229974Y-62635981D01*
X137326816Y-62853493D01*
X137322051Y-62959865D01*
X137297917Y-63022736D01*
X137230281Y-63104975D01*
X137143277Y-63143712D01*
X136993402Y-63158315D01*
X136238955Y-62868709D01*
X136490744Y-63434238D01*
X136684428Y-63869259D02*
X136761902Y-64043268D01*
X136844141Y-64110904D01*
X136907012Y-64135038D01*
X137076255Y-64163937D01*
X137269632Y-64129966D01*
X137617650Y-63975018D01*
X137685285Y-63892779D01*
X137709419Y-63829909D01*
X137714185Y-63723536D01*
X137636711Y-63549527D01*
X137554472Y-63481891D01*
X137491601Y-63457757D01*
X137385228Y-63452992D01*
X137167718Y-63549834D01*
X137100082Y-63632073D01*
X137075947Y-63694944D01*
X137071182Y-63801316D01*
X137148656Y-63975326D01*
X137230895Y-64042961D01*
X137293766Y-64067095D01*
X137400139Y-64071860D01*
X129649609Y-66496785D02*
X129369711Y-66111538D01*
X130178728Y-65523753D01*
X130549516Y-66196126D02*
X130616030Y-66206661D01*
X130710534Y-66255721D01*
X130850483Y-66448344D01*
X130867938Y-66553383D01*
X130857403Y-66619898D01*
X130808344Y-66714402D01*
X130731295Y-66770381D01*
X130587731Y-66815826D01*
X129789558Y-66689408D01*
X130153425Y-67190228D01*
X130951598Y-67316645D02*
X130934143Y-67211606D01*
X130944678Y-67145092D01*
X130993737Y-67050588D01*
X131032262Y-67022598D01*
X131137301Y-67005143D01*
X131203815Y-67015678D01*
X131298319Y-67064738D01*
X131410279Y-67218837D01*
X131427734Y-67323876D01*
X131417199Y-67390390D01*
X131368139Y-67484894D01*
X131329615Y-67512884D01*
X131224576Y-67530339D01*
X131158062Y-67519804D01*
X131063558Y-67470744D01*
X130951598Y-67316645D01*
X130857094Y-67267586D01*
X130790580Y-67257051D01*
X130685540Y-67274507D01*
X130531442Y-67386466D01*
X130482382Y-67480970D01*
X130471847Y-67547484D01*
X130489302Y-67652523D01*
X130601262Y-67806622D01*
X130695766Y-67855681D01*
X130762280Y-67866216D01*
X130867319Y-67848761D01*
X131021417Y-67736802D01*
X131070478Y-67642298D01*
X131081012Y-67575783D01*
X131063558Y-67470744D01*
X124098526Y-71608200D02*
X123744647Y-71289566D01*
X124413778Y-70546422D01*
X124916257Y-71127011D02*
X124983508Y-71123487D01*
X125086147Y-71151825D01*
X125263087Y-71311143D01*
X125301999Y-71410257D01*
X125305524Y-71477508D01*
X125277185Y-71580147D01*
X125213458Y-71650923D01*
X125082480Y-71725223D01*
X124275465Y-71767517D01*
X124735508Y-72181741D01*
X125652353Y-71661639D02*
X126147783Y-72107727D01*
X125160161Y-72564101D01*
X119731470Y-77762057D02*
X119319077Y-77523961D01*
X119819077Y-76657936D01*
X120431287Y-77121367D02*
X120496335Y-77103937D01*
X120602623Y-77110317D01*
X120808821Y-77229365D01*
X120867490Y-77318223D01*
X120884919Y-77383272D01*
X120878540Y-77489560D01*
X120830921Y-77572039D01*
X120718253Y-77671947D01*
X119937666Y-77881104D01*
X120473778Y-78190628D01*
X121716085Y-77753175D02*
X121551127Y-77657936D01*
X121444839Y-77651556D01*
X121379791Y-77668986D01*
X121225883Y-77745085D01*
X121089406Y-77886232D01*
X120898930Y-78216147D01*
X120892550Y-78322435D01*
X120909980Y-78387484D01*
X120968649Y-78476342D01*
X121133607Y-78571581D01*
X121239895Y-78577961D01*
X121304943Y-78560531D01*
X121393802Y-78501862D01*
X121512849Y-78295666D01*
X121519229Y-78189377D01*
X121501800Y-78124328D01*
X121443131Y-78035470D01*
X121278173Y-77940231D01*
X121171885Y-77933851D01*
X121106836Y-77951281D01*
X121017977Y-78009951D01*
X116739304Y-84689398D02*
X116286420Y-84542247D01*
X116595437Y-83591191D01*
X117290621Y-83917209D02*
X117350625Y-83886636D01*
X117455916Y-83870777D01*
X117682359Y-83944353D01*
X117758221Y-84019072D01*
X117788794Y-84079075D01*
X117804652Y-84184367D01*
X117775222Y-84274944D01*
X117685789Y-84396094D01*
X116965746Y-84762974D01*
X117554496Y-84954270D01*
X118723992Y-84282800D02*
X118271108Y-84135649D01*
X118078669Y-84573818D01*
X118138672Y-84543244D01*
X118243964Y-84527386D01*
X118470407Y-84600962D01*
X118546268Y-84675680D01*
X118576842Y-84735684D01*
X118592700Y-84840977D01*
X118519124Y-85067418D01*
X118444406Y-85143280D01*
X118384402Y-85173853D01*
X118279110Y-85189712D01*
X118052668Y-85116136D01*
X117976806Y-85041417D01*
X117946233Y-84981414D01*
X115252801Y-92087467D02*
X114779219Y-92037691D01*
X114883747Y-91043170D01*
X115631523Y-91217527D02*
X115683859Y-91175146D01*
X115783553Y-91137743D01*
X116020344Y-91162631D01*
X116110083Y-91219944D01*
X116152464Y-91272280D01*
X116189867Y-91371973D01*
X116179912Y-91466690D01*
X116117621Y-91603787D01*
X115489592Y-92112355D01*
X116105248Y-92177063D01*
X117027382Y-91603644D02*
X116957696Y-92266659D01*
X116830410Y-91199891D02*
X116518956Y-91885376D01*
X117134613Y-91950084D01*
X115336926Y-99632932D02*
X114863344Y-99682707D01*
X114758815Y-98688185D01*
X115526502Y-98703261D02*
X115568882Y-98650925D01*
X115658621Y-98593612D01*
X115895413Y-98568724D01*
X115995107Y-98606127D01*
X116047442Y-98648508D01*
X116104756Y-98738246D01*
X116114711Y-98832963D01*
X116082285Y-98980015D01*
X115573717Y-99608044D01*
X116189374Y-99543336D01*
X116416352Y-98513971D02*
X117032009Y-98449263D01*
X116740321Y-98862971D01*
X116882397Y-98848038D01*
X116982091Y-98885441D01*
X117034426Y-98927822D01*
X117091740Y-99017562D01*
X117116627Y-99254352D01*
X117079224Y-99354046D01*
X117036844Y-99406382D01*
X116947105Y-99463695D01*
X116662955Y-99493560D01*
X116563261Y-99456157D01*
X116510926Y-99413777D01*
X116988004Y-106996020D02*
X116535120Y-107143171D01*
X116226103Y-106192114D01*
X116980147Y-106047249D02*
X117010721Y-105987246D01*
X117086582Y-105912527D01*
X117313025Y-105838952D01*
X117418317Y-105854810D01*
X117478320Y-105885383D01*
X117553039Y-105961245D01*
X117582469Y-106051822D01*
X117581326Y-106202402D01*
X117214446Y-106922444D01*
X117803196Y-106731148D01*
X117885916Y-105752947D02*
X117916489Y-105692944D01*
X117992350Y-105618225D01*
X118218793Y-105544650D01*
X118324085Y-105560508D01*
X118384088Y-105591081D01*
X118458807Y-105666943D01*
X118488237Y-105757520D01*
X118487094Y-105908100D01*
X118120214Y-106628142D01*
X118708964Y-106436846D01*
X120133875Y-113854928D02*
X119721482Y-114093023D01*
X119221482Y-113226998D01*
X119928930Y-112928524D02*
X119946359Y-112863475D01*
X120005028Y-112774617D01*
X120211226Y-112655569D01*
X120317514Y-112649189D01*
X120382562Y-112666619D01*
X120471421Y-112725288D01*
X120519040Y-112807767D01*
X120549229Y-112955294D01*
X120340071Y-113735880D01*
X120876183Y-113426356D01*
X121700969Y-112950166D02*
X121206097Y-113235880D01*
X121453532Y-113093023D02*
X120953532Y-112226998D01*
X120942482Y-112398335D01*
X120907623Y-112528432D01*
X120848954Y-112617291D01*
X124637049Y-119909888D02*
X124283170Y-120228522D01*
X123614040Y-119485377D01*
X124243972Y-119046339D02*
X124247497Y-118979088D01*
X124286409Y-118879973D01*
X124463349Y-118720656D01*
X124565988Y-118692317D01*
X124633239Y-118695841D01*
X124732353Y-118734754D01*
X124796080Y-118805529D01*
X124856282Y-118943556D01*
X124813988Y-119750571D01*
X125274031Y-119336347D01*
X125064941Y-118178979D02*
X125135718Y-118115252D01*
X125238357Y-118086913D01*
X125305608Y-118090437D01*
X125404722Y-118129350D01*
X125567564Y-118239038D01*
X125726881Y-118415977D01*
X125818946Y-118589392D01*
X125847285Y-118692031D01*
X125843761Y-118759282D01*
X125804848Y-118858397D01*
X125734072Y-118922124D01*
X125631433Y-118950463D01*
X125564182Y-118946938D01*
X125465068Y-118908026D01*
X125302226Y-118798338D01*
X125142909Y-118621398D01*
X125050844Y-118447984D01*
X125022505Y-118345345D01*
X125026029Y-118278094D01*
X125064941Y-118178979D01*
X130300714Y-124896270D02*
X130020816Y-125281517D01*
X129211799Y-124693731D01*
X130804530Y-124202827D02*
X130468653Y-124665123D01*
X130636591Y-124433975D02*
X129827574Y-123846190D01*
X129887168Y-124007208D01*
X129908238Y-124140237D01*
X129890783Y-124245276D01*
X131084428Y-123817581D02*
X131196387Y-123663483D01*
X131213842Y-123558443D01*
X131203307Y-123491929D01*
X131143713Y-123330910D01*
X131017604Y-123180427D01*
X130709407Y-122956508D01*
X130604368Y-122939053D01*
X130537854Y-122949588D01*
X130443350Y-122998648D01*
X130331390Y-123152747D01*
X130313935Y-123257786D01*
X130324470Y-123324300D01*
X130373529Y-123418804D01*
X130566152Y-123558753D01*
X130671191Y-123576208D01*
X130737706Y-123565673D01*
X130832210Y-123516614D01*
X130944170Y-123362515D01*
X130961625Y-123257476D01*
X130951089Y-123190961D01*
X130902030Y-123096457D01*
X136877344Y-128596145D02*
X136683660Y-129031167D01*
X135770114Y-128624431D01*
X137225976Y-127813106D02*
X136993554Y-128335132D01*
X137109765Y-128074120D02*
X136196219Y-127667383D01*
X136287989Y-127812492D01*
X136336256Y-127938233D01*
X136341022Y-128044606D01*
X136936370Y-127058659D02*
X136854131Y-127126295D01*
X136791260Y-127150429D01*
X136684888Y-127155194D01*
X136641386Y-127135826D01*
X136573750Y-127053587D01*
X136549616Y-126990716D01*
X136544851Y-126884344D01*
X136622325Y-126710334D01*
X136704564Y-126642699D01*
X136767434Y-126618565D01*
X136873807Y-126613800D01*
X136917309Y-126633168D01*
X136984945Y-126715407D01*
X137009079Y-126778277D01*
X137013844Y-126884650D01*
X136936370Y-127058659D01*
X136941135Y-127165032D01*
X136965269Y-127227903D01*
X137032906Y-127310142D01*
X137206914Y-127387615D01*
X137313287Y-127382850D01*
X137376157Y-127358716D01*
X137458396Y-127291080D01*
X137535870Y-127117071D01*
X137531105Y-127010698D01*
X137506971Y-126947828D01*
X137439335Y-126865589D01*
X137265327Y-126788115D01*
X137158953Y-126792880D01*
X137096083Y-126817014D01*
X137013844Y-126884650D01*
X144079504Y-130847810D02*
X143980498Y-131313595D01*
X143002351Y-131105684D01*
X144257714Y-130009398D02*
X144138907Y-130568340D01*
X144198310Y-130288869D02*
X143220163Y-130080958D01*
X143340097Y-130203816D01*
X143413453Y-130316774D01*
X143440230Y-130419831D01*
X143348870Y-129475437D02*
X143487478Y-128823339D01*
X144376521Y-129450457D01*
X151592428Y-131552856D02*
X151592428Y-132029047D01*
X150592428Y-132029047D01*
X151592428Y-130695713D02*
X151592428Y-131267142D01*
X151592428Y-130981428D02*
X150592428Y-130981428D01*
X150735285Y-131076666D01*
X150830523Y-131171904D01*
X150878142Y-131267142D01*
X150592428Y-129838570D02*
X150592428Y-130029047D01*
X150640047Y-130124285D01*
X150687666Y-130171904D01*
X150830523Y-130267142D01*
X151020999Y-130314761D01*
X151401952Y-130314761D01*
X151497190Y-130267142D01*
X151544809Y-130219523D01*
X151592428Y-130124285D01*
X151592428Y-129933808D01*
X151544809Y-129838570D01*
X151497190Y-129790951D01*
X151401952Y-129743332D01*
X151163857Y-129743332D01*
X151068618Y-129790951D01*
X151020999Y-129838570D01*
X150973380Y-129933808D01*
X150973380Y-130124285D01*
X151020999Y-130219523D01*
X151068618Y-130267142D01*
X151163857Y-130314761D01*
X157935458Y-129610963D02*
X157836452Y-129145178D01*
X158814600Y-128937266D01*
X158113668Y-130449376D02*
X157994861Y-129890434D01*
X158054265Y-130169904D02*
X159032412Y-129961993D01*
X158872876Y-129898537D01*
X158759918Y-129825182D01*
X158693539Y-129741925D01*
X159279926Y-131126455D02*
X159180921Y-130660670D01*
X158705236Y-130713097D01*
X158761715Y-130749775D01*
X158828095Y-130833031D01*
X158877597Y-131065924D01*
X158850820Y-131168981D01*
X158814142Y-131225460D01*
X158730885Y-131291840D01*
X158497993Y-131341343D01*
X158394936Y-131314565D01*
X158338457Y-131277887D01*
X158272077Y-131194631D01*
X158222574Y-130961738D01*
X158249352Y-130858681D01*
X158286029Y-130802202D01*
X164888442Y-127462222D02*
X164694758Y-127027200D01*
X165608303Y-126620463D01*
X165237073Y-128245261D02*
X165004652Y-127723235D01*
X165120863Y-127984247D02*
X166034408Y-127577511D01*
X165865165Y-127548612D01*
X165739424Y-127500344D01*
X165657185Y-127432708D01*
X166194735Y-128757142D02*
X165585705Y-129028300D01*
X166445910Y-128384683D02*
X165696535Y-128457699D01*
X165948325Y-129023228D01*
X176720629Y-119123821D02*
X176366750Y-118805187D01*
X177035881Y-118062043D01*
X177357611Y-119697362D02*
X176932956Y-119315001D01*
X177145283Y-119506181D02*
X177814414Y-118763036D01*
X177648048Y-118805473D01*
X177513546Y-118812522D01*
X177410907Y-118784183D01*
X178246117Y-119279899D02*
X178313368Y-119276375D01*
X178416007Y-119304714D01*
X178592947Y-119464031D01*
X178631859Y-119563146D01*
X178635384Y-119630397D01*
X178607045Y-119733036D01*
X178543318Y-119803811D01*
X178412340Y-119878111D01*
X177605325Y-119920405D01*
X178065368Y-120334629D01*
X181082711Y-113298590D02*
X180670318Y-113060494D01*
X181170318Y-112194469D01*
X181825019Y-113727161D02*
X181330147Y-113441447D01*
X181577582Y-113584304D02*
X182077582Y-112718279D01*
X181923675Y-112794377D01*
X181793578Y-112829237D01*
X181687290Y-112822857D01*
X182649805Y-114203352D02*
X182154933Y-113917637D01*
X182402368Y-114060494D02*
X182902368Y-113194469D01*
X182748461Y-113270568D01*
X182618364Y-113305427D01*
X182512076Y-113299048D01*
X184138336Y-106693727D02*
X183685452Y-106546576D01*
X183994469Y-105595520D01*
X184953528Y-106958599D02*
X184410066Y-106782018D01*
X184681797Y-106870308D02*
X184990814Y-105919252D01*
X184856092Y-106025687D01*
X184736085Y-106086833D01*
X184630793Y-106102691D01*
X185851293Y-106198838D02*
X185941871Y-106228269D01*
X186017733Y-106302987D01*
X186048306Y-106362991D01*
X186064164Y-106468283D01*
X186050592Y-106664151D01*
X185977016Y-106890594D01*
X185872868Y-107057032D01*
X185798149Y-107132894D01*
X185738146Y-107163467D01*
X185632854Y-107179325D01*
X185542276Y-107149895D01*
X185466415Y-107075176D01*
X185435841Y-107015173D01*
X185419983Y-106909881D01*
X185433555Y-106714013D01*
X185507131Y-106487570D01*
X185611280Y-106321132D01*
X185685998Y-106245270D01*
X185746002Y-106214697D01*
X185851293Y-106198838D01*
X186227541Y-99647671D02*
X185753959Y-99597896D01*
X185858487Y-98603374D01*
X186606406Y-99687492D02*
X186795839Y-99707402D01*
X186895534Y-99669999D01*
X186947869Y-99627618D01*
X187057518Y-99495499D01*
X187124787Y-99311044D01*
X187164607Y-98932178D01*
X187127204Y-98832484D01*
X187084823Y-98780148D01*
X186995085Y-98722835D01*
X186805651Y-98702925D01*
X186705957Y-98740328D01*
X186653622Y-98782709D01*
X186596308Y-98872447D01*
X186571421Y-99109238D01*
X186608824Y-99208932D01*
X186651204Y-99261269D01*
X186740943Y-99318582D01*
X186930377Y-99338492D01*
X187030070Y-99301089D01*
X187082406Y-99258707D01*
X187139719Y-99168969D01*
X186332553Y-92271443D02*
X185858970Y-92321219D01*
X185754442Y-91326697D01*
X186746403Y-91653369D02*
X186646710Y-91615966D01*
X186594374Y-91573585D01*
X186537061Y-91483847D01*
X186532083Y-91436489D01*
X186569486Y-91336795D01*
X186611867Y-91284459D01*
X186701606Y-91227146D01*
X186891039Y-91207236D01*
X186990733Y-91244639D01*
X187043069Y-91287019D01*
X187100382Y-91376758D01*
X187105359Y-91424116D01*
X187067956Y-91523810D01*
X187025576Y-91576146D01*
X186935837Y-91633459D01*
X186746403Y-91653369D01*
X186656665Y-91710682D01*
X186614284Y-91763018D01*
X186576881Y-91862713D01*
X186596791Y-92052145D01*
X186654105Y-92141884D01*
X186706440Y-92184265D01*
X186806134Y-92221668D01*
X186995568Y-92201757D01*
X187085306Y-92144444D01*
X187127687Y-92092109D01*
X187165090Y-91992415D01*
X187145180Y-91802982D01*
X187087867Y-91713242D01*
X187035531Y-91670862D01*
X186935837Y-91633459D01*
X184901665Y-85034570D02*
X184448780Y-85181721D01*
X184139763Y-84230664D01*
X184819089Y-84009938D02*
X185453127Y-83803926D01*
X185354548Y-84887419D01*
X177746729Y-72224121D02*
X177392850Y-72542755D01*
X176723720Y-71799610D01*
X177679192Y-70939299D02*
X177325313Y-71257933D01*
X177608559Y-71643674D01*
X177612083Y-71576423D01*
X177650995Y-71477309D01*
X177827935Y-71317991D01*
X177930574Y-71289652D01*
X177997825Y-71293177D01*
X178096940Y-71332090D01*
X178256257Y-71509029D01*
X178284596Y-71611668D01*
X178281071Y-71678919D01*
X178242159Y-71778034D01*
X178065219Y-71937351D01*
X177962580Y-71965690D01*
X177895329Y-71962165D01*
X172335388Y-67210425D02*
X172055490Y-67595671D01*
X171246473Y-67007886D01*
X172243880Y-66202173D02*
X172783225Y-66594030D01*
X171795734Y-66170879D02*
X172233655Y-66783349D01*
X172597522Y-66282528D01*
X165999890Y-63431370D02*
X165806206Y-63866392D01*
X164892661Y-63459655D01*
X165183187Y-62807123D02*
X165434976Y-62241594D01*
X165647414Y-62701057D01*
X165705520Y-62570550D01*
X165787759Y-62502914D01*
X165850629Y-62478780D01*
X165957003Y-62474015D01*
X166174513Y-62570857D01*
X166242149Y-62653096D01*
X166266283Y-62715967D01*
X166271048Y-62822339D01*
X166154838Y-63083353D01*
X166072599Y-63150989D01*
X166009728Y-63175123D01*
X159017130Y-61052122D02*
X158918124Y-61517907D01*
X157939976Y-61309996D01*
X158191542Y-60584541D02*
X158154864Y-60528062D01*
X158128087Y-60425005D01*
X158177590Y-60192112D01*
X158243969Y-60108856D01*
X158300448Y-60072178D01*
X158403506Y-60045400D01*
X158496662Y-60065201D01*
X158626497Y-60141482D01*
X159066632Y-60819230D01*
X159195340Y-60213710D01*
X171242736Y-123914828D02*
X170962838Y-123529581D01*
X171771855Y-122941796D01*
X171746552Y-124608271D02*
X171410675Y-124145975D01*
X171578613Y-124377123D02*
X172387630Y-123789337D01*
X172216077Y-123796257D01*
X172083048Y-123775188D01*
X171988544Y-123726128D01*
X172751497Y-124290158D02*
X173115365Y-124790978D01*
X172611239Y-124745223D01*
X172695209Y-124860798D01*
X172712664Y-124965837D01*
X172702129Y-125032351D01*
X172653069Y-125126856D01*
X172460446Y-125266804D01*
X172355407Y-125284259D01*
X172288893Y-125273724D01*
X172194389Y-125224665D01*
X172026450Y-124993517D01*
X172008995Y-124888478D01*
X172019530Y-124821963D01*
X181997415Y-78253338D02*
X181585021Y-78491434D01*
X181085021Y-77625409D01*
X182157244Y-77006361D02*
X181992286Y-77101599D01*
X181933617Y-77190457D01*
X181916187Y-77255506D01*
X181905137Y-77426843D01*
X181959136Y-77615609D01*
X182149612Y-77945524D01*
X182238470Y-78004193D01*
X182303519Y-78021623D01*
X182409807Y-78015243D01*
X182574765Y-77920005D01*
X182633434Y-77831147D01*
X182650864Y-77766098D01*
X182644484Y-77659810D01*
X182525437Y-77453614D01*
X182436578Y-77394944D01*
X182371529Y-77377514D01*
X182265241Y-77383894D01*
X182100283Y-77479132D01*
X182041614Y-77567990D01*
X182024184Y-77633039D01*
X182030565Y-77739328D01*
X151692381Y-60176666D02*
X151692381Y-60652857D01*
X150692381Y-60652857D01*
X151692381Y-59319523D02*
X151692381Y-59890952D01*
X151692381Y-59605238D02*
X150692381Y-59605238D01*
X150835238Y-59700476D01*
X150930476Y-59795714D01*
X150978095Y-59890952D01*
X143292281Y-60239518D02*
X143193275Y-59773733D01*
X144171423Y-59565821D01*
X144319931Y-60264499D02*
X144448639Y-60870019D01*
X144006707Y-60623173D01*
X144036409Y-60762910D01*
X144009632Y-60865967D01*
X143972954Y-60922446D01*
X143889697Y-60988826D01*
X143656805Y-61038328D01*
X143553747Y-61011551D01*
X143497268Y-60974873D01*
X143430889Y-60891617D01*
X143371485Y-60612146D01*
X143398263Y-60509088D01*
X143434941Y-60452609D01*
X144577346Y-61475538D02*
X144597147Y-61568696D01*
X144570370Y-61671753D01*
X144533692Y-61728232D01*
X144450436Y-61794612D01*
X144274023Y-61880793D01*
X144041130Y-61930295D01*
X143844915Y-61923319D01*
X143741858Y-61896542D01*
X143685379Y-61859864D01*
X143619000Y-61776608D01*
X143599198Y-61683450D01*
X143625976Y-61580393D01*
X143662653Y-61523914D01*
X143745910Y-61457534D01*
X143922323Y-61371354D01*
X144155216Y-61321851D01*
X144351430Y-61328827D01*
X144454487Y-61355604D01*
X144510966Y-61392282D01*
X144577346Y-61475538D01*
X151682381Y-75206666D02*
X151682381Y-75682857D01*
X150682381Y-75682857D01*
X151682381Y-74349523D02*
X151682381Y-74920952D01*
X151682381Y-74635238D02*
X150682381Y-74635238D01*
X150825238Y-74730476D01*
X150920476Y-74825714D01*
X150968095Y-74920952D01*
X157920839Y-76351306D02*
X157773688Y-76804191D01*
X156822632Y-76495174D01*
X157148650Y-75799989D02*
X157118077Y-75739986D01*
X157102218Y-75634694D01*
X157175794Y-75408251D01*
X157250513Y-75332390D01*
X157310516Y-75301816D01*
X157415808Y-75285958D01*
X157506385Y-75315388D01*
X157627535Y-75404822D01*
X157994415Y-76124864D01*
X158185711Y-75536115D01*
X163509082Y-79380579D02*
X163229184Y-79765825D01*
X162420167Y-79178040D01*
X162840014Y-78600170D02*
X163203881Y-78099350D01*
X163316149Y-78592941D01*
X163400119Y-78477366D01*
X163494623Y-78428307D01*
X163561137Y-78417772D01*
X163666177Y-78435228D01*
X163858800Y-78575176D01*
X163907859Y-78669680D01*
X163918394Y-78736195D01*
X163900939Y-78841234D01*
X163733000Y-79072382D01*
X163638496Y-79121441D01*
X163571982Y-79131976D01*
X167880005Y-83973788D02*
X167494759Y-84253686D01*
X166906973Y-83444669D01*
X168104542Y-82986606D02*
X168496399Y-83525951D01*
X167688001Y-82818359D02*
X167915225Y-83536177D01*
X168416045Y-83172310D01*
X170629183Y-89704747D02*
X170176298Y-89851898D01*
X169867281Y-88900841D01*
X171090069Y-88503533D02*
X170637184Y-88650684D01*
X170739047Y-89118283D01*
X170769620Y-89058280D01*
X170845482Y-88983561D01*
X171071924Y-88909985D01*
X171177216Y-88925844D01*
X171237220Y-88956417D01*
X171311938Y-89032280D01*
X171385514Y-89258721D01*
X171369656Y-89364013D01*
X171339082Y-89424017D01*
X171263221Y-89498735D01*
X171036778Y-89572311D01*
X170931486Y-89556453D01*
X170871483Y-89525879D01*
X171463334Y-95992381D02*
X170987143Y-95992381D01*
X170987143Y-94992381D01*
X172225239Y-94992381D02*
X172034762Y-94992381D01*
X171939524Y-95040000D01*
X171891905Y-95087619D01*
X171796667Y-95230476D01*
X171749048Y-95420952D01*
X171749048Y-95801905D01*
X171796667Y-95897143D01*
X171844286Y-95944762D01*
X171939524Y-95992381D01*
X172130001Y-95992381D01*
X172225239Y-95944762D01*
X172272858Y-95897143D01*
X172320477Y-95801905D01*
X172320477Y-95563810D01*
X172272858Y-95468571D01*
X172225239Y-95420952D01*
X172130001Y-95373333D01*
X171939524Y-95373333D01*
X171844286Y-95420952D01*
X171796667Y-95468571D01*
X171749048Y-95563810D01*
X170318694Y-102230839D02*
X169865809Y-102083688D01*
X170174826Y-101132632D01*
X170854153Y-101353358D02*
X171488191Y-101559370D01*
X170771577Y-102377990D01*
X167289421Y-107819082D02*
X166904175Y-107539184D01*
X167491960Y-106730167D01*
X168010545Y-107636684D02*
X167961485Y-107542180D01*
X167950951Y-107475665D01*
X167968405Y-107370626D01*
X167996395Y-107332102D01*
X168090899Y-107283042D01*
X168157414Y-107272508D01*
X168262453Y-107289963D01*
X168416552Y-107401922D01*
X168465611Y-107496426D01*
X168476146Y-107562941D01*
X168458691Y-107667979D01*
X168430701Y-107706504D01*
X168336197Y-107755563D01*
X168269683Y-107766098D01*
X168164644Y-107748643D01*
X168010545Y-107636684D01*
X167905506Y-107619229D01*
X167838992Y-107629764D01*
X167744487Y-107678824D01*
X167632528Y-107832922D01*
X167615073Y-107937961D01*
X167625608Y-108004475D01*
X167674667Y-108098980D01*
X167828766Y-108210939D01*
X167933805Y-108228394D01*
X168000320Y-108217859D01*
X168094824Y-108168800D01*
X168206783Y-108014701D01*
X168224238Y-107909662D01*
X168213703Y-107843147D01*
X168164644Y-107748643D01*
X162696212Y-112190005D02*
X162416314Y-111804759D01*
X163225331Y-111216973D01*
X162920130Y-112498202D02*
X163032089Y-112652300D01*
X163126594Y-112701360D01*
X163193108Y-112711895D01*
X163364661Y-112704975D01*
X163546750Y-112631541D01*
X163854947Y-112407622D01*
X163904006Y-112313118D01*
X163914541Y-112246604D01*
X163897086Y-112141565D01*
X163785127Y-111987466D01*
X163690623Y-111938406D01*
X163624108Y-111927872D01*
X163519069Y-111945326D01*
X163326447Y-112085275D01*
X163277387Y-112179779D01*
X163266851Y-112246294D01*
X163284306Y-112351333D01*
X163396266Y-112505432D01*
X163490770Y-112554492D01*
X163557285Y-112565026D01*
X163662324Y-112547571D01*
X156818102Y-114486298D02*
X156670951Y-114033414D01*
X157622008Y-113724397D01*
X157082974Y-115301490D02*
X156906393Y-114758028D01*
X156994683Y-115029758D02*
X157945740Y-114720741D01*
X157780445Y-114674310D01*
X157660438Y-114613163D01*
X157585719Y-114537302D01*
X158225327Y-115581221D02*
X158254757Y-115671799D01*
X158238899Y-115777091D01*
X158208326Y-115837094D01*
X158132464Y-115911813D01*
X157966026Y-116015961D01*
X157739583Y-116089537D01*
X157543714Y-116103109D01*
X157438423Y-116087251D01*
X157378419Y-116056678D01*
X157303701Y-115980816D01*
X157274270Y-115890238D01*
X157290128Y-115784946D01*
X157320702Y-115724943D01*
X157396563Y-115650224D01*
X157563002Y-115546076D01*
X157789444Y-115472500D01*
X157985313Y-115458928D01*
X158090605Y-115474786D01*
X158150608Y-115505360D01*
X158225327Y-115581221D01*
X151582381Y-116582857D02*
X151582381Y-117059048D01*
X150582381Y-117059048D01*
X151582381Y-115725714D02*
X151582381Y-116297143D01*
X151582381Y-116011429D02*
X150582381Y-116011429D01*
X150725238Y-116106667D01*
X150820476Y-116201905D01*
X150868095Y-116297143D01*
X151582381Y-114773333D02*
X151582381Y-115344762D01*
X151582381Y-115059048D02*
X150582381Y-115059048D01*
X150725238Y-115154286D01*
X150820476Y-115249524D01*
X150868095Y-115344762D01*
X145049484Y-115678183D02*
X144902333Y-116131067D01*
X143951277Y-115822050D01*
X145314356Y-114862991D02*
X145137775Y-115406453D01*
X145226065Y-115134722D02*
X144275009Y-114825705D01*
X144381444Y-114960427D01*
X144442590Y-115080434D01*
X144458448Y-115185726D01*
X144571597Y-114221098D02*
X144541023Y-114161094D01*
X144525165Y-114055802D01*
X144598741Y-113829360D01*
X144673460Y-113753498D01*
X144733463Y-113722925D01*
X144838755Y-113707066D01*
X144929331Y-113736497D01*
X145050481Y-113825930D01*
X145417361Y-114545973D01*
X145608658Y-113957223D01*
X139107060Y-112786145D02*
X138827162Y-113171392D01*
X138018145Y-112583606D01*
X139610876Y-112092702D02*
X139274999Y-112554998D01*
X139442937Y-112323850D02*
X138633920Y-111736065D01*
X138693514Y-111897083D01*
X138714584Y-112030112D01*
X138697129Y-112135151D01*
X138997787Y-111235245D02*
X139361655Y-110734424D01*
X139473922Y-111228015D01*
X139557892Y-111112440D01*
X139652396Y-111063381D01*
X139718911Y-111052846D01*
X139823950Y-111070302D01*
X140016573Y-111210250D01*
X140065633Y-111304755D01*
X140076168Y-111371269D01*
X140058713Y-111476308D01*
X139890774Y-111707456D01*
X139796269Y-111756515D01*
X139729755Y-111767050D01*
X134356883Y-108214006D02*
X133971636Y-108493904D01*
X133383851Y-107684887D01*
X135050326Y-107710190D02*
X134588030Y-108046067D01*
X134819178Y-107878129D02*
X134231392Y-107069112D01*
X134238312Y-107240665D01*
X134217243Y-107373694D01*
X134168183Y-107468198D01*
X135351912Y-106667029D02*
X135743769Y-107206374D01*
X134935370Y-106498781D02*
X135162594Y-107216600D01*
X135663415Y-106852732D01*
X131240502Y-102385890D02*
X130787618Y-102533041D01*
X130478601Y-101581984D01*
X132055694Y-102121018D02*
X131512232Y-102297599D01*
X131783962Y-102209309D02*
X131474945Y-101258252D01*
X131428514Y-101423547D01*
X131367367Y-101543554D01*
X131291506Y-101618273D01*
X132607156Y-100890375D02*
X132154272Y-101037526D01*
X132256134Y-101505124D01*
X132286707Y-101445121D01*
X132362569Y-101370402D01*
X132589012Y-101296827D01*
X132694304Y-101312685D01*
X132754307Y-101343258D01*
X132829026Y-101419121D01*
X132902601Y-101645563D01*
X132886743Y-101750854D01*
X132856170Y-101810858D01*
X132780308Y-101885576D01*
X132553865Y-101959152D01*
X132448574Y-101943294D01*
X132388570Y-101912721D01*
X130087143Y-95892381D02*
X129610952Y-95892381D01*
X129610952Y-94892381D01*
X130944286Y-95892381D02*
X130372857Y-95892381D01*
X130658571Y-95892381D02*
X130658571Y-94892381D01*
X130563333Y-95035238D01*
X130468095Y-95130476D01*
X130372857Y-95178095D01*
X131801429Y-94892381D02*
X131610952Y-94892381D01*
X131515714Y-94940000D01*
X131468095Y-94987619D01*
X131372857Y-95130476D01*
X131325238Y-95320952D01*
X131325238Y-95701905D01*
X131372857Y-95797143D01*
X131420476Y-95844762D01*
X131515714Y-95892381D01*
X131706191Y-95892381D01*
X131801429Y-95844762D01*
X131849048Y-95797143D01*
X131896667Y-95701905D01*
X131896667Y-95463810D01*
X131849048Y-95368571D01*
X131801429Y-95320952D01*
X131706191Y-95273333D01*
X131515714Y-95273333D01*
X131420476Y-95320952D01*
X131372857Y-95368571D01*
X131325238Y-95463810D01*
X130991817Y-89359484D02*
X130538933Y-89212333D01*
X130847950Y-88261277D01*
X131807009Y-89624356D02*
X131263547Y-89447775D01*
X131535278Y-89536065D02*
X131844295Y-88585009D01*
X131709573Y-88691444D01*
X131589566Y-88752590D01*
X131484274Y-88768448D01*
X132433044Y-88776305D02*
X133067082Y-88982316D01*
X132350469Y-89800937D01*
X133883855Y-83417060D02*
X133498608Y-83137162D01*
X134086394Y-82328145D01*
X134577298Y-83920876D02*
X134115002Y-83584999D01*
X134346150Y-83752937D02*
X134933935Y-82943920D01*
X134772917Y-83003514D01*
X134639888Y-83024584D01*
X134534849Y-83007129D01*
X135375471Y-83794457D02*
X135326411Y-83699953D01*
X135315876Y-83633439D01*
X135333331Y-83528400D01*
X135361321Y-83489875D01*
X135455825Y-83440816D01*
X135522339Y-83430281D01*
X135627378Y-83447736D01*
X135781477Y-83559696D01*
X135830537Y-83654200D01*
X135841072Y-83720714D01*
X135823617Y-83825753D01*
X135795627Y-83864277D01*
X135701123Y-83913337D01*
X135634609Y-83923872D01*
X135529570Y-83906417D01*
X135375471Y-83794457D01*
X135270432Y-83777002D01*
X135203917Y-83787537D01*
X135109413Y-83836597D01*
X134997454Y-83990696D01*
X134979999Y-84095735D01*
X134990534Y-84162249D01*
X135039593Y-84256753D01*
X135193692Y-84368713D01*
X135298731Y-84386168D01*
X135365245Y-84375633D01*
X135459750Y-84326573D01*
X135571709Y-84172475D01*
X135589164Y-84067435D01*
X135578629Y-84000921D01*
X135529570Y-83906417D01*
X138455994Y-78666883D02*
X138176096Y-78281636D01*
X138985113Y-77693851D01*
X138959810Y-79360326D02*
X138623933Y-78898030D01*
X138791871Y-79129178D02*
X139600888Y-78541392D01*
X139429335Y-78548312D01*
X139296306Y-78527243D01*
X139201802Y-78478183D01*
X139239708Y-79745572D02*
X139351667Y-79899670D01*
X139446171Y-79948730D01*
X139512686Y-79959265D01*
X139684239Y-79952345D01*
X139866327Y-79878911D01*
X140174524Y-79654992D01*
X140223584Y-79560488D01*
X140234119Y-79493974D01*
X140216664Y-79388935D01*
X140104704Y-79234836D01*
X140010200Y-79185776D01*
X139943686Y-79175241D01*
X139838647Y-79192696D01*
X139646024Y-79332645D01*
X139596965Y-79427149D01*
X139586429Y-79493664D01*
X139603884Y-79598703D01*
X139715843Y-79752802D01*
X139810347Y-79801861D01*
X139876863Y-79812396D01*
X139981902Y-79794941D01*
X144284110Y-75550502D02*
X144136959Y-75097618D01*
X145088016Y-74788601D01*
X145232881Y-75542645D02*
X145292884Y-75573219D01*
X145367603Y-75649080D01*
X145441178Y-75875523D01*
X145425320Y-75980815D01*
X145394747Y-76040818D01*
X145318885Y-76115537D01*
X145228308Y-76144967D01*
X145077728Y-76143824D01*
X144357686Y-75776944D01*
X144548982Y-76365694D01*
X145691335Y-76645425D02*
X145720765Y-76736003D01*
X145704907Y-76841295D01*
X145674334Y-76901298D01*
X145598472Y-76976017D01*
X145432034Y-77080165D01*
X145205591Y-77153741D01*
X145009722Y-77167313D01*
X144904431Y-77151455D01*
X144844427Y-77120882D01*
X144769709Y-77045020D01*
X144740278Y-76954442D01*
X144756136Y-76849150D01*
X144786710Y-76789147D01*
X144862571Y-76714428D01*
X145029010Y-76610280D01*
X145255452Y-76536704D01*
X145451321Y-76523132D01*
X145556613Y-76538990D01*
X145616616Y-76569564D01*
X145691335Y-76645425D01*
M02*
