G04 #@! TF.FileFunction,Legend,Bot*
%FSLAX46Y46*%
G04 Gerber Fmt 4.6, Leading zero omitted, Abs format (unit mm)*
G04 Created by KiCad (PCBNEW 4.0.1-stable) date 1/15/2016 5:52:31 PM*
%MOMM*%
G01*
G04 APERTURE LIST*
%ADD10C,0.100000*%
%ADD11C,0.500000*%
%ADD12C,0.300000*%
G04 APERTURE END LIST*
D10*
D11*
X153427143Y-135494286D02*
X152093810Y-135494286D01*
X151522381Y-137589524D02*
X153427143Y-137589524D01*
X153427143Y-133589524D01*
X151522381Y-133589524D01*
X150189047Y-137589524D02*
X148093809Y-134922857D01*
X150189047Y-134922857D02*
X148093809Y-137589524D01*
X145046191Y-137399048D02*
X145427143Y-137589524D01*
X146189048Y-137589524D01*
X146570000Y-137399048D01*
X146760476Y-137018095D01*
X146760476Y-135494286D01*
X146570000Y-135113333D01*
X146189048Y-134922857D01*
X145427143Y-134922857D01*
X145046191Y-135113333D01*
X144855714Y-135494286D01*
X144855714Y-135875238D01*
X146760476Y-136256190D01*
X142570000Y-137589524D02*
X142950953Y-137399048D01*
X143141429Y-137018095D01*
X143141429Y-133589524D01*
X140474762Y-137589524D02*
X140855715Y-137399048D01*
X141046191Y-137208571D01*
X141236667Y-136827619D01*
X141236667Y-135684762D01*
X141046191Y-135303810D01*
X140855715Y-135113333D01*
X140474762Y-134922857D01*
X139903334Y-134922857D01*
X139522382Y-135113333D01*
X139331905Y-135303810D01*
X139141429Y-135684762D01*
X139141429Y-136827619D01*
X139331905Y-137208571D01*
X139522382Y-137399048D01*
X139903334Y-137589524D01*
X140474762Y-137589524D01*
X137427143Y-134922857D02*
X137427143Y-137589524D01*
X137427143Y-135303810D02*
X137236667Y-135113333D01*
X136855714Y-134922857D01*
X136284286Y-134922857D01*
X135903334Y-135113333D01*
X135712857Y-135494286D01*
X135712857Y-137589524D01*
D12*
X115423374Y-115677636D02*
X115449519Y-115580063D01*
X115439949Y-115420630D01*
X115261378Y-115111335D01*
X115128090Y-115023332D01*
X115030516Y-114997187D01*
X114871084Y-115006757D01*
X114747367Y-115078186D01*
X114597504Y-115247187D01*
X114283768Y-116418066D01*
X113819483Y-115613900D01*
X114654235Y-114059734D02*
X114582807Y-113936016D01*
X114449519Y-113848013D01*
X114351945Y-113821868D01*
X114192513Y-113831437D01*
X113909363Y-113912436D01*
X113600068Y-114091007D01*
X113388347Y-114295723D01*
X113300344Y-114429010D01*
X113274199Y-114526584D01*
X113283769Y-114686016D01*
X113355197Y-114809734D01*
X113488484Y-114897738D01*
X113586058Y-114923882D01*
X113745490Y-114914312D01*
X114028640Y-114833315D01*
X114337935Y-114654743D01*
X114549656Y-114450027D01*
X114637660Y-114316740D01*
X114663805Y-114219166D01*
X114654235Y-114059734D01*
X112390912Y-113139542D02*
X112819483Y-113881850D01*
X112605197Y-113510696D02*
X113904235Y-112760696D01*
X113790087Y-112991556D01*
X113737798Y-113186704D01*
X113747367Y-113346136D01*
X113047093Y-111276081D02*
X113189950Y-111523517D01*
X113199519Y-111682949D01*
X113173374Y-111780523D01*
X113059226Y-112011383D01*
X112847505Y-112216100D01*
X112352633Y-112501814D01*
X112193201Y-112511383D01*
X112095628Y-112485239D01*
X111962340Y-112397235D01*
X111819483Y-112149799D01*
X111809913Y-111990367D01*
X111836058Y-111892793D01*
X111924062Y-111759507D01*
X112233357Y-111580935D01*
X112392789Y-111571365D01*
X112490362Y-111597510D01*
X112623649Y-111685514D01*
X112766506Y-111932949D01*
X112776076Y-112092382D01*
X112749932Y-112189955D01*
X112661928Y-112323243D01*
X169395502Y-122709437D02*
X169495274Y-122725240D01*
X169710620Y-122657072D01*
X169826193Y-122573103D01*
X169957569Y-122389363D01*
X169989174Y-122189819D01*
X169962992Y-122032261D01*
X169852840Y-121759128D01*
X169726886Y-121585768D01*
X169501160Y-121396604D01*
X169359404Y-121323015D01*
X169159860Y-121291411D01*
X168944515Y-121359577D01*
X168828942Y-121443547D01*
X168697566Y-121627288D01*
X168681763Y-121727060D01*
X168959389Y-123202873D02*
X168077711Y-121989348D01*
X168439307Y-123580735D02*
X167977476Y-122945079D01*
X167951294Y-122787520D01*
X168024883Y-122645764D01*
X168198243Y-122519810D01*
X168355802Y-122493628D01*
X168455574Y-122509431D01*
X167357158Y-124278672D02*
X167514716Y-124252489D01*
X167745863Y-124084551D01*
X167819453Y-123942795D01*
X167793271Y-123785237D01*
X167457393Y-123322941D01*
X167315637Y-123249352D01*
X167158078Y-123275534D01*
X166926931Y-123443472D01*
X166853342Y-123585229D01*
X166879524Y-123742788D01*
X166963493Y-123858361D01*
X167625332Y-123554088D01*
X166821273Y-124756305D02*
X166233487Y-123947288D01*
X166401427Y-124178437D02*
X166259671Y-124104847D01*
X166159899Y-124089045D01*
X166002340Y-124115227D01*
X165886766Y-124199196D01*
X166070043Y-125302106D02*
X165188365Y-124088580D01*
X165618592Y-124923780D02*
X165607748Y-125637983D01*
X165019963Y-124828966D02*
X165818135Y-124955385D01*
X164914304Y-126141799D02*
X164987894Y-126000043D01*
X165003696Y-125900271D01*
X164977514Y-125742713D01*
X164725606Y-125395992D01*
X164583850Y-125322403D01*
X164484078Y-125306600D01*
X164326519Y-125332782D01*
X164153159Y-125458736D01*
X164079570Y-125600492D01*
X164063767Y-125700265D01*
X164089949Y-125857823D01*
X164341857Y-126204544D01*
X164483614Y-126278133D01*
X164583386Y-126293936D01*
X164740944Y-126267753D01*
X164914304Y-126141799D01*
X163575289Y-125878583D02*
X163112993Y-126214460D01*
X163989713Y-126813554D02*
X163233990Y-125773389D01*
X163092234Y-125699800D01*
X162934674Y-125725982D01*
X162819101Y-125809952D01*
X163312073Y-127217598D02*
X163238484Y-127359354D01*
X163007335Y-127527293D01*
X162849777Y-127553476D01*
X162708021Y-127479887D01*
X162666037Y-127422099D01*
X162639854Y-127264541D01*
X162713443Y-127122785D01*
X162886804Y-126996831D01*
X162960393Y-126855075D01*
X162934211Y-126697516D01*
X162892226Y-126639729D01*
X162750470Y-126566140D01*
X162592911Y-126592322D01*
X162419550Y-126718276D01*
X162345961Y-126860033D01*
X162313892Y-128031109D02*
X161432214Y-126817584D01*
X161862441Y-127652784D02*
X161851597Y-128366986D01*
X161263812Y-127557969D02*
X162061984Y-127684388D01*
X160859302Y-127851862D02*
X161158153Y-128870803D01*
X160281434Y-128271709D02*
X161158153Y-128870803D01*
X161483651Y-129075768D01*
X161583422Y-129091571D01*
X161740980Y-129065388D01*
X175223553Y-116229338D02*
X175147911Y-116442173D01*
X174928032Y-116723605D01*
X174783794Y-116792203D01*
X174683531Y-116804514D01*
X174526983Y-116772848D01*
X174414410Y-116684897D01*
X174345813Y-116540659D01*
X174333502Y-116440396D01*
X174365168Y-116283848D01*
X174484784Y-116014726D01*
X174516450Y-115858177D01*
X174504139Y-115757915D01*
X174435542Y-115613676D01*
X174322969Y-115525725D01*
X174166420Y-115494060D01*
X174066158Y-115506370D01*
X173921919Y-115574968D01*
X173702040Y-115856399D01*
X173626400Y-116069235D01*
X173904278Y-117917932D02*
X174048516Y-117849335D01*
X174224419Y-117624189D01*
X174256085Y-117467640D01*
X174243774Y-117367378D01*
X174175177Y-117223140D01*
X173837458Y-116959285D01*
X173680909Y-116927620D01*
X173580647Y-116939930D01*
X173436408Y-117008528D01*
X173260505Y-117233673D01*
X173228840Y-117390222D01*
X173432854Y-118637346D02*
X173464520Y-118480796D01*
X173452209Y-118380534D01*
X173383612Y-118236296D01*
X173045894Y-117972441D01*
X172889345Y-117940777D01*
X172789083Y-117953087D01*
X172644844Y-118021684D01*
X172512917Y-118190543D01*
X172481252Y-118347092D01*
X172493563Y-118447355D01*
X172562159Y-118591593D01*
X172899878Y-118855448D01*
X173056427Y-118887113D01*
X173156690Y-118874802D01*
X173300927Y-118806204D01*
X173432854Y-118637346D01*
X172073158Y-118753408D02*
X171721351Y-119203700D01*
X171547225Y-118614437D02*
X172560382Y-119406002D01*
X172628980Y-119550240D01*
X172597314Y-119706789D01*
X172509362Y-119819362D01*
X171545448Y-119428846D02*
X171193641Y-119879138D01*
X171019515Y-119289875D02*
X172032672Y-120081440D01*
X172101270Y-120225678D01*
X172069604Y-120382227D01*
X171981652Y-120494800D01*
X120637012Y-123740027D02*
X121502394Y-123633649D01*
X121210553Y-124377008D02*
X122325270Y-123373313D01*
X121942910Y-122948659D01*
X121794237Y-122890290D01*
X121693360Y-122885004D01*
X121539402Y-122927512D01*
X121380157Y-123070896D01*
X121321788Y-123219569D01*
X121316501Y-123320445D01*
X121359010Y-123474405D01*
X121741370Y-123899058D01*
X119877578Y-122789843D02*
X119920087Y-122943801D01*
X120111267Y-123156128D01*
X120259938Y-123214497D01*
X120413897Y-123171989D01*
X120838551Y-122789628D01*
X120896919Y-122640956D01*
X120854411Y-122486997D01*
X120663232Y-122274670D01*
X120514559Y-122216302D01*
X120360601Y-122258810D01*
X120254437Y-122354400D01*
X120626224Y-122980808D01*
X120185281Y-121743852D02*
X119203161Y-122147574D01*
X119707331Y-121213035D01*
X118687989Y-121361921D02*
X118587112Y-121356635D01*
X118581825Y-121457511D01*
X118682702Y-121462799D01*
X118687989Y-121361921D01*
X118581825Y-121457511D01*
X119271888Y-120836176D02*
X119171011Y-120830890D01*
X119165725Y-120931766D01*
X119266601Y-120937053D01*
X119271888Y-120836176D01*
X119165725Y-120931766D01*
X116813409Y-119493486D02*
X117386950Y-120130467D01*
X117100179Y-119811976D02*
X118214896Y-118808280D01*
X118151241Y-119057829D01*
X118140668Y-119259583D01*
X118183176Y-119413542D01*
X116749539Y-118782062D02*
X116271589Y-118251244D01*
X116526639Y-119174995D02*
X117306791Y-117799727D01*
X115857508Y-118431851D01*
X127443246Y-128222660D02*
X128233401Y-127854071D01*
X128185554Y-128651231D02*
X128935554Y-127352193D01*
X128440683Y-127066479D01*
X128281250Y-127056909D01*
X128183677Y-127083055D01*
X128050389Y-127171058D01*
X127943246Y-127356634D01*
X127933677Y-127516067D01*
X127959821Y-127613640D01*
X128047825Y-127746928D01*
X128542696Y-128032642D01*
X126886516Y-127901231D02*
X127386516Y-127035206D01*
X127636516Y-126602193D02*
X127662661Y-126699767D01*
X127565087Y-126725912D01*
X127538943Y-126628338D01*
X127636516Y-126602193D01*
X127565087Y-126725912D01*
X126767926Y-126678063D02*
X126267926Y-127544088D01*
X126696497Y-126801781D02*
X126670353Y-126704208D01*
X126582349Y-126570920D01*
X126396773Y-126463777D01*
X126237340Y-126454208D01*
X126104052Y-126542211D01*
X125711195Y-127222660D01*
X125035875Y-125678063D02*
X124428732Y-126729665D01*
X124419163Y-126889098D01*
X124445307Y-126986671D01*
X124533311Y-127119958D01*
X124718888Y-127227101D01*
X124878320Y-127236671D01*
X124571589Y-126482230D02*
X124659593Y-126615517D01*
X124907029Y-126758374D01*
X125066461Y-126767944D01*
X125164034Y-126741799D01*
X125297322Y-126653796D01*
X125511607Y-126282642D01*
X125521177Y-126123210D01*
X125495033Y-126025637D01*
X125407029Y-125892348D01*
X125159593Y-125749491D01*
X125000161Y-125739922D01*
X139515150Y-130852823D02*
X138711961Y-132169044D01*
X138771321Y-131061765D01*
X138168501Y-131992463D01*
X138292363Y-130455515D01*
X137375382Y-131659659D02*
X137149512Y-131661374D01*
X136809848Y-131551010D01*
X136696056Y-131438933D01*
X136650196Y-131348927D01*
X136626409Y-131190990D01*
X136670554Y-131055125D01*
X136782631Y-130941332D01*
X136872637Y-130895472D01*
X137030575Y-130871685D01*
X137324378Y-130892042D01*
X137482316Y-130868256D01*
X137572321Y-130822395D01*
X137684399Y-130708603D01*
X137728544Y-130572738D01*
X137704757Y-130414800D01*
X137658897Y-130324795D01*
X137545104Y-130212716D01*
X137205442Y-130102353D01*
X136979571Y-130104068D01*
X136414038Y-129995420D02*
X136368178Y-129905414D01*
X136254385Y-129793336D01*
X135914722Y-129682973D01*
X135756784Y-129706761D01*
X135666779Y-129752621D01*
X135554701Y-129866413D01*
X135510556Y-130002278D01*
X135512270Y-130228149D01*
X136062590Y-131308211D01*
X135179467Y-131021267D01*
X134629147Y-129941205D02*
X134787085Y-129917417D01*
X134877090Y-129871557D01*
X134989168Y-129757764D01*
X135011241Y-129689832D01*
X134987453Y-129531895D01*
X134941594Y-129441889D01*
X134827801Y-129329811D01*
X134556070Y-129241520D01*
X134398133Y-129265308D01*
X134308127Y-129311168D01*
X134196049Y-129424961D01*
X134173977Y-129492893D01*
X134197764Y-129650830D01*
X134243624Y-129740836D01*
X134357416Y-129852914D01*
X134629147Y-129941205D01*
X134742940Y-130053282D01*
X134788799Y-130143288D01*
X134812587Y-130301226D01*
X134724297Y-130572956D01*
X134612218Y-130686748D01*
X134522214Y-130732609D01*
X134364275Y-130756395D01*
X134092545Y-130668105D01*
X133978752Y-130556028D01*
X133932892Y-130466022D01*
X133909105Y-130308084D01*
X133997396Y-130036354D01*
X134109473Y-129922561D01*
X134199479Y-129876701D01*
X134357416Y-129852914D01*
X132462163Y-130138362D02*
X133277354Y-130403233D01*
X132869758Y-130270797D02*
X133333284Y-128844213D01*
X133402931Y-129092156D01*
X133494652Y-129272167D01*
X133608444Y-129384245D01*
X132338083Y-128671062D02*
X132292222Y-128581056D01*
X132178430Y-128468978D01*
X131838767Y-128358615D01*
X131680829Y-128382402D01*
X131590823Y-128428263D01*
X131478746Y-128542055D01*
X131434601Y-128677920D01*
X131436315Y-128903791D01*
X131986635Y-129983853D01*
X131103511Y-129696909D01*
X130259389Y-128596488D02*
X130033518Y-128598203D01*
X129943513Y-128644063D01*
X129831435Y-128757855D01*
X129765217Y-128961653D01*
X129789005Y-129119591D01*
X129834864Y-129209597D01*
X129948658Y-129321674D01*
X130492118Y-129498255D01*
X130955643Y-128071670D01*
X130480115Y-127917162D01*
X130322177Y-127940950D01*
X130232172Y-127986810D01*
X130120094Y-128100603D01*
X130075949Y-128236468D01*
X130099736Y-128394405D01*
X130145596Y-128484411D01*
X130259389Y-128596488D01*
X130734917Y-128750997D01*
X149905713Y-130918571D02*
X148977142Y-130918571D01*
X149477142Y-131490000D01*
X149262856Y-131490000D01*
X149119999Y-131561429D01*
X149048570Y-131632857D01*
X148977142Y-131775714D01*
X148977142Y-132132857D01*
X149048570Y-132275714D01*
X149119999Y-132347143D01*
X149262856Y-132418571D01*
X149691428Y-132418571D01*
X149834285Y-132347143D01*
X149905713Y-132275714D01*
X148048571Y-130918571D02*
X147905714Y-130918571D01*
X147762857Y-130990000D01*
X147691428Y-131061429D01*
X147619999Y-131204286D01*
X147548571Y-131490000D01*
X147548571Y-131847143D01*
X147619999Y-132132857D01*
X147691428Y-132275714D01*
X147762857Y-132347143D01*
X147905714Y-132418571D01*
X148048571Y-132418571D01*
X148191428Y-132347143D01*
X148262857Y-132275714D01*
X148334285Y-132132857D01*
X148405714Y-131847143D01*
X148405714Y-131490000D01*
X148334285Y-131204286D01*
X148262857Y-131061429D01*
X148191428Y-130990000D01*
X148048571Y-130918571D01*
X145762857Y-132418571D02*
X145762857Y-130918571D01*
X145191429Y-130918571D01*
X145048571Y-130990000D01*
X144977143Y-131061429D01*
X144905714Y-131204286D01*
X144905714Y-131418571D01*
X144977143Y-131561429D01*
X145048571Y-131632857D01*
X145191429Y-131704286D01*
X145762857Y-131704286D01*
X144262857Y-132418571D02*
X144262857Y-131418571D01*
X144262857Y-130918571D02*
X144334286Y-130990000D01*
X144262857Y-131061429D01*
X144191429Y-130990000D01*
X144262857Y-130918571D01*
X144262857Y-131061429D01*
X143691428Y-132418571D02*
X142905714Y-131418571D01*
X143691428Y-131418571D02*
X142905714Y-132418571D01*
X141762857Y-132347143D02*
X141905714Y-132418571D01*
X142191428Y-132418571D01*
X142334285Y-132347143D01*
X142405714Y-132204286D01*
X142405714Y-131632857D01*
X142334285Y-131490000D01*
X142191428Y-131418571D01*
X141905714Y-131418571D01*
X141762857Y-131490000D01*
X141691428Y-131632857D01*
X141691428Y-131775714D01*
X142405714Y-131918571D01*
X140834285Y-132418571D02*
X140977143Y-132347143D01*
X141048571Y-132204286D01*
X141048571Y-130918571D01*
M02*
