G04 #@! TF.FileFunction,Legend,Top*
%FSLAX46Y46*%
G04 Gerber Fmt 4.6, Leading zero omitted, Abs format (unit mm)*
G04 Created by KiCad (PCBNEW 4.0.1-stable) date 1/15/2016 5:52:31 PM*
%MOMM*%
G01*
G04 APERTURE LIST*
%ADD10C,0.100000*%
%ADD11C,0.150000*%
G04 APERTURE END LIST*
D10*
D11*
X131655530Y-57219041D02*
X132368823Y-56987279D01*
X132424005Y-57157111D01*
X132423148Y-57270046D01*
X132377287Y-57360051D01*
X132320392Y-57416090D01*
X132195563Y-57494202D01*
X132093664Y-57527311D01*
X131946762Y-57537490D01*
X131867793Y-57525596D01*
X131777788Y-57479736D01*
X131710712Y-57388874D01*
X131655530Y-57219041D01*
X132644731Y-57836437D02*
X132688876Y-57972302D01*
X132676983Y-58051271D01*
X132631123Y-58141276D01*
X132506294Y-58219388D01*
X132268530Y-58296642D01*
X132121628Y-58306821D01*
X132031623Y-58260961D01*
X131975584Y-58204065D01*
X131931439Y-58068200D01*
X131943333Y-57989230D01*
X131989192Y-57899225D01*
X132114021Y-57821114D01*
X132351785Y-57743859D01*
X132498687Y-57733680D01*
X132588692Y-57779540D01*
X132644731Y-57836437D01*
X132843385Y-58447830D02*
X132265957Y-58635447D01*
X132209062Y-58691486D01*
X132186132Y-58736489D01*
X132174238Y-58815458D01*
X132218383Y-58951323D01*
X132274422Y-59008219D01*
X132319425Y-59031150D01*
X132398393Y-59043043D01*
X132975821Y-58855426D01*
X133053075Y-59093190D02*
X133185511Y-59500785D01*
X132406000Y-59528750D02*
X133119293Y-59296987D01*
X140032310Y-56371814D02*
X140778201Y-56293418D01*
X140796867Y-56471012D01*
X140772548Y-56581301D01*
X140708977Y-56659804D01*
X140641673Y-56702790D01*
X140503332Y-56753241D01*
X140396776Y-56764440D01*
X140250968Y-56743854D01*
X140176197Y-56715801D01*
X140097694Y-56652231D01*
X140050976Y-56549408D01*
X140032310Y-56371814D01*
X140110706Y-57117706D02*
X140856598Y-57039310D01*
X140148038Y-57472892D02*
X140893929Y-57394496D01*
X140192836Y-57899117D01*
X140938727Y-57820720D01*
X104410000Y-96269286D02*
X104410000Y-95519286D01*
X104695715Y-95519286D01*
X104767143Y-95555000D01*
X104802858Y-95590714D01*
X104838572Y-95662143D01*
X104838572Y-95769286D01*
X104802858Y-95840714D01*
X104767143Y-95876429D01*
X104695715Y-95912143D01*
X104410000Y-95912143D01*
X105088572Y-95519286D02*
X105267143Y-96269286D01*
X105410000Y-95733571D01*
X105552858Y-96269286D01*
X105731429Y-95519286D01*
X106445715Y-96269286D02*
X106195715Y-95912143D01*
X106017143Y-96269286D02*
X106017143Y-95519286D01*
X106302858Y-95519286D01*
X106374286Y-95555000D01*
X106410001Y-95590714D01*
X106445715Y-95662143D01*
X106445715Y-95769286D01*
X106410001Y-95840714D01*
X106374286Y-95876429D01*
X106302858Y-95912143D01*
X106017143Y-95912143D01*
X105553092Y-103832001D02*
X105475799Y-103811919D01*
X105370997Y-103834195D01*
X105273621Y-103891405D01*
X105218605Y-103976124D01*
X105198521Y-104053416D01*
X105193289Y-104200577D01*
X105215565Y-104305378D01*
X105280200Y-104437688D01*
X105329986Y-104500131D01*
X105414704Y-104555147D01*
X105526931Y-104567806D01*
X105596799Y-104552955D01*
X105694175Y-104495744D01*
X105721683Y-104453385D01*
X105669705Y-104208848D01*
X105529970Y-104238550D01*
X106050938Y-104456424D02*
X105895004Y-103722814D01*
X106470145Y-104367319D01*
X106314211Y-103633709D01*
X106819482Y-104293065D02*
X106663549Y-103559455D01*
X106838218Y-103522327D01*
X106950445Y-103534985D01*
X107035164Y-103590002D01*
X107084949Y-103652444D01*
X107149584Y-103784753D01*
X107171860Y-103889555D01*
X107166628Y-104036716D01*
X107146545Y-104114009D01*
X107091528Y-104198727D01*
X106994152Y-104255938D01*
X106819482Y-104293065D01*
X182163092Y-87572001D02*
X182085799Y-87551919D01*
X181980997Y-87574195D01*
X181883621Y-87631405D01*
X181828605Y-87716124D01*
X181808521Y-87793416D01*
X181803289Y-87940577D01*
X181825565Y-88045378D01*
X181890200Y-88177688D01*
X181939986Y-88240131D01*
X182024704Y-88295147D01*
X182136931Y-88307806D01*
X182206799Y-88292955D01*
X182304175Y-88235744D01*
X182331683Y-88193385D01*
X182279705Y-87948848D01*
X182139970Y-87978550D01*
X182660938Y-88196424D02*
X182505004Y-87462814D01*
X183080145Y-88107319D01*
X182924211Y-87373709D01*
X183429482Y-88033065D02*
X183273549Y-87299455D01*
X183448218Y-87262327D01*
X183560445Y-87274985D01*
X183645164Y-87330002D01*
X183694949Y-87392444D01*
X183759584Y-87524753D01*
X183781860Y-87629555D01*
X183776628Y-87776716D01*
X183756545Y-87854009D01*
X183701528Y-87938727D01*
X183604152Y-87995938D01*
X183429482Y-88033065D01*
X179674455Y-80776690D02*
X179369402Y-80091531D01*
X179630416Y-79975320D01*
X179710195Y-79978894D01*
X179757348Y-79996994D01*
X179819027Y-80047721D01*
X179862606Y-80145601D01*
X179859032Y-80225380D01*
X179840932Y-80272534D01*
X179790205Y-80334213D01*
X179529191Y-80450423D01*
X179989308Y-79815531D02*
X180457494Y-80428058D01*
X180370105Y-79880553D01*
X180718507Y-80311848D01*
X180576588Y-79554057D01*
X181534173Y-79948690D02*
X181160523Y-79724108D01*
X181142653Y-80123006D02*
X180837600Y-79437847D01*
X181098614Y-79321636D01*
X181178393Y-79325210D01*
X181225546Y-79343310D01*
X181287225Y-79394037D01*
X181330804Y-79491917D01*
X181327230Y-79571696D01*
X181309130Y-79618850D01*
X181258403Y-79680529D01*
X180997390Y-79796740D01*
X116732847Y-99909899D02*
X116630787Y-99879542D01*
X116490100Y-99904349D01*
X116357681Y-99976051D01*
X116280428Y-100086380D01*
X116250071Y-100188440D01*
X116236251Y-100384291D01*
X116261058Y-100524979D01*
X116341029Y-100704292D01*
X116404463Y-100789815D01*
X116514792Y-100867068D01*
X116663748Y-100889156D01*
X116757539Y-100872618D01*
X116889957Y-100800916D01*
X116928584Y-100745751D01*
X116870701Y-100417483D01*
X116683119Y-100450558D01*
X117367182Y-100765122D02*
X117193534Y-99780314D01*
X117929929Y-100665894D01*
X117756281Y-99681087D01*
X118398885Y-100583205D02*
X118225237Y-99598397D01*
X118459715Y-99557052D01*
X118608671Y-99579141D01*
X118719000Y-99656394D01*
X118782434Y-99741916D01*
X118862405Y-99921230D01*
X118887212Y-100061917D01*
X118873392Y-100257768D01*
X118843035Y-100359829D01*
X118765782Y-100470158D01*
X118633363Y-100541860D01*
X118398885Y-100583205D01*
X115852313Y-91994452D02*
X115939469Y-90998257D01*
X116318972Y-91031459D01*
X116409698Y-91087198D01*
X116452985Y-91138786D01*
X116492122Y-91237812D01*
X116479672Y-91380125D01*
X116423933Y-91470850D01*
X116372345Y-91514138D01*
X116273319Y-91553275D01*
X115893816Y-91520073D01*
X116840788Y-91077112D02*
X116990821Y-92094058D01*
X117242828Y-91399092D01*
X117370325Y-92127261D01*
X117694669Y-91151817D01*
X118556270Y-92231018D02*
X118265708Y-91727587D01*
X117987016Y-92181214D02*
X118074172Y-91185020D01*
X118453675Y-91218222D01*
X118544400Y-91273960D01*
X118587688Y-91325548D01*
X118626825Y-91424574D01*
X118614374Y-91566887D01*
X118558636Y-91657613D01*
X118507048Y-91700900D01*
X118408022Y-91740038D01*
X118028519Y-91706835D01*
X169215055Y-107699567D02*
X169141847Y-107622247D01*
X169007605Y-107573387D01*
X168857076Y-107569274D01*
X168735008Y-107626195D01*
X168657687Y-107699402D01*
X168547794Y-107862105D01*
X168498933Y-107996347D01*
X168478534Y-108191623D01*
X168490708Y-108297404D01*
X168547629Y-108419472D01*
X168665585Y-108513079D01*
X168755079Y-108545653D01*
X168905608Y-108549765D01*
X168966642Y-108521305D01*
X169080648Y-108208074D01*
X168901659Y-108142928D01*
X169336793Y-108757379D02*
X169678813Y-107817687D01*
X169873761Y-108952819D01*
X170215781Y-108013127D01*
X170321233Y-109115686D02*
X170663253Y-108175993D01*
X170886989Y-108257427D01*
X171004945Y-108351034D01*
X171061866Y-108473102D01*
X171074040Y-108578883D01*
X171053641Y-108774159D01*
X171004781Y-108908401D01*
X170894887Y-109071103D01*
X170817566Y-109144311D01*
X170695498Y-109201232D01*
X170544969Y-109197119D01*
X170321233Y-109115686D01*
X170768368Y-100443977D02*
X170942016Y-99459170D01*
X171317182Y-99525322D01*
X171402704Y-99588755D01*
X171441331Y-99643919D01*
X171471688Y-99745980D01*
X171446881Y-99886666D01*
X171383448Y-99972188D01*
X171328283Y-100010815D01*
X171226223Y-100041173D01*
X170851058Y-99975021D01*
X171833033Y-99616280D02*
X171893863Y-100642433D01*
X172205480Y-99972074D01*
X172269028Y-100708584D01*
X172677154Y-99765121D01*
X173441418Y-100915308D02*
X173195838Y-100388469D01*
X172878670Y-100816081D02*
X173052319Y-99831273D01*
X173427484Y-99897425D01*
X173513006Y-99960858D01*
X173551633Y-100016023D01*
X173581990Y-100118083D01*
X173557184Y-100258769D01*
X173493750Y-100344292D01*
X173438586Y-100382918D01*
X173336526Y-100413276D01*
X172961360Y-100347124D01*
X148795450Y-68255594D02*
X149780258Y-68429242D01*
X148712761Y-68724549D02*
X149697568Y-68898197D01*
X148613533Y-69287297D01*
X149598341Y-69460945D01*
X132373693Y-70172258D02*
X132454192Y-70344889D01*
X132451284Y-70451329D01*
X132405218Y-70577893D01*
X132252713Y-70701549D01*
X131950610Y-70842422D01*
X131757855Y-70879763D01*
X131631291Y-70833698D01*
X131547884Y-70767507D01*
X131467385Y-70594877D01*
X131470293Y-70488437D01*
X131516359Y-70361873D01*
X131668864Y-70238217D01*
X131970968Y-70097344D01*
X132163722Y-70060003D01*
X132290286Y-70106068D01*
X132373693Y-70172258D01*
X132735937Y-70949094D02*
X132002259Y-71291213D01*
X131936069Y-71374620D01*
X131913036Y-71437902D01*
X131910128Y-71544342D01*
X131990627Y-71716973D01*
X132074034Y-71783163D01*
X132137316Y-71806196D01*
X132243756Y-71809104D01*
X132977434Y-71466984D01*
X133118306Y-71769087D02*
X133359803Y-72286977D01*
X132332746Y-72450650D02*
X133239054Y-72028031D01*
X171800083Y-120151378D02*
X171331691Y-120671579D01*
X170439917Y-119868622D02*
X170908309Y-119348421D01*
X151852395Y-60170342D02*
X152537099Y-60315881D01*
X152287605Y-61489658D02*
X151602901Y-61344119D01*
X158974301Y-62379515D02*
X159613783Y-62664231D01*
X159125699Y-63760485D02*
X158486217Y-63475769D01*
X165489515Y-66008865D02*
X166055827Y-66420315D01*
X165350485Y-67391135D02*
X164784173Y-66979685D01*
X171391691Y-71128421D02*
X171860083Y-71648622D01*
X170968309Y-72451579D02*
X170499917Y-71931378D01*
X176034615Y-77446891D02*
X176384615Y-78053109D01*
X175345385Y-78653109D02*
X174995385Y-78046891D01*
X179182478Y-84401720D02*
X179398790Y-85067460D01*
X178257522Y-85438280D02*
X178041210Y-84772540D01*
X180850128Y-91829200D02*
X180923298Y-92525366D01*
X179729872Y-92650800D02*
X179656702Y-91954634D01*
X180973298Y-99334634D02*
X180900128Y-100030800D01*
X179706702Y-99905366D02*
X179779872Y-99209200D01*
X179458790Y-106732540D02*
X179242478Y-107398280D01*
X178101210Y-107027460D02*
X178317522Y-106361720D01*
X176344615Y-113976891D02*
X175994615Y-114583109D01*
X174955385Y-113983109D02*
X175305385Y-113376891D01*
X166445827Y-125149685D02*
X165879515Y-125561135D01*
X165174173Y-124590315D02*
X165740485Y-124178865D01*
X159833783Y-129075769D02*
X159194301Y-129360485D01*
X158706217Y-128264231D02*
X159345699Y-127979515D01*
X152587099Y-131584119D02*
X151902395Y-131729658D01*
X151652901Y-130555881D02*
X152337605Y-130410342D01*
X145100000Y-132460000D02*
X144400000Y-132460000D01*
X144400000Y-131260000D02*
X145100000Y-131260000D01*
X137367605Y-131729658D02*
X136682901Y-131584119D01*
X136932395Y-130410342D02*
X137617099Y-130555881D01*
X130175699Y-129470485D02*
X129536217Y-129185769D01*
X130024301Y-128089515D02*
X130663783Y-128374231D01*
X123390485Y-125561135D02*
X122824173Y-125149685D01*
X123529515Y-124178865D02*
X124095827Y-124590315D01*
X117818309Y-120561579D02*
X117349917Y-120041378D01*
X118241691Y-119238421D02*
X118710083Y-119758622D01*
X113215385Y-114633109D02*
X112865385Y-114026891D01*
X113904615Y-113426891D02*
X114254615Y-114033109D01*
X110087522Y-107508280D02*
X109871210Y-106842540D01*
X111012478Y-106471720D02*
X111228790Y-107137460D01*
X108419872Y-100190800D02*
X108346702Y-99494634D01*
X109540128Y-99369200D02*
X109613298Y-100065366D01*
X108296702Y-92415366D02*
X108369872Y-91719200D01*
X109563298Y-91844634D02*
X109490128Y-92540800D01*
X109761210Y-84957460D02*
X109977522Y-84291720D01*
X111118790Y-84662540D02*
X110902478Y-85328280D01*
X112815385Y-77993109D02*
X113165385Y-77386891D01*
X114204615Y-77986891D02*
X113854615Y-78593109D01*
X117189917Y-71648622D02*
X117658309Y-71128421D01*
X118550083Y-71931378D02*
X118081691Y-72451579D01*
X122874173Y-66590315D02*
X123440485Y-66178865D01*
X124145827Y-67149685D02*
X123579515Y-67561135D01*
X129426217Y-62834231D02*
X130065699Y-62549515D01*
X130553783Y-63645769D02*
X129914301Y-63930485D01*
X136732901Y-60315881D02*
X137417605Y-60170342D01*
X137667099Y-61344119D02*
X136982395Y-61489658D01*
X109410000Y-95990000D02*
G75*
G03X109410000Y-95990000I-1000000J0D01*
G01*
X141780000Y-59760000D02*
G75*
G03X141780000Y-59760000I-1000000J0D01*
G01*
X110100000Y-103440000D02*
G75*
G03X110100000Y-103440000I-1000000J0D01*
G01*
X178830000Y-81210000D02*
G75*
G03X178830000Y-81210000I-1000000J0D01*
G01*
X181200000Y-88430000D02*
G75*
G03X181200000Y-88430000I-1000000J0D01*
G01*
X134430000Y-61300000D02*
G75*
G03X134430000Y-61300000I-1000000J0D01*
G01*
X145080000Y-60835000D02*
X144080000Y-60835000D01*
X144080000Y-59485000D02*
X145080000Y-59485000D01*
X138277434Y-57030000D02*
G75*
G03X138277434Y-57030000I-1947434J0D01*
G01*
X138844586Y-59000243D02*
X139222379Y-58613238D01*
X139222379Y-58613238D02*
X139173472Y-58623634D01*
X138255590Y-54064852D02*
X133364852Y-55104410D01*
X133364852Y-55104410D02*
X134404410Y-59995148D01*
X134404410Y-59995148D02*
X139295148Y-58955590D01*
X139295148Y-58955590D02*
X138255590Y-54064852D01*
X130377434Y-59600000D02*
G75*
G03X130377434Y-59600000I-1947434J0D01*
G01*
X131299273Y-61004376D02*
X131588347Y-60547281D01*
X131588347Y-60547281D02*
X131542670Y-60567618D01*
X129697022Y-56299295D02*
X125129295Y-58332978D01*
X125129295Y-58332978D02*
X127162978Y-62900705D01*
X127162978Y-62900705D02*
X131730705Y-60867022D01*
X131730705Y-60867022D02*
X129697022Y-56299295D01*
X123177435Y-63750000D02*
G75*
G03X123177435Y-63750000I-1947435J0D01*
G01*
X124328559Y-64527132D02*
X124516281Y-64019923D01*
X124516281Y-64019923D02*
X124475830Y-64049313D01*
X121783079Y-60257994D02*
X117737994Y-63196921D01*
X117737994Y-63196921D02*
X120676921Y-67242006D01*
X120676921Y-67242006D02*
X124722006Y-64303079D01*
X124722006Y-64303079D02*
X121783079Y-60257994D01*
X117007434Y-69310000D02*
G75*
G03X117007434Y-69310000I-1947434J0D01*
G01*
X118252423Y-69425923D02*
X118330588Y-68890769D01*
X118330588Y-68890769D02*
X118297131Y-68927926D01*
X114874964Y-65779311D02*
X111529311Y-69495036D01*
X111529311Y-69495036D02*
X115245036Y-72840689D01*
X115245036Y-72840689D02*
X118590689Y-69124964D01*
X118590689Y-69124964D02*
X114874964Y-65779311D01*
X112117434Y-76030000D02*
G75*
G03X112117434Y-76030000I-1947434J0D01*
G01*
X113316762Y-75479648D02*
X113281955Y-74939936D01*
X113281955Y-74939936D02*
X113256955Y-74983238D01*
X109254936Y-72614936D02*
X106754936Y-76945064D01*
X106754936Y-76945064D02*
X111085064Y-79445064D01*
X111085064Y-79445064D02*
X113585064Y-75114936D01*
X113585064Y-75114936D02*
X109254936Y-72614936D01*
X108747434Y-83620000D02*
G75*
G03X108747434Y-83620000I-1947434J0D01*
G01*
X109763573Y-82427426D02*
X109617314Y-81906745D01*
X109617314Y-81906745D02*
X109601863Y-81954298D01*
X105194901Y-80469816D02*
X103649816Y-85225099D01*
X103649816Y-85225099D02*
X108405099Y-86770184D01*
X108405099Y-86770184D02*
X109950184Y-82014901D01*
X109950184Y-82014901D02*
X105194901Y-80469816D01*
X107017434Y-91750000D02*
G75*
G03X107017434Y-91750000I-1947434J0D01*
G01*
X107720862Y-89967325D02*
X107469543Y-89488431D01*
X107469543Y-89488431D02*
X107464317Y-89538158D01*
X102845016Y-89002374D02*
X102322374Y-93974984D01*
X102322374Y-93974984D02*
X107294984Y-94497626D01*
X107294984Y-94497626D02*
X107817626Y-89525016D01*
X107817626Y-89525016D02*
X102845016Y-89002374D01*
X107017435Y-100050000D02*
G75*
G03X107017435Y-100050000I-1947435J0D01*
G01*
X107292295Y-97755135D02*
X106946901Y-97338959D01*
X106946901Y-97338959D02*
X106952127Y-97388685D01*
X102322374Y-97825016D02*
X102845016Y-102797626D01*
X102845016Y-102797626D02*
X107817626Y-102274984D01*
X107817626Y-102274984D02*
X107294984Y-97302374D01*
X107294984Y-97302374D02*
X102322374Y-97825016D01*
X108747434Y-108180000D02*
G75*
G03X108747434Y-108180000I-1947434J0D01*
G01*
X108496604Y-105473243D02*
X108072229Y-105137972D01*
X108072229Y-105137972D02*
X108087680Y-105185525D01*
X103649816Y-106574901D02*
X105194901Y-111330184D01*
X105194901Y-111330184D02*
X109950184Y-109785099D01*
X109950184Y-109785099D02*
X108405099Y-105029816D01*
X108405099Y-105029816D02*
X103649816Y-106574901D01*
X112117434Y-115770000D02*
G75*
G03X112117434Y-115770000I-1947434J0D01*
G01*
X111266762Y-112769648D02*
X110781955Y-112529936D01*
X110781955Y-112529936D02*
X110806955Y-112573238D01*
X106754936Y-114854936D02*
X109254936Y-119185064D01*
X109254936Y-119185064D02*
X113585064Y-116685064D01*
X113585064Y-116685064D02*
X111085064Y-112354936D01*
X111085064Y-112354936D02*
X106754936Y-114854936D01*
X117007435Y-122490000D02*
G75*
G03X117007435Y-122490000I-1947435J0D01*
G01*
X115508987Y-119327183D02*
X114984935Y-119193507D01*
X114984935Y-119193507D02*
X115018391Y-119230664D01*
X111529311Y-122304964D02*
X114874964Y-126020689D01*
X114874964Y-126020689D02*
X118590689Y-122675036D01*
X118590689Y-122675036D02*
X115245036Y-118959311D01*
X115245036Y-118959311D02*
X111529311Y-122304964D01*
X123177434Y-128050000D02*
G75*
G03X123177434Y-128050000I-1947434J0D01*
G01*
X121011589Y-124862949D02*
X120471196Y-124841150D01*
X120471196Y-124841150D02*
X120511647Y-124870540D01*
X117737994Y-128603079D02*
X121783079Y-131542006D01*
X121783079Y-131542006D02*
X124722006Y-127496921D01*
X124722006Y-127496921D02*
X120676921Y-124557994D01*
X120676921Y-124557994D02*
X117737994Y-128603079D01*
X130377435Y-132200000D02*
G75*
G03X130377435Y-132200000I-1947435J0D01*
G01*
X127553737Y-129128004D02*
X127020620Y-129219036D01*
X127020620Y-129219036D02*
X127066297Y-129239372D01*
X125129295Y-133467022D02*
X129697022Y-135500705D01*
X129697022Y-135500705D02*
X131730705Y-130932978D01*
X131730705Y-130932978D02*
X127162978Y-128899295D01*
X127162978Y-128899295D02*
X125129295Y-133467022D01*
X138277434Y-134770000D02*
G75*
G03X138277434Y-134770000I-1947434J0D01*
G01*
X134834181Y-131947319D02*
X134331641Y-132147203D01*
X134331641Y-132147203D02*
X134380549Y-132157599D01*
X133364852Y-136695590D02*
X138255590Y-137735148D01*
X138255590Y-137735148D02*
X139295148Y-132844410D01*
X139295148Y-132844410D02*
X134404410Y-131804852D01*
X134404410Y-131804852D02*
X133364852Y-136695590D01*
X146537434Y-135640000D02*
G75*
G03X146537434Y-135640000I-1947434J0D01*
G01*
X142540000Y-133190000D02*
X142090000Y-133490000D01*
X142090000Y-133490000D02*
X142140000Y-133490000D01*
X142090000Y-138140000D02*
X147090000Y-138140000D01*
X147090000Y-138140000D02*
X147090000Y-133140000D01*
X147090000Y-133140000D02*
X142090000Y-133140000D01*
X142090000Y-133140000D02*
X142090000Y-138140000D01*
X154797434Y-134770000D02*
G75*
G03X154797434Y-134770000I-1947434J0D01*
G01*
X150335414Y-132799757D02*
X149957621Y-133186762D01*
X149957621Y-133186762D02*
X150006528Y-133176366D01*
X150924410Y-137735148D02*
X155815148Y-136695590D01*
X155815148Y-136695590D02*
X154775590Y-131804852D01*
X154775590Y-131804852D02*
X149884852Y-132844410D01*
X149884852Y-132844410D02*
X150924410Y-137735148D01*
X162697434Y-132200000D02*
G75*
G03X162697434Y-132200000I-1947434J0D01*
G01*
X157880727Y-130795624D02*
X157591653Y-131252719D01*
X157591653Y-131252719D02*
X157637330Y-131232382D01*
X159482978Y-135500705D02*
X164050705Y-133467022D01*
X164050705Y-133467022D02*
X162017022Y-128899295D01*
X162017022Y-128899295D02*
X157449295Y-130932978D01*
X157449295Y-130932978D02*
X159482978Y-135500705D01*
X176067434Y-122490000D02*
G75*
G03X176067434Y-122490000I-1947434J0D01*
G01*
X170927577Y-122374077D02*
X170849412Y-122909231D01*
X170849412Y-122909231D02*
X170882869Y-122872074D01*
X174305036Y-126020689D02*
X177650689Y-122304964D01*
X177650689Y-122304964D02*
X173934964Y-118959311D01*
X173934964Y-118959311D02*
X170589311Y-122675036D01*
X170589311Y-122675036D02*
X174305036Y-126020689D01*
X180957434Y-115770000D02*
G75*
G03X180957434Y-115770000I-1947434J0D01*
G01*
X175863238Y-116320352D02*
X175898045Y-116860064D01*
X175898045Y-116860064D02*
X175923045Y-116816762D01*
X179925064Y-119185064D02*
X182425064Y-114854936D01*
X182425064Y-114854936D02*
X178094936Y-112354936D01*
X178094936Y-112354936D02*
X175594936Y-116685064D01*
X175594936Y-116685064D02*
X179925064Y-119185064D01*
X184337434Y-108180000D02*
G75*
G03X184337434Y-108180000I-1947434J0D01*
G01*
X179426427Y-109372574D02*
X179572686Y-109893255D01*
X179572686Y-109893255D02*
X179588137Y-109845702D01*
X183995099Y-111330184D02*
X185540184Y-106574901D01*
X185540184Y-106574901D02*
X180784901Y-105029816D01*
X180784901Y-105029816D02*
X179239816Y-109785099D01*
X179239816Y-109785099D02*
X183995099Y-111330184D01*
X186057434Y-100050000D02*
G75*
G03X186057434Y-100050000I-1947434J0D01*
G01*
X181459138Y-101832675D02*
X181710457Y-102311569D01*
X181710457Y-102311569D02*
X181715683Y-102261842D01*
X186334984Y-102797626D02*
X186857626Y-97825016D01*
X186857626Y-97825016D02*
X181885016Y-97302374D01*
X181885016Y-97302374D02*
X181362374Y-102274984D01*
X181362374Y-102274984D02*
X186334984Y-102797626D01*
X186057435Y-91750000D02*
G75*
G03X186057435Y-91750000I-1947435J0D01*
G01*
X181887705Y-94044865D02*
X182233099Y-94461041D01*
X182233099Y-94461041D02*
X182227873Y-94411315D01*
X186857626Y-93974984D02*
X186334984Y-89002374D01*
X186334984Y-89002374D02*
X181362374Y-89525016D01*
X181362374Y-89525016D02*
X181885016Y-94497626D01*
X181885016Y-94497626D02*
X186857626Y-93974984D01*
X184327434Y-83620000D02*
G75*
G03X184327434Y-83620000I-1947434J0D01*
G01*
X180683396Y-86326757D02*
X181107771Y-86662028D01*
X181107771Y-86662028D02*
X181092320Y-86614475D01*
X185530184Y-85225099D02*
X183985099Y-80469816D01*
X183985099Y-80469816D02*
X179229816Y-82014901D01*
X179229816Y-82014901D02*
X180774901Y-86770184D01*
X180774901Y-86770184D02*
X185530184Y-85225099D01*
X176067435Y-69310000D02*
G75*
G03X176067435Y-69310000I-1947435J0D01*
G01*
X173671013Y-72472817D02*
X174195065Y-72606493D01*
X174195065Y-72606493D02*
X174161609Y-72569336D01*
X177650689Y-69495036D02*
X174305036Y-65779311D01*
X174305036Y-65779311D02*
X170589311Y-69124964D01*
X170589311Y-69124964D02*
X173934964Y-72840689D01*
X173934964Y-72840689D02*
X177650689Y-69495036D01*
X169897434Y-63750000D02*
G75*
G03X169897434Y-63750000I-1947434J0D01*
G01*
X168168411Y-66937051D02*
X168708804Y-66958850D01*
X168708804Y-66958850D02*
X168668353Y-66929460D01*
X171442006Y-63196921D02*
X167396921Y-60257994D01*
X167396921Y-60257994D02*
X164457994Y-64303079D01*
X164457994Y-64303079D02*
X168503079Y-67242006D01*
X168503079Y-67242006D02*
X171442006Y-63196921D01*
X162697435Y-59600000D02*
G75*
G03X162697435Y-59600000I-1947435J0D01*
G01*
X161626263Y-62671996D02*
X162159380Y-62580964D01*
X162159380Y-62580964D02*
X162113703Y-62560628D01*
X164050705Y-58332978D02*
X159482978Y-56299295D01*
X159482978Y-56299295D02*
X157449295Y-60867022D01*
X157449295Y-60867022D02*
X162017022Y-62900705D01*
X162017022Y-62900705D02*
X164050705Y-58332978D01*
X154797434Y-57030000D02*
G75*
G03X154797434Y-57030000I-1947434J0D01*
G01*
X154345819Y-59852681D02*
X154848359Y-59652797D01*
X154848359Y-59652797D02*
X154799451Y-59642401D01*
X155815148Y-55104410D02*
X150924410Y-54064852D01*
X150924410Y-54064852D02*
X149884852Y-58955590D01*
X149884852Y-58955590D02*
X154775590Y-59995148D01*
X154775590Y-59995148D02*
X155815148Y-55104410D01*
X169897435Y-128050000D02*
G75*
G03X169897435Y-128050000I-1947435J0D01*
G01*
X164851441Y-127272868D02*
X164663719Y-127780077D01*
X164663719Y-127780077D02*
X164704170Y-127750687D01*
X167396921Y-131542006D02*
X171442006Y-128603079D01*
X171442006Y-128603079D02*
X168503079Y-124557994D01*
X168503079Y-124557994D02*
X164457994Y-127496921D01*
X164457994Y-127496921D02*
X167396921Y-131542006D01*
X180957434Y-76150000D02*
G75*
G03X180957434Y-76150000I-1947434J0D01*
G01*
X177913238Y-79150352D02*
X178398045Y-79390064D01*
X178398045Y-79390064D02*
X178373045Y-79346762D01*
X182425064Y-77065064D02*
X179925064Y-72734936D01*
X179925064Y-72734936D02*
X175594936Y-75234936D01*
X175594936Y-75234936D02*
X178094936Y-79565064D01*
X178094936Y-79565064D02*
X182425064Y-77065064D01*
X146537434Y-56160000D02*
G75*
G03X146537434Y-56160000I-1947434J0D01*
G01*
X146640000Y-58610000D02*
X147090000Y-58310000D01*
X147090000Y-58310000D02*
X147040000Y-58310000D01*
X147090000Y-53660000D02*
X142090000Y-53660000D01*
X142090000Y-53660000D02*
X142090000Y-58660000D01*
X142090000Y-58660000D02*
X147090000Y-58660000D01*
X147090000Y-58660000D02*
X147090000Y-53660000D01*
X152192540Y-72251210D02*
X152858280Y-72467522D01*
X152487460Y-73608790D02*
X151821720Y-73392478D01*
X159139515Y-75648865D02*
X159705827Y-76060315D01*
X159000485Y-77031135D02*
X158434173Y-76619685D01*
X164819685Y-80934173D02*
X165231135Y-81500485D01*
X164260315Y-82205827D02*
X163848865Y-81639515D01*
X168322478Y-87831720D02*
X168538790Y-88497460D01*
X167397522Y-88868280D02*
X167181210Y-88202540D01*
X169640000Y-95470000D02*
X169640000Y-96170000D01*
X168440000Y-96170000D02*
X168440000Y-95470000D01*
X168498790Y-103172540D02*
X168282478Y-103838280D01*
X167141210Y-103467460D02*
X167357522Y-102801720D01*
X165201135Y-110129515D02*
X164789685Y-110695827D01*
X163818865Y-109990485D02*
X164230315Y-109424173D01*
X159695827Y-115719685D02*
X159129515Y-116131135D01*
X158424173Y-115160315D02*
X158990485Y-114748865D01*
X152868280Y-119172478D02*
X152202540Y-119388790D01*
X151831720Y-118247522D02*
X152497460Y-118031210D01*
X145230000Y-120530000D02*
X144530000Y-120530000D01*
X144530000Y-119330000D02*
X145230000Y-119330000D01*
X137607460Y-119358790D02*
X136941720Y-119142478D01*
X137312540Y-118001210D02*
X137978280Y-118217522D01*
X130680485Y-116011135D02*
X130114173Y-115599685D01*
X130819515Y-114628865D02*
X131385827Y-115040315D01*
X125180315Y-110595827D02*
X124768865Y-110029515D01*
X125739685Y-109324173D02*
X126151135Y-109890485D01*
X121587522Y-103788280D02*
X121371210Y-103122540D01*
X122512478Y-102751720D02*
X122728790Y-103417460D01*
X120210000Y-96240000D02*
X120210000Y-95540000D01*
X121410000Y-95540000D02*
X121410000Y-96240000D01*
X121371210Y-88577460D02*
X121587522Y-87911720D01*
X122728790Y-88282540D02*
X122512478Y-88948280D01*
X124678865Y-81630485D02*
X125090315Y-81064173D01*
X126061135Y-81769515D02*
X125649685Y-82335827D01*
X130074173Y-76140315D02*
X130640485Y-75728865D01*
X131345827Y-76699685D02*
X130779515Y-77111135D01*
X136901720Y-72407522D02*
X137567460Y-72191210D01*
X137938280Y-73332478D02*
X137272540Y-73548790D01*
X149790000Y-71750000D02*
G75*
G03X149790000Y-71750000I-1000000J0D01*
G01*
X121810000Y-99560000D02*
G75*
G03X121810000Y-99560000I-1000000J0D01*
G01*
X121720000Y-91920000D02*
G75*
G03X121720000Y-91920000I-1000000J0D01*
G01*
X134730000Y-74040000D02*
G75*
G03X134730000Y-74040000I-1000000J0D01*
G01*
X167500000Y-106940000D02*
G75*
G03X167500000Y-106940000I-1000000J0D01*
G01*
X170040000Y-99630000D02*
G75*
G03X170040000Y-99630000I-1000000J0D01*
G01*
X145380000Y-72345000D02*
X144380000Y-72345000D01*
X144380000Y-70995000D02*
X145380000Y-70995000D01*
X138177434Y-69220000D02*
G75*
G03X138177434Y-69220000I-1947434J0D01*
G01*
X138936757Y-70916604D02*
X139272028Y-70492229D01*
X139272028Y-70492229D02*
X139224475Y-70507680D01*
X137835099Y-66069816D02*
X133079816Y-67614901D01*
X133079816Y-67614901D02*
X134624901Y-72370184D01*
X134624901Y-72370184D02*
X139380184Y-70825099D01*
X139380184Y-70825099D02*
X137835099Y-66069816D01*
X130367435Y-73200000D02*
G75*
G03X130367435Y-73200000I-1947435J0D01*
G01*
X131518559Y-73977132D02*
X131706281Y-73469923D01*
X131706281Y-73469923D02*
X131665830Y-73499313D01*
X128973079Y-69707994D02*
X124927994Y-72646921D01*
X124927994Y-72646921D02*
X127866921Y-76692006D01*
X127866921Y-76692006D02*
X131912006Y-73753079D01*
X131912006Y-73753079D02*
X128973079Y-69707994D01*
X124177434Y-79390000D02*
G75*
G03X124177434Y-79390000I-1947434J0D01*
G01*
X125417051Y-79171589D02*
X125438850Y-78631196D01*
X125438850Y-78631196D02*
X125409460Y-78671647D01*
X121676921Y-75897994D02*
X118737994Y-79943079D01*
X118737994Y-79943079D02*
X122783079Y-82882006D01*
X122783079Y-82882006D02*
X125722006Y-78836921D01*
X125722006Y-78836921D02*
X121676921Y-75897994D01*
X120197434Y-87200000D02*
G75*
G03X120197434Y-87200000I-1947434J0D01*
G01*
X121213573Y-86007426D02*
X121067314Y-85486745D01*
X121067314Y-85486745D02*
X121051863Y-85534298D01*
X116644901Y-84049816D02*
X115099816Y-88805099D01*
X115099816Y-88805099D02*
X119855099Y-90350184D01*
X119855099Y-90350184D02*
X121400184Y-85594901D01*
X121400184Y-85594901D02*
X116644901Y-84049816D01*
X118827434Y-95850000D02*
G75*
G03X118827434Y-95850000I-1947434J0D01*
G01*
X119330000Y-93800000D02*
X119030000Y-93350000D01*
X119030000Y-93350000D02*
X119030000Y-93400000D01*
X114380000Y-93350000D02*
X114380000Y-98350000D01*
X114380000Y-98350000D02*
X119380000Y-98350000D01*
X119380000Y-98350000D02*
X119380000Y-93350000D01*
X119380000Y-93350000D02*
X114380000Y-93350000D01*
X120197434Y-104500000D02*
G75*
G03X120197434Y-104500000I-1947434J0D01*
G01*
X119946604Y-101793243D02*
X119522229Y-101457972D01*
X119522229Y-101457972D02*
X119537680Y-101505525D01*
X115099816Y-102894901D02*
X116644901Y-107650184D01*
X116644901Y-107650184D02*
X121400184Y-106105099D01*
X121400184Y-106105099D02*
X119855099Y-101349816D01*
X119855099Y-101349816D02*
X115099816Y-102894901D01*
X124177435Y-112310000D02*
G75*
G03X124177435Y-112310000I-1947435J0D01*
G01*
X123007132Y-109211441D02*
X122499923Y-109023719D01*
X122499923Y-109023719D02*
X122529313Y-109064170D01*
X118737994Y-111756921D02*
X121676921Y-115802006D01*
X121676921Y-115802006D02*
X125722006Y-112863079D01*
X125722006Y-112863079D02*
X122783079Y-108817994D01*
X122783079Y-108817994D02*
X118737994Y-111756921D01*
X130367434Y-118500000D02*
G75*
G03X130367434Y-118500000I-1947434J0D01*
G01*
X128201589Y-115312949D02*
X127661196Y-115291150D01*
X127661196Y-115291150D02*
X127701647Y-115320540D01*
X124927994Y-119053079D02*
X128973079Y-121992006D01*
X128973079Y-121992006D02*
X131912006Y-117946921D01*
X131912006Y-117946921D02*
X127866921Y-115007994D01*
X127866921Y-115007994D02*
X124927994Y-119053079D01*
X138177434Y-122480000D02*
G75*
G03X138177434Y-122480000I-1947434J0D01*
G01*
X135037426Y-119516427D02*
X134516745Y-119662686D01*
X134516745Y-119662686D02*
X134564298Y-119678137D01*
X133079816Y-124085099D02*
X137835099Y-125630184D01*
X137835099Y-125630184D02*
X139380184Y-120874901D01*
X139380184Y-120874901D02*
X134624901Y-119329816D01*
X134624901Y-119329816D02*
X133079816Y-124085099D01*
X146827434Y-123850000D02*
G75*
G03X146827434Y-123850000I-1947434J0D01*
G01*
X142830000Y-121400000D02*
X142380000Y-121700000D01*
X142380000Y-121700000D02*
X142430000Y-121700000D01*
X142380000Y-126350000D02*
X147380000Y-126350000D01*
X147380000Y-126350000D02*
X147380000Y-121350000D01*
X147380000Y-121350000D02*
X142380000Y-121350000D01*
X142380000Y-121350000D02*
X142380000Y-126350000D01*
X155477434Y-122480000D02*
G75*
G03X155477434Y-122480000I-1947434J0D01*
G01*
X150823243Y-120783396D02*
X150487972Y-121207771D01*
X150487972Y-121207771D02*
X150535525Y-121192320D01*
X151924901Y-125630184D02*
X156680184Y-124085099D01*
X156680184Y-124085099D02*
X155135099Y-119329816D01*
X155135099Y-119329816D02*
X150379816Y-120874901D01*
X150379816Y-120874901D02*
X151924901Y-125630184D01*
X163287435Y-118500000D02*
G75*
G03X163287435Y-118500000I-1947435J0D01*
G01*
X158241441Y-117722868D02*
X158053719Y-118230077D01*
X158053719Y-118230077D02*
X158094170Y-118200687D01*
X160786921Y-121992006D02*
X164832006Y-119053079D01*
X164832006Y-119053079D02*
X161893079Y-115007994D01*
X161893079Y-115007994D02*
X157847994Y-117946921D01*
X157847994Y-117946921D02*
X160786921Y-121992006D01*
X169477434Y-112310000D02*
G75*
G03X169477434Y-112310000I-1947434J0D01*
G01*
X164342949Y-112528411D02*
X164321150Y-113068804D01*
X164321150Y-113068804D02*
X164350540Y-113028353D01*
X168083079Y-115802006D02*
X171022006Y-111756921D01*
X171022006Y-111756921D02*
X166976921Y-108817994D01*
X166976921Y-108817994D02*
X164037994Y-112863079D01*
X164037994Y-112863079D02*
X168083079Y-115802006D01*
X173457434Y-104500000D02*
G75*
G03X173457434Y-104500000I-1947434J0D01*
G01*
X168546427Y-105692574D02*
X168692686Y-106213255D01*
X168692686Y-106213255D02*
X168708137Y-106165702D01*
X173115099Y-107650184D02*
X174660184Y-102894901D01*
X174660184Y-102894901D02*
X169904901Y-101349816D01*
X169904901Y-101349816D02*
X168359816Y-106105099D01*
X168359816Y-106105099D02*
X173115099Y-107650184D01*
X174827434Y-95850000D02*
G75*
G03X174827434Y-95850000I-1947434J0D01*
G01*
X170430000Y-97900000D02*
X170730000Y-98350000D01*
X170730000Y-98350000D02*
X170730000Y-98300000D01*
X175380000Y-98350000D02*
X175380000Y-93350000D01*
X175380000Y-93350000D02*
X170380000Y-93350000D01*
X170380000Y-93350000D02*
X170380000Y-98350000D01*
X170380000Y-98350000D02*
X175380000Y-98350000D01*
X173457434Y-87200000D02*
G75*
G03X173457434Y-87200000I-1947434J0D01*
G01*
X169813396Y-89906757D02*
X170237771Y-90242028D01*
X170237771Y-90242028D02*
X170222320Y-90194475D01*
X174660184Y-88805099D02*
X173115099Y-84049816D01*
X173115099Y-84049816D02*
X168359816Y-85594901D01*
X168359816Y-85594901D02*
X169904901Y-90350184D01*
X169904901Y-90350184D02*
X174660184Y-88805099D01*
X169477435Y-79390000D02*
G75*
G03X169477435Y-79390000I-1947435J0D01*
G01*
X166752868Y-82488559D02*
X167260077Y-82676281D01*
X167260077Y-82676281D02*
X167230687Y-82635830D01*
X171022006Y-79943079D02*
X168083079Y-75897994D01*
X168083079Y-75897994D02*
X164037994Y-78836921D01*
X164037994Y-78836921D02*
X166976921Y-82882006D01*
X166976921Y-82882006D02*
X171022006Y-79943079D01*
X163287434Y-73200000D02*
G75*
G03X163287434Y-73200000I-1947434J0D01*
G01*
X161558411Y-76387051D02*
X162098804Y-76408850D01*
X162098804Y-76408850D02*
X162058353Y-76379460D01*
X164832006Y-72646921D02*
X160786921Y-69707994D01*
X160786921Y-69707994D02*
X157847994Y-73753079D01*
X157847994Y-73753079D02*
X161893079Y-76692006D01*
X161893079Y-76692006D02*
X164832006Y-72646921D01*
X155477434Y-69220000D02*
G75*
G03X155477434Y-69220000I-1947434J0D01*
G01*
X154722574Y-72183573D02*
X155243255Y-72037314D01*
X155243255Y-72037314D02*
X155195702Y-72021863D01*
X156680184Y-67614901D02*
X151924901Y-66069816D01*
X151924901Y-66069816D02*
X150379816Y-70825099D01*
X150379816Y-70825099D02*
X155135099Y-72370184D01*
X155135099Y-72370184D02*
X156680184Y-67614901D01*
X146827434Y-67850000D02*
G75*
G03X146827434Y-67850000I-1947434J0D01*
G01*
X146930000Y-70300000D02*
X147380000Y-70000000D01*
X147380000Y-70000000D02*
X147330000Y-70000000D01*
X147380000Y-65350000D02*
X142380000Y-65350000D01*
X142380000Y-65350000D02*
X142380000Y-70350000D01*
X142380000Y-70350000D02*
X147380000Y-70350000D01*
X147380000Y-70350000D02*
X147380000Y-65350000D01*
X147573334Y-60562381D02*
X147240000Y-60086190D01*
X147001905Y-60562381D02*
X147001905Y-59562381D01*
X147382858Y-59562381D01*
X147478096Y-59610000D01*
X147525715Y-59657619D01*
X147573334Y-59752857D01*
X147573334Y-59895714D01*
X147525715Y-59990952D01*
X147478096Y-60038571D01*
X147382858Y-60086190D01*
X147001905Y-60086190D01*
X148525715Y-60562381D02*
X147954286Y-60562381D01*
X148240000Y-60562381D02*
X148240000Y-59562381D01*
X148144762Y-59705238D01*
X148049524Y-59800476D01*
X147954286Y-59848095D01*
X135756734Y-57665456D02*
X135290949Y-57764462D01*
X135083037Y-56786314D01*
X135781715Y-56637806D02*
X136387235Y-56509098D01*
X136140389Y-56951030D01*
X136280126Y-56921328D01*
X136383183Y-56948105D01*
X136439662Y-56984783D01*
X136506042Y-57068040D01*
X136555544Y-57300932D01*
X136528767Y-57403990D01*
X136492089Y-57460469D01*
X136408833Y-57526848D01*
X136129362Y-57586252D01*
X136026304Y-57559474D01*
X135969825Y-57522796D01*
X136992754Y-56380391D02*
X137085912Y-56360590D01*
X137188969Y-56387367D01*
X137245448Y-56424045D01*
X137311828Y-56507301D01*
X137398009Y-56683714D01*
X137447511Y-56916607D01*
X137440535Y-57112822D01*
X137413758Y-57215879D01*
X137377080Y-57272358D01*
X137293824Y-57338737D01*
X137200666Y-57358539D01*
X137097609Y-57331761D01*
X137041130Y-57295084D01*
X136974750Y-57211827D01*
X136888570Y-57035414D01*
X136839067Y-56802521D01*
X136846043Y-56606307D01*
X136872820Y-56503250D01*
X136909498Y-56446771D01*
X136992754Y-56380391D01*
X128001381Y-60340758D02*
X127566359Y-60534442D01*
X127159622Y-59620897D01*
X127894394Y-59398007D02*
X127918527Y-59335136D01*
X127986163Y-59252897D01*
X128203675Y-59156055D01*
X128310047Y-59160820D01*
X128372918Y-59184954D01*
X128455157Y-59252590D01*
X128493894Y-59339594D01*
X128508497Y-59489469D01*
X128218891Y-60243916D01*
X128784420Y-59992127D01*
X129219441Y-59798443D02*
X129393450Y-59720969D01*
X129461086Y-59638730D01*
X129485220Y-59575859D01*
X129514119Y-59406616D01*
X129480148Y-59213239D01*
X129325200Y-58865221D01*
X129242961Y-58797586D01*
X129180091Y-58773452D01*
X129073718Y-58768686D01*
X128899709Y-58846160D01*
X128832073Y-58928399D01*
X128807939Y-58991270D01*
X128803174Y-59097643D01*
X128900016Y-59315153D01*
X128982255Y-59382789D01*
X129045126Y-59406924D01*
X129151498Y-59411689D01*
X129325508Y-59334215D01*
X129393143Y-59251976D01*
X129417277Y-59189105D01*
X129422042Y-59082732D01*
X120964759Y-64563686D02*
X120579512Y-64843584D01*
X119991727Y-64034567D01*
X120664100Y-63663779D02*
X120674635Y-63597265D01*
X120723695Y-63502761D01*
X120916318Y-63362812D01*
X121021357Y-63345357D01*
X121087872Y-63355892D01*
X121182376Y-63404951D01*
X121238355Y-63482000D01*
X121283800Y-63625564D01*
X121157382Y-64423737D01*
X121658202Y-64059870D01*
X121784619Y-63261697D02*
X121679580Y-63279152D01*
X121613066Y-63268617D01*
X121518562Y-63219558D01*
X121490572Y-63181033D01*
X121473117Y-63075994D01*
X121483652Y-63009480D01*
X121532712Y-62914976D01*
X121686811Y-62803016D01*
X121791850Y-62785561D01*
X121858364Y-62796096D01*
X121952868Y-62845156D01*
X121980858Y-62883680D01*
X121998313Y-62988719D01*
X121987778Y-63055233D01*
X121938718Y-63149737D01*
X121784619Y-63261697D01*
X121735560Y-63356201D01*
X121725025Y-63422715D01*
X121742481Y-63527755D01*
X121854440Y-63681853D01*
X121948944Y-63730913D01*
X122015458Y-63741448D01*
X122120497Y-63723993D01*
X122274596Y-63612033D01*
X122323655Y-63517529D01*
X122334190Y-63451015D01*
X122316735Y-63345976D01*
X122204776Y-63191878D01*
X122110272Y-63142817D01*
X122043757Y-63132283D01*
X121938718Y-63149737D01*
X114969730Y-70161052D02*
X114651096Y-70514931D01*
X113907952Y-69845800D01*
X114488541Y-69343321D02*
X114485017Y-69276070D01*
X114513355Y-69173431D01*
X114672673Y-68996491D01*
X114771787Y-68957579D01*
X114839038Y-68954054D01*
X114941677Y-68982393D01*
X115012453Y-69046120D01*
X115086753Y-69177098D01*
X115129047Y-69984113D01*
X115543271Y-69524070D01*
X115023169Y-68607225D02*
X115469257Y-68111795D01*
X115925631Y-69099417D01*
X110258646Y-76881222D02*
X110020550Y-77293615D01*
X109154525Y-76793615D01*
X109617956Y-76181405D02*
X109600526Y-76116357D01*
X109606906Y-76010069D01*
X109725954Y-75803871D01*
X109814812Y-75745202D01*
X109879861Y-75727773D01*
X109986149Y-75734152D01*
X110068628Y-75781771D01*
X110168536Y-75894439D01*
X110377693Y-76675026D01*
X110687217Y-76138914D01*
X110249764Y-74896607D02*
X110154525Y-75061565D01*
X110148145Y-75167853D01*
X110165575Y-75232901D01*
X110241674Y-75386809D01*
X110382821Y-75523286D01*
X110712736Y-75713762D01*
X110819024Y-75720142D01*
X110884073Y-75702712D01*
X110972931Y-75644043D01*
X111068170Y-75479085D01*
X111074550Y-75372797D01*
X111057120Y-75307749D01*
X110998451Y-75218890D01*
X110792255Y-75099843D01*
X110685966Y-75093463D01*
X110620917Y-75110892D01*
X110532059Y-75169561D01*
X110436820Y-75334519D01*
X110430440Y-75440807D01*
X110447870Y-75505856D01*
X110506540Y-75594715D01*
X107063688Y-84434191D02*
X106916537Y-84887075D01*
X105965481Y-84578058D01*
X106291499Y-83882874D02*
X106260926Y-83822870D01*
X106245067Y-83717579D01*
X106318643Y-83491136D01*
X106393362Y-83415274D01*
X106453365Y-83384701D01*
X106558657Y-83368843D01*
X106649234Y-83398273D01*
X106770384Y-83487706D01*
X107137264Y-84207749D01*
X107328560Y-83618999D01*
X106657090Y-82449503D02*
X106509939Y-82902387D01*
X106948108Y-83094826D01*
X106917534Y-83034823D01*
X106901676Y-82929531D01*
X106975252Y-82703088D01*
X107049970Y-82627227D01*
X107109974Y-82596653D01*
X107215267Y-82580795D01*
X107441708Y-82654371D01*
X107517570Y-82729089D01*
X107548143Y-82789093D01*
X107564002Y-82894385D01*
X107490426Y-83120827D01*
X107415707Y-83196689D01*
X107355704Y-83227262D01*
X105497206Y-92491575D02*
X105447430Y-92965157D01*
X104452909Y-92860629D01*
X104627266Y-92112853D02*
X104584885Y-92060517D01*
X104547482Y-91960823D01*
X104572370Y-91724032D01*
X104629683Y-91634293D01*
X104682019Y-91591912D01*
X104781712Y-91554509D01*
X104876429Y-91564464D01*
X105013526Y-91626755D01*
X105522094Y-92254784D01*
X105586802Y-91639128D01*
X105013383Y-90716994D02*
X105676398Y-90786680D01*
X104609630Y-90913966D02*
X105295115Y-91225420D01*
X105359823Y-90609763D01*
X104607853Y-99502451D02*
X104558078Y-99028869D01*
X105552600Y-98924340D01*
X105537524Y-99692027D02*
X105589860Y-99734407D01*
X105647173Y-99824146D01*
X105672061Y-100060938D01*
X105634658Y-100160632D01*
X105592277Y-100212967D01*
X105502539Y-100270281D01*
X105407822Y-100280236D01*
X105260770Y-100247810D01*
X104632741Y-99739242D01*
X104697449Y-100354899D01*
X105726814Y-100581877D02*
X105791522Y-101197534D01*
X105377814Y-100905846D01*
X105392747Y-101047922D01*
X105355344Y-101147616D01*
X105312963Y-101199951D01*
X105223223Y-101257265D01*
X104986433Y-101282152D01*
X104886739Y-101244749D01*
X104834403Y-101202369D01*
X104777090Y-101112630D01*
X104747225Y-100828480D01*
X104784628Y-100728786D01*
X104827008Y-100676451D01*
X106234110Y-107740502D02*
X106086959Y-107287618D01*
X107038016Y-106978601D01*
X107182881Y-107732645D02*
X107242884Y-107763219D01*
X107317603Y-107839080D01*
X107391178Y-108065523D01*
X107375320Y-108170815D01*
X107344747Y-108230818D01*
X107268885Y-108305537D01*
X107178308Y-108334967D01*
X107027728Y-108333824D01*
X106307686Y-107966944D01*
X106498982Y-108555694D01*
X107477183Y-108638414D02*
X107537186Y-108668987D01*
X107611905Y-108744848D01*
X107685480Y-108971291D01*
X107669622Y-109076583D01*
X107639049Y-109136586D01*
X107563187Y-109211305D01*
X107472610Y-109240735D01*
X107322030Y-109239592D01*
X106601988Y-108872712D01*
X106793284Y-109461462D01*
X109525099Y-115457761D02*
X109287004Y-115045368D01*
X110153029Y-114545368D01*
X110451503Y-115252816D02*
X110516552Y-115270245D01*
X110605410Y-115328914D01*
X110724458Y-115535112D01*
X110730838Y-115641400D01*
X110713408Y-115706448D01*
X110654739Y-115795307D01*
X110572260Y-115842926D01*
X110424733Y-115873115D01*
X109644147Y-115663957D01*
X109953671Y-116200069D01*
X110429861Y-117024855D02*
X110144147Y-116529983D01*
X110287004Y-116777418D02*
X111153029Y-116277418D01*
X110981692Y-116266368D01*
X110851595Y-116231509D01*
X110762736Y-116172840D01*
X114364274Y-122318667D02*
X114045640Y-121964788D01*
X114788785Y-121295658D01*
X115227823Y-121925590D02*
X115295074Y-121929115D01*
X115394189Y-121968027D01*
X115553506Y-122144967D01*
X115581845Y-122247606D01*
X115578321Y-122314857D01*
X115539408Y-122413971D01*
X115468633Y-122477698D01*
X115330606Y-122537900D01*
X114523591Y-122495606D01*
X114937815Y-122955649D01*
X116095183Y-122746559D02*
X116158910Y-122817336D01*
X116187249Y-122919975D01*
X116183725Y-122987226D01*
X116144812Y-123086340D01*
X116035124Y-123249182D01*
X115858185Y-123408499D01*
X115684770Y-123500564D01*
X115582131Y-123528903D01*
X115514880Y-123525379D01*
X115415765Y-123486466D01*
X115352038Y-123415690D01*
X115323699Y-123313051D01*
X115327224Y-123245800D01*
X115366136Y-123146686D01*
X115475824Y-122983844D01*
X115652764Y-122824527D01*
X115826178Y-122732462D01*
X115928817Y-122704123D01*
X115996068Y-122707647D01*
X116095183Y-122746559D01*
X120513855Y-128027060D02*
X120128608Y-127747162D01*
X120716394Y-126938145D01*
X121207298Y-128530876D02*
X120745002Y-128194999D01*
X120976150Y-128362937D02*
X121563935Y-127553920D01*
X121402917Y-127613514D01*
X121269888Y-127634584D01*
X121164849Y-127617129D01*
X121592544Y-128810774D02*
X121746642Y-128922733D01*
X121851682Y-128940188D01*
X121918196Y-128929653D01*
X122079215Y-128870059D01*
X122229698Y-128743950D01*
X122453617Y-128435753D01*
X122471072Y-128330714D01*
X122460537Y-128264200D01*
X122411477Y-128169696D01*
X122257378Y-128057736D01*
X122152339Y-128040281D01*
X122085825Y-128050816D01*
X121991321Y-128099875D01*
X121851372Y-128292498D01*
X121833917Y-128397537D01*
X121844452Y-128464052D01*
X121893511Y-128558556D01*
X122047610Y-128670516D01*
X122152649Y-128687971D01*
X122219164Y-128677435D01*
X122313668Y-128628376D01*
X127724735Y-132326457D02*
X127289713Y-132132773D01*
X127696449Y-131219227D01*
X128507774Y-132675089D02*
X127985748Y-132442667D01*
X128246760Y-132558878D02*
X128653497Y-131645332D01*
X128508388Y-131737102D01*
X128382647Y-131785369D01*
X128276274Y-131790135D01*
X129262221Y-132385483D02*
X129194585Y-132303244D01*
X129170451Y-132240373D01*
X129165686Y-132134001D01*
X129185054Y-132090499D01*
X129267293Y-132022863D01*
X129330164Y-131998729D01*
X129436536Y-131993964D01*
X129610546Y-132071438D01*
X129678181Y-132153677D01*
X129702315Y-132216547D01*
X129707080Y-132322920D01*
X129687712Y-132366422D01*
X129605473Y-132434058D01*
X129542603Y-132458192D01*
X129436230Y-132462957D01*
X129262221Y-132385483D01*
X129155848Y-132390248D01*
X129092977Y-132414382D01*
X129010738Y-132482019D01*
X128933265Y-132656027D01*
X128938030Y-132762400D01*
X128962164Y-132825270D01*
X129029800Y-132907509D01*
X129203809Y-132984983D01*
X129310182Y-132980218D01*
X129373052Y-132956084D01*
X129455291Y-132888448D01*
X129532765Y-132714440D01*
X129528000Y-132608066D01*
X129503866Y-132545196D01*
X129436230Y-132462957D01*
X135666439Y-135040326D02*
X135200654Y-134941320D01*
X135408565Y-133963173D01*
X136504851Y-135218536D02*
X135945909Y-135099729D01*
X136225380Y-135159132D02*
X136433291Y-134180985D01*
X136310433Y-134300919D01*
X136197475Y-134374275D01*
X136094418Y-134401052D01*
X137038812Y-134309692D02*
X137690910Y-134448300D01*
X137063792Y-135337343D01*
X143997143Y-136042381D02*
X143520952Y-136042381D01*
X143520952Y-135042381D01*
X144854286Y-136042381D02*
X144282857Y-136042381D01*
X144568571Y-136042381D02*
X144568571Y-135042381D01*
X144473333Y-135185238D01*
X144378095Y-135280476D01*
X144282857Y-135328095D01*
X145711429Y-135042381D02*
X145520952Y-135042381D01*
X145425714Y-135090000D01*
X145378095Y-135137619D01*
X145282857Y-135280476D01*
X145235238Y-135470952D01*
X145235238Y-135851905D01*
X145282857Y-135947143D01*
X145330476Y-135994762D01*
X145425714Y-136042381D01*
X145616191Y-136042381D01*
X145711429Y-135994762D01*
X145759048Y-135947143D01*
X145806667Y-135851905D01*
X145806667Y-135613810D01*
X145759048Y-135518571D01*
X145711429Y-135470952D01*
X145616191Y-135423333D01*
X145425714Y-135423333D01*
X145330476Y-135470952D01*
X145282857Y-135518571D01*
X145235238Y-135613810D01*
X152353758Y-135286850D02*
X151887973Y-135385856D01*
X151680061Y-134407708D01*
X153192171Y-135108640D02*
X152633229Y-135227447D01*
X152912699Y-135168043D02*
X152704788Y-134189896D01*
X152641332Y-134349432D01*
X152567977Y-134462390D01*
X152484720Y-134528769D01*
X153869250Y-133942382D02*
X153403465Y-134041387D01*
X153455892Y-134517072D01*
X153492570Y-134460593D01*
X153575826Y-134394213D01*
X153808719Y-134344711D01*
X153911776Y-134371488D01*
X153968255Y-134408166D01*
X154034635Y-134491423D01*
X154084138Y-134724315D01*
X154057360Y-134827372D01*
X154020682Y-134883851D01*
X153937426Y-134950231D01*
X153704533Y-134999734D01*
X153601476Y-134972956D01*
X153544997Y-134936279D01*
X160372061Y-132808730D02*
X159937039Y-133002414D01*
X159530302Y-132088869D01*
X161155100Y-132460099D02*
X160633074Y-132692520D01*
X160894086Y-132576309D02*
X160487350Y-131662764D01*
X160458451Y-131832007D01*
X160410183Y-131957748D01*
X160342547Y-132039987D01*
X161666981Y-131502437D02*
X161938139Y-132111467D01*
X161294522Y-131251262D02*
X161367538Y-132000637D01*
X161933067Y-131748847D01*
X174022328Y-123199824D02*
X173703694Y-123553703D01*
X172960550Y-122884572D01*
X174595869Y-122562842D02*
X174213508Y-122987497D01*
X174404688Y-122775170D02*
X173661543Y-122106039D01*
X173703980Y-122272405D01*
X173711029Y-122406907D01*
X173682690Y-122509546D01*
X174178406Y-121674336D02*
X174174882Y-121607085D01*
X174203221Y-121504446D01*
X174362538Y-121327506D01*
X174461653Y-121288594D01*
X174528904Y-121285069D01*
X174631543Y-121313408D01*
X174702318Y-121377135D01*
X174776618Y-121508113D01*
X174818912Y-122315128D01*
X175233136Y-121855085D01*
X179062044Y-116484620D02*
X178823948Y-116897013D01*
X177957923Y-116397013D01*
X179490615Y-115742312D02*
X179204901Y-116237184D01*
X179347758Y-115989749D02*
X178481733Y-115489749D01*
X178557831Y-115643656D01*
X178592691Y-115773753D01*
X178586311Y-115880041D01*
X179966806Y-114917526D02*
X179681091Y-115412398D01*
X179823948Y-115164963D02*
X178957923Y-114664963D01*
X179034022Y-114818870D01*
X179068881Y-114948967D01*
X179062502Y-115055255D01*
X182589484Y-108868183D02*
X182442333Y-109321067D01*
X181491277Y-109012050D01*
X182854356Y-108052991D02*
X182677775Y-108596453D01*
X182766065Y-108324722D02*
X181815009Y-108015705D01*
X181921444Y-108150427D01*
X181982590Y-108270434D01*
X181998448Y-108375726D01*
X182094595Y-107155226D02*
X182124026Y-107064648D01*
X182198744Y-106988786D01*
X182258748Y-106958213D01*
X182364040Y-106942355D01*
X182559908Y-106955927D01*
X182786351Y-107029503D01*
X182952789Y-107133651D01*
X183028651Y-107208370D01*
X183059224Y-107268373D01*
X183075082Y-107373665D01*
X183045652Y-107464243D01*
X182970933Y-107540104D01*
X182910930Y-107570678D01*
X182805638Y-107586536D01*
X182609770Y-107572964D01*
X182383327Y-107499388D01*
X182216889Y-107395239D01*
X182141027Y-107320521D01*
X182110454Y-107260517D01*
X182094595Y-107155226D01*
X184497981Y-100208087D02*
X184448206Y-100681669D01*
X183453684Y-100577141D01*
X184537802Y-99829222D02*
X184557712Y-99639789D01*
X184520309Y-99540094D01*
X184477928Y-99487759D01*
X184345809Y-99378110D01*
X184161354Y-99310841D01*
X183782488Y-99271021D01*
X183682794Y-99308424D01*
X183630458Y-99350805D01*
X183573145Y-99440543D01*
X183553235Y-99629977D01*
X183590638Y-99729671D01*
X183633019Y-99782006D01*
X183722757Y-99839320D01*
X183959548Y-99864207D01*
X184059242Y-99826804D01*
X184111579Y-99784424D01*
X184168892Y-99694685D01*
X184188802Y-99505251D01*
X184151399Y-99405558D01*
X184109017Y-99353222D01*
X184019279Y-99295909D01*
X183587723Y-91587034D02*
X183537947Y-91113451D01*
X184532469Y-91008923D01*
X184205797Y-92000884D02*
X184243200Y-91901191D01*
X184285581Y-91848855D01*
X184375319Y-91791542D01*
X184422677Y-91786564D01*
X184522371Y-91823967D01*
X184574707Y-91866348D01*
X184632020Y-91956087D01*
X184651930Y-92145520D01*
X184614527Y-92245214D01*
X184572147Y-92297550D01*
X184482408Y-92354863D01*
X184435050Y-92359840D01*
X184335356Y-92322437D01*
X184283020Y-92280057D01*
X184225707Y-92190318D01*
X184205797Y-92000884D01*
X184148484Y-91911146D01*
X184096148Y-91868765D01*
X183996453Y-91831362D01*
X183807021Y-91851272D01*
X183717282Y-91908586D01*
X183674901Y-91960921D01*
X183637498Y-92060615D01*
X183657409Y-92250049D01*
X183714722Y-92339787D01*
X183767057Y-92382168D01*
X183866751Y-92419571D01*
X184056184Y-92399661D01*
X184145924Y-92342348D01*
X184188304Y-92290012D01*
X184225707Y-92190318D01*
X181835253Y-83569183D02*
X181688102Y-83116298D01*
X182639159Y-82807281D01*
X182859885Y-83486607D02*
X183065897Y-84120645D01*
X181982404Y-84022066D01*
X173601680Y-69485144D02*
X173283046Y-69131265D01*
X174026191Y-68462135D01*
X174886502Y-69417607D02*
X174567868Y-69063728D01*
X174182127Y-69346974D01*
X174249378Y-69350498D01*
X174348492Y-69389410D01*
X174507810Y-69566350D01*
X174536149Y-69668989D01*
X174532624Y-69736240D01*
X174493711Y-69835355D01*
X174316772Y-69994672D01*
X174214133Y-70023011D01*
X174146882Y-70019486D01*
X174047767Y-69980574D01*
X173888450Y-69803634D01*
X173860111Y-69700995D01*
X173863636Y-69633744D01*
X167479421Y-64029082D02*
X167094175Y-63749184D01*
X167681960Y-62940167D01*
X168487673Y-63937574D02*
X168095816Y-64476919D01*
X168518967Y-63489428D02*
X167906497Y-63927349D01*
X168407318Y-64291216D01*
X160347729Y-59970821D02*
X159912707Y-59777137D01*
X160319444Y-58863592D01*
X160971976Y-59154118D02*
X161537505Y-59405907D01*
X161078042Y-59618345D01*
X161208549Y-59676451D01*
X161276185Y-59758690D01*
X161300319Y-59821560D01*
X161305084Y-59927934D01*
X161208242Y-60145444D01*
X161126003Y-60213080D01*
X161063132Y-60237214D01*
X160956760Y-60241979D01*
X160695746Y-60125769D01*
X160628110Y-60043530D01*
X160603976Y-59980659D01*
X152533618Y-57476356D02*
X152067833Y-57377350D01*
X152275744Y-56399202D01*
X153001199Y-56650768D02*
X153057678Y-56614090D01*
X153160735Y-56587313D01*
X153393628Y-56636816D01*
X153476884Y-56703195D01*
X153513562Y-56759674D01*
X153540340Y-56862732D01*
X153520539Y-56955888D01*
X153444258Y-57085723D01*
X152766510Y-57525858D01*
X153372030Y-57654566D01*
X167706883Y-128724006D02*
X167321636Y-129003904D01*
X166733851Y-128194887D01*
X168400326Y-128220190D02*
X167938030Y-128556067D01*
X168169178Y-128388129D02*
X167581392Y-127579112D01*
X167588312Y-127750665D01*
X167567243Y-127883694D01*
X167518183Y-127978198D01*
X168082213Y-127215245D02*
X168583033Y-126851377D01*
X168537278Y-127355503D01*
X168652853Y-127271533D01*
X168757892Y-127254078D01*
X168824406Y-127264613D01*
X168918911Y-127313673D01*
X169058859Y-127506296D01*
X169076314Y-127611335D01*
X169065779Y-127677849D01*
X169016720Y-127772353D01*
X168785572Y-127940292D01*
X168680533Y-127957747D01*
X168614018Y-127947212D01*
X178466593Y-76213553D02*
X178228497Y-75801159D01*
X179094522Y-75301159D01*
X179713570Y-76373382D02*
X179618332Y-76208424D01*
X179529474Y-76149755D01*
X179464425Y-76132325D01*
X179293088Y-76121275D01*
X179104322Y-76175274D01*
X178774407Y-76365750D01*
X178715738Y-76454608D01*
X178698308Y-76519657D01*
X178704688Y-76625945D01*
X178799926Y-76790903D01*
X178888784Y-76849572D01*
X178953833Y-76867002D01*
X179060121Y-76860622D01*
X179266317Y-76741575D01*
X179324987Y-76652716D01*
X179342417Y-76587667D01*
X179336037Y-76481379D01*
X179240799Y-76316421D01*
X179151941Y-76257752D01*
X179086892Y-76240322D01*
X178980603Y-76246703D01*
X144373334Y-56662381D02*
X143897143Y-56662381D01*
X143897143Y-55662381D01*
X145230477Y-56662381D02*
X144659048Y-56662381D01*
X144944762Y-56662381D02*
X144944762Y-55662381D01*
X144849524Y-55805238D01*
X144754286Y-55900476D01*
X144659048Y-55948095D01*
X135726298Y-69911898D02*
X135273414Y-70059049D01*
X134964397Y-69107992D01*
X135718441Y-68963127D02*
X135749015Y-68903124D01*
X135824876Y-68828405D01*
X136051319Y-68754830D01*
X136156611Y-68770688D01*
X136216614Y-68801261D01*
X136291333Y-68877123D01*
X136320763Y-68967700D01*
X136319620Y-69118280D01*
X135952740Y-69838322D01*
X136541490Y-69647026D01*
X136821221Y-68504673D02*
X136911799Y-68475243D01*
X137017091Y-68491101D01*
X137077094Y-68521674D01*
X137151813Y-68597536D01*
X137255961Y-68763974D01*
X137329537Y-68990417D01*
X137343109Y-69186286D01*
X137327251Y-69291577D01*
X137296678Y-69351581D01*
X137220816Y-69426299D01*
X137130238Y-69455730D01*
X137024946Y-69439872D01*
X136964943Y-69409298D01*
X136890224Y-69333437D01*
X136786076Y-69166998D01*
X136712500Y-68940556D01*
X136698928Y-68744687D01*
X136714786Y-68639395D01*
X136745360Y-68579392D01*
X136821221Y-68504673D01*
X128154759Y-74013686D02*
X127769512Y-74293584D01*
X127181727Y-73484567D01*
X128848202Y-73509870D02*
X128385906Y-73845747D01*
X128617054Y-73677809D02*
X128029268Y-72868792D01*
X128036188Y-73040345D01*
X128015119Y-73173374D01*
X127966059Y-73267878D01*
X129233448Y-73229972D02*
X129387546Y-73118013D01*
X129436606Y-73023509D01*
X129447141Y-72956994D01*
X129440221Y-72785441D01*
X129366787Y-72603353D01*
X129142868Y-72295156D01*
X129048364Y-72246096D01*
X128981850Y-72235561D01*
X128876811Y-72253016D01*
X128722712Y-72364976D01*
X128673652Y-72459480D01*
X128663117Y-72525994D01*
X128680572Y-72631033D01*
X128820521Y-72823656D01*
X128915025Y-72872715D01*
X128981540Y-72883251D01*
X129086579Y-72865796D01*
X129240678Y-72753837D01*
X129289737Y-72659333D01*
X129300272Y-72592817D01*
X129282817Y-72487778D01*
X122229184Y-80245825D02*
X121949286Y-80631072D01*
X121140269Y-80043286D01*
X122733000Y-79552382D02*
X122397123Y-80014678D01*
X122565061Y-79783530D02*
X121756044Y-79195745D01*
X121815638Y-79356763D01*
X121836708Y-79489792D01*
X121819253Y-79594831D01*
X122606581Y-78754209D02*
X122512077Y-78803269D01*
X122445563Y-78813804D01*
X122340524Y-78796349D01*
X122301999Y-78768359D01*
X122252940Y-78673855D01*
X122242405Y-78607341D01*
X122259860Y-78502302D01*
X122371820Y-78348203D01*
X122466324Y-78299143D01*
X122532838Y-78288608D01*
X122637877Y-78306063D01*
X122676401Y-78334053D01*
X122725461Y-78428557D01*
X122735996Y-78495071D01*
X122718541Y-78600110D01*
X122606581Y-78754209D01*
X122589126Y-78859248D01*
X122599661Y-78925763D01*
X122648721Y-79020267D01*
X122802820Y-79132226D01*
X122907859Y-79149681D01*
X122974373Y-79139146D01*
X123068877Y-79090087D01*
X123180837Y-78935988D01*
X123198292Y-78830949D01*
X123187757Y-78764435D01*
X123138697Y-78669930D01*
X122984599Y-78557971D01*
X122879559Y-78540516D01*
X122813045Y-78551051D01*
X122718541Y-78600110D01*
X118513688Y-88014191D02*
X118366537Y-88467075D01*
X117415481Y-88158058D01*
X118778560Y-87198999D02*
X118601979Y-87742461D01*
X118690269Y-87470730D02*
X117739213Y-87161713D01*
X117845648Y-87296435D01*
X117906794Y-87416442D01*
X117922652Y-87521734D01*
X117930509Y-86572964D02*
X118136520Y-85938926D01*
X118955141Y-86655539D01*
X117382381Y-96542857D02*
X117382381Y-97019048D01*
X116382381Y-97019048D01*
X117382381Y-95685714D02*
X117382381Y-96257143D01*
X117382381Y-95971429D02*
X116382381Y-95971429D01*
X116525238Y-96066667D01*
X116620476Y-96161905D01*
X116668095Y-96257143D01*
X116382381Y-94828571D02*
X116382381Y-95019048D01*
X116430000Y-95114286D01*
X116477619Y-95161905D01*
X116620476Y-95257143D01*
X116810952Y-95304762D01*
X117191905Y-95304762D01*
X117287143Y-95257143D01*
X117334762Y-95209524D01*
X117382381Y-95114286D01*
X117382381Y-94923809D01*
X117334762Y-94828571D01*
X117287143Y-94780952D01*
X117191905Y-94733333D01*
X116953810Y-94733333D01*
X116858571Y-94780952D01*
X116810952Y-94828571D01*
X116763333Y-94923809D01*
X116763333Y-95114286D01*
X116810952Y-95209524D01*
X116858571Y-95257143D01*
X116953810Y-95304762D01*
X117684110Y-104060502D02*
X117536959Y-103607618D01*
X118488016Y-103298601D01*
X117948982Y-104875694D02*
X117772401Y-104332232D01*
X117860691Y-104603962D02*
X118811748Y-104294945D01*
X118646453Y-104248514D01*
X118526446Y-104187367D01*
X118451727Y-104111506D01*
X119179625Y-105427156D02*
X119032474Y-104974272D01*
X118564876Y-105076134D01*
X118624879Y-105106707D01*
X118699598Y-105182569D01*
X118773173Y-105409012D01*
X118757315Y-105514304D01*
X118726742Y-105574307D01*
X118650879Y-105649026D01*
X118424437Y-105722601D01*
X118319146Y-105706743D01*
X118259142Y-105676170D01*
X118184424Y-105600308D01*
X118110848Y-105373865D01*
X118126706Y-105268574D01*
X118157279Y-105208570D01*
X121555994Y-112066883D02*
X121276096Y-111681636D01*
X122085113Y-111093851D01*
X122059810Y-112760326D02*
X121723933Y-112298030D01*
X121891871Y-112529178D02*
X122700888Y-111941392D01*
X122529335Y-111948312D01*
X122396306Y-111927243D01*
X122301802Y-111878183D01*
X123102971Y-113061912D02*
X122563626Y-113453769D01*
X123271219Y-112645370D02*
X122553400Y-112872594D01*
X122917268Y-113373415D01*
X127703855Y-118477060D02*
X127318608Y-118197162D01*
X127906394Y-117388145D01*
X128397298Y-118980876D02*
X127935002Y-118644999D01*
X128166150Y-118812937D02*
X128753935Y-118003920D01*
X128592917Y-118063514D01*
X128459888Y-118084584D01*
X128354849Y-118067129D01*
X129254755Y-118367787D02*
X129755576Y-118731655D01*
X129261985Y-118843922D01*
X129377560Y-118927892D01*
X129426619Y-119022396D01*
X129437154Y-119088911D01*
X129419698Y-119193950D01*
X129279750Y-119386573D01*
X129185245Y-119435633D01*
X129118731Y-119446168D01*
X129013692Y-119428713D01*
X128782544Y-119260774D01*
X128733485Y-119166269D01*
X128722950Y-119099755D01*
X135541817Y-122679484D02*
X135088933Y-122532333D01*
X135397950Y-121581277D01*
X136357009Y-122944356D02*
X135813547Y-122767775D01*
X136085278Y-122856065D02*
X136394295Y-121905009D01*
X136259573Y-122011444D01*
X136139566Y-122072590D01*
X136034274Y-122088448D01*
X136998902Y-122201597D02*
X137058906Y-122171023D01*
X137164198Y-122155165D01*
X137390640Y-122228741D01*
X137466502Y-122303460D01*
X137497075Y-122363463D01*
X137512934Y-122468755D01*
X137483503Y-122559331D01*
X137394070Y-122680481D01*
X136674027Y-123047361D01*
X137262777Y-123238658D01*
X144287143Y-124252381D02*
X143810952Y-124252381D01*
X143810952Y-123252381D01*
X145144286Y-124252381D02*
X144572857Y-124252381D01*
X144858571Y-124252381D02*
X144858571Y-123252381D01*
X144763333Y-123395238D01*
X144668095Y-123490476D01*
X144572857Y-123538095D01*
X146096667Y-124252381D02*
X145525238Y-124252381D01*
X145810952Y-124252381D02*
X145810952Y-123252381D01*
X145715714Y-123395238D01*
X145620476Y-123490476D01*
X145525238Y-123538095D01*
X153090502Y-123045890D02*
X152637618Y-123193041D01*
X152328601Y-122241984D01*
X153905694Y-122781018D02*
X153362232Y-122957599D01*
X153633962Y-122869309D02*
X153324945Y-121918252D01*
X153278514Y-122083547D01*
X153217367Y-122203554D01*
X153141506Y-122278273D01*
X154185425Y-121638665D02*
X154276003Y-121609235D01*
X154381295Y-121625093D01*
X154441298Y-121655666D01*
X154516017Y-121731528D01*
X154620165Y-121897966D01*
X154693741Y-122124409D01*
X154707313Y-122320278D01*
X154691455Y-122425569D01*
X154660882Y-122485573D01*
X154585020Y-122560291D01*
X154494442Y-122589722D01*
X154389150Y-122573864D01*
X154329147Y-122543290D01*
X154254428Y-122467429D01*
X154150280Y-122300990D01*
X154076704Y-122074548D01*
X154063132Y-121878679D01*
X154078990Y-121773387D01*
X154109564Y-121713384D01*
X154185425Y-121638665D01*
X161482129Y-118894108D02*
X161096883Y-119174006D01*
X160509097Y-118364989D01*
X161790326Y-118670190D02*
X161944424Y-118558231D01*
X161993484Y-118463726D01*
X162004019Y-118397212D01*
X161997099Y-118225659D01*
X161923665Y-118043570D01*
X161699746Y-117735373D01*
X161605242Y-117686314D01*
X161538728Y-117675779D01*
X161433689Y-117693234D01*
X161279590Y-117805193D01*
X161230530Y-117899697D01*
X161219996Y-117966212D01*
X161237450Y-118071251D01*
X161377399Y-118263873D01*
X161471903Y-118312933D01*
X161538418Y-118323469D01*
X161643457Y-118306014D01*
X161797556Y-118194054D01*
X161846616Y-118099550D01*
X161857150Y-118033035D01*
X161839695Y-117927996D01*
X167786958Y-112640899D02*
X167507060Y-113026145D01*
X166698043Y-112438360D01*
X167604560Y-111919775D02*
X167510056Y-111968835D01*
X167443541Y-111979369D01*
X167338502Y-111961915D01*
X167299978Y-111933925D01*
X167250918Y-111839421D01*
X167240384Y-111772906D01*
X167257839Y-111667867D01*
X167369798Y-111513768D01*
X167464302Y-111464709D01*
X167530817Y-111454174D01*
X167635855Y-111471629D01*
X167674380Y-111499619D01*
X167723439Y-111594123D01*
X167733974Y-111660637D01*
X167716519Y-111765676D01*
X167604560Y-111919775D01*
X167587105Y-112024814D01*
X167597640Y-112091328D01*
X167646700Y-112185833D01*
X167800798Y-112297792D01*
X167905837Y-112315247D01*
X167972351Y-112304712D01*
X168066856Y-112255653D01*
X168178815Y-112101554D01*
X168196270Y-111996515D01*
X168185735Y-111930000D01*
X168136676Y-111835496D01*
X167982577Y-111723537D01*
X167877538Y-111706082D01*
X167811023Y-111716617D01*
X167716519Y-111765676D01*
X171856635Y-104735298D02*
X171709484Y-105188183D01*
X170758428Y-104879166D01*
X170979154Y-104199839D02*
X171185166Y-103565801D01*
X172003786Y-104282415D01*
X173282381Y-95966666D02*
X173282381Y-96442857D01*
X172282381Y-96442857D01*
X172282381Y-95204761D02*
X172282381Y-95395238D01*
X172330000Y-95490476D01*
X172377619Y-95538095D01*
X172520476Y-95633333D01*
X172710952Y-95680952D01*
X173091905Y-95680952D01*
X173187143Y-95633333D01*
X173234762Y-95585714D01*
X173282381Y-95490476D01*
X173282381Y-95299999D01*
X173234762Y-95204761D01*
X173187143Y-95157142D01*
X173091905Y-95109523D01*
X172853810Y-95109523D01*
X172758571Y-95157142D01*
X172710952Y-95204761D01*
X172663333Y-95299999D01*
X172663333Y-95490476D01*
X172710952Y-95585714D01*
X172758571Y-95633333D01*
X172853810Y-95680952D01*
X170965253Y-87149183D02*
X170818102Y-86696298D01*
X171769159Y-86387281D01*
X172166467Y-87610069D02*
X172019316Y-87157184D01*
X171551717Y-87259047D01*
X171611720Y-87289620D01*
X171686439Y-87365482D01*
X171760015Y-87591924D01*
X171744156Y-87697216D01*
X171713583Y-87757220D01*
X171637720Y-87831938D01*
X171411279Y-87905514D01*
X171305987Y-87889656D01*
X171245983Y-87859082D01*
X171171265Y-87783221D01*
X171097689Y-87556778D01*
X171113547Y-87451486D01*
X171144121Y-87391483D01*
X166996212Y-79510005D02*
X166716314Y-79124759D01*
X167525331Y-78536973D01*
X167983394Y-79734542D02*
X167444049Y-80126399D01*
X168151641Y-79318001D02*
X167433823Y-79545225D01*
X167797690Y-80046045D01*
X160869421Y-73479082D02*
X160484175Y-73199184D01*
X161071960Y-72390167D01*
X161649830Y-72810014D02*
X162150650Y-73173881D01*
X161657059Y-73286149D01*
X161772634Y-73370119D01*
X161821693Y-73464623D01*
X161832228Y-73531137D01*
X161814772Y-73636177D01*
X161674824Y-73828800D01*
X161580320Y-73877859D01*
X161513805Y-73888394D01*
X161408766Y-73870939D01*
X161177618Y-73703000D01*
X161128559Y-73608496D01*
X161118024Y-73541982D01*
X153168694Y-69630839D02*
X152715809Y-69483688D01*
X153024826Y-68532632D01*
X153720011Y-68858650D02*
X153780014Y-68828077D01*
X153885306Y-68812218D01*
X154111749Y-68885794D01*
X154187610Y-68960513D01*
X154218184Y-69020516D01*
X154234042Y-69125808D01*
X154204612Y-69216385D01*
X154115178Y-69337535D01*
X153395136Y-69704415D01*
X153983885Y-69895711D01*
X144663334Y-68352381D02*
X144187143Y-68352381D01*
X144187143Y-67352381D01*
X145520477Y-68352381D02*
X144949048Y-68352381D01*
X145234762Y-68352381D02*
X145234762Y-67352381D01*
X145139524Y-67495238D01*
X145044286Y-67590476D01*
X144949048Y-67638095D01*
M02*
