G04 #@! TF.FileFunction,Soldermask,Top*
%FSLAX46Y46*%
G04 Gerber Fmt 4.6, Leading zero omitted, Abs format (unit mm)*
G04 Created by KiCad (PCBNEW 4.0.1-stable) date 1/15/2016 5:52:32 PM*
%MOMM*%
G01*
G04 APERTURE LIST*
%ADD10C,0.100000*%
%ADD11R,1.600000X1.150000*%
%ADD12C,1.924000*%
%ADD13R,1.600000X1.300000*%
%ADD14R,1.900000X1.300000*%
%ADD15R,1.150000X1.600000*%
%ADD16R,1.300000X1.900000*%
G04 APERTURE END LIST*
D10*
G36*
X171863670Y-118324746D02*
X172718287Y-119094246D01*
X171647678Y-120283278D01*
X170793061Y-119513778D01*
X171863670Y-118324746D01*
X171863670Y-118324746D01*
G37*
G36*
X170592322Y-119736722D02*
X171446939Y-120506222D01*
X170376330Y-121695254D01*
X169521713Y-120925754D01*
X170592322Y-119736722D01*
X170592322Y-119736722D01*
G37*
G36*
X150238693Y-61028590D02*
X150477791Y-59903720D01*
X152042827Y-60236378D01*
X151803729Y-61361248D01*
X150238693Y-61028590D01*
X150238693Y-61028590D01*
G37*
G36*
X152097173Y-61423622D02*
X152336271Y-60298752D01*
X153901307Y-60631410D01*
X153662209Y-61756280D01*
X152097173Y-61423622D01*
X152097173Y-61423622D01*
G37*
G36*
X157217422Y-62883499D02*
X157685169Y-61832922D01*
X159146842Y-62483701D01*
X158679095Y-63534278D01*
X157217422Y-62883499D01*
X157217422Y-62883499D01*
G37*
G36*
X158953158Y-63656299D02*
X159420905Y-62605722D01*
X160882578Y-63256501D01*
X160414831Y-64307078D01*
X158953158Y-63656299D01*
X158953158Y-63656299D01*
G37*
G36*
X163666244Y-66136561D02*
X164342197Y-65206191D01*
X165636624Y-66146647D01*
X164960671Y-67077017D01*
X163666244Y-66136561D01*
X163666244Y-66136561D01*
G37*
G36*
X165203376Y-67253353D02*
X165879329Y-66322983D01*
X167173756Y-67263439D01*
X166497803Y-68193809D01*
X165203376Y-67253353D01*
X165203376Y-67253353D01*
G37*
G36*
X169581713Y-70874246D02*
X170436330Y-70104746D01*
X171506939Y-71293778D01*
X170652322Y-72063278D01*
X169581713Y-70874246D01*
X169581713Y-70874246D01*
G37*
G36*
X170853061Y-72286222D02*
X171707678Y-71516722D01*
X172778287Y-72705754D01*
X171923670Y-73475254D01*
X170853061Y-72286222D01*
X170853061Y-72286222D01*
G37*
G36*
X174317035Y-76821956D02*
X175312965Y-76246956D01*
X176112965Y-77632596D01*
X175117035Y-78207596D01*
X174317035Y-76821956D01*
X174317035Y-76821956D01*
G37*
G36*
X175267035Y-78467404D02*
X176262965Y-77892404D01*
X177062965Y-79278044D01*
X176067035Y-79853044D01*
X175267035Y-78467404D01*
X175267035Y-78467404D01*
G37*
G36*
X177632363Y-83433336D02*
X178726078Y-83077966D01*
X179220505Y-84599656D01*
X178126790Y-84955026D01*
X177632363Y-83433336D01*
X177632363Y-83433336D01*
G37*
G36*
X178219495Y-85240344D02*
X179313210Y-84884974D01*
X179807637Y-86406664D01*
X178713922Y-86762034D01*
X178219495Y-85240344D01*
X178219495Y-85240344D01*
G37*
G36*
X179535225Y-90559690D02*
X180678925Y-90439483D01*
X180846171Y-92030718D01*
X179702471Y-92150925D01*
X179535225Y-90559690D01*
X179535225Y-90559690D01*
G37*
G36*
X179733829Y-92449282D02*
X180877529Y-92329075D01*
X181044775Y-93920310D01*
X179901075Y-94040517D01*
X179733829Y-92449282D01*
X179733829Y-92449282D01*
G37*
G36*
X179951075Y-97819483D02*
X181094775Y-97939690D01*
X180927529Y-99530925D01*
X179783829Y-99410718D01*
X179951075Y-97819483D01*
X179951075Y-97819483D01*
G37*
G36*
X179752471Y-99709075D02*
X180896171Y-99829282D01*
X180728925Y-101420517D01*
X179585225Y-101300310D01*
X179752471Y-99709075D01*
X179752471Y-99709075D01*
G37*
G36*
X178773922Y-105037966D02*
X179867637Y-105393336D01*
X179373210Y-106915026D01*
X178279495Y-106559656D01*
X178773922Y-105037966D01*
X178773922Y-105037966D01*
G37*
G36*
X178186790Y-106844974D02*
X179280505Y-107200344D01*
X178786078Y-108722034D01*
X177692363Y-108366664D01*
X178186790Y-106844974D01*
X178186790Y-106844974D01*
G37*
G36*
X176027035Y-112176956D02*
X177022965Y-112751956D01*
X176222965Y-114137596D01*
X175227035Y-113562596D01*
X176027035Y-112176956D01*
X176027035Y-112176956D01*
G37*
G36*
X175077035Y-113822404D02*
X176072965Y-114397404D01*
X175272965Y-115783044D01*
X174277035Y-115208044D01*
X175077035Y-113822404D01*
X175077035Y-113822404D01*
G37*
G36*
X166887803Y-123376191D02*
X167563756Y-124306561D01*
X166269329Y-125247017D01*
X165593376Y-124316647D01*
X166887803Y-123376191D01*
X166887803Y-123376191D01*
G37*
G36*
X165350671Y-124492983D02*
X166026624Y-125423353D01*
X164732197Y-126363809D01*
X164056244Y-125433439D01*
X165350671Y-124492983D01*
X165350671Y-124492983D01*
G37*
G36*
X160634831Y-127432922D02*
X161102578Y-128483499D01*
X159640905Y-129134278D01*
X159173158Y-128083701D01*
X160634831Y-127432922D01*
X160634831Y-127432922D01*
G37*
G36*
X158899095Y-128205722D02*
X159366842Y-129256299D01*
X157905169Y-129907078D01*
X157437422Y-128856501D01*
X158899095Y-128205722D01*
X158899095Y-128205722D01*
G37*
G36*
X153712209Y-130143720D02*
X153951307Y-131268590D01*
X152386271Y-131601248D01*
X152147173Y-130476378D01*
X153712209Y-130143720D01*
X153712209Y-130143720D01*
G37*
G36*
X151853729Y-130538752D02*
X152092827Y-131663622D01*
X150527791Y-131996280D01*
X150288693Y-130871410D01*
X151853729Y-130538752D01*
X151853729Y-130538752D01*
G37*
D11*
X145700000Y-131860000D03*
X143800000Y-131860000D03*
D10*
G36*
X138981307Y-130871410D02*
X138742209Y-131996280D01*
X137177173Y-131663622D01*
X137416271Y-130538752D01*
X138981307Y-130871410D01*
X138981307Y-130871410D01*
G37*
G36*
X137122827Y-130476378D02*
X136883729Y-131601248D01*
X135318693Y-131268590D01*
X135557791Y-130143720D01*
X137122827Y-130476378D01*
X137122827Y-130476378D01*
G37*
G36*
X131932578Y-128966501D02*
X131464831Y-130017078D01*
X130003158Y-129366299D01*
X130470905Y-128315722D01*
X131932578Y-128966501D01*
X131932578Y-128966501D01*
G37*
G36*
X130196842Y-128193701D02*
X129729095Y-129244278D01*
X128267422Y-128593499D01*
X128735169Y-127542922D01*
X130196842Y-128193701D01*
X130196842Y-128193701D01*
G37*
G36*
X125213756Y-125433439D02*
X124537803Y-126363809D01*
X123243376Y-125423353D01*
X123919329Y-124492983D01*
X125213756Y-125433439D01*
X125213756Y-125433439D01*
G37*
G36*
X123676624Y-124316647D02*
X123000671Y-125247017D01*
X121706244Y-124306561D01*
X122382197Y-123376191D01*
X123676624Y-124316647D01*
X123676624Y-124316647D01*
G37*
G36*
X119628287Y-120815754D02*
X118773670Y-121585254D01*
X117703061Y-120396222D01*
X118557678Y-119626722D01*
X119628287Y-120815754D01*
X119628287Y-120815754D01*
G37*
G36*
X118356939Y-119403778D02*
X117502322Y-120173278D01*
X116431713Y-118984246D01*
X117286330Y-118214746D01*
X118356939Y-119403778D01*
X118356939Y-119403778D01*
G37*
G36*
X114932965Y-115258044D02*
X113937035Y-115833044D01*
X113137035Y-114447404D01*
X114132965Y-113872404D01*
X114932965Y-115258044D01*
X114932965Y-115258044D01*
G37*
G36*
X113982965Y-113612596D02*
X112987035Y-114187596D01*
X112187035Y-112801956D01*
X113182965Y-112226956D01*
X113982965Y-113612596D01*
X113982965Y-113612596D01*
G37*
G36*
X111637637Y-108476664D02*
X110543922Y-108832034D01*
X110049495Y-107310344D01*
X111143210Y-106954974D01*
X111637637Y-108476664D01*
X111637637Y-108476664D01*
G37*
G36*
X111050505Y-106669656D02*
X109956790Y-107025026D01*
X109462363Y-105503336D01*
X110556078Y-105147966D01*
X111050505Y-106669656D01*
X111050505Y-106669656D01*
G37*
G36*
X109734775Y-101460310D02*
X108591075Y-101580517D01*
X108423829Y-99989282D01*
X109567529Y-99869075D01*
X109734775Y-101460310D01*
X109734775Y-101460310D01*
G37*
G36*
X109536171Y-99570718D02*
X108392471Y-99690925D01*
X108225225Y-98099690D01*
X109368925Y-97979483D01*
X109536171Y-99570718D01*
X109536171Y-99570718D01*
G37*
G36*
X109318925Y-93930517D02*
X108175225Y-93810310D01*
X108342471Y-92219075D01*
X109486171Y-92339282D01*
X109318925Y-93930517D01*
X109318925Y-93930517D01*
G37*
G36*
X109517529Y-92040925D02*
X108373829Y-91920718D01*
X108541075Y-90329483D01*
X109684775Y-90449690D01*
X109517529Y-92040925D01*
X109517529Y-92040925D01*
G37*
G36*
X110446078Y-86652034D02*
X109352363Y-86296664D01*
X109846790Y-84774974D01*
X110940505Y-85130344D01*
X110446078Y-86652034D01*
X110446078Y-86652034D01*
G37*
G36*
X111033210Y-84845026D02*
X109939495Y-84489656D01*
X110433922Y-82967966D01*
X111527637Y-83323336D01*
X111033210Y-84845026D01*
X111033210Y-84845026D01*
G37*
G36*
X113132965Y-79793044D02*
X112137035Y-79218044D01*
X112937035Y-77832404D01*
X113932965Y-78407404D01*
X113132965Y-79793044D01*
X113132965Y-79793044D01*
G37*
G36*
X114082965Y-78147596D02*
X113087035Y-77572596D01*
X113887035Y-76186956D01*
X114882965Y-76761956D01*
X114082965Y-78147596D01*
X114082965Y-78147596D01*
G37*
G36*
X117126330Y-73475254D02*
X116271713Y-72705754D01*
X117342322Y-71516722D01*
X118196939Y-72286222D01*
X117126330Y-73475254D01*
X117126330Y-73475254D01*
G37*
G36*
X118397678Y-72063278D02*
X117543061Y-71293778D01*
X118613670Y-70104746D01*
X119468287Y-70874246D01*
X118397678Y-72063278D01*
X118397678Y-72063278D01*
G37*
G36*
X122432197Y-68363809D02*
X121756244Y-67433439D01*
X123050671Y-66492983D01*
X123726624Y-67423353D01*
X122432197Y-68363809D01*
X122432197Y-68363809D01*
G37*
G36*
X123969329Y-67247017D02*
X123293376Y-66316647D01*
X124587803Y-65376191D01*
X125263756Y-66306561D01*
X123969329Y-67247017D01*
X123969329Y-67247017D01*
G37*
G36*
X128625169Y-64477078D02*
X128157422Y-63426501D01*
X129619095Y-62775722D01*
X130086842Y-63826299D01*
X128625169Y-64477078D01*
X128625169Y-64477078D01*
G37*
G36*
X130360905Y-63704278D02*
X129893158Y-62653701D01*
X131354831Y-62002922D01*
X131822578Y-63053499D01*
X130360905Y-63704278D01*
X130360905Y-63704278D01*
G37*
G36*
X135607791Y-61756280D02*
X135368693Y-60631410D01*
X136933729Y-60298752D01*
X137172827Y-61423622D01*
X135607791Y-61756280D01*
X135607791Y-61756280D01*
G37*
G36*
X137466271Y-61361248D02*
X137227173Y-60236378D01*
X138792209Y-59903720D01*
X139031307Y-61028590D01*
X137466271Y-61361248D01*
X137466271Y-61361248D01*
G37*
D12*
X108410000Y-95990000D03*
X140780000Y-59760000D03*
X109100000Y-103440000D03*
X177830000Y-81210000D03*
X180200000Y-88430000D03*
X133430000Y-61300000D03*
D13*
X143480000Y-60160000D03*
X145680000Y-60160000D03*
D10*
G36*
X137589309Y-55739985D02*
X137319024Y-54468393D01*
X139177505Y-54073361D01*
X139447790Y-55344953D01*
X137589309Y-55739985D01*
X137589309Y-55739985D01*
G37*
G36*
X138275418Y-58967872D02*
X138005133Y-57696280D01*
X139863614Y-57301248D01*
X140133899Y-58572840D01*
X138275418Y-58967872D01*
X138275418Y-58967872D01*
G37*
G36*
X132796386Y-56758752D02*
X132526101Y-55487160D01*
X134384582Y-55092128D01*
X134654867Y-56363720D01*
X132796386Y-56758752D01*
X132796386Y-56758752D01*
G37*
G36*
X133482495Y-59986639D02*
X133212210Y-58715047D01*
X135070691Y-58320015D01*
X135340976Y-59591607D01*
X133482495Y-59986639D01*
X133482495Y-59986639D01*
G37*
G36*
X129393582Y-58076349D02*
X128864824Y-56888740D01*
X130600560Y-56115941D01*
X131129318Y-57303550D01*
X129393582Y-58076349D01*
X129393582Y-58076349D01*
G37*
G36*
X130735813Y-61091049D02*
X130207055Y-59903440D01*
X131942791Y-59130641D01*
X132471549Y-60318250D01*
X130735813Y-61091049D01*
X130735813Y-61091049D01*
G37*
G36*
X124917209Y-60069359D02*
X124388451Y-58881750D01*
X126124187Y-58108951D01*
X126652945Y-59296560D01*
X124917209Y-60069359D01*
X124917209Y-60069359D01*
G37*
G36*
X126259440Y-63084059D02*
X125730682Y-61896450D01*
X127466418Y-61123651D01*
X127995176Y-62311260D01*
X126259440Y-63084059D01*
X126259440Y-63084059D01*
G37*
G36*
X121855740Y-62059305D02*
X121091619Y-61007583D01*
X122628752Y-59890791D01*
X123392873Y-60942513D01*
X121855740Y-62059305D01*
X121855740Y-62059305D01*
G37*
G36*
X123795431Y-64729061D02*
X123031310Y-63677339D01*
X124568443Y-62560547D01*
X125332564Y-63612269D01*
X123795431Y-64729061D01*
X123795431Y-64729061D01*
G37*
G36*
X117891557Y-64939453D02*
X117127436Y-63887731D01*
X118664569Y-62770939D01*
X119428690Y-63822661D01*
X117891557Y-64939453D01*
X117891557Y-64939453D01*
G37*
G36*
X119831248Y-67609209D02*
X119067127Y-66557487D01*
X120604260Y-65440695D01*
X121368381Y-66492417D01*
X119831248Y-67609209D01*
X119831248Y-67609209D01*
G37*
G36*
X115320551Y-67526152D02*
X114354463Y-66656283D01*
X115625811Y-65244308D01*
X116591899Y-66114177D01*
X115320551Y-67526152D01*
X115320551Y-67526152D01*
G37*
G36*
X117772929Y-69734283D02*
X116806841Y-68864414D01*
X118078189Y-67452439D01*
X119044277Y-68322308D01*
X117772929Y-69734283D01*
X117772929Y-69734283D01*
G37*
G36*
X112041811Y-71167561D02*
X111075723Y-70297692D01*
X112347071Y-68885717D01*
X113313159Y-69755586D01*
X112041811Y-71167561D01*
X112041811Y-71167561D01*
G37*
G36*
X114494189Y-73375692D02*
X113528101Y-72505823D01*
X114799449Y-71093848D01*
X115765537Y-71963717D01*
X114494189Y-73375692D01*
X114494189Y-73375692D01*
G37*
G36*
X110053975Y-74230962D02*
X108928141Y-73580962D01*
X109878141Y-71935514D01*
X111003975Y-72585514D01*
X110053975Y-74230962D01*
X110053975Y-74230962D01*
G37*
G36*
X112911859Y-75880962D02*
X111786025Y-75230962D01*
X112736025Y-73585514D01*
X113861859Y-74235514D01*
X112911859Y-75880962D01*
X112911859Y-75880962D01*
G37*
G36*
X107603975Y-78474486D02*
X106478141Y-77824486D01*
X107428141Y-76179038D01*
X108553975Y-76829038D01*
X107603975Y-78474486D01*
X107603975Y-78474486D01*
G37*
G36*
X110461859Y-80124486D02*
X109336025Y-79474486D01*
X110286025Y-77829038D01*
X111411859Y-78479038D01*
X110461859Y-80124486D01*
X110461859Y-80124486D01*
G37*
G36*
X106312469Y-81884398D02*
X105076095Y-81482676D01*
X105663227Y-79675668D01*
X106899601Y-80077390D01*
X106312469Y-81884398D01*
X106312469Y-81884398D01*
G37*
G36*
X109450956Y-82904155D02*
X108214582Y-82502433D01*
X108801714Y-80695425D01*
X110038088Y-81097147D01*
X109450956Y-82904155D01*
X109450956Y-82904155D01*
G37*
G36*
X104798286Y-86544575D02*
X103561912Y-86142853D01*
X104149044Y-84335845D01*
X105385418Y-84737567D01*
X104798286Y-86544575D01*
X104798286Y-86544575D01*
G37*
G36*
X107936773Y-87564332D02*
X106700399Y-87162610D01*
X107287531Y-85355602D01*
X108523905Y-85757324D01*
X107936773Y-87564332D01*
X107936773Y-87564332D01*
G37*
G36*
X104232271Y-90153688D02*
X102939393Y-90017801D01*
X103137997Y-88128210D01*
X104430875Y-88264097D01*
X104232271Y-90153688D01*
X104232271Y-90153688D01*
G37*
G36*
X107514193Y-90498632D02*
X106221315Y-90362745D01*
X106419919Y-88473154D01*
X107712797Y-88609041D01*
X107514193Y-90498632D01*
X107514193Y-90498632D01*
G37*
G36*
X103720081Y-95026846D02*
X102427203Y-94890959D01*
X102625807Y-93001368D01*
X103918685Y-93137255D01*
X103720081Y-95026846D01*
X103720081Y-95026846D01*
G37*
G36*
X107002003Y-95371790D02*
X105709125Y-95235903D01*
X105907729Y-93346312D01*
X107200607Y-93482199D01*
X107002003Y-95371790D01*
X107002003Y-95371790D01*
G37*
G36*
X103918685Y-98662745D02*
X102625807Y-98798632D01*
X102427203Y-96909041D01*
X103720081Y-96773154D01*
X103918685Y-98662745D01*
X103918685Y-98662745D01*
G37*
G36*
X107200607Y-98317801D02*
X105907729Y-98453688D01*
X105709125Y-96564097D01*
X107002003Y-96428210D01*
X107200607Y-98317801D01*
X107200607Y-98317801D01*
G37*
G36*
X104430875Y-103535903D02*
X103137997Y-103671790D01*
X102939393Y-101782199D01*
X104232271Y-101646312D01*
X104430875Y-103535903D01*
X104430875Y-103535903D01*
G37*
G36*
X107712797Y-103190959D02*
X106419919Y-103326846D01*
X106221315Y-101437255D01*
X107514193Y-101301368D01*
X107712797Y-103190959D01*
X107712797Y-103190959D01*
G37*
G36*
X105385418Y-107062433D02*
X104149044Y-107464155D01*
X103561912Y-105657147D01*
X104798286Y-105255425D01*
X105385418Y-107062433D01*
X105385418Y-107062433D01*
G37*
G36*
X108523905Y-106042676D02*
X107287531Y-106444398D01*
X106700399Y-104637390D01*
X107936773Y-104235668D01*
X108523905Y-106042676D01*
X108523905Y-106042676D01*
G37*
G36*
X106899601Y-111722610D02*
X105663227Y-112124332D01*
X105076095Y-110317324D01*
X106312469Y-109915602D01*
X106899601Y-111722610D01*
X106899601Y-111722610D01*
G37*
G36*
X110038088Y-110702853D02*
X108801714Y-111104575D01*
X108214582Y-109297567D01*
X109450956Y-108895845D01*
X110038088Y-110702853D01*
X110038088Y-110702853D01*
G37*
G36*
X108553975Y-114970962D02*
X107428141Y-115620962D01*
X106478141Y-113975514D01*
X107603975Y-113325514D01*
X108553975Y-114970962D01*
X108553975Y-114970962D01*
G37*
G36*
X111411859Y-113320962D02*
X110286025Y-113970962D01*
X109336025Y-112325514D01*
X110461859Y-111675514D01*
X111411859Y-113320962D01*
X111411859Y-113320962D01*
G37*
G36*
X111003975Y-119214486D02*
X109878141Y-119864486D01*
X108928141Y-118219038D01*
X110053975Y-117569038D01*
X111003975Y-119214486D01*
X111003975Y-119214486D01*
G37*
G36*
X113861859Y-117564486D02*
X112736025Y-118214486D01*
X111786025Y-116569038D01*
X112911859Y-115919038D01*
X113861859Y-117564486D01*
X113861859Y-117564486D01*
G37*
G36*
X113313159Y-122044414D02*
X112347071Y-122914283D01*
X111075723Y-121502308D01*
X112041811Y-120632439D01*
X113313159Y-122044414D01*
X113313159Y-122044414D01*
G37*
G36*
X115765537Y-119836283D02*
X114799449Y-120706152D01*
X113528101Y-119294177D01*
X114494189Y-118424308D01*
X115765537Y-119836283D01*
X115765537Y-119836283D01*
G37*
G36*
X116591899Y-125685823D02*
X115625811Y-126555692D01*
X114354463Y-125143717D01*
X115320551Y-124273848D01*
X116591899Y-125685823D01*
X116591899Y-125685823D01*
G37*
G36*
X119044277Y-123477692D02*
X118078189Y-124347561D01*
X116806841Y-122935586D01*
X117772929Y-122065717D01*
X119044277Y-123477692D01*
X119044277Y-123477692D01*
G37*
G36*
X119428690Y-127977339D02*
X118664569Y-129029061D01*
X117127436Y-127912269D01*
X117891557Y-126860547D01*
X119428690Y-127977339D01*
X119428690Y-127977339D01*
G37*
G36*
X121368381Y-125307583D02*
X120604260Y-126359305D01*
X119067127Y-125242513D01*
X119831248Y-124190791D01*
X121368381Y-125307583D01*
X121368381Y-125307583D01*
G37*
G36*
X123392873Y-130857487D02*
X122628752Y-131909209D01*
X121091619Y-130792417D01*
X121855740Y-129740695D01*
X123392873Y-130857487D01*
X123392873Y-130857487D01*
G37*
G36*
X125332564Y-128187731D02*
X124568443Y-129239453D01*
X123031310Y-128122661D01*
X123795431Y-127070939D01*
X125332564Y-128187731D01*
X125332564Y-128187731D01*
G37*
G36*
X126652945Y-132503440D02*
X126124187Y-133691049D01*
X124388451Y-132918250D01*
X124917209Y-131730641D01*
X126652945Y-132503440D01*
X126652945Y-132503440D01*
G37*
G36*
X127995176Y-129488740D02*
X127466418Y-130676349D01*
X125730682Y-129903550D01*
X126259440Y-128715941D01*
X127995176Y-129488740D01*
X127995176Y-129488740D01*
G37*
G36*
X131129318Y-134496450D02*
X130600560Y-135684059D01*
X128864824Y-134911260D01*
X129393582Y-133723651D01*
X131129318Y-134496450D01*
X131129318Y-134496450D01*
G37*
G36*
X132471549Y-131481750D02*
X131942791Y-132669359D01*
X130207055Y-131896560D01*
X130735813Y-130708951D01*
X132471549Y-131481750D01*
X132471549Y-131481750D01*
G37*
G36*
X134654867Y-135436280D02*
X134384582Y-136707872D01*
X132526101Y-136312840D01*
X132796386Y-135041248D01*
X134654867Y-135436280D01*
X134654867Y-135436280D01*
G37*
G36*
X135340976Y-132208393D02*
X135070691Y-133479985D01*
X133212210Y-133084953D01*
X133482495Y-131813361D01*
X135340976Y-132208393D01*
X135340976Y-132208393D01*
G37*
G36*
X139447790Y-136455047D02*
X139177505Y-137726639D01*
X137319024Y-137331607D01*
X137589309Y-136060015D01*
X139447790Y-136455047D01*
X139447790Y-136455047D01*
G37*
G36*
X140133899Y-133227160D02*
X139863614Y-134498752D01*
X138005133Y-134103720D01*
X138275418Y-132832128D01*
X140133899Y-133227160D01*
X140133899Y-133227160D01*
G37*
D14*
X142140000Y-137290000D03*
X142140000Y-133990000D03*
X147040000Y-137290000D03*
X147040000Y-133990000D03*
D10*
G36*
X151590691Y-136060015D02*
X151860976Y-137331607D01*
X150002495Y-137726639D01*
X149732210Y-136455047D01*
X151590691Y-136060015D01*
X151590691Y-136060015D01*
G37*
G36*
X150904582Y-132832128D02*
X151174867Y-134103720D01*
X149316386Y-134498752D01*
X149046101Y-133227160D01*
X150904582Y-132832128D01*
X150904582Y-132832128D01*
G37*
G36*
X156383614Y-135041248D02*
X156653899Y-136312840D01*
X154795418Y-136707872D01*
X154525133Y-135436280D01*
X156383614Y-135041248D01*
X156383614Y-135041248D01*
G37*
G36*
X155697505Y-131813361D02*
X155967790Y-133084953D01*
X154109309Y-133479985D01*
X153839024Y-132208393D01*
X155697505Y-131813361D01*
X155697505Y-131813361D01*
G37*
G36*
X159786418Y-133723651D02*
X160315176Y-134911260D01*
X158579440Y-135684059D01*
X158050682Y-134496450D01*
X159786418Y-133723651D01*
X159786418Y-133723651D01*
G37*
G36*
X158444187Y-130708951D02*
X158972945Y-131896560D01*
X157237209Y-132669359D01*
X156708451Y-131481750D01*
X158444187Y-130708951D01*
X158444187Y-130708951D01*
G37*
G36*
X164262791Y-131730641D02*
X164791549Y-132918250D01*
X163055813Y-133691049D01*
X162527055Y-132503440D01*
X164262791Y-131730641D01*
X164262791Y-131730641D01*
G37*
G36*
X162920560Y-128715941D02*
X163449318Y-129903550D01*
X161713582Y-130676349D01*
X161184824Y-129488740D01*
X162920560Y-128715941D01*
X162920560Y-128715941D01*
G37*
G36*
X173859449Y-124273848D02*
X174825537Y-125143717D01*
X173554189Y-126555692D01*
X172588101Y-125685823D01*
X173859449Y-124273848D01*
X173859449Y-124273848D01*
G37*
G36*
X171407071Y-122065717D02*
X172373159Y-122935586D01*
X171101811Y-124347561D01*
X170135723Y-123477692D01*
X171407071Y-122065717D01*
X171407071Y-122065717D01*
G37*
G36*
X177138189Y-120632439D02*
X178104277Y-121502308D01*
X176832929Y-122914283D01*
X175866841Y-122044414D01*
X177138189Y-120632439D01*
X177138189Y-120632439D01*
G37*
G36*
X174685811Y-118424308D02*
X175651899Y-119294177D01*
X174380551Y-120706152D01*
X173414463Y-119836283D01*
X174685811Y-118424308D01*
X174685811Y-118424308D01*
G37*
G36*
X179126025Y-117569038D02*
X180251859Y-118219038D01*
X179301859Y-119864486D01*
X178176025Y-119214486D01*
X179126025Y-117569038D01*
X179126025Y-117569038D01*
G37*
G36*
X176268141Y-115919038D02*
X177393975Y-116569038D01*
X176443975Y-118214486D01*
X175318141Y-117564486D01*
X176268141Y-115919038D01*
X176268141Y-115919038D01*
G37*
G36*
X181576025Y-113325514D02*
X182701859Y-113975514D01*
X181751859Y-115620962D01*
X180626025Y-114970962D01*
X181576025Y-113325514D01*
X181576025Y-113325514D01*
G37*
G36*
X178718141Y-111675514D02*
X179843975Y-112325514D01*
X178893975Y-113970962D01*
X177768141Y-113320962D01*
X178718141Y-111675514D01*
X178718141Y-111675514D01*
G37*
G36*
X182877531Y-109915602D02*
X184113905Y-110317324D01*
X183526773Y-112124332D01*
X182290399Y-111722610D01*
X182877531Y-109915602D01*
X182877531Y-109915602D01*
G37*
G36*
X179739044Y-108895845D02*
X180975418Y-109297567D01*
X180388286Y-111104575D01*
X179151912Y-110702853D01*
X179739044Y-108895845D01*
X179739044Y-108895845D01*
G37*
G36*
X184391714Y-105255425D02*
X185628088Y-105657147D01*
X185040956Y-107464155D01*
X183804582Y-107062433D01*
X184391714Y-105255425D01*
X184391714Y-105255425D01*
G37*
G36*
X181253227Y-104235668D02*
X182489601Y-104637390D01*
X181902469Y-106444398D01*
X180666095Y-106042676D01*
X181253227Y-104235668D01*
X181253227Y-104235668D01*
G37*
G36*
X184947729Y-101646312D02*
X186240607Y-101782199D01*
X186042003Y-103671790D01*
X184749125Y-103535903D01*
X184947729Y-101646312D01*
X184947729Y-101646312D01*
G37*
G36*
X181665807Y-101301368D02*
X182958685Y-101437255D01*
X182760081Y-103326846D01*
X181467203Y-103190959D01*
X181665807Y-101301368D01*
X181665807Y-101301368D01*
G37*
G36*
X185459919Y-96773154D02*
X186752797Y-96909041D01*
X186554193Y-98798632D01*
X185261315Y-98662745D01*
X185459919Y-96773154D01*
X185459919Y-96773154D01*
G37*
G36*
X182177997Y-96428210D02*
X183470875Y-96564097D01*
X183272271Y-98453688D01*
X181979393Y-98317801D01*
X182177997Y-96428210D01*
X182177997Y-96428210D01*
G37*
G36*
X185261315Y-93137255D02*
X186554193Y-93001368D01*
X186752797Y-94890959D01*
X185459919Y-95026846D01*
X185261315Y-93137255D01*
X185261315Y-93137255D01*
G37*
G36*
X181979393Y-93482199D02*
X183272271Y-93346312D01*
X183470875Y-95235903D01*
X182177997Y-95371790D01*
X181979393Y-93482199D01*
X181979393Y-93482199D01*
G37*
G36*
X184749125Y-88264097D02*
X186042003Y-88128210D01*
X186240607Y-90017801D01*
X184947729Y-90153688D01*
X184749125Y-88264097D01*
X184749125Y-88264097D01*
G37*
G36*
X181467203Y-88609041D02*
X182760081Y-88473154D01*
X182958685Y-90362745D01*
X181665807Y-90498632D01*
X181467203Y-88609041D01*
X181467203Y-88609041D01*
G37*
G36*
X183794582Y-84737567D02*
X185030956Y-84335845D01*
X185618088Y-86142853D01*
X184381714Y-86544575D01*
X183794582Y-84737567D01*
X183794582Y-84737567D01*
G37*
G36*
X180656095Y-85757324D02*
X181892469Y-85355602D01*
X182479601Y-87162610D01*
X181243227Y-87564332D01*
X180656095Y-85757324D01*
X180656095Y-85757324D01*
G37*
G36*
X182280399Y-80077390D02*
X183516773Y-79675668D01*
X184103905Y-81482676D01*
X182867531Y-81884398D01*
X182280399Y-80077390D01*
X182280399Y-80077390D01*
G37*
G36*
X179141912Y-81097147D02*
X180378286Y-80695425D01*
X180965418Y-82502433D01*
X179729044Y-82904155D01*
X179141912Y-81097147D01*
X179141912Y-81097147D01*
G37*
G36*
X175866841Y-69755586D02*
X176832929Y-68885717D01*
X178104277Y-70297692D01*
X177138189Y-71167561D01*
X175866841Y-69755586D01*
X175866841Y-69755586D01*
G37*
G36*
X173414463Y-71963717D02*
X174380551Y-71093848D01*
X175651899Y-72505823D01*
X174685811Y-73375692D01*
X173414463Y-71963717D01*
X173414463Y-71963717D01*
G37*
G36*
X172588101Y-66114177D02*
X173554189Y-65244308D01*
X174825537Y-66656283D01*
X173859449Y-67526152D01*
X172588101Y-66114177D01*
X172588101Y-66114177D01*
G37*
G36*
X170135723Y-68322308D02*
X171101811Y-67452439D01*
X172373159Y-68864414D01*
X171407071Y-69734283D01*
X170135723Y-68322308D01*
X170135723Y-68322308D01*
G37*
G36*
X169751310Y-63822661D02*
X170515431Y-62770939D01*
X172052564Y-63887731D01*
X171288443Y-64939453D01*
X169751310Y-63822661D01*
X169751310Y-63822661D01*
G37*
G36*
X167811619Y-66492417D02*
X168575740Y-65440695D01*
X170112873Y-66557487D01*
X169348752Y-67609209D01*
X167811619Y-66492417D01*
X167811619Y-66492417D01*
G37*
G36*
X165787127Y-60942513D02*
X166551248Y-59890791D01*
X168088381Y-61007583D01*
X167324260Y-62059305D01*
X165787127Y-60942513D01*
X165787127Y-60942513D01*
G37*
G36*
X163847436Y-63612269D02*
X164611557Y-62560547D01*
X166148690Y-63677339D01*
X165384569Y-64729061D01*
X163847436Y-63612269D01*
X163847436Y-63612269D01*
G37*
G36*
X162527055Y-59296560D02*
X163055813Y-58108951D01*
X164791549Y-58881750D01*
X164262791Y-60069359D01*
X162527055Y-59296560D01*
X162527055Y-59296560D01*
G37*
G36*
X161184824Y-62311260D02*
X161713582Y-61123651D01*
X163449318Y-61896450D01*
X162920560Y-63084059D01*
X161184824Y-62311260D01*
X161184824Y-62311260D01*
G37*
G36*
X158050682Y-57303550D02*
X158579440Y-56115941D01*
X160315176Y-56888740D01*
X159786418Y-58076349D01*
X158050682Y-57303550D01*
X158050682Y-57303550D01*
G37*
G36*
X156708451Y-60318250D02*
X157237209Y-59130641D01*
X158972945Y-59903440D01*
X158444187Y-61091049D01*
X156708451Y-60318250D01*
X156708451Y-60318250D01*
G37*
G36*
X154525133Y-56363720D02*
X154795418Y-55092128D01*
X156653899Y-55487160D01*
X156383614Y-56758752D01*
X154525133Y-56363720D01*
X154525133Y-56363720D01*
G37*
G36*
X153839024Y-59591607D02*
X154109309Y-58320015D01*
X155967790Y-58715047D01*
X155697505Y-59986639D01*
X153839024Y-59591607D01*
X153839024Y-59591607D01*
G37*
G36*
X149732210Y-55344953D02*
X150002495Y-54073361D01*
X151860976Y-54468393D01*
X151590691Y-55739985D01*
X149732210Y-55344953D01*
X149732210Y-55344953D01*
G37*
G36*
X149046101Y-58572840D02*
X149316386Y-57301248D01*
X151174867Y-57696280D01*
X150904582Y-58967872D01*
X149046101Y-58572840D01*
X149046101Y-58572840D01*
G37*
G36*
X167324260Y-129740695D02*
X168088381Y-130792417D01*
X166551248Y-131909209D01*
X165787127Y-130857487D01*
X167324260Y-129740695D01*
X167324260Y-129740695D01*
G37*
G36*
X165384569Y-127070939D02*
X166148690Y-128122661D01*
X164611557Y-129239453D01*
X163847436Y-128187731D01*
X165384569Y-127070939D01*
X165384569Y-127070939D01*
G37*
G36*
X171288443Y-126860547D02*
X172052564Y-127912269D01*
X170515431Y-129029061D01*
X169751310Y-127977339D01*
X171288443Y-126860547D01*
X171288443Y-126860547D01*
G37*
G36*
X169348752Y-124190791D02*
X170112873Y-125242513D01*
X168575740Y-126359305D01*
X167811619Y-125307583D01*
X169348752Y-124190791D01*
X169348752Y-124190791D01*
G37*
G36*
X180626025Y-76949038D02*
X181751859Y-76299038D01*
X182701859Y-77944486D01*
X181576025Y-78594486D01*
X180626025Y-76949038D01*
X180626025Y-76949038D01*
G37*
G36*
X177768141Y-78599038D02*
X178893975Y-77949038D01*
X179843975Y-79594486D01*
X178718141Y-80244486D01*
X177768141Y-78599038D01*
X177768141Y-78599038D01*
G37*
G36*
X178176025Y-72705514D02*
X179301859Y-72055514D01*
X180251859Y-73700962D01*
X179126025Y-74350962D01*
X178176025Y-72705514D01*
X178176025Y-72705514D01*
G37*
G36*
X175318141Y-74355514D02*
X176443975Y-73705514D01*
X177393975Y-75350962D01*
X176268141Y-76000962D01*
X175318141Y-74355514D01*
X175318141Y-74355514D01*
G37*
D14*
X147040000Y-54510000D03*
X147040000Y-57810000D03*
X142140000Y-54510000D03*
X142140000Y-57810000D03*
D10*
G36*
X150497966Y-72936078D02*
X150853336Y-71842363D01*
X152375026Y-72336790D01*
X152019656Y-73430505D01*
X150497966Y-72936078D01*
X150497966Y-72936078D01*
G37*
G36*
X152304974Y-73523210D02*
X152660344Y-72429495D01*
X154182034Y-72923922D01*
X153826664Y-74017637D01*
X152304974Y-73523210D01*
X152304974Y-73523210D01*
G37*
G36*
X157316244Y-75776561D02*
X157992197Y-74846191D01*
X159286624Y-75786647D01*
X158610671Y-76717017D01*
X157316244Y-75776561D01*
X157316244Y-75776561D01*
G37*
G36*
X158853376Y-76893353D02*
X159529329Y-75962983D01*
X160823756Y-76903439D01*
X160147803Y-77833809D01*
X158853376Y-76893353D01*
X158853376Y-76893353D01*
G37*
G36*
X163046191Y-80492197D02*
X163976561Y-79816244D01*
X164917017Y-81110671D01*
X163986647Y-81786624D01*
X163046191Y-80492197D01*
X163046191Y-80492197D01*
G37*
G36*
X164162983Y-82029329D02*
X165093353Y-81353376D01*
X166033809Y-82647803D01*
X165103439Y-83323756D01*
X164162983Y-82029329D01*
X164162983Y-82029329D01*
G37*
G36*
X166772363Y-86863336D02*
X167866078Y-86507966D01*
X168360505Y-88029656D01*
X167266790Y-88385026D01*
X166772363Y-86863336D01*
X166772363Y-86863336D01*
G37*
G36*
X167359495Y-88670344D02*
X168453210Y-88314974D01*
X168947637Y-89836664D01*
X167853922Y-90192034D01*
X167359495Y-88670344D01*
X167359495Y-88670344D01*
G37*
D15*
X169040000Y-94870000D03*
X169040000Y-96770000D03*
D10*
G36*
X167813922Y-101477966D02*
X168907637Y-101833336D01*
X168413210Y-103355026D01*
X167319495Y-102999656D01*
X167813922Y-101477966D01*
X167813922Y-101477966D01*
G37*
G36*
X167226790Y-103284974D02*
X168320505Y-103640344D01*
X167826078Y-105162034D01*
X166732363Y-104806664D01*
X167226790Y-103284974D01*
X167226790Y-103284974D01*
G37*
G36*
X165073439Y-108306244D02*
X166003809Y-108982197D01*
X165063353Y-110276624D01*
X164132983Y-109600671D01*
X165073439Y-108306244D01*
X165073439Y-108306244D01*
G37*
G36*
X163956647Y-109843376D02*
X164887017Y-110519329D01*
X163946561Y-111813756D01*
X163016191Y-111137803D01*
X163956647Y-109843376D01*
X163956647Y-109843376D01*
G37*
G36*
X160137803Y-113946191D02*
X160813756Y-114876561D01*
X159519329Y-115817017D01*
X158843376Y-114886647D01*
X160137803Y-113946191D01*
X160137803Y-113946191D01*
G37*
G36*
X158600671Y-115062983D02*
X159276624Y-115993353D01*
X157982197Y-116933809D01*
X157306244Y-116003439D01*
X158600671Y-115062983D01*
X158600671Y-115062983D01*
G37*
G36*
X153836664Y-117622363D02*
X154192034Y-118716078D01*
X152670344Y-119210505D01*
X152314974Y-118116790D01*
X153836664Y-117622363D01*
X153836664Y-117622363D01*
G37*
G36*
X152029656Y-118209495D02*
X152385026Y-119303210D01*
X150863336Y-119797637D01*
X150507966Y-118703922D01*
X152029656Y-118209495D01*
X152029656Y-118209495D01*
G37*
D11*
X145830000Y-119930000D03*
X143930000Y-119930000D03*
D10*
G36*
X139302034Y-118673922D02*
X138946664Y-119767637D01*
X137424974Y-119273210D01*
X137780344Y-118179495D01*
X139302034Y-118673922D01*
X139302034Y-118673922D01*
G37*
G36*
X137495026Y-118086790D02*
X137139656Y-119180505D01*
X135617966Y-118686078D01*
X135973336Y-117592363D01*
X137495026Y-118086790D01*
X137495026Y-118086790D01*
G37*
G36*
X132503756Y-115883439D02*
X131827803Y-116813809D01*
X130533376Y-115873353D01*
X131209329Y-114942983D01*
X132503756Y-115883439D01*
X132503756Y-115883439D01*
G37*
G36*
X130966624Y-114766647D02*
X130290671Y-115697017D01*
X128996244Y-114756561D01*
X129672197Y-113826191D01*
X130966624Y-114766647D01*
X130966624Y-114766647D01*
G37*
G36*
X126953809Y-111037803D02*
X126023439Y-111713756D01*
X125082983Y-110419329D01*
X126013353Y-109743376D01*
X126953809Y-111037803D01*
X126953809Y-111037803D01*
G37*
G36*
X125837017Y-109500671D02*
X124906647Y-110176624D01*
X123966191Y-108882197D01*
X124896561Y-108206244D01*
X125837017Y-109500671D01*
X125837017Y-109500671D01*
G37*
G36*
X123137637Y-104756664D02*
X122043922Y-105112034D01*
X121549495Y-103590344D01*
X122643210Y-103234974D01*
X123137637Y-104756664D01*
X123137637Y-104756664D01*
G37*
G36*
X122550505Y-102949656D02*
X121456790Y-103305026D01*
X120962363Y-101783336D01*
X122056078Y-101427966D01*
X122550505Y-102949656D01*
X122550505Y-102949656D01*
G37*
D15*
X120810000Y-96840000D03*
X120810000Y-94940000D03*
D10*
G36*
X122056078Y-90272034D02*
X120962363Y-89916664D01*
X121456790Y-88394974D01*
X122550505Y-88750344D01*
X122056078Y-90272034D01*
X122056078Y-90272034D01*
G37*
G36*
X122643210Y-88465026D02*
X121549495Y-88109656D01*
X122043922Y-86587966D01*
X123137637Y-86943336D01*
X122643210Y-88465026D01*
X122643210Y-88465026D01*
G37*
G36*
X124806561Y-83453756D02*
X123876191Y-82777803D01*
X124816647Y-81483376D01*
X125747017Y-82159329D01*
X124806561Y-83453756D01*
X124806561Y-83453756D01*
G37*
G36*
X125923353Y-81916624D02*
X124992983Y-81240671D01*
X125933439Y-79946244D01*
X126863809Y-80622197D01*
X125923353Y-81916624D01*
X125923353Y-81916624D01*
G37*
G36*
X129632197Y-77913809D02*
X128956244Y-76983439D01*
X130250671Y-76042983D01*
X130926624Y-76973353D01*
X129632197Y-77913809D01*
X129632197Y-77913809D01*
G37*
G36*
X131169329Y-76797017D02*
X130493376Y-75866647D01*
X131787803Y-74926191D01*
X132463756Y-75856561D01*
X131169329Y-76797017D01*
X131169329Y-76797017D01*
G37*
G36*
X135933336Y-73957637D02*
X135577966Y-72863922D01*
X137099656Y-72369495D01*
X137455026Y-73463210D01*
X135933336Y-73957637D01*
X135933336Y-73957637D01*
G37*
G36*
X137740344Y-73370505D02*
X137384974Y-72276790D01*
X138906664Y-71782363D01*
X139262034Y-72876078D01*
X137740344Y-73370505D01*
X137740344Y-73370505D01*
G37*
D12*
X148790000Y-71750000D03*
X120810000Y-99560000D03*
X120720000Y-91920000D03*
X133730000Y-74040000D03*
X166500000Y-106940000D03*
X169040000Y-99630000D03*
D13*
X143780000Y-71670000D03*
X145980000Y-71670000D03*
D10*
G36*
X137347567Y-67805418D02*
X136945845Y-66569044D01*
X138752853Y-65981912D01*
X139154575Y-67218286D01*
X137347567Y-67805418D01*
X137347567Y-67805418D01*
G37*
G36*
X138367324Y-70943905D02*
X137965602Y-69707531D01*
X139772610Y-69120399D01*
X140174332Y-70356773D01*
X138367324Y-70943905D01*
X138367324Y-70943905D01*
G37*
G36*
X132687390Y-69319601D02*
X132285668Y-68083227D01*
X134092676Y-67496095D01*
X134494398Y-68732469D01*
X132687390Y-69319601D01*
X132687390Y-69319601D01*
G37*
G36*
X133707147Y-72458088D02*
X133305425Y-71221714D01*
X135112433Y-70634582D01*
X135514155Y-71870956D01*
X133707147Y-72458088D01*
X133707147Y-72458088D01*
G37*
G36*
X129045740Y-71509305D02*
X128281619Y-70457583D01*
X129818752Y-69340791D01*
X130582873Y-70392513D01*
X129045740Y-71509305D01*
X129045740Y-71509305D01*
G37*
G36*
X130985431Y-74179061D02*
X130221310Y-73127339D01*
X131758443Y-72010547D01*
X132522564Y-73062269D01*
X130985431Y-74179061D01*
X130985431Y-74179061D01*
G37*
G36*
X125081557Y-74389453D02*
X124317436Y-73337731D01*
X125854569Y-72220939D01*
X126618690Y-73272661D01*
X125081557Y-74389453D01*
X125081557Y-74389453D01*
G37*
G36*
X127021248Y-77059209D02*
X126257127Y-76007487D01*
X127794260Y-74890695D01*
X128558381Y-75942417D01*
X127021248Y-77059209D01*
X127021248Y-77059209D01*
G37*
G36*
X122302661Y-77588690D02*
X121250939Y-76824569D01*
X122367731Y-75287436D01*
X123419453Y-76051557D01*
X122302661Y-77588690D01*
X122302661Y-77588690D01*
G37*
G36*
X124972417Y-79528381D02*
X123920695Y-78764260D01*
X125037487Y-77227127D01*
X126089209Y-77991248D01*
X124972417Y-79528381D01*
X124972417Y-79528381D01*
G37*
G36*
X119422513Y-81552873D02*
X118370791Y-80788752D01*
X119487583Y-79251619D01*
X120539305Y-80015740D01*
X119422513Y-81552873D01*
X119422513Y-81552873D01*
G37*
G36*
X122092269Y-83492564D02*
X121040547Y-82728443D01*
X122157339Y-81191310D01*
X123209061Y-81955431D01*
X122092269Y-83492564D01*
X122092269Y-83492564D01*
G37*
G36*
X117762469Y-85464398D02*
X116526095Y-85062676D01*
X117113227Y-83255668D01*
X118349601Y-83657390D01*
X117762469Y-85464398D01*
X117762469Y-85464398D01*
G37*
G36*
X120900956Y-86484155D02*
X119664582Y-86082433D01*
X120251714Y-84275425D01*
X121488088Y-84677147D01*
X120900956Y-86484155D01*
X120900956Y-86484155D01*
G37*
G36*
X116248286Y-90124575D02*
X115011912Y-89722853D01*
X115599044Y-87915845D01*
X116835418Y-88317567D01*
X116248286Y-90124575D01*
X116248286Y-90124575D01*
G37*
G36*
X119386773Y-91144332D02*
X118150399Y-90742610D01*
X118737531Y-88935602D01*
X119973905Y-89337324D01*
X119386773Y-91144332D01*
X119386773Y-91144332D01*
G37*
D16*
X115230000Y-93400000D03*
X118530000Y-93400000D03*
X115230000Y-98300000D03*
X118530000Y-98300000D03*
D10*
G36*
X116835418Y-103382433D02*
X115599044Y-103784155D01*
X115011912Y-101977147D01*
X116248286Y-101575425D01*
X116835418Y-103382433D01*
X116835418Y-103382433D01*
G37*
G36*
X119973905Y-102362676D02*
X118737531Y-102764398D01*
X118150399Y-100957390D01*
X119386773Y-100555668D01*
X119973905Y-102362676D01*
X119973905Y-102362676D01*
G37*
G36*
X118349601Y-108042610D02*
X117113227Y-108444332D01*
X116526095Y-106637324D01*
X117762469Y-106235602D01*
X118349601Y-108042610D01*
X118349601Y-108042610D01*
G37*
G36*
X121488088Y-107022853D02*
X120251714Y-107424575D01*
X119664582Y-105617567D01*
X120900956Y-105215845D01*
X121488088Y-107022853D01*
X121488088Y-107022853D01*
G37*
G36*
X120539305Y-111684260D02*
X119487583Y-112448381D01*
X118370791Y-110911248D01*
X119422513Y-110147127D01*
X120539305Y-111684260D01*
X120539305Y-111684260D01*
G37*
G36*
X123209061Y-109744569D02*
X122157339Y-110508690D01*
X121040547Y-108971557D01*
X122092269Y-108207436D01*
X123209061Y-109744569D01*
X123209061Y-109744569D01*
G37*
G36*
X123419453Y-115648443D02*
X122367731Y-116412564D01*
X121250939Y-114875431D01*
X122302661Y-114111310D01*
X123419453Y-115648443D01*
X123419453Y-115648443D01*
G37*
G36*
X126089209Y-113708752D02*
X125037487Y-114472873D01*
X123920695Y-112935740D01*
X124972417Y-112171619D01*
X126089209Y-113708752D01*
X126089209Y-113708752D01*
G37*
G36*
X126618690Y-118427339D02*
X125854569Y-119479061D01*
X124317436Y-118362269D01*
X125081557Y-117310547D01*
X126618690Y-118427339D01*
X126618690Y-118427339D01*
G37*
G36*
X128558381Y-115757583D02*
X127794260Y-116809305D01*
X126257127Y-115692513D01*
X127021248Y-114640791D01*
X128558381Y-115757583D01*
X128558381Y-115757583D01*
G37*
G36*
X130582873Y-121307487D02*
X129818752Y-122359209D01*
X128281619Y-121242417D01*
X129045740Y-120190695D01*
X130582873Y-121307487D01*
X130582873Y-121307487D01*
G37*
G36*
X132522564Y-118637731D02*
X131758443Y-119689453D01*
X130221310Y-118572661D01*
X130985431Y-117520939D01*
X132522564Y-118637731D01*
X132522564Y-118637731D01*
G37*
G36*
X134494398Y-122967531D02*
X134092676Y-124203905D01*
X132285668Y-123616773D01*
X132687390Y-122380399D01*
X134494398Y-122967531D01*
X134494398Y-122967531D01*
G37*
G36*
X135514155Y-119829044D02*
X135112433Y-121065418D01*
X133305425Y-120478286D01*
X133707147Y-119241912D01*
X135514155Y-119829044D01*
X135514155Y-119829044D01*
G37*
G36*
X139154575Y-124481714D02*
X138752853Y-125718088D01*
X136945845Y-125130956D01*
X137347567Y-123894582D01*
X139154575Y-124481714D01*
X139154575Y-124481714D01*
G37*
G36*
X140174332Y-121343227D02*
X139772610Y-122579601D01*
X137965602Y-121992469D01*
X138367324Y-120756095D01*
X140174332Y-121343227D01*
X140174332Y-121343227D01*
G37*
D14*
X142430000Y-125500000D03*
X142430000Y-122200000D03*
X147330000Y-125500000D03*
X147330000Y-122200000D03*
D10*
G36*
X152412433Y-123894582D02*
X152814155Y-125130956D01*
X151007147Y-125718088D01*
X150605425Y-124481714D01*
X152412433Y-123894582D01*
X152412433Y-123894582D01*
G37*
G36*
X151392676Y-120756095D02*
X151794398Y-121992469D01*
X149987390Y-122579601D01*
X149585668Y-121343227D01*
X151392676Y-120756095D01*
X151392676Y-120756095D01*
G37*
G36*
X157072610Y-122380399D02*
X157474332Y-123616773D01*
X155667324Y-124203905D01*
X155265602Y-122967531D01*
X157072610Y-122380399D01*
X157072610Y-122380399D01*
G37*
G36*
X156052853Y-119241912D02*
X156454575Y-120478286D01*
X154647567Y-121065418D01*
X154245845Y-119829044D01*
X156052853Y-119241912D01*
X156052853Y-119241912D01*
G37*
G36*
X160714260Y-120190695D02*
X161478381Y-121242417D01*
X159941248Y-122359209D01*
X159177127Y-121307487D01*
X160714260Y-120190695D01*
X160714260Y-120190695D01*
G37*
G36*
X158774569Y-117520939D02*
X159538690Y-118572661D01*
X158001557Y-119689453D01*
X157237436Y-118637731D01*
X158774569Y-117520939D01*
X158774569Y-117520939D01*
G37*
G36*
X164678443Y-117310547D02*
X165442564Y-118362269D01*
X163905431Y-119479061D01*
X163141310Y-118427339D01*
X164678443Y-117310547D01*
X164678443Y-117310547D01*
G37*
G36*
X162738752Y-114640791D02*
X163502873Y-115692513D01*
X161965740Y-116809305D01*
X161201619Y-115757583D01*
X162738752Y-114640791D01*
X162738752Y-114640791D01*
G37*
G36*
X167457339Y-114111310D02*
X168509061Y-114875431D01*
X167392269Y-116412564D01*
X166340547Y-115648443D01*
X167457339Y-114111310D01*
X167457339Y-114111310D01*
G37*
G36*
X164787583Y-112171619D02*
X165839305Y-112935740D01*
X164722513Y-114472873D01*
X163670791Y-113708752D01*
X164787583Y-112171619D01*
X164787583Y-112171619D01*
G37*
G36*
X170337487Y-110147127D02*
X171389209Y-110911248D01*
X170272417Y-112448381D01*
X169220695Y-111684260D01*
X170337487Y-110147127D01*
X170337487Y-110147127D01*
G37*
G36*
X167667731Y-108207436D02*
X168719453Y-108971557D01*
X167602661Y-110508690D01*
X166550939Y-109744569D01*
X167667731Y-108207436D01*
X167667731Y-108207436D01*
G37*
G36*
X171997531Y-106235602D02*
X173233905Y-106637324D01*
X172646773Y-108444332D01*
X171410399Y-108042610D01*
X171997531Y-106235602D01*
X171997531Y-106235602D01*
G37*
G36*
X168859044Y-105215845D02*
X170095418Y-105617567D01*
X169508286Y-107424575D01*
X168271912Y-107022853D01*
X168859044Y-105215845D01*
X168859044Y-105215845D01*
G37*
G36*
X173511714Y-101575425D02*
X174748088Y-101977147D01*
X174160956Y-103784155D01*
X172924582Y-103382433D01*
X173511714Y-101575425D01*
X173511714Y-101575425D01*
G37*
G36*
X170373227Y-100555668D02*
X171609601Y-100957390D01*
X171022469Y-102764398D01*
X169786095Y-102362676D01*
X170373227Y-100555668D01*
X170373227Y-100555668D01*
G37*
D16*
X174530000Y-98300000D03*
X171230000Y-98300000D03*
X174530000Y-93400000D03*
X171230000Y-93400000D03*
D10*
G36*
X172924582Y-88317567D02*
X174160956Y-87915845D01*
X174748088Y-89722853D01*
X173511714Y-90124575D01*
X172924582Y-88317567D01*
X172924582Y-88317567D01*
G37*
G36*
X169786095Y-89337324D02*
X171022469Y-88935602D01*
X171609601Y-90742610D01*
X170373227Y-91144332D01*
X169786095Y-89337324D01*
X169786095Y-89337324D01*
G37*
G36*
X171410399Y-83657390D02*
X172646773Y-83255668D01*
X173233905Y-85062676D01*
X171997531Y-85464398D01*
X171410399Y-83657390D01*
X171410399Y-83657390D01*
G37*
G36*
X168271912Y-84677147D02*
X169508286Y-84275425D01*
X170095418Y-86082433D01*
X168859044Y-86484155D01*
X168271912Y-84677147D01*
X168271912Y-84677147D01*
G37*
G36*
X169220695Y-80015740D02*
X170272417Y-79251619D01*
X171389209Y-80788752D01*
X170337487Y-81552873D01*
X169220695Y-80015740D01*
X169220695Y-80015740D01*
G37*
G36*
X166550939Y-81955431D02*
X167602661Y-81191310D01*
X168719453Y-82728443D01*
X167667731Y-83492564D01*
X166550939Y-81955431D01*
X166550939Y-81955431D01*
G37*
G36*
X166340547Y-76051557D02*
X167392269Y-75287436D01*
X168509061Y-76824569D01*
X167457339Y-77588690D01*
X166340547Y-76051557D01*
X166340547Y-76051557D01*
G37*
G36*
X163670791Y-77991248D02*
X164722513Y-77227127D01*
X165839305Y-78764260D01*
X164787583Y-79528381D01*
X163670791Y-77991248D01*
X163670791Y-77991248D01*
G37*
G36*
X163141310Y-73272661D02*
X163905431Y-72220939D01*
X165442564Y-73337731D01*
X164678443Y-74389453D01*
X163141310Y-73272661D01*
X163141310Y-73272661D01*
G37*
G36*
X161201619Y-75942417D02*
X161965740Y-74890695D01*
X163502873Y-76007487D01*
X162738752Y-77059209D01*
X161201619Y-75942417D01*
X161201619Y-75942417D01*
G37*
G36*
X159177127Y-70392513D02*
X159941248Y-69340791D01*
X161478381Y-70457583D01*
X160714260Y-71509305D01*
X159177127Y-70392513D01*
X159177127Y-70392513D01*
G37*
G36*
X157237436Y-73062269D02*
X158001557Y-72010547D01*
X159538690Y-73127339D01*
X158774569Y-74179061D01*
X157237436Y-73062269D01*
X157237436Y-73062269D01*
G37*
G36*
X155265602Y-68732469D02*
X155667324Y-67496095D01*
X157474332Y-68083227D01*
X157072610Y-69319601D01*
X155265602Y-68732469D01*
X155265602Y-68732469D01*
G37*
G36*
X154245845Y-71870956D02*
X154647567Y-70634582D01*
X156454575Y-71221714D01*
X156052853Y-72458088D01*
X154245845Y-71870956D01*
X154245845Y-71870956D01*
G37*
G36*
X150605425Y-67218286D02*
X151007147Y-65981912D01*
X152814155Y-66569044D01*
X152412433Y-67805418D01*
X150605425Y-67218286D01*
X150605425Y-67218286D01*
G37*
G36*
X149585668Y-70356773D02*
X149987390Y-69120399D01*
X151794398Y-69707531D01*
X151392676Y-70943905D01*
X149585668Y-70356773D01*
X149585668Y-70356773D01*
G37*
D14*
X147330000Y-66200000D03*
X147330000Y-69500000D03*
X142430000Y-66200000D03*
X142430000Y-69500000D03*
M02*
