G04 #@! TF.FileFunction,Copper,L2,Bot,Signal*
%FSLAX46Y46*%
G04 Gerber Fmt 4.6, Leading zero omitted, Abs format (unit mm)*
G04 Created by KiCad (PCBNEW 4.0.1-stable) date 1/15/2016 5:52:30 PM*
%MOMM*%
G01*
G04 APERTURE LIST*
%ADD10C,0.100000*%
%ADD11C,1.524000*%
%ADD12C,0.600000*%
%ADD13C,0.250000*%
%ADD14C,0.254000*%
G04 APERTURE END LIST*
D10*
D11*
X108410000Y-95990000D03*
X140780000Y-59760000D03*
X109100000Y-103440000D03*
X177830000Y-81210000D03*
X180200000Y-88430000D03*
X133430000Y-61300000D03*
X148790000Y-71750000D03*
X120810000Y-99560000D03*
X120720000Y-91920000D03*
X133730000Y-74040000D03*
X166500000Y-106940000D03*
X169040000Y-99630000D03*
D12*
X145730000Y-56120000D03*
X137430000Y-57420000D03*
X129100000Y-59380000D03*
X121790000Y-63260000D03*
X115600000Y-68590000D03*
X110460000Y-75260000D03*
X106980000Y-82840000D03*
X105070000Y-90900000D03*
X104920000Y-99220000D03*
X106460000Y-107330000D03*
X109690000Y-115180000D03*
X114430000Y-121940000D03*
X120650000Y-127670000D03*
X127780000Y-131970000D03*
X135520000Y-134660000D03*
X143830000Y-135710000D03*
X151960000Y-135060000D03*
X160030000Y-132690000D03*
X167300000Y-128680000D03*
X173540000Y-123360000D03*
X178800000Y-116490000D03*
X182200000Y-108970000D03*
X184080000Y-100660000D03*
X184350000Y-92510000D03*
X182680000Y-84340000D03*
X179470000Y-76900000D03*
X174810000Y-69910000D03*
X168580000Y-64160000D03*
X161540000Y-59830000D03*
X153270000Y-57150000D03*
X146830000Y-68090000D03*
X137310000Y-69260000D03*
X129400000Y-73020000D03*
X123050000Y-78910000D03*
X118960000Y-86590000D03*
X117240000Y-94860000D03*
X122050000Y-111290000D03*
X127830000Y-117570000D03*
X135370000Y-121760000D03*
X143950000Y-123290000D03*
X152470000Y-122460000D03*
X160340000Y-118740000D03*
X166570000Y-112660000D03*
X170790000Y-105030000D03*
X172240000Y-96720000D03*
X171260000Y-88170000D03*
X167790000Y-80490000D03*
X162040000Y-74200000D03*
X154630000Y-69800000D03*
X153820000Y-55500000D03*
X143860000Y-57830000D03*
X154470000Y-67830000D03*
X144350000Y-69550000D03*
X162050000Y-58350000D03*
X151740000Y-58500000D03*
X162730000Y-72220000D03*
X152480000Y-70620000D03*
X120870000Y-61990000D03*
X115830000Y-70990000D03*
X183740000Y-109360000D03*
X182500000Y-99140000D03*
X153580000Y-124220000D03*
X160750000Y-116820000D03*
X128450000Y-57790000D03*
X121660000Y-65530000D03*
X136720000Y-55270000D03*
X128470000Y-61380000D03*
X108390000Y-115960000D03*
X116790000Y-121900000D03*
X180100000Y-117240000D03*
X180980000Y-106980000D03*
X144370000Y-125500000D03*
X153560000Y-120760000D03*
X174860000Y-124190000D03*
X177970000Y-114300000D03*
X135270000Y-123830000D03*
X145370000Y-122180000D03*
X168380000Y-129820000D03*
X173320000Y-120860000D03*
X127060000Y-119540000D03*
X137240000Y-121050000D03*
X160800000Y-134010000D03*
X167540000Y-126300000D03*
X120620000Y-112940000D03*
X129820000Y-117430000D03*
X152510000Y-136550000D03*
X160720000Y-130450000D03*
X116530000Y-104520000D03*
X123890000Y-111640000D03*
X143870000Y-137300000D03*
X153200000Y-133030000D03*
X115210000Y-95320000D03*
X120030000Y-104440000D03*
X135220000Y-136200000D03*
X145290000Y-134030000D03*
X116840000Y-86160000D03*
X118520000Y-96360000D03*
X127150000Y-133400000D03*
X137370000Y-133250000D03*
X121230000Y-78010000D03*
X119680000Y-88170000D03*
X119690000Y-128990000D03*
X129750000Y-130960000D03*
X127870000Y-71530000D03*
X123300000Y-80750000D03*
X113350000Y-123010000D03*
X122780000Y-127100000D03*
X136240000Y-67520000D03*
X129070000Y-74800000D03*
X104980000Y-107980000D03*
X111990000Y-115580000D03*
X103350000Y-99480000D03*
X108600000Y-108300000D03*
X103480000Y-90810000D03*
X106790000Y-100620000D03*
X105470000Y-82410000D03*
X106650000Y-92700000D03*
X109100000Y-74510000D03*
X108210000Y-84830000D03*
X169580000Y-62850000D03*
X159380000Y-60810000D03*
X169120000Y-78810000D03*
X160000000Y-74280000D03*
X175880000Y-68760000D03*
X166370000Y-64650000D03*
X173230000Y-87180000D03*
X165880000Y-79980000D03*
X180850000Y-75970000D03*
X172400000Y-69840000D03*
X174520000Y-96300000D03*
X169790000Y-87240000D03*
X184240000Y-83860000D03*
X177190000Y-76350000D03*
X172900000Y-105420000D03*
X171250000Y-95320000D03*
X185830000Y-92310000D03*
X180550000Y-83470000D03*
X168590000Y-113650000D03*
X170080000Y-103470000D03*
X185690000Y-100900000D03*
X182380000Y-91210000D03*
X161930000Y-120110000D03*
X166520000Y-110950000D03*
X114350000Y-67680000D03*
X111260000Y-77440000D03*
D13*
X127780000Y-131970000D02*
X127800000Y-131970000D01*
X143830000Y-135710000D02*
X143870000Y-135710000D01*
X161540000Y-59830000D02*
X161580000Y-59830000D01*
X137310000Y-69260000D02*
X137280000Y-69270000D01*
X122050000Y-111290000D02*
X122050000Y-111310000D01*
X143950000Y-123290000D02*
X143950000Y-123300000D01*
X160340000Y-118740000D02*
X160340000Y-118760000D01*
X154630000Y-69800000D02*
X156390000Y-70410000D01*
X143860000Y-57830000D02*
X153820000Y-55500000D01*
X144350000Y-69550000D02*
X154470000Y-67830000D01*
X151740000Y-58500000D02*
X162050000Y-58350000D01*
X162750000Y-72220000D02*
X162730000Y-72220000D01*
X152480000Y-70620000D02*
X162750000Y-72220000D01*
X115830000Y-70990000D02*
X120870000Y-61990000D01*
X182500000Y-99140000D02*
X183740000Y-109360000D01*
X160750000Y-116820000D02*
X153580000Y-124220000D01*
X121660000Y-65530000D02*
X128450000Y-57790000D01*
X128470000Y-61380000D02*
X136720000Y-55270000D01*
X116790000Y-121900000D02*
X108390000Y-115960000D01*
X180980000Y-106980000D02*
X180100000Y-117240000D01*
X153560000Y-120760000D02*
X144370000Y-125500000D01*
X177970000Y-114300000D02*
X174860000Y-124190000D01*
X145370000Y-122180000D02*
X135270000Y-123830000D01*
X173320000Y-120860000D02*
X168380000Y-129820000D01*
X137240000Y-121050000D02*
X127060000Y-119540000D01*
X167540000Y-126300000D02*
X160800000Y-134010000D01*
X129820000Y-117430000D02*
X120620000Y-112940000D01*
X160720000Y-130450000D02*
X152510000Y-136550000D01*
X123890000Y-111640000D02*
X116530000Y-104520000D01*
X153200000Y-133030000D02*
X143870000Y-137300000D01*
X120030000Y-104440000D02*
X115210000Y-95320000D01*
X145290000Y-134030000D02*
X135220000Y-136200000D01*
X118520000Y-96360000D02*
X116840000Y-86160000D01*
X137370000Y-133250000D02*
X127150000Y-133400000D01*
X119680000Y-88170000D02*
X121230000Y-78010000D01*
X129750000Y-130960000D02*
X119690000Y-128990000D01*
X123300000Y-80750000D02*
X127870000Y-71530000D01*
X122780000Y-127100000D02*
X113350000Y-123010000D01*
X129070000Y-74800000D02*
X136240000Y-67520000D01*
X111990000Y-115580000D02*
X104980000Y-107980000D01*
X108600000Y-108300000D02*
X103350000Y-99480000D01*
X106790000Y-100620000D02*
X103480000Y-90810000D01*
X106650000Y-92700000D02*
X105470000Y-82410000D01*
X108210000Y-84830000D02*
X109100000Y-74510000D01*
X159380000Y-60810000D02*
X169580000Y-62850000D01*
X169150000Y-78890000D02*
X169120000Y-78810000D01*
X160000000Y-74280000D02*
X169150000Y-78890000D01*
X166370000Y-64650000D02*
X175880000Y-68760000D01*
X165880000Y-79980000D02*
X173230000Y-87180000D01*
X172400000Y-69840000D02*
X180850000Y-75970000D01*
X169790000Y-87240000D02*
X174520000Y-96300000D01*
X177190000Y-76350000D02*
X184240000Y-83860000D01*
X171250000Y-95320000D02*
X172900000Y-105420000D01*
X180550000Y-83470000D02*
X185830000Y-92310000D01*
X170080000Y-103470000D02*
X168590000Y-113650000D01*
X182380000Y-91210000D02*
X185690000Y-100900000D01*
X166520000Y-110950000D02*
X161930000Y-120110000D01*
X111260000Y-77440000D02*
X114350000Y-67680000D01*
D14*
G36*
X153390287Y-53810374D02*
X161420027Y-56295994D01*
X168814050Y-60293927D01*
X175290719Y-65651894D01*
X180603340Y-72165810D01*
X184549556Y-79587563D01*
X186979058Y-87634461D01*
X187799306Y-96000000D01*
X187782514Y-97202566D01*
X186729006Y-105541940D01*
X184075769Y-113517865D01*
X179923864Y-120826540D01*
X174431435Y-127189579D01*
X167807688Y-132364618D01*
X160304919Y-136154539D01*
X152208907Y-138414986D01*
X143828025Y-139059860D01*
X135481498Y-138064597D01*
X133370269Y-137378617D01*
X142933771Y-137378617D01*
X142966872Y-137558968D01*
X143034372Y-137729454D01*
X143133701Y-137883583D01*
X143261076Y-138015484D01*
X143411644Y-138120131D01*
X143579671Y-138193540D01*
X143758757Y-138232915D01*
X143942079Y-138236755D01*
X144122657Y-138204914D01*
X144293610Y-138138606D01*
X144448429Y-138040355D01*
X144581215Y-137913904D01*
X144686911Y-137764070D01*
X144688101Y-137761398D01*
X147163239Y-136628617D01*
X151573771Y-136628617D01*
X151606872Y-136808968D01*
X151674372Y-136979454D01*
X151773701Y-137133583D01*
X151901076Y-137265484D01*
X152051644Y-137370131D01*
X152219671Y-137443540D01*
X152398757Y-137482915D01*
X152582079Y-137486755D01*
X152762657Y-137454914D01*
X152933610Y-137388606D01*
X153088429Y-137290355D01*
X153221215Y-137163904D01*
X153326911Y-137014070D01*
X153401492Y-136846560D01*
X153404805Y-136831980D01*
X157097101Y-134088617D01*
X159863771Y-134088617D01*
X159896872Y-134268968D01*
X159964372Y-134439454D01*
X160063701Y-134593583D01*
X160191076Y-134725484D01*
X160341644Y-134830131D01*
X160509671Y-134903540D01*
X160688757Y-134942915D01*
X160872079Y-134946755D01*
X161052657Y-134914914D01*
X161223610Y-134848606D01*
X161378429Y-134750355D01*
X161511215Y-134623904D01*
X161616911Y-134474070D01*
X161691492Y-134306560D01*
X161732116Y-134127754D01*
X161732531Y-134097998D01*
X165403585Y-129898617D01*
X167443771Y-129898617D01*
X167476872Y-130078968D01*
X167544372Y-130249454D01*
X167643701Y-130403583D01*
X167771076Y-130535484D01*
X167921644Y-130640131D01*
X168089671Y-130713540D01*
X168268757Y-130752915D01*
X168452079Y-130756755D01*
X168632657Y-130724914D01*
X168803610Y-130658606D01*
X168958429Y-130560355D01*
X169091215Y-130433904D01*
X169196911Y-130284070D01*
X169271492Y-130116560D01*
X169312116Y-129937754D01*
X169315040Y-129728319D01*
X169310644Y-129706118D01*
X172308552Y-124268617D01*
X173923771Y-124268617D01*
X173956872Y-124448968D01*
X174024372Y-124619454D01*
X174123701Y-124773583D01*
X174251076Y-124905484D01*
X174401644Y-125010131D01*
X174569671Y-125083540D01*
X174748757Y-125122915D01*
X174932079Y-125126755D01*
X175112657Y-125094914D01*
X175283610Y-125028606D01*
X175438429Y-124930355D01*
X175571215Y-124803904D01*
X175676911Y-124654070D01*
X175751492Y-124486560D01*
X175792116Y-124307754D01*
X175795040Y-124098319D01*
X175759425Y-123918448D01*
X175749588Y-123894581D01*
X177817458Y-117318617D01*
X179163771Y-117318617D01*
X179196872Y-117498968D01*
X179264372Y-117669454D01*
X179363701Y-117823583D01*
X179491076Y-117955484D01*
X179641644Y-118060131D01*
X179809671Y-118133540D01*
X179988757Y-118172915D01*
X180172079Y-118176755D01*
X180352657Y-118144914D01*
X180523610Y-118078606D01*
X180678429Y-117980355D01*
X180811215Y-117853904D01*
X180916911Y-117704070D01*
X180991492Y-117536560D01*
X181032116Y-117357754D01*
X181035040Y-117148319D01*
X180999425Y-116968448D01*
X180929550Y-116798920D01*
X180903929Y-116760358D01*
X181690040Y-107595023D01*
X181691215Y-107593904D01*
X181796911Y-107444070D01*
X181871492Y-107276560D01*
X181912116Y-107097754D01*
X181915040Y-106888319D01*
X181879425Y-106708448D01*
X181809550Y-106538920D01*
X181708079Y-106386193D01*
X181578875Y-106256084D01*
X181426860Y-106153549D01*
X181257825Y-106082493D01*
X181078207Y-106045623D01*
X180894849Y-106044343D01*
X180714733Y-106078701D01*
X180544722Y-106147390D01*
X180391291Y-106247793D01*
X180260283Y-106376086D01*
X180156689Y-106527381D01*
X180084454Y-106695916D01*
X180046331Y-106875272D01*
X180043771Y-107058617D01*
X180076872Y-107238968D01*
X180144372Y-107409454D01*
X180176146Y-107458758D01*
X179389807Y-116626759D01*
X179380283Y-116636086D01*
X179276689Y-116787381D01*
X179204454Y-116955916D01*
X179166331Y-117135272D01*
X179163771Y-117318617D01*
X177817458Y-117318617D01*
X178530251Y-115051891D01*
X178548429Y-115040355D01*
X178681215Y-114913904D01*
X178786911Y-114764070D01*
X178861492Y-114596560D01*
X178902116Y-114417754D01*
X178905040Y-114208319D01*
X178869425Y-114028448D01*
X178799550Y-113858920D01*
X178698079Y-113706193D01*
X178568875Y-113576084D01*
X178416860Y-113473549D01*
X178247825Y-113402493D01*
X178068207Y-113365623D01*
X177884849Y-113364343D01*
X177704733Y-113398701D01*
X177534722Y-113467390D01*
X177381291Y-113567793D01*
X177250283Y-113696086D01*
X177146689Y-113847381D01*
X177074454Y-114015916D01*
X177036331Y-114195272D01*
X177033771Y-114378617D01*
X177066872Y-114558968D01*
X177080807Y-114594164D01*
X174299328Y-123439446D01*
X174271291Y-123457793D01*
X174140283Y-123586086D01*
X174036689Y-123737381D01*
X173964454Y-123905916D01*
X173926331Y-124085272D01*
X173923771Y-124268617D01*
X172308552Y-124268617D01*
X173720575Y-121707541D01*
X173743610Y-121698606D01*
X173898429Y-121600355D01*
X174031215Y-121473904D01*
X174136911Y-121324070D01*
X174211492Y-121156560D01*
X174252116Y-120977754D01*
X174255040Y-120768319D01*
X174219425Y-120588448D01*
X174149550Y-120418920D01*
X174048079Y-120266193D01*
X173918875Y-120136084D01*
X173766860Y-120033549D01*
X173597825Y-119962493D01*
X173418207Y-119925623D01*
X173234849Y-119924343D01*
X173054733Y-119958701D01*
X172884722Y-120027390D01*
X172731291Y-120127793D01*
X172600283Y-120256086D01*
X172496689Y-120407381D01*
X172424454Y-120575916D01*
X172386331Y-120755272D01*
X172383771Y-120938617D01*
X172390022Y-120972673D01*
X167978781Y-128973629D01*
X167944722Y-128987390D01*
X167791291Y-129087793D01*
X167660283Y-129216086D01*
X167556689Y-129367381D01*
X167484454Y-129535916D01*
X167446331Y-129715272D01*
X167443771Y-129898617D01*
X165403585Y-129898617D01*
X167752148Y-127212057D01*
X167792657Y-127204914D01*
X167963610Y-127138606D01*
X168118429Y-127040355D01*
X168251215Y-126913904D01*
X168356911Y-126764070D01*
X168431492Y-126596560D01*
X168472116Y-126417754D01*
X168475040Y-126208319D01*
X168439425Y-126028448D01*
X168369550Y-125858920D01*
X168268079Y-125706193D01*
X168138875Y-125576084D01*
X167986860Y-125473549D01*
X167817825Y-125402493D01*
X167638207Y-125365623D01*
X167454849Y-125364343D01*
X167274733Y-125398701D01*
X167104722Y-125467390D01*
X166951291Y-125567793D01*
X166820283Y-125696086D01*
X166716689Y-125847381D01*
X166644454Y-126015916D01*
X166606331Y-126195272D01*
X166606075Y-126213597D01*
X160587196Y-133098693D01*
X160534733Y-133108701D01*
X160364722Y-133177390D01*
X160211291Y-133277793D01*
X160080283Y-133406086D01*
X159976689Y-133557381D01*
X159904454Y-133725916D01*
X159866331Y-133905272D01*
X159863771Y-134088617D01*
X157097101Y-134088617D01*
X160735147Y-131385562D01*
X160792079Y-131386755D01*
X160972657Y-131354914D01*
X161143610Y-131288606D01*
X161298429Y-131190355D01*
X161431215Y-131063904D01*
X161536911Y-130914070D01*
X161611492Y-130746560D01*
X161652116Y-130567754D01*
X161655040Y-130358319D01*
X161619425Y-130178448D01*
X161549550Y-130008920D01*
X161448079Y-129856193D01*
X161318875Y-129726084D01*
X161166860Y-129623549D01*
X160997825Y-129552493D01*
X160818207Y-129515623D01*
X160634849Y-129514343D01*
X160454733Y-129548701D01*
X160284722Y-129617390D01*
X160131291Y-129717793D01*
X160000283Y-129846086D01*
X159896689Y-129997381D01*
X159824454Y-130165916D01*
X159823784Y-130169070D01*
X152494328Y-135614828D01*
X152424849Y-135614343D01*
X152244733Y-135648701D01*
X152074722Y-135717390D01*
X151921291Y-135817793D01*
X151790283Y-135946086D01*
X151686689Y-136097381D01*
X151614454Y-136265916D01*
X151576331Y-136445272D01*
X151573771Y-136628617D01*
X147163239Y-136628617D01*
X153020581Y-133947925D01*
X153088757Y-133962915D01*
X153272079Y-133966755D01*
X153452657Y-133934914D01*
X153623610Y-133868606D01*
X153778429Y-133770355D01*
X153911215Y-133643904D01*
X154016911Y-133494070D01*
X154091492Y-133326560D01*
X154132116Y-133147754D01*
X154135040Y-132938319D01*
X154099425Y-132758448D01*
X154029550Y-132588920D01*
X153928079Y-132436193D01*
X153798875Y-132306084D01*
X153646860Y-132203549D01*
X153477825Y-132132493D01*
X153298207Y-132095623D01*
X153114849Y-132094343D01*
X152934733Y-132128701D01*
X152764722Y-132197390D01*
X152611291Y-132297793D01*
X152480283Y-132426086D01*
X152383065Y-132568069D01*
X144049088Y-136382225D01*
X143968207Y-136365623D01*
X143784849Y-136364343D01*
X143604733Y-136398701D01*
X143434722Y-136467390D01*
X143281291Y-136567793D01*
X143150283Y-136696086D01*
X143046689Y-136847381D01*
X142974454Y-137015916D01*
X142936331Y-137195272D01*
X142933771Y-137378617D01*
X133370269Y-137378617D01*
X129984817Y-136278617D01*
X134283771Y-136278617D01*
X134316872Y-136458968D01*
X134384372Y-136629454D01*
X134483701Y-136783583D01*
X134611076Y-136915484D01*
X134761644Y-137020131D01*
X134929671Y-137093540D01*
X135108757Y-137132915D01*
X135292079Y-137136755D01*
X135472657Y-137104914D01*
X135643610Y-137038606D01*
X135798429Y-136940355D01*
X135917261Y-136827192D01*
X144917616Y-134887691D01*
X144999671Y-134923540D01*
X145178757Y-134962915D01*
X145362079Y-134966755D01*
X145542657Y-134934914D01*
X145713610Y-134868606D01*
X145868429Y-134770355D01*
X146001215Y-134643904D01*
X146106911Y-134494070D01*
X146181492Y-134326560D01*
X146222116Y-134147754D01*
X146225040Y-133938319D01*
X146189425Y-133758448D01*
X146119550Y-133588920D01*
X146018079Y-133436193D01*
X145888875Y-133306084D01*
X145736860Y-133203549D01*
X145567825Y-133132493D01*
X145388207Y-133095623D01*
X145204849Y-133094343D01*
X145024733Y-133128701D01*
X144854722Y-133197390D01*
X144701291Y-133297793D01*
X144594425Y-133402445D01*
X135592488Y-135342286D01*
X135497825Y-135302493D01*
X135318207Y-135265623D01*
X135134849Y-135264343D01*
X134954733Y-135298701D01*
X134784722Y-135367390D01*
X134631291Y-135467793D01*
X134500283Y-135596086D01*
X134396689Y-135747381D01*
X134324454Y-135915916D01*
X134286331Y-136095272D01*
X134283771Y-136278617D01*
X129984817Y-136278617D01*
X127487245Y-135467107D01*
X123929262Y-133478617D01*
X126213771Y-133478617D01*
X126246872Y-133658968D01*
X126314372Y-133829454D01*
X126413701Y-133983583D01*
X126541076Y-134115484D01*
X126691644Y-134220131D01*
X126859671Y-134293540D01*
X127038757Y-134332915D01*
X127222079Y-134336755D01*
X127402657Y-134304914D01*
X127573610Y-134238606D01*
X127710303Y-134151858D01*
X136836510Y-134017912D01*
X136911644Y-134070131D01*
X137079671Y-134143540D01*
X137258757Y-134182915D01*
X137442079Y-134186755D01*
X137622657Y-134154914D01*
X137793610Y-134088606D01*
X137948429Y-133990355D01*
X138081215Y-133863904D01*
X138186911Y-133714070D01*
X138261492Y-133546560D01*
X138302116Y-133367754D01*
X138305040Y-133158319D01*
X138269425Y-132978448D01*
X138199550Y-132808920D01*
X138098079Y-132656193D01*
X137968875Y-132526084D01*
X137816860Y-132423549D01*
X137647825Y-132352493D01*
X137468207Y-132315623D01*
X137284849Y-132314343D01*
X137104733Y-132348701D01*
X136934722Y-132417390D01*
X136811358Y-132498118D01*
X127683645Y-132632086D01*
X127596860Y-132573549D01*
X127427825Y-132502493D01*
X127248207Y-132465623D01*
X127064849Y-132464343D01*
X126884733Y-132498701D01*
X126714722Y-132567390D01*
X126561291Y-132667793D01*
X126430283Y-132796086D01*
X126326689Y-132947381D01*
X126254454Y-133115916D01*
X126216331Y-133295272D01*
X126213771Y-133478617D01*
X123929262Y-133478617D01*
X120149763Y-131366327D01*
X117449963Y-129068617D01*
X118753771Y-129068617D01*
X118786872Y-129248968D01*
X118854372Y-129419454D01*
X118953701Y-129573583D01*
X119081076Y-129705484D01*
X119231644Y-129810131D01*
X119399671Y-129883540D01*
X119578757Y-129922915D01*
X119762079Y-129926755D01*
X119942657Y-129894914D01*
X120081432Y-129841087D01*
X129069275Y-131601132D01*
X129141076Y-131675484D01*
X129291644Y-131780131D01*
X129459671Y-131853540D01*
X129638757Y-131892915D01*
X129822079Y-131896755D01*
X130002657Y-131864914D01*
X130173610Y-131798606D01*
X130328429Y-131700355D01*
X130461215Y-131573904D01*
X130566911Y-131424070D01*
X130641492Y-131256560D01*
X130682116Y-131077754D01*
X130685040Y-130868319D01*
X130649425Y-130688448D01*
X130579550Y-130518920D01*
X130478079Y-130366193D01*
X130348875Y-130236084D01*
X130196860Y-130133549D01*
X130027825Y-130062493D01*
X129848207Y-130025623D01*
X129664849Y-130024343D01*
X129484733Y-130058701D01*
X129359838Y-130109162D01*
X120371170Y-128348955D01*
X120288875Y-128266084D01*
X120136860Y-128163549D01*
X119967825Y-128092493D01*
X119788207Y-128055623D01*
X119604849Y-128054343D01*
X119424733Y-128088701D01*
X119254722Y-128157390D01*
X119101291Y-128257793D01*
X118970283Y-128386086D01*
X118866689Y-128537381D01*
X118794454Y-128705916D01*
X118756331Y-128885272D01*
X118753771Y-129068617D01*
X117449963Y-129068617D01*
X113748534Y-125918454D01*
X111505633Y-123088617D01*
X112413771Y-123088617D01*
X112446872Y-123268968D01*
X112514372Y-123439454D01*
X112613701Y-123593583D01*
X112741076Y-123725484D01*
X112891644Y-123830131D01*
X113059671Y-123903540D01*
X113238757Y-123942915D01*
X113422079Y-123946755D01*
X113548442Y-123924474D01*
X121977039Y-127580143D01*
X122043701Y-127683583D01*
X122171076Y-127815484D01*
X122321644Y-127920131D01*
X122489671Y-127993540D01*
X122668757Y-128032915D01*
X122852079Y-128036755D01*
X123032657Y-128004914D01*
X123203610Y-127938606D01*
X123358429Y-127840355D01*
X123491215Y-127713904D01*
X123596911Y-127564070D01*
X123671492Y-127396560D01*
X123712116Y-127217754D01*
X123715040Y-127008319D01*
X123679425Y-126828448D01*
X123609550Y-126658920D01*
X123508079Y-126506193D01*
X123378875Y-126376084D01*
X123226860Y-126273549D01*
X123057825Y-126202493D01*
X122878207Y-126165623D01*
X122694849Y-126164343D01*
X122582242Y-126185823D01*
X114153854Y-122530244D01*
X114078079Y-122416193D01*
X113948875Y-122286084D01*
X113796860Y-122183549D01*
X113627825Y-122112493D01*
X113448207Y-122075623D01*
X113264849Y-122074343D01*
X113084733Y-122108701D01*
X112914722Y-122177390D01*
X112761291Y-122277793D01*
X112630283Y-122406086D01*
X112526689Y-122557381D01*
X112454454Y-122725916D01*
X112416331Y-122905272D01*
X112413771Y-123088617D01*
X111505633Y-123088617D01*
X108527380Y-119330997D01*
X106835327Y-116038617D01*
X107453771Y-116038617D01*
X107486872Y-116218968D01*
X107554372Y-116389454D01*
X107653701Y-116543583D01*
X107781076Y-116675484D01*
X107931644Y-116780131D01*
X108099671Y-116853540D01*
X108278757Y-116892915D01*
X108396446Y-116895380D01*
X115905135Y-122205096D01*
X115954372Y-122329454D01*
X116053701Y-122483583D01*
X116181076Y-122615484D01*
X116331644Y-122720131D01*
X116499671Y-122793540D01*
X116678757Y-122832915D01*
X116862079Y-122836755D01*
X117042657Y-122804914D01*
X117213610Y-122738606D01*
X117368429Y-122640355D01*
X117501215Y-122513904D01*
X117606911Y-122364070D01*
X117681492Y-122196560D01*
X117722116Y-122017754D01*
X117725040Y-121808319D01*
X117689425Y-121628448D01*
X117619550Y-121458920D01*
X117518079Y-121306193D01*
X117388875Y-121176084D01*
X117236860Y-121073549D01*
X117067825Y-121002493D01*
X116888207Y-120965623D01*
X116783943Y-120964895D01*
X109275901Y-115655637D01*
X109219550Y-115518920D01*
X109118079Y-115366193D01*
X108988875Y-115236084D01*
X108836860Y-115133549D01*
X108667825Y-115062493D01*
X108488207Y-115025623D01*
X108304849Y-115024343D01*
X108124733Y-115058701D01*
X107954722Y-115127390D01*
X107801291Y-115227793D01*
X107670283Y-115356086D01*
X107566689Y-115507381D01*
X107494454Y-115675916D01*
X107456331Y-115855272D01*
X107453771Y-116038617D01*
X106835327Y-116038617D01*
X104685172Y-111854869D01*
X103596615Y-108058617D01*
X104043771Y-108058617D01*
X104076872Y-108238968D01*
X104144372Y-108409454D01*
X104243701Y-108563583D01*
X104371076Y-108695484D01*
X104521644Y-108800131D01*
X104689671Y-108873540D01*
X104790746Y-108895763D01*
X111060027Y-115692701D01*
X111086872Y-115838968D01*
X111154372Y-116009454D01*
X111253701Y-116163583D01*
X111381076Y-116295484D01*
X111531644Y-116400131D01*
X111699671Y-116473540D01*
X111878757Y-116512915D01*
X112062079Y-116516755D01*
X112242657Y-116484914D01*
X112413610Y-116418606D01*
X112568429Y-116320355D01*
X112701215Y-116193904D01*
X112806911Y-116044070D01*
X112881492Y-115876560D01*
X112922116Y-115697754D01*
X112925040Y-115488319D01*
X112889425Y-115308448D01*
X112819550Y-115138920D01*
X112718079Y-114986193D01*
X112588875Y-114856084D01*
X112436860Y-114753549D01*
X112267825Y-114682493D01*
X112179340Y-114664330D01*
X105911125Y-107868548D01*
X105879425Y-107708448D01*
X105809550Y-107538920D01*
X105708079Y-107386193D01*
X105578875Y-107256084D01*
X105426860Y-107153549D01*
X105257825Y-107082493D01*
X105078207Y-107045623D01*
X104894849Y-107044343D01*
X104714733Y-107078701D01*
X104544722Y-107147390D01*
X104391291Y-107247793D01*
X104260283Y-107376086D01*
X104156689Y-107527381D01*
X104084454Y-107695916D01*
X104046331Y-107875272D01*
X104043771Y-108058617D01*
X103596615Y-108058617D01*
X102368259Y-103774834D01*
X102014214Y-99558617D01*
X102413771Y-99558617D01*
X102446872Y-99738968D01*
X102514372Y-99909454D01*
X102613701Y-100063583D01*
X102741076Y-100195484D01*
X102891644Y-100300131D01*
X102975543Y-100336785D01*
X107666030Y-108216803D01*
X107663771Y-108378617D01*
X107696872Y-108558968D01*
X107764372Y-108729454D01*
X107863701Y-108883583D01*
X107991076Y-109015484D01*
X108141644Y-109120131D01*
X108309671Y-109193540D01*
X108488757Y-109232915D01*
X108672079Y-109236755D01*
X108852657Y-109204914D01*
X109023610Y-109138606D01*
X109178429Y-109040355D01*
X109311215Y-108913904D01*
X109416911Y-108764070D01*
X109491492Y-108596560D01*
X109532116Y-108417754D01*
X109535040Y-108208319D01*
X109499425Y-108028448D01*
X109429550Y-107858920D01*
X109328079Y-107706193D01*
X109198875Y-107576084D01*
X109046860Y-107473549D01*
X108974377Y-107443080D01*
X107166333Y-104405565D01*
X108314040Y-104405565D01*
X108381020Y-104645656D01*
X108630048Y-104762756D01*
X108897135Y-104829023D01*
X109172017Y-104841910D01*
X109444133Y-104800922D01*
X109703023Y-104707636D01*
X109818980Y-104645656D01*
X109885960Y-104405565D01*
X109100000Y-103619605D01*
X108314040Y-104405565D01*
X107166333Y-104405565D01*
X106634459Y-103512017D01*
X107698090Y-103512017D01*
X107739078Y-103784133D01*
X107832364Y-104043023D01*
X107894344Y-104158980D01*
X108134435Y-104225960D01*
X108920395Y-103440000D01*
X109279605Y-103440000D01*
X110065565Y-104225960D01*
X110305656Y-104158980D01*
X110422756Y-103909952D01*
X110489023Y-103642865D01*
X110501910Y-103367983D01*
X110460922Y-103095867D01*
X110367636Y-102836977D01*
X110305656Y-102721020D01*
X110065565Y-102654040D01*
X109279605Y-103440000D01*
X108920395Y-103440000D01*
X108134435Y-102654040D01*
X107894344Y-102721020D01*
X107777244Y-102970048D01*
X107710977Y-103237135D01*
X107698090Y-103512017D01*
X106634459Y-103512017D01*
X106016851Y-102474435D01*
X108314040Y-102474435D01*
X109100000Y-103260395D01*
X109885960Y-102474435D01*
X109818980Y-102234344D01*
X109569952Y-102117244D01*
X109302865Y-102050977D01*
X109027983Y-102038090D01*
X108755867Y-102079078D01*
X108496977Y-102172364D01*
X108381020Y-102234344D01*
X108314040Y-102474435D01*
X106016851Y-102474435D01*
X104282630Y-99560944D01*
X104285040Y-99388319D01*
X104249425Y-99208448D01*
X104179550Y-99038920D01*
X104078079Y-98886193D01*
X103948875Y-98756084D01*
X103796860Y-98653549D01*
X103627825Y-98582493D01*
X103448207Y-98545623D01*
X103264849Y-98544343D01*
X103084733Y-98578701D01*
X102914722Y-98647390D01*
X102761291Y-98747793D01*
X102630283Y-98876086D01*
X102526689Y-99027381D01*
X102454454Y-99195916D01*
X102416331Y-99375272D01*
X102413771Y-99558617D01*
X102014214Y-99558617D01*
X101664892Y-95398659D01*
X102170774Y-90888617D01*
X102543771Y-90888617D01*
X102576872Y-91068968D01*
X102644372Y-91239454D01*
X102743701Y-91393583D01*
X102871076Y-91525484D01*
X102934094Y-91569283D01*
X105893526Y-100340284D01*
X105856331Y-100515272D01*
X105853771Y-100698617D01*
X105886872Y-100878968D01*
X105954372Y-101049454D01*
X106053701Y-101203583D01*
X106181076Y-101335484D01*
X106331644Y-101440131D01*
X106499671Y-101513540D01*
X106678757Y-101552915D01*
X106862079Y-101556755D01*
X107042657Y-101524914D01*
X107213610Y-101458606D01*
X107368429Y-101360355D01*
X107501215Y-101233904D01*
X107606911Y-101084070D01*
X107681492Y-100916560D01*
X107722116Y-100737754D01*
X107725040Y-100528319D01*
X107689425Y-100348448D01*
X107619550Y-100178920D01*
X107518079Y-100026193D01*
X107388875Y-99896084D01*
X107335748Y-99860250D01*
X106069518Y-96107464D01*
X107011164Y-96107464D01*
X107060620Y-96376928D01*
X107161474Y-96631655D01*
X107309883Y-96861942D01*
X107500196Y-97059016D01*
X107725163Y-97215372D01*
X107976215Y-97325054D01*
X108243789Y-97383884D01*
X108517695Y-97389622D01*
X108787499Y-97342048D01*
X109042923Y-97242975D01*
X109274240Y-97096177D01*
X109472639Y-96907245D01*
X109630561Y-96683375D01*
X109717659Y-96487748D01*
X109799928Y-96487748D01*
X110559903Y-103263078D01*
X112621407Y-109761761D01*
X115905917Y-115736262D01*
X120288327Y-120959015D01*
X125601713Y-125231087D01*
X131643689Y-128389756D01*
X138184119Y-130314709D01*
X144973880Y-130932626D01*
X151754351Y-130219969D01*
X158267267Y-128203885D01*
X164264552Y-124961165D01*
X169517773Y-120615323D01*
X173826835Y-115331891D01*
X177027608Y-109312113D01*
X178998174Y-102785281D01*
X179347888Y-99218617D01*
X181563771Y-99218617D01*
X181596872Y-99398968D01*
X181664372Y-99569454D01*
X181763701Y-99723583D01*
X181811201Y-99772771D01*
X182919085Y-108903881D01*
X182916689Y-108907381D01*
X182844454Y-109075916D01*
X182806331Y-109255272D01*
X182803771Y-109438617D01*
X182836872Y-109618968D01*
X182904372Y-109789454D01*
X183003701Y-109943583D01*
X183131076Y-110075484D01*
X183281644Y-110180131D01*
X183449671Y-110253540D01*
X183628757Y-110292915D01*
X183812079Y-110296755D01*
X183992657Y-110264914D01*
X184163610Y-110198606D01*
X184318429Y-110100355D01*
X184451215Y-109973904D01*
X184556911Y-109824070D01*
X184631492Y-109656560D01*
X184672116Y-109477754D01*
X184675040Y-109268319D01*
X184639425Y-109088448D01*
X184569550Y-108918920D01*
X184468079Y-108766193D01*
X184428717Y-108726556D01*
X183320816Y-99595300D01*
X183391492Y-99436560D01*
X183432116Y-99257754D01*
X183435040Y-99048319D01*
X183399425Y-98868448D01*
X183329550Y-98698920D01*
X183228079Y-98546193D01*
X183098875Y-98416084D01*
X182946860Y-98313549D01*
X182777825Y-98242493D01*
X182598207Y-98205623D01*
X182414849Y-98204343D01*
X182234733Y-98238701D01*
X182064722Y-98307390D01*
X181911291Y-98407793D01*
X181780283Y-98536086D01*
X181676689Y-98687381D01*
X181604454Y-98855916D01*
X181566331Y-99035272D01*
X181563771Y-99218617D01*
X179347888Y-99218617D01*
X179663477Y-96000000D01*
X179649857Y-95024600D01*
X179177893Y-91288617D01*
X181443771Y-91288617D01*
X181476872Y-91468968D01*
X181544372Y-91639454D01*
X181643701Y-91793583D01*
X181771076Y-91925484D01*
X181836917Y-91971244D01*
X184792686Y-100624236D01*
X184756331Y-100795272D01*
X184753771Y-100978617D01*
X184786872Y-101158968D01*
X184854372Y-101329454D01*
X184953701Y-101483583D01*
X185081076Y-101615484D01*
X185231644Y-101720131D01*
X185399671Y-101793540D01*
X185578757Y-101832915D01*
X185762079Y-101836755D01*
X185942657Y-101804914D01*
X186113610Y-101738606D01*
X186268429Y-101640355D01*
X186401215Y-101513904D01*
X186506911Y-101364070D01*
X186581492Y-101196560D01*
X186622116Y-101017754D01*
X186625040Y-100808319D01*
X186589425Y-100628448D01*
X186519550Y-100458920D01*
X186418079Y-100306193D01*
X186288875Y-100176084D01*
X186232949Y-100138362D01*
X183276655Y-91483834D01*
X183312116Y-91327754D01*
X183315040Y-91118319D01*
X183279425Y-90938448D01*
X183209550Y-90768920D01*
X183108079Y-90616193D01*
X182978875Y-90486084D01*
X182826860Y-90383549D01*
X182657825Y-90312493D01*
X182478207Y-90275623D01*
X182294849Y-90274343D01*
X182114733Y-90308701D01*
X181944722Y-90377390D01*
X181791291Y-90477793D01*
X181660283Y-90606086D01*
X181556689Y-90757381D01*
X181484454Y-90925916D01*
X181446331Y-91105272D01*
X181443771Y-91288617D01*
X179177893Y-91288617D01*
X178938745Y-89395565D01*
X179414040Y-89395565D01*
X179481020Y-89635656D01*
X179730048Y-89752756D01*
X179997135Y-89819023D01*
X180272017Y-89831910D01*
X180544133Y-89790922D01*
X180803023Y-89697636D01*
X180918980Y-89635656D01*
X180985960Y-89395565D01*
X180200000Y-88609605D01*
X179414040Y-89395565D01*
X178938745Y-89395565D01*
X178871664Y-88864567D01*
X178932364Y-89033023D01*
X178994344Y-89148980D01*
X179234435Y-89215960D01*
X180020395Y-88430000D01*
X180379605Y-88430000D01*
X181165565Y-89215960D01*
X181405656Y-89148980D01*
X181522756Y-88899952D01*
X181589023Y-88632865D01*
X181601910Y-88357983D01*
X181560922Y-88085867D01*
X181467636Y-87826977D01*
X181405656Y-87711020D01*
X181165565Y-87644040D01*
X180379605Y-88430000D01*
X180020395Y-88430000D01*
X179234435Y-87644040D01*
X178994344Y-87711020D01*
X178877244Y-87960048D01*
X178810977Y-88227135D01*
X178805607Y-88341672D01*
X178795358Y-88260541D01*
X178530529Y-87464435D01*
X179414040Y-87464435D01*
X180200000Y-88250395D01*
X180985960Y-87464435D01*
X180918980Y-87224344D01*
X180669952Y-87107244D01*
X180402865Y-87040977D01*
X180127983Y-87028090D01*
X179855867Y-87069078D01*
X179596977Y-87162364D01*
X179481020Y-87224344D01*
X179414040Y-87464435D01*
X178530529Y-87464435D01*
X177227909Y-83548617D01*
X179613771Y-83548617D01*
X179646872Y-83728968D01*
X179714372Y-83899454D01*
X179813701Y-84053583D01*
X179941076Y-84185484D01*
X180091644Y-84290131D01*
X180176838Y-84327351D01*
X184896008Y-92228387D01*
X184893771Y-92388617D01*
X184926872Y-92568968D01*
X184994372Y-92739454D01*
X185093701Y-92893583D01*
X185221076Y-93025484D01*
X185371644Y-93130131D01*
X185539671Y-93203540D01*
X185718757Y-93242915D01*
X185902079Y-93246755D01*
X186082657Y-93214914D01*
X186253610Y-93148606D01*
X186408429Y-93050355D01*
X186541215Y-92923904D01*
X186646911Y-92774070D01*
X186721492Y-92606560D01*
X186762116Y-92427754D01*
X186765040Y-92218319D01*
X186729425Y-92038448D01*
X186659550Y-91868920D01*
X186558079Y-91716193D01*
X186428875Y-91586084D01*
X186276860Y-91483549D01*
X186203098Y-91452542D01*
X181482652Y-83549371D01*
X181485040Y-83378319D01*
X181449425Y-83198448D01*
X181379550Y-83028920D01*
X181278079Y-82876193D01*
X181148875Y-82746084D01*
X180996860Y-82643549D01*
X180827825Y-82572493D01*
X180648207Y-82535623D01*
X180464849Y-82534343D01*
X180284733Y-82568701D01*
X180114722Y-82637390D01*
X179961291Y-82737793D01*
X179830283Y-82866086D01*
X179726689Y-83017381D01*
X179654454Y-83185916D01*
X179616331Y-83365272D01*
X179613771Y-83548617D01*
X177227909Y-83548617D01*
X176745333Y-82097941D01*
X176920196Y-82279016D01*
X177145163Y-82435372D01*
X177396215Y-82545054D01*
X177663789Y-82603884D01*
X177937695Y-82609622D01*
X178207499Y-82562048D01*
X178462923Y-82462975D01*
X178694240Y-82316177D01*
X178892639Y-82127245D01*
X179050561Y-81903375D01*
X179161993Y-81653095D01*
X179222690Y-81385938D01*
X179227059Y-81073017D01*
X179173846Y-80804269D01*
X179069446Y-80550975D01*
X178917835Y-80322783D01*
X178724790Y-80128385D01*
X178497662Y-79975185D01*
X178245103Y-79869019D01*
X177976733Y-79813931D01*
X177702774Y-79812018D01*
X177433661Y-79863354D01*
X177179644Y-79965984D01*
X176950399Y-80115997D01*
X176754658Y-80307681D01*
X176599877Y-80533734D01*
X176491950Y-80785546D01*
X176434989Y-81053524D01*
X176431164Y-81327464D01*
X176455661Y-81460937D01*
X173596906Y-76428617D01*
X176253771Y-76428617D01*
X176286872Y-76608968D01*
X176354372Y-76779454D01*
X176453701Y-76933583D01*
X176581076Y-77065484D01*
X176731644Y-77170131D01*
X176899671Y-77243540D01*
X177008961Y-77267569D01*
X183311639Y-83981486D01*
X183336872Y-84118968D01*
X183404372Y-84289454D01*
X183503701Y-84443583D01*
X183631076Y-84575484D01*
X183781644Y-84680131D01*
X183949671Y-84753540D01*
X184128757Y-84792915D01*
X184312079Y-84796755D01*
X184492657Y-84764914D01*
X184663610Y-84698606D01*
X184818429Y-84600355D01*
X184951215Y-84473904D01*
X185056911Y-84324070D01*
X185131492Y-84156560D01*
X185172116Y-83977754D01*
X185175040Y-83768319D01*
X185139425Y-83588448D01*
X185069550Y-83418920D01*
X184968079Y-83266193D01*
X184838875Y-83136084D01*
X184686860Y-83033549D01*
X184517825Y-82962493D01*
X184421265Y-82942672D01*
X178119347Y-76229564D01*
X178089425Y-76078448D01*
X178019550Y-75908920D01*
X177918079Y-75756193D01*
X177788875Y-75626084D01*
X177636860Y-75523549D01*
X177467825Y-75452493D01*
X177288207Y-75415623D01*
X177104849Y-75414343D01*
X176924733Y-75448701D01*
X176754722Y-75517390D01*
X176601291Y-75617793D01*
X176470283Y-75746086D01*
X176366689Y-75897381D01*
X176294454Y-76065916D01*
X176256331Y-76245272D01*
X176253771Y-76428617D01*
X173596906Y-76428617D01*
X173275713Y-75863215D01*
X168820808Y-70702159D01*
X167817921Y-69918617D01*
X171463771Y-69918617D01*
X171496872Y-70098968D01*
X171564372Y-70269454D01*
X171663701Y-70423583D01*
X171791076Y-70555484D01*
X171941644Y-70660131D01*
X172109671Y-70733540D01*
X172288757Y-70772915D01*
X172394783Y-70775136D01*
X179960639Y-76263739D01*
X180014372Y-76399454D01*
X180113701Y-76553583D01*
X180241076Y-76685484D01*
X180391644Y-76790131D01*
X180559671Y-76863540D01*
X180738757Y-76902915D01*
X180922079Y-76906755D01*
X181102657Y-76874914D01*
X181273610Y-76808606D01*
X181428429Y-76710355D01*
X181561215Y-76583904D01*
X181666911Y-76434070D01*
X181741492Y-76266560D01*
X181782116Y-76087754D01*
X181785040Y-75878319D01*
X181749425Y-75698448D01*
X181679550Y-75528920D01*
X181578079Y-75376193D01*
X181448875Y-75246084D01*
X181296860Y-75143549D01*
X181127825Y-75072493D01*
X180948207Y-75035623D01*
X180855370Y-75034975D01*
X173290672Y-69547212D01*
X173229550Y-69398920D01*
X173128079Y-69246193D01*
X172998875Y-69116084D01*
X172846860Y-69013549D01*
X172677825Y-68942493D01*
X172498207Y-68905623D01*
X172314849Y-68904343D01*
X172134733Y-68938701D01*
X171964722Y-69007390D01*
X171811291Y-69107793D01*
X171680283Y-69236086D01*
X171576689Y-69387381D01*
X171504454Y-69555916D01*
X171466331Y-69735272D01*
X171463771Y-69918617D01*
X167817921Y-69918617D01*
X163448293Y-66504690D01*
X159932267Y-64728617D01*
X165433771Y-64728617D01*
X165466872Y-64908968D01*
X165534372Y-65079454D01*
X165633701Y-65233583D01*
X165761076Y-65365484D01*
X165911644Y-65470131D01*
X166079671Y-65543540D01*
X166258757Y-65582915D01*
X166442079Y-65586755D01*
X166569713Y-65564249D01*
X175077730Y-69241216D01*
X175143701Y-69343583D01*
X175271076Y-69475484D01*
X175421644Y-69580131D01*
X175589671Y-69653540D01*
X175768757Y-69692915D01*
X175952079Y-69696755D01*
X176132657Y-69664914D01*
X176303610Y-69598606D01*
X176458429Y-69500355D01*
X176591215Y-69373904D01*
X176696911Y-69224070D01*
X176771492Y-69056560D01*
X176812116Y-68877754D01*
X176815040Y-68668319D01*
X176779425Y-68488448D01*
X176709550Y-68318920D01*
X176608079Y-68166193D01*
X176478875Y-68036084D01*
X176326860Y-67933549D01*
X176157825Y-67862493D01*
X175978207Y-67825623D01*
X175794849Y-67824343D01*
X175681004Y-67846059D01*
X167173131Y-64169156D01*
X167098079Y-64056193D01*
X166968875Y-63926084D01*
X166816860Y-63823549D01*
X166647825Y-63752493D01*
X166468207Y-63715623D01*
X166284849Y-63714343D01*
X166104733Y-63748701D01*
X165934722Y-63817390D01*
X165781291Y-63917793D01*
X165650283Y-64046086D01*
X165546689Y-64197381D01*
X165474454Y-64365916D01*
X165436331Y-64545272D01*
X165433771Y-64728617D01*
X159932267Y-64728617D01*
X157362804Y-63430688D01*
X150796135Y-61597241D01*
X143998408Y-61074184D01*
X137228548Y-61881441D01*
X130744416Y-63988264D01*
X124792991Y-67314403D01*
X119600960Y-71733168D01*
X115366086Y-77076249D01*
X112249675Y-83140129D01*
X110370429Y-89693839D01*
X109799928Y-96487748D01*
X109717659Y-96487748D01*
X109741993Y-96433095D01*
X109802690Y-96165938D01*
X109807059Y-95853017D01*
X109753846Y-95584269D01*
X109649446Y-95330975D01*
X109497835Y-95102783D01*
X109304790Y-94908385D01*
X109077662Y-94755185D01*
X108825103Y-94649019D01*
X108556733Y-94593931D01*
X108282774Y-94592018D01*
X108013661Y-94643354D01*
X107759644Y-94745984D01*
X107530399Y-94895997D01*
X107334658Y-95087681D01*
X107179877Y-95313734D01*
X107071950Y-95565546D01*
X107014989Y-95833524D01*
X107011164Y-96107464D01*
X106069518Y-96107464D01*
X104375784Y-91087668D01*
X104412116Y-90927754D01*
X104415040Y-90718319D01*
X104379425Y-90538448D01*
X104309550Y-90368920D01*
X104208079Y-90216193D01*
X104078875Y-90086084D01*
X103926860Y-89983549D01*
X103757825Y-89912493D01*
X103578207Y-89875623D01*
X103394849Y-89874343D01*
X103214733Y-89908701D01*
X103044722Y-89977390D01*
X102891291Y-90077793D01*
X102760283Y-90206086D01*
X102656689Y-90357381D01*
X102584454Y-90525916D01*
X102546331Y-90705272D01*
X102543771Y-90888617D01*
X102170774Y-90888617D01*
X102601862Y-87045388D01*
X104047354Y-82488617D01*
X104533771Y-82488617D01*
X104566872Y-82668968D01*
X104634372Y-82839454D01*
X104733701Y-82993583D01*
X104777094Y-83038518D01*
X105832193Y-92239342D01*
X105826689Y-92247381D01*
X105754454Y-92415916D01*
X105716331Y-92595272D01*
X105713771Y-92778617D01*
X105746872Y-92958968D01*
X105814372Y-93129454D01*
X105913701Y-93283583D01*
X106041076Y-93415484D01*
X106191644Y-93520131D01*
X106359671Y-93593540D01*
X106538757Y-93632915D01*
X106722079Y-93636755D01*
X106902657Y-93604914D01*
X107073610Y-93538606D01*
X107228429Y-93440355D01*
X107361215Y-93313904D01*
X107466911Y-93164070D01*
X107541492Y-92996560D01*
X107582116Y-92817754D01*
X107585040Y-92608319D01*
X107549425Y-92428448D01*
X107479550Y-92258920D01*
X107378079Y-92106193D01*
X107342814Y-92070681D01*
X106521509Y-84908617D01*
X107273771Y-84908617D01*
X107306872Y-85088968D01*
X107374372Y-85259454D01*
X107473701Y-85413583D01*
X107601076Y-85545484D01*
X107751644Y-85650131D01*
X107919671Y-85723540D01*
X108098757Y-85762915D01*
X108282079Y-85766755D01*
X108462657Y-85734914D01*
X108633610Y-85668606D01*
X108788429Y-85570355D01*
X108921215Y-85443904D01*
X109026911Y-85294070D01*
X109101492Y-85126560D01*
X109142116Y-84947754D01*
X109145040Y-84738319D01*
X109109425Y-84558448D01*
X109039550Y-84388920D01*
X109014156Y-84350698D01*
X109603356Y-77518617D01*
X110323771Y-77518617D01*
X110356872Y-77698968D01*
X110424372Y-77869454D01*
X110523701Y-78023583D01*
X110651076Y-78155484D01*
X110801644Y-78260131D01*
X110969671Y-78333540D01*
X111148757Y-78372915D01*
X111332079Y-78376755D01*
X111512657Y-78344914D01*
X111683610Y-78278606D01*
X111838429Y-78180355D01*
X111971215Y-78053904D01*
X112076911Y-77904070D01*
X112151492Y-77736560D01*
X112192116Y-77557754D01*
X112195040Y-77348319D01*
X112159425Y-77168448D01*
X112150222Y-77146119D01*
X114074348Y-71068617D01*
X114893771Y-71068617D01*
X114926872Y-71248968D01*
X114994372Y-71419454D01*
X115093701Y-71573583D01*
X115221076Y-71705484D01*
X115371644Y-71810131D01*
X115539671Y-71883540D01*
X115718757Y-71922915D01*
X115902079Y-71926755D01*
X116082657Y-71894914D01*
X116253610Y-71828606D01*
X116408429Y-71730355D01*
X116541215Y-71603904D01*
X116646911Y-71454070D01*
X116721492Y-71286560D01*
X116762116Y-71107754D01*
X116765040Y-70898319D01*
X116761737Y-70881639D01*
X119714629Y-65608617D01*
X120723771Y-65608617D01*
X120756872Y-65788968D01*
X120824372Y-65959454D01*
X120923701Y-66113583D01*
X121051076Y-66245484D01*
X121201644Y-66350131D01*
X121369671Y-66423540D01*
X121548757Y-66462915D01*
X121732079Y-66466755D01*
X121912657Y-66434914D01*
X122083610Y-66368606D01*
X122238429Y-66270355D01*
X122371215Y-66143904D01*
X122476911Y-65994070D01*
X122551492Y-65826560D01*
X122592116Y-65647754D01*
X122592511Y-65619467D01*
X126242662Y-61458617D01*
X127533771Y-61458617D01*
X127566872Y-61638968D01*
X127634372Y-61809454D01*
X127733701Y-61963583D01*
X127861076Y-62095484D01*
X128011644Y-62200131D01*
X128179671Y-62273540D01*
X128358757Y-62312915D01*
X128542079Y-62316755D01*
X128722657Y-62284914D01*
X128893610Y-62218606D01*
X129048429Y-62120355D01*
X129181215Y-61993904D01*
X129286911Y-61844070D01*
X129361492Y-61676560D01*
X129364516Y-61663250D01*
X129696387Y-61417464D01*
X132031164Y-61417464D01*
X132080620Y-61686928D01*
X132181474Y-61941655D01*
X132329883Y-62171942D01*
X132520196Y-62369016D01*
X132745163Y-62525372D01*
X132996215Y-62635054D01*
X133263789Y-62693884D01*
X133537695Y-62699622D01*
X133807499Y-62652048D01*
X134062923Y-62552975D01*
X134294240Y-62406177D01*
X134492639Y-62217245D01*
X134650561Y-61993375D01*
X134761993Y-61743095D01*
X134822690Y-61475938D01*
X134827059Y-61163017D01*
X134773846Y-60894269D01*
X134669446Y-60640975D01*
X134517835Y-60412783D01*
X134324790Y-60218385D01*
X134097662Y-60065185D01*
X133845103Y-59959019D01*
X133576733Y-59903931D01*
X133302774Y-59902018D01*
X133033661Y-59953354D01*
X132779644Y-60055984D01*
X132550399Y-60205997D01*
X132354658Y-60397681D01*
X132199877Y-60623734D01*
X132091950Y-60875546D01*
X132034989Y-61143524D01*
X132031164Y-61417464D01*
X129696387Y-61417464D01*
X131775765Y-59877464D01*
X139381164Y-59877464D01*
X139430620Y-60146928D01*
X139531474Y-60401655D01*
X139679883Y-60631942D01*
X139870196Y-60829016D01*
X140095163Y-60985372D01*
X140346215Y-61095054D01*
X140613789Y-61153884D01*
X140887695Y-61159622D01*
X141157499Y-61112048D01*
X141412923Y-61012975D01*
X141608880Y-60888617D01*
X158443771Y-60888617D01*
X158476872Y-61068968D01*
X158544372Y-61239454D01*
X158643701Y-61393583D01*
X158771076Y-61525484D01*
X158921644Y-61630131D01*
X159089671Y-61703540D01*
X159268757Y-61742915D01*
X159452079Y-61746755D01*
X159632657Y-61714914D01*
X159767605Y-61662572D01*
X168896611Y-63488373D01*
X168971076Y-63565484D01*
X169121644Y-63670131D01*
X169289671Y-63743540D01*
X169468757Y-63782915D01*
X169652079Y-63786755D01*
X169832657Y-63754914D01*
X170003610Y-63688606D01*
X170158429Y-63590355D01*
X170291215Y-63463904D01*
X170396911Y-63314070D01*
X170471492Y-63146560D01*
X170512116Y-62967754D01*
X170515040Y-62758319D01*
X170479425Y-62578448D01*
X170409550Y-62408920D01*
X170308079Y-62256193D01*
X170178875Y-62126084D01*
X170026860Y-62023549D01*
X169857825Y-61952493D01*
X169678207Y-61915623D01*
X169494849Y-61914343D01*
X169314733Y-61948701D01*
X169193555Y-61997660D01*
X160063931Y-60171736D01*
X159978875Y-60086084D01*
X159826860Y-59983549D01*
X159657825Y-59912493D01*
X159478207Y-59875623D01*
X159294849Y-59874343D01*
X159114733Y-59908701D01*
X158944722Y-59977390D01*
X158791291Y-60077793D01*
X158660283Y-60206086D01*
X158556689Y-60357381D01*
X158484454Y-60525916D01*
X158446331Y-60705272D01*
X158443771Y-60888617D01*
X141608880Y-60888617D01*
X141644240Y-60866177D01*
X141842639Y-60677245D01*
X142000561Y-60453375D01*
X142111993Y-60203095D01*
X142172690Y-59935938D01*
X142177059Y-59623017D01*
X142123846Y-59354269D01*
X142019446Y-59100975D01*
X141867835Y-58872783D01*
X141674790Y-58678385D01*
X141447662Y-58525185D01*
X141195103Y-58419019D01*
X140926733Y-58363931D01*
X140652774Y-58362018D01*
X140383661Y-58413354D01*
X140129644Y-58515984D01*
X139900399Y-58665997D01*
X139704658Y-58857681D01*
X139549877Y-59083734D01*
X139441950Y-59335546D01*
X139384989Y-59603524D01*
X139381164Y-59877464D01*
X131775765Y-59877464D01*
X134434192Y-57908617D01*
X142923771Y-57908617D01*
X142956872Y-58088968D01*
X143024372Y-58259454D01*
X143123701Y-58413583D01*
X143251076Y-58545484D01*
X143401644Y-58650131D01*
X143569671Y-58723540D01*
X143748757Y-58762915D01*
X143932079Y-58766755D01*
X144112657Y-58734914D01*
X144283610Y-58668606D01*
X144425410Y-58578617D01*
X150803771Y-58578617D01*
X150836872Y-58758968D01*
X150904372Y-58929454D01*
X151003701Y-59083583D01*
X151131076Y-59215484D01*
X151281644Y-59320131D01*
X151449671Y-59393540D01*
X151628757Y-59432915D01*
X151812079Y-59436755D01*
X151992657Y-59404914D01*
X152163610Y-59338606D01*
X152300189Y-59251931D01*
X161516413Y-59117844D01*
X161591644Y-59170131D01*
X161759671Y-59243540D01*
X161938757Y-59282915D01*
X162122079Y-59286755D01*
X162302657Y-59254914D01*
X162473610Y-59188606D01*
X162628429Y-59090355D01*
X162761215Y-58963904D01*
X162866911Y-58814070D01*
X162941492Y-58646560D01*
X162982116Y-58467754D01*
X162985040Y-58258319D01*
X162949425Y-58078448D01*
X162879550Y-57908920D01*
X162778079Y-57756193D01*
X162648875Y-57626084D01*
X162496860Y-57523549D01*
X162327825Y-57452493D01*
X162148207Y-57415623D01*
X161964849Y-57414343D01*
X161784733Y-57448701D01*
X161614722Y-57517390D01*
X161491469Y-57598045D01*
X152273745Y-57732154D01*
X152186860Y-57673549D01*
X152017825Y-57602493D01*
X151838207Y-57565623D01*
X151654849Y-57564343D01*
X151474733Y-57598701D01*
X151304722Y-57667390D01*
X151151291Y-57767793D01*
X151020283Y-57896086D01*
X150916689Y-58047381D01*
X150844454Y-58215916D01*
X150806331Y-58395272D01*
X150803771Y-58578617D01*
X144425410Y-58578617D01*
X144438429Y-58570355D01*
X144570886Y-58444218D01*
X153462437Y-56364166D01*
X153529671Y-56393540D01*
X153708757Y-56432915D01*
X153892079Y-56436755D01*
X154072657Y-56404914D01*
X154243610Y-56338606D01*
X154398429Y-56240355D01*
X154531215Y-56113904D01*
X154636911Y-55964070D01*
X154711492Y-55796560D01*
X154752116Y-55617754D01*
X154755040Y-55408319D01*
X154719425Y-55228448D01*
X154649550Y-55058920D01*
X154548079Y-54906193D01*
X154418875Y-54776084D01*
X154266860Y-54673549D01*
X154097825Y-54602493D01*
X153918207Y-54565623D01*
X153734849Y-54564343D01*
X153554733Y-54598701D01*
X153384722Y-54667390D01*
X153231291Y-54767793D01*
X153111335Y-54885263D01*
X144217291Y-56965898D01*
X144137825Y-56932493D01*
X143958207Y-56895623D01*
X143774849Y-56894343D01*
X143594733Y-56928701D01*
X143424722Y-56997390D01*
X143271291Y-57097793D01*
X143140283Y-57226086D01*
X143036689Y-57377381D01*
X142964454Y-57545916D01*
X142926331Y-57725272D01*
X142923771Y-57908617D01*
X134434192Y-57908617D01*
X136733773Y-56205534D01*
X136792079Y-56206755D01*
X136972657Y-56174914D01*
X137143610Y-56108606D01*
X137298429Y-56010355D01*
X137431215Y-55883904D01*
X137536911Y-55734070D01*
X137611492Y-55566560D01*
X137652116Y-55387754D01*
X137655040Y-55178319D01*
X137619425Y-54998448D01*
X137549550Y-54828920D01*
X137448079Y-54676193D01*
X137318875Y-54546084D01*
X137166860Y-54443549D01*
X136997825Y-54372493D01*
X136818207Y-54335623D01*
X136634849Y-54334343D01*
X136454733Y-54368701D01*
X136284722Y-54437390D01*
X136131291Y-54537793D01*
X136000283Y-54666086D01*
X135896689Y-54817381D01*
X135824454Y-54985916D01*
X135824051Y-54987811D01*
X128455726Y-60444838D01*
X128384849Y-60444343D01*
X128204733Y-60478701D01*
X128034722Y-60547390D01*
X127881291Y-60647793D01*
X127750283Y-60776086D01*
X127646689Y-60927381D01*
X127574454Y-61095916D01*
X127536331Y-61275272D01*
X127533771Y-61458617D01*
X126242662Y-61458617D01*
X128660653Y-58702321D01*
X128702657Y-58694914D01*
X128873610Y-58628606D01*
X129028429Y-58530355D01*
X129161215Y-58403904D01*
X129266911Y-58254070D01*
X129341492Y-58086560D01*
X129382116Y-57907754D01*
X129385040Y-57698319D01*
X129349425Y-57518448D01*
X129279550Y-57348920D01*
X129178079Y-57196193D01*
X129048875Y-57066084D01*
X128896860Y-56963549D01*
X128727825Y-56892493D01*
X128548207Y-56855623D01*
X128364849Y-56854343D01*
X128184733Y-56888701D01*
X128014722Y-56957390D01*
X127861291Y-57057793D01*
X127730283Y-57186086D01*
X127626689Y-57337381D01*
X127554454Y-57505916D01*
X127516331Y-57685272D01*
X127516096Y-57702122D01*
X121448710Y-64618405D01*
X121394733Y-64628701D01*
X121224722Y-64697390D01*
X121071291Y-64797793D01*
X120940283Y-64926086D01*
X120836689Y-65077381D01*
X120764454Y-65245916D01*
X120726331Y-65425272D01*
X120723771Y-65608617D01*
X119714629Y-65608617D01*
X121265283Y-62839593D01*
X121293610Y-62828606D01*
X121448429Y-62730355D01*
X121581215Y-62603904D01*
X121686911Y-62454070D01*
X121761492Y-62286560D01*
X121802116Y-62107754D01*
X121805040Y-61898319D01*
X121769425Y-61718448D01*
X121699550Y-61548920D01*
X121598079Y-61396193D01*
X121468875Y-61266084D01*
X121316860Y-61163549D01*
X121147825Y-61092493D01*
X120968207Y-61055623D01*
X120784849Y-61054343D01*
X120604733Y-61088701D01*
X120434722Y-61157390D01*
X120281291Y-61257793D01*
X120150283Y-61386086D01*
X120046689Y-61537381D01*
X119974454Y-61705916D01*
X119936331Y-61885272D01*
X119933771Y-62068617D01*
X119938992Y-62097061D01*
X115434121Y-70141472D01*
X115394722Y-70157390D01*
X115241291Y-70257793D01*
X115110283Y-70386086D01*
X115006689Y-70537381D01*
X114934454Y-70705916D01*
X114896331Y-70885272D01*
X114893771Y-71068617D01*
X114074348Y-71068617D01*
X114908850Y-68432780D01*
X114928429Y-68420355D01*
X115061215Y-68293904D01*
X115166911Y-68144070D01*
X115241492Y-67976560D01*
X115282116Y-67797754D01*
X115285040Y-67588319D01*
X115249425Y-67408448D01*
X115179550Y-67238920D01*
X115078079Y-67086193D01*
X114948875Y-66956084D01*
X114796860Y-66853549D01*
X114627825Y-66782493D01*
X114448207Y-66745623D01*
X114264849Y-66744343D01*
X114084733Y-66778701D01*
X113914722Y-66847390D01*
X113761291Y-66947793D01*
X113630283Y-67076086D01*
X113526689Y-67227381D01*
X113454454Y-67395916D01*
X113416331Y-67575272D01*
X113413771Y-67758617D01*
X113446872Y-67938968D01*
X113460186Y-67972594D01*
X110700737Y-76688524D01*
X110671291Y-76707793D01*
X110540283Y-76836086D01*
X110436689Y-76987381D01*
X110364454Y-77155916D01*
X110326331Y-77335272D01*
X110323771Y-77518617D01*
X109603356Y-77518617D01*
X109809758Y-75125292D01*
X109811215Y-75123904D01*
X109916911Y-74974070D01*
X109991492Y-74806560D01*
X110032116Y-74627754D01*
X110035040Y-74418319D01*
X109999425Y-74238448D01*
X109929550Y-74068920D01*
X109828079Y-73916193D01*
X109698875Y-73786084D01*
X109546860Y-73683549D01*
X109377825Y-73612493D01*
X109198207Y-73575623D01*
X109014849Y-73574343D01*
X108834733Y-73608701D01*
X108664722Y-73677390D01*
X108511291Y-73777793D01*
X108380283Y-73906086D01*
X108276689Y-74057381D01*
X108204454Y-74225916D01*
X108166331Y-74405272D01*
X108163771Y-74588617D01*
X108196872Y-74768968D01*
X108264372Y-74939454D01*
X108295921Y-74988409D01*
X107500089Y-84216483D01*
X107490283Y-84226086D01*
X107386689Y-84377381D01*
X107314454Y-84545916D01*
X107276331Y-84725272D01*
X107273771Y-84908617D01*
X106521509Y-84908617D01*
X106287934Y-82871771D01*
X106361492Y-82706560D01*
X106402116Y-82527754D01*
X106405040Y-82318319D01*
X106369425Y-82138448D01*
X106299550Y-81968920D01*
X106198079Y-81816193D01*
X106068875Y-81686084D01*
X105916860Y-81583549D01*
X105747825Y-81512493D01*
X105568207Y-81475623D01*
X105384849Y-81474343D01*
X105204733Y-81508701D01*
X105034722Y-81577390D01*
X104881291Y-81677793D01*
X104750283Y-81806086D01*
X104646689Y-81957381D01*
X104574454Y-82125916D01*
X104536331Y-82305272D01*
X104533771Y-82488617D01*
X104047354Y-82488617D01*
X105143479Y-79033195D01*
X109192934Y-71667263D01*
X114595985Y-65228158D01*
X121146832Y-59961142D01*
X128595954Y-56066835D01*
X136659617Y-53693570D01*
X145030678Y-52931744D01*
X153390287Y-53810374D01*
X153390287Y-53810374D01*
G37*
X153390287Y-53810374D02*
X161420027Y-56295994D01*
X168814050Y-60293927D01*
X175290719Y-65651894D01*
X180603340Y-72165810D01*
X184549556Y-79587563D01*
X186979058Y-87634461D01*
X187799306Y-96000000D01*
X187782514Y-97202566D01*
X186729006Y-105541940D01*
X184075769Y-113517865D01*
X179923864Y-120826540D01*
X174431435Y-127189579D01*
X167807688Y-132364618D01*
X160304919Y-136154539D01*
X152208907Y-138414986D01*
X143828025Y-139059860D01*
X135481498Y-138064597D01*
X133370269Y-137378617D01*
X142933771Y-137378617D01*
X142966872Y-137558968D01*
X143034372Y-137729454D01*
X143133701Y-137883583D01*
X143261076Y-138015484D01*
X143411644Y-138120131D01*
X143579671Y-138193540D01*
X143758757Y-138232915D01*
X143942079Y-138236755D01*
X144122657Y-138204914D01*
X144293610Y-138138606D01*
X144448429Y-138040355D01*
X144581215Y-137913904D01*
X144686911Y-137764070D01*
X144688101Y-137761398D01*
X147163239Y-136628617D01*
X151573771Y-136628617D01*
X151606872Y-136808968D01*
X151674372Y-136979454D01*
X151773701Y-137133583D01*
X151901076Y-137265484D01*
X152051644Y-137370131D01*
X152219671Y-137443540D01*
X152398757Y-137482915D01*
X152582079Y-137486755D01*
X152762657Y-137454914D01*
X152933610Y-137388606D01*
X153088429Y-137290355D01*
X153221215Y-137163904D01*
X153326911Y-137014070D01*
X153401492Y-136846560D01*
X153404805Y-136831980D01*
X157097101Y-134088617D01*
X159863771Y-134088617D01*
X159896872Y-134268968D01*
X159964372Y-134439454D01*
X160063701Y-134593583D01*
X160191076Y-134725484D01*
X160341644Y-134830131D01*
X160509671Y-134903540D01*
X160688757Y-134942915D01*
X160872079Y-134946755D01*
X161052657Y-134914914D01*
X161223610Y-134848606D01*
X161378429Y-134750355D01*
X161511215Y-134623904D01*
X161616911Y-134474070D01*
X161691492Y-134306560D01*
X161732116Y-134127754D01*
X161732531Y-134097998D01*
X165403585Y-129898617D01*
X167443771Y-129898617D01*
X167476872Y-130078968D01*
X167544372Y-130249454D01*
X167643701Y-130403583D01*
X167771076Y-130535484D01*
X167921644Y-130640131D01*
X168089671Y-130713540D01*
X168268757Y-130752915D01*
X168452079Y-130756755D01*
X168632657Y-130724914D01*
X168803610Y-130658606D01*
X168958429Y-130560355D01*
X169091215Y-130433904D01*
X169196911Y-130284070D01*
X169271492Y-130116560D01*
X169312116Y-129937754D01*
X169315040Y-129728319D01*
X169310644Y-129706118D01*
X172308552Y-124268617D01*
X173923771Y-124268617D01*
X173956872Y-124448968D01*
X174024372Y-124619454D01*
X174123701Y-124773583D01*
X174251076Y-124905484D01*
X174401644Y-125010131D01*
X174569671Y-125083540D01*
X174748757Y-125122915D01*
X174932079Y-125126755D01*
X175112657Y-125094914D01*
X175283610Y-125028606D01*
X175438429Y-124930355D01*
X175571215Y-124803904D01*
X175676911Y-124654070D01*
X175751492Y-124486560D01*
X175792116Y-124307754D01*
X175795040Y-124098319D01*
X175759425Y-123918448D01*
X175749588Y-123894581D01*
X177817458Y-117318617D01*
X179163771Y-117318617D01*
X179196872Y-117498968D01*
X179264372Y-117669454D01*
X179363701Y-117823583D01*
X179491076Y-117955484D01*
X179641644Y-118060131D01*
X179809671Y-118133540D01*
X179988757Y-118172915D01*
X180172079Y-118176755D01*
X180352657Y-118144914D01*
X180523610Y-118078606D01*
X180678429Y-117980355D01*
X180811215Y-117853904D01*
X180916911Y-117704070D01*
X180991492Y-117536560D01*
X181032116Y-117357754D01*
X181035040Y-117148319D01*
X180999425Y-116968448D01*
X180929550Y-116798920D01*
X180903929Y-116760358D01*
X181690040Y-107595023D01*
X181691215Y-107593904D01*
X181796911Y-107444070D01*
X181871492Y-107276560D01*
X181912116Y-107097754D01*
X181915040Y-106888319D01*
X181879425Y-106708448D01*
X181809550Y-106538920D01*
X181708079Y-106386193D01*
X181578875Y-106256084D01*
X181426860Y-106153549D01*
X181257825Y-106082493D01*
X181078207Y-106045623D01*
X180894849Y-106044343D01*
X180714733Y-106078701D01*
X180544722Y-106147390D01*
X180391291Y-106247793D01*
X180260283Y-106376086D01*
X180156689Y-106527381D01*
X180084454Y-106695916D01*
X180046331Y-106875272D01*
X180043771Y-107058617D01*
X180076872Y-107238968D01*
X180144372Y-107409454D01*
X180176146Y-107458758D01*
X179389807Y-116626759D01*
X179380283Y-116636086D01*
X179276689Y-116787381D01*
X179204454Y-116955916D01*
X179166331Y-117135272D01*
X179163771Y-117318617D01*
X177817458Y-117318617D01*
X178530251Y-115051891D01*
X178548429Y-115040355D01*
X178681215Y-114913904D01*
X178786911Y-114764070D01*
X178861492Y-114596560D01*
X178902116Y-114417754D01*
X178905040Y-114208319D01*
X178869425Y-114028448D01*
X178799550Y-113858920D01*
X178698079Y-113706193D01*
X178568875Y-113576084D01*
X178416860Y-113473549D01*
X178247825Y-113402493D01*
X178068207Y-113365623D01*
X177884849Y-113364343D01*
X177704733Y-113398701D01*
X177534722Y-113467390D01*
X177381291Y-113567793D01*
X177250283Y-113696086D01*
X177146689Y-113847381D01*
X177074454Y-114015916D01*
X177036331Y-114195272D01*
X177033771Y-114378617D01*
X177066872Y-114558968D01*
X177080807Y-114594164D01*
X174299328Y-123439446D01*
X174271291Y-123457793D01*
X174140283Y-123586086D01*
X174036689Y-123737381D01*
X173964454Y-123905916D01*
X173926331Y-124085272D01*
X173923771Y-124268617D01*
X172308552Y-124268617D01*
X173720575Y-121707541D01*
X173743610Y-121698606D01*
X173898429Y-121600355D01*
X174031215Y-121473904D01*
X174136911Y-121324070D01*
X174211492Y-121156560D01*
X174252116Y-120977754D01*
X174255040Y-120768319D01*
X174219425Y-120588448D01*
X174149550Y-120418920D01*
X174048079Y-120266193D01*
X173918875Y-120136084D01*
X173766860Y-120033549D01*
X173597825Y-119962493D01*
X173418207Y-119925623D01*
X173234849Y-119924343D01*
X173054733Y-119958701D01*
X172884722Y-120027390D01*
X172731291Y-120127793D01*
X172600283Y-120256086D01*
X172496689Y-120407381D01*
X172424454Y-120575916D01*
X172386331Y-120755272D01*
X172383771Y-120938617D01*
X172390022Y-120972673D01*
X167978781Y-128973629D01*
X167944722Y-128987390D01*
X167791291Y-129087793D01*
X167660283Y-129216086D01*
X167556689Y-129367381D01*
X167484454Y-129535916D01*
X167446331Y-129715272D01*
X167443771Y-129898617D01*
X165403585Y-129898617D01*
X167752148Y-127212057D01*
X167792657Y-127204914D01*
X167963610Y-127138606D01*
X168118429Y-127040355D01*
X168251215Y-126913904D01*
X168356911Y-126764070D01*
X168431492Y-126596560D01*
X168472116Y-126417754D01*
X168475040Y-126208319D01*
X168439425Y-126028448D01*
X168369550Y-125858920D01*
X168268079Y-125706193D01*
X168138875Y-125576084D01*
X167986860Y-125473549D01*
X167817825Y-125402493D01*
X167638207Y-125365623D01*
X167454849Y-125364343D01*
X167274733Y-125398701D01*
X167104722Y-125467390D01*
X166951291Y-125567793D01*
X166820283Y-125696086D01*
X166716689Y-125847381D01*
X166644454Y-126015916D01*
X166606331Y-126195272D01*
X166606075Y-126213597D01*
X160587196Y-133098693D01*
X160534733Y-133108701D01*
X160364722Y-133177390D01*
X160211291Y-133277793D01*
X160080283Y-133406086D01*
X159976689Y-133557381D01*
X159904454Y-133725916D01*
X159866331Y-133905272D01*
X159863771Y-134088617D01*
X157097101Y-134088617D01*
X160735147Y-131385562D01*
X160792079Y-131386755D01*
X160972657Y-131354914D01*
X161143610Y-131288606D01*
X161298429Y-131190355D01*
X161431215Y-131063904D01*
X161536911Y-130914070D01*
X161611492Y-130746560D01*
X161652116Y-130567754D01*
X161655040Y-130358319D01*
X161619425Y-130178448D01*
X161549550Y-130008920D01*
X161448079Y-129856193D01*
X161318875Y-129726084D01*
X161166860Y-129623549D01*
X160997825Y-129552493D01*
X160818207Y-129515623D01*
X160634849Y-129514343D01*
X160454733Y-129548701D01*
X160284722Y-129617390D01*
X160131291Y-129717793D01*
X160000283Y-129846086D01*
X159896689Y-129997381D01*
X159824454Y-130165916D01*
X159823784Y-130169070D01*
X152494328Y-135614828D01*
X152424849Y-135614343D01*
X152244733Y-135648701D01*
X152074722Y-135717390D01*
X151921291Y-135817793D01*
X151790283Y-135946086D01*
X151686689Y-136097381D01*
X151614454Y-136265916D01*
X151576331Y-136445272D01*
X151573771Y-136628617D01*
X147163239Y-136628617D01*
X153020581Y-133947925D01*
X153088757Y-133962915D01*
X153272079Y-133966755D01*
X153452657Y-133934914D01*
X153623610Y-133868606D01*
X153778429Y-133770355D01*
X153911215Y-133643904D01*
X154016911Y-133494070D01*
X154091492Y-133326560D01*
X154132116Y-133147754D01*
X154135040Y-132938319D01*
X154099425Y-132758448D01*
X154029550Y-132588920D01*
X153928079Y-132436193D01*
X153798875Y-132306084D01*
X153646860Y-132203549D01*
X153477825Y-132132493D01*
X153298207Y-132095623D01*
X153114849Y-132094343D01*
X152934733Y-132128701D01*
X152764722Y-132197390D01*
X152611291Y-132297793D01*
X152480283Y-132426086D01*
X152383065Y-132568069D01*
X144049088Y-136382225D01*
X143968207Y-136365623D01*
X143784849Y-136364343D01*
X143604733Y-136398701D01*
X143434722Y-136467390D01*
X143281291Y-136567793D01*
X143150283Y-136696086D01*
X143046689Y-136847381D01*
X142974454Y-137015916D01*
X142936331Y-137195272D01*
X142933771Y-137378617D01*
X133370269Y-137378617D01*
X129984817Y-136278617D01*
X134283771Y-136278617D01*
X134316872Y-136458968D01*
X134384372Y-136629454D01*
X134483701Y-136783583D01*
X134611076Y-136915484D01*
X134761644Y-137020131D01*
X134929671Y-137093540D01*
X135108757Y-137132915D01*
X135292079Y-137136755D01*
X135472657Y-137104914D01*
X135643610Y-137038606D01*
X135798429Y-136940355D01*
X135917261Y-136827192D01*
X144917616Y-134887691D01*
X144999671Y-134923540D01*
X145178757Y-134962915D01*
X145362079Y-134966755D01*
X145542657Y-134934914D01*
X145713610Y-134868606D01*
X145868429Y-134770355D01*
X146001215Y-134643904D01*
X146106911Y-134494070D01*
X146181492Y-134326560D01*
X146222116Y-134147754D01*
X146225040Y-133938319D01*
X146189425Y-133758448D01*
X146119550Y-133588920D01*
X146018079Y-133436193D01*
X145888875Y-133306084D01*
X145736860Y-133203549D01*
X145567825Y-133132493D01*
X145388207Y-133095623D01*
X145204849Y-133094343D01*
X145024733Y-133128701D01*
X144854722Y-133197390D01*
X144701291Y-133297793D01*
X144594425Y-133402445D01*
X135592488Y-135342286D01*
X135497825Y-135302493D01*
X135318207Y-135265623D01*
X135134849Y-135264343D01*
X134954733Y-135298701D01*
X134784722Y-135367390D01*
X134631291Y-135467793D01*
X134500283Y-135596086D01*
X134396689Y-135747381D01*
X134324454Y-135915916D01*
X134286331Y-136095272D01*
X134283771Y-136278617D01*
X129984817Y-136278617D01*
X127487245Y-135467107D01*
X123929262Y-133478617D01*
X126213771Y-133478617D01*
X126246872Y-133658968D01*
X126314372Y-133829454D01*
X126413701Y-133983583D01*
X126541076Y-134115484D01*
X126691644Y-134220131D01*
X126859671Y-134293540D01*
X127038757Y-134332915D01*
X127222079Y-134336755D01*
X127402657Y-134304914D01*
X127573610Y-134238606D01*
X127710303Y-134151858D01*
X136836510Y-134017912D01*
X136911644Y-134070131D01*
X137079671Y-134143540D01*
X137258757Y-134182915D01*
X137442079Y-134186755D01*
X137622657Y-134154914D01*
X137793610Y-134088606D01*
X137948429Y-133990355D01*
X138081215Y-133863904D01*
X138186911Y-133714070D01*
X138261492Y-133546560D01*
X138302116Y-133367754D01*
X138305040Y-133158319D01*
X138269425Y-132978448D01*
X138199550Y-132808920D01*
X138098079Y-132656193D01*
X137968875Y-132526084D01*
X137816860Y-132423549D01*
X137647825Y-132352493D01*
X137468207Y-132315623D01*
X137284849Y-132314343D01*
X137104733Y-132348701D01*
X136934722Y-132417390D01*
X136811358Y-132498118D01*
X127683645Y-132632086D01*
X127596860Y-132573549D01*
X127427825Y-132502493D01*
X127248207Y-132465623D01*
X127064849Y-132464343D01*
X126884733Y-132498701D01*
X126714722Y-132567390D01*
X126561291Y-132667793D01*
X126430283Y-132796086D01*
X126326689Y-132947381D01*
X126254454Y-133115916D01*
X126216331Y-133295272D01*
X126213771Y-133478617D01*
X123929262Y-133478617D01*
X120149763Y-131366327D01*
X117449963Y-129068617D01*
X118753771Y-129068617D01*
X118786872Y-129248968D01*
X118854372Y-129419454D01*
X118953701Y-129573583D01*
X119081076Y-129705484D01*
X119231644Y-129810131D01*
X119399671Y-129883540D01*
X119578757Y-129922915D01*
X119762079Y-129926755D01*
X119942657Y-129894914D01*
X120081432Y-129841087D01*
X129069275Y-131601132D01*
X129141076Y-131675484D01*
X129291644Y-131780131D01*
X129459671Y-131853540D01*
X129638757Y-131892915D01*
X129822079Y-131896755D01*
X130002657Y-131864914D01*
X130173610Y-131798606D01*
X130328429Y-131700355D01*
X130461215Y-131573904D01*
X130566911Y-131424070D01*
X130641492Y-131256560D01*
X130682116Y-131077754D01*
X130685040Y-130868319D01*
X130649425Y-130688448D01*
X130579550Y-130518920D01*
X130478079Y-130366193D01*
X130348875Y-130236084D01*
X130196860Y-130133549D01*
X130027825Y-130062493D01*
X129848207Y-130025623D01*
X129664849Y-130024343D01*
X129484733Y-130058701D01*
X129359838Y-130109162D01*
X120371170Y-128348955D01*
X120288875Y-128266084D01*
X120136860Y-128163549D01*
X119967825Y-128092493D01*
X119788207Y-128055623D01*
X119604849Y-128054343D01*
X119424733Y-128088701D01*
X119254722Y-128157390D01*
X119101291Y-128257793D01*
X118970283Y-128386086D01*
X118866689Y-128537381D01*
X118794454Y-128705916D01*
X118756331Y-128885272D01*
X118753771Y-129068617D01*
X117449963Y-129068617D01*
X113748534Y-125918454D01*
X111505633Y-123088617D01*
X112413771Y-123088617D01*
X112446872Y-123268968D01*
X112514372Y-123439454D01*
X112613701Y-123593583D01*
X112741076Y-123725484D01*
X112891644Y-123830131D01*
X113059671Y-123903540D01*
X113238757Y-123942915D01*
X113422079Y-123946755D01*
X113548442Y-123924474D01*
X121977039Y-127580143D01*
X122043701Y-127683583D01*
X122171076Y-127815484D01*
X122321644Y-127920131D01*
X122489671Y-127993540D01*
X122668757Y-128032915D01*
X122852079Y-128036755D01*
X123032657Y-128004914D01*
X123203610Y-127938606D01*
X123358429Y-127840355D01*
X123491215Y-127713904D01*
X123596911Y-127564070D01*
X123671492Y-127396560D01*
X123712116Y-127217754D01*
X123715040Y-127008319D01*
X123679425Y-126828448D01*
X123609550Y-126658920D01*
X123508079Y-126506193D01*
X123378875Y-126376084D01*
X123226860Y-126273549D01*
X123057825Y-126202493D01*
X122878207Y-126165623D01*
X122694849Y-126164343D01*
X122582242Y-126185823D01*
X114153854Y-122530244D01*
X114078079Y-122416193D01*
X113948875Y-122286084D01*
X113796860Y-122183549D01*
X113627825Y-122112493D01*
X113448207Y-122075623D01*
X113264849Y-122074343D01*
X113084733Y-122108701D01*
X112914722Y-122177390D01*
X112761291Y-122277793D01*
X112630283Y-122406086D01*
X112526689Y-122557381D01*
X112454454Y-122725916D01*
X112416331Y-122905272D01*
X112413771Y-123088617D01*
X111505633Y-123088617D01*
X108527380Y-119330997D01*
X106835327Y-116038617D01*
X107453771Y-116038617D01*
X107486872Y-116218968D01*
X107554372Y-116389454D01*
X107653701Y-116543583D01*
X107781076Y-116675484D01*
X107931644Y-116780131D01*
X108099671Y-116853540D01*
X108278757Y-116892915D01*
X108396446Y-116895380D01*
X115905135Y-122205096D01*
X115954372Y-122329454D01*
X116053701Y-122483583D01*
X116181076Y-122615484D01*
X116331644Y-122720131D01*
X116499671Y-122793540D01*
X116678757Y-122832915D01*
X116862079Y-122836755D01*
X117042657Y-122804914D01*
X117213610Y-122738606D01*
X117368429Y-122640355D01*
X117501215Y-122513904D01*
X117606911Y-122364070D01*
X117681492Y-122196560D01*
X117722116Y-122017754D01*
X117725040Y-121808319D01*
X117689425Y-121628448D01*
X117619550Y-121458920D01*
X117518079Y-121306193D01*
X117388875Y-121176084D01*
X117236860Y-121073549D01*
X117067825Y-121002493D01*
X116888207Y-120965623D01*
X116783943Y-120964895D01*
X109275901Y-115655637D01*
X109219550Y-115518920D01*
X109118079Y-115366193D01*
X108988875Y-115236084D01*
X108836860Y-115133549D01*
X108667825Y-115062493D01*
X108488207Y-115025623D01*
X108304849Y-115024343D01*
X108124733Y-115058701D01*
X107954722Y-115127390D01*
X107801291Y-115227793D01*
X107670283Y-115356086D01*
X107566689Y-115507381D01*
X107494454Y-115675916D01*
X107456331Y-115855272D01*
X107453771Y-116038617D01*
X106835327Y-116038617D01*
X104685172Y-111854869D01*
X103596615Y-108058617D01*
X104043771Y-108058617D01*
X104076872Y-108238968D01*
X104144372Y-108409454D01*
X104243701Y-108563583D01*
X104371076Y-108695484D01*
X104521644Y-108800131D01*
X104689671Y-108873540D01*
X104790746Y-108895763D01*
X111060027Y-115692701D01*
X111086872Y-115838968D01*
X111154372Y-116009454D01*
X111253701Y-116163583D01*
X111381076Y-116295484D01*
X111531644Y-116400131D01*
X111699671Y-116473540D01*
X111878757Y-116512915D01*
X112062079Y-116516755D01*
X112242657Y-116484914D01*
X112413610Y-116418606D01*
X112568429Y-116320355D01*
X112701215Y-116193904D01*
X112806911Y-116044070D01*
X112881492Y-115876560D01*
X112922116Y-115697754D01*
X112925040Y-115488319D01*
X112889425Y-115308448D01*
X112819550Y-115138920D01*
X112718079Y-114986193D01*
X112588875Y-114856084D01*
X112436860Y-114753549D01*
X112267825Y-114682493D01*
X112179340Y-114664330D01*
X105911125Y-107868548D01*
X105879425Y-107708448D01*
X105809550Y-107538920D01*
X105708079Y-107386193D01*
X105578875Y-107256084D01*
X105426860Y-107153549D01*
X105257825Y-107082493D01*
X105078207Y-107045623D01*
X104894849Y-107044343D01*
X104714733Y-107078701D01*
X104544722Y-107147390D01*
X104391291Y-107247793D01*
X104260283Y-107376086D01*
X104156689Y-107527381D01*
X104084454Y-107695916D01*
X104046331Y-107875272D01*
X104043771Y-108058617D01*
X103596615Y-108058617D01*
X102368259Y-103774834D01*
X102014214Y-99558617D01*
X102413771Y-99558617D01*
X102446872Y-99738968D01*
X102514372Y-99909454D01*
X102613701Y-100063583D01*
X102741076Y-100195484D01*
X102891644Y-100300131D01*
X102975543Y-100336785D01*
X107666030Y-108216803D01*
X107663771Y-108378617D01*
X107696872Y-108558968D01*
X107764372Y-108729454D01*
X107863701Y-108883583D01*
X107991076Y-109015484D01*
X108141644Y-109120131D01*
X108309671Y-109193540D01*
X108488757Y-109232915D01*
X108672079Y-109236755D01*
X108852657Y-109204914D01*
X109023610Y-109138606D01*
X109178429Y-109040355D01*
X109311215Y-108913904D01*
X109416911Y-108764070D01*
X109491492Y-108596560D01*
X109532116Y-108417754D01*
X109535040Y-108208319D01*
X109499425Y-108028448D01*
X109429550Y-107858920D01*
X109328079Y-107706193D01*
X109198875Y-107576084D01*
X109046860Y-107473549D01*
X108974377Y-107443080D01*
X107166333Y-104405565D01*
X108314040Y-104405565D01*
X108381020Y-104645656D01*
X108630048Y-104762756D01*
X108897135Y-104829023D01*
X109172017Y-104841910D01*
X109444133Y-104800922D01*
X109703023Y-104707636D01*
X109818980Y-104645656D01*
X109885960Y-104405565D01*
X109100000Y-103619605D01*
X108314040Y-104405565D01*
X107166333Y-104405565D01*
X106634459Y-103512017D01*
X107698090Y-103512017D01*
X107739078Y-103784133D01*
X107832364Y-104043023D01*
X107894344Y-104158980D01*
X108134435Y-104225960D01*
X108920395Y-103440000D01*
X109279605Y-103440000D01*
X110065565Y-104225960D01*
X110305656Y-104158980D01*
X110422756Y-103909952D01*
X110489023Y-103642865D01*
X110501910Y-103367983D01*
X110460922Y-103095867D01*
X110367636Y-102836977D01*
X110305656Y-102721020D01*
X110065565Y-102654040D01*
X109279605Y-103440000D01*
X108920395Y-103440000D01*
X108134435Y-102654040D01*
X107894344Y-102721020D01*
X107777244Y-102970048D01*
X107710977Y-103237135D01*
X107698090Y-103512017D01*
X106634459Y-103512017D01*
X106016851Y-102474435D01*
X108314040Y-102474435D01*
X109100000Y-103260395D01*
X109885960Y-102474435D01*
X109818980Y-102234344D01*
X109569952Y-102117244D01*
X109302865Y-102050977D01*
X109027983Y-102038090D01*
X108755867Y-102079078D01*
X108496977Y-102172364D01*
X108381020Y-102234344D01*
X108314040Y-102474435D01*
X106016851Y-102474435D01*
X104282630Y-99560944D01*
X104285040Y-99388319D01*
X104249425Y-99208448D01*
X104179550Y-99038920D01*
X104078079Y-98886193D01*
X103948875Y-98756084D01*
X103796860Y-98653549D01*
X103627825Y-98582493D01*
X103448207Y-98545623D01*
X103264849Y-98544343D01*
X103084733Y-98578701D01*
X102914722Y-98647390D01*
X102761291Y-98747793D01*
X102630283Y-98876086D01*
X102526689Y-99027381D01*
X102454454Y-99195916D01*
X102416331Y-99375272D01*
X102413771Y-99558617D01*
X102014214Y-99558617D01*
X101664892Y-95398659D01*
X102170774Y-90888617D01*
X102543771Y-90888617D01*
X102576872Y-91068968D01*
X102644372Y-91239454D01*
X102743701Y-91393583D01*
X102871076Y-91525484D01*
X102934094Y-91569283D01*
X105893526Y-100340284D01*
X105856331Y-100515272D01*
X105853771Y-100698617D01*
X105886872Y-100878968D01*
X105954372Y-101049454D01*
X106053701Y-101203583D01*
X106181076Y-101335484D01*
X106331644Y-101440131D01*
X106499671Y-101513540D01*
X106678757Y-101552915D01*
X106862079Y-101556755D01*
X107042657Y-101524914D01*
X107213610Y-101458606D01*
X107368429Y-101360355D01*
X107501215Y-101233904D01*
X107606911Y-101084070D01*
X107681492Y-100916560D01*
X107722116Y-100737754D01*
X107725040Y-100528319D01*
X107689425Y-100348448D01*
X107619550Y-100178920D01*
X107518079Y-100026193D01*
X107388875Y-99896084D01*
X107335748Y-99860250D01*
X106069518Y-96107464D01*
X107011164Y-96107464D01*
X107060620Y-96376928D01*
X107161474Y-96631655D01*
X107309883Y-96861942D01*
X107500196Y-97059016D01*
X107725163Y-97215372D01*
X107976215Y-97325054D01*
X108243789Y-97383884D01*
X108517695Y-97389622D01*
X108787499Y-97342048D01*
X109042923Y-97242975D01*
X109274240Y-97096177D01*
X109472639Y-96907245D01*
X109630561Y-96683375D01*
X109717659Y-96487748D01*
X109799928Y-96487748D01*
X110559903Y-103263078D01*
X112621407Y-109761761D01*
X115905917Y-115736262D01*
X120288327Y-120959015D01*
X125601713Y-125231087D01*
X131643689Y-128389756D01*
X138184119Y-130314709D01*
X144973880Y-130932626D01*
X151754351Y-130219969D01*
X158267267Y-128203885D01*
X164264552Y-124961165D01*
X169517773Y-120615323D01*
X173826835Y-115331891D01*
X177027608Y-109312113D01*
X178998174Y-102785281D01*
X179347888Y-99218617D01*
X181563771Y-99218617D01*
X181596872Y-99398968D01*
X181664372Y-99569454D01*
X181763701Y-99723583D01*
X181811201Y-99772771D01*
X182919085Y-108903881D01*
X182916689Y-108907381D01*
X182844454Y-109075916D01*
X182806331Y-109255272D01*
X182803771Y-109438617D01*
X182836872Y-109618968D01*
X182904372Y-109789454D01*
X183003701Y-109943583D01*
X183131076Y-110075484D01*
X183281644Y-110180131D01*
X183449671Y-110253540D01*
X183628757Y-110292915D01*
X183812079Y-110296755D01*
X183992657Y-110264914D01*
X184163610Y-110198606D01*
X184318429Y-110100355D01*
X184451215Y-109973904D01*
X184556911Y-109824070D01*
X184631492Y-109656560D01*
X184672116Y-109477754D01*
X184675040Y-109268319D01*
X184639425Y-109088448D01*
X184569550Y-108918920D01*
X184468079Y-108766193D01*
X184428717Y-108726556D01*
X183320816Y-99595300D01*
X183391492Y-99436560D01*
X183432116Y-99257754D01*
X183435040Y-99048319D01*
X183399425Y-98868448D01*
X183329550Y-98698920D01*
X183228079Y-98546193D01*
X183098875Y-98416084D01*
X182946860Y-98313549D01*
X182777825Y-98242493D01*
X182598207Y-98205623D01*
X182414849Y-98204343D01*
X182234733Y-98238701D01*
X182064722Y-98307390D01*
X181911291Y-98407793D01*
X181780283Y-98536086D01*
X181676689Y-98687381D01*
X181604454Y-98855916D01*
X181566331Y-99035272D01*
X181563771Y-99218617D01*
X179347888Y-99218617D01*
X179663477Y-96000000D01*
X179649857Y-95024600D01*
X179177893Y-91288617D01*
X181443771Y-91288617D01*
X181476872Y-91468968D01*
X181544372Y-91639454D01*
X181643701Y-91793583D01*
X181771076Y-91925484D01*
X181836917Y-91971244D01*
X184792686Y-100624236D01*
X184756331Y-100795272D01*
X184753771Y-100978617D01*
X184786872Y-101158968D01*
X184854372Y-101329454D01*
X184953701Y-101483583D01*
X185081076Y-101615484D01*
X185231644Y-101720131D01*
X185399671Y-101793540D01*
X185578757Y-101832915D01*
X185762079Y-101836755D01*
X185942657Y-101804914D01*
X186113610Y-101738606D01*
X186268429Y-101640355D01*
X186401215Y-101513904D01*
X186506911Y-101364070D01*
X186581492Y-101196560D01*
X186622116Y-101017754D01*
X186625040Y-100808319D01*
X186589425Y-100628448D01*
X186519550Y-100458920D01*
X186418079Y-100306193D01*
X186288875Y-100176084D01*
X186232949Y-100138362D01*
X183276655Y-91483834D01*
X183312116Y-91327754D01*
X183315040Y-91118319D01*
X183279425Y-90938448D01*
X183209550Y-90768920D01*
X183108079Y-90616193D01*
X182978875Y-90486084D01*
X182826860Y-90383549D01*
X182657825Y-90312493D01*
X182478207Y-90275623D01*
X182294849Y-90274343D01*
X182114733Y-90308701D01*
X181944722Y-90377390D01*
X181791291Y-90477793D01*
X181660283Y-90606086D01*
X181556689Y-90757381D01*
X181484454Y-90925916D01*
X181446331Y-91105272D01*
X181443771Y-91288617D01*
X179177893Y-91288617D01*
X178938745Y-89395565D01*
X179414040Y-89395565D01*
X179481020Y-89635656D01*
X179730048Y-89752756D01*
X179997135Y-89819023D01*
X180272017Y-89831910D01*
X180544133Y-89790922D01*
X180803023Y-89697636D01*
X180918980Y-89635656D01*
X180985960Y-89395565D01*
X180200000Y-88609605D01*
X179414040Y-89395565D01*
X178938745Y-89395565D01*
X178871664Y-88864567D01*
X178932364Y-89033023D01*
X178994344Y-89148980D01*
X179234435Y-89215960D01*
X180020395Y-88430000D01*
X180379605Y-88430000D01*
X181165565Y-89215960D01*
X181405656Y-89148980D01*
X181522756Y-88899952D01*
X181589023Y-88632865D01*
X181601910Y-88357983D01*
X181560922Y-88085867D01*
X181467636Y-87826977D01*
X181405656Y-87711020D01*
X181165565Y-87644040D01*
X180379605Y-88430000D01*
X180020395Y-88430000D01*
X179234435Y-87644040D01*
X178994344Y-87711020D01*
X178877244Y-87960048D01*
X178810977Y-88227135D01*
X178805607Y-88341672D01*
X178795358Y-88260541D01*
X178530529Y-87464435D01*
X179414040Y-87464435D01*
X180200000Y-88250395D01*
X180985960Y-87464435D01*
X180918980Y-87224344D01*
X180669952Y-87107244D01*
X180402865Y-87040977D01*
X180127983Y-87028090D01*
X179855867Y-87069078D01*
X179596977Y-87162364D01*
X179481020Y-87224344D01*
X179414040Y-87464435D01*
X178530529Y-87464435D01*
X177227909Y-83548617D01*
X179613771Y-83548617D01*
X179646872Y-83728968D01*
X179714372Y-83899454D01*
X179813701Y-84053583D01*
X179941076Y-84185484D01*
X180091644Y-84290131D01*
X180176838Y-84327351D01*
X184896008Y-92228387D01*
X184893771Y-92388617D01*
X184926872Y-92568968D01*
X184994372Y-92739454D01*
X185093701Y-92893583D01*
X185221076Y-93025484D01*
X185371644Y-93130131D01*
X185539671Y-93203540D01*
X185718757Y-93242915D01*
X185902079Y-93246755D01*
X186082657Y-93214914D01*
X186253610Y-93148606D01*
X186408429Y-93050355D01*
X186541215Y-92923904D01*
X186646911Y-92774070D01*
X186721492Y-92606560D01*
X186762116Y-92427754D01*
X186765040Y-92218319D01*
X186729425Y-92038448D01*
X186659550Y-91868920D01*
X186558079Y-91716193D01*
X186428875Y-91586084D01*
X186276860Y-91483549D01*
X186203098Y-91452542D01*
X181482652Y-83549371D01*
X181485040Y-83378319D01*
X181449425Y-83198448D01*
X181379550Y-83028920D01*
X181278079Y-82876193D01*
X181148875Y-82746084D01*
X180996860Y-82643549D01*
X180827825Y-82572493D01*
X180648207Y-82535623D01*
X180464849Y-82534343D01*
X180284733Y-82568701D01*
X180114722Y-82637390D01*
X179961291Y-82737793D01*
X179830283Y-82866086D01*
X179726689Y-83017381D01*
X179654454Y-83185916D01*
X179616331Y-83365272D01*
X179613771Y-83548617D01*
X177227909Y-83548617D01*
X176745333Y-82097941D01*
X176920196Y-82279016D01*
X177145163Y-82435372D01*
X177396215Y-82545054D01*
X177663789Y-82603884D01*
X177937695Y-82609622D01*
X178207499Y-82562048D01*
X178462923Y-82462975D01*
X178694240Y-82316177D01*
X178892639Y-82127245D01*
X179050561Y-81903375D01*
X179161993Y-81653095D01*
X179222690Y-81385938D01*
X179227059Y-81073017D01*
X179173846Y-80804269D01*
X179069446Y-80550975D01*
X178917835Y-80322783D01*
X178724790Y-80128385D01*
X178497662Y-79975185D01*
X178245103Y-79869019D01*
X177976733Y-79813931D01*
X177702774Y-79812018D01*
X177433661Y-79863354D01*
X177179644Y-79965984D01*
X176950399Y-80115997D01*
X176754658Y-80307681D01*
X176599877Y-80533734D01*
X176491950Y-80785546D01*
X176434989Y-81053524D01*
X176431164Y-81327464D01*
X176455661Y-81460937D01*
X173596906Y-76428617D01*
X176253771Y-76428617D01*
X176286872Y-76608968D01*
X176354372Y-76779454D01*
X176453701Y-76933583D01*
X176581076Y-77065484D01*
X176731644Y-77170131D01*
X176899671Y-77243540D01*
X177008961Y-77267569D01*
X183311639Y-83981486D01*
X183336872Y-84118968D01*
X183404372Y-84289454D01*
X183503701Y-84443583D01*
X183631076Y-84575484D01*
X183781644Y-84680131D01*
X183949671Y-84753540D01*
X184128757Y-84792915D01*
X184312079Y-84796755D01*
X184492657Y-84764914D01*
X184663610Y-84698606D01*
X184818429Y-84600355D01*
X184951215Y-84473904D01*
X185056911Y-84324070D01*
X185131492Y-84156560D01*
X185172116Y-83977754D01*
X185175040Y-83768319D01*
X185139425Y-83588448D01*
X185069550Y-83418920D01*
X184968079Y-83266193D01*
X184838875Y-83136084D01*
X184686860Y-83033549D01*
X184517825Y-82962493D01*
X184421265Y-82942672D01*
X178119347Y-76229564D01*
X178089425Y-76078448D01*
X178019550Y-75908920D01*
X177918079Y-75756193D01*
X177788875Y-75626084D01*
X177636860Y-75523549D01*
X177467825Y-75452493D01*
X177288207Y-75415623D01*
X177104849Y-75414343D01*
X176924733Y-75448701D01*
X176754722Y-75517390D01*
X176601291Y-75617793D01*
X176470283Y-75746086D01*
X176366689Y-75897381D01*
X176294454Y-76065916D01*
X176256331Y-76245272D01*
X176253771Y-76428617D01*
X173596906Y-76428617D01*
X173275713Y-75863215D01*
X168820808Y-70702159D01*
X167817921Y-69918617D01*
X171463771Y-69918617D01*
X171496872Y-70098968D01*
X171564372Y-70269454D01*
X171663701Y-70423583D01*
X171791076Y-70555484D01*
X171941644Y-70660131D01*
X172109671Y-70733540D01*
X172288757Y-70772915D01*
X172394783Y-70775136D01*
X179960639Y-76263739D01*
X180014372Y-76399454D01*
X180113701Y-76553583D01*
X180241076Y-76685484D01*
X180391644Y-76790131D01*
X180559671Y-76863540D01*
X180738757Y-76902915D01*
X180922079Y-76906755D01*
X181102657Y-76874914D01*
X181273610Y-76808606D01*
X181428429Y-76710355D01*
X181561215Y-76583904D01*
X181666911Y-76434070D01*
X181741492Y-76266560D01*
X181782116Y-76087754D01*
X181785040Y-75878319D01*
X181749425Y-75698448D01*
X181679550Y-75528920D01*
X181578079Y-75376193D01*
X181448875Y-75246084D01*
X181296860Y-75143549D01*
X181127825Y-75072493D01*
X180948207Y-75035623D01*
X180855370Y-75034975D01*
X173290672Y-69547212D01*
X173229550Y-69398920D01*
X173128079Y-69246193D01*
X172998875Y-69116084D01*
X172846860Y-69013549D01*
X172677825Y-68942493D01*
X172498207Y-68905623D01*
X172314849Y-68904343D01*
X172134733Y-68938701D01*
X171964722Y-69007390D01*
X171811291Y-69107793D01*
X171680283Y-69236086D01*
X171576689Y-69387381D01*
X171504454Y-69555916D01*
X171466331Y-69735272D01*
X171463771Y-69918617D01*
X167817921Y-69918617D01*
X163448293Y-66504690D01*
X159932267Y-64728617D01*
X165433771Y-64728617D01*
X165466872Y-64908968D01*
X165534372Y-65079454D01*
X165633701Y-65233583D01*
X165761076Y-65365484D01*
X165911644Y-65470131D01*
X166079671Y-65543540D01*
X166258757Y-65582915D01*
X166442079Y-65586755D01*
X166569713Y-65564249D01*
X175077730Y-69241216D01*
X175143701Y-69343583D01*
X175271076Y-69475484D01*
X175421644Y-69580131D01*
X175589671Y-69653540D01*
X175768757Y-69692915D01*
X175952079Y-69696755D01*
X176132657Y-69664914D01*
X176303610Y-69598606D01*
X176458429Y-69500355D01*
X176591215Y-69373904D01*
X176696911Y-69224070D01*
X176771492Y-69056560D01*
X176812116Y-68877754D01*
X176815040Y-68668319D01*
X176779425Y-68488448D01*
X176709550Y-68318920D01*
X176608079Y-68166193D01*
X176478875Y-68036084D01*
X176326860Y-67933549D01*
X176157825Y-67862493D01*
X175978207Y-67825623D01*
X175794849Y-67824343D01*
X175681004Y-67846059D01*
X167173131Y-64169156D01*
X167098079Y-64056193D01*
X166968875Y-63926084D01*
X166816860Y-63823549D01*
X166647825Y-63752493D01*
X166468207Y-63715623D01*
X166284849Y-63714343D01*
X166104733Y-63748701D01*
X165934722Y-63817390D01*
X165781291Y-63917793D01*
X165650283Y-64046086D01*
X165546689Y-64197381D01*
X165474454Y-64365916D01*
X165436331Y-64545272D01*
X165433771Y-64728617D01*
X159932267Y-64728617D01*
X157362804Y-63430688D01*
X150796135Y-61597241D01*
X143998408Y-61074184D01*
X137228548Y-61881441D01*
X130744416Y-63988264D01*
X124792991Y-67314403D01*
X119600960Y-71733168D01*
X115366086Y-77076249D01*
X112249675Y-83140129D01*
X110370429Y-89693839D01*
X109799928Y-96487748D01*
X109717659Y-96487748D01*
X109741993Y-96433095D01*
X109802690Y-96165938D01*
X109807059Y-95853017D01*
X109753846Y-95584269D01*
X109649446Y-95330975D01*
X109497835Y-95102783D01*
X109304790Y-94908385D01*
X109077662Y-94755185D01*
X108825103Y-94649019D01*
X108556733Y-94593931D01*
X108282774Y-94592018D01*
X108013661Y-94643354D01*
X107759644Y-94745984D01*
X107530399Y-94895997D01*
X107334658Y-95087681D01*
X107179877Y-95313734D01*
X107071950Y-95565546D01*
X107014989Y-95833524D01*
X107011164Y-96107464D01*
X106069518Y-96107464D01*
X104375784Y-91087668D01*
X104412116Y-90927754D01*
X104415040Y-90718319D01*
X104379425Y-90538448D01*
X104309550Y-90368920D01*
X104208079Y-90216193D01*
X104078875Y-90086084D01*
X103926860Y-89983549D01*
X103757825Y-89912493D01*
X103578207Y-89875623D01*
X103394849Y-89874343D01*
X103214733Y-89908701D01*
X103044722Y-89977390D01*
X102891291Y-90077793D01*
X102760283Y-90206086D01*
X102656689Y-90357381D01*
X102584454Y-90525916D01*
X102546331Y-90705272D01*
X102543771Y-90888617D01*
X102170774Y-90888617D01*
X102601862Y-87045388D01*
X104047354Y-82488617D01*
X104533771Y-82488617D01*
X104566872Y-82668968D01*
X104634372Y-82839454D01*
X104733701Y-82993583D01*
X104777094Y-83038518D01*
X105832193Y-92239342D01*
X105826689Y-92247381D01*
X105754454Y-92415916D01*
X105716331Y-92595272D01*
X105713771Y-92778617D01*
X105746872Y-92958968D01*
X105814372Y-93129454D01*
X105913701Y-93283583D01*
X106041076Y-93415484D01*
X106191644Y-93520131D01*
X106359671Y-93593540D01*
X106538757Y-93632915D01*
X106722079Y-93636755D01*
X106902657Y-93604914D01*
X107073610Y-93538606D01*
X107228429Y-93440355D01*
X107361215Y-93313904D01*
X107466911Y-93164070D01*
X107541492Y-92996560D01*
X107582116Y-92817754D01*
X107585040Y-92608319D01*
X107549425Y-92428448D01*
X107479550Y-92258920D01*
X107378079Y-92106193D01*
X107342814Y-92070681D01*
X106521509Y-84908617D01*
X107273771Y-84908617D01*
X107306872Y-85088968D01*
X107374372Y-85259454D01*
X107473701Y-85413583D01*
X107601076Y-85545484D01*
X107751644Y-85650131D01*
X107919671Y-85723540D01*
X108098757Y-85762915D01*
X108282079Y-85766755D01*
X108462657Y-85734914D01*
X108633610Y-85668606D01*
X108788429Y-85570355D01*
X108921215Y-85443904D01*
X109026911Y-85294070D01*
X109101492Y-85126560D01*
X109142116Y-84947754D01*
X109145040Y-84738319D01*
X109109425Y-84558448D01*
X109039550Y-84388920D01*
X109014156Y-84350698D01*
X109603356Y-77518617D01*
X110323771Y-77518617D01*
X110356872Y-77698968D01*
X110424372Y-77869454D01*
X110523701Y-78023583D01*
X110651076Y-78155484D01*
X110801644Y-78260131D01*
X110969671Y-78333540D01*
X111148757Y-78372915D01*
X111332079Y-78376755D01*
X111512657Y-78344914D01*
X111683610Y-78278606D01*
X111838429Y-78180355D01*
X111971215Y-78053904D01*
X112076911Y-77904070D01*
X112151492Y-77736560D01*
X112192116Y-77557754D01*
X112195040Y-77348319D01*
X112159425Y-77168448D01*
X112150222Y-77146119D01*
X114074348Y-71068617D01*
X114893771Y-71068617D01*
X114926872Y-71248968D01*
X114994372Y-71419454D01*
X115093701Y-71573583D01*
X115221076Y-71705484D01*
X115371644Y-71810131D01*
X115539671Y-71883540D01*
X115718757Y-71922915D01*
X115902079Y-71926755D01*
X116082657Y-71894914D01*
X116253610Y-71828606D01*
X116408429Y-71730355D01*
X116541215Y-71603904D01*
X116646911Y-71454070D01*
X116721492Y-71286560D01*
X116762116Y-71107754D01*
X116765040Y-70898319D01*
X116761737Y-70881639D01*
X119714629Y-65608617D01*
X120723771Y-65608617D01*
X120756872Y-65788968D01*
X120824372Y-65959454D01*
X120923701Y-66113583D01*
X121051076Y-66245484D01*
X121201644Y-66350131D01*
X121369671Y-66423540D01*
X121548757Y-66462915D01*
X121732079Y-66466755D01*
X121912657Y-66434914D01*
X122083610Y-66368606D01*
X122238429Y-66270355D01*
X122371215Y-66143904D01*
X122476911Y-65994070D01*
X122551492Y-65826560D01*
X122592116Y-65647754D01*
X122592511Y-65619467D01*
X126242662Y-61458617D01*
X127533771Y-61458617D01*
X127566872Y-61638968D01*
X127634372Y-61809454D01*
X127733701Y-61963583D01*
X127861076Y-62095484D01*
X128011644Y-62200131D01*
X128179671Y-62273540D01*
X128358757Y-62312915D01*
X128542079Y-62316755D01*
X128722657Y-62284914D01*
X128893610Y-62218606D01*
X129048429Y-62120355D01*
X129181215Y-61993904D01*
X129286911Y-61844070D01*
X129361492Y-61676560D01*
X129364516Y-61663250D01*
X129696387Y-61417464D01*
X132031164Y-61417464D01*
X132080620Y-61686928D01*
X132181474Y-61941655D01*
X132329883Y-62171942D01*
X132520196Y-62369016D01*
X132745163Y-62525372D01*
X132996215Y-62635054D01*
X133263789Y-62693884D01*
X133537695Y-62699622D01*
X133807499Y-62652048D01*
X134062923Y-62552975D01*
X134294240Y-62406177D01*
X134492639Y-62217245D01*
X134650561Y-61993375D01*
X134761993Y-61743095D01*
X134822690Y-61475938D01*
X134827059Y-61163017D01*
X134773846Y-60894269D01*
X134669446Y-60640975D01*
X134517835Y-60412783D01*
X134324790Y-60218385D01*
X134097662Y-60065185D01*
X133845103Y-59959019D01*
X133576733Y-59903931D01*
X133302774Y-59902018D01*
X133033661Y-59953354D01*
X132779644Y-60055984D01*
X132550399Y-60205997D01*
X132354658Y-60397681D01*
X132199877Y-60623734D01*
X132091950Y-60875546D01*
X132034989Y-61143524D01*
X132031164Y-61417464D01*
X129696387Y-61417464D01*
X131775765Y-59877464D01*
X139381164Y-59877464D01*
X139430620Y-60146928D01*
X139531474Y-60401655D01*
X139679883Y-60631942D01*
X139870196Y-60829016D01*
X140095163Y-60985372D01*
X140346215Y-61095054D01*
X140613789Y-61153884D01*
X140887695Y-61159622D01*
X141157499Y-61112048D01*
X141412923Y-61012975D01*
X141608880Y-60888617D01*
X158443771Y-60888617D01*
X158476872Y-61068968D01*
X158544372Y-61239454D01*
X158643701Y-61393583D01*
X158771076Y-61525484D01*
X158921644Y-61630131D01*
X159089671Y-61703540D01*
X159268757Y-61742915D01*
X159452079Y-61746755D01*
X159632657Y-61714914D01*
X159767605Y-61662572D01*
X168896611Y-63488373D01*
X168971076Y-63565484D01*
X169121644Y-63670131D01*
X169289671Y-63743540D01*
X169468757Y-63782915D01*
X169652079Y-63786755D01*
X169832657Y-63754914D01*
X170003610Y-63688606D01*
X170158429Y-63590355D01*
X170291215Y-63463904D01*
X170396911Y-63314070D01*
X170471492Y-63146560D01*
X170512116Y-62967754D01*
X170515040Y-62758319D01*
X170479425Y-62578448D01*
X170409550Y-62408920D01*
X170308079Y-62256193D01*
X170178875Y-62126084D01*
X170026860Y-62023549D01*
X169857825Y-61952493D01*
X169678207Y-61915623D01*
X169494849Y-61914343D01*
X169314733Y-61948701D01*
X169193555Y-61997660D01*
X160063931Y-60171736D01*
X159978875Y-60086084D01*
X159826860Y-59983549D01*
X159657825Y-59912493D01*
X159478207Y-59875623D01*
X159294849Y-59874343D01*
X159114733Y-59908701D01*
X158944722Y-59977390D01*
X158791291Y-60077793D01*
X158660283Y-60206086D01*
X158556689Y-60357381D01*
X158484454Y-60525916D01*
X158446331Y-60705272D01*
X158443771Y-60888617D01*
X141608880Y-60888617D01*
X141644240Y-60866177D01*
X141842639Y-60677245D01*
X142000561Y-60453375D01*
X142111993Y-60203095D01*
X142172690Y-59935938D01*
X142177059Y-59623017D01*
X142123846Y-59354269D01*
X142019446Y-59100975D01*
X141867835Y-58872783D01*
X141674790Y-58678385D01*
X141447662Y-58525185D01*
X141195103Y-58419019D01*
X140926733Y-58363931D01*
X140652774Y-58362018D01*
X140383661Y-58413354D01*
X140129644Y-58515984D01*
X139900399Y-58665997D01*
X139704658Y-58857681D01*
X139549877Y-59083734D01*
X139441950Y-59335546D01*
X139384989Y-59603524D01*
X139381164Y-59877464D01*
X131775765Y-59877464D01*
X134434192Y-57908617D01*
X142923771Y-57908617D01*
X142956872Y-58088968D01*
X143024372Y-58259454D01*
X143123701Y-58413583D01*
X143251076Y-58545484D01*
X143401644Y-58650131D01*
X143569671Y-58723540D01*
X143748757Y-58762915D01*
X143932079Y-58766755D01*
X144112657Y-58734914D01*
X144283610Y-58668606D01*
X144425410Y-58578617D01*
X150803771Y-58578617D01*
X150836872Y-58758968D01*
X150904372Y-58929454D01*
X151003701Y-59083583D01*
X151131076Y-59215484D01*
X151281644Y-59320131D01*
X151449671Y-59393540D01*
X151628757Y-59432915D01*
X151812079Y-59436755D01*
X151992657Y-59404914D01*
X152163610Y-59338606D01*
X152300189Y-59251931D01*
X161516413Y-59117844D01*
X161591644Y-59170131D01*
X161759671Y-59243540D01*
X161938757Y-59282915D01*
X162122079Y-59286755D01*
X162302657Y-59254914D01*
X162473610Y-59188606D01*
X162628429Y-59090355D01*
X162761215Y-58963904D01*
X162866911Y-58814070D01*
X162941492Y-58646560D01*
X162982116Y-58467754D01*
X162985040Y-58258319D01*
X162949425Y-58078448D01*
X162879550Y-57908920D01*
X162778079Y-57756193D01*
X162648875Y-57626084D01*
X162496860Y-57523549D01*
X162327825Y-57452493D01*
X162148207Y-57415623D01*
X161964849Y-57414343D01*
X161784733Y-57448701D01*
X161614722Y-57517390D01*
X161491469Y-57598045D01*
X152273745Y-57732154D01*
X152186860Y-57673549D01*
X152017825Y-57602493D01*
X151838207Y-57565623D01*
X151654849Y-57564343D01*
X151474733Y-57598701D01*
X151304722Y-57667390D01*
X151151291Y-57767793D01*
X151020283Y-57896086D01*
X150916689Y-58047381D01*
X150844454Y-58215916D01*
X150806331Y-58395272D01*
X150803771Y-58578617D01*
X144425410Y-58578617D01*
X144438429Y-58570355D01*
X144570886Y-58444218D01*
X153462437Y-56364166D01*
X153529671Y-56393540D01*
X153708757Y-56432915D01*
X153892079Y-56436755D01*
X154072657Y-56404914D01*
X154243610Y-56338606D01*
X154398429Y-56240355D01*
X154531215Y-56113904D01*
X154636911Y-55964070D01*
X154711492Y-55796560D01*
X154752116Y-55617754D01*
X154755040Y-55408319D01*
X154719425Y-55228448D01*
X154649550Y-55058920D01*
X154548079Y-54906193D01*
X154418875Y-54776084D01*
X154266860Y-54673549D01*
X154097825Y-54602493D01*
X153918207Y-54565623D01*
X153734849Y-54564343D01*
X153554733Y-54598701D01*
X153384722Y-54667390D01*
X153231291Y-54767793D01*
X153111335Y-54885263D01*
X144217291Y-56965898D01*
X144137825Y-56932493D01*
X143958207Y-56895623D01*
X143774849Y-56894343D01*
X143594733Y-56928701D01*
X143424722Y-56997390D01*
X143271291Y-57097793D01*
X143140283Y-57226086D01*
X143036689Y-57377381D01*
X142964454Y-57545916D01*
X142926331Y-57725272D01*
X142923771Y-57908617D01*
X134434192Y-57908617D01*
X136733773Y-56205534D01*
X136792079Y-56206755D01*
X136972657Y-56174914D01*
X137143610Y-56108606D01*
X137298429Y-56010355D01*
X137431215Y-55883904D01*
X137536911Y-55734070D01*
X137611492Y-55566560D01*
X137652116Y-55387754D01*
X137655040Y-55178319D01*
X137619425Y-54998448D01*
X137549550Y-54828920D01*
X137448079Y-54676193D01*
X137318875Y-54546084D01*
X137166860Y-54443549D01*
X136997825Y-54372493D01*
X136818207Y-54335623D01*
X136634849Y-54334343D01*
X136454733Y-54368701D01*
X136284722Y-54437390D01*
X136131291Y-54537793D01*
X136000283Y-54666086D01*
X135896689Y-54817381D01*
X135824454Y-54985916D01*
X135824051Y-54987811D01*
X128455726Y-60444838D01*
X128384849Y-60444343D01*
X128204733Y-60478701D01*
X128034722Y-60547390D01*
X127881291Y-60647793D01*
X127750283Y-60776086D01*
X127646689Y-60927381D01*
X127574454Y-61095916D01*
X127536331Y-61275272D01*
X127533771Y-61458617D01*
X126242662Y-61458617D01*
X128660653Y-58702321D01*
X128702657Y-58694914D01*
X128873610Y-58628606D01*
X129028429Y-58530355D01*
X129161215Y-58403904D01*
X129266911Y-58254070D01*
X129341492Y-58086560D01*
X129382116Y-57907754D01*
X129385040Y-57698319D01*
X129349425Y-57518448D01*
X129279550Y-57348920D01*
X129178079Y-57196193D01*
X129048875Y-57066084D01*
X128896860Y-56963549D01*
X128727825Y-56892493D01*
X128548207Y-56855623D01*
X128364849Y-56854343D01*
X128184733Y-56888701D01*
X128014722Y-56957390D01*
X127861291Y-57057793D01*
X127730283Y-57186086D01*
X127626689Y-57337381D01*
X127554454Y-57505916D01*
X127516331Y-57685272D01*
X127516096Y-57702122D01*
X121448710Y-64618405D01*
X121394733Y-64628701D01*
X121224722Y-64697390D01*
X121071291Y-64797793D01*
X120940283Y-64926086D01*
X120836689Y-65077381D01*
X120764454Y-65245916D01*
X120726331Y-65425272D01*
X120723771Y-65608617D01*
X119714629Y-65608617D01*
X121265283Y-62839593D01*
X121293610Y-62828606D01*
X121448429Y-62730355D01*
X121581215Y-62603904D01*
X121686911Y-62454070D01*
X121761492Y-62286560D01*
X121802116Y-62107754D01*
X121805040Y-61898319D01*
X121769425Y-61718448D01*
X121699550Y-61548920D01*
X121598079Y-61396193D01*
X121468875Y-61266084D01*
X121316860Y-61163549D01*
X121147825Y-61092493D01*
X120968207Y-61055623D01*
X120784849Y-61054343D01*
X120604733Y-61088701D01*
X120434722Y-61157390D01*
X120281291Y-61257793D01*
X120150283Y-61386086D01*
X120046689Y-61537381D01*
X119974454Y-61705916D01*
X119936331Y-61885272D01*
X119933771Y-62068617D01*
X119938992Y-62097061D01*
X115434121Y-70141472D01*
X115394722Y-70157390D01*
X115241291Y-70257793D01*
X115110283Y-70386086D01*
X115006689Y-70537381D01*
X114934454Y-70705916D01*
X114896331Y-70885272D01*
X114893771Y-71068617D01*
X114074348Y-71068617D01*
X114908850Y-68432780D01*
X114928429Y-68420355D01*
X115061215Y-68293904D01*
X115166911Y-68144070D01*
X115241492Y-67976560D01*
X115282116Y-67797754D01*
X115285040Y-67588319D01*
X115249425Y-67408448D01*
X115179550Y-67238920D01*
X115078079Y-67086193D01*
X114948875Y-66956084D01*
X114796860Y-66853549D01*
X114627825Y-66782493D01*
X114448207Y-66745623D01*
X114264849Y-66744343D01*
X114084733Y-66778701D01*
X113914722Y-66847390D01*
X113761291Y-66947793D01*
X113630283Y-67076086D01*
X113526689Y-67227381D01*
X113454454Y-67395916D01*
X113416331Y-67575272D01*
X113413771Y-67758617D01*
X113446872Y-67938968D01*
X113460186Y-67972594D01*
X110700737Y-76688524D01*
X110671291Y-76707793D01*
X110540283Y-76836086D01*
X110436689Y-76987381D01*
X110364454Y-77155916D01*
X110326331Y-77335272D01*
X110323771Y-77518617D01*
X109603356Y-77518617D01*
X109809758Y-75125292D01*
X109811215Y-75123904D01*
X109916911Y-74974070D01*
X109991492Y-74806560D01*
X110032116Y-74627754D01*
X110035040Y-74418319D01*
X109999425Y-74238448D01*
X109929550Y-74068920D01*
X109828079Y-73916193D01*
X109698875Y-73786084D01*
X109546860Y-73683549D01*
X109377825Y-73612493D01*
X109198207Y-73575623D01*
X109014849Y-73574343D01*
X108834733Y-73608701D01*
X108664722Y-73677390D01*
X108511291Y-73777793D01*
X108380283Y-73906086D01*
X108276689Y-74057381D01*
X108204454Y-74225916D01*
X108166331Y-74405272D01*
X108163771Y-74588617D01*
X108196872Y-74768968D01*
X108264372Y-74939454D01*
X108295921Y-74988409D01*
X107500089Y-84216483D01*
X107490283Y-84226086D01*
X107386689Y-84377381D01*
X107314454Y-84545916D01*
X107276331Y-84725272D01*
X107273771Y-84908617D01*
X106521509Y-84908617D01*
X106287934Y-82871771D01*
X106361492Y-82706560D01*
X106402116Y-82527754D01*
X106405040Y-82318319D01*
X106369425Y-82138448D01*
X106299550Y-81968920D01*
X106198079Y-81816193D01*
X106068875Y-81686084D01*
X105916860Y-81583549D01*
X105747825Y-81512493D01*
X105568207Y-81475623D01*
X105384849Y-81474343D01*
X105204733Y-81508701D01*
X105034722Y-81577390D01*
X104881291Y-81677793D01*
X104750283Y-81806086D01*
X104646689Y-81957381D01*
X104574454Y-82125916D01*
X104536331Y-82305272D01*
X104533771Y-82488617D01*
X104047354Y-82488617D01*
X105143479Y-79033195D01*
X109192934Y-71667263D01*
X114595985Y-65228158D01*
X121146832Y-59961142D01*
X128595954Y-56066835D01*
X136659617Y-53693570D01*
X145030678Y-52931744D01*
X153390287Y-53810374D01*
G36*
X151173463Y-65190640D02*
X157008706Y-66996949D01*
X162381970Y-69902262D01*
X167088590Y-73795917D01*
X170949291Y-78529604D01*
X173817021Y-83923020D01*
X175582550Y-89770731D01*
X176178627Y-95850000D01*
X176166424Y-96723909D01*
X175400836Y-102784164D01*
X173472719Y-108580298D01*
X170455513Y-113891540D01*
X166464145Y-118515585D01*
X161650643Y-122276305D01*
X156198353Y-125030455D01*
X150314950Y-126673131D01*
X144224531Y-127141763D01*
X138159079Y-126418501D01*
X135546234Y-125569536D01*
X143541913Y-125569536D01*
X143571191Y-125729055D01*
X143630894Y-125879849D01*
X143718750Y-126016174D01*
X143831412Y-126132839D01*
X143964588Y-126225399D01*
X144113207Y-126290329D01*
X144271606Y-126325155D01*
X144433754Y-126328552D01*
X144593473Y-126300389D01*
X144744680Y-126241740D01*
X144881615Y-126154838D01*
X144999064Y-126042993D01*
X145092551Y-125910466D01*
X145121174Y-125846178D01*
X148139219Y-124289536D01*
X152751913Y-124289536D01*
X152781191Y-124449055D01*
X152840894Y-124599849D01*
X152928750Y-124736174D01*
X153041412Y-124852839D01*
X153174588Y-124945399D01*
X153323207Y-125010329D01*
X153481606Y-125045155D01*
X153643754Y-125048552D01*
X153803473Y-125020389D01*
X153954680Y-124961740D01*
X154091615Y-124874838D01*
X154209064Y-124762993D01*
X154302551Y-124630466D01*
X154368517Y-124482305D01*
X154404448Y-124324152D01*
X154404704Y-124305814D01*
X158402733Y-120179536D01*
X161101913Y-120179536D01*
X161131191Y-120339055D01*
X161190894Y-120489849D01*
X161278750Y-120626174D01*
X161391412Y-120742839D01*
X161524588Y-120835399D01*
X161673207Y-120900329D01*
X161831606Y-120935155D01*
X161993754Y-120938552D01*
X162153473Y-120910389D01*
X162304680Y-120851740D01*
X162441615Y-120764838D01*
X162559064Y-120652993D01*
X162652551Y-120520466D01*
X162718517Y-120372305D01*
X162754448Y-120214152D01*
X162757035Y-120028909D01*
X162740856Y-119947198D01*
X165861485Y-113719536D01*
X167761913Y-113719536D01*
X167791191Y-113879055D01*
X167850894Y-114029849D01*
X167938750Y-114166174D01*
X168051412Y-114282839D01*
X168184588Y-114375399D01*
X168333207Y-114440329D01*
X168491606Y-114475155D01*
X168653754Y-114478552D01*
X168813473Y-114450389D01*
X168964680Y-114391740D01*
X169101615Y-114304838D01*
X169219064Y-114192993D01*
X169312551Y-114060466D01*
X169378517Y-113912305D01*
X169414448Y-113754152D01*
X169417035Y-113568909D01*
X169385533Y-113409814D01*
X169323730Y-113259869D01*
X169309240Y-113238060D01*
X170651439Y-104067868D01*
X170709064Y-104012993D01*
X170802551Y-103880466D01*
X170868517Y-103732305D01*
X170904448Y-103574152D01*
X170907035Y-103388909D01*
X170875533Y-103229814D01*
X170813730Y-103079869D01*
X170723980Y-102944783D01*
X170609700Y-102829703D01*
X170475244Y-102739011D01*
X170325734Y-102676163D01*
X170166863Y-102643551D01*
X170004684Y-102642419D01*
X169845374Y-102672809D01*
X169695001Y-102733564D01*
X169559292Y-102822369D01*
X169443416Y-102935843D01*
X169351788Y-103069662D01*
X169287898Y-103218730D01*
X169254178Y-103377369D01*
X169251913Y-103539536D01*
X169281191Y-103699055D01*
X169340894Y-103849849D01*
X169360911Y-103880909D01*
X168018575Y-113052035D01*
X167953416Y-113115843D01*
X167861788Y-113249662D01*
X167797898Y-113398730D01*
X167764178Y-113557369D01*
X167761913Y-113719536D01*
X165861485Y-113719536D01*
X166873476Y-111699964D01*
X166894680Y-111691740D01*
X167031615Y-111604838D01*
X167149064Y-111492993D01*
X167242551Y-111360466D01*
X167308517Y-111212305D01*
X167344448Y-111054152D01*
X167347035Y-110868909D01*
X167315533Y-110709814D01*
X167253730Y-110559869D01*
X167163980Y-110424783D01*
X167049700Y-110309703D01*
X166915244Y-110219011D01*
X166765734Y-110156163D01*
X166606863Y-110123551D01*
X166444684Y-110122419D01*
X166285374Y-110152809D01*
X166135001Y-110213564D01*
X165999292Y-110302369D01*
X165883416Y-110415843D01*
X165791788Y-110549662D01*
X165727898Y-110698730D01*
X165694178Y-110857369D01*
X165691913Y-111019536D01*
X165709061Y-111112968D01*
X161576026Y-119361029D01*
X161545001Y-119373564D01*
X161409292Y-119462369D01*
X161293416Y-119575843D01*
X161201788Y-119709662D01*
X161137898Y-119858730D01*
X161104178Y-120017369D01*
X161101913Y-120179536D01*
X158402733Y-120179536D01*
X160863561Y-117639770D01*
X160973473Y-117620389D01*
X161124680Y-117561740D01*
X161261615Y-117474838D01*
X161379064Y-117362993D01*
X161472551Y-117230466D01*
X161538517Y-117082305D01*
X161574448Y-116924152D01*
X161577035Y-116738909D01*
X161545533Y-116579814D01*
X161483730Y-116429869D01*
X161393980Y-116294783D01*
X161279700Y-116179703D01*
X161145244Y-116089011D01*
X160995734Y-116026163D01*
X160836863Y-115993551D01*
X160674684Y-115992419D01*
X160515374Y-116022809D01*
X160365001Y-116083564D01*
X160229292Y-116172369D01*
X160113416Y-116285843D01*
X160021788Y-116419662D01*
X159957898Y-116568730D01*
X159924178Y-116727369D01*
X159924065Y-116735457D01*
X153467053Y-123399598D01*
X153345374Y-123422809D01*
X153195001Y-123483564D01*
X153059292Y-123572369D01*
X152943416Y-123685843D01*
X152851788Y-123819662D01*
X152787898Y-123968730D01*
X152754178Y-124127369D01*
X152751913Y-124289536D01*
X148139219Y-124289536D01*
X153406159Y-121572964D01*
X153461606Y-121585155D01*
X153623754Y-121588552D01*
X153783473Y-121560389D01*
X153934680Y-121501740D01*
X154071615Y-121414838D01*
X154189064Y-121302993D01*
X154282551Y-121170466D01*
X154348517Y-121022305D01*
X154384448Y-120864152D01*
X154387035Y-120678909D01*
X154355533Y-120519814D01*
X154293730Y-120369869D01*
X154203980Y-120234783D01*
X154089700Y-120119703D01*
X153955244Y-120029011D01*
X153805734Y-119966163D01*
X153646863Y-119933551D01*
X153484684Y-119932419D01*
X153325374Y-119962809D01*
X153175001Y-120023564D01*
X153039292Y-120112369D01*
X152923416Y-120225843D01*
X152831788Y-120359662D01*
X152808504Y-120413989D01*
X144523474Y-124687224D01*
X144456863Y-124673551D01*
X144294684Y-124672419D01*
X144135374Y-124702809D01*
X143985001Y-124763564D01*
X143849292Y-124852369D01*
X143733416Y-124965843D01*
X143641788Y-125099662D01*
X143577898Y-125248730D01*
X143544178Y-125407369D01*
X143541913Y-125569536D01*
X135546234Y-125569536D01*
X132349625Y-124530895D01*
X131219941Y-123899536D01*
X134441913Y-123899536D01*
X134471191Y-124059055D01*
X134530894Y-124209849D01*
X134618750Y-124346174D01*
X134731412Y-124462839D01*
X134864588Y-124555399D01*
X135013207Y-124620329D01*
X135171606Y-124655155D01*
X135333754Y-124658552D01*
X135493473Y-124630389D01*
X135644680Y-124571740D01*
X135781615Y-124484838D01*
X135880200Y-124390957D01*
X144967045Y-122906473D01*
X145113207Y-122970329D01*
X145271606Y-123005155D01*
X145433754Y-123008552D01*
X145593473Y-122980389D01*
X145744680Y-122921740D01*
X145881615Y-122834838D01*
X145999064Y-122722993D01*
X146092551Y-122590466D01*
X146158517Y-122442305D01*
X146194448Y-122284152D01*
X146197035Y-122098909D01*
X146165533Y-121939814D01*
X146103730Y-121789869D01*
X146013980Y-121654783D01*
X145899700Y-121539703D01*
X145765244Y-121449011D01*
X145615734Y-121386163D01*
X145456863Y-121353551D01*
X145294684Y-121352419D01*
X145135374Y-121382809D01*
X144985001Y-121443564D01*
X144849292Y-121532369D01*
X144760980Y-121618850D01*
X135672138Y-123103661D01*
X135665244Y-123099011D01*
X135515734Y-123036163D01*
X135356863Y-123003551D01*
X135194684Y-123002419D01*
X135035374Y-123032809D01*
X134885001Y-123093564D01*
X134749292Y-123182369D01*
X134633416Y-123295843D01*
X134541788Y-123429662D01*
X134477898Y-123578730D01*
X134444178Y-123737369D01*
X134441913Y-123899536D01*
X131219941Y-123899536D01*
X127017449Y-121550843D01*
X124736422Y-119609536D01*
X126231913Y-119609536D01*
X126261191Y-119769055D01*
X126320894Y-119919849D01*
X126408750Y-120056174D01*
X126521412Y-120172839D01*
X126654588Y-120265399D01*
X126803207Y-120330329D01*
X126961606Y-120365155D01*
X127123754Y-120368552D01*
X127283473Y-120340389D01*
X127434680Y-120281740D01*
X127469203Y-120259831D01*
X136641004Y-121620285D01*
X136701412Y-121682839D01*
X136834588Y-121775399D01*
X136983207Y-121840329D01*
X137141606Y-121875155D01*
X137303754Y-121878552D01*
X137463473Y-121850389D01*
X137614680Y-121791740D01*
X137751615Y-121704838D01*
X137869064Y-121592993D01*
X137962551Y-121460466D01*
X138028517Y-121312305D01*
X138064448Y-121154152D01*
X138067035Y-120968909D01*
X138035533Y-120809814D01*
X137973730Y-120659869D01*
X137883980Y-120524783D01*
X137769700Y-120409703D01*
X137635244Y-120319011D01*
X137485734Y-120256163D01*
X137326863Y-120223551D01*
X137164684Y-120222419D01*
X137005374Y-120252809D01*
X136855001Y-120313564D01*
X136829842Y-120330027D01*
X127659265Y-118969755D01*
X127589700Y-118899703D01*
X127455244Y-118809011D01*
X127305734Y-118746163D01*
X127146863Y-118713551D01*
X126984684Y-118712419D01*
X126825374Y-118742809D01*
X126675001Y-118803564D01*
X126539292Y-118892369D01*
X126423416Y-119005843D01*
X126331788Y-119139662D01*
X126267898Y-119288730D01*
X126234178Y-119447369D01*
X126231913Y-119609536D01*
X124736422Y-119609536D01*
X122365652Y-117591853D01*
X118733752Y-113009536D01*
X119791913Y-113009536D01*
X119821191Y-113169055D01*
X119880894Y-113319849D01*
X119968750Y-113456174D01*
X120081412Y-113572839D01*
X120214588Y-113665399D01*
X120363207Y-113730329D01*
X120521606Y-113765155D01*
X120683754Y-113768552D01*
X120792025Y-113749461D01*
X129073504Y-117791183D01*
X129080894Y-117809849D01*
X129168750Y-117946174D01*
X129281412Y-118062839D01*
X129414588Y-118155399D01*
X129563207Y-118220329D01*
X129721606Y-118255155D01*
X129883754Y-118258552D01*
X130043473Y-118230389D01*
X130194680Y-118171740D01*
X130331615Y-118084838D01*
X130449064Y-117972993D01*
X130542551Y-117840466D01*
X130608517Y-117692305D01*
X130644448Y-117534152D01*
X130647035Y-117348909D01*
X130615533Y-117189814D01*
X130553730Y-117039869D01*
X130463980Y-116904783D01*
X130349700Y-116789703D01*
X130215244Y-116699011D01*
X130065734Y-116636163D01*
X129906863Y-116603551D01*
X129744684Y-116602419D01*
X129648459Y-116620775D01*
X121365451Y-112578307D01*
X121353730Y-112549869D01*
X121263980Y-112414783D01*
X121149700Y-112299703D01*
X121015244Y-112209011D01*
X120865734Y-112146163D01*
X120706863Y-112113551D01*
X120544684Y-112112419D01*
X120385374Y-112142809D01*
X120235001Y-112203564D01*
X120099292Y-112292369D01*
X119983416Y-112405843D01*
X119891788Y-112539662D01*
X119827898Y-112688730D01*
X119794178Y-112847369D01*
X119791913Y-113009536D01*
X118733752Y-113009536D01*
X118571419Y-112804723D01*
X115779273Y-107371793D01*
X114981474Y-104589536D01*
X115701913Y-104589536D01*
X115731191Y-104749055D01*
X115790894Y-104899849D01*
X115878750Y-105036174D01*
X115991412Y-105152839D01*
X116124588Y-105245399D01*
X116273207Y-105310329D01*
X116431606Y-105345155D01*
X116445534Y-105345447D01*
X123070067Y-111753961D01*
X123091191Y-111869055D01*
X123150894Y-112019849D01*
X123238750Y-112156174D01*
X123351412Y-112272839D01*
X123484588Y-112365399D01*
X123633207Y-112430329D01*
X123791606Y-112465155D01*
X123953754Y-112468552D01*
X124113473Y-112440389D01*
X124264680Y-112381740D01*
X124401615Y-112294838D01*
X124519064Y-112182993D01*
X124612551Y-112050466D01*
X124678517Y-111902305D01*
X124714448Y-111744152D01*
X124717035Y-111558909D01*
X124685533Y-111399814D01*
X124623730Y-111249869D01*
X124533980Y-111114783D01*
X124419700Y-110999703D01*
X124285244Y-110909011D01*
X124135734Y-110846163D01*
X123976863Y-110813551D01*
X123973405Y-110813527D01*
X117350667Y-104406747D01*
X117325533Y-104279814D01*
X117263730Y-104129869D01*
X117173980Y-103994783D01*
X117059700Y-103879703D01*
X116925244Y-103789011D01*
X116775734Y-103726163D01*
X116616863Y-103693551D01*
X116454684Y-103692419D01*
X116295374Y-103722809D01*
X116145001Y-103783564D01*
X116009292Y-103872369D01*
X115893416Y-103985843D01*
X115801788Y-104119662D01*
X115737898Y-104268730D01*
X115704178Y-104427369D01*
X115701913Y-104589536D01*
X114981474Y-104589536D01*
X114095563Y-101500001D01*
X113584424Y-95413003D01*
X113587056Y-95389536D01*
X114381913Y-95389536D01*
X114411191Y-95549055D01*
X114470894Y-95699849D01*
X114558750Y-95836174D01*
X114671412Y-95952839D01*
X114804588Y-96045399D01*
X114871333Y-96074559D01*
X119215481Y-104294193D01*
X119204178Y-104347369D01*
X119201913Y-104509536D01*
X119231191Y-104669055D01*
X119290894Y-104819849D01*
X119378750Y-104956174D01*
X119491412Y-105072839D01*
X119624588Y-105165399D01*
X119773207Y-105230329D01*
X119931606Y-105265155D01*
X120093754Y-105268552D01*
X120253473Y-105240389D01*
X120404680Y-105181740D01*
X120541615Y-105094838D01*
X120659064Y-104982993D01*
X120752551Y-104850466D01*
X120818517Y-104702305D01*
X120854448Y-104544152D01*
X120857035Y-104358909D01*
X120825533Y-104199814D01*
X120763730Y-104049869D01*
X120673980Y-103914783D01*
X120559700Y-103799703D01*
X120425244Y-103709011D01*
X120368523Y-103685168D01*
X118698646Y-100525565D01*
X120024040Y-100525565D01*
X120091020Y-100765656D01*
X120340048Y-100882756D01*
X120607135Y-100949023D01*
X120882017Y-100961910D01*
X121154133Y-100920922D01*
X121413023Y-100827636D01*
X121528980Y-100765656D01*
X121595960Y-100525565D01*
X120810000Y-99739605D01*
X120024040Y-100525565D01*
X118698646Y-100525565D01*
X118226398Y-99632017D01*
X119408090Y-99632017D01*
X119449078Y-99904133D01*
X119542364Y-100163023D01*
X119604344Y-100278980D01*
X119844435Y-100345960D01*
X120630395Y-99560000D01*
X120989605Y-99560000D01*
X121775565Y-100345960D01*
X122015656Y-100278980D01*
X122132756Y-100029952D01*
X122199023Y-99762865D01*
X122201320Y-99713871D01*
X122304399Y-100632843D01*
X123667606Y-104930216D01*
X125839548Y-108880964D01*
X128737497Y-112334605D01*
X132251071Y-115159590D01*
X136246438Y-117248318D01*
X140571417Y-118521228D01*
X145061270Y-118929837D01*
X149544980Y-118458580D01*
X153851765Y-117125408D01*
X157817580Y-114981100D01*
X161291368Y-112107332D01*
X164140814Y-108613566D01*
X164517264Y-107905565D01*
X165714040Y-107905565D01*
X165781020Y-108145656D01*
X166030048Y-108262756D01*
X166297135Y-108329023D01*
X166572017Y-108341910D01*
X166844133Y-108300922D01*
X167103023Y-108207636D01*
X167218980Y-108145656D01*
X167285960Y-107905565D01*
X166500000Y-107119605D01*
X165714040Y-107905565D01*
X164517264Y-107905565D01*
X165108313Y-106793965D01*
X165098090Y-107012017D01*
X165139078Y-107284133D01*
X165232364Y-107543023D01*
X165294344Y-107658980D01*
X165534435Y-107725960D01*
X166320395Y-106940000D01*
X166679605Y-106940000D01*
X167465565Y-107725960D01*
X167705656Y-107658980D01*
X167822756Y-107409952D01*
X167889023Y-107142865D01*
X167901910Y-106867983D01*
X167860922Y-106595867D01*
X167767636Y-106336977D01*
X167705656Y-106221020D01*
X167465565Y-106154040D01*
X166679605Y-106940000D01*
X166320395Y-106940000D01*
X166306253Y-106925858D01*
X166485858Y-106746253D01*
X166500000Y-106760395D01*
X167285960Y-105974435D01*
X167218980Y-105734344D01*
X166969952Y-105617244D01*
X166702865Y-105550977D01*
X166427983Y-105538090D01*
X166155867Y-105579078D01*
X165896977Y-105672364D01*
X165781020Y-105734344D01*
X165714041Y-105974433D01*
X165603070Y-105863462D01*
X166257383Y-104632878D01*
X167560456Y-100316891D01*
X167617179Y-99738383D01*
X167749306Y-99738383D01*
X167794938Y-99987016D01*
X167887995Y-100222050D01*
X168024931Y-100434534D01*
X168200531Y-100616373D01*
X168408106Y-100760641D01*
X168639750Y-100861844D01*
X168886639Y-100916126D01*
X169139369Y-100921420D01*
X169388315Y-100877524D01*
X169623993Y-100786110D01*
X169837428Y-100650661D01*
X170020488Y-100476335D01*
X170166202Y-100269772D01*
X170269019Y-100038840D01*
X170325024Y-99792336D01*
X170329055Y-99503607D01*
X170279956Y-99255635D01*
X170183626Y-99021923D01*
X170043737Y-98811372D01*
X169865615Y-98632003D01*
X169656046Y-98490647D01*
X169423012Y-98392688D01*
X169175389Y-98341858D01*
X168922609Y-98340094D01*
X168674301Y-98387461D01*
X168439922Y-98482156D01*
X168228400Y-98620573D01*
X168047791Y-98797438D01*
X167904975Y-99006015D01*
X167805392Y-99238359D01*
X167752835Y-99485621D01*
X167749306Y-99738383D01*
X167617179Y-99738383D01*
X168000400Y-95830000D01*
X167994250Y-95389536D01*
X170421913Y-95389536D01*
X170451191Y-95549055D01*
X170510894Y-95699849D01*
X170598750Y-95836174D01*
X170688940Y-95929568D01*
X172173537Y-105017107D01*
X172171788Y-105019662D01*
X172107898Y-105168730D01*
X172074178Y-105327369D01*
X172071913Y-105489536D01*
X172101191Y-105649055D01*
X172160894Y-105799849D01*
X172248750Y-105936174D01*
X172361412Y-106052839D01*
X172494588Y-106145399D01*
X172643207Y-106210329D01*
X172801606Y-106245155D01*
X172963754Y-106248552D01*
X173123473Y-106220389D01*
X173274680Y-106161740D01*
X173411615Y-106074838D01*
X173529064Y-105962993D01*
X173622551Y-105830466D01*
X173688517Y-105682305D01*
X173724448Y-105524152D01*
X173727035Y-105338909D01*
X173695533Y-105179814D01*
X173633730Y-105029869D01*
X173543980Y-104894783D01*
X173461227Y-104811450D01*
X171976318Y-95722006D01*
X172038517Y-95582305D01*
X172074448Y-95424152D01*
X172077035Y-95238909D01*
X172045533Y-95079814D01*
X171983730Y-94929869D01*
X171893980Y-94794783D01*
X171779700Y-94679703D01*
X171645244Y-94589011D01*
X171495734Y-94526163D01*
X171336863Y-94493551D01*
X171174684Y-94492419D01*
X171015374Y-94522809D01*
X170865001Y-94583564D01*
X170729292Y-94672369D01*
X170613416Y-94785843D01*
X170521788Y-94919662D01*
X170457898Y-95068730D01*
X170424178Y-95227369D01*
X170421913Y-95389536D01*
X167994250Y-95389536D01*
X167991394Y-95184999D01*
X167426340Y-90712141D01*
X166294444Y-87309536D01*
X168961913Y-87309536D01*
X168991191Y-87469055D01*
X169050894Y-87619849D01*
X169138750Y-87756174D01*
X169251412Y-87872839D01*
X169384588Y-87965399D01*
X169447570Y-87992915D01*
X173706317Y-96150260D01*
X173694178Y-96207369D01*
X173691913Y-96369536D01*
X173721191Y-96529055D01*
X173780894Y-96679849D01*
X173868750Y-96816174D01*
X173981412Y-96932839D01*
X174114588Y-97025399D01*
X174263207Y-97090329D01*
X174421606Y-97125155D01*
X174583754Y-97128552D01*
X174743473Y-97100389D01*
X174894680Y-97041740D01*
X175031615Y-96954838D01*
X175149064Y-96842993D01*
X175242551Y-96710466D01*
X175308517Y-96562305D01*
X175344448Y-96404152D01*
X175347035Y-96218909D01*
X175315533Y-96059814D01*
X175253730Y-95909869D01*
X175163980Y-95774783D01*
X175049700Y-95659703D01*
X174915244Y-95569011D01*
X174862246Y-95546733D01*
X170603967Y-87390283D01*
X170614448Y-87344152D01*
X170617035Y-87158909D01*
X170585533Y-86999814D01*
X170523730Y-86849869D01*
X170433980Y-86714783D01*
X170319700Y-86599703D01*
X170185244Y-86509011D01*
X170035734Y-86446163D01*
X169876863Y-86413551D01*
X169714684Y-86412419D01*
X169555374Y-86442809D01*
X169405001Y-86503564D01*
X169269292Y-86592369D01*
X169153416Y-86705843D01*
X169061788Y-86839662D01*
X168997898Y-86988730D01*
X168964178Y-87147369D01*
X168961913Y-87309536D01*
X166294444Y-87309536D01*
X166003265Y-86434221D01*
X163776374Y-82514183D01*
X161648948Y-80049536D01*
X165051913Y-80049536D01*
X165081191Y-80209055D01*
X165140894Y-80359849D01*
X165228750Y-80496174D01*
X165341412Y-80612839D01*
X165474588Y-80705399D01*
X165623207Y-80770329D01*
X165781606Y-80805155D01*
X165790821Y-80805348D01*
X172409070Y-87288531D01*
X172431191Y-87409055D01*
X172490894Y-87559849D01*
X172578750Y-87696174D01*
X172691412Y-87812839D01*
X172824588Y-87905399D01*
X172973207Y-87970329D01*
X173131606Y-88005155D01*
X173293754Y-88008552D01*
X173453473Y-87980389D01*
X173604680Y-87921740D01*
X173741615Y-87834838D01*
X173859064Y-87722993D01*
X173952551Y-87590466D01*
X174018517Y-87442305D01*
X174054448Y-87284152D01*
X174057035Y-87098909D01*
X174025533Y-86939814D01*
X173963730Y-86789869D01*
X173873980Y-86654783D01*
X173759700Y-86539703D01*
X173625244Y-86449011D01*
X173475734Y-86386163D01*
X173318371Y-86353860D01*
X166701763Y-79872286D01*
X166675533Y-79739814D01*
X166613730Y-79589869D01*
X166523980Y-79454783D01*
X166409700Y-79339703D01*
X166275244Y-79249011D01*
X166125734Y-79186163D01*
X165966863Y-79153551D01*
X165804684Y-79152419D01*
X165645374Y-79182809D01*
X165495001Y-79243564D01*
X165359292Y-79332369D01*
X165243416Y-79445843D01*
X165151788Y-79579662D01*
X165087898Y-79728730D01*
X165054178Y-79887369D01*
X165051913Y-80049536D01*
X161648948Y-80049536D01*
X160830487Y-79101340D01*
X157277813Y-76325687D01*
X153365700Y-74349536D01*
X159171913Y-74349536D01*
X159201191Y-74509055D01*
X159260894Y-74659849D01*
X159348750Y-74796174D01*
X159461412Y-74912839D01*
X159594588Y-75005399D01*
X159743207Y-75070329D01*
X159901606Y-75105155D01*
X160063754Y-75108552D01*
X160161311Y-75091350D01*
X168421675Y-79253129D01*
X168468750Y-79326174D01*
X168581412Y-79442839D01*
X168714588Y-79535399D01*
X168863207Y-79600329D01*
X169021606Y-79635155D01*
X169183754Y-79638552D01*
X169343473Y-79610389D01*
X169494680Y-79551740D01*
X169631615Y-79464838D01*
X169749064Y-79352993D01*
X169842551Y-79220466D01*
X169908517Y-79072305D01*
X169944448Y-78914152D01*
X169947035Y-78728909D01*
X169915533Y-78569814D01*
X169853730Y-78419869D01*
X169763980Y-78284783D01*
X169649700Y-78169703D01*
X169515244Y-78079011D01*
X169365734Y-78016163D01*
X169206863Y-77983551D01*
X169044684Y-77982419D01*
X168885374Y-78012809D01*
X168870185Y-78018946D01*
X160749193Y-73927385D01*
X160733730Y-73889869D01*
X160643980Y-73754783D01*
X160529700Y-73639703D01*
X160395244Y-73549011D01*
X160245734Y-73486163D01*
X160086863Y-73453551D01*
X159924684Y-73452419D01*
X159765374Y-73482809D01*
X159615001Y-73543564D01*
X159479292Y-73632369D01*
X159363416Y-73745843D01*
X159271788Y-73879662D01*
X159207898Y-74028730D01*
X159174178Y-74187369D01*
X159171913Y-74349536D01*
X153365700Y-74349536D01*
X153253672Y-74292947D01*
X148911342Y-73080547D01*
X144416222Y-72734666D01*
X139939528Y-73268480D01*
X135651777Y-74661654D01*
X131716288Y-76861125D01*
X128282963Y-79783114D01*
X125482575Y-83316324D01*
X123421791Y-87326176D01*
X122179106Y-91659936D01*
X121801852Y-96152532D01*
X122133951Y-99113264D01*
X122077636Y-98956977D01*
X122015656Y-98841020D01*
X121775565Y-98774040D01*
X120989605Y-99560000D01*
X120630395Y-99560000D01*
X119844435Y-98774040D01*
X119604344Y-98841020D01*
X119487244Y-99090048D01*
X119420977Y-99357135D01*
X119408090Y-99632017D01*
X118226398Y-99632017D01*
X117678027Y-98594435D01*
X120024040Y-98594435D01*
X120810000Y-99380395D01*
X121595960Y-98594435D01*
X121528980Y-98354344D01*
X121279952Y-98237244D01*
X121012865Y-98170977D01*
X120737983Y-98158090D01*
X120465867Y-98199078D01*
X120206977Y-98292364D01*
X120091020Y-98354344D01*
X120024040Y-98594435D01*
X117678027Y-98594435D01*
X116024844Y-95466423D01*
X116034448Y-95424152D01*
X116037035Y-95238909D01*
X116005533Y-95079814D01*
X115943730Y-94929869D01*
X115853980Y-94794783D01*
X115739700Y-94679703D01*
X115605244Y-94589011D01*
X115455734Y-94526163D01*
X115296863Y-94493551D01*
X115134684Y-94492419D01*
X114975374Y-94522809D01*
X114825001Y-94583564D01*
X114689292Y-94672369D01*
X114573416Y-94785843D01*
X114481788Y-94919662D01*
X114417898Y-95068730D01*
X114384178Y-95227369D01*
X114381913Y-95389536D01*
X113587056Y-95389536D01*
X114265323Y-89342650D01*
X115252860Y-86229536D01*
X116011913Y-86229536D01*
X116041191Y-86389055D01*
X116100894Y-86539849D01*
X116188750Y-86676174D01*
X116279754Y-86770411D01*
X117792989Y-95957908D01*
X117791788Y-95959662D01*
X117727898Y-96108730D01*
X117694178Y-96267369D01*
X117691913Y-96429536D01*
X117721191Y-96589055D01*
X117780894Y-96739849D01*
X117868750Y-96876174D01*
X117981412Y-96992839D01*
X118114588Y-97085399D01*
X118263207Y-97150329D01*
X118421606Y-97185155D01*
X118583754Y-97188552D01*
X118743473Y-97160389D01*
X118894680Y-97101740D01*
X119031615Y-97014838D01*
X119149064Y-96902993D01*
X119242551Y-96770466D01*
X119308517Y-96622305D01*
X119344448Y-96464152D01*
X119347035Y-96278909D01*
X119315533Y-96119814D01*
X119253730Y-95969869D01*
X119163980Y-95834783D01*
X119080419Y-95750637D01*
X118467343Y-92028383D01*
X119429306Y-92028383D01*
X119474938Y-92277016D01*
X119567995Y-92512050D01*
X119704931Y-92724534D01*
X119880531Y-92906373D01*
X120088106Y-93050641D01*
X120319750Y-93151844D01*
X120566639Y-93206126D01*
X120819369Y-93211420D01*
X121068315Y-93167524D01*
X121303993Y-93076110D01*
X121517428Y-92940661D01*
X121700488Y-92766335D01*
X121846202Y-92559772D01*
X121949019Y-92328840D01*
X122005024Y-92082336D01*
X122009055Y-91793607D01*
X121959956Y-91545635D01*
X121863626Y-91311923D01*
X121723737Y-91101372D01*
X121545615Y-90922003D01*
X121336046Y-90780647D01*
X121103012Y-90682688D01*
X120855389Y-90631858D01*
X120602609Y-90630094D01*
X120354301Y-90677461D01*
X120119922Y-90772156D01*
X119908400Y-90910573D01*
X119727791Y-91087438D01*
X119584975Y-91296015D01*
X119485392Y-91528359D01*
X119432835Y-91775621D01*
X119429306Y-92028383D01*
X118467343Y-92028383D01*
X117843297Y-88239536D01*
X118851913Y-88239536D01*
X118881191Y-88399055D01*
X118940894Y-88549849D01*
X119028750Y-88686174D01*
X119141412Y-88802839D01*
X119274588Y-88895399D01*
X119423207Y-88960329D01*
X119581606Y-88995155D01*
X119743754Y-88998552D01*
X119903473Y-88970389D01*
X120054680Y-88911740D01*
X120191615Y-88824838D01*
X120309064Y-88712993D01*
X120402551Y-88580466D01*
X120468517Y-88432305D01*
X120504448Y-88274152D01*
X120507035Y-88088909D01*
X120475533Y-87929814D01*
X120413730Y-87779869D01*
X120401801Y-87761915D01*
X121460923Y-80819536D01*
X122471913Y-80819536D01*
X122501191Y-80979055D01*
X122560894Y-81129849D01*
X122648750Y-81266174D01*
X122761412Y-81382839D01*
X122894588Y-81475399D01*
X123043207Y-81540329D01*
X123201606Y-81575155D01*
X123363754Y-81578552D01*
X123523473Y-81550389D01*
X123674680Y-81491740D01*
X123811615Y-81404838D01*
X123929064Y-81292993D01*
X124022551Y-81160466D01*
X124088517Y-81012305D01*
X124124448Y-80854152D01*
X124127035Y-80668909D01*
X124110153Y-80583647D01*
X126942418Y-74869536D01*
X128241913Y-74869536D01*
X128271191Y-75029055D01*
X128330894Y-75179849D01*
X128418750Y-75316174D01*
X128531412Y-75432839D01*
X128664588Y-75525399D01*
X128813207Y-75590329D01*
X128971606Y-75625155D01*
X129133754Y-75628552D01*
X129293473Y-75600389D01*
X129444680Y-75541740D01*
X129581615Y-75454838D01*
X129699064Y-75342993D01*
X129792551Y-75210466D01*
X129858517Y-75062305D01*
X129894448Y-74904152D01*
X129894619Y-74891897D01*
X130626898Y-74148383D01*
X132439306Y-74148383D01*
X132484938Y-74397016D01*
X132577995Y-74632050D01*
X132714931Y-74844534D01*
X132890531Y-75026373D01*
X133098106Y-75170641D01*
X133329750Y-75271844D01*
X133576639Y-75326126D01*
X133829369Y-75331420D01*
X134078315Y-75287524D01*
X134313993Y-75196110D01*
X134527428Y-75060661D01*
X134710488Y-74886335D01*
X134856202Y-74679772D01*
X134959019Y-74448840D01*
X135015024Y-74202336D01*
X135019055Y-73913607D01*
X134969956Y-73665635D01*
X134873626Y-73431923D01*
X134733737Y-73221372D01*
X134555615Y-73042003D01*
X134346046Y-72900647D01*
X134113012Y-72802688D01*
X133865389Y-72751858D01*
X133612609Y-72750094D01*
X133364301Y-72797461D01*
X133129922Y-72892156D01*
X132918400Y-73030573D01*
X132737791Y-73207438D01*
X132594975Y-73416015D01*
X132495392Y-73648359D01*
X132442835Y-73895621D01*
X132439306Y-74148383D01*
X130626898Y-74148383D01*
X132882296Y-71858383D01*
X147499306Y-71858383D01*
X147544938Y-72107016D01*
X147637995Y-72342050D01*
X147774931Y-72554534D01*
X147950531Y-72736373D01*
X148158106Y-72880641D01*
X148389750Y-72981844D01*
X148636639Y-73036126D01*
X148889369Y-73041420D01*
X149138315Y-72997524D01*
X149373993Y-72906110D01*
X149587428Y-72770661D01*
X149770488Y-72596335D01*
X149916202Y-72389772D01*
X150019019Y-72158840D01*
X150075024Y-71912336D01*
X150079055Y-71623607D01*
X150029956Y-71375635D01*
X149933626Y-71141923D01*
X149793737Y-70931372D01*
X149615615Y-70752003D01*
X149523004Y-70689536D01*
X151651913Y-70689536D01*
X151681191Y-70849055D01*
X151740894Y-70999849D01*
X151828750Y-71136174D01*
X151941412Y-71252839D01*
X152074588Y-71345399D01*
X152223207Y-71410329D01*
X152381606Y-71445155D01*
X152543754Y-71448552D01*
X152703473Y-71420389D01*
X152854680Y-71361740D01*
X152884413Y-71342871D01*
X162123212Y-72782216D01*
X162191412Y-72852839D01*
X162324588Y-72945399D01*
X162473207Y-73010329D01*
X162631606Y-73045155D01*
X162793754Y-73048552D01*
X162953473Y-73020389D01*
X163104680Y-72961740D01*
X163241615Y-72874838D01*
X163359064Y-72762993D01*
X163452551Y-72630466D01*
X163518517Y-72482305D01*
X163554448Y-72324152D01*
X163557035Y-72138909D01*
X163525533Y-71979814D01*
X163463730Y-71829869D01*
X163373980Y-71694783D01*
X163259700Y-71579703D01*
X163125244Y-71489011D01*
X162975734Y-71426163D01*
X162816863Y-71393551D01*
X162654684Y-71392419D01*
X162495374Y-71422809D01*
X162345001Y-71483564D01*
X162328370Y-71494447D01*
X153083660Y-70054181D01*
X153009700Y-69979703D01*
X152875244Y-69889011D01*
X152725734Y-69826163D01*
X152566863Y-69793551D01*
X152404684Y-69792419D01*
X152245374Y-69822809D01*
X152095001Y-69883564D01*
X151959292Y-69972369D01*
X151843416Y-70085843D01*
X151751788Y-70219662D01*
X151687898Y-70368730D01*
X151654178Y-70527369D01*
X151651913Y-70689536D01*
X149523004Y-70689536D01*
X149406046Y-70610647D01*
X149173012Y-70512688D01*
X148925389Y-70461858D01*
X148672609Y-70460094D01*
X148424301Y-70507461D01*
X148189922Y-70602156D01*
X147978400Y-70740573D01*
X147797791Y-70917438D01*
X147654975Y-71126015D01*
X147555392Y-71358359D01*
X147502835Y-71605621D01*
X147499306Y-71858383D01*
X132882296Y-71858383D01*
X135087315Y-69619536D01*
X143521913Y-69619536D01*
X143551191Y-69779055D01*
X143610894Y-69929849D01*
X143698750Y-70066174D01*
X143811412Y-70182839D01*
X143944588Y-70275399D01*
X144093207Y-70340329D01*
X144251606Y-70375155D01*
X144413754Y-70378552D01*
X144573473Y-70350389D01*
X144724680Y-70291740D01*
X144861615Y-70204838D01*
X144964440Y-70106919D01*
X154072588Y-68558894D01*
X154213207Y-68620329D01*
X154371606Y-68655155D01*
X154533754Y-68658552D01*
X154693473Y-68630389D01*
X154844680Y-68571740D01*
X154981615Y-68484838D01*
X155099064Y-68372993D01*
X155192551Y-68240466D01*
X155258517Y-68092305D01*
X155294448Y-67934152D01*
X155297035Y-67748909D01*
X155265533Y-67589814D01*
X155203730Y-67439869D01*
X155113980Y-67304783D01*
X154999700Y-67189703D01*
X154865244Y-67099011D01*
X154715734Y-67036163D01*
X154556863Y-67003551D01*
X154394684Y-67002419D01*
X154235374Y-67032809D01*
X154085001Y-67093564D01*
X153949292Y-67182369D01*
X153856891Y-67272854D01*
X144748161Y-68820979D01*
X144745244Y-68819011D01*
X144595734Y-68756163D01*
X144436863Y-68723551D01*
X144274684Y-68722419D01*
X144115374Y-68752809D01*
X143965001Y-68813564D01*
X143829292Y-68902369D01*
X143713416Y-69015843D01*
X143621788Y-69149662D01*
X143557898Y-69298730D01*
X143524178Y-69457369D01*
X143521913Y-69619536D01*
X135087315Y-69619536D01*
X136346523Y-68341011D01*
X136463473Y-68320389D01*
X136614680Y-68261740D01*
X136751615Y-68174838D01*
X136869064Y-68062993D01*
X136962551Y-67930466D01*
X137028517Y-67782305D01*
X137064448Y-67624152D01*
X137067035Y-67438909D01*
X137035533Y-67279814D01*
X136973730Y-67129869D01*
X136883980Y-66994783D01*
X136769700Y-66879703D01*
X136635244Y-66789011D01*
X136485734Y-66726163D01*
X136326863Y-66693551D01*
X136164684Y-66692419D01*
X136005374Y-66722809D01*
X135855001Y-66783564D01*
X135719292Y-66872369D01*
X135603416Y-66985843D01*
X135511788Y-67119662D01*
X135447898Y-67268730D01*
X135414178Y-67427369D01*
X135414150Y-67429352D01*
X128964226Y-73978229D01*
X128835374Y-74002809D01*
X128685001Y-74063564D01*
X128549292Y-74152369D01*
X128433416Y-74265843D01*
X128341788Y-74399662D01*
X128277898Y-74548730D01*
X128244178Y-74707369D01*
X128241913Y-74869536D01*
X126942418Y-74869536D01*
X128226563Y-72278767D01*
X128244680Y-72271740D01*
X128381615Y-72184838D01*
X128499064Y-72072993D01*
X128592551Y-71940466D01*
X128658517Y-71792305D01*
X128694448Y-71634152D01*
X128697035Y-71448909D01*
X128665533Y-71289814D01*
X128603730Y-71139869D01*
X128513980Y-71004783D01*
X128399700Y-70889703D01*
X128265244Y-70799011D01*
X128115734Y-70736163D01*
X127956863Y-70703551D01*
X127794684Y-70702419D01*
X127635374Y-70732809D01*
X127485001Y-70793564D01*
X127349292Y-70882369D01*
X127233416Y-70995843D01*
X127141788Y-71129662D01*
X127077898Y-71278730D01*
X127044178Y-71437369D01*
X127041913Y-71599536D01*
X127059727Y-71696595D01*
X122942915Y-80002286D01*
X122915001Y-80013564D01*
X122779292Y-80102369D01*
X122663416Y-80215843D01*
X122571788Y-80349662D01*
X122507898Y-80498730D01*
X122474178Y-80657369D01*
X122471913Y-80819536D01*
X121460923Y-80819536D01*
X121797805Y-78611329D01*
X121859064Y-78552993D01*
X121952551Y-78420466D01*
X122018517Y-78272305D01*
X122054448Y-78114152D01*
X122057035Y-77928909D01*
X122025533Y-77769814D01*
X121963730Y-77619869D01*
X121873980Y-77484783D01*
X121759700Y-77369703D01*
X121625244Y-77279011D01*
X121475734Y-77216163D01*
X121316863Y-77183551D01*
X121154684Y-77182419D01*
X120995374Y-77212809D01*
X120845001Y-77273564D01*
X120709292Y-77362369D01*
X120593416Y-77475843D01*
X120501788Y-77609662D01*
X120437898Y-77758730D01*
X120404178Y-77917369D01*
X120401913Y-78079536D01*
X120431191Y-78239055D01*
X120490894Y-78389849D01*
X120508369Y-78416965D01*
X119112226Y-87568459D01*
X119043416Y-87635843D01*
X118951788Y-87769662D01*
X118887898Y-87918730D01*
X118854178Y-88077369D01*
X118851913Y-88239536D01*
X117843297Y-88239536D01*
X117566814Y-86560892D01*
X117628517Y-86422305D01*
X117664448Y-86264152D01*
X117667035Y-86078909D01*
X117635533Y-85919814D01*
X117573730Y-85769869D01*
X117483980Y-85634783D01*
X117369700Y-85519703D01*
X117235244Y-85429011D01*
X117085734Y-85366163D01*
X116926863Y-85333551D01*
X116764684Y-85332419D01*
X116605374Y-85362809D01*
X116455001Y-85423564D01*
X116319292Y-85512369D01*
X116203416Y-85625843D01*
X116111788Y-85759662D01*
X116047898Y-85908730D01*
X116014178Y-86067369D01*
X116011913Y-86229536D01*
X115252860Y-86229536D01*
X116112326Y-83520159D01*
X119055080Y-78167308D01*
X122981498Y-73487986D01*
X127742023Y-69660426D01*
X133155328Y-66830418D01*
X139015222Y-65105758D01*
X145098504Y-64552136D01*
X151173463Y-65190640D01*
X151173463Y-65190640D01*
G37*
X151173463Y-65190640D02*
X157008706Y-66996949D01*
X162381970Y-69902262D01*
X167088590Y-73795917D01*
X170949291Y-78529604D01*
X173817021Y-83923020D01*
X175582550Y-89770731D01*
X176178627Y-95850000D01*
X176166424Y-96723909D01*
X175400836Y-102784164D01*
X173472719Y-108580298D01*
X170455513Y-113891540D01*
X166464145Y-118515585D01*
X161650643Y-122276305D01*
X156198353Y-125030455D01*
X150314950Y-126673131D01*
X144224531Y-127141763D01*
X138159079Y-126418501D01*
X135546234Y-125569536D01*
X143541913Y-125569536D01*
X143571191Y-125729055D01*
X143630894Y-125879849D01*
X143718750Y-126016174D01*
X143831412Y-126132839D01*
X143964588Y-126225399D01*
X144113207Y-126290329D01*
X144271606Y-126325155D01*
X144433754Y-126328552D01*
X144593473Y-126300389D01*
X144744680Y-126241740D01*
X144881615Y-126154838D01*
X144999064Y-126042993D01*
X145092551Y-125910466D01*
X145121174Y-125846178D01*
X148139219Y-124289536D01*
X152751913Y-124289536D01*
X152781191Y-124449055D01*
X152840894Y-124599849D01*
X152928750Y-124736174D01*
X153041412Y-124852839D01*
X153174588Y-124945399D01*
X153323207Y-125010329D01*
X153481606Y-125045155D01*
X153643754Y-125048552D01*
X153803473Y-125020389D01*
X153954680Y-124961740D01*
X154091615Y-124874838D01*
X154209064Y-124762993D01*
X154302551Y-124630466D01*
X154368517Y-124482305D01*
X154404448Y-124324152D01*
X154404704Y-124305814D01*
X158402733Y-120179536D01*
X161101913Y-120179536D01*
X161131191Y-120339055D01*
X161190894Y-120489849D01*
X161278750Y-120626174D01*
X161391412Y-120742839D01*
X161524588Y-120835399D01*
X161673207Y-120900329D01*
X161831606Y-120935155D01*
X161993754Y-120938552D01*
X162153473Y-120910389D01*
X162304680Y-120851740D01*
X162441615Y-120764838D01*
X162559064Y-120652993D01*
X162652551Y-120520466D01*
X162718517Y-120372305D01*
X162754448Y-120214152D01*
X162757035Y-120028909D01*
X162740856Y-119947198D01*
X165861485Y-113719536D01*
X167761913Y-113719536D01*
X167791191Y-113879055D01*
X167850894Y-114029849D01*
X167938750Y-114166174D01*
X168051412Y-114282839D01*
X168184588Y-114375399D01*
X168333207Y-114440329D01*
X168491606Y-114475155D01*
X168653754Y-114478552D01*
X168813473Y-114450389D01*
X168964680Y-114391740D01*
X169101615Y-114304838D01*
X169219064Y-114192993D01*
X169312551Y-114060466D01*
X169378517Y-113912305D01*
X169414448Y-113754152D01*
X169417035Y-113568909D01*
X169385533Y-113409814D01*
X169323730Y-113259869D01*
X169309240Y-113238060D01*
X170651439Y-104067868D01*
X170709064Y-104012993D01*
X170802551Y-103880466D01*
X170868517Y-103732305D01*
X170904448Y-103574152D01*
X170907035Y-103388909D01*
X170875533Y-103229814D01*
X170813730Y-103079869D01*
X170723980Y-102944783D01*
X170609700Y-102829703D01*
X170475244Y-102739011D01*
X170325734Y-102676163D01*
X170166863Y-102643551D01*
X170004684Y-102642419D01*
X169845374Y-102672809D01*
X169695001Y-102733564D01*
X169559292Y-102822369D01*
X169443416Y-102935843D01*
X169351788Y-103069662D01*
X169287898Y-103218730D01*
X169254178Y-103377369D01*
X169251913Y-103539536D01*
X169281191Y-103699055D01*
X169340894Y-103849849D01*
X169360911Y-103880909D01*
X168018575Y-113052035D01*
X167953416Y-113115843D01*
X167861788Y-113249662D01*
X167797898Y-113398730D01*
X167764178Y-113557369D01*
X167761913Y-113719536D01*
X165861485Y-113719536D01*
X166873476Y-111699964D01*
X166894680Y-111691740D01*
X167031615Y-111604838D01*
X167149064Y-111492993D01*
X167242551Y-111360466D01*
X167308517Y-111212305D01*
X167344448Y-111054152D01*
X167347035Y-110868909D01*
X167315533Y-110709814D01*
X167253730Y-110559869D01*
X167163980Y-110424783D01*
X167049700Y-110309703D01*
X166915244Y-110219011D01*
X166765734Y-110156163D01*
X166606863Y-110123551D01*
X166444684Y-110122419D01*
X166285374Y-110152809D01*
X166135001Y-110213564D01*
X165999292Y-110302369D01*
X165883416Y-110415843D01*
X165791788Y-110549662D01*
X165727898Y-110698730D01*
X165694178Y-110857369D01*
X165691913Y-111019536D01*
X165709061Y-111112968D01*
X161576026Y-119361029D01*
X161545001Y-119373564D01*
X161409292Y-119462369D01*
X161293416Y-119575843D01*
X161201788Y-119709662D01*
X161137898Y-119858730D01*
X161104178Y-120017369D01*
X161101913Y-120179536D01*
X158402733Y-120179536D01*
X160863561Y-117639770D01*
X160973473Y-117620389D01*
X161124680Y-117561740D01*
X161261615Y-117474838D01*
X161379064Y-117362993D01*
X161472551Y-117230466D01*
X161538517Y-117082305D01*
X161574448Y-116924152D01*
X161577035Y-116738909D01*
X161545533Y-116579814D01*
X161483730Y-116429869D01*
X161393980Y-116294783D01*
X161279700Y-116179703D01*
X161145244Y-116089011D01*
X160995734Y-116026163D01*
X160836863Y-115993551D01*
X160674684Y-115992419D01*
X160515374Y-116022809D01*
X160365001Y-116083564D01*
X160229292Y-116172369D01*
X160113416Y-116285843D01*
X160021788Y-116419662D01*
X159957898Y-116568730D01*
X159924178Y-116727369D01*
X159924065Y-116735457D01*
X153467053Y-123399598D01*
X153345374Y-123422809D01*
X153195001Y-123483564D01*
X153059292Y-123572369D01*
X152943416Y-123685843D01*
X152851788Y-123819662D01*
X152787898Y-123968730D01*
X152754178Y-124127369D01*
X152751913Y-124289536D01*
X148139219Y-124289536D01*
X153406159Y-121572964D01*
X153461606Y-121585155D01*
X153623754Y-121588552D01*
X153783473Y-121560389D01*
X153934680Y-121501740D01*
X154071615Y-121414838D01*
X154189064Y-121302993D01*
X154282551Y-121170466D01*
X154348517Y-121022305D01*
X154384448Y-120864152D01*
X154387035Y-120678909D01*
X154355533Y-120519814D01*
X154293730Y-120369869D01*
X154203980Y-120234783D01*
X154089700Y-120119703D01*
X153955244Y-120029011D01*
X153805734Y-119966163D01*
X153646863Y-119933551D01*
X153484684Y-119932419D01*
X153325374Y-119962809D01*
X153175001Y-120023564D01*
X153039292Y-120112369D01*
X152923416Y-120225843D01*
X152831788Y-120359662D01*
X152808504Y-120413989D01*
X144523474Y-124687224D01*
X144456863Y-124673551D01*
X144294684Y-124672419D01*
X144135374Y-124702809D01*
X143985001Y-124763564D01*
X143849292Y-124852369D01*
X143733416Y-124965843D01*
X143641788Y-125099662D01*
X143577898Y-125248730D01*
X143544178Y-125407369D01*
X143541913Y-125569536D01*
X135546234Y-125569536D01*
X132349625Y-124530895D01*
X131219941Y-123899536D01*
X134441913Y-123899536D01*
X134471191Y-124059055D01*
X134530894Y-124209849D01*
X134618750Y-124346174D01*
X134731412Y-124462839D01*
X134864588Y-124555399D01*
X135013207Y-124620329D01*
X135171606Y-124655155D01*
X135333754Y-124658552D01*
X135493473Y-124630389D01*
X135644680Y-124571740D01*
X135781615Y-124484838D01*
X135880200Y-124390957D01*
X144967045Y-122906473D01*
X145113207Y-122970329D01*
X145271606Y-123005155D01*
X145433754Y-123008552D01*
X145593473Y-122980389D01*
X145744680Y-122921740D01*
X145881615Y-122834838D01*
X145999064Y-122722993D01*
X146092551Y-122590466D01*
X146158517Y-122442305D01*
X146194448Y-122284152D01*
X146197035Y-122098909D01*
X146165533Y-121939814D01*
X146103730Y-121789869D01*
X146013980Y-121654783D01*
X145899700Y-121539703D01*
X145765244Y-121449011D01*
X145615734Y-121386163D01*
X145456863Y-121353551D01*
X145294684Y-121352419D01*
X145135374Y-121382809D01*
X144985001Y-121443564D01*
X144849292Y-121532369D01*
X144760980Y-121618850D01*
X135672138Y-123103661D01*
X135665244Y-123099011D01*
X135515734Y-123036163D01*
X135356863Y-123003551D01*
X135194684Y-123002419D01*
X135035374Y-123032809D01*
X134885001Y-123093564D01*
X134749292Y-123182369D01*
X134633416Y-123295843D01*
X134541788Y-123429662D01*
X134477898Y-123578730D01*
X134444178Y-123737369D01*
X134441913Y-123899536D01*
X131219941Y-123899536D01*
X127017449Y-121550843D01*
X124736422Y-119609536D01*
X126231913Y-119609536D01*
X126261191Y-119769055D01*
X126320894Y-119919849D01*
X126408750Y-120056174D01*
X126521412Y-120172839D01*
X126654588Y-120265399D01*
X126803207Y-120330329D01*
X126961606Y-120365155D01*
X127123754Y-120368552D01*
X127283473Y-120340389D01*
X127434680Y-120281740D01*
X127469203Y-120259831D01*
X136641004Y-121620285D01*
X136701412Y-121682839D01*
X136834588Y-121775399D01*
X136983207Y-121840329D01*
X137141606Y-121875155D01*
X137303754Y-121878552D01*
X137463473Y-121850389D01*
X137614680Y-121791740D01*
X137751615Y-121704838D01*
X137869064Y-121592993D01*
X137962551Y-121460466D01*
X138028517Y-121312305D01*
X138064448Y-121154152D01*
X138067035Y-120968909D01*
X138035533Y-120809814D01*
X137973730Y-120659869D01*
X137883980Y-120524783D01*
X137769700Y-120409703D01*
X137635244Y-120319011D01*
X137485734Y-120256163D01*
X137326863Y-120223551D01*
X137164684Y-120222419D01*
X137005374Y-120252809D01*
X136855001Y-120313564D01*
X136829842Y-120330027D01*
X127659265Y-118969755D01*
X127589700Y-118899703D01*
X127455244Y-118809011D01*
X127305734Y-118746163D01*
X127146863Y-118713551D01*
X126984684Y-118712419D01*
X126825374Y-118742809D01*
X126675001Y-118803564D01*
X126539292Y-118892369D01*
X126423416Y-119005843D01*
X126331788Y-119139662D01*
X126267898Y-119288730D01*
X126234178Y-119447369D01*
X126231913Y-119609536D01*
X124736422Y-119609536D01*
X122365652Y-117591853D01*
X118733752Y-113009536D01*
X119791913Y-113009536D01*
X119821191Y-113169055D01*
X119880894Y-113319849D01*
X119968750Y-113456174D01*
X120081412Y-113572839D01*
X120214588Y-113665399D01*
X120363207Y-113730329D01*
X120521606Y-113765155D01*
X120683754Y-113768552D01*
X120792025Y-113749461D01*
X129073504Y-117791183D01*
X129080894Y-117809849D01*
X129168750Y-117946174D01*
X129281412Y-118062839D01*
X129414588Y-118155399D01*
X129563207Y-118220329D01*
X129721606Y-118255155D01*
X129883754Y-118258552D01*
X130043473Y-118230389D01*
X130194680Y-118171740D01*
X130331615Y-118084838D01*
X130449064Y-117972993D01*
X130542551Y-117840466D01*
X130608517Y-117692305D01*
X130644448Y-117534152D01*
X130647035Y-117348909D01*
X130615533Y-117189814D01*
X130553730Y-117039869D01*
X130463980Y-116904783D01*
X130349700Y-116789703D01*
X130215244Y-116699011D01*
X130065734Y-116636163D01*
X129906863Y-116603551D01*
X129744684Y-116602419D01*
X129648459Y-116620775D01*
X121365451Y-112578307D01*
X121353730Y-112549869D01*
X121263980Y-112414783D01*
X121149700Y-112299703D01*
X121015244Y-112209011D01*
X120865734Y-112146163D01*
X120706863Y-112113551D01*
X120544684Y-112112419D01*
X120385374Y-112142809D01*
X120235001Y-112203564D01*
X120099292Y-112292369D01*
X119983416Y-112405843D01*
X119891788Y-112539662D01*
X119827898Y-112688730D01*
X119794178Y-112847369D01*
X119791913Y-113009536D01*
X118733752Y-113009536D01*
X118571419Y-112804723D01*
X115779273Y-107371793D01*
X114981474Y-104589536D01*
X115701913Y-104589536D01*
X115731191Y-104749055D01*
X115790894Y-104899849D01*
X115878750Y-105036174D01*
X115991412Y-105152839D01*
X116124588Y-105245399D01*
X116273207Y-105310329D01*
X116431606Y-105345155D01*
X116445534Y-105345447D01*
X123070067Y-111753961D01*
X123091191Y-111869055D01*
X123150894Y-112019849D01*
X123238750Y-112156174D01*
X123351412Y-112272839D01*
X123484588Y-112365399D01*
X123633207Y-112430329D01*
X123791606Y-112465155D01*
X123953754Y-112468552D01*
X124113473Y-112440389D01*
X124264680Y-112381740D01*
X124401615Y-112294838D01*
X124519064Y-112182993D01*
X124612551Y-112050466D01*
X124678517Y-111902305D01*
X124714448Y-111744152D01*
X124717035Y-111558909D01*
X124685533Y-111399814D01*
X124623730Y-111249869D01*
X124533980Y-111114783D01*
X124419700Y-110999703D01*
X124285244Y-110909011D01*
X124135734Y-110846163D01*
X123976863Y-110813551D01*
X123973405Y-110813527D01*
X117350667Y-104406747D01*
X117325533Y-104279814D01*
X117263730Y-104129869D01*
X117173980Y-103994783D01*
X117059700Y-103879703D01*
X116925244Y-103789011D01*
X116775734Y-103726163D01*
X116616863Y-103693551D01*
X116454684Y-103692419D01*
X116295374Y-103722809D01*
X116145001Y-103783564D01*
X116009292Y-103872369D01*
X115893416Y-103985843D01*
X115801788Y-104119662D01*
X115737898Y-104268730D01*
X115704178Y-104427369D01*
X115701913Y-104589536D01*
X114981474Y-104589536D01*
X114095563Y-101500001D01*
X113584424Y-95413003D01*
X113587056Y-95389536D01*
X114381913Y-95389536D01*
X114411191Y-95549055D01*
X114470894Y-95699849D01*
X114558750Y-95836174D01*
X114671412Y-95952839D01*
X114804588Y-96045399D01*
X114871333Y-96074559D01*
X119215481Y-104294193D01*
X119204178Y-104347369D01*
X119201913Y-104509536D01*
X119231191Y-104669055D01*
X119290894Y-104819849D01*
X119378750Y-104956174D01*
X119491412Y-105072839D01*
X119624588Y-105165399D01*
X119773207Y-105230329D01*
X119931606Y-105265155D01*
X120093754Y-105268552D01*
X120253473Y-105240389D01*
X120404680Y-105181740D01*
X120541615Y-105094838D01*
X120659064Y-104982993D01*
X120752551Y-104850466D01*
X120818517Y-104702305D01*
X120854448Y-104544152D01*
X120857035Y-104358909D01*
X120825533Y-104199814D01*
X120763730Y-104049869D01*
X120673980Y-103914783D01*
X120559700Y-103799703D01*
X120425244Y-103709011D01*
X120368523Y-103685168D01*
X118698646Y-100525565D01*
X120024040Y-100525565D01*
X120091020Y-100765656D01*
X120340048Y-100882756D01*
X120607135Y-100949023D01*
X120882017Y-100961910D01*
X121154133Y-100920922D01*
X121413023Y-100827636D01*
X121528980Y-100765656D01*
X121595960Y-100525565D01*
X120810000Y-99739605D01*
X120024040Y-100525565D01*
X118698646Y-100525565D01*
X118226398Y-99632017D01*
X119408090Y-99632017D01*
X119449078Y-99904133D01*
X119542364Y-100163023D01*
X119604344Y-100278980D01*
X119844435Y-100345960D01*
X120630395Y-99560000D01*
X120989605Y-99560000D01*
X121775565Y-100345960D01*
X122015656Y-100278980D01*
X122132756Y-100029952D01*
X122199023Y-99762865D01*
X122201320Y-99713871D01*
X122304399Y-100632843D01*
X123667606Y-104930216D01*
X125839548Y-108880964D01*
X128737497Y-112334605D01*
X132251071Y-115159590D01*
X136246438Y-117248318D01*
X140571417Y-118521228D01*
X145061270Y-118929837D01*
X149544980Y-118458580D01*
X153851765Y-117125408D01*
X157817580Y-114981100D01*
X161291368Y-112107332D01*
X164140814Y-108613566D01*
X164517264Y-107905565D01*
X165714040Y-107905565D01*
X165781020Y-108145656D01*
X166030048Y-108262756D01*
X166297135Y-108329023D01*
X166572017Y-108341910D01*
X166844133Y-108300922D01*
X167103023Y-108207636D01*
X167218980Y-108145656D01*
X167285960Y-107905565D01*
X166500000Y-107119605D01*
X165714040Y-107905565D01*
X164517264Y-107905565D01*
X165108313Y-106793965D01*
X165098090Y-107012017D01*
X165139078Y-107284133D01*
X165232364Y-107543023D01*
X165294344Y-107658980D01*
X165534435Y-107725960D01*
X166320395Y-106940000D01*
X166679605Y-106940000D01*
X167465565Y-107725960D01*
X167705656Y-107658980D01*
X167822756Y-107409952D01*
X167889023Y-107142865D01*
X167901910Y-106867983D01*
X167860922Y-106595867D01*
X167767636Y-106336977D01*
X167705656Y-106221020D01*
X167465565Y-106154040D01*
X166679605Y-106940000D01*
X166320395Y-106940000D01*
X166306253Y-106925858D01*
X166485858Y-106746253D01*
X166500000Y-106760395D01*
X167285960Y-105974435D01*
X167218980Y-105734344D01*
X166969952Y-105617244D01*
X166702865Y-105550977D01*
X166427983Y-105538090D01*
X166155867Y-105579078D01*
X165896977Y-105672364D01*
X165781020Y-105734344D01*
X165714041Y-105974433D01*
X165603070Y-105863462D01*
X166257383Y-104632878D01*
X167560456Y-100316891D01*
X167617179Y-99738383D01*
X167749306Y-99738383D01*
X167794938Y-99987016D01*
X167887995Y-100222050D01*
X168024931Y-100434534D01*
X168200531Y-100616373D01*
X168408106Y-100760641D01*
X168639750Y-100861844D01*
X168886639Y-100916126D01*
X169139369Y-100921420D01*
X169388315Y-100877524D01*
X169623993Y-100786110D01*
X169837428Y-100650661D01*
X170020488Y-100476335D01*
X170166202Y-100269772D01*
X170269019Y-100038840D01*
X170325024Y-99792336D01*
X170329055Y-99503607D01*
X170279956Y-99255635D01*
X170183626Y-99021923D01*
X170043737Y-98811372D01*
X169865615Y-98632003D01*
X169656046Y-98490647D01*
X169423012Y-98392688D01*
X169175389Y-98341858D01*
X168922609Y-98340094D01*
X168674301Y-98387461D01*
X168439922Y-98482156D01*
X168228400Y-98620573D01*
X168047791Y-98797438D01*
X167904975Y-99006015D01*
X167805392Y-99238359D01*
X167752835Y-99485621D01*
X167749306Y-99738383D01*
X167617179Y-99738383D01*
X168000400Y-95830000D01*
X167994250Y-95389536D01*
X170421913Y-95389536D01*
X170451191Y-95549055D01*
X170510894Y-95699849D01*
X170598750Y-95836174D01*
X170688940Y-95929568D01*
X172173537Y-105017107D01*
X172171788Y-105019662D01*
X172107898Y-105168730D01*
X172074178Y-105327369D01*
X172071913Y-105489536D01*
X172101191Y-105649055D01*
X172160894Y-105799849D01*
X172248750Y-105936174D01*
X172361412Y-106052839D01*
X172494588Y-106145399D01*
X172643207Y-106210329D01*
X172801606Y-106245155D01*
X172963754Y-106248552D01*
X173123473Y-106220389D01*
X173274680Y-106161740D01*
X173411615Y-106074838D01*
X173529064Y-105962993D01*
X173622551Y-105830466D01*
X173688517Y-105682305D01*
X173724448Y-105524152D01*
X173727035Y-105338909D01*
X173695533Y-105179814D01*
X173633730Y-105029869D01*
X173543980Y-104894783D01*
X173461227Y-104811450D01*
X171976318Y-95722006D01*
X172038517Y-95582305D01*
X172074448Y-95424152D01*
X172077035Y-95238909D01*
X172045533Y-95079814D01*
X171983730Y-94929869D01*
X171893980Y-94794783D01*
X171779700Y-94679703D01*
X171645244Y-94589011D01*
X171495734Y-94526163D01*
X171336863Y-94493551D01*
X171174684Y-94492419D01*
X171015374Y-94522809D01*
X170865001Y-94583564D01*
X170729292Y-94672369D01*
X170613416Y-94785843D01*
X170521788Y-94919662D01*
X170457898Y-95068730D01*
X170424178Y-95227369D01*
X170421913Y-95389536D01*
X167994250Y-95389536D01*
X167991394Y-95184999D01*
X167426340Y-90712141D01*
X166294444Y-87309536D01*
X168961913Y-87309536D01*
X168991191Y-87469055D01*
X169050894Y-87619849D01*
X169138750Y-87756174D01*
X169251412Y-87872839D01*
X169384588Y-87965399D01*
X169447570Y-87992915D01*
X173706317Y-96150260D01*
X173694178Y-96207369D01*
X173691913Y-96369536D01*
X173721191Y-96529055D01*
X173780894Y-96679849D01*
X173868750Y-96816174D01*
X173981412Y-96932839D01*
X174114588Y-97025399D01*
X174263207Y-97090329D01*
X174421606Y-97125155D01*
X174583754Y-97128552D01*
X174743473Y-97100389D01*
X174894680Y-97041740D01*
X175031615Y-96954838D01*
X175149064Y-96842993D01*
X175242551Y-96710466D01*
X175308517Y-96562305D01*
X175344448Y-96404152D01*
X175347035Y-96218909D01*
X175315533Y-96059814D01*
X175253730Y-95909869D01*
X175163980Y-95774783D01*
X175049700Y-95659703D01*
X174915244Y-95569011D01*
X174862246Y-95546733D01*
X170603967Y-87390283D01*
X170614448Y-87344152D01*
X170617035Y-87158909D01*
X170585533Y-86999814D01*
X170523730Y-86849869D01*
X170433980Y-86714783D01*
X170319700Y-86599703D01*
X170185244Y-86509011D01*
X170035734Y-86446163D01*
X169876863Y-86413551D01*
X169714684Y-86412419D01*
X169555374Y-86442809D01*
X169405001Y-86503564D01*
X169269292Y-86592369D01*
X169153416Y-86705843D01*
X169061788Y-86839662D01*
X168997898Y-86988730D01*
X168964178Y-87147369D01*
X168961913Y-87309536D01*
X166294444Y-87309536D01*
X166003265Y-86434221D01*
X163776374Y-82514183D01*
X161648948Y-80049536D01*
X165051913Y-80049536D01*
X165081191Y-80209055D01*
X165140894Y-80359849D01*
X165228750Y-80496174D01*
X165341412Y-80612839D01*
X165474588Y-80705399D01*
X165623207Y-80770329D01*
X165781606Y-80805155D01*
X165790821Y-80805348D01*
X172409070Y-87288531D01*
X172431191Y-87409055D01*
X172490894Y-87559849D01*
X172578750Y-87696174D01*
X172691412Y-87812839D01*
X172824588Y-87905399D01*
X172973207Y-87970329D01*
X173131606Y-88005155D01*
X173293754Y-88008552D01*
X173453473Y-87980389D01*
X173604680Y-87921740D01*
X173741615Y-87834838D01*
X173859064Y-87722993D01*
X173952551Y-87590466D01*
X174018517Y-87442305D01*
X174054448Y-87284152D01*
X174057035Y-87098909D01*
X174025533Y-86939814D01*
X173963730Y-86789869D01*
X173873980Y-86654783D01*
X173759700Y-86539703D01*
X173625244Y-86449011D01*
X173475734Y-86386163D01*
X173318371Y-86353860D01*
X166701763Y-79872286D01*
X166675533Y-79739814D01*
X166613730Y-79589869D01*
X166523980Y-79454783D01*
X166409700Y-79339703D01*
X166275244Y-79249011D01*
X166125734Y-79186163D01*
X165966863Y-79153551D01*
X165804684Y-79152419D01*
X165645374Y-79182809D01*
X165495001Y-79243564D01*
X165359292Y-79332369D01*
X165243416Y-79445843D01*
X165151788Y-79579662D01*
X165087898Y-79728730D01*
X165054178Y-79887369D01*
X165051913Y-80049536D01*
X161648948Y-80049536D01*
X160830487Y-79101340D01*
X157277813Y-76325687D01*
X153365700Y-74349536D01*
X159171913Y-74349536D01*
X159201191Y-74509055D01*
X159260894Y-74659849D01*
X159348750Y-74796174D01*
X159461412Y-74912839D01*
X159594588Y-75005399D01*
X159743207Y-75070329D01*
X159901606Y-75105155D01*
X160063754Y-75108552D01*
X160161311Y-75091350D01*
X168421675Y-79253129D01*
X168468750Y-79326174D01*
X168581412Y-79442839D01*
X168714588Y-79535399D01*
X168863207Y-79600329D01*
X169021606Y-79635155D01*
X169183754Y-79638552D01*
X169343473Y-79610389D01*
X169494680Y-79551740D01*
X169631615Y-79464838D01*
X169749064Y-79352993D01*
X169842551Y-79220466D01*
X169908517Y-79072305D01*
X169944448Y-78914152D01*
X169947035Y-78728909D01*
X169915533Y-78569814D01*
X169853730Y-78419869D01*
X169763980Y-78284783D01*
X169649700Y-78169703D01*
X169515244Y-78079011D01*
X169365734Y-78016163D01*
X169206863Y-77983551D01*
X169044684Y-77982419D01*
X168885374Y-78012809D01*
X168870185Y-78018946D01*
X160749193Y-73927385D01*
X160733730Y-73889869D01*
X160643980Y-73754783D01*
X160529700Y-73639703D01*
X160395244Y-73549011D01*
X160245734Y-73486163D01*
X160086863Y-73453551D01*
X159924684Y-73452419D01*
X159765374Y-73482809D01*
X159615001Y-73543564D01*
X159479292Y-73632369D01*
X159363416Y-73745843D01*
X159271788Y-73879662D01*
X159207898Y-74028730D01*
X159174178Y-74187369D01*
X159171913Y-74349536D01*
X153365700Y-74349536D01*
X153253672Y-74292947D01*
X148911342Y-73080547D01*
X144416222Y-72734666D01*
X139939528Y-73268480D01*
X135651777Y-74661654D01*
X131716288Y-76861125D01*
X128282963Y-79783114D01*
X125482575Y-83316324D01*
X123421791Y-87326176D01*
X122179106Y-91659936D01*
X121801852Y-96152532D01*
X122133951Y-99113264D01*
X122077636Y-98956977D01*
X122015656Y-98841020D01*
X121775565Y-98774040D01*
X120989605Y-99560000D01*
X120630395Y-99560000D01*
X119844435Y-98774040D01*
X119604344Y-98841020D01*
X119487244Y-99090048D01*
X119420977Y-99357135D01*
X119408090Y-99632017D01*
X118226398Y-99632017D01*
X117678027Y-98594435D01*
X120024040Y-98594435D01*
X120810000Y-99380395D01*
X121595960Y-98594435D01*
X121528980Y-98354344D01*
X121279952Y-98237244D01*
X121012865Y-98170977D01*
X120737983Y-98158090D01*
X120465867Y-98199078D01*
X120206977Y-98292364D01*
X120091020Y-98354344D01*
X120024040Y-98594435D01*
X117678027Y-98594435D01*
X116024844Y-95466423D01*
X116034448Y-95424152D01*
X116037035Y-95238909D01*
X116005533Y-95079814D01*
X115943730Y-94929869D01*
X115853980Y-94794783D01*
X115739700Y-94679703D01*
X115605244Y-94589011D01*
X115455734Y-94526163D01*
X115296863Y-94493551D01*
X115134684Y-94492419D01*
X114975374Y-94522809D01*
X114825001Y-94583564D01*
X114689292Y-94672369D01*
X114573416Y-94785843D01*
X114481788Y-94919662D01*
X114417898Y-95068730D01*
X114384178Y-95227369D01*
X114381913Y-95389536D01*
X113587056Y-95389536D01*
X114265323Y-89342650D01*
X115252860Y-86229536D01*
X116011913Y-86229536D01*
X116041191Y-86389055D01*
X116100894Y-86539849D01*
X116188750Y-86676174D01*
X116279754Y-86770411D01*
X117792989Y-95957908D01*
X117791788Y-95959662D01*
X117727898Y-96108730D01*
X117694178Y-96267369D01*
X117691913Y-96429536D01*
X117721191Y-96589055D01*
X117780894Y-96739849D01*
X117868750Y-96876174D01*
X117981412Y-96992839D01*
X118114588Y-97085399D01*
X118263207Y-97150329D01*
X118421606Y-97185155D01*
X118583754Y-97188552D01*
X118743473Y-97160389D01*
X118894680Y-97101740D01*
X119031615Y-97014838D01*
X119149064Y-96902993D01*
X119242551Y-96770466D01*
X119308517Y-96622305D01*
X119344448Y-96464152D01*
X119347035Y-96278909D01*
X119315533Y-96119814D01*
X119253730Y-95969869D01*
X119163980Y-95834783D01*
X119080419Y-95750637D01*
X118467343Y-92028383D01*
X119429306Y-92028383D01*
X119474938Y-92277016D01*
X119567995Y-92512050D01*
X119704931Y-92724534D01*
X119880531Y-92906373D01*
X120088106Y-93050641D01*
X120319750Y-93151844D01*
X120566639Y-93206126D01*
X120819369Y-93211420D01*
X121068315Y-93167524D01*
X121303993Y-93076110D01*
X121517428Y-92940661D01*
X121700488Y-92766335D01*
X121846202Y-92559772D01*
X121949019Y-92328840D01*
X122005024Y-92082336D01*
X122009055Y-91793607D01*
X121959956Y-91545635D01*
X121863626Y-91311923D01*
X121723737Y-91101372D01*
X121545615Y-90922003D01*
X121336046Y-90780647D01*
X121103012Y-90682688D01*
X120855389Y-90631858D01*
X120602609Y-90630094D01*
X120354301Y-90677461D01*
X120119922Y-90772156D01*
X119908400Y-90910573D01*
X119727791Y-91087438D01*
X119584975Y-91296015D01*
X119485392Y-91528359D01*
X119432835Y-91775621D01*
X119429306Y-92028383D01*
X118467343Y-92028383D01*
X117843297Y-88239536D01*
X118851913Y-88239536D01*
X118881191Y-88399055D01*
X118940894Y-88549849D01*
X119028750Y-88686174D01*
X119141412Y-88802839D01*
X119274588Y-88895399D01*
X119423207Y-88960329D01*
X119581606Y-88995155D01*
X119743754Y-88998552D01*
X119903473Y-88970389D01*
X120054680Y-88911740D01*
X120191615Y-88824838D01*
X120309064Y-88712993D01*
X120402551Y-88580466D01*
X120468517Y-88432305D01*
X120504448Y-88274152D01*
X120507035Y-88088909D01*
X120475533Y-87929814D01*
X120413730Y-87779869D01*
X120401801Y-87761915D01*
X121460923Y-80819536D01*
X122471913Y-80819536D01*
X122501191Y-80979055D01*
X122560894Y-81129849D01*
X122648750Y-81266174D01*
X122761412Y-81382839D01*
X122894588Y-81475399D01*
X123043207Y-81540329D01*
X123201606Y-81575155D01*
X123363754Y-81578552D01*
X123523473Y-81550389D01*
X123674680Y-81491740D01*
X123811615Y-81404838D01*
X123929064Y-81292993D01*
X124022551Y-81160466D01*
X124088517Y-81012305D01*
X124124448Y-80854152D01*
X124127035Y-80668909D01*
X124110153Y-80583647D01*
X126942418Y-74869536D01*
X128241913Y-74869536D01*
X128271191Y-75029055D01*
X128330894Y-75179849D01*
X128418750Y-75316174D01*
X128531412Y-75432839D01*
X128664588Y-75525399D01*
X128813207Y-75590329D01*
X128971606Y-75625155D01*
X129133754Y-75628552D01*
X129293473Y-75600389D01*
X129444680Y-75541740D01*
X129581615Y-75454838D01*
X129699064Y-75342993D01*
X129792551Y-75210466D01*
X129858517Y-75062305D01*
X129894448Y-74904152D01*
X129894619Y-74891897D01*
X130626898Y-74148383D01*
X132439306Y-74148383D01*
X132484938Y-74397016D01*
X132577995Y-74632050D01*
X132714931Y-74844534D01*
X132890531Y-75026373D01*
X133098106Y-75170641D01*
X133329750Y-75271844D01*
X133576639Y-75326126D01*
X133829369Y-75331420D01*
X134078315Y-75287524D01*
X134313993Y-75196110D01*
X134527428Y-75060661D01*
X134710488Y-74886335D01*
X134856202Y-74679772D01*
X134959019Y-74448840D01*
X135015024Y-74202336D01*
X135019055Y-73913607D01*
X134969956Y-73665635D01*
X134873626Y-73431923D01*
X134733737Y-73221372D01*
X134555615Y-73042003D01*
X134346046Y-72900647D01*
X134113012Y-72802688D01*
X133865389Y-72751858D01*
X133612609Y-72750094D01*
X133364301Y-72797461D01*
X133129922Y-72892156D01*
X132918400Y-73030573D01*
X132737791Y-73207438D01*
X132594975Y-73416015D01*
X132495392Y-73648359D01*
X132442835Y-73895621D01*
X132439306Y-74148383D01*
X130626898Y-74148383D01*
X132882296Y-71858383D01*
X147499306Y-71858383D01*
X147544938Y-72107016D01*
X147637995Y-72342050D01*
X147774931Y-72554534D01*
X147950531Y-72736373D01*
X148158106Y-72880641D01*
X148389750Y-72981844D01*
X148636639Y-73036126D01*
X148889369Y-73041420D01*
X149138315Y-72997524D01*
X149373993Y-72906110D01*
X149587428Y-72770661D01*
X149770488Y-72596335D01*
X149916202Y-72389772D01*
X150019019Y-72158840D01*
X150075024Y-71912336D01*
X150079055Y-71623607D01*
X150029956Y-71375635D01*
X149933626Y-71141923D01*
X149793737Y-70931372D01*
X149615615Y-70752003D01*
X149523004Y-70689536D01*
X151651913Y-70689536D01*
X151681191Y-70849055D01*
X151740894Y-70999849D01*
X151828750Y-71136174D01*
X151941412Y-71252839D01*
X152074588Y-71345399D01*
X152223207Y-71410329D01*
X152381606Y-71445155D01*
X152543754Y-71448552D01*
X152703473Y-71420389D01*
X152854680Y-71361740D01*
X152884413Y-71342871D01*
X162123212Y-72782216D01*
X162191412Y-72852839D01*
X162324588Y-72945399D01*
X162473207Y-73010329D01*
X162631606Y-73045155D01*
X162793754Y-73048552D01*
X162953473Y-73020389D01*
X163104680Y-72961740D01*
X163241615Y-72874838D01*
X163359064Y-72762993D01*
X163452551Y-72630466D01*
X163518517Y-72482305D01*
X163554448Y-72324152D01*
X163557035Y-72138909D01*
X163525533Y-71979814D01*
X163463730Y-71829869D01*
X163373980Y-71694783D01*
X163259700Y-71579703D01*
X163125244Y-71489011D01*
X162975734Y-71426163D01*
X162816863Y-71393551D01*
X162654684Y-71392419D01*
X162495374Y-71422809D01*
X162345001Y-71483564D01*
X162328370Y-71494447D01*
X153083660Y-70054181D01*
X153009700Y-69979703D01*
X152875244Y-69889011D01*
X152725734Y-69826163D01*
X152566863Y-69793551D01*
X152404684Y-69792419D01*
X152245374Y-69822809D01*
X152095001Y-69883564D01*
X151959292Y-69972369D01*
X151843416Y-70085843D01*
X151751788Y-70219662D01*
X151687898Y-70368730D01*
X151654178Y-70527369D01*
X151651913Y-70689536D01*
X149523004Y-70689536D01*
X149406046Y-70610647D01*
X149173012Y-70512688D01*
X148925389Y-70461858D01*
X148672609Y-70460094D01*
X148424301Y-70507461D01*
X148189922Y-70602156D01*
X147978400Y-70740573D01*
X147797791Y-70917438D01*
X147654975Y-71126015D01*
X147555392Y-71358359D01*
X147502835Y-71605621D01*
X147499306Y-71858383D01*
X132882296Y-71858383D01*
X135087315Y-69619536D01*
X143521913Y-69619536D01*
X143551191Y-69779055D01*
X143610894Y-69929849D01*
X143698750Y-70066174D01*
X143811412Y-70182839D01*
X143944588Y-70275399D01*
X144093207Y-70340329D01*
X144251606Y-70375155D01*
X144413754Y-70378552D01*
X144573473Y-70350389D01*
X144724680Y-70291740D01*
X144861615Y-70204838D01*
X144964440Y-70106919D01*
X154072588Y-68558894D01*
X154213207Y-68620329D01*
X154371606Y-68655155D01*
X154533754Y-68658552D01*
X154693473Y-68630389D01*
X154844680Y-68571740D01*
X154981615Y-68484838D01*
X155099064Y-68372993D01*
X155192551Y-68240466D01*
X155258517Y-68092305D01*
X155294448Y-67934152D01*
X155297035Y-67748909D01*
X155265533Y-67589814D01*
X155203730Y-67439869D01*
X155113980Y-67304783D01*
X154999700Y-67189703D01*
X154865244Y-67099011D01*
X154715734Y-67036163D01*
X154556863Y-67003551D01*
X154394684Y-67002419D01*
X154235374Y-67032809D01*
X154085001Y-67093564D01*
X153949292Y-67182369D01*
X153856891Y-67272854D01*
X144748161Y-68820979D01*
X144745244Y-68819011D01*
X144595734Y-68756163D01*
X144436863Y-68723551D01*
X144274684Y-68722419D01*
X144115374Y-68752809D01*
X143965001Y-68813564D01*
X143829292Y-68902369D01*
X143713416Y-69015843D01*
X143621788Y-69149662D01*
X143557898Y-69298730D01*
X143524178Y-69457369D01*
X143521913Y-69619536D01*
X135087315Y-69619536D01*
X136346523Y-68341011D01*
X136463473Y-68320389D01*
X136614680Y-68261740D01*
X136751615Y-68174838D01*
X136869064Y-68062993D01*
X136962551Y-67930466D01*
X137028517Y-67782305D01*
X137064448Y-67624152D01*
X137067035Y-67438909D01*
X137035533Y-67279814D01*
X136973730Y-67129869D01*
X136883980Y-66994783D01*
X136769700Y-66879703D01*
X136635244Y-66789011D01*
X136485734Y-66726163D01*
X136326863Y-66693551D01*
X136164684Y-66692419D01*
X136005374Y-66722809D01*
X135855001Y-66783564D01*
X135719292Y-66872369D01*
X135603416Y-66985843D01*
X135511788Y-67119662D01*
X135447898Y-67268730D01*
X135414178Y-67427369D01*
X135414150Y-67429352D01*
X128964226Y-73978229D01*
X128835374Y-74002809D01*
X128685001Y-74063564D01*
X128549292Y-74152369D01*
X128433416Y-74265843D01*
X128341788Y-74399662D01*
X128277898Y-74548730D01*
X128244178Y-74707369D01*
X128241913Y-74869536D01*
X126942418Y-74869536D01*
X128226563Y-72278767D01*
X128244680Y-72271740D01*
X128381615Y-72184838D01*
X128499064Y-72072993D01*
X128592551Y-71940466D01*
X128658517Y-71792305D01*
X128694448Y-71634152D01*
X128697035Y-71448909D01*
X128665533Y-71289814D01*
X128603730Y-71139869D01*
X128513980Y-71004783D01*
X128399700Y-70889703D01*
X128265244Y-70799011D01*
X128115734Y-70736163D01*
X127956863Y-70703551D01*
X127794684Y-70702419D01*
X127635374Y-70732809D01*
X127485001Y-70793564D01*
X127349292Y-70882369D01*
X127233416Y-70995843D01*
X127141788Y-71129662D01*
X127077898Y-71278730D01*
X127044178Y-71437369D01*
X127041913Y-71599536D01*
X127059727Y-71696595D01*
X122942915Y-80002286D01*
X122915001Y-80013564D01*
X122779292Y-80102369D01*
X122663416Y-80215843D01*
X122571788Y-80349662D01*
X122507898Y-80498730D01*
X122474178Y-80657369D01*
X122471913Y-80819536D01*
X121460923Y-80819536D01*
X121797805Y-78611329D01*
X121859064Y-78552993D01*
X121952551Y-78420466D01*
X122018517Y-78272305D01*
X122054448Y-78114152D01*
X122057035Y-77928909D01*
X122025533Y-77769814D01*
X121963730Y-77619869D01*
X121873980Y-77484783D01*
X121759700Y-77369703D01*
X121625244Y-77279011D01*
X121475734Y-77216163D01*
X121316863Y-77183551D01*
X121154684Y-77182419D01*
X120995374Y-77212809D01*
X120845001Y-77273564D01*
X120709292Y-77362369D01*
X120593416Y-77475843D01*
X120501788Y-77609662D01*
X120437898Y-77758730D01*
X120404178Y-77917369D01*
X120401913Y-78079536D01*
X120431191Y-78239055D01*
X120490894Y-78389849D01*
X120508369Y-78416965D01*
X119112226Y-87568459D01*
X119043416Y-87635843D01*
X118951788Y-87769662D01*
X118887898Y-87918730D01*
X118854178Y-88077369D01*
X118851913Y-88239536D01*
X117843297Y-88239536D01*
X117566814Y-86560892D01*
X117628517Y-86422305D01*
X117664448Y-86264152D01*
X117667035Y-86078909D01*
X117635533Y-85919814D01*
X117573730Y-85769869D01*
X117483980Y-85634783D01*
X117369700Y-85519703D01*
X117235244Y-85429011D01*
X117085734Y-85366163D01*
X116926863Y-85333551D01*
X116764684Y-85332419D01*
X116605374Y-85362809D01*
X116455001Y-85423564D01*
X116319292Y-85512369D01*
X116203416Y-85625843D01*
X116111788Y-85759662D01*
X116047898Y-85908730D01*
X116014178Y-86067369D01*
X116011913Y-86229536D01*
X115252860Y-86229536D01*
X116112326Y-83520159D01*
X119055080Y-78167308D01*
X122981498Y-73487986D01*
X127742023Y-69660426D01*
X133155328Y-66830418D01*
X139015222Y-65105758D01*
X145098504Y-64552136D01*
X151173463Y-65190640D01*
M02*
