G04 #@! TF.FileFunction,Copper,L2,Bot,Signal*
%FSLAX46Y46*%
G04 Gerber Fmt 4.6, Leading zero omitted, Abs format (unit mm)*
G04 Created by KiCad (PCBNEW 4.0.1-stable) date 1/7/2016 3:17:09 PM*
%MOMM*%
G01*
G04 APERTURE LIST*
%ADD10C,0.100000*%
%ADD11C,1.524000*%
%ADD12C,0.600000*%
%ADD13C,0.250000*%
%ADD14C,0.254000*%
G04 APERTURE END LIST*
D10*
D11*
X141810000Y-75390000D03*
X174180000Y-39160000D03*
X142500000Y-82840000D03*
X211230000Y-60610000D03*
X213600000Y-67830000D03*
X166830000Y-40700000D03*
D12*
X179130000Y-35520000D03*
X170830000Y-36820000D03*
X162500000Y-38780000D03*
X155190000Y-42660000D03*
X149000000Y-47990000D03*
X143860000Y-54660000D03*
X140380000Y-62240000D03*
X138470000Y-70300000D03*
X138320000Y-78620000D03*
X139860000Y-86730000D03*
X143090000Y-94580000D03*
X147830000Y-101340000D03*
X154050000Y-107070000D03*
X161180000Y-111370000D03*
X168920000Y-114060000D03*
X177230000Y-115110000D03*
X185360000Y-114460000D03*
X193430000Y-112090000D03*
X200700000Y-108080000D03*
X206940000Y-102760000D03*
X212200000Y-95890000D03*
X215600000Y-88370000D03*
X217480000Y-80060000D03*
X217750000Y-71910000D03*
X216080000Y-63740000D03*
X212870000Y-56300000D03*
X208210000Y-49310000D03*
X201980000Y-43560000D03*
X194940000Y-39230000D03*
X186670000Y-36550000D03*
X187220000Y-34900000D03*
X177260000Y-37230000D03*
X195450000Y-37750000D03*
X185140000Y-37900000D03*
X154270000Y-41390000D03*
X149230000Y-50390000D03*
X217140000Y-88760000D03*
X215900000Y-78540000D03*
X161850000Y-37190000D03*
X155060000Y-44930000D03*
X170120000Y-34670000D03*
X161870000Y-40780000D03*
X141790000Y-95360000D03*
X150190000Y-101300000D03*
X213500000Y-96640000D03*
X214380000Y-86380000D03*
X208260000Y-103590000D03*
X211370000Y-93700000D03*
X201780000Y-109220000D03*
X206720000Y-100260000D03*
X194200000Y-113410000D03*
X200940000Y-105700000D03*
X185910000Y-115950000D03*
X194120000Y-109850000D03*
X177270000Y-116700000D03*
X186600000Y-112430000D03*
X168620000Y-115600000D03*
X178690000Y-113430000D03*
X160550000Y-112800000D03*
X170770000Y-112650000D03*
X153090000Y-108390000D03*
X163150000Y-110360000D03*
X146750000Y-102410000D03*
X156180000Y-106500000D03*
X138380000Y-87380000D03*
X145390000Y-94980000D03*
X136750000Y-78880000D03*
X142000000Y-87700000D03*
X136880000Y-70210000D03*
X140190000Y-80020000D03*
X138870000Y-61810000D03*
X140050000Y-72100000D03*
X142500000Y-53910000D03*
X141610000Y-64230000D03*
X202980000Y-42250000D03*
X192780000Y-40210000D03*
X209280000Y-48160000D03*
X199770000Y-44050000D03*
X214250000Y-55370000D03*
X205800000Y-49240000D03*
X217640000Y-63260000D03*
X210590000Y-55750000D03*
X219230000Y-71710000D03*
X213950000Y-62870000D03*
X219090000Y-80300000D03*
X215780000Y-70610000D03*
X147750000Y-47080000D03*
X144660000Y-56840000D03*
D13*
X161180000Y-111370000D02*
X161200000Y-111370000D01*
X177230000Y-115110000D02*
X177270000Y-115110000D01*
X194940000Y-39230000D02*
X194980000Y-39230000D01*
X177260000Y-37230000D02*
X187220000Y-34900000D01*
X185140000Y-37900000D02*
X195450000Y-37750000D01*
X149230000Y-50390000D02*
X154270000Y-41390000D01*
X215900000Y-78540000D02*
X217140000Y-88760000D01*
X155060000Y-44930000D02*
X161850000Y-37190000D01*
X161870000Y-40780000D02*
X170120000Y-34670000D01*
X150190000Y-101300000D02*
X141790000Y-95360000D01*
X214380000Y-86380000D02*
X213500000Y-96640000D01*
X211370000Y-93700000D02*
X208260000Y-103590000D01*
X206720000Y-100260000D02*
X201780000Y-109220000D01*
X200940000Y-105700000D02*
X194200000Y-113410000D01*
X194120000Y-109850000D02*
X185910000Y-115950000D01*
X186600000Y-112430000D02*
X177270000Y-116700000D01*
X178690000Y-113430000D02*
X168620000Y-115600000D01*
X170770000Y-112650000D02*
X160550000Y-112800000D01*
X163150000Y-110360000D02*
X153090000Y-108390000D01*
X156180000Y-106500000D02*
X146750000Y-102410000D01*
X145390000Y-94980000D02*
X138380000Y-87380000D01*
X142000000Y-87700000D02*
X136750000Y-78880000D01*
X140190000Y-80020000D02*
X136880000Y-70210000D01*
X140050000Y-72100000D02*
X138870000Y-61810000D01*
X141610000Y-64230000D02*
X142500000Y-53910000D01*
X192780000Y-40210000D02*
X202980000Y-42250000D01*
X199770000Y-44050000D02*
X209280000Y-48160000D01*
X205800000Y-49240000D02*
X214250000Y-55370000D01*
X210590000Y-55750000D02*
X217640000Y-63260000D01*
X213950000Y-62870000D02*
X219230000Y-71710000D01*
X215780000Y-70610000D02*
X219090000Y-80300000D01*
X144660000Y-56840000D02*
X147750000Y-47080000D01*
D14*
G36*
X186658305Y-33853338D02*
X187061874Y-33978263D01*
X186954733Y-33998701D01*
X186784722Y-34067390D01*
X186631291Y-34167793D01*
X186511335Y-34285263D01*
X177617291Y-36365898D01*
X177537825Y-36332493D01*
X177358207Y-36295623D01*
X177174849Y-36294343D01*
X176994733Y-36328701D01*
X176824722Y-36397390D01*
X176671291Y-36497793D01*
X176540283Y-36626086D01*
X176436689Y-36777381D01*
X176364454Y-36945916D01*
X176326331Y-37125272D01*
X176323771Y-37308617D01*
X176356872Y-37488968D01*
X176424372Y-37659454D01*
X176523701Y-37813583D01*
X176651076Y-37945484D01*
X176801644Y-38050131D01*
X176969671Y-38123540D01*
X177148757Y-38162915D01*
X177332079Y-38166755D01*
X177512657Y-38134914D01*
X177683610Y-38068606D01*
X177838429Y-37970355D01*
X177970886Y-37844218D01*
X186862437Y-35764166D01*
X186929671Y-35793540D01*
X187108757Y-35832915D01*
X187292079Y-35836755D01*
X187472657Y-35804914D01*
X187643610Y-35738606D01*
X187798429Y-35640355D01*
X187931215Y-35513904D01*
X188036911Y-35364070D01*
X188111492Y-35196560D01*
X188152116Y-35017754D01*
X188155040Y-34808319D01*
X188119425Y-34628448D01*
X188049550Y-34458920D01*
X187948079Y-34306193D01*
X187871223Y-34228799D01*
X194565674Y-36301077D01*
X195516903Y-36815404D01*
X195364849Y-36814343D01*
X195184733Y-36848701D01*
X195014722Y-36917390D01*
X194891469Y-36998045D01*
X185673745Y-37132154D01*
X185586860Y-37073549D01*
X185417825Y-37002493D01*
X185238207Y-36965623D01*
X185054849Y-36964343D01*
X184874733Y-36998701D01*
X184704722Y-37067390D01*
X184551291Y-37167793D01*
X184420283Y-37296086D01*
X184316689Y-37447381D01*
X184244454Y-37615916D01*
X184206331Y-37795272D01*
X184203771Y-37978617D01*
X184236872Y-38158968D01*
X184304372Y-38329454D01*
X184403701Y-38483583D01*
X184531076Y-38615484D01*
X184681644Y-38720131D01*
X184849671Y-38793540D01*
X185028757Y-38832915D01*
X185212079Y-38836755D01*
X185392657Y-38804914D01*
X185563610Y-38738606D01*
X185700189Y-38651931D01*
X194916413Y-38517844D01*
X194991644Y-38570131D01*
X195159671Y-38643540D01*
X195338757Y-38682915D01*
X195522079Y-38686755D01*
X195702657Y-38654914D01*
X195873610Y-38588606D01*
X196028429Y-38490355D01*
X196161215Y-38363904D01*
X196266911Y-38214070D01*
X196341492Y-38046560D01*
X196382116Y-37867754D01*
X196385040Y-37658319D01*
X196349425Y-37478448D01*
X196279550Y-37308920D01*
X196195403Y-37182268D01*
X201847013Y-40238082D01*
X203173076Y-41335097D01*
X203078207Y-41315623D01*
X202894849Y-41314343D01*
X202714733Y-41348701D01*
X202593555Y-41397660D01*
X193463931Y-39571736D01*
X193378875Y-39486084D01*
X193226860Y-39383549D01*
X193057825Y-39312493D01*
X192878207Y-39275623D01*
X192694849Y-39274343D01*
X192514733Y-39308701D01*
X192344722Y-39377390D01*
X192191291Y-39477793D01*
X192060283Y-39606086D01*
X191956689Y-39757381D01*
X191884454Y-39925916D01*
X191846331Y-40105272D01*
X191843771Y-40288617D01*
X191876872Y-40468968D01*
X191944372Y-40639454D01*
X192043701Y-40793583D01*
X192171076Y-40925484D01*
X192321644Y-41030131D01*
X192489671Y-41103540D01*
X192668757Y-41142915D01*
X192852079Y-41146755D01*
X193032657Y-41114914D01*
X193167605Y-41062572D01*
X202296611Y-42888373D01*
X202371076Y-42965484D01*
X202521644Y-43070131D01*
X202689671Y-43143540D01*
X202868757Y-43182915D01*
X203052079Y-43186755D01*
X203232657Y-43154914D01*
X203403610Y-43088606D01*
X203558429Y-42990355D01*
X203691215Y-42863904D01*
X203796911Y-42714070D01*
X203871492Y-42546560D01*
X203912116Y-42367754D01*
X203915040Y-42158319D01*
X203879425Y-41978448D01*
X203842519Y-41888908D01*
X208224978Y-45514394D01*
X209699141Y-47321897D01*
X209557825Y-47262493D01*
X209378207Y-47225623D01*
X209194849Y-47224343D01*
X209081004Y-47246059D01*
X200573131Y-43569156D01*
X200498079Y-43456193D01*
X200368875Y-43326084D01*
X200216860Y-43223549D01*
X200047825Y-43152493D01*
X199868207Y-43115623D01*
X199684849Y-43114343D01*
X199504733Y-43148701D01*
X199334722Y-43217390D01*
X199181291Y-43317793D01*
X199050283Y-43446086D01*
X198946689Y-43597381D01*
X198874454Y-43765916D01*
X198836331Y-43945272D01*
X198833771Y-44128617D01*
X198866872Y-44308968D01*
X198934372Y-44479454D01*
X199033701Y-44633583D01*
X199161076Y-44765484D01*
X199311644Y-44870131D01*
X199479671Y-44943540D01*
X199658757Y-44982915D01*
X199842079Y-44986755D01*
X199969713Y-44964249D01*
X208477730Y-48641216D01*
X208543701Y-48743583D01*
X208671076Y-48875484D01*
X208821644Y-48980131D01*
X208989671Y-49053540D01*
X209168757Y-49092915D01*
X209352079Y-49096755D01*
X209532657Y-49064914D01*
X209703610Y-48998606D01*
X209858429Y-48900355D01*
X209991215Y-48773904D01*
X210096911Y-48624070D01*
X210171492Y-48456560D01*
X210212116Y-48277754D01*
X210215040Y-48068319D01*
X210185265Y-47917944D01*
X213456635Y-51929040D01*
X214961750Y-54759750D01*
X214848875Y-54646084D01*
X214696860Y-54543549D01*
X214527825Y-54472493D01*
X214348207Y-54435623D01*
X214255370Y-54434975D01*
X206690672Y-48947212D01*
X206629550Y-48798920D01*
X206528079Y-48646193D01*
X206398875Y-48516084D01*
X206246860Y-48413549D01*
X206077825Y-48342493D01*
X205898207Y-48305623D01*
X205714849Y-48304343D01*
X205534733Y-48338701D01*
X205364722Y-48407390D01*
X205211291Y-48507793D01*
X205080283Y-48636086D01*
X204976689Y-48787381D01*
X204904454Y-48955916D01*
X204866331Y-49135272D01*
X204863771Y-49318617D01*
X204896872Y-49498968D01*
X204964372Y-49669454D01*
X205063701Y-49823583D01*
X205191076Y-49955484D01*
X205341644Y-50060131D01*
X205509671Y-50133540D01*
X205688757Y-50172915D01*
X205794783Y-50175136D01*
X213360639Y-55663739D01*
X213414372Y-55799454D01*
X213513701Y-55953583D01*
X213641076Y-56085484D01*
X213791644Y-56190131D01*
X213959671Y-56263540D01*
X214138757Y-56302915D01*
X214322079Y-56306755D01*
X214502657Y-56274914D01*
X214673610Y-56208606D01*
X214828429Y-56110355D01*
X214961215Y-55983904D01*
X215066911Y-55834070D01*
X215141492Y-55666560D01*
X215182116Y-55487754D01*
X215185040Y-55278319D01*
X215153926Y-55121180D01*
X217342712Y-59237687D01*
X218385968Y-62693118D01*
X218368079Y-62666193D01*
X218238875Y-62536084D01*
X218086860Y-62433549D01*
X217917825Y-62362493D01*
X217821265Y-62342672D01*
X211519347Y-55629564D01*
X211489425Y-55478448D01*
X211419550Y-55308920D01*
X211318079Y-55156193D01*
X211188875Y-55026084D01*
X211036860Y-54923549D01*
X210867825Y-54852493D01*
X210688207Y-54815623D01*
X210504849Y-54814343D01*
X210324733Y-54848701D01*
X210154722Y-54917390D01*
X210001291Y-55017793D01*
X209870283Y-55146086D01*
X209766689Y-55297381D01*
X209694454Y-55465916D01*
X209656331Y-55645272D01*
X209653771Y-55828617D01*
X209686872Y-56008968D01*
X209754372Y-56179454D01*
X209853701Y-56333583D01*
X209981076Y-56465484D01*
X210131644Y-56570131D01*
X210299671Y-56643540D01*
X210408961Y-56667569D01*
X216711639Y-63381486D01*
X216736872Y-63518968D01*
X216804372Y-63689454D01*
X216903701Y-63843583D01*
X217031076Y-63975484D01*
X217181644Y-64080131D01*
X217349671Y-64153540D01*
X217528757Y-64192915D01*
X217712079Y-64196755D01*
X217892657Y-64164914D01*
X218063610Y-64098606D01*
X218218429Y-64000355D01*
X218351215Y-63873904D01*
X218456911Y-63724070D01*
X218531492Y-63556560D01*
X218572116Y-63377754D01*
X218573025Y-63312679D01*
X219735188Y-67161951D01*
X220542936Y-75400000D01*
X220526400Y-76584239D01*
X219488947Y-84796522D01*
X216876145Y-92650895D01*
X212787514Y-99848187D01*
X207378790Y-106114255D01*
X200855988Y-111210426D01*
X193467560Y-114942590D01*
X185494929Y-117168588D01*
X177241770Y-117803634D01*
X169022444Y-116823539D01*
X168884189Y-116778617D01*
X176333771Y-116778617D01*
X176366872Y-116958968D01*
X176434372Y-117129454D01*
X176533701Y-117283583D01*
X176661076Y-117415484D01*
X176811644Y-117520131D01*
X176979671Y-117593540D01*
X177158757Y-117632915D01*
X177342079Y-117636755D01*
X177522657Y-117604914D01*
X177693610Y-117538606D01*
X177848429Y-117440355D01*
X177981215Y-117313904D01*
X178086911Y-117164070D01*
X178088101Y-117161398D01*
X180563239Y-116028617D01*
X184973771Y-116028617D01*
X185006872Y-116208968D01*
X185074372Y-116379454D01*
X185173701Y-116533583D01*
X185301076Y-116665484D01*
X185451644Y-116770131D01*
X185619671Y-116843540D01*
X185798757Y-116882915D01*
X185982079Y-116886755D01*
X186162657Y-116854914D01*
X186333610Y-116788606D01*
X186488429Y-116690355D01*
X186621215Y-116563904D01*
X186726911Y-116414070D01*
X186801492Y-116246560D01*
X186804805Y-116231980D01*
X190497101Y-113488617D01*
X193263771Y-113488617D01*
X193296872Y-113668968D01*
X193364372Y-113839454D01*
X193463701Y-113993583D01*
X193591076Y-114125484D01*
X193741644Y-114230131D01*
X193909671Y-114303540D01*
X194088757Y-114342915D01*
X194272079Y-114346755D01*
X194452657Y-114314914D01*
X194623610Y-114248606D01*
X194778429Y-114150355D01*
X194911215Y-114023904D01*
X195016911Y-113874070D01*
X195091492Y-113706560D01*
X195132116Y-113527754D01*
X195132531Y-113497998D01*
X198803585Y-109298617D01*
X200843771Y-109298617D01*
X200876872Y-109478968D01*
X200944372Y-109649454D01*
X201043701Y-109803583D01*
X201171076Y-109935484D01*
X201321644Y-110040131D01*
X201489671Y-110113540D01*
X201668757Y-110152915D01*
X201852079Y-110156755D01*
X202032657Y-110124914D01*
X202203610Y-110058606D01*
X202358429Y-109960355D01*
X202491215Y-109833904D01*
X202596911Y-109684070D01*
X202671492Y-109516560D01*
X202712116Y-109337754D01*
X202715040Y-109128319D01*
X202710644Y-109106118D01*
X205708552Y-103668617D01*
X207323771Y-103668617D01*
X207356872Y-103848968D01*
X207424372Y-104019454D01*
X207523701Y-104173583D01*
X207651076Y-104305484D01*
X207801644Y-104410131D01*
X207969671Y-104483540D01*
X208148757Y-104522915D01*
X208332079Y-104526755D01*
X208512657Y-104494914D01*
X208683610Y-104428606D01*
X208838429Y-104330355D01*
X208971215Y-104203904D01*
X209076911Y-104054070D01*
X209151492Y-103886560D01*
X209192116Y-103707754D01*
X209195040Y-103498319D01*
X209159425Y-103318448D01*
X209149588Y-103294581D01*
X211217458Y-96718617D01*
X212563771Y-96718617D01*
X212596872Y-96898968D01*
X212664372Y-97069454D01*
X212763701Y-97223583D01*
X212891076Y-97355484D01*
X213041644Y-97460131D01*
X213209671Y-97533540D01*
X213388757Y-97572915D01*
X213572079Y-97576755D01*
X213752657Y-97544914D01*
X213923610Y-97478606D01*
X214078429Y-97380355D01*
X214211215Y-97253904D01*
X214316911Y-97104070D01*
X214391492Y-96936560D01*
X214432116Y-96757754D01*
X214435040Y-96548319D01*
X214399425Y-96368448D01*
X214329550Y-96198920D01*
X214303929Y-96160358D01*
X215090040Y-86995023D01*
X215091215Y-86993904D01*
X215196911Y-86844070D01*
X215271492Y-86676560D01*
X215312116Y-86497754D01*
X215315040Y-86288319D01*
X215279425Y-86108448D01*
X215209550Y-85938920D01*
X215108079Y-85786193D01*
X214978875Y-85656084D01*
X214826860Y-85553549D01*
X214657825Y-85482493D01*
X214478207Y-85445623D01*
X214294849Y-85444343D01*
X214114733Y-85478701D01*
X213944722Y-85547390D01*
X213791291Y-85647793D01*
X213660283Y-85776086D01*
X213556689Y-85927381D01*
X213484454Y-86095916D01*
X213446331Y-86275272D01*
X213443771Y-86458617D01*
X213476872Y-86638968D01*
X213544372Y-86809454D01*
X213576146Y-86858758D01*
X212789807Y-96026759D01*
X212780283Y-96036086D01*
X212676689Y-96187381D01*
X212604454Y-96355916D01*
X212566331Y-96535272D01*
X212563771Y-96718617D01*
X211217458Y-96718617D01*
X211930251Y-94451891D01*
X211948429Y-94440355D01*
X212081215Y-94313904D01*
X212186911Y-94164070D01*
X212261492Y-93996560D01*
X212302116Y-93817754D01*
X212305040Y-93608319D01*
X212269425Y-93428448D01*
X212199550Y-93258920D01*
X212098079Y-93106193D01*
X211968875Y-92976084D01*
X211816860Y-92873549D01*
X211647825Y-92802493D01*
X211468207Y-92765623D01*
X211284849Y-92764343D01*
X211104733Y-92798701D01*
X210934722Y-92867390D01*
X210781291Y-92967793D01*
X210650283Y-93096086D01*
X210546689Y-93247381D01*
X210474454Y-93415916D01*
X210436331Y-93595272D01*
X210433771Y-93778617D01*
X210466872Y-93958968D01*
X210480807Y-93994164D01*
X207699328Y-102839446D01*
X207671291Y-102857793D01*
X207540283Y-102986086D01*
X207436689Y-103137381D01*
X207364454Y-103305916D01*
X207326331Y-103485272D01*
X207323771Y-103668617D01*
X205708552Y-103668617D01*
X207120575Y-101107541D01*
X207143610Y-101098606D01*
X207298429Y-101000355D01*
X207431215Y-100873904D01*
X207536911Y-100724070D01*
X207611492Y-100556560D01*
X207652116Y-100377754D01*
X207655040Y-100168319D01*
X207619425Y-99988448D01*
X207549550Y-99818920D01*
X207448079Y-99666193D01*
X207318875Y-99536084D01*
X207166860Y-99433549D01*
X206997825Y-99362493D01*
X206818207Y-99325623D01*
X206634849Y-99324343D01*
X206454733Y-99358701D01*
X206284722Y-99427390D01*
X206131291Y-99527793D01*
X206000283Y-99656086D01*
X205896689Y-99807381D01*
X205824454Y-99975916D01*
X205786331Y-100155272D01*
X205783771Y-100338617D01*
X205790022Y-100372673D01*
X201378781Y-108373629D01*
X201344722Y-108387390D01*
X201191291Y-108487793D01*
X201060283Y-108616086D01*
X200956689Y-108767381D01*
X200884454Y-108935916D01*
X200846331Y-109115272D01*
X200843771Y-109298617D01*
X198803585Y-109298617D01*
X201152148Y-106612057D01*
X201192657Y-106604914D01*
X201363610Y-106538606D01*
X201518429Y-106440355D01*
X201651215Y-106313904D01*
X201756911Y-106164070D01*
X201831492Y-105996560D01*
X201872116Y-105817754D01*
X201875040Y-105608319D01*
X201839425Y-105428448D01*
X201769550Y-105258920D01*
X201668079Y-105106193D01*
X201538875Y-104976084D01*
X201386860Y-104873549D01*
X201217825Y-104802493D01*
X201038207Y-104765623D01*
X200854849Y-104764343D01*
X200674733Y-104798701D01*
X200504722Y-104867390D01*
X200351291Y-104967793D01*
X200220283Y-105096086D01*
X200116689Y-105247381D01*
X200044454Y-105415916D01*
X200006331Y-105595272D01*
X200006075Y-105613597D01*
X193987196Y-112498693D01*
X193934733Y-112508701D01*
X193764722Y-112577390D01*
X193611291Y-112677793D01*
X193480283Y-112806086D01*
X193376689Y-112957381D01*
X193304454Y-113125916D01*
X193266331Y-113305272D01*
X193263771Y-113488617D01*
X190497101Y-113488617D01*
X194135147Y-110785562D01*
X194192079Y-110786755D01*
X194372657Y-110754914D01*
X194543610Y-110688606D01*
X194698429Y-110590355D01*
X194831215Y-110463904D01*
X194936911Y-110314070D01*
X195011492Y-110146560D01*
X195052116Y-109967754D01*
X195055040Y-109758319D01*
X195019425Y-109578448D01*
X194949550Y-109408920D01*
X194848079Y-109256193D01*
X194718875Y-109126084D01*
X194566860Y-109023549D01*
X194397825Y-108952493D01*
X194218207Y-108915623D01*
X194034849Y-108914343D01*
X193854733Y-108948701D01*
X193684722Y-109017390D01*
X193531291Y-109117793D01*
X193400283Y-109246086D01*
X193296689Y-109397381D01*
X193224454Y-109565916D01*
X193223784Y-109569070D01*
X185894328Y-115014828D01*
X185824849Y-115014343D01*
X185644733Y-115048701D01*
X185474722Y-115117390D01*
X185321291Y-115217793D01*
X185190283Y-115346086D01*
X185086689Y-115497381D01*
X185014454Y-115665916D01*
X184976331Y-115845272D01*
X184973771Y-116028617D01*
X180563239Y-116028617D01*
X186420581Y-113347925D01*
X186488757Y-113362915D01*
X186672079Y-113366755D01*
X186852657Y-113334914D01*
X187023610Y-113268606D01*
X187178429Y-113170355D01*
X187311215Y-113043904D01*
X187416911Y-112894070D01*
X187491492Y-112726560D01*
X187532116Y-112547754D01*
X187535040Y-112338319D01*
X187499425Y-112158448D01*
X187429550Y-111988920D01*
X187328079Y-111836193D01*
X187198875Y-111706084D01*
X187046860Y-111603549D01*
X186877825Y-111532493D01*
X186698207Y-111495623D01*
X186514849Y-111494343D01*
X186334733Y-111528701D01*
X186164722Y-111597390D01*
X186011291Y-111697793D01*
X185880283Y-111826086D01*
X185783065Y-111968069D01*
X177449088Y-115782225D01*
X177368207Y-115765623D01*
X177184849Y-115764343D01*
X177004733Y-115798701D01*
X176834722Y-115867390D01*
X176681291Y-115967793D01*
X176550283Y-116096086D01*
X176446689Y-116247381D01*
X176374454Y-116415916D01*
X176336331Y-116595272D01*
X176333771Y-116778617D01*
X168884189Y-116778617D01*
X165498737Y-115678617D01*
X167683771Y-115678617D01*
X167716872Y-115858968D01*
X167784372Y-116029454D01*
X167883701Y-116183583D01*
X168011076Y-116315484D01*
X168161644Y-116420131D01*
X168329671Y-116493540D01*
X168508757Y-116532915D01*
X168692079Y-116536755D01*
X168872657Y-116504914D01*
X169043610Y-116438606D01*
X169198429Y-116340355D01*
X169317261Y-116227192D01*
X178317616Y-114287691D01*
X178399671Y-114323540D01*
X178578757Y-114362915D01*
X178762079Y-114366755D01*
X178942657Y-114334914D01*
X179113610Y-114268606D01*
X179268429Y-114170355D01*
X179401215Y-114043904D01*
X179506911Y-113894070D01*
X179581492Y-113726560D01*
X179622116Y-113547754D01*
X179625040Y-113338319D01*
X179589425Y-113158448D01*
X179519550Y-112988920D01*
X179418079Y-112836193D01*
X179288875Y-112706084D01*
X179136860Y-112603549D01*
X178967825Y-112532493D01*
X178788207Y-112495623D01*
X178604849Y-112494343D01*
X178424733Y-112528701D01*
X178254722Y-112597390D01*
X178101291Y-112697793D01*
X177994425Y-112802445D01*
X168992488Y-114742286D01*
X168897825Y-114702493D01*
X168718207Y-114665623D01*
X168534849Y-114664343D01*
X168354733Y-114698701D01*
X168184722Y-114767390D01*
X168031291Y-114867793D01*
X167900283Y-114996086D01*
X167796689Y-115147381D01*
X167724454Y-115315916D01*
X167686331Y-115495272D01*
X167683771Y-115678617D01*
X165498737Y-115678617D01*
X161150022Y-114265634D01*
X158668248Y-112878617D01*
X159613771Y-112878617D01*
X159646872Y-113058968D01*
X159714372Y-113229454D01*
X159813701Y-113383583D01*
X159941076Y-113515484D01*
X160091644Y-113620131D01*
X160259671Y-113693540D01*
X160438757Y-113732915D01*
X160622079Y-113736755D01*
X160802657Y-113704914D01*
X160973610Y-113638606D01*
X161110303Y-113551858D01*
X170236510Y-113417912D01*
X170311644Y-113470131D01*
X170479671Y-113543540D01*
X170658757Y-113582915D01*
X170842079Y-113586755D01*
X171022657Y-113554914D01*
X171193610Y-113488606D01*
X171348429Y-113390355D01*
X171481215Y-113263904D01*
X171586911Y-113114070D01*
X171661492Y-112946560D01*
X171702116Y-112767754D01*
X171705040Y-112558319D01*
X171669425Y-112378448D01*
X171599550Y-112208920D01*
X171498079Y-112056193D01*
X171368875Y-111926084D01*
X171216860Y-111823549D01*
X171047825Y-111752493D01*
X170868207Y-111715623D01*
X170684849Y-111714343D01*
X170504733Y-111748701D01*
X170334722Y-111817390D01*
X170211358Y-111898118D01*
X161083645Y-112032086D01*
X160996860Y-111973549D01*
X160827825Y-111902493D01*
X160648207Y-111865623D01*
X160464849Y-111864343D01*
X160284733Y-111898701D01*
X160114722Y-111967390D01*
X159961291Y-112067793D01*
X159830283Y-112196086D01*
X159726689Y-112347381D01*
X159654454Y-112515916D01*
X159616331Y-112695272D01*
X159613771Y-112878617D01*
X158668248Y-112878617D01*
X153924362Y-110227349D01*
X152820866Y-109288200D01*
X152978757Y-109322915D01*
X153162079Y-109326755D01*
X153342657Y-109294914D01*
X153481432Y-109241087D01*
X162469275Y-111001132D01*
X162541076Y-111075484D01*
X162691644Y-111180131D01*
X162859671Y-111253540D01*
X163038757Y-111292915D01*
X163222079Y-111296755D01*
X163402657Y-111264914D01*
X163573610Y-111198606D01*
X163728429Y-111100355D01*
X163861215Y-110973904D01*
X163966911Y-110824070D01*
X164041492Y-110656560D01*
X164082116Y-110477754D01*
X164085040Y-110268319D01*
X164049425Y-110088448D01*
X163979550Y-109918920D01*
X163878079Y-109766193D01*
X163748875Y-109636084D01*
X163596860Y-109533549D01*
X163427825Y-109462493D01*
X163248207Y-109425623D01*
X163064849Y-109424343D01*
X162884733Y-109458701D01*
X162759838Y-109509162D01*
X153771170Y-107748955D01*
X153688875Y-107666084D01*
X153536860Y-107563549D01*
X153367825Y-107492493D01*
X153188207Y-107455623D01*
X153004849Y-107454343D01*
X152824733Y-107488701D01*
X152654722Y-107557390D01*
X152501291Y-107657793D01*
X152370283Y-107786086D01*
X152266689Y-107937381D01*
X152194454Y-108105916D01*
X152156331Y-108285272D01*
X152153771Y-108468617D01*
X152186872Y-108648968D01*
X152246384Y-108799277D01*
X147620687Y-104862501D01*
X146345554Y-103253684D01*
X146459671Y-103303540D01*
X146638757Y-103342915D01*
X146822079Y-103346755D01*
X146948442Y-103324474D01*
X155377039Y-106980143D01*
X155443701Y-107083583D01*
X155571076Y-107215484D01*
X155721644Y-107320131D01*
X155889671Y-107393540D01*
X156068757Y-107432915D01*
X156252079Y-107436755D01*
X156432657Y-107404914D01*
X156603610Y-107338606D01*
X156758429Y-107240355D01*
X156891215Y-107113904D01*
X156996911Y-106964070D01*
X157071492Y-106796560D01*
X157112116Y-106617754D01*
X157115040Y-106408319D01*
X157079425Y-106228448D01*
X157009550Y-106058920D01*
X156908079Y-105906193D01*
X156778875Y-105776084D01*
X156626860Y-105673549D01*
X156457825Y-105602493D01*
X156278207Y-105565623D01*
X156094849Y-105564343D01*
X155982242Y-105585823D01*
X147553854Y-101930244D01*
X147478079Y-101816193D01*
X147348875Y-101686084D01*
X147196860Y-101583549D01*
X147027825Y-101512493D01*
X146848207Y-101475623D01*
X146664849Y-101474343D01*
X146484733Y-101508701D01*
X146314722Y-101577390D01*
X146161291Y-101677793D01*
X146030283Y-101806086D01*
X145926689Y-101957381D01*
X145854454Y-102125916D01*
X145816331Y-102305272D01*
X145813771Y-102488617D01*
X145836252Y-102611105D01*
X142479102Y-98375436D01*
X141356435Y-96190962D01*
X141499671Y-96253540D01*
X141678757Y-96292915D01*
X141796446Y-96295380D01*
X149305135Y-101605096D01*
X149354372Y-101729454D01*
X149453701Y-101883583D01*
X149581076Y-102015484D01*
X149731644Y-102120131D01*
X149899671Y-102193540D01*
X150078757Y-102232915D01*
X150262079Y-102236755D01*
X150442657Y-102204914D01*
X150613610Y-102138606D01*
X150768429Y-102040355D01*
X150901215Y-101913904D01*
X151006911Y-101764070D01*
X151081492Y-101596560D01*
X151122116Y-101417754D01*
X151125040Y-101208319D01*
X151089425Y-101028448D01*
X151019550Y-100858920D01*
X150918079Y-100706193D01*
X150788875Y-100576084D01*
X150636860Y-100473549D01*
X150467825Y-100402493D01*
X150288207Y-100365623D01*
X150183943Y-100364895D01*
X142675901Y-95055637D01*
X142619550Y-94918920D01*
X142518079Y-94766193D01*
X142388875Y-94636084D01*
X142236860Y-94533549D01*
X142067825Y-94462493D01*
X141888207Y-94425623D01*
X141704849Y-94424343D01*
X141524733Y-94458701D01*
X141354722Y-94527390D01*
X141201291Y-94627793D01*
X141070283Y-94756086D01*
X140966689Y-94907381D01*
X140894454Y-95075916D01*
X140861956Y-95228809D01*
X138695449Y-91013243D01*
X137880628Y-88171624D01*
X137921644Y-88200131D01*
X138089671Y-88273540D01*
X138190746Y-88295763D01*
X144460027Y-95092701D01*
X144486872Y-95238968D01*
X144554372Y-95409454D01*
X144653701Y-95563583D01*
X144781076Y-95695484D01*
X144931644Y-95800131D01*
X145099671Y-95873540D01*
X145278757Y-95912915D01*
X145462079Y-95916755D01*
X145642657Y-95884914D01*
X145813610Y-95818606D01*
X145968429Y-95720355D01*
X146101215Y-95593904D01*
X146206911Y-95444070D01*
X146281492Y-95276560D01*
X146322116Y-95097754D01*
X146325040Y-94888319D01*
X146289425Y-94708448D01*
X146219550Y-94538920D01*
X146118079Y-94386193D01*
X145988875Y-94256084D01*
X145836860Y-94153549D01*
X145667825Y-94082493D01*
X145579340Y-94064330D01*
X139311125Y-87268548D01*
X139279425Y-87108448D01*
X139209550Y-86938920D01*
X139108079Y-86786193D01*
X138978875Y-86656084D01*
X138826860Y-86553549D01*
X138657825Y-86482493D01*
X138478207Y-86445623D01*
X138294849Y-86444343D01*
X138114733Y-86478701D01*
X137944722Y-86547390D01*
X137791291Y-86647793D01*
X137660283Y-86776086D01*
X137556689Y-86927381D01*
X137537012Y-86973291D01*
X136413846Y-83056347D01*
X136121529Y-79575243D01*
X136141076Y-79595484D01*
X136291644Y-79700131D01*
X136375543Y-79736785D01*
X141066030Y-87616803D01*
X141063771Y-87778617D01*
X141096872Y-87958968D01*
X141164372Y-88129454D01*
X141263701Y-88283583D01*
X141391076Y-88415484D01*
X141541644Y-88520131D01*
X141709671Y-88593540D01*
X141888757Y-88632915D01*
X142072079Y-88636755D01*
X142252657Y-88604914D01*
X142423610Y-88538606D01*
X142578429Y-88440355D01*
X142711215Y-88313904D01*
X142816911Y-88164070D01*
X142891492Y-87996560D01*
X142932116Y-87817754D01*
X142935040Y-87608319D01*
X142899425Y-87428448D01*
X142829550Y-87258920D01*
X142728079Y-87106193D01*
X142598875Y-86976084D01*
X142446860Y-86873549D01*
X142374377Y-86843080D01*
X140566333Y-83805565D01*
X141714040Y-83805565D01*
X141781020Y-84045656D01*
X142030048Y-84162756D01*
X142297135Y-84229023D01*
X142572017Y-84241910D01*
X142844133Y-84200922D01*
X143103023Y-84107636D01*
X143218980Y-84045656D01*
X143285960Y-83805565D01*
X142500000Y-83019605D01*
X141714040Y-83805565D01*
X140566333Y-83805565D01*
X140034459Y-82912017D01*
X141098090Y-82912017D01*
X141139078Y-83184133D01*
X141232364Y-83443023D01*
X141294344Y-83558980D01*
X141534435Y-83625960D01*
X142320395Y-82840000D01*
X142679605Y-82840000D01*
X143465565Y-83625960D01*
X143705656Y-83558980D01*
X143822756Y-83309952D01*
X143889023Y-83042865D01*
X143901910Y-82767983D01*
X143860922Y-82495867D01*
X143767636Y-82236977D01*
X143705656Y-82121020D01*
X143465565Y-82054040D01*
X142679605Y-82840000D01*
X142320395Y-82840000D01*
X141534435Y-82054040D01*
X141294344Y-82121020D01*
X141177244Y-82370048D01*
X141110977Y-82637135D01*
X141098090Y-82912017D01*
X140034459Y-82912017D01*
X139416851Y-81874435D01*
X141714040Y-81874435D01*
X142500000Y-82660395D01*
X143285960Y-81874435D01*
X143218980Y-81634344D01*
X142969952Y-81517244D01*
X142702865Y-81450977D01*
X142427983Y-81438090D01*
X142155867Y-81479078D01*
X141896977Y-81572364D01*
X141781020Y-81634344D01*
X141714040Y-81874435D01*
X139416851Y-81874435D01*
X137682630Y-78960944D01*
X137685040Y-78788319D01*
X137649425Y-78608448D01*
X137579550Y-78438920D01*
X137478079Y-78286193D01*
X137348875Y-78156084D01*
X137196860Y-78053549D01*
X137027825Y-77982493D01*
X136848207Y-77945623D01*
X136664849Y-77944343D01*
X136484733Y-77978701D01*
X136314722Y-78047390D01*
X136161291Y-78147793D01*
X136030283Y-78276086D01*
X136014386Y-78299303D01*
X135721198Y-74807823D01*
X136168578Y-70819344D01*
X136271076Y-70925484D01*
X136334094Y-70969283D01*
X139293526Y-79740284D01*
X139256331Y-79915272D01*
X139253771Y-80098617D01*
X139286872Y-80278968D01*
X139354372Y-80449454D01*
X139453701Y-80603583D01*
X139581076Y-80735484D01*
X139731644Y-80840131D01*
X139899671Y-80913540D01*
X140078757Y-80952915D01*
X140262079Y-80956755D01*
X140442657Y-80924914D01*
X140613610Y-80858606D01*
X140768429Y-80760355D01*
X140901215Y-80633904D01*
X141006911Y-80484070D01*
X141081492Y-80316560D01*
X141122116Y-80137754D01*
X141125040Y-79928319D01*
X141089425Y-79748448D01*
X141019550Y-79578920D01*
X140918079Y-79426193D01*
X140788875Y-79296084D01*
X140735748Y-79260250D01*
X139469518Y-75507464D01*
X140411164Y-75507464D01*
X140460620Y-75776928D01*
X140561474Y-76031655D01*
X140709883Y-76261942D01*
X140900196Y-76459016D01*
X141125163Y-76615372D01*
X141376215Y-76725054D01*
X141643789Y-76783884D01*
X141917695Y-76789622D01*
X142187499Y-76742048D01*
X142442923Y-76642975D01*
X142674240Y-76496177D01*
X142872639Y-76307245D01*
X143030561Y-76083375D01*
X143109428Y-75906237D01*
X143438113Y-75906237D01*
X144195734Y-82660583D01*
X146250853Y-89139138D01*
X149525190Y-95095135D01*
X153894027Y-100301713D01*
X159190956Y-104560553D01*
X165214220Y-107709439D01*
X171734393Y-109628431D01*
X178503124Y-110244433D01*
X185262595Y-109533984D01*
X191755340Y-107524144D01*
X197734051Y-104291467D01*
X202971001Y-99959085D01*
X207266717Y-94692017D01*
X210457576Y-88690883D01*
X212422040Y-82184266D01*
X212771654Y-78618617D01*
X214963771Y-78618617D01*
X214996872Y-78798968D01*
X215064372Y-78969454D01*
X215163701Y-79123583D01*
X215211201Y-79172771D01*
X216319085Y-88303881D01*
X216316689Y-88307381D01*
X216244454Y-88475916D01*
X216206331Y-88655272D01*
X216203771Y-88838617D01*
X216236872Y-89018968D01*
X216304372Y-89189454D01*
X216403701Y-89343583D01*
X216531076Y-89475484D01*
X216681644Y-89580131D01*
X216849671Y-89653540D01*
X217028757Y-89692915D01*
X217212079Y-89696755D01*
X217392657Y-89664914D01*
X217563610Y-89598606D01*
X217718429Y-89500355D01*
X217851215Y-89373904D01*
X217956911Y-89224070D01*
X218031492Y-89056560D01*
X218072116Y-88877754D01*
X218075040Y-88668319D01*
X218039425Y-88488448D01*
X217969550Y-88318920D01*
X217868079Y-88166193D01*
X217828717Y-88126556D01*
X216720816Y-78995300D01*
X216791492Y-78836560D01*
X216832116Y-78657754D01*
X216835040Y-78448319D01*
X216799425Y-78268448D01*
X216729550Y-78098920D01*
X216628079Y-77946193D01*
X216498875Y-77816084D01*
X216346860Y-77713549D01*
X216177825Y-77642493D01*
X215998207Y-77605623D01*
X215814849Y-77604343D01*
X215634733Y-77638701D01*
X215464722Y-77707390D01*
X215311291Y-77807793D01*
X215180283Y-77936086D01*
X215076689Y-78087381D01*
X215004454Y-78255916D01*
X214966331Y-78435272D01*
X214963771Y-78618617D01*
X212771654Y-78618617D01*
X213085282Y-75420000D01*
X213071704Y-74447621D01*
X212596832Y-70688617D01*
X214843771Y-70688617D01*
X214876872Y-70868968D01*
X214944372Y-71039454D01*
X215043701Y-71193583D01*
X215171076Y-71325484D01*
X215236917Y-71371244D01*
X218192686Y-80024236D01*
X218156331Y-80195272D01*
X218153771Y-80378617D01*
X218186872Y-80558968D01*
X218254372Y-80729454D01*
X218353701Y-80883583D01*
X218481076Y-81015484D01*
X218631644Y-81120131D01*
X218799671Y-81193540D01*
X218978757Y-81232915D01*
X219162079Y-81236755D01*
X219342657Y-81204914D01*
X219513610Y-81138606D01*
X219668429Y-81040355D01*
X219801215Y-80913904D01*
X219906911Y-80764070D01*
X219981492Y-80596560D01*
X220022116Y-80417754D01*
X220025040Y-80208319D01*
X219989425Y-80028448D01*
X219919550Y-79858920D01*
X219818079Y-79706193D01*
X219688875Y-79576084D01*
X219632949Y-79538362D01*
X216676655Y-70883834D01*
X216712116Y-70727754D01*
X216715040Y-70518319D01*
X216679425Y-70338448D01*
X216609550Y-70168920D01*
X216508079Y-70016193D01*
X216378875Y-69886084D01*
X216226860Y-69783549D01*
X216057825Y-69712493D01*
X215878207Y-69675623D01*
X215694849Y-69674343D01*
X215514733Y-69708701D01*
X215344722Y-69777390D01*
X215191291Y-69877793D01*
X215060283Y-70006086D01*
X214956689Y-70157381D01*
X214884454Y-70325916D01*
X214846331Y-70505272D01*
X214843771Y-70688617D01*
X212596832Y-70688617D01*
X212357684Y-68795565D01*
X212814040Y-68795565D01*
X212881020Y-69035656D01*
X213130048Y-69152756D01*
X213397135Y-69219023D01*
X213672017Y-69231910D01*
X213944133Y-69190922D01*
X214203023Y-69097636D01*
X214318980Y-69035656D01*
X214385960Y-68795565D01*
X213600000Y-68009605D01*
X212814040Y-68795565D01*
X212357684Y-68795565D01*
X212300827Y-68345500D01*
X212332364Y-68433023D01*
X212394344Y-68548980D01*
X212634435Y-68615960D01*
X213420395Y-67830000D01*
X213779605Y-67830000D01*
X214565565Y-68615960D01*
X214805656Y-68548980D01*
X214922756Y-68299952D01*
X214989023Y-68032865D01*
X215001910Y-67757983D01*
X214960922Y-67485867D01*
X214867636Y-67226977D01*
X214805656Y-67111020D01*
X214565565Y-67044040D01*
X213779605Y-67830000D01*
X213420395Y-67830000D01*
X212634435Y-67044040D01*
X212394344Y-67111020D01*
X212277244Y-67360048D01*
X212210977Y-67627135D01*
X212208894Y-67671572D01*
X211940396Y-66864435D01*
X212814040Y-66864435D01*
X213600000Y-67650395D01*
X214385960Y-66864435D01*
X214318980Y-66624344D01*
X214069952Y-66507244D01*
X213802865Y-66440977D01*
X213527983Y-66428090D01*
X213255867Y-66469078D01*
X212996977Y-66562364D01*
X212881020Y-66624344D01*
X212814040Y-66864435D01*
X211940396Y-66864435D01*
X210637777Y-62948617D01*
X213013771Y-62948617D01*
X213046872Y-63128968D01*
X213114372Y-63299454D01*
X213213701Y-63453583D01*
X213341076Y-63585484D01*
X213491644Y-63690131D01*
X213576838Y-63727351D01*
X218296008Y-71628387D01*
X218293771Y-71788617D01*
X218326872Y-71968968D01*
X218394372Y-72139454D01*
X218493701Y-72293583D01*
X218621076Y-72425484D01*
X218771644Y-72530131D01*
X218939671Y-72603540D01*
X219118757Y-72642915D01*
X219302079Y-72646755D01*
X219482657Y-72614914D01*
X219653610Y-72548606D01*
X219808429Y-72450355D01*
X219941215Y-72323904D01*
X220046911Y-72174070D01*
X220121492Y-72006560D01*
X220162116Y-71827754D01*
X220165040Y-71618319D01*
X220129425Y-71438448D01*
X220059550Y-71268920D01*
X219958079Y-71116193D01*
X219828875Y-70986084D01*
X219676860Y-70883549D01*
X219603098Y-70852542D01*
X214882652Y-62949371D01*
X214885040Y-62778319D01*
X214849425Y-62598448D01*
X214779550Y-62428920D01*
X214678079Y-62276193D01*
X214548875Y-62146084D01*
X214396860Y-62043549D01*
X214227825Y-61972493D01*
X214048207Y-61935623D01*
X213864849Y-61934343D01*
X213684733Y-61968701D01*
X213514722Y-62037390D01*
X213361291Y-62137793D01*
X213230283Y-62266086D01*
X213126689Y-62417381D01*
X213054454Y-62585916D01*
X213016331Y-62765272D01*
X213013771Y-62948617D01*
X210637777Y-62948617D01*
X210160385Y-61513527D01*
X210320196Y-61679016D01*
X210545163Y-61835372D01*
X210796215Y-61945054D01*
X211063789Y-62003884D01*
X211337695Y-62009622D01*
X211607499Y-61962048D01*
X211862923Y-61862975D01*
X212094240Y-61716177D01*
X212292639Y-61527245D01*
X212450561Y-61303375D01*
X212561993Y-61053095D01*
X212622690Y-60785938D01*
X212627059Y-60473017D01*
X212573846Y-60204269D01*
X212469446Y-59950975D01*
X212317835Y-59722783D01*
X212124790Y-59528385D01*
X211897662Y-59375185D01*
X211645103Y-59269019D01*
X211376733Y-59213931D01*
X211102774Y-59212018D01*
X210833661Y-59263354D01*
X210579644Y-59365984D01*
X210350399Y-59515997D01*
X210154658Y-59707681D01*
X209999877Y-59933734D01*
X209891950Y-60185546D01*
X209834989Y-60453524D01*
X209831164Y-60727464D01*
X209858144Y-60874465D01*
X206717302Y-55345582D01*
X202276195Y-50200511D01*
X196920319Y-46016042D01*
X190853678Y-42951561D01*
X184307347Y-41123792D01*
X177530674Y-40602356D01*
X170781782Y-41407112D01*
X164317732Y-43507410D01*
X158384739Y-46823247D01*
X153208789Y-51228326D01*
X148987031Y-56554859D01*
X145880272Y-62599959D01*
X144006846Y-69133370D01*
X143438113Y-75906237D01*
X143109428Y-75906237D01*
X143141993Y-75833095D01*
X143202690Y-75565938D01*
X143207059Y-75253017D01*
X143153846Y-74984269D01*
X143049446Y-74730975D01*
X142897835Y-74502783D01*
X142704790Y-74308385D01*
X142477662Y-74155185D01*
X142225103Y-74049019D01*
X141956733Y-73993931D01*
X141682774Y-73992018D01*
X141413661Y-74043354D01*
X141159644Y-74145984D01*
X140930399Y-74295997D01*
X140734658Y-74487681D01*
X140579877Y-74713734D01*
X140471950Y-74965546D01*
X140414989Y-75233524D01*
X140411164Y-75507464D01*
X139469518Y-75507464D01*
X137775784Y-70487668D01*
X137812116Y-70327754D01*
X137815040Y-70118319D01*
X137779425Y-69938448D01*
X137709550Y-69768920D01*
X137608079Y-69616193D01*
X137478875Y-69486084D01*
X137326860Y-69383549D01*
X137157825Y-69312493D01*
X136978207Y-69275623D01*
X136794849Y-69274343D01*
X136614733Y-69308701D01*
X136444722Y-69377390D01*
X136321256Y-69458184D01*
X136643888Y-66581855D01*
X138027159Y-62221235D01*
X138034372Y-62239454D01*
X138133701Y-62393583D01*
X138177094Y-62438518D01*
X139232193Y-71639342D01*
X139226689Y-71647381D01*
X139154454Y-71815916D01*
X139116331Y-71995272D01*
X139113771Y-72178617D01*
X139146872Y-72358968D01*
X139214372Y-72529454D01*
X139313701Y-72683583D01*
X139441076Y-72815484D01*
X139591644Y-72920131D01*
X139759671Y-72993540D01*
X139938757Y-73032915D01*
X140122079Y-73036755D01*
X140302657Y-73004914D01*
X140473610Y-72938606D01*
X140628429Y-72840355D01*
X140761215Y-72713904D01*
X140866911Y-72564070D01*
X140941492Y-72396560D01*
X140982116Y-72217754D01*
X140985040Y-72008319D01*
X140949425Y-71828448D01*
X140879550Y-71658920D01*
X140778079Y-71506193D01*
X140742814Y-71470681D01*
X139687934Y-62271771D01*
X139761492Y-62106560D01*
X139802116Y-61927754D01*
X139805040Y-61718319D01*
X139769425Y-61538448D01*
X139699550Y-61368920D01*
X139598079Y-61216193D01*
X139468875Y-61086084D01*
X139316860Y-60983549D01*
X139147825Y-60912493D01*
X138968207Y-60875623D01*
X138784849Y-60874343D01*
X138604733Y-60908701D01*
X138434722Y-60977390D01*
X138418326Y-60988119D01*
X139146772Y-58691767D01*
X141612082Y-54207384D01*
X141664372Y-54339454D01*
X141695921Y-54388409D01*
X140900089Y-63616483D01*
X140890283Y-63626086D01*
X140786689Y-63777381D01*
X140714454Y-63945916D01*
X140676331Y-64125272D01*
X140673771Y-64308617D01*
X140706872Y-64488968D01*
X140774372Y-64659454D01*
X140873701Y-64813583D01*
X141001076Y-64945484D01*
X141151644Y-65050131D01*
X141319671Y-65123540D01*
X141498757Y-65162915D01*
X141682079Y-65166755D01*
X141862657Y-65134914D01*
X142033610Y-65068606D01*
X142188429Y-64970355D01*
X142321215Y-64843904D01*
X142426911Y-64694070D01*
X142501492Y-64526560D01*
X142542116Y-64347754D01*
X142545040Y-64138319D01*
X142509425Y-63958448D01*
X142439550Y-63788920D01*
X142414156Y-63750698D01*
X143209758Y-54525292D01*
X143211215Y-54523904D01*
X143316911Y-54374070D01*
X143391492Y-54206560D01*
X143432116Y-54027754D01*
X143435040Y-53818319D01*
X143399425Y-53638448D01*
X143329550Y-53468920D01*
X143228079Y-53316193D01*
X143098875Y-53186084D01*
X142946860Y-53083549D01*
X142777825Y-53012493D01*
X142598207Y-52975623D01*
X142414849Y-52974343D01*
X142275320Y-53000959D01*
X143134514Y-51438091D01*
X146815266Y-47051542D01*
X146813771Y-47158617D01*
X146846872Y-47338968D01*
X146860186Y-47372594D01*
X144100737Y-56088524D01*
X144071291Y-56107793D01*
X143940283Y-56236086D01*
X143836689Y-56387381D01*
X143764454Y-56555916D01*
X143726331Y-56735272D01*
X143723771Y-56918617D01*
X143756872Y-57098968D01*
X143824372Y-57269454D01*
X143923701Y-57423583D01*
X144051076Y-57555484D01*
X144201644Y-57660131D01*
X144369671Y-57733540D01*
X144548757Y-57772915D01*
X144732079Y-57776755D01*
X144912657Y-57744914D01*
X145083610Y-57678606D01*
X145238429Y-57580355D01*
X145371215Y-57453904D01*
X145476911Y-57304070D01*
X145551492Y-57136560D01*
X145592116Y-56957754D01*
X145595040Y-56748319D01*
X145559425Y-56568448D01*
X145550222Y-56546119D01*
X148308850Y-47832780D01*
X148328429Y-47820355D01*
X148461215Y-47693904D01*
X148566911Y-47544070D01*
X148641492Y-47376560D01*
X148682116Y-47197754D01*
X148685040Y-46988319D01*
X148649425Y-46808448D01*
X148579550Y-46638920D01*
X148478079Y-46486193D01*
X148348875Y-46356084D01*
X148196860Y-46253549D01*
X148027825Y-46182493D01*
X147848207Y-46145623D01*
X147664849Y-46144343D01*
X147559659Y-46164408D01*
X148455224Y-45097116D01*
X153365215Y-41149382D01*
X153336331Y-41285272D01*
X153333771Y-41468617D01*
X153338992Y-41497061D01*
X148834121Y-49541472D01*
X148794722Y-49557390D01*
X148641291Y-49657793D01*
X148510283Y-49786086D01*
X148406689Y-49937381D01*
X148334454Y-50105916D01*
X148296331Y-50285272D01*
X148293771Y-50468617D01*
X148326872Y-50648968D01*
X148394372Y-50819454D01*
X148493701Y-50973583D01*
X148621076Y-51105484D01*
X148771644Y-51210131D01*
X148939671Y-51283540D01*
X149118757Y-51322915D01*
X149302079Y-51326755D01*
X149482657Y-51294914D01*
X149653610Y-51228606D01*
X149808429Y-51130355D01*
X149941215Y-51003904D01*
X150046911Y-50854070D01*
X150121492Y-50686560D01*
X150162116Y-50507754D01*
X150165040Y-50298319D01*
X150161737Y-50281639D01*
X154665283Y-42239593D01*
X154693610Y-42228606D01*
X154848429Y-42130355D01*
X154981215Y-42003904D01*
X155086911Y-41854070D01*
X155161492Y-41686560D01*
X155202116Y-41507754D01*
X155205040Y-41298319D01*
X155169425Y-41118448D01*
X155099550Y-40948920D01*
X154998079Y-40796193D01*
X154868875Y-40666084D01*
X154716860Y-40563549D01*
X154547825Y-40492493D01*
X154368207Y-40455623D01*
X154229283Y-40454653D01*
X154906236Y-39910369D01*
X161055171Y-36695784D01*
X161026689Y-36737381D01*
X160954454Y-36905916D01*
X160916331Y-37085272D01*
X160916096Y-37102122D01*
X154848710Y-44018405D01*
X154794733Y-44028701D01*
X154624722Y-44097390D01*
X154471291Y-44197793D01*
X154340283Y-44326086D01*
X154236689Y-44477381D01*
X154164454Y-44645916D01*
X154126331Y-44825272D01*
X154123771Y-45008617D01*
X154156872Y-45188968D01*
X154224372Y-45359454D01*
X154323701Y-45513583D01*
X154451076Y-45645484D01*
X154601644Y-45750131D01*
X154769671Y-45823540D01*
X154948757Y-45862915D01*
X155132079Y-45866755D01*
X155312657Y-45834914D01*
X155483610Y-45768606D01*
X155638429Y-45670355D01*
X155771215Y-45543904D01*
X155876911Y-45394070D01*
X155951492Y-45226560D01*
X155992116Y-45047754D01*
X155992511Y-45019467D01*
X162060653Y-38102321D01*
X162102657Y-38094914D01*
X162273610Y-38028606D01*
X162428429Y-37930355D01*
X162561215Y-37803904D01*
X162666911Y-37654070D01*
X162741492Y-37486560D01*
X162782116Y-37307754D01*
X162785040Y-37098319D01*
X162749425Y-36918448D01*
X162679550Y-36748920D01*
X162578079Y-36596193D01*
X162448875Y-36466084D01*
X162296860Y-36363549D01*
X162127825Y-36292493D01*
X161948207Y-36255623D01*
X161897794Y-36255271D01*
X162241835Y-36075411D01*
X169552914Y-33923643D01*
X169531291Y-33937793D01*
X169400283Y-34066086D01*
X169296689Y-34217381D01*
X169224454Y-34385916D01*
X169224051Y-34387811D01*
X161855726Y-39844838D01*
X161784849Y-39844343D01*
X161604733Y-39878701D01*
X161434722Y-39947390D01*
X161281291Y-40047793D01*
X161150283Y-40176086D01*
X161046689Y-40327381D01*
X160974454Y-40495916D01*
X160936331Y-40675272D01*
X160933771Y-40858617D01*
X160966872Y-41038968D01*
X161034372Y-41209454D01*
X161133701Y-41363583D01*
X161261076Y-41495484D01*
X161411644Y-41600131D01*
X161579671Y-41673540D01*
X161758757Y-41712915D01*
X161942079Y-41716755D01*
X162122657Y-41684914D01*
X162293610Y-41618606D01*
X162448429Y-41520355D01*
X162581215Y-41393904D01*
X162686911Y-41244070D01*
X162761492Y-41076560D01*
X162764516Y-41063250D01*
X163096387Y-40817464D01*
X165431164Y-40817464D01*
X165480620Y-41086928D01*
X165581474Y-41341655D01*
X165729883Y-41571942D01*
X165920196Y-41769016D01*
X166145163Y-41925372D01*
X166396215Y-42035054D01*
X166663789Y-42093884D01*
X166937695Y-42099622D01*
X167207499Y-42052048D01*
X167462923Y-41952975D01*
X167694240Y-41806177D01*
X167892639Y-41617245D01*
X168050561Y-41393375D01*
X168161993Y-41143095D01*
X168222690Y-40875938D01*
X168227059Y-40563017D01*
X168173846Y-40294269D01*
X168069446Y-40040975D01*
X167917835Y-39812783D01*
X167724790Y-39618385D01*
X167497662Y-39465185D01*
X167245103Y-39359019D01*
X166976733Y-39303931D01*
X166702774Y-39302018D01*
X166433661Y-39353354D01*
X166179644Y-39455984D01*
X165950399Y-39605997D01*
X165754658Y-39797681D01*
X165599877Y-40023734D01*
X165491950Y-40275546D01*
X165434989Y-40543524D01*
X165431164Y-40817464D01*
X163096387Y-40817464D01*
X165175765Y-39277464D01*
X172781164Y-39277464D01*
X172830620Y-39546928D01*
X172931474Y-39801655D01*
X173079883Y-40031942D01*
X173270196Y-40229016D01*
X173495163Y-40385372D01*
X173746215Y-40495054D01*
X174013789Y-40553884D01*
X174287695Y-40559622D01*
X174557499Y-40512048D01*
X174812923Y-40412975D01*
X175044240Y-40266177D01*
X175242639Y-40077245D01*
X175400561Y-39853375D01*
X175511993Y-39603095D01*
X175572690Y-39335938D01*
X175577059Y-39023017D01*
X175523846Y-38754269D01*
X175419446Y-38500975D01*
X175267835Y-38272783D01*
X175074790Y-38078385D01*
X174847662Y-37925185D01*
X174595103Y-37819019D01*
X174326733Y-37763931D01*
X174052774Y-37762018D01*
X173783661Y-37813354D01*
X173529644Y-37915984D01*
X173300399Y-38065997D01*
X173104658Y-38257681D01*
X172949877Y-38483734D01*
X172841950Y-38735546D01*
X172784989Y-39003524D01*
X172781164Y-39277464D01*
X165175765Y-39277464D01*
X170133773Y-35605534D01*
X170192079Y-35606755D01*
X170372657Y-35574914D01*
X170543610Y-35508606D01*
X170698429Y-35410355D01*
X170831215Y-35283904D01*
X170936911Y-35134070D01*
X171011492Y-34966560D01*
X171052116Y-34787754D01*
X171055040Y-34578319D01*
X171019425Y-34398448D01*
X170949550Y-34228920D01*
X170848079Y-34076193D01*
X170718875Y-33946084D01*
X170566860Y-33843549D01*
X170397825Y-33772493D01*
X170218207Y-33735623D01*
X170212607Y-33735584D01*
X178426096Y-32988098D01*
X186658305Y-33853338D01*
X186658305Y-33853338D01*
G37*
X186658305Y-33853338D02*
X187061874Y-33978263D01*
X186954733Y-33998701D01*
X186784722Y-34067390D01*
X186631291Y-34167793D01*
X186511335Y-34285263D01*
X177617291Y-36365898D01*
X177537825Y-36332493D01*
X177358207Y-36295623D01*
X177174849Y-36294343D01*
X176994733Y-36328701D01*
X176824722Y-36397390D01*
X176671291Y-36497793D01*
X176540283Y-36626086D01*
X176436689Y-36777381D01*
X176364454Y-36945916D01*
X176326331Y-37125272D01*
X176323771Y-37308617D01*
X176356872Y-37488968D01*
X176424372Y-37659454D01*
X176523701Y-37813583D01*
X176651076Y-37945484D01*
X176801644Y-38050131D01*
X176969671Y-38123540D01*
X177148757Y-38162915D01*
X177332079Y-38166755D01*
X177512657Y-38134914D01*
X177683610Y-38068606D01*
X177838429Y-37970355D01*
X177970886Y-37844218D01*
X186862437Y-35764166D01*
X186929671Y-35793540D01*
X187108757Y-35832915D01*
X187292079Y-35836755D01*
X187472657Y-35804914D01*
X187643610Y-35738606D01*
X187798429Y-35640355D01*
X187931215Y-35513904D01*
X188036911Y-35364070D01*
X188111492Y-35196560D01*
X188152116Y-35017754D01*
X188155040Y-34808319D01*
X188119425Y-34628448D01*
X188049550Y-34458920D01*
X187948079Y-34306193D01*
X187871223Y-34228799D01*
X194565674Y-36301077D01*
X195516903Y-36815404D01*
X195364849Y-36814343D01*
X195184733Y-36848701D01*
X195014722Y-36917390D01*
X194891469Y-36998045D01*
X185673745Y-37132154D01*
X185586860Y-37073549D01*
X185417825Y-37002493D01*
X185238207Y-36965623D01*
X185054849Y-36964343D01*
X184874733Y-36998701D01*
X184704722Y-37067390D01*
X184551291Y-37167793D01*
X184420283Y-37296086D01*
X184316689Y-37447381D01*
X184244454Y-37615916D01*
X184206331Y-37795272D01*
X184203771Y-37978617D01*
X184236872Y-38158968D01*
X184304372Y-38329454D01*
X184403701Y-38483583D01*
X184531076Y-38615484D01*
X184681644Y-38720131D01*
X184849671Y-38793540D01*
X185028757Y-38832915D01*
X185212079Y-38836755D01*
X185392657Y-38804914D01*
X185563610Y-38738606D01*
X185700189Y-38651931D01*
X194916413Y-38517844D01*
X194991644Y-38570131D01*
X195159671Y-38643540D01*
X195338757Y-38682915D01*
X195522079Y-38686755D01*
X195702657Y-38654914D01*
X195873610Y-38588606D01*
X196028429Y-38490355D01*
X196161215Y-38363904D01*
X196266911Y-38214070D01*
X196341492Y-38046560D01*
X196382116Y-37867754D01*
X196385040Y-37658319D01*
X196349425Y-37478448D01*
X196279550Y-37308920D01*
X196195403Y-37182268D01*
X201847013Y-40238082D01*
X203173076Y-41335097D01*
X203078207Y-41315623D01*
X202894849Y-41314343D01*
X202714733Y-41348701D01*
X202593555Y-41397660D01*
X193463931Y-39571736D01*
X193378875Y-39486084D01*
X193226860Y-39383549D01*
X193057825Y-39312493D01*
X192878207Y-39275623D01*
X192694849Y-39274343D01*
X192514733Y-39308701D01*
X192344722Y-39377390D01*
X192191291Y-39477793D01*
X192060283Y-39606086D01*
X191956689Y-39757381D01*
X191884454Y-39925916D01*
X191846331Y-40105272D01*
X191843771Y-40288617D01*
X191876872Y-40468968D01*
X191944372Y-40639454D01*
X192043701Y-40793583D01*
X192171076Y-40925484D01*
X192321644Y-41030131D01*
X192489671Y-41103540D01*
X192668757Y-41142915D01*
X192852079Y-41146755D01*
X193032657Y-41114914D01*
X193167605Y-41062572D01*
X202296611Y-42888373D01*
X202371076Y-42965484D01*
X202521644Y-43070131D01*
X202689671Y-43143540D01*
X202868757Y-43182915D01*
X203052079Y-43186755D01*
X203232657Y-43154914D01*
X203403610Y-43088606D01*
X203558429Y-42990355D01*
X203691215Y-42863904D01*
X203796911Y-42714070D01*
X203871492Y-42546560D01*
X203912116Y-42367754D01*
X203915040Y-42158319D01*
X203879425Y-41978448D01*
X203842519Y-41888908D01*
X208224978Y-45514394D01*
X209699141Y-47321897D01*
X209557825Y-47262493D01*
X209378207Y-47225623D01*
X209194849Y-47224343D01*
X209081004Y-47246059D01*
X200573131Y-43569156D01*
X200498079Y-43456193D01*
X200368875Y-43326084D01*
X200216860Y-43223549D01*
X200047825Y-43152493D01*
X199868207Y-43115623D01*
X199684849Y-43114343D01*
X199504733Y-43148701D01*
X199334722Y-43217390D01*
X199181291Y-43317793D01*
X199050283Y-43446086D01*
X198946689Y-43597381D01*
X198874454Y-43765916D01*
X198836331Y-43945272D01*
X198833771Y-44128617D01*
X198866872Y-44308968D01*
X198934372Y-44479454D01*
X199033701Y-44633583D01*
X199161076Y-44765484D01*
X199311644Y-44870131D01*
X199479671Y-44943540D01*
X199658757Y-44982915D01*
X199842079Y-44986755D01*
X199969713Y-44964249D01*
X208477730Y-48641216D01*
X208543701Y-48743583D01*
X208671076Y-48875484D01*
X208821644Y-48980131D01*
X208989671Y-49053540D01*
X209168757Y-49092915D01*
X209352079Y-49096755D01*
X209532657Y-49064914D01*
X209703610Y-48998606D01*
X209858429Y-48900355D01*
X209991215Y-48773904D01*
X210096911Y-48624070D01*
X210171492Y-48456560D01*
X210212116Y-48277754D01*
X210215040Y-48068319D01*
X210185265Y-47917944D01*
X213456635Y-51929040D01*
X214961750Y-54759750D01*
X214848875Y-54646084D01*
X214696860Y-54543549D01*
X214527825Y-54472493D01*
X214348207Y-54435623D01*
X214255370Y-54434975D01*
X206690672Y-48947212D01*
X206629550Y-48798920D01*
X206528079Y-48646193D01*
X206398875Y-48516084D01*
X206246860Y-48413549D01*
X206077825Y-48342493D01*
X205898207Y-48305623D01*
X205714849Y-48304343D01*
X205534733Y-48338701D01*
X205364722Y-48407390D01*
X205211291Y-48507793D01*
X205080283Y-48636086D01*
X204976689Y-48787381D01*
X204904454Y-48955916D01*
X204866331Y-49135272D01*
X204863771Y-49318617D01*
X204896872Y-49498968D01*
X204964372Y-49669454D01*
X205063701Y-49823583D01*
X205191076Y-49955484D01*
X205341644Y-50060131D01*
X205509671Y-50133540D01*
X205688757Y-50172915D01*
X205794783Y-50175136D01*
X213360639Y-55663739D01*
X213414372Y-55799454D01*
X213513701Y-55953583D01*
X213641076Y-56085484D01*
X213791644Y-56190131D01*
X213959671Y-56263540D01*
X214138757Y-56302915D01*
X214322079Y-56306755D01*
X214502657Y-56274914D01*
X214673610Y-56208606D01*
X214828429Y-56110355D01*
X214961215Y-55983904D01*
X215066911Y-55834070D01*
X215141492Y-55666560D01*
X215182116Y-55487754D01*
X215185040Y-55278319D01*
X215153926Y-55121180D01*
X217342712Y-59237687D01*
X218385968Y-62693118D01*
X218368079Y-62666193D01*
X218238875Y-62536084D01*
X218086860Y-62433549D01*
X217917825Y-62362493D01*
X217821265Y-62342672D01*
X211519347Y-55629564D01*
X211489425Y-55478448D01*
X211419550Y-55308920D01*
X211318079Y-55156193D01*
X211188875Y-55026084D01*
X211036860Y-54923549D01*
X210867825Y-54852493D01*
X210688207Y-54815623D01*
X210504849Y-54814343D01*
X210324733Y-54848701D01*
X210154722Y-54917390D01*
X210001291Y-55017793D01*
X209870283Y-55146086D01*
X209766689Y-55297381D01*
X209694454Y-55465916D01*
X209656331Y-55645272D01*
X209653771Y-55828617D01*
X209686872Y-56008968D01*
X209754372Y-56179454D01*
X209853701Y-56333583D01*
X209981076Y-56465484D01*
X210131644Y-56570131D01*
X210299671Y-56643540D01*
X210408961Y-56667569D01*
X216711639Y-63381486D01*
X216736872Y-63518968D01*
X216804372Y-63689454D01*
X216903701Y-63843583D01*
X217031076Y-63975484D01*
X217181644Y-64080131D01*
X217349671Y-64153540D01*
X217528757Y-64192915D01*
X217712079Y-64196755D01*
X217892657Y-64164914D01*
X218063610Y-64098606D01*
X218218429Y-64000355D01*
X218351215Y-63873904D01*
X218456911Y-63724070D01*
X218531492Y-63556560D01*
X218572116Y-63377754D01*
X218573025Y-63312679D01*
X219735188Y-67161951D01*
X220542936Y-75400000D01*
X220526400Y-76584239D01*
X219488947Y-84796522D01*
X216876145Y-92650895D01*
X212787514Y-99848187D01*
X207378790Y-106114255D01*
X200855988Y-111210426D01*
X193467560Y-114942590D01*
X185494929Y-117168588D01*
X177241770Y-117803634D01*
X169022444Y-116823539D01*
X168884189Y-116778617D01*
X176333771Y-116778617D01*
X176366872Y-116958968D01*
X176434372Y-117129454D01*
X176533701Y-117283583D01*
X176661076Y-117415484D01*
X176811644Y-117520131D01*
X176979671Y-117593540D01*
X177158757Y-117632915D01*
X177342079Y-117636755D01*
X177522657Y-117604914D01*
X177693610Y-117538606D01*
X177848429Y-117440355D01*
X177981215Y-117313904D01*
X178086911Y-117164070D01*
X178088101Y-117161398D01*
X180563239Y-116028617D01*
X184973771Y-116028617D01*
X185006872Y-116208968D01*
X185074372Y-116379454D01*
X185173701Y-116533583D01*
X185301076Y-116665484D01*
X185451644Y-116770131D01*
X185619671Y-116843540D01*
X185798757Y-116882915D01*
X185982079Y-116886755D01*
X186162657Y-116854914D01*
X186333610Y-116788606D01*
X186488429Y-116690355D01*
X186621215Y-116563904D01*
X186726911Y-116414070D01*
X186801492Y-116246560D01*
X186804805Y-116231980D01*
X190497101Y-113488617D01*
X193263771Y-113488617D01*
X193296872Y-113668968D01*
X193364372Y-113839454D01*
X193463701Y-113993583D01*
X193591076Y-114125484D01*
X193741644Y-114230131D01*
X193909671Y-114303540D01*
X194088757Y-114342915D01*
X194272079Y-114346755D01*
X194452657Y-114314914D01*
X194623610Y-114248606D01*
X194778429Y-114150355D01*
X194911215Y-114023904D01*
X195016911Y-113874070D01*
X195091492Y-113706560D01*
X195132116Y-113527754D01*
X195132531Y-113497998D01*
X198803585Y-109298617D01*
X200843771Y-109298617D01*
X200876872Y-109478968D01*
X200944372Y-109649454D01*
X201043701Y-109803583D01*
X201171076Y-109935484D01*
X201321644Y-110040131D01*
X201489671Y-110113540D01*
X201668757Y-110152915D01*
X201852079Y-110156755D01*
X202032657Y-110124914D01*
X202203610Y-110058606D01*
X202358429Y-109960355D01*
X202491215Y-109833904D01*
X202596911Y-109684070D01*
X202671492Y-109516560D01*
X202712116Y-109337754D01*
X202715040Y-109128319D01*
X202710644Y-109106118D01*
X205708552Y-103668617D01*
X207323771Y-103668617D01*
X207356872Y-103848968D01*
X207424372Y-104019454D01*
X207523701Y-104173583D01*
X207651076Y-104305484D01*
X207801644Y-104410131D01*
X207969671Y-104483540D01*
X208148757Y-104522915D01*
X208332079Y-104526755D01*
X208512657Y-104494914D01*
X208683610Y-104428606D01*
X208838429Y-104330355D01*
X208971215Y-104203904D01*
X209076911Y-104054070D01*
X209151492Y-103886560D01*
X209192116Y-103707754D01*
X209195040Y-103498319D01*
X209159425Y-103318448D01*
X209149588Y-103294581D01*
X211217458Y-96718617D01*
X212563771Y-96718617D01*
X212596872Y-96898968D01*
X212664372Y-97069454D01*
X212763701Y-97223583D01*
X212891076Y-97355484D01*
X213041644Y-97460131D01*
X213209671Y-97533540D01*
X213388757Y-97572915D01*
X213572079Y-97576755D01*
X213752657Y-97544914D01*
X213923610Y-97478606D01*
X214078429Y-97380355D01*
X214211215Y-97253904D01*
X214316911Y-97104070D01*
X214391492Y-96936560D01*
X214432116Y-96757754D01*
X214435040Y-96548319D01*
X214399425Y-96368448D01*
X214329550Y-96198920D01*
X214303929Y-96160358D01*
X215090040Y-86995023D01*
X215091215Y-86993904D01*
X215196911Y-86844070D01*
X215271492Y-86676560D01*
X215312116Y-86497754D01*
X215315040Y-86288319D01*
X215279425Y-86108448D01*
X215209550Y-85938920D01*
X215108079Y-85786193D01*
X214978875Y-85656084D01*
X214826860Y-85553549D01*
X214657825Y-85482493D01*
X214478207Y-85445623D01*
X214294849Y-85444343D01*
X214114733Y-85478701D01*
X213944722Y-85547390D01*
X213791291Y-85647793D01*
X213660283Y-85776086D01*
X213556689Y-85927381D01*
X213484454Y-86095916D01*
X213446331Y-86275272D01*
X213443771Y-86458617D01*
X213476872Y-86638968D01*
X213544372Y-86809454D01*
X213576146Y-86858758D01*
X212789807Y-96026759D01*
X212780283Y-96036086D01*
X212676689Y-96187381D01*
X212604454Y-96355916D01*
X212566331Y-96535272D01*
X212563771Y-96718617D01*
X211217458Y-96718617D01*
X211930251Y-94451891D01*
X211948429Y-94440355D01*
X212081215Y-94313904D01*
X212186911Y-94164070D01*
X212261492Y-93996560D01*
X212302116Y-93817754D01*
X212305040Y-93608319D01*
X212269425Y-93428448D01*
X212199550Y-93258920D01*
X212098079Y-93106193D01*
X211968875Y-92976084D01*
X211816860Y-92873549D01*
X211647825Y-92802493D01*
X211468207Y-92765623D01*
X211284849Y-92764343D01*
X211104733Y-92798701D01*
X210934722Y-92867390D01*
X210781291Y-92967793D01*
X210650283Y-93096086D01*
X210546689Y-93247381D01*
X210474454Y-93415916D01*
X210436331Y-93595272D01*
X210433771Y-93778617D01*
X210466872Y-93958968D01*
X210480807Y-93994164D01*
X207699328Y-102839446D01*
X207671291Y-102857793D01*
X207540283Y-102986086D01*
X207436689Y-103137381D01*
X207364454Y-103305916D01*
X207326331Y-103485272D01*
X207323771Y-103668617D01*
X205708552Y-103668617D01*
X207120575Y-101107541D01*
X207143610Y-101098606D01*
X207298429Y-101000355D01*
X207431215Y-100873904D01*
X207536911Y-100724070D01*
X207611492Y-100556560D01*
X207652116Y-100377754D01*
X207655040Y-100168319D01*
X207619425Y-99988448D01*
X207549550Y-99818920D01*
X207448079Y-99666193D01*
X207318875Y-99536084D01*
X207166860Y-99433549D01*
X206997825Y-99362493D01*
X206818207Y-99325623D01*
X206634849Y-99324343D01*
X206454733Y-99358701D01*
X206284722Y-99427390D01*
X206131291Y-99527793D01*
X206000283Y-99656086D01*
X205896689Y-99807381D01*
X205824454Y-99975916D01*
X205786331Y-100155272D01*
X205783771Y-100338617D01*
X205790022Y-100372673D01*
X201378781Y-108373629D01*
X201344722Y-108387390D01*
X201191291Y-108487793D01*
X201060283Y-108616086D01*
X200956689Y-108767381D01*
X200884454Y-108935916D01*
X200846331Y-109115272D01*
X200843771Y-109298617D01*
X198803585Y-109298617D01*
X201152148Y-106612057D01*
X201192657Y-106604914D01*
X201363610Y-106538606D01*
X201518429Y-106440355D01*
X201651215Y-106313904D01*
X201756911Y-106164070D01*
X201831492Y-105996560D01*
X201872116Y-105817754D01*
X201875040Y-105608319D01*
X201839425Y-105428448D01*
X201769550Y-105258920D01*
X201668079Y-105106193D01*
X201538875Y-104976084D01*
X201386860Y-104873549D01*
X201217825Y-104802493D01*
X201038207Y-104765623D01*
X200854849Y-104764343D01*
X200674733Y-104798701D01*
X200504722Y-104867390D01*
X200351291Y-104967793D01*
X200220283Y-105096086D01*
X200116689Y-105247381D01*
X200044454Y-105415916D01*
X200006331Y-105595272D01*
X200006075Y-105613597D01*
X193987196Y-112498693D01*
X193934733Y-112508701D01*
X193764722Y-112577390D01*
X193611291Y-112677793D01*
X193480283Y-112806086D01*
X193376689Y-112957381D01*
X193304454Y-113125916D01*
X193266331Y-113305272D01*
X193263771Y-113488617D01*
X190497101Y-113488617D01*
X194135147Y-110785562D01*
X194192079Y-110786755D01*
X194372657Y-110754914D01*
X194543610Y-110688606D01*
X194698429Y-110590355D01*
X194831215Y-110463904D01*
X194936911Y-110314070D01*
X195011492Y-110146560D01*
X195052116Y-109967754D01*
X195055040Y-109758319D01*
X195019425Y-109578448D01*
X194949550Y-109408920D01*
X194848079Y-109256193D01*
X194718875Y-109126084D01*
X194566860Y-109023549D01*
X194397825Y-108952493D01*
X194218207Y-108915623D01*
X194034849Y-108914343D01*
X193854733Y-108948701D01*
X193684722Y-109017390D01*
X193531291Y-109117793D01*
X193400283Y-109246086D01*
X193296689Y-109397381D01*
X193224454Y-109565916D01*
X193223784Y-109569070D01*
X185894328Y-115014828D01*
X185824849Y-115014343D01*
X185644733Y-115048701D01*
X185474722Y-115117390D01*
X185321291Y-115217793D01*
X185190283Y-115346086D01*
X185086689Y-115497381D01*
X185014454Y-115665916D01*
X184976331Y-115845272D01*
X184973771Y-116028617D01*
X180563239Y-116028617D01*
X186420581Y-113347925D01*
X186488757Y-113362915D01*
X186672079Y-113366755D01*
X186852657Y-113334914D01*
X187023610Y-113268606D01*
X187178429Y-113170355D01*
X187311215Y-113043904D01*
X187416911Y-112894070D01*
X187491492Y-112726560D01*
X187532116Y-112547754D01*
X187535040Y-112338319D01*
X187499425Y-112158448D01*
X187429550Y-111988920D01*
X187328079Y-111836193D01*
X187198875Y-111706084D01*
X187046860Y-111603549D01*
X186877825Y-111532493D01*
X186698207Y-111495623D01*
X186514849Y-111494343D01*
X186334733Y-111528701D01*
X186164722Y-111597390D01*
X186011291Y-111697793D01*
X185880283Y-111826086D01*
X185783065Y-111968069D01*
X177449088Y-115782225D01*
X177368207Y-115765623D01*
X177184849Y-115764343D01*
X177004733Y-115798701D01*
X176834722Y-115867390D01*
X176681291Y-115967793D01*
X176550283Y-116096086D01*
X176446689Y-116247381D01*
X176374454Y-116415916D01*
X176336331Y-116595272D01*
X176333771Y-116778617D01*
X168884189Y-116778617D01*
X165498737Y-115678617D01*
X167683771Y-115678617D01*
X167716872Y-115858968D01*
X167784372Y-116029454D01*
X167883701Y-116183583D01*
X168011076Y-116315484D01*
X168161644Y-116420131D01*
X168329671Y-116493540D01*
X168508757Y-116532915D01*
X168692079Y-116536755D01*
X168872657Y-116504914D01*
X169043610Y-116438606D01*
X169198429Y-116340355D01*
X169317261Y-116227192D01*
X178317616Y-114287691D01*
X178399671Y-114323540D01*
X178578757Y-114362915D01*
X178762079Y-114366755D01*
X178942657Y-114334914D01*
X179113610Y-114268606D01*
X179268429Y-114170355D01*
X179401215Y-114043904D01*
X179506911Y-113894070D01*
X179581492Y-113726560D01*
X179622116Y-113547754D01*
X179625040Y-113338319D01*
X179589425Y-113158448D01*
X179519550Y-112988920D01*
X179418079Y-112836193D01*
X179288875Y-112706084D01*
X179136860Y-112603549D01*
X178967825Y-112532493D01*
X178788207Y-112495623D01*
X178604849Y-112494343D01*
X178424733Y-112528701D01*
X178254722Y-112597390D01*
X178101291Y-112697793D01*
X177994425Y-112802445D01*
X168992488Y-114742286D01*
X168897825Y-114702493D01*
X168718207Y-114665623D01*
X168534849Y-114664343D01*
X168354733Y-114698701D01*
X168184722Y-114767390D01*
X168031291Y-114867793D01*
X167900283Y-114996086D01*
X167796689Y-115147381D01*
X167724454Y-115315916D01*
X167686331Y-115495272D01*
X167683771Y-115678617D01*
X165498737Y-115678617D01*
X161150022Y-114265634D01*
X158668248Y-112878617D01*
X159613771Y-112878617D01*
X159646872Y-113058968D01*
X159714372Y-113229454D01*
X159813701Y-113383583D01*
X159941076Y-113515484D01*
X160091644Y-113620131D01*
X160259671Y-113693540D01*
X160438757Y-113732915D01*
X160622079Y-113736755D01*
X160802657Y-113704914D01*
X160973610Y-113638606D01*
X161110303Y-113551858D01*
X170236510Y-113417912D01*
X170311644Y-113470131D01*
X170479671Y-113543540D01*
X170658757Y-113582915D01*
X170842079Y-113586755D01*
X171022657Y-113554914D01*
X171193610Y-113488606D01*
X171348429Y-113390355D01*
X171481215Y-113263904D01*
X171586911Y-113114070D01*
X171661492Y-112946560D01*
X171702116Y-112767754D01*
X171705040Y-112558319D01*
X171669425Y-112378448D01*
X171599550Y-112208920D01*
X171498079Y-112056193D01*
X171368875Y-111926084D01*
X171216860Y-111823549D01*
X171047825Y-111752493D01*
X170868207Y-111715623D01*
X170684849Y-111714343D01*
X170504733Y-111748701D01*
X170334722Y-111817390D01*
X170211358Y-111898118D01*
X161083645Y-112032086D01*
X160996860Y-111973549D01*
X160827825Y-111902493D01*
X160648207Y-111865623D01*
X160464849Y-111864343D01*
X160284733Y-111898701D01*
X160114722Y-111967390D01*
X159961291Y-112067793D01*
X159830283Y-112196086D01*
X159726689Y-112347381D01*
X159654454Y-112515916D01*
X159616331Y-112695272D01*
X159613771Y-112878617D01*
X158668248Y-112878617D01*
X153924362Y-110227349D01*
X152820866Y-109288200D01*
X152978757Y-109322915D01*
X153162079Y-109326755D01*
X153342657Y-109294914D01*
X153481432Y-109241087D01*
X162469275Y-111001132D01*
X162541076Y-111075484D01*
X162691644Y-111180131D01*
X162859671Y-111253540D01*
X163038757Y-111292915D01*
X163222079Y-111296755D01*
X163402657Y-111264914D01*
X163573610Y-111198606D01*
X163728429Y-111100355D01*
X163861215Y-110973904D01*
X163966911Y-110824070D01*
X164041492Y-110656560D01*
X164082116Y-110477754D01*
X164085040Y-110268319D01*
X164049425Y-110088448D01*
X163979550Y-109918920D01*
X163878079Y-109766193D01*
X163748875Y-109636084D01*
X163596860Y-109533549D01*
X163427825Y-109462493D01*
X163248207Y-109425623D01*
X163064849Y-109424343D01*
X162884733Y-109458701D01*
X162759838Y-109509162D01*
X153771170Y-107748955D01*
X153688875Y-107666084D01*
X153536860Y-107563549D01*
X153367825Y-107492493D01*
X153188207Y-107455623D01*
X153004849Y-107454343D01*
X152824733Y-107488701D01*
X152654722Y-107557390D01*
X152501291Y-107657793D01*
X152370283Y-107786086D01*
X152266689Y-107937381D01*
X152194454Y-108105916D01*
X152156331Y-108285272D01*
X152153771Y-108468617D01*
X152186872Y-108648968D01*
X152246384Y-108799277D01*
X147620687Y-104862501D01*
X146345554Y-103253684D01*
X146459671Y-103303540D01*
X146638757Y-103342915D01*
X146822079Y-103346755D01*
X146948442Y-103324474D01*
X155377039Y-106980143D01*
X155443701Y-107083583D01*
X155571076Y-107215484D01*
X155721644Y-107320131D01*
X155889671Y-107393540D01*
X156068757Y-107432915D01*
X156252079Y-107436755D01*
X156432657Y-107404914D01*
X156603610Y-107338606D01*
X156758429Y-107240355D01*
X156891215Y-107113904D01*
X156996911Y-106964070D01*
X157071492Y-106796560D01*
X157112116Y-106617754D01*
X157115040Y-106408319D01*
X157079425Y-106228448D01*
X157009550Y-106058920D01*
X156908079Y-105906193D01*
X156778875Y-105776084D01*
X156626860Y-105673549D01*
X156457825Y-105602493D01*
X156278207Y-105565623D01*
X156094849Y-105564343D01*
X155982242Y-105585823D01*
X147553854Y-101930244D01*
X147478079Y-101816193D01*
X147348875Y-101686084D01*
X147196860Y-101583549D01*
X147027825Y-101512493D01*
X146848207Y-101475623D01*
X146664849Y-101474343D01*
X146484733Y-101508701D01*
X146314722Y-101577390D01*
X146161291Y-101677793D01*
X146030283Y-101806086D01*
X145926689Y-101957381D01*
X145854454Y-102125916D01*
X145816331Y-102305272D01*
X145813771Y-102488617D01*
X145836252Y-102611105D01*
X142479102Y-98375436D01*
X141356435Y-96190962D01*
X141499671Y-96253540D01*
X141678757Y-96292915D01*
X141796446Y-96295380D01*
X149305135Y-101605096D01*
X149354372Y-101729454D01*
X149453701Y-101883583D01*
X149581076Y-102015484D01*
X149731644Y-102120131D01*
X149899671Y-102193540D01*
X150078757Y-102232915D01*
X150262079Y-102236755D01*
X150442657Y-102204914D01*
X150613610Y-102138606D01*
X150768429Y-102040355D01*
X150901215Y-101913904D01*
X151006911Y-101764070D01*
X151081492Y-101596560D01*
X151122116Y-101417754D01*
X151125040Y-101208319D01*
X151089425Y-101028448D01*
X151019550Y-100858920D01*
X150918079Y-100706193D01*
X150788875Y-100576084D01*
X150636860Y-100473549D01*
X150467825Y-100402493D01*
X150288207Y-100365623D01*
X150183943Y-100364895D01*
X142675901Y-95055637D01*
X142619550Y-94918920D01*
X142518079Y-94766193D01*
X142388875Y-94636084D01*
X142236860Y-94533549D01*
X142067825Y-94462493D01*
X141888207Y-94425623D01*
X141704849Y-94424343D01*
X141524733Y-94458701D01*
X141354722Y-94527390D01*
X141201291Y-94627793D01*
X141070283Y-94756086D01*
X140966689Y-94907381D01*
X140894454Y-95075916D01*
X140861956Y-95228809D01*
X138695449Y-91013243D01*
X137880628Y-88171624D01*
X137921644Y-88200131D01*
X138089671Y-88273540D01*
X138190746Y-88295763D01*
X144460027Y-95092701D01*
X144486872Y-95238968D01*
X144554372Y-95409454D01*
X144653701Y-95563583D01*
X144781076Y-95695484D01*
X144931644Y-95800131D01*
X145099671Y-95873540D01*
X145278757Y-95912915D01*
X145462079Y-95916755D01*
X145642657Y-95884914D01*
X145813610Y-95818606D01*
X145968429Y-95720355D01*
X146101215Y-95593904D01*
X146206911Y-95444070D01*
X146281492Y-95276560D01*
X146322116Y-95097754D01*
X146325040Y-94888319D01*
X146289425Y-94708448D01*
X146219550Y-94538920D01*
X146118079Y-94386193D01*
X145988875Y-94256084D01*
X145836860Y-94153549D01*
X145667825Y-94082493D01*
X145579340Y-94064330D01*
X139311125Y-87268548D01*
X139279425Y-87108448D01*
X139209550Y-86938920D01*
X139108079Y-86786193D01*
X138978875Y-86656084D01*
X138826860Y-86553549D01*
X138657825Y-86482493D01*
X138478207Y-86445623D01*
X138294849Y-86444343D01*
X138114733Y-86478701D01*
X137944722Y-86547390D01*
X137791291Y-86647793D01*
X137660283Y-86776086D01*
X137556689Y-86927381D01*
X137537012Y-86973291D01*
X136413846Y-83056347D01*
X136121529Y-79575243D01*
X136141076Y-79595484D01*
X136291644Y-79700131D01*
X136375543Y-79736785D01*
X141066030Y-87616803D01*
X141063771Y-87778617D01*
X141096872Y-87958968D01*
X141164372Y-88129454D01*
X141263701Y-88283583D01*
X141391076Y-88415484D01*
X141541644Y-88520131D01*
X141709671Y-88593540D01*
X141888757Y-88632915D01*
X142072079Y-88636755D01*
X142252657Y-88604914D01*
X142423610Y-88538606D01*
X142578429Y-88440355D01*
X142711215Y-88313904D01*
X142816911Y-88164070D01*
X142891492Y-87996560D01*
X142932116Y-87817754D01*
X142935040Y-87608319D01*
X142899425Y-87428448D01*
X142829550Y-87258920D01*
X142728079Y-87106193D01*
X142598875Y-86976084D01*
X142446860Y-86873549D01*
X142374377Y-86843080D01*
X140566333Y-83805565D01*
X141714040Y-83805565D01*
X141781020Y-84045656D01*
X142030048Y-84162756D01*
X142297135Y-84229023D01*
X142572017Y-84241910D01*
X142844133Y-84200922D01*
X143103023Y-84107636D01*
X143218980Y-84045656D01*
X143285960Y-83805565D01*
X142500000Y-83019605D01*
X141714040Y-83805565D01*
X140566333Y-83805565D01*
X140034459Y-82912017D01*
X141098090Y-82912017D01*
X141139078Y-83184133D01*
X141232364Y-83443023D01*
X141294344Y-83558980D01*
X141534435Y-83625960D01*
X142320395Y-82840000D01*
X142679605Y-82840000D01*
X143465565Y-83625960D01*
X143705656Y-83558980D01*
X143822756Y-83309952D01*
X143889023Y-83042865D01*
X143901910Y-82767983D01*
X143860922Y-82495867D01*
X143767636Y-82236977D01*
X143705656Y-82121020D01*
X143465565Y-82054040D01*
X142679605Y-82840000D01*
X142320395Y-82840000D01*
X141534435Y-82054040D01*
X141294344Y-82121020D01*
X141177244Y-82370048D01*
X141110977Y-82637135D01*
X141098090Y-82912017D01*
X140034459Y-82912017D01*
X139416851Y-81874435D01*
X141714040Y-81874435D01*
X142500000Y-82660395D01*
X143285960Y-81874435D01*
X143218980Y-81634344D01*
X142969952Y-81517244D01*
X142702865Y-81450977D01*
X142427983Y-81438090D01*
X142155867Y-81479078D01*
X141896977Y-81572364D01*
X141781020Y-81634344D01*
X141714040Y-81874435D01*
X139416851Y-81874435D01*
X137682630Y-78960944D01*
X137685040Y-78788319D01*
X137649425Y-78608448D01*
X137579550Y-78438920D01*
X137478079Y-78286193D01*
X137348875Y-78156084D01*
X137196860Y-78053549D01*
X137027825Y-77982493D01*
X136848207Y-77945623D01*
X136664849Y-77944343D01*
X136484733Y-77978701D01*
X136314722Y-78047390D01*
X136161291Y-78147793D01*
X136030283Y-78276086D01*
X136014386Y-78299303D01*
X135721198Y-74807823D01*
X136168578Y-70819344D01*
X136271076Y-70925484D01*
X136334094Y-70969283D01*
X139293526Y-79740284D01*
X139256331Y-79915272D01*
X139253771Y-80098617D01*
X139286872Y-80278968D01*
X139354372Y-80449454D01*
X139453701Y-80603583D01*
X139581076Y-80735484D01*
X139731644Y-80840131D01*
X139899671Y-80913540D01*
X140078757Y-80952915D01*
X140262079Y-80956755D01*
X140442657Y-80924914D01*
X140613610Y-80858606D01*
X140768429Y-80760355D01*
X140901215Y-80633904D01*
X141006911Y-80484070D01*
X141081492Y-80316560D01*
X141122116Y-80137754D01*
X141125040Y-79928319D01*
X141089425Y-79748448D01*
X141019550Y-79578920D01*
X140918079Y-79426193D01*
X140788875Y-79296084D01*
X140735748Y-79260250D01*
X139469518Y-75507464D01*
X140411164Y-75507464D01*
X140460620Y-75776928D01*
X140561474Y-76031655D01*
X140709883Y-76261942D01*
X140900196Y-76459016D01*
X141125163Y-76615372D01*
X141376215Y-76725054D01*
X141643789Y-76783884D01*
X141917695Y-76789622D01*
X142187499Y-76742048D01*
X142442923Y-76642975D01*
X142674240Y-76496177D01*
X142872639Y-76307245D01*
X143030561Y-76083375D01*
X143109428Y-75906237D01*
X143438113Y-75906237D01*
X144195734Y-82660583D01*
X146250853Y-89139138D01*
X149525190Y-95095135D01*
X153894027Y-100301713D01*
X159190956Y-104560553D01*
X165214220Y-107709439D01*
X171734393Y-109628431D01*
X178503124Y-110244433D01*
X185262595Y-109533984D01*
X191755340Y-107524144D01*
X197734051Y-104291467D01*
X202971001Y-99959085D01*
X207266717Y-94692017D01*
X210457576Y-88690883D01*
X212422040Y-82184266D01*
X212771654Y-78618617D01*
X214963771Y-78618617D01*
X214996872Y-78798968D01*
X215064372Y-78969454D01*
X215163701Y-79123583D01*
X215211201Y-79172771D01*
X216319085Y-88303881D01*
X216316689Y-88307381D01*
X216244454Y-88475916D01*
X216206331Y-88655272D01*
X216203771Y-88838617D01*
X216236872Y-89018968D01*
X216304372Y-89189454D01*
X216403701Y-89343583D01*
X216531076Y-89475484D01*
X216681644Y-89580131D01*
X216849671Y-89653540D01*
X217028757Y-89692915D01*
X217212079Y-89696755D01*
X217392657Y-89664914D01*
X217563610Y-89598606D01*
X217718429Y-89500355D01*
X217851215Y-89373904D01*
X217956911Y-89224070D01*
X218031492Y-89056560D01*
X218072116Y-88877754D01*
X218075040Y-88668319D01*
X218039425Y-88488448D01*
X217969550Y-88318920D01*
X217868079Y-88166193D01*
X217828717Y-88126556D01*
X216720816Y-78995300D01*
X216791492Y-78836560D01*
X216832116Y-78657754D01*
X216835040Y-78448319D01*
X216799425Y-78268448D01*
X216729550Y-78098920D01*
X216628079Y-77946193D01*
X216498875Y-77816084D01*
X216346860Y-77713549D01*
X216177825Y-77642493D01*
X215998207Y-77605623D01*
X215814849Y-77604343D01*
X215634733Y-77638701D01*
X215464722Y-77707390D01*
X215311291Y-77807793D01*
X215180283Y-77936086D01*
X215076689Y-78087381D01*
X215004454Y-78255916D01*
X214966331Y-78435272D01*
X214963771Y-78618617D01*
X212771654Y-78618617D01*
X213085282Y-75420000D01*
X213071704Y-74447621D01*
X212596832Y-70688617D01*
X214843771Y-70688617D01*
X214876872Y-70868968D01*
X214944372Y-71039454D01*
X215043701Y-71193583D01*
X215171076Y-71325484D01*
X215236917Y-71371244D01*
X218192686Y-80024236D01*
X218156331Y-80195272D01*
X218153771Y-80378617D01*
X218186872Y-80558968D01*
X218254372Y-80729454D01*
X218353701Y-80883583D01*
X218481076Y-81015484D01*
X218631644Y-81120131D01*
X218799671Y-81193540D01*
X218978757Y-81232915D01*
X219162079Y-81236755D01*
X219342657Y-81204914D01*
X219513610Y-81138606D01*
X219668429Y-81040355D01*
X219801215Y-80913904D01*
X219906911Y-80764070D01*
X219981492Y-80596560D01*
X220022116Y-80417754D01*
X220025040Y-80208319D01*
X219989425Y-80028448D01*
X219919550Y-79858920D01*
X219818079Y-79706193D01*
X219688875Y-79576084D01*
X219632949Y-79538362D01*
X216676655Y-70883834D01*
X216712116Y-70727754D01*
X216715040Y-70518319D01*
X216679425Y-70338448D01*
X216609550Y-70168920D01*
X216508079Y-70016193D01*
X216378875Y-69886084D01*
X216226860Y-69783549D01*
X216057825Y-69712493D01*
X215878207Y-69675623D01*
X215694849Y-69674343D01*
X215514733Y-69708701D01*
X215344722Y-69777390D01*
X215191291Y-69877793D01*
X215060283Y-70006086D01*
X214956689Y-70157381D01*
X214884454Y-70325916D01*
X214846331Y-70505272D01*
X214843771Y-70688617D01*
X212596832Y-70688617D01*
X212357684Y-68795565D01*
X212814040Y-68795565D01*
X212881020Y-69035656D01*
X213130048Y-69152756D01*
X213397135Y-69219023D01*
X213672017Y-69231910D01*
X213944133Y-69190922D01*
X214203023Y-69097636D01*
X214318980Y-69035656D01*
X214385960Y-68795565D01*
X213600000Y-68009605D01*
X212814040Y-68795565D01*
X212357684Y-68795565D01*
X212300827Y-68345500D01*
X212332364Y-68433023D01*
X212394344Y-68548980D01*
X212634435Y-68615960D01*
X213420395Y-67830000D01*
X213779605Y-67830000D01*
X214565565Y-68615960D01*
X214805656Y-68548980D01*
X214922756Y-68299952D01*
X214989023Y-68032865D01*
X215001910Y-67757983D01*
X214960922Y-67485867D01*
X214867636Y-67226977D01*
X214805656Y-67111020D01*
X214565565Y-67044040D01*
X213779605Y-67830000D01*
X213420395Y-67830000D01*
X212634435Y-67044040D01*
X212394344Y-67111020D01*
X212277244Y-67360048D01*
X212210977Y-67627135D01*
X212208894Y-67671572D01*
X211940396Y-66864435D01*
X212814040Y-66864435D01*
X213600000Y-67650395D01*
X214385960Y-66864435D01*
X214318980Y-66624344D01*
X214069952Y-66507244D01*
X213802865Y-66440977D01*
X213527983Y-66428090D01*
X213255867Y-66469078D01*
X212996977Y-66562364D01*
X212881020Y-66624344D01*
X212814040Y-66864435D01*
X211940396Y-66864435D01*
X210637777Y-62948617D01*
X213013771Y-62948617D01*
X213046872Y-63128968D01*
X213114372Y-63299454D01*
X213213701Y-63453583D01*
X213341076Y-63585484D01*
X213491644Y-63690131D01*
X213576838Y-63727351D01*
X218296008Y-71628387D01*
X218293771Y-71788617D01*
X218326872Y-71968968D01*
X218394372Y-72139454D01*
X218493701Y-72293583D01*
X218621076Y-72425484D01*
X218771644Y-72530131D01*
X218939671Y-72603540D01*
X219118757Y-72642915D01*
X219302079Y-72646755D01*
X219482657Y-72614914D01*
X219653610Y-72548606D01*
X219808429Y-72450355D01*
X219941215Y-72323904D01*
X220046911Y-72174070D01*
X220121492Y-72006560D01*
X220162116Y-71827754D01*
X220165040Y-71618319D01*
X220129425Y-71438448D01*
X220059550Y-71268920D01*
X219958079Y-71116193D01*
X219828875Y-70986084D01*
X219676860Y-70883549D01*
X219603098Y-70852542D01*
X214882652Y-62949371D01*
X214885040Y-62778319D01*
X214849425Y-62598448D01*
X214779550Y-62428920D01*
X214678079Y-62276193D01*
X214548875Y-62146084D01*
X214396860Y-62043549D01*
X214227825Y-61972493D01*
X214048207Y-61935623D01*
X213864849Y-61934343D01*
X213684733Y-61968701D01*
X213514722Y-62037390D01*
X213361291Y-62137793D01*
X213230283Y-62266086D01*
X213126689Y-62417381D01*
X213054454Y-62585916D01*
X213016331Y-62765272D01*
X213013771Y-62948617D01*
X210637777Y-62948617D01*
X210160385Y-61513527D01*
X210320196Y-61679016D01*
X210545163Y-61835372D01*
X210796215Y-61945054D01*
X211063789Y-62003884D01*
X211337695Y-62009622D01*
X211607499Y-61962048D01*
X211862923Y-61862975D01*
X212094240Y-61716177D01*
X212292639Y-61527245D01*
X212450561Y-61303375D01*
X212561993Y-61053095D01*
X212622690Y-60785938D01*
X212627059Y-60473017D01*
X212573846Y-60204269D01*
X212469446Y-59950975D01*
X212317835Y-59722783D01*
X212124790Y-59528385D01*
X211897662Y-59375185D01*
X211645103Y-59269019D01*
X211376733Y-59213931D01*
X211102774Y-59212018D01*
X210833661Y-59263354D01*
X210579644Y-59365984D01*
X210350399Y-59515997D01*
X210154658Y-59707681D01*
X209999877Y-59933734D01*
X209891950Y-60185546D01*
X209834989Y-60453524D01*
X209831164Y-60727464D01*
X209858144Y-60874465D01*
X206717302Y-55345582D01*
X202276195Y-50200511D01*
X196920319Y-46016042D01*
X190853678Y-42951561D01*
X184307347Y-41123792D01*
X177530674Y-40602356D01*
X170781782Y-41407112D01*
X164317732Y-43507410D01*
X158384739Y-46823247D01*
X153208789Y-51228326D01*
X148987031Y-56554859D01*
X145880272Y-62599959D01*
X144006846Y-69133370D01*
X143438113Y-75906237D01*
X143109428Y-75906237D01*
X143141993Y-75833095D01*
X143202690Y-75565938D01*
X143207059Y-75253017D01*
X143153846Y-74984269D01*
X143049446Y-74730975D01*
X142897835Y-74502783D01*
X142704790Y-74308385D01*
X142477662Y-74155185D01*
X142225103Y-74049019D01*
X141956733Y-73993931D01*
X141682774Y-73992018D01*
X141413661Y-74043354D01*
X141159644Y-74145984D01*
X140930399Y-74295997D01*
X140734658Y-74487681D01*
X140579877Y-74713734D01*
X140471950Y-74965546D01*
X140414989Y-75233524D01*
X140411164Y-75507464D01*
X139469518Y-75507464D01*
X137775784Y-70487668D01*
X137812116Y-70327754D01*
X137815040Y-70118319D01*
X137779425Y-69938448D01*
X137709550Y-69768920D01*
X137608079Y-69616193D01*
X137478875Y-69486084D01*
X137326860Y-69383549D01*
X137157825Y-69312493D01*
X136978207Y-69275623D01*
X136794849Y-69274343D01*
X136614733Y-69308701D01*
X136444722Y-69377390D01*
X136321256Y-69458184D01*
X136643888Y-66581855D01*
X138027159Y-62221235D01*
X138034372Y-62239454D01*
X138133701Y-62393583D01*
X138177094Y-62438518D01*
X139232193Y-71639342D01*
X139226689Y-71647381D01*
X139154454Y-71815916D01*
X139116331Y-71995272D01*
X139113771Y-72178617D01*
X139146872Y-72358968D01*
X139214372Y-72529454D01*
X139313701Y-72683583D01*
X139441076Y-72815484D01*
X139591644Y-72920131D01*
X139759671Y-72993540D01*
X139938757Y-73032915D01*
X140122079Y-73036755D01*
X140302657Y-73004914D01*
X140473610Y-72938606D01*
X140628429Y-72840355D01*
X140761215Y-72713904D01*
X140866911Y-72564070D01*
X140941492Y-72396560D01*
X140982116Y-72217754D01*
X140985040Y-72008319D01*
X140949425Y-71828448D01*
X140879550Y-71658920D01*
X140778079Y-71506193D01*
X140742814Y-71470681D01*
X139687934Y-62271771D01*
X139761492Y-62106560D01*
X139802116Y-61927754D01*
X139805040Y-61718319D01*
X139769425Y-61538448D01*
X139699550Y-61368920D01*
X139598079Y-61216193D01*
X139468875Y-61086084D01*
X139316860Y-60983549D01*
X139147825Y-60912493D01*
X138968207Y-60875623D01*
X138784849Y-60874343D01*
X138604733Y-60908701D01*
X138434722Y-60977390D01*
X138418326Y-60988119D01*
X139146772Y-58691767D01*
X141612082Y-54207384D01*
X141664372Y-54339454D01*
X141695921Y-54388409D01*
X140900089Y-63616483D01*
X140890283Y-63626086D01*
X140786689Y-63777381D01*
X140714454Y-63945916D01*
X140676331Y-64125272D01*
X140673771Y-64308617D01*
X140706872Y-64488968D01*
X140774372Y-64659454D01*
X140873701Y-64813583D01*
X141001076Y-64945484D01*
X141151644Y-65050131D01*
X141319671Y-65123540D01*
X141498757Y-65162915D01*
X141682079Y-65166755D01*
X141862657Y-65134914D01*
X142033610Y-65068606D01*
X142188429Y-64970355D01*
X142321215Y-64843904D01*
X142426911Y-64694070D01*
X142501492Y-64526560D01*
X142542116Y-64347754D01*
X142545040Y-64138319D01*
X142509425Y-63958448D01*
X142439550Y-63788920D01*
X142414156Y-63750698D01*
X143209758Y-54525292D01*
X143211215Y-54523904D01*
X143316911Y-54374070D01*
X143391492Y-54206560D01*
X143432116Y-54027754D01*
X143435040Y-53818319D01*
X143399425Y-53638448D01*
X143329550Y-53468920D01*
X143228079Y-53316193D01*
X143098875Y-53186084D01*
X142946860Y-53083549D01*
X142777825Y-53012493D01*
X142598207Y-52975623D01*
X142414849Y-52974343D01*
X142275320Y-53000959D01*
X143134514Y-51438091D01*
X146815266Y-47051542D01*
X146813771Y-47158617D01*
X146846872Y-47338968D01*
X146860186Y-47372594D01*
X144100737Y-56088524D01*
X144071291Y-56107793D01*
X143940283Y-56236086D01*
X143836689Y-56387381D01*
X143764454Y-56555916D01*
X143726331Y-56735272D01*
X143723771Y-56918617D01*
X143756872Y-57098968D01*
X143824372Y-57269454D01*
X143923701Y-57423583D01*
X144051076Y-57555484D01*
X144201644Y-57660131D01*
X144369671Y-57733540D01*
X144548757Y-57772915D01*
X144732079Y-57776755D01*
X144912657Y-57744914D01*
X145083610Y-57678606D01*
X145238429Y-57580355D01*
X145371215Y-57453904D01*
X145476911Y-57304070D01*
X145551492Y-57136560D01*
X145592116Y-56957754D01*
X145595040Y-56748319D01*
X145559425Y-56568448D01*
X145550222Y-56546119D01*
X148308850Y-47832780D01*
X148328429Y-47820355D01*
X148461215Y-47693904D01*
X148566911Y-47544070D01*
X148641492Y-47376560D01*
X148682116Y-47197754D01*
X148685040Y-46988319D01*
X148649425Y-46808448D01*
X148579550Y-46638920D01*
X148478079Y-46486193D01*
X148348875Y-46356084D01*
X148196860Y-46253549D01*
X148027825Y-46182493D01*
X147848207Y-46145623D01*
X147664849Y-46144343D01*
X147559659Y-46164408D01*
X148455224Y-45097116D01*
X153365215Y-41149382D01*
X153336331Y-41285272D01*
X153333771Y-41468617D01*
X153338992Y-41497061D01*
X148834121Y-49541472D01*
X148794722Y-49557390D01*
X148641291Y-49657793D01*
X148510283Y-49786086D01*
X148406689Y-49937381D01*
X148334454Y-50105916D01*
X148296331Y-50285272D01*
X148293771Y-50468617D01*
X148326872Y-50648968D01*
X148394372Y-50819454D01*
X148493701Y-50973583D01*
X148621076Y-51105484D01*
X148771644Y-51210131D01*
X148939671Y-51283540D01*
X149118757Y-51322915D01*
X149302079Y-51326755D01*
X149482657Y-51294914D01*
X149653610Y-51228606D01*
X149808429Y-51130355D01*
X149941215Y-51003904D01*
X150046911Y-50854070D01*
X150121492Y-50686560D01*
X150162116Y-50507754D01*
X150165040Y-50298319D01*
X150161737Y-50281639D01*
X154665283Y-42239593D01*
X154693610Y-42228606D01*
X154848429Y-42130355D01*
X154981215Y-42003904D01*
X155086911Y-41854070D01*
X155161492Y-41686560D01*
X155202116Y-41507754D01*
X155205040Y-41298319D01*
X155169425Y-41118448D01*
X155099550Y-40948920D01*
X154998079Y-40796193D01*
X154868875Y-40666084D01*
X154716860Y-40563549D01*
X154547825Y-40492493D01*
X154368207Y-40455623D01*
X154229283Y-40454653D01*
X154906236Y-39910369D01*
X161055171Y-36695784D01*
X161026689Y-36737381D01*
X160954454Y-36905916D01*
X160916331Y-37085272D01*
X160916096Y-37102122D01*
X154848710Y-44018405D01*
X154794733Y-44028701D01*
X154624722Y-44097390D01*
X154471291Y-44197793D01*
X154340283Y-44326086D01*
X154236689Y-44477381D01*
X154164454Y-44645916D01*
X154126331Y-44825272D01*
X154123771Y-45008617D01*
X154156872Y-45188968D01*
X154224372Y-45359454D01*
X154323701Y-45513583D01*
X154451076Y-45645484D01*
X154601644Y-45750131D01*
X154769671Y-45823540D01*
X154948757Y-45862915D01*
X155132079Y-45866755D01*
X155312657Y-45834914D01*
X155483610Y-45768606D01*
X155638429Y-45670355D01*
X155771215Y-45543904D01*
X155876911Y-45394070D01*
X155951492Y-45226560D01*
X155992116Y-45047754D01*
X155992511Y-45019467D01*
X162060653Y-38102321D01*
X162102657Y-38094914D01*
X162273610Y-38028606D01*
X162428429Y-37930355D01*
X162561215Y-37803904D01*
X162666911Y-37654070D01*
X162741492Y-37486560D01*
X162782116Y-37307754D01*
X162785040Y-37098319D01*
X162749425Y-36918448D01*
X162679550Y-36748920D01*
X162578079Y-36596193D01*
X162448875Y-36466084D01*
X162296860Y-36363549D01*
X162127825Y-36292493D01*
X161948207Y-36255623D01*
X161897794Y-36255271D01*
X162241835Y-36075411D01*
X169552914Y-33923643D01*
X169531291Y-33937793D01*
X169400283Y-34066086D01*
X169296689Y-34217381D01*
X169224454Y-34385916D01*
X169224051Y-34387811D01*
X161855726Y-39844838D01*
X161784849Y-39844343D01*
X161604733Y-39878701D01*
X161434722Y-39947390D01*
X161281291Y-40047793D01*
X161150283Y-40176086D01*
X161046689Y-40327381D01*
X160974454Y-40495916D01*
X160936331Y-40675272D01*
X160933771Y-40858617D01*
X160966872Y-41038968D01*
X161034372Y-41209454D01*
X161133701Y-41363583D01*
X161261076Y-41495484D01*
X161411644Y-41600131D01*
X161579671Y-41673540D01*
X161758757Y-41712915D01*
X161942079Y-41716755D01*
X162122657Y-41684914D01*
X162293610Y-41618606D01*
X162448429Y-41520355D01*
X162581215Y-41393904D01*
X162686911Y-41244070D01*
X162761492Y-41076560D01*
X162764516Y-41063250D01*
X163096387Y-40817464D01*
X165431164Y-40817464D01*
X165480620Y-41086928D01*
X165581474Y-41341655D01*
X165729883Y-41571942D01*
X165920196Y-41769016D01*
X166145163Y-41925372D01*
X166396215Y-42035054D01*
X166663789Y-42093884D01*
X166937695Y-42099622D01*
X167207499Y-42052048D01*
X167462923Y-41952975D01*
X167694240Y-41806177D01*
X167892639Y-41617245D01*
X168050561Y-41393375D01*
X168161993Y-41143095D01*
X168222690Y-40875938D01*
X168227059Y-40563017D01*
X168173846Y-40294269D01*
X168069446Y-40040975D01*
X167917835Y-39812783D01*
X167724790Y-39618385D01*
X167497662Y-39465185D01*
X167245103Y-39359019D01*
X166976733Y-39303931D01*
X166702774Y-39302018D01*
X166433661Y-39353354D01*
X166179644Y-39455984D01*
X165950399Y-39605997D01*
X165754658Y-39797681D01*
X165599877Y-40023734D01*
X165491950Y-40275546D01*
X165434989Y-40543524D01*
X165431164Y-40817464D01*
X163096387Y-40817464D01*
X165175765Y-39277464D01*
X172781164Y-39277464D01*
X172830620Y-39546928D01*
X172931474Y-39801655D01*
X173079883Y-40031942D01*
X173270196Y-40229016D01*
X173495163Y-40385372D01*
X173746215Y-40495054D01*
X174013789Y-40553884D01*
X174287695Y-40559622D01*
X174557499Y-40512048D01*
X174812923Y-40412975D01*
X175044240Y-40266177D01*
X175242639Y-40077245D01*
X175400561Y-39853375D01*
X175511993Y-39603095D01*
X175572690Y-39335938D01*
X175577059Y-39023017D01*
X175523846Y-38754269D01*
X175419446Y-38500975D01*
X175267835Y-38272783D01*
X175074790Y-38078385D01*
X174847662Y-37925185D01*
X174595103Y-37819019D01*
X174326733Y-37763931D01*
X174052774Y-37762018D01*
X173783661Y-37813354D01*
X173529644Y-37915984D01*
X173300399Y-38065997D01*
X173104658Y-38257681D01*
X172949877Y-38483734D01*
X172841950Y-38735546D01*
X172784989Y-39003524D01*
X172781164Y-39277464D01*
X165175765Y-39277464D01*
X170133773Y-35605534D01*
X170192079Y-35606755D01*
X170372657Y-35574914D01*
X170543610Y-35508606D01*
X170698429Y-35410355D01*
X170831215Y-35283904D01*
X170936911Y-35134070D01*
X171011492Y-34966560D01*
X171052116Y-34787754D01*
X171055040Y-34578319D01*
X171019425Y-34398448D01*
X170949550Y-34228920D01*
X170848079Y-34076193D01*
X170718875Y-33946084D01*
X170566860Y-33843549D01*
X170397825Y-33772493D01*
X170218207Y-33735623D01*
X170212607Y-33735584D01*
X178426096Y-32988098D01*
X186658305Y-33853338D01*
M02*
