G04 #@! TF.FileFunction,Soldermask,Top*
%FSLAX46Y46*%
G04 Gerber Fmt 4.6, Leading zero omitted, Abs format (unit mm)*
G04 Created by KiCad (PCBNEW 4.0.1-stable) date 1/7/2016 3:17:11 PM*
%MOMM*%
G01*
G04 APERTURE LIST*
%ADD10C,0.100000*%
%ADD11R,1.900000X1.300000*%
%ADD12R,1.600000X1.150000*%
%ADD13C,1.924000*%
%ADD14R,1.600000X1.300000*%
G04 APERTURE END LIST*
D10*
G36*
X205263670Y-97724746D02*
X206118287Y-98494246D01*
X205047678Y-99683278D01*
X204193061Y-98913778D01*
X205263670Y-97724746D01*
X205263670Y-97724746D01*
G37*
G36*
X203992322Y-99136722D02*
X204846939Y-99906222D01*
X203776330Y-101095254D01*
X202921713Y-100325754D01*
X203992322Y-99136722D01*
X203992322Y-99136722D01*
G37*
D11*
X180440000Y-33910000D03*
X180440000Y-37210000D03*
X175540000Y-33910000D03*
X175540000Y-37210000D03*
D10*
G36*
X214026025Y-56349038D02*
X215151859Y-55699038D01*
X216101859Y-57344486D01*
X214976025Y-57994486D01*
X214026025Y-56349038D01*
X214026025Y-56349038D01*
G37*
G36*
X211168141Y-57999038D02*
X212293975Y-57349038D01*
X213243975Y-58994486D01*
X212118141Y-59644486D01*
X211168141Y-57999038D01*
X211168141Y-57999038D01*
G37*
G36*
X211576025Y-52105514D02*
X212701859Y-51455514D01*
X213651859Y-53100962D01*
X212526025Y-53750962D01*
X211576025Y-52105514D01*
X211576025Y-52105514D01*
G37*
G36*
X208718141Y-53755514D02*
X209843975Y-53105514D01*
X210793975Y-54750962D01*
X209668141Y-55400962D01*
X208718141Y-53755514D01*
X208718141Y-53755514D01*
G37*
G36*
X200724260Y-109140695D02*
X201488381Y-110192417D01*
X199951248Y-111309209D01*
X199187127Y-110257487D01*
X200724260Y-109140695D01*
X200724260Y-109140695D01*
G37*
G36*
X198784569Y-106470939D02*
X199548690Y-107522661D01*
X198011557Y-108639453D01*
X197247436Y-107587731D01*
X198784569Y-106470939D01*
X198784569Y-106470939D01*
G37*
G36*
X204688443Y-106260547D02*
X205452564Y-107312269D01*
X203915431Y-108429061D01*
X203151310Y-107377339D01*
X204688443Y-106260547D01*
X204688443Y-106260547D01*
G37*
G36*
X202748752Y-103590791D02*
X203512873Y-104642513D01*
X201975740Y-105759305D01*
X201211619Y-104707583D01*
X202748752Y-103590791D01*
X202748752Y-103590791D01*
G37*
G36*
X183638693Y-40428590D02*
X183877791Y-39303720D01*
X185442827Y-39636378D01*
X185203729Y-40761248D01*
X183638693Y-40428590D01*
X183638693Y-40428590D01*
G37*
G36*
X185497173Y-40823622D02*
X185736271Y-39698752D01*
X187301307Y-40031410D01*
X187062209Y-41156280D01*
X185497173Y-40823622D01*
X185497173Y-40823622D01*
G37*
G36*
X190617422Y-42283499D02*
X191085169Y-41232922D01*
X192546842Y-41883701D01*
X192079095Y-42934278D01*
X190617422Y-42283499D01*
X190617422Y-42283499D01*
G37*
G36*
X192353158Y-43056299D02*
X192820905Y-42005722D01*
X194282578Y-42656501D01*
X193814831Y-43707078D01*
X192353158Y-43056299D01*
X192353158Y-43056299D01*
G37*
G36*
X197066244Y-45536561D02*
X197742197Y-44606191D01*
X199036624Y-45546647D01*
X198360671Y-46477017D01*
X197066244Y-45536561D01*
X197066244Y-45536561D01*
G37*
G36*
X198603376Y-46653353D02*
X199279329Y-45722983D01*
X200573756Y-46663439D01*
X199897803Y-47593809D01*
X198603376Y-46653353D01*
X198603376Y-46653353D01*
G37*
G36*
X202981713Y-50274246D02*
X203836330Y-49504746D01*
X204906939Y-50693778D01*
X204052322Y-51463278D01*
X202981713Y-50274246D01*
X202981713Y-50274246D01*
G37*
G36*
X204253061Y-51686222D02*
X205107678Y-50916722D01*
X206178287Y-52105754D01*
X205323670Y-52875254D01*
X204253061Y-51686222D01*
X204253061Y-51686222D01*
G37*
G36*
X207717035Y-56221956D02*
X208712965Y-55646956D01*
X209512965Y-57032596D01*
X208517035Y-57607596D01*
X207717035Y-56221956D01*
X207717035Y-56221956D01*
G37*
G36*
X208667035Y-57867404D02*
X209662965Y-57292404D01*
X210462965Y-58678044D01*
X209467035Y-59253044D01*
X208667035Y-57867404D01*
X208667035Y-57867404D01*
G37*
G36*
X211032363Y-62833336D02*
X212126078Y-62477966D01*
X212620505Y-63999656D01*
X211526790Y-64355026D01*
X211032363Y-62833336D01*
X211032363Y-62833336D01*
G37*
G36*
X211619495Y-64640344D02*
X212713210Y-64284974D01*
X213207637Y-65806664D01*
X212113922Y-66162034D01*
X211619495Y-64640344D01*
X211619495Y-64640344D01*
G37*
G36*
X212935225Y-69959690D02*
X214078925Y-69839483D01*
X214246171Y-71430718D01*
X213102471Y-71550925D01*
X212935225Y-69959690D01*
X212935225Y-69959690D01*
G37*
G36*
X213133829Y-71849282D02*
X214277529Y-71729075D01*
X214444775Y-73320310D01*
X213301075Y-73440517D01*
X213133829Y-71849282D01*
X213133829Y-71849282D01*
G37*
G36*
X213351075Y-77219483D02*
X214494775Y-77339690D01*
X214327529Y-78930925D01*
X213183829Y-78810718D01*
X213351075Y-77219483D01*
X213351075Y-77219483D01*
G37*
G36*
X213152471Y-79109075D02*
X214296171Y-79229282D01*
X214128925Y-80820517D01*
X212985225Y-80700310D01*
X213152471Y-79109075D01*
X213152471Y-79109075D01*
G37*
G36*
X212173922Y-84437966D02*
X213267637Y-84793336D01*
X212773210Y-86315026D01*
X211679495Y-85959656D01*
X212173922Y-84437966D01*
X212173922Y-84437966D01*
G37*
G36*
X211586790Y-86244974D02*
X212680505Y-86600344D01*
X212186078Y-88122034D01*
X211092363Y-87766664D01*
X211586790Y-86244974D01*
X211586790Y-86244974D01*
G37*
G36*
X209427035Y-91576956D02*
X210422965Y-92151956D01*
X209622965Y-93537596D01*
X208627035Y-92962596D01*
X209427035Y-91576956D01*
X209427035Y-91576956D01*
G37*
G36*
X208477035Y-93222404D02*
X209472965Y-93797404D01*
X208672965Y-95183044D01*
X207677035Y-94608044D01*
X208477035Y-93222404D01*
X208477035Y-93222404D01*
G37*
G36*
X200287803Y-102776191D02*
X200963756Y-103706561D01*
X199669329Y-104647017D01*
X198993376Y-103716647D01*
X200287803Y-102776191D01*
X200287803Y-102776191D01*
G37*
G36*
X198750671Y-103892983D02*
X199426624Y-104823353D01*
X198132197Y-105763809D01*
X197456244Y-104833439D01*
X198750671Y-103892983D01*
X198750671Y-103892983D01*
G37*
G36*
X194034831Y-106832922D02*
X194502578Y-107883499D01*
X193040905Y-108534278D01*
X192573158Y-107483701D01*
X194034831Y-106832922D01*
X194034831Y-106832922D01*
G37*
G36*
X192299095Y-107605722D02*
X192766842Y-108656299D01*
X191305169Y-109307078D01*
X190837422Y-108256501D01*
X192299095Y-107605722D01*
X192299095Y-107605722D01*
G37*
G36*
X187112209Y-109543720D02*
X187351307Y-110668590D01*
X185786271Y-111001248D01*
X185547173Y-109876378D01*
X187112209Y-109543720D01*
X187112209Y-109543720D01*
G37*
G36*
X185253729Y-109938752D02*
X185492827Y-111063622D01*
X183927791Y-111396280D01*
X183688693Y-110271410D01*
X185253729Y-109938752D01*
X185253729Y-109938752D01*
G37*
D12*
X179100000Y-111260000D03*
X177200000Y-111260000D03*
D10*
G36*
X172381307Y-110271410D02*
X172142209Y-111396280D01*
X170577173Y-111063622D01*
X170816271Y-109938752D01*
X172381307Y-110271410D01*
X172381307Y-110271410D01*
G37*
G36*
X170522827Y-109876378D02*
X170283729Y-111001248D01*
X168718693Y-110668590D01*
X168957791Y-109543720D01*
X170522827Y-109876378D01*
X170522827Y-109876378D01*
G37*
G36*
X165332578Y-108366501D02*
X164864831Y-109417078D01*
X163403158Y-108766299D01*
X163870905Y-107715722D01*
X165332578Y-108366501D01*
X165332578Y-108366501D01*
G37*
G36*
X163596842Y-107593701D02*
X163129095Y-108644278D01*
X161667422Y-107993499D01*
X162135169Y-106942922D01*
X163596842Y-107593701D01*
X163596842Y-107593701D01*
G37*
G36*
X158613756Y-104833439D02*
X157937803Y-105763809D01*
X156643376Y-104823353D01*
X157319329Y-103892983D01*
X158613756Y-104833439D01*
X158613756Y-104833439D01*
G37*
G36*
X157076624Y-103716647D02*
X156400671Y-104647017D01*
X155106244Y-103706561D01*
X155782197Y-102776191D01*
X157076624Y-103716647D01*
X157076624Y-103716647D01*
G37*
G36*
X153028287Y-100215754D02*
X152173670Y-100985254D01*
X151103061Y-99796222D01*
X151957678Y-99026722D01*
X153028287Y-100215754D01*
X153028287Y-100215754D01*
G37*
G36*
X151756939Y-98803778D02*
X150902322Y-99573278D01*
X149831713Y-98384246D01*
X150686330Y-97614746D01*
X151756939Y-98803778D01*
X151756939Y-98803778D01*
G37*
G36*
X148332965Y-94658044D02*
X147337035Y-95233044D01*
X146537035Y-93847404D01*
X147532965Y-93272404D01*
X148332965Y-94658044D01*
X148332965Y-94658044D01*
G37*
G36*
X147382965Y-93012596D02*
X146387035Y-93587596D01*
X145587035Y-92201956D01*
X146582965Y-91626956D01*
X147382965Y-93012596D01*
X147382965Y-93012596D01*
G37*
G36*
X145037637Y-87876664D02*
X143943922Y-88232034D01*
X143449495Y-86710344D01*
X144543210Y-86354974D01*
X145037637Y-87876664D01*
X145037637Y-87876664D01*
G37*
G36*
X144450505Y-86069656D02*
X143356790Y-86425026D01*
X142862363Y-84903336D01*
X143956078Y-84547966D01*
X144450505Y-86069656D01*
X144450505Y-86069656D01*
G37*
G36*
X143134775Y-80860310D02*
X141991075Y-80980517D01*
X141823829Y-79389282D01*
X142967529Y-79269075D01*
X143134775Y-80860310D01*
X143134775Y-80860310D01*
G37*
G36*
X142936171Y-78970718D02*
X141792471Y-79090925D01*
X141625225Y-77499690D01*
X142768925Y-77379483D01*
X142936171Y-78970718D01*
X142936171Y-78970718D01*
G37*
G36*
X142718925Y-73330517D02*
X141575225Y-73210310D01*
X141742471Y-71619075D01*
X142886171Y-71739282D01*
X142718925Y-73330517D01*
X142718925Y-73330517D01*
G37*
G36*
X142917529Y-71440925D02*
X141773829Y-71320718D01*
X141941075Y-69729483D01*
X143084775Y-69849690D01*
X142917529Y-71440925D01*
X142917529Y-71440925D01*
G37*
G36*
X143846078Y-66052034D02*
X142752363Y-65696664D01*
X143246790Y-64174974D01*
X144340505Y-64530344D01*
X143846078Y-66052034D01*
X143846078Y-66052034D01*
G37*
G36*
X144433210Y-64245026D02*
X143339495Y-63889656D01*
X143833922Y-62367966D01*
X144927637Y-62723336D01*
X144433210Y-64245026D01*
X144433210Y-64245026D01*
G37*
G36*
X146532965Y-59193044D02*
X145537035Y-58618044D01*
X146337035Y-57232404D01*
X147332965Y-57807404D01*
X146532965Y-59193044D01*
X146532965Y-59193044D01*
G37*
G36*
X147482965Y-57547596D02*
X146487035Y-56972596D01*
X147287035Y-55586956D01*
X148282965Y-56161956D01*
X147482965Y-57547596D01*
X147482965Y-57547596D01*
G37*
G36*
X150526330Y-52875254D02*
X149671713Y-52105754D01*
X150742322Y-50916722D01*
X151596939Y-51686222D01*
X150526330Y-52875254D01*
X150526330Y-52875254D01*
G37*
G36*
X151797678Y-51463278D02*
X150943061Y-50693778D01*
X152013670Y-49504746D01*
X152868287Y-50274246D01*
X151797678Y-51463278D01*
X151797678Y-51463278D01*
G37*
G36*
X155832197Y-47763809D02*
X155156244Y-46833439D01*
X156450671Y-45892983D01*
X157126624Y-46823353D01*
X155832197Y-47763809D01*
X155832197Y-47763809D01*
G37*
G36*
X157369329Y-46647017D02*
X156693376Y-45716647D01*
X157987803Y-44776191D01*
X158663756Y-45706561D01*
X157369329Y-46647017D01*
X157369329Y-46647017D01*
G37*
G36*
X162025169Y-43877078D02*
X161557422Y-42826501D01*
X163019095Y-42175722D01*
X163486842Y-43226299D01*
X162025169Y-43877078D01*
X162025169Y-43877078D01*
G37*
G36*
X163760905Y-43104278D02*
X163293158Y-42053701D01*
X164754831Y-41402922D01*
X165222578Y-42453499D01*
X163760905Y-43104278D01*
X163760905Y-43104278D01*
G37*
G36*
X169007791Y-41156280D02*
X168768693Y-40031410D01*
X170333729Y-39698752D01*
X170572827Y-40823622D01*
X169007791Y-41156280D01*
X169007791Y-41156280D01*
G37*
G36*
X170866271Y-40761248D02*
X170627173Y-39636378D01*
X172192209Y-39303720D01*
X172431307Y-40428590D01*
X170866271Y-40761248D01*
X170866271Y-40761248D01*
G37*
G36*
X187925133Y-35763720D02*
X188195418Y-34492128D01*
X190053899Y-34887160D01*
X189783614Y-36158752D01*
X187925133Y-35763720D01*
X187925133Y-35763720D01*
G37*
G36*
X187239024Y-38991607D02*
X187509309Y-37720015D01*
X189367790Y-38115047D01*
X189097505Y-39386639D01*
X187239024Y-38991607D01*
X187239024Y-38991607D01*
G37*
G36*
X183132210Y-34744953D02*
X183402495Y-33473361D01*
X185260976Y-33868393D01*
X184990691Y-35139985D01*
X183132210Y-34744953D01*
X183132210Y-34744953D01*
G37*
G36*
X182446101Y-37972840D02*
X182716386Y-36701248D01*
X184574867Y-37096280D01*
X184304582Y-38367872D01*
X182446101Y-37972840D01*
X182446101Y-37972840D01*
G37*
G36*
X195927055Y-38696560D02*
X196455813Y-37508951D01*
X198191549Y-38281750D01*
X197662791Y-39469359D01*
X195927055Y-38696560D01*
X195927055Y-38696560D01*
G37*
G36*
X194584824Y-41711260D02*
X195113582Y-40523651D01*
X196849318Y-41296450D01*
X196320560Y-42484059D01*
X194584824Y-41711260D01*
X194584824Y-41711260D01*
G37*
G36*
X191450682Y-36703550D02*
X191979440Y-35515941D01*
X193715176Y-36288740D01*
X193186418Y-37476349D01*
X191450682Y-36703550D01*
X191450682Y-36703550D01*
G37*
G36*
X190108451Y-39718250D02*
X190637209Y-38530641D01*
X192372945Y-39303440D01*
X191844187Y-40491049D01*
X190108451Y-39718250D01*
X190108451Y-39718250D01*
G37*
G36*
X203151310Y-43222661D02*
X203915431Y-42170939D01*
X205452564Y-43287731D01*
X204688443Y-44339453D01*
X203151310Y-43222661D01*
X203151310Y-43222661D01*
G37*
G36*
X201211619Y-45892417D02*
X201975740Y-44840695D01*
X203512873Y-45957487D01*
X202748752Y-47009209D01*
X201211619Y-45892417D01*
X201211619Y-45892417D01*
G37*
G36*
X199187127Y-40342513D02*
X199951248Y-39290791D01*
X201488381Y-40407583D01*
X200724260Y-41459305D01*
X199187127Y-40342513D01*
X199187127Y-40342513D01*
G37*
G36*
X197247436Y-43012269D02*
X198011557Y-41960547D01*
X199548690Y-43077339D01*
X198784569Y-44129061D01*
X197247436Y-43012269D01*
X197247436Y-43012269D01*
G37*
G36*
X209266841Y-49155586D02*
X210232929Y-48285717D01*
X211504277Y-49697692D01*
X210538189Y-50567561D01*
X209266841Y-49155586D01*
X209266841Y-49155586D01*
G37*
G36*
X206814463Y-51363717D02*
X207780551Y-50493848D01*
X209051899Y-51905823D01*
X208085811Y-52775692D01*
X206814463Y-51363717D01*
X206814463Y-51363717D01*
G37*
G36*
X205988101Y-45514177D02*
X206954189Y-44644308D01*
X208225537Y-46056283D01*
X207259449Y-46926152D01*
X205988101Y-45514177D01*
X205988101Y-45514177D01*
G37*
G36*
X203535723Y-47722308D02*
X204501811Y-46852439D01*
X205773159Y-48264414D01*
X204807071Y-49134283D01*
X203535723Y-47722308D01*
X203535723Y-47722308D01*
G37*
G36*
X217194582Y-64137567D02*
X218430956Y-63735845D01*
X219018088Y-65542853D01*
X217781714Y-65944575D01*
X217194582Y-64137567D01*
X217194582Y-64137567D01*
G37*
G36*
X214056095Y-65157324D02*
X215292469Y-64755602D01*
X215879601Y-66562610D01*
X214643227Y-66964332D01*
X214056095Y-65157324D01*
X214056095Y-65157324D01*
G37*
G36*
X215680399Y-59477390D02*
X216916773Y-59075668D01*
X217503905Y-60882676D01*
X216267531Y-61284398D01*
X215680399Y-59477390D01*
X215680399Y-59477390D01*
G37*
G36*
X212541912Y-60497147D02*
X213778286Y-60095425D01*
X214365418Y-61902433D01*
X213129044Y-62304155D01*
X212541912Y-60497147D01*
X212541912Y-60497147D01*
G37*
G36*
X218661315Y-72537255D02*
X219954193Y-72401368D01*
X220152797Y-74290959D01*
X218859919Y-74426846D01*
X218661315Y-72537255D01*
X218661315Y-72537255D01*
G37*
G36*
X215379393Y-72882199D02*
X216672271Y-72746312D01*
X216870875Y-74635903D01*
X215577997Y-74771790D01*
X215379393Y-72882199D01*
X215379393Y-72882199D01*
G37*
G36*
X218149125Y-67664097D02*
X219442003Y-67528210D01*
X219640607Y-69417801D01*
X218347729Y-69553688D01*
X218149125Y-67664097D01*
X218149125Y-67664097D01*
G37*
G36*
X214867203Y-68009041D02*
X216160081Y-67873154D01*
X216358685Y-69762745D01*
X215065807Y-69898632D01*
X214867203Y-68009041D01*
X214867203Y-68009041D01*
G37*
G36*
X218347729Y-81046312D02*
X219640607Y-81182199D01*
X219442003Y-83071790D01*
X218149125Y-82935903D01*
X218347729Y-81046312D01*
X218347729Y-81046312D01*
G37*
G36*
X215065807Y-80701368D02*
X216358685Y-80837255D01*
X216160081Y-82726846D01*
X214867203Y-82590959D01*
X215065807Y-80701368D01*
X215065807Y-80701368D01*
G37*
G36*
X218859919Y-76173154D02*
X220152797Y-76309041D01*
X219954193Y-78198632D01*
X218661315Y-78062745D01*
X218859919Y-76173154D01*
X218859919Y-76173154D01*
G37*
G36*
X215577997Y-75828210D02*
X216870875Y-75964097D01*
X216672271Y-77853688D01*
X215379393Y-77717801D01*
X215577997Y-75828210D01*
X215577997Y-75828210D01*
G37*
G36*
X216277531Y-89315602D02*
X217513905Y-89717324D01*
X216926773Y-91524332D01*
X215690399Y-91122610D01*
X216277531Y-89315602D01*
X216277531Y-89315602D01*
G37*
G36*
X213139044Y-88295845D02*
X214375418Y-88697567D01*
X213788286Y-90504575D01*
X212551912Y-90102853D01*
X213139044Y-88295845D01*
X213139044Y-88295845D01*
G37*
G36*
X217791714Y-84655425D02*
X219028088Y-85057147D01*
X218440956Y-86864155D01*
X217204582Y-86462433D01*
X217791714Y-84655425D01*
X217791714Y-84655425D01*
G37*
G36*
X214653227Y-83635668D02*
X215889601Y-84037390D01*
X215302469Y-85844398D01*
X214066095Y-85442676D01*
X214653227Y-83635668D01*
X214653227Y-83635668D01*
G37*
G36*
X212526025Y-96969038D02*
X213651859Y-97619038D01*
X212701859Y-99264486D01*
X211576025Y-98614486D01*
X212526025Y-96969038D01*
X212526025Y-96969038D01*
G37*
G36*
X209668141Y-95319038D02*
X210793975Y-95969038D01*
X209843975Y-97614486D01*
X208718141Y-96964486D01*
X209668141Y-95319038D01*
X209668141Y-95319038D01*
G37*
G36*
X214976025Y-92725514D02*
X216101859Y-93375514D01*
X215151859Y-95020962D01*
X214026025Y-94370962D01*
X214976025Y-92725514D01*
X214976025Y-92725514D01*
G37*
G36*
X212118141Y-91075514D02*
X213243975Y-91725514D01*
X212293975Y-93370962D01*
X211168141Y-92720962D01*
X212118141Y-91075514D01*
X212118141Y-91075514D01*
G37*
G36*
X207259449Y-103673848D02*
X208225537Y-104543717D01*
X206954189Y-105955692D01*
X205988101Y-105085823D01*
X207259449Y-103673848D01*
X207259449Y-103673848D01*
G37*
G36*
X204807071Y-101465717D02*
X205773159Y-102335586D01*
X204501811Y-103747561D01*
X203535723Y-102877692D01*
X204807071Y-101465717D01*
X204807071Y-101465717D01*
G37*
G36*
X210538189Y-100032439D02*
X211504277Y-100902308D01*
X210232929Y-102314283D01*
X209266841Y-101444414D01*
X210538189Y-100032439D01*
X210538189Y-100032439D01*
G37*
G36*
X208085811Y-97824308D02*
X209051899Y-98694177D01*
X207780551Y-100106152D01*
X206814463Y-99236283D01*
X208085811Y-97824308D01*
X208085811Y-97824308D01*
G37*
G36*
X193186418Y-113123651D02*
X193715176Y-114311260D01*
X191979440Y-115084059D01*
X191450682Y-113896450D01*
X193186418Y-113123651D01*
X193186418Y-113123651D01*
G37*
G36*
X191844187Y-110108951D02*
X192372945Y-111296560D01*
X190637209Y-112069359D01*
X190108451Y-110881750D01*
X191844187Y-110108951D01*
X191844187Y-110108951D01*
G37*
G36*
X197662791Y-111130641D02*
X198191549Y-112318250D01*
X196455813Y-113091049D01*
X195927055Y-111903440D01*
X197662791Y-111130641D01*
X197662791Y-111130641D01*
G37*
G36*
X196320560Y-108115941D02*
X196849318Y-109303550D01*
X195113582Y-110076349D01*
X194584824Y-108888740D01*
X196320560Y-108115941D01*
X196320560Y-108115941D01*
G37*
G36*
X184990691Y-115460015D02*
X185260976Y-116731607D01*
X183402495Y-117126639D01*
X183132210Y-115855047D01*
X184990691Y-115460015D01*
X184990691Y-115460015D01*
G37*
G36*
X184304582Y-112232128D02*
X184574867Y-113503720D01*
X182716386Y-113898752D01*
X182446101Y-112627160D01*
X184304582Y-112232128D01*
X184304582Y-112232128D01*
G37*
G36*
X189783614Y-114441248D02*
X190053899Y-115712840D01*
X188195418Y-116107872D01*
X187925133Y-114836280D01*
X189783614Y-114441248D01*
X189783614Y-114441248D01*
G37*
G36*
X189097505Y-111213361D02*
X189367790Y-112484953D01*
X187509309Y-112879985D01*
X187239024Y-111608393D01*
X189097505Y-111213361D01*
X189097505Y-111213361D01*
G37*
D11*
X175540000Y-116690000D03*
X175540000Y-113390000D03*
X180440000Y-116690000D03*
X180440000Y-113390000D03*
D10*
G36*
X168054867Y-114836280D02*
X167784582Y-116107872D01*
X165926101Y-115712840D01*
X166196386Y-114441248D01*
X168054867Y-114836280D01*
X168054867Y-114836280D01*
G37*
G36*
X168740976Y-111608393D02*
X168470691Y-112879985D01*
X166612210Y-112484953D01*
X166882495Y-111213361D01*
X168740976Y-111608393D01*
X168740976Y-111608393D01*
G37*
G36*
X172847790Y-115855047D02*
X172577505Y-117126639D01*
X170719024Y-116731607D01*
X170989309Y-115460015D01*
X172847790Y-115855047D01*
X172847790Y-115855047D01*
G37*
G36*
X173533899Y-112627160D02*
X173263614Y-113898752D01*
X171405133Y-113503720D01*
X171675418Y-112232128D01*
X173533899Y-112627160D01*
X173533899Y-112627160D01*
G37*
G36*
X160052945Y-111903440D02*
X159524187Y-113091049D01*
X157788451Y-112318250D01*
X158317209Y-111130641D01*
X160052945Y-111903440D01*
X160052945Y-111903440D01*
G37*
G36*
X161395176Y-108888740D02*
X160866418Y-110076349D01*
X159130682Y-109303550D01*
X159659440Y-108115941D01*
X161395176Y-108888740D01*
X161395176Y-108888740D01*
G37*
G36*
X164529318Y-113896450D02*
X164000560Y-115084059D01*
X162264824Y-114311260D01*
X162793582Y-113123651D01*
X164529318Y-113896450D01*
X164529318Y-113896450D01*
G37*
G36*
X165871549Y-110881750D02*
X165342791Y-112069359D01*
X163607055Y-111296560D01*
X164135813Y-110108951D01*
X165871549Y-110881750D01*
X165871549Y-110881750D01*
G37*
G36*
X152828690Y-107377339D02*
X152064569Y-108429061D01*
X150527436Y-107312269D01*
X151291557Y-106260547D01*
X152828690Y-107377339D01*
X152828690Y-107377339D01*
G37*
G36*
X154768381Y-104707583D02*
X154004260Y-105759305D01*
X152467127Y-104642513D01*
X153231248Y-103590791D01*
X154768381Y-104707583D01*
X154768381Y-104707583D01*
G37*
G36*
X156792873Y-110257487D02*
X156028752Y-111309209D01*
X154491619Y-110192417D01*
X155255740Y-109140695D01*
X156792873Y-110257487D01*
X156792873Y-110257487D01*
G37*
G36*
X158732564Y-107587731D02*
X157968443Y-108639453D01*
X156431310Y-107522661D01*
X157195431Y-106470939D01*
X158732564Y-107587731D01*
X158732564Y-107587731D01*
G37*
G36*
X146713159Y-101444414D02*
X145747071Y-102314283D01*
X144475723Y-100902308D01*
X145441811Y-100032439D01*
X146713159Y-101444414D01*
X146713159Y-101444414D01*
G37*
G36*
X149165537Y-99236283D02*
X148199449Y-100106152D01*
X146928101Y-98694177D01*
X147894189Y-97824308D01*
X149165537Y-99236283D01*
X149165537Y-99236283D01*
G37*
G36*
X149991899Y-105085823D02*
X149025811Y-105955692D01*
X147754463Y-104543717D01*
X148720551Y-103673848D01*
X149991899Y-105085823D01*
X149991899Y-105085823D01*
G37*
G36*
X152444277Y-102877692D02*
X151478189Y-103747561D01*
X150206841Y-102335586D01*
X151172929Y-101465717D01*
X152444277Y-102877692D01*
X152444277Y-102877692D01*
G37*
G36*
X141953975Y-94370962D02*
X140828141Y-95020962D01*
X139878141Y-93375514D01*
X141003975Y-92725514D01*
X141953975Y-94370962D01*
X141953975Y-94370962D01*
G37*
G36*
X144811859Y-92720962D02*
X143686025Y-93370962D01*
X142736025Y-91725514D01*
X143861859Y-91075514D01*
X144811859Y-92720962D01*
X144811859Y-92720962D01*
G37*
G36*
X144403975Y-98614486D02*
X143278141Y-99264486D01*
X142328141Y-97619038D01*
X143453975Y-96969038D01*
X144403975Y-98614486D01*
X144403975Y-98614486D01*
G37*
G36*
X147261859Y-96964486D02*
X146136025Y-97614486D01*
X145186025Y-95969038D01*
X146311859Y-95319038D01*
X147261859Y-96964486D01*
X147261859Y-96964486D01*
G37*
G36*
X138785418Y-86462433D02*
X137549044Y-86864155D01*
X136961912Y-85057147D01*
X138198286Y-84655425D01*
X138785418Y-86462433D01*
X138785418Y-86462433D01*
G37*
G36*
X141923905Y-85442676D02*
X140687531Y-85844398D01*
X140100399Y-84037390D01*
X141336773Y-83635668D01*
X141923905Y-85442676D01*
X141923905Y-85442676D01*
G37*
G36*
X140299601Y-91122610D02*
X139063227Y-91524332D01*
X138476095Y-89717324D01*
X139712469Y-89315602D01*
X140299601Y-91122610D01*
X140299601Y-91122610D01*
G37*
G36*
X143438088Y-90102853D02*
X142201714Y-90504575D01*
X141614582Y-88697567D01*
X142850956Y-88295845D01*
X143438088Y-90102853D01*
X143438088Y-90102853D01*
G37*
G36*
X137318685Y-78062745D02*
X136025807Y-78198632D01*
X135827203Y-76309041D01*
X137120081Y-76173154D01*
X137318685Y-78062745D01*
X137318685Y-78062745D01*
G37*
G36*
X140600607Y-77717801D02*
X139307729Y-77853688D01*
X139109125Y-75964097D01*
X140402003Y-75828210D01*
X140600607Y-77717801D01*
X140600607Y-77717801D01*
G37*
G36*
X137830875Y-82935903D02*
X136537997Y-83071790D01*
X136339393Y-81182199D01*
X137632271Y-81046312D01*
X137830875Y-82935903D01*
X137830875Y-82935903D01*
G37*
G36*
X141112797Y-82590959D02*
X139819919Y-82726846D01*
X139621315Y-80837255D01*
X140914193Y-80701368D01*
X141112797Y-82590959D01*
X141112797Y-82590959D01*
G37*
G36*
X137632271Y-69553688D02*
X136339393Y-69417801D01*
X136537997Y-67528210D01*
X137830875Y-67664097D01*
X137632271Y-69553688D01*
X137632271Y-69553688D01*
G37*
G36*
X140914193Y-69898632D02*
X139621315Y-69762745D01*
X139819919Y-67873154D01*
X141112797Y-68009041D01*
X140914193Y-69898632D01*
X140914193Y-69898632D01*
G37*
G36*
X137120081Y-74426846D02*
X135827203Y-74290959D01*
X136025807Y-72401368D01*
X137318685Y-72537255D01*
X137120081Y-74426846D01*
X137120081Y-74426846D01*
G37*
G36*
X140402003Y-74771790D02*
X139109125Y-74635903D01*
X139307729Y-72746312D01*
X140600607Y-72882199D01*
X140402003Y-74771790D01*
X140402003Y-74771790D01*
G37*
G36*
X139712469Y-61284398D02*
X138476095Y-60882676D01*
X139063227Y-59075668D01*
X140299601Y-59477390D01*
X139712469Y-61284398D01*
X139712469Y-61284398D01*
G37*
G36*
X142850956Y-62304155D02*
X141614582Y-61902433D01*
X142201714Y-60095425D01*
X143438088Y-60497147D01*
X142850956Y-62304155D01*
X142850956Y-62304155D01*
G37*
G36*
X138198286Y-65944575D02*
X136961912Y-65542853D01*
X137549044Y-63735845D01*
X138785418Y-64137567D01*
X138198286Y-65944575D01*
X138198286Y-65944575D01*
G37*
G36*
X141336773Y-66964332D02*
X140100399Y-66562610D01*
X140687531Y-64755602D01*
X141923905Y-65157324D01*
X141336773Y-66964332D01*
X141336773Y-66964332D01*
G37*
G36*
X143453975Y-53630962D02*
X142328141Y-52980962D01*
X143278141Y-51335514D01*
X144403975Y-51985514D01*
X143453975Y-53630962D01*
X143453975Y-53630962D01*
G37*
G36*
X146311859Y-55280962D02*
X145186025Y-54630962D01*
X146136025Y-52985514D01*
X147261859Y-53635514D01*
X146311859Y-55280962D01*
X146311859Y-55280962D01*
G37*
G36*
X141003975Y-57874486D02*
X139878141Y-57224486D01*
X140828141Y-55579038D01*
X141953975Y-56229038D01*
X141003975Y-57874486D01*
X141003975Y-57874486D01*
G37*
G36*
X143861859Y-59524486D02*
X142736025Y-58874486D01*
X143686025Y-57229038D01*
X144811859Y-57879038D01*
X143861859Y-59524486D01*
X143861859Y-59524486D01*
G37*
G36*
X148720551Y-46926152D02*
X147754463Y-46056283D01*
X149025811Y-44644308D01*
X149991899Y-45514177D01*
X148720551Y-46926152D01*
X148720551Y-46926152D01*
G37*
G36*
X151172929Y-49134283D02*
X150206841Y-48264414D01*
X151478189Y-46852439D01*
X152444277Y-47722308D01*
X151172929Y-49134283D01*
X151172929Y-49134283D01*
G37*
G36*
X145441811Y-50567561D02*
X144475723Y-49697692D01*
X145747071Y-48285717D01*
X146713159Y-49155586D01*
X145441811Y-50567561D01*
X145441811Y-50567561D01*
G37*
G36*
X147894189Y-52775692D02*
X146928101Y-51905823D01*
X148199449Y-50493848D01*
X149165537Y-51363717D01*
X147894189Y-52775692D01*
X147894189Y-52775692D01*
G37*
G36*
X155255740Y-41459305D02*
X154491619Y-40407583D01*
X156028752Y-39290791D01*
X156792873Y-40342513D01*
X155255740Y-41459305D01*
X155255740Y-41459305D01*
G37*
G36*
X157195431Y-44129061D02*
X156431310Y-43077339D01*
X157968443Y-41960547D01*
X158732564Y-43012269D01*
X157195431Y-44129061D01*
X157195431Y-44129061D01*
G37*
G36*
X151291557Y-44339453D02*
X150527436Y-43287731D01*
X152064569Y-42170939D01*
X152828690Y-43222661D01*
X151291557Y-44339453D01*
X151291557Y-44339453D01*
G37*
G36*
X153231248Y-47009209D02*
X152467127Y-45957487D01*
X154004260Y-44840695D01*
X154768381Y-45892417D01*
X153231248Y-47009209D01*
X153231248Y-47009209D01*
G37*
G36*
X162793582Y-37476349D02*
X162264824Y-36288740D01*
X164000560Y-35515941D01*
X164529318Y-36703550D01*
X162793582Y-37476349D01*
X162793582Y-37476349D01*
G37*
G36*
X164135813Y-40491049D02*
X163607055Y-39303440D01*
X165342791Y-38530641D01*
X165871549Y-39718250D01*
X164135813Y-40491049D01*
X164135813Y-40491049D01*
G37*
G36*
X158317209Y-39469359D02*
X157788451Y-38281750D01*
X159524187Y-37508951D01*
X160052945Y-38696560D01*
X158317209Y-39469359D01*
X158317209Y-39469359D01*
G37*
G36*
X159659440Y-42484059D02*
X159130682Y-41296450D01*
X160866418Y-40523651D01*
X161395176Y-41711260D01*
X159659440Y-42484059D01*
X159659440Y-42484059D01*
G37*
G36*
X170989309Y-35139985D02*
X170719024Y-33868393D01*
X172577505Y-33473361D01*
X172847790Y-34744953D01*
X170989309Y-35139985D01*
X170989309Y-35139985D01*
G37*
G36*
X171675418Y-38367872D02*
X171405133Y-37096280D01*
X173263614Y-36701248D01*
X173533899Y-37972840D01*
X171675418Y-38367872D01*
X171675418Y-38367872D01*
G37*
G36*
X166196386Y-36158752D02*
X165926101Y-34887160D01*
X167784582Y-34492128D01*
X168054867Y-35763720D01*
X166196386Y-36158752D01*
X166196386Y-36158752D01*
G37*
G36*
X166882495Y-39386639D02*
X166612210Y-38115047D01*
X168470691Y-37720015D01*
X168740976Y-38991607D01*
X166882495Y-39386639D01*
X166882495Y-39386639D01*
G37*
D13*
X141810000Y-75390000D03*
X174180000Y-39160000D03*
X142500000Y-82840000D03*
X211230000Y-60610000D03*
X213600000Y-67830000D03*
X166830000Y-40700000D03*
D14*
X176880000Y-39560000D03*
X179080000Y-39560000D03*
M02*
