M48
;DRILL file {KiCad 4.0.1-stable} date 1/7/2016 3:17:28 PM
;FORMAT={-:-/ absolute / inch / decimal}
FMAT,2
INCH,TZ
T1C0.016
T2C0.030
%
G90
G05
M72
T1
X5.3839Y-3.1055
X5.389Y-2.7642
X5.4457Y-3.0953
X5.448Y-3.4402
X5.4516Y-2.7677
X5.4673Y-2.4335
X5.5063Y-3.4146
X5.5138Y-2.8386
X5.5193Y-3.1504
X5.5268Y-2.4504
X5.5752Y-2.5287
X5.5823Y-3.7543
X5.5906Y-3.4528
X5.6102Y-2.1224
X5.6335Y-3.7236
X5.6638Y-2.152
X5.6953Y-2.2378
X5.724Y-3.7394
X5.7776Y-4.0319
X5.8169Y-1.8535
X5.8201Y-3.9898
X5.8661Y-1.8894
X5.8752Y-1.9839
X5.913Y-3.9882
X6.0272Y-4.2673
X6.065Y-4.2154
X6.0736Y-1.6295
X6.1047Y-1.7689
X6.1098Y-1.6795
X6.1488Y-4.1929
X6.3209Y-4.4409
X6.3457Y-4.3846
X6.372Y-1.4642
X6.3728Y-1.6055
X6.3976Y-1.5268
X6.4232Y-4.3449
X6.6386Y-4.5512
X6.6504Y-4.4906
X6.6976Y-1.365
X6.7232Y-4.435
X6.7256Y-1.4496
X6.9776Y-4.5319
X6.9787Y-1.4657
X6.9791Y-4.5945
X7.035Y-4.4657
X7.0524Y-1.3984
X7.289Y-1.4921
X7.2976Y-4.5063
X7.3193Y-4.565
X7.3465Y-4.4264
X7.3492Y-1.439
X7.3709Y-1.374
X7.5898Y-1.5831
X7.6154Y-4.413
X7.6425Y-4.3248
X7.6457Y-4.465
X7.6748Y-1.5445
X7.6949Y-1.4862
X7.865Y-1.7343
X7.9016Y-4.2551
X7.911Y-4.1614
X7.9441Y-4.3
X7.952Y-1.715
X7.9913Y-1.6634
X8.1024Y-1.9386
X8.1386Y-3.9472
X8.1472Y-4.0457
X8.1972Y-1.9413
X8.1992Y-4.0783
X8.2394Y-1.8961
X8.2909Y-2.1949
X8.3217Y-3.689
X8.3543Y-3.7752
X8.3807Y-2.2165
X8.4055Y-3.8047
X8.4232Y-2.4752
X8.435Y-2.1799
X8.4402Y-3.4008
X8.4882Y-3.4791
X8.4953Y-2.7799
X8.5Y-3.0921
X8.5071Y-2.5094
X8.5488Y-3.4945
X8.5622Y-3.152
X8.5685Y-2.4906
X8.5728Y-2.8311
X8.6256Y-3.1614
X8.6311Y-2.8232
T2
X5.5831Y-2.9681
X5.6102Y-3.2614
X6.5681Y-1.6024
X6.8575Y-1.5417
X8.3161Y-2.3862
X8.4094Y-2.6705
T0
M30
